<svg width="80" height="80" viewBox="0 0 80 80" fill="none" xmlns="http://www.w3.org/2000/svg">
<rect width="80" height="80" rx="40" fill="#393939"/>
<path d="M53.3332 55V51.6667C53.3332 49.8986 52.6308 48.2029 51.3805 46.9526C50.1303 45.7024 48.4346 45 46.6665 45H33.3332C31.5651 45 29.8694 45.7024 28.6191 46.9526C27.3689 48.2029 26.6665 49.8986 26.6665 51.6667V55" stroke="#B1B2B2" stroke-width="2" stroke-linecap="round" stroke-linejoin="round"/>
<path d="M40.0002 38.3333C43.6821 38.3333 46.6668 35.3486 46.6668 31.6667C46.6668 27.9848 43.6821 25 40.0002 25C36.3183 25 33.3335 27.9848 33.3335 31.6667C33.3335 35.3486 36.3183 38.3333 40.0002 38.3333Z" stroke="#B1B2B2" stroke-width="2" stroke-linecap="round" stroke-linejoin="round"/>
</svg>
