<svg width="250" height="237" viewBox="0 0 250 237" fill="none" xmlns="http://www.w3.org/2000/svg">
<path d="M7.51229 61.1724C9.05198 61.1146 12.1261 59.5434 12.1314 59.5382C12.1366 59.5329 10.4813 57.8251 10.3605 57.7305C8.98892 56.6322 5.69408 55.3184 4.05454 56.401C3.78696 56.589 3.56199 56.8313 3.3943 57.112C3.2266 57.3928 3.11995 57.7057 3.08127 58.0305C3.0426 58.3552 3.07279 58.6844 3.16986 58.9967C3.26693 59.309 3.42871 59.5973 3.64466 59.8429C4.51698 60.9202 6.19856 61.2197 7.51229 61.1724Z" fill="#00AFC1"/>
<path d="M39.3045 46.6737C39.3413 46.6737 38.8736 44.3353 38.8263 44.1881C38.3008 42.5171 36.2619 39.6006 34.2965 39.6006C33.971 39.6096 33.651 39.6869 33.3572 39.8273C33.0634 39.9677 32.8024 40.1682 32.5909 40.4158C32.3794 40.6635 32.2223 40.9527 32.1295 41.2649C32.0368 41.577 32.0106 41.9051 32.0527 42.2281C32.1946 43.6101 33.4295 44.7925 34.554 45.4756C35.8678 46.2849 39.2992 46.6737 39.3045 46.6737Z" fill="#00AFC1"/>
<path d="M43.1511 30.9198C41.2961 31.582 40.366 35.0082 40.4185 36.7633C40.4185 36.9157 40.7706 39.2804 40.8021 39.2647L40.8336 39.2699C40.6865 39.7954 40.5289 40.3945 40.3712 41.0303C40.0927 42.2074 39.7827 43.5422 39.5514 45.0188C39.2823 46.6064 39.1068 48.2084 39.026 49.8166C38.9241 51.617 38.9803 53.4228 39.1941 55.2134C39.1966 55.2343 39.1966 55.2555 39.1941 55.2765C38.9524 54.751 38.2325 53.3111 38.1431 53.206C37.1815 51.7346 34.4647 49.4592 32.5624 49.9742C32.2484 50.0696 31.958 50.2301 31.7103 50.4452C31.4625 50.6604 31.263 50.9255 31.1246 51.223C30.9862 51.5206 30.9122 51.844 30.9073 52.1721C30.9024 52.5002 30.9668 52.8257 31.0963 53.1272C31.6218 54.4199 33.0984 55.2292 34.3648 55.597C35.7837 56.0016 38.9576 55.534 39.2099 55.4919C39.4874 57.2907 39.8841 59.069 40.3975 60.8152C40.6813 61.8661 41.0071 62.8698 41.3434 63.8998C41.1174 63.4531 40.9177 63.0538 40.8809 63.0012C39.9193 61.5298 37.2025 59.2544 35.3002 59.7694C34.9862 59.8648 34.6959 60.0253 34.4481 60.2404C34.2003 60.4556 34.0008 60.7206 33.8624 61.0182C33.724 61.3158 33.65 61.6392 33.6451 61.9673C33.6402 62.2954 33.7046 62.6208 33.8341 62.9224C34.3333 64.2151 35.8415 65.0244 37.1026 65.3922C38.3638 65.76 41.0964 65.3922 41.8321 65.3081C41.9687 65.7022 42.0948 66.0964 42.2315 66.4852C42.8778 68.3665 43.5294 70.2425 44.1127 72.1027C44.3177 72.7544 44.4963 73.406 44.6803 74.0576C44.4806 73.6635 44.3072 73.3324 44.2756 73.2851C43.3192 71.8137 40.5972 69.5331 38.7001 70.0533C38.3852 70.1474 38.0937 70.307 37.8449 70.5218C37.5961 70.7366 37.3957 71.0016 37.2567 71.2995C37.1177 71.5973 37.0433 71.9212 37.0385 72.2499C37.0337 72.5785 37.0985 72.9045 37.2288 73.2063C37.7543 74.499 39.2362 75.3083 40.4973 75.6708C41.7585 76.0334 44.2283 75.7234 45.0796 75.6078C45.2478 76.2804 45.416 76.9583 45.5421 77.6152C45.6209 78.0671 45.7312 78.498 45.7838 78.9604C45.8363 79.4229 45.9099 79.859 45.9677 80.3057C46.057 81.1623 46.1516 82.0503 46.2147 82.8911C46.262 83.4797 46.2988 84.0367 46.3356 84.599C46.1411 83.9421 45.726 82.6704 45.6787 82.5706C44.9874 81.1866 43.9524 80.0033 42.6729 79.1338C42.6014 78.9744 42.5133 78.823 42.4101 78.6819C42.2312 78.409 41.9969 78.1767 41.7224 78.0002C41.4478 77.8236 41.1393 77.7068 40.8167 77.6573C40.4941 77.6077 40.1647 77.6265 39.8499 77.7125C39.535 77.7985 39.2418 77.9498 38.9892 78.1564C37.4968 79.4386 37.8594 82.97 38.5425 84.5885C38.5845 84.6883 39.1363 85.6762 39.4936 86.2911C39.2256 85.96 38.9682 85.6342 38.6949 85.2979C38.1694 84.6305 37.5861 83.9736 36.9818 83.2695L36.0622 82.271C35.7626 81.9295 35.4001 81.6089 35.069 81.2726C34.286 80.5106 33.4505 79.7749 32.5939 79.0498C33.1825 78.5716 35.2214 76.8427 35.831 75.6656C36.4405 74.4885 36.8504 72.8384 36.2356 71.593C36.102 71.2947 35.9068 71.0279 35.663 70.8101C35.4192 70.5923 35.1321 70.4285 34.8206 70.3293C34.5091 70.2301 34.1802 70.1978 33.8554 70.2344C33.5305 70.2711 33.217 70.3759 32.9355 70.542C31.2644 71.593 31.091 75.1296 31.5219 76.8479C31.5219 76.953 31.9896 78.1407 32.2471 78.7923C31.7216 78.3614 31.1961 77.9305 30.6706 77.5101C29.0941 76.3067 27.5177 75.1348 25.9096 73.9577L24.4488 72.87C24.659 72.7018 27.1498 70.6944 27.8172 69.3807C28.4057 68.2088 28.8314 66.5483 28.2218 65.3029C28.0863 65.0055 27.89 64.7398 27.6455 64.5229C27.401 64.3061 27.1138 64.1429 26.8024 64.0438C26.4909 63.9448 26.1622 63.9122 25.8374 63.948C25.5125 63.9838 25.1988 64.0873 24.9165 64.2519C23.2506 65.3029 23.072 68.8394 23.5029 70.5578C23.5344 70.6892 24.1755 72.397 24.3594 72.8227C23.3085 72.0239 22.2575 71.2147 21.2065 70.3739C19.8326 69.2494 18.5336 68.0364 17.3178 66.7427C17.4177 66.6639 20.0241 64.5882 20.7073 63.2377C21.2958 62.0658 21.7215 60.4053 21.1119 59.1599C20.9776 58.8621 20.7822 58.5959 20.5382 58.3786C20.2943 58.1613 20.0074 57.9977 19.6962 57.8986C19.3849 57.7995 19.0563 57.767 18.7316 57.8032C18.4069 57.8394 18.0936 57.9436 17.8118 58.1089C16.1407 59.1599 15.9673 62.6912 16.393 64.4148C16.4192 64.5304 16.9185 65.8336 17.1549 66.4484L17.0603 66.5062C15.8742 65.17 14.8086 63.7316 13.8759 62.2077C13.3504 61.3774 12.8984 60.5524 12.4728 59.7379C12.9983 59.4016 15.384 57.8304 16.1512 56.6848C16.9185 55.5392 17.4755 53.9837 17.0025 52.6753C16.9017 52.3659 16.7371 52.0811 16.5194 51.8393C16.3017 51.5975 16.0357 51.404 15.7387 51.2713C15.4416 51.1386 15.12 51.0696 14.7946 51.0689C14.4692 51.0681 14.1473 51.1356 13.8496 51.2669C12.0734 52.1182 11.5111 55.6233 11.7476 57.3627C11.7476 57.4573 11.9998 58.4137 12.1838 59.0915C11.9998 58.7237 11.8002 58.3453 11.6583 57.988C11.0119 56.648 10.5022 55.3605 10.0818 54.2517C9.83481 53.6106 9.62461 53.0221 9.43544 52.4756C9.77701 51.8765 11.1328 49.4382 11.2642 48.0982C11.3955 46.7582 11.1906 45.0924 10.1711 44.1518C9.93799 43.9222 9.65919 43.7443 9.35282 43.6295C9.04645 43.5147 8.71937 43.4656 8.3928 43.4854C8.06623 43.5052 7.74748 43.5935 7.45725 43.7445C7.16701 43.8955 6.91178 44.1059 6.70813 44.362C5.53102 45.9384 6.64507 49.3016 7.65927 50.7362C7.74335 50.8623 9.33559 52.6437 9.35661 52.6122V52.5754C9.53002 53.1009 9.7192 53.679 9.93991 54.299C10.355 55.4341 10.8385 56.7163 11.4533 58.0773C12.1039 59.5514 12.839 60.9866 13.6551 62.3759C14.5608 63.9335 15.6037 65.4072 16.7713 66.7795L16.8186 66.8268C16.3299 66.522 14.9268 65.7233 14.8165 65.6707C13.2032 64.9771 9.67716 64.5777 8.37919 66.0543C8.17153 66.3075 8.01948 66.6015 7.93293 66.9173C7.84638 67.2331 7.82727 67.5636 7.87683 67.8872C7.9264 68.2109 8.04353 68.5205 8.22062 68.7959C8.39771 69.0713 8.63078 69.3064 8.90469 69.4858C10.0345 70.2898 11.7371 70.1322 12.9878 69.7433C14.4013 69.2966 16.7871 67.1526 16.9763 66.9792C18.1875 68.32 19.4866 69.5787 20.8649 70.747C21.6689 71.4459 22.5097 72.129 23.3557 72.7964C22.9196 72.5494 22.536 72.3287 22.4782 72.3077C20.8649 71.6088 17.3389 71.2094 16.0409 72.6913C15.8333 72.944 15.6813 73.2376 15.5948 73.553C15.5083 73.8684 15.4893 74.1985 15.5388 74.5217C15.5884 74.845 15.7055 75.1541 15.8826 75.4291C16.0596 75.704 16.2926 75.9386 16.5664 76.1175C17.6962 76.9215 19.3988 76.7691 20.6495 76.375C21.9001 75.9809 23.9969 74.189 24.5381 73.7055L25.4893 74.478C27.0657 75.6919 28.6422 76.8952 30.1556 78.1196C30.6811 78.5505 31.2066 78.9972 31.7321 79.4439C31.3485 79.2232 31.0227 79.0393 30.9701 79.0182C29.3569 78.3193 25.8308 77.92 24.5329 79.4018C24.3253 79.6546 24.1733 79.9482 24.0868 80.2636C24.0003 80.5789 23.9812 80.909 24.0308 81.2323C24.0804 81.5555 24.1975 81.8647 24.3745 82.1396C24.5516 82.4146 24.7846 82.6492 25.0583 82.8281C26.1882 83.6321 27.8908 83.4797 29.1467 83.0856C30.4026 82.6914 32.2996 81.0729 32.9302 80.5054C33.4557 80.9731 33.9497 81.446 34.4226 81.9242C34.7379 82.2553 35.0637 82.5548 35.3633 82.9121L36.2251 83.9369C36.7506 84.6042 37.3391 85.2926 37.8594 85.96C38.2219 86.4172 38.5583 86.8638 38.9103 87.3158C38.3848 86.8796 37.3339 86.0441 37.2445 85.9863C35.7521 85.0509 32.3312 84.1208 30.823 85.3872C30.5799 85.606 30.3856 85.8734 30.2526 86.1722C30.1195 86.4709 30.0508 86.7943 30.0508 87.1213C30.0508 87.4484 30.1195 87.7717 30.2526 88.0705C30.3856 88.3692 30.5799 88.6367 30.823 88.8555C31.8162 89.8224 33.524 89.9065 34.822 89.7278C36.2513 89.5071 38.8368 87.8308 39.1626 87.6258C39.7249 88.3668 40.2609 89.0972 40.7391 89.7908C41.5904 90.9732 42.3471 92.0715 43.0092 93.0594L44.1548 92.5076C43.4348 91.4829 42.6098 90.3374 41.6797 89.1025C41.1122 88.3457 40.4868 87.526 39.8405 86.7325C40.5097 86.0003 41.1361 85.23 41.7165 84.4256C43.0985 84.9511 45.9782 84.9984 46.3461 84.9984C46.4039 85.9285 46.4564 86.8323 46.488 87.6889C46.5405 89.0131 46.5685 90.2305 46.572 91.3411L47.8017 90.7472C47.7702 89.7856 47.7176 88.7399 47.6493 87.6311C47.5967 86.6852 47.5179 85.6762 47.4233 84.641C47.7912 84.5517 50.7865 83.7897 51.9216 82.8859C52.9725 82.0714 54.0235 80.7471 54.0235 79.3546C54.0258 79.0277 53.9594 78.7041 53.8286 78.4046C53.6978 78.1051 53.5055 77.8364 53.2643 77.6159C53.023 77.3954 52.7381 77.2281 52.428 77.1248C52.118 77.0215 51.7897 76.9845 51.4644 77.0161C49.5148 77.2631 47.87 80.4108 47.5442 82.1344C47.5442 82.2343 47.4391 83.3641 47.3971 84.0787C47.3603 83.6531 47.3287 83.2432 47.2814 82.8123C47.1974 81.9505 47.087 81.0939 46.9714 80.1848C46.9031 79.7382 46.8295 79.2915 46.756 78.8396C46.6824 78.3876 46.572 77.9252 46.4827 77.4628C46.2462 76.4118 45.9572 75.3188 45.6419 74.2468C46.3934 74.1679 49.0629 73.8631 50.2084 73.1958C51.354 72.5284 52.6152 71.3986 52.7939 70.0428C52.8467 69.7203 52.8311 69.3902 52.748 69.0741C52.6648 68.758 52.516 68.4629 52.3113 68.2081C52.1066 67.9533 51.8505 67.7445 51.5597 67.5952C51.2689 67.446 50.95 67.3596 50.6236 67.3418C48.653 67.2892 46.5563 70.1479 45.973 71.8085C45.9362 71.9083 45.6524 73.1432 45.5053 73.8264C45.3109 73.1853 45.1217 72.5389 44.901 71.8926C44.2756 70.0323 43.5767 68.1668 42.8936 66.3013C42.6834 65.7338 42.4784 65.161 42.2735 64.5882C42.5415 64.5882 45.726 64.2676 47.0029 63.5372C48.138 62.8856 49.4097 61.7348 49.5884 60.358C49.6404 60.0351 49.624 59.7049 49.5402 59.3888C49.4564 59.0727 49.3071 58.7778 49.102 58.5231C48.8969 58.2684 48.6405 58.0597 48.3495 57.9105C48.0585 57.7612 47.7394 57.6749 47.4128 57.6569C45.4475 57.6044 43.3455 60.4683 42.7622 62.1236C42.7202 62.2498 42.3103 64.0259 42.2367 64.4831C41.7848 63.2272 41.3486 61.9712 40.965 60.7101C40.4424 59.0148 40.0299 57.2876 39.7301 55.5392C39.8562 55.5392 43.1773 55.2344 44.4911 54.4882C45.6261 53.8366 46.8978 52.691 47.0765 51.3353C47.1286 51.0127 47.1122 50.6827 47.0284 50.3669C46.9445 50.0511 46.7951 49.7565 46.5899 49.5022C46.3847 49.2479 46.1283 49.0397 45.8373 48.891C45.5463 48.7424 45.2273 48.6567 44.901 48.6395C42.9356 48.5869 40.8336 51.4456 40.2504 53.1009C40.2136 53.2113 39.9035 54.567 39.7722 55.2029H39.625C39.367 53.4075 39.272 51.5924 39.3413 49.7798C39.3413 48.7971 39.4411 47.8617 39.5357 46.9474C40.161 46.9474 43.0144 46.9474 44.2651 46.4219C45.5158 45.8964 46.8558 44.898 47.1816 43.5527C47.2694 43.2377 47.2899 42.9077 47.242 42.5843C47.194 42.2608 47.0786 41.951 46.9032 41.675C46.7278 41.399 46.4963 41.163 46.2238 40.9822C45.9513 40.8015 45.6438 40.68 45.3214 40.6257C43.3718 40.3577 40.9703 42.9694 40.2083 44.5564C40.1663 44.6405 39.8405 45.5653 39.6145 46.238C39.6671 45.8281 39.7091 45.4024 39.7616 45.0083C39.9666 43.5369 40.2398 42.1969 40.4973 41.0146C40.6445 40.3472 40.7969 39.7429 40.9387 39.1753C41.5588 38.8653 44.0286 37.5989 44.8747 36.5479C45.7207 35.4969 46.4512 33.9992 46.1411 32.654C46.0737 32.3352 45.94 32.0342 45.7489 31.7704C45.5578 31.5065 45.3134 31.2857 45.0316 31.1223C44.7497 30.9588 44.4367 30.8563 44.1128 30.8215C43.7889 30.7866 43.4612 30.8201 43.1511 30.9198Z" fill="#00AFC1"/>
<path d="M245.865 137.847C244.331 137.958 241.099 136.733 241.094 136.733C241.089 136.733 242.549 134.847 242.67 134.742C243.91 133.501 247.042 131.83 248.792 132.729C249.079 132.886 249.329 133.102 249.526 133.362C249.724 133.623 249.865 133.922 249.939 134.24C250.013 134.558 250.02 134.889 249.958 135.209C249.896 135.53 249.768 135.835 249.58 136.103C248.813 137.269 247.174 137.753 245.865 137.847Z" fill="#00AFC1"/>
<path d="M212.67 126.912C212.633 126.912 212.843 124.542 212.875 124.389C213.227 122.671 214.919 119.549 216.874 119.334C217.199 119.307 217.527 119.349 217.835 119.458C218.144 119.566 218.426 119.738 218.663 119.963C218.901 120.187 219.088 120.459 219.214 120.761C219.339 121.063 219.399 121.388 219.391 121.714C219.391 123.102 218.303 124.41 217.263 125.214C216.054 126.155 212.67 126.912 212.67 126.912Z" fill="#00AFC1"/>
<path d="M207.137 111.677C209.049 112.129 210.347 115.435 210.484 117.185C210.484 117.337 210.416 119.723 210.379 119.712H210.342C210.547 120.238 210.768 120.795 210.994 121.41C211.398 122.55 211.85 123.843 212.244 125.288C212.689 126.842 213.039 128.421 213.295 130.017C213.597 131.795 213.737 133.596 213.716 135.398C213.718 135.419 213.718 135.44 213.716 135.461C213.9 134.936 214.462 133.407 214.52 133.291C215.313 131.714 217.767 129.166 219.712 129.471C220.033 129.531 220.338 129.659 220.607 129.845C220.876 130.031 221.103 130.272 221.273 130.551C221.443 130.831 221.552 131.143 221.594 131.467C221.635 131.792 221.608 132.121 221.514 132.434C221.157 133.774 219.749 134.747 218.535 135.246C217.168 135.808 213.958 135.682 213.705 135.671C213.637 137.507 213.45 139.336 213.143 141.147C212.97 142.198 212.759 143.249 212.539 144.3C212.712 143.832 212.87 143.412 212.896 143.359C213.69 141.783 216.149 139.229 218.093 139.539C218.414 139.6 218.718 139.727 218.987 139.913C219.255 140.099 219.481 140.339 219.651 140.618C219.82 140.897 219.929 141.208 219.971 141.532C220.012 141.856 219.985 142.185 219.89 142.498C219.538 143.843 218.13 144.81 216.916 145.309C215.702 145.808 212.949 145.766 212.223 145.745C212.134 146.15 212.05 146.554 211.955 146.959C211.519 148.898 211.078 150.832 210.7 152.739C210.568 153.412 210.463 154.079 210.353 154.747C210.505 154.332 210.642 153.985 210.663 153.932C211.462 152.356 213.916 149.802 215.86 150.112C216.181 150.172 216.486 150.299 216.755 150.484C217.024 150.67 217.251 150.91 217.421 151.189C217.591 151.468 217.7 151.78 217.742 152.104C217.784 152.428 217.756 152.758 217.662 153.07C217.305 154.416 215.897 155.388 214.683 155.882C213.469 156.376 210.978 156.344 210.121 156.318C210.027 157.006 209.938 157.695 209.88 158.367C209.853 158.825 209.79 159.266 209.79 159.729C209.79 160.191 209.79 160.638 209.748 161.084C209.748 161.951 209.748 162.839 209.79 163.712C209.79 164.295 209.832 164.857 209.854 165.42C209.98 164.747 210.253 163.438 210.284 163.318C210.826 161.867 211.731 160.578 212.912 159.576C212.965 159.412 213.033 159.254 213.117 159.103C213.263 158.811 213.469 158.553 213.722 158.346C213.975 158.138 214.269 157.987 214.584 157.9C214.899 157.814 215.229 157.795 215.552 157.845C215.875 157.895 216.184 158.012 216.459 158.189C218.083 159.303 218.104 162.85 217.605 164.537C217.573 164.637 217.137 165.677 216.848 166.329C217.074 165.971 217.289 165.619 217.531 165.278C217.999 164.553 218.487 163.838 219.013 163.071L219.817 161.978C220.08 161.605 220.4 161.247 220.694 160.874C221.388 160.033 222.14 159.214 222.912 158.399C222.276 157.989 220.043 156.497 219.323 155.388C218.603 154.279 218.004 152.687 218.477 151.384C218.577 151.074 218.741 150.788 218.959 150.546C219.176 150.304 219.442 150.11 219.74 149.977C220.037 149.845 220.359 149.776 220.685 149.775C221.01 149.775 221.332 149.843 221.63 149.975C223.406 150.827 223.963 154.332 223.732 156.071C223.732 156.181 223.406 157.411 223.206 158.078C223.674 157.595 224.136 157.112 224.625 156.639C226.039 155.267 227.51 153.927 228.971 152.582C229.418 152.172 229.859 151.757 230.3 151.342C230.074 151.2 227.379 149.481 226.575 148.241C225.86 147.143 225.256 145.54 225.729 144.237C225.829 143.928 225.994 143.643 226.212 143.401C226.429 143.159 226.695 142.966 226.993 142.833C227.29 142.7 227.611 142.631 227.937 142.631C228.262 142.63 228.584 142.697 228.882 142.829C230.653 143.68 231.215 147.185 230.984 148.924C230.984 149.056 230.516 150.821 230.379 151.268C231.357 150.354 232.318 149.434 233.233 148.493C234.475 147.226 235.632 145.878 236.696 144.458C236.591 144.389 233.774 142.608 232.949 141.341C232.234 140.238 231.63 138.64 232.103 137.332C232.204 137.023 232.368 136.738 232.586 136.496C232.804 136.254 233.07 136.061 233.367 135.928C233.664 135.795 233.985 135.726 234.311 135.726C234.636 135.725 234.958 135.792 235.256 135.924C237.032 136.775 237.589 140.28 237.358 142.025C237.358 142.135 237 143.486 236.832 144.127L236.932 144.174C237.967 142.718 238.869 141.172 239.628 139.555C240.059 138.672 240.416 137.8 240.752 136.927C240.19 136.649 237.652 135.351 236.78 134.3C235.907 133.249 235.172 131.762 235.498 130.411C235.564 130.091 235.697 129.788 235.888 129.522C236.078 129.257 236.323 129.034 236.605 128.869C236.888 128.704 237.202 128.6 237.527 128.565C237.852 128.529 238.181 128.562 238.493 128.661C240.348 129.318 241.288 132.739 241.246 134.494C241.246 134.589 241.11 135.545 240.999 136.26C241.147 135.876 241.299 135.477 241.43 135.104C241.924 133.701 242.292 132.382 242.607 131.215C242.781 130.548 242.923 129.944 243.049 129.376C242.644 128.819 241.036 126.544 240.758 125.23C240.479 123.916 240.5 122.235 241.409 121.184C241.616 120.93 241.873 120.722 242.165 120.574C242.457 120.427 242.777 120.342 243.103 120.326C243.43 120.31 243.756 120.364 244.061 120.482C244.366 120.601 244.642 120.783 244.872 121.015C246.218 122.45 245.477 125.918 244.631 127.458C244.557 127.589 243.164 129.534 243.143 129.507V129.471C243.028 130.022 242.902 130.606 242.749 131.247C242.46 132.424 242.124 133.748 241.656 135.172C241.171 136.707 240.597 138.212 239.938 139.681C239.206 141.333 238.326 142.916 237.311 144.41C237.3 144.429 237.287 144.446 237.274 144.463C237.726 144.111 239.029 143.16 239.139 143.097C240.663 142.224 244.126 141.447 245.577 142.776C245.811 143.003 245.996 143.278 246.118 143.581C246.239 143.885 246.296 144.21 246.284 144.537C246.271 144.864 246.19 145.184 246.046 145.477C245.901 145.771 245.697 146.03 245.445 146.239C244.394 147.159 242.697 147.195 241.409 146.938C239.959 146.654 237.353 144.783 237.142 144.631C236.079 146.126 234.915 147.546 233.658 148.882C232.928 149.671 232.171 150.459 231.404 151.194C231.809 150.9 232.171 150.643 232.224 150.611C233.753 149.739 237.211 148.956 238.661 150.285C238.897 150.512 239.082 150.787 239.204 151.09C239.326 151.393 239.383 151.719 239.371 152.046C239.358 152.373 239.277 152.694 239.132 152.987C238.987 153.281 238.782 153.54 238.53 153.748C237.479 154.673 235.787 154.71 234.499 154.453C233.212 154.195 230.936 152.645 230.342 152.224C230.048 152.513 229.754 152.808 229.454 153.092C228.02 154.468 226.58 155.84 225.214 157.227C224.73 157.711 224.273 158.21 223.816 158.709C224.173 158.446 224.478 158.231 224.525 158.184C226.054 157.316 229.512 156.533 230.963 157.863C231.198 158.09 231.383 158.364 231.506 158.668C231.628 158.971 231.685 159.297 231.672 159.624C231.66 159.951 231.578 160.271 231.434 160.565C231.289 160.858 231.083 161.118 230.831 161.326C229.78 162.251 228.088 162.282 226.801 162.03C225.513 161.778 223.459 160.37 222.754 159.876C222.297 160.401 221.84 160.927 221.425 161.452C221.146 161.82 220.857 162.151 220.6 162.535L219.817 163.649C219.344 164.374 218.855 165.12 218.414 165.835C218.104 166.36 217.82 166.817 217.526 167.296C218.004 166.807 218.95 165.866 219.039 165.793C220.416 164.705 223.721 163.407 225.345 164.5C225.611 164.689 225.835 164.932 226.001 165.214C226.168 165.495 226.273 165.808 226.31 166.133C226.347 166.458 226.315 166.787 226.217 167.098C226.119 167.41 225.956 167.697 225.739 167.942C224.856 168.993 223.169 169.303 221.861 169.25C220.416 169.187 217.657 167.8 217.315 167.627C216.837 168.425 216.38 169.203 215.965 169.955C215.245 171.221 214.614 172.398 214.063 173.449L212.87 173.029C213.469 171.936 214.163 170.706 214.972 169.35C215.45 168.536 215.981 167.674 216.548 166.796C215.807 166.137 215.106 165.435 214.446 164.694C213.133 165.388 210.274 165.745 209.906 165.745C209.948 166.676 210.001 167.585 210.064 168.436C210.153 169.76 210.263 170.974 210.374 172.072L209.092 171.62C209.018 170.657 208.953 169.618 208.897 168.504C208.85 167.558 208.818 166.549 208.797 165.509C208.419 165.462 205.361 165.031 204.136 164.258C203.027 163.559 201.808 162.361 201.687 160.974C201.645 160.648 201.672 160.316 201.767 160.001C201.863 159.686 202.024 159.395 202.24 159.146C202.456 158.898 202.722 158.698 203.021 158.56C203.319 158.423 203.644 158.35 203.973 158.346C205.939 158.378 207.92 161.326 208.429 163.008C208.461 163.107 208.666 164.216 208.787 164.92C208.787 164.5 208.787 164.085 208.787 163.649C208.787 162.787 208.787 161.92 208.787 160.995C208.787 160.548 208.829 160.091 208.85 159.634C208.871 159.177 208.934 158.704 208.976 158.236C209.092 157.148 209.26 156.05 209.459 154.947C208.703 154.947 206.012 154.947 204.804 154.421C203.595 153.896 202.213 152.892 201.887 151.547C201.799 151.232 201.779 150.901 201.827 150.578C201.876 150.255 201.992 149.945 202.168 149.669C202.344 149.394 202.576 149.158 202.849 148.978C203.122 148.798 203.43 148.678 203.753 148.625C205.702 148.357 208.104 150.969 208.86 152.55C208.908 152.65 209.328 153.848 209.543 154.51C209.67 153.848 209.79 153.191 209.932 152.524C210.358 150.606 210.847 148.672 211.32 146.744C211.467 146.15 211.609 145.561 211.751 144.973C211.477 144.973 208.282 145.03 206.932 144.447C205.728 143.922 204.341 142.923 204.015 141.573C203.927 141.258 203.907 140.929 203.955 140.606C204.003 140.283 204.119 139.974 204.294 139.699C204.47 139.424 204.701 139.189 204.974 139.009C205.246 138.829 205.553 138.709 205.876 138.656C207.825 138.388 210.227 141 210.989 142.582C211.046 142.703 211.645 144.426 211.777 144.873C212.087 143.575 212.381 142.277 212.623 140.984C212.957 139.249 213.18 137.493 213.29 135.729C213.164 135.729 209.827 135.798 208.44 135.204C207.237 134.678 205.849 133.68 205.523 132.329C205.436 132.014 205.415 131.684 205.464 131.361C205.512 131.037 205.628 130.728 205.804 130.452C205.98 130.176 206.212 129.941 206.485 129.761C206.758 129.581 207.066 129.461 207.389 129.408C209.339 129.14 211.74 131.751 212.497 133.333C212.549 133.438 213.022 134.752 213.211 135.382H213.322C213.382 133.597 213.281 131.811 213.022 130.043C212.891 129.066 212.712 128.146 212.497 127.248C211.877 127.327 209.044 127.642 207.736 127.248C206.427 126.854 204.993 126.018 204.52 124.715C204.398 124.411 204.342 124.086 204.355 123.759C204.367 123.433 204.448 123.112 204.592 122.819C204.736 122.526 204.941 122.266 205.191 122.057C205.442 121.848 205.735 121.693 206.049 121.604C207.956 121.126 210.631 123.459 211.561 124.951C211.614 125.03 212.034 125.913 212.334 126.559C212.239 126.155 212.15 125.734 212.055 125.351C211.693 123.911 211.272 122.613 210.889 121.462C210.668 120.81 210.453 120.227 210.248 119.686C209.596 119.444 207 118.435 206.044 117.489C205.087 116.543 204.178 115.135 204.362 113.753C204.391 113.428 204.489 113.112 204.648 112.826C204.807 112.541 205.025 112.292 205.286 112.096C205.548 111.9 205.848 111.762 206.167 111.69C206.486 111.618 206.816 111.613 207.137 111.677Z" fill="#00AFC1"/>
<path d="M233.091 209.225C232.25 209.645 230.143 209.703 230.143 209.703C230.143 209.703 230.521 208.3 230.558 208.216C230.973 207.228 232.355 205.557 233.548 205.657C233.746 205.678 233.938 205.741 234.111 205.841C234.284 205.942 234.433 206.077 234.55 206.239C234.666 206.402 234.747 206.587 234.787 206.782C234.828 206.978 234.826 207.18 234.783 207.375C234.625 208.211 233.811 208.867 233.091 209.225Z" fill="#00AFC1"/>
<path d="M211.808 210.77C211.808 210.77 211.356 209.388 211.335 209.299C211.136 208.248 211.367 206.088 212.418 205.51C212.596 205.418 212.791 205.366 212.99 205.355C213.19 205.344 213.39 205.376 213.576 205.448C213.763 205.52 213.932 205.631 214.073 205.773C214.214 205.914 214.323 206.085 214.394 206.272C214.725 207.049 214.394 208.048 214.005 208.741C213.537 209.556 211.808 210.77 211.808 210.77Z" fill="#00AFC1"/>
<path d="M218.576 233.487C218.834 234.07 219.102 234.632 219.333 235.153C219.564 235.673 219.743 236.014 219.937 236.409H220.773C220.521 235.925 220.247 235.405 219.974 234.832C219.743 234.364 219.501 233.865 219.259 233.35C220.104 232.905 220.882 232.344 221.572 231.684C222.117 231.949 222.679 232.179 223.253 232.373C223.148 232.998 223.048 233.608 222.964 234.181C222.849 234.985 222.754 235.725 222.675 236.398H223.437C223.5 235.752 223.574 235.042 223.668 234.296C223.731 233.771 223.81 233.245 223.894 232.667C224.126 232.667 225.996 232.83 226.837 232.525C227.678 232.22 228.471 231.695 228.724 230.886C228.789 230.697 228.814 230.497 228.797 230.298C228.78 230.099 228.721 229.906 228.625 229.732C228.528 229.557 228.396 229.405 228.236 229.285C228.077 229.165 227.893 229.08 227.699 229.036C226.522 228.799 224.956 230.297 224.436 231.232C224.399 231.296 224.084 232.047 223.91 232.436C223.957 232.094 224.01 231.758 224.068 231.385C224.152 230.859 224.257 230.334 224.352 229.808C224.409 229.54 224.472 229.283 224.535 228.999C224.598 228.715 224.677 228.474 224.746 228.195C224.861 227.801 224.998 227.396 225.134 226.997C226.043 227.233 226.983 227.325 227.92 227.27C228.703 227.118 229.664 226.697 230.022 225.936C230.115 225.759 230.17 225.565 230.183 225.366C230.196 225.167 230.167 224.967 230.098 224.78C230.03 224.592 229.922 224.422 229.783 224.279C229.644 224.136 229.476 224.023 229.291 223.949C228.161 223.539 226.39 224.785 225.728 225.631C225.728 225.657 225.586 225.851 225.445 226.083C225.592 225.694 225.734 225.305 225.891 224.916C226.343 223.818 226.832 222.709 227.326 221.6L227.625 220.901C228.056 221.001 229.691 221.353 230.489 221.196C231.288 221.038 232.234 220.623 232.591 219.856C232.684 219.679 232.739 219.485 232.753 219.286C232.766 219.087 232.737 218.887 232.668 218.7C232.599 218.513 232.492 218.342 232.353 218.199C232.214 218.056 232.046 217.943 231.861 217.869C230.731 217.459 228.96 218.705 228.298 219.551C228.298 219.582 228.13 219.814 227.972 220.076C228.23 219.472 228.498 218.862 228.708 218.248C229.105 217.2 229.432 216.128 229.685 215.037C229.838 215.074 231.745 215.52 232.633 215.347C233.422 215.189 234.378 214.774 234.735 214.012C234.828 213.835 234.883 213.641 234.896 213.441C234.909 213.242 234.879 213.042 234.81 212.855C234.741 212.668 234.633 212.497 234.493 212.354C234.353 212.211 234.185 212.099 234 212.026C232.875 211.611 231.099 212.861 230.442 213.707C230.395 213.765 229.88 214.606 229.706 214.911C229.704 214.899 229.704 214.886 229.706 214.874C229.926 213.796 230.053 212.7 230.085 211.6C230.115 210.617 230.089 209.632 230.006 208.652C229.937 207.743 229.822 206.913 229.712 206.182C229.648 205.788 229.58 205.426 229.517 205.089C229.517 205.089 229.869 203.681 229.88 203.586C230.001 202.535 229.612 200.391 228.519 199.908C228.335 199.83 228.136 199.792 227.937 199.796C227.737 199.8 227.541 199.847 227.36 199.932C227.18 200.017 227.019 200.14 226.889 200.291C226.759 200.443 226.663 200.62 226.606 200.812C226.333 201.616 226.721 202.583 227.173 203.245C227.625 203.907 229.076 204.821 229.433 205.058C229.496 205.405 229.554 205.783 229.612 206.198C229.706 206.928 229.806 207.774 229.853 208.668C229.853 208.91 229.853 209.167 229.88 209.419C229.775 208.999 229.627 208.421 229.606 208.368C229.223 207.365 227.893 205.651 226.695 205.715C226.496 205.73 226.303 205.788 226.128 205.883C225.952 205.979 225.799 206.11 225.678 206.269C225.557 206.427 225.471 206.61 225.425 206.804C225.38 206.998 225.375 207.2 225.413 207.396C225.539 208.237 226.333 208.915 227.042 209.298C227.751 209.682 229.517 209.824 229.895 209.861C229.895 210.423 229.895 210.996 229.869 211.595C229.814 212.685 229.664 213.768 229.423 214.832H229.354C229.307 214.432 229.186 213.592 229.165 213.523C228.897 212.472 227.762 210.633 226.564 210.565C226.364 210.56 226.166 210.597 225.982 210.673C225.797 210.75 225.631 210.864 225.493 211.008C225.356 211.153 225.25 211.324 225.183 211.512C225.115 211.7 225.088 211.9 225.103 212.099C225.14 212.945 225.854 213.707 226.517 214.164C227.279 214.69 229.281 215.037 229.359 215.053C229.086 216.101 228.745 217.132 228.34 218.137C228.046 218.883 227.715 219.624 227.373 220.365C227.373 220.087 227.189 218.983 227.173 218.904C226.9 217.853 225.77 216.014 224.546 215.946C224.347 215.941 224.148 215.978 223.964 216.054C223.78 216.131 223.614 216.245 223.477 216.389C223.34 216.534 223.234 216.706 223.168 216.894C223.101 217.082 223.075 217.282 223.09 217.48C223.127 218.326 223.842 219.088 224.499 219.546C225.24 220.071 227.163 220.402 227.326 220.428C227.168 220.765 227.016 221.101 226.858 221.443C226.333 222.541 225.807 223.639 225.35 224.743C225.182 225.121 225.035 225.505 224.882 225.888C224.83 225.463 224.719 224.695 224.704 224.632C224.436 223.581 223.301 221.742 222.102 221.674C221.903 221.669 221.705 221.706 221.52 221.782C221.336 221.858 221.169 221.973 221.032 222.117C220.894 222.262 220.788 222.433 220.721 222.621C220.654 222.809 220.627 223.009 220.642 223.208C220.678 224.054 221.393 224.816 222.055 225.273C222.717 225.731 224.325 226.056 224.782 226.14C224.53 226.776 224.299 227.412 224.105 228.053C224.026 228.332 223.926 228.61 223.863 228.878C223.8 229.146 223.731 229.404 223.663 229.682C223.548 230.239 223.437 230.733 223.343 231.259C223.29 231.522 223.253 231.784 223.206 232.026C223.206 231.59 223.206 230.896 223.206 230.833C223.096 229.782 222.255 227.77 221.104 227.517C220.908 227.481 220.706 227.487 220.512 227.534C220.318 227.581 220.136 227.668 219.978 227.79C219.82 227.912 219.689 228.066 219.594 228.242C219.5 228.417 219.443 228.611 219.428 228.81C219.42 228.915 219.42 229.02 219.428 229.125C218.997 229.966 218.789 230.903 218.823 231.847C218.823 231.916 218.981 232.72 219.07 233.124C218.923 232.814 218.781 232.504 218.634 232.178C218.419 231.705 218.214 231.206 218.009 230.718L217.709 229.94C217.604 229.682 217.536 229.414 217.447 229.152C217.326 228.763 217.215 228.353 217.105 227.943C217.993 227.637 218.828 227.196 219.58 226.634C220.153 226.072 220.72 225.195 220.631 224.354C220.612 224.155 220.55 223.962 220.452 223.788C220.353 223.614 220.218 223.463 220.057 223.345C219.896 223.226 219.712 223.143 219.517 223.1C219.321 223.058 219.119 223.057 218.923 223.098C217.757 223.376 216.963 225.394 216.879 226.466C216.879 226.503 216.879 226.729 216.879 226.992C216.784 226.592 216.69 226.188 216.606 225.778C216.375 224.611 216.175 223.418 215.97 222.22C215.928 221.968 215.881 221.721 215.839 221.469C216.254 221.316 217.809 220.707 218.387 220.134C218.965 219.561 219.527 218.694 219.412 217.853C219.392 217.655 219.332 217.463 219.233 217.29C219.134 217.117 219 216.966 218.84 216.848C218.679 216.73 218.495 216.647 218.301 216.605C218.106 216.563 217.904 216.562 217.709 216.603C216.537 216.881 215.749 218.899 215.665 219.966C215.665 220.008 215.665 220.276 215.665 220.581C215.544 219.934 215.413 219.288 215.266 218.652C215.02 217.558 214.7 216.482 214.309 215.431C214.456 215.378 216.296 214.7 216.937 214.065C217.578 213.429 218.072 212.625 217.962 211.784C217.935 211.599 217.872 211.421 217.777 211.26C217.681 211.099 217.555 210.959 217.405 210.847C217.255 210.735 217.085 210.654 216.903 210.608C216.722 210.562 216.533 210.553 216.348 210.581C215.182 210.859 214.393 212.877 214.309 213.944C214.309 214.023 214.336 214.995 214.362 215.357V215.321C213.954 214.297 213.457 213.313 212.875 212.378C212.357 211.542 211.792 210.737 211.183 209.966C210.62 209.241 210.069 208.615 209.569 208.069C209.301 207.769 209.044 207.506 208.807 207.259H208.834C208.834 207.259 208.35 205.888 208.308 205.809C207.82 204.853 206.322 203.287 205.155 203.476C204.959 203.512 204.773 203.59 204.608 203.703C204.444 203.817 204.306 203.964 204.202 204.134C204.098 204.305 204.032 204.495 204.007 204.693C203.982 204.892 203.999 205.093 204.057 205.284C204.272 206.103 205.134 206.697 205.875 207.002C206.616 207.307 208.334 207.275 208.76 207.265C209.002 207.522 209.286 207.79 209.533 208.116C210.016 208.678 210.557 209.314 211.109 210.045C211.251 210.239 211.398 210.454 211.545 210.659C211.23 210.365 210.783 209.966 210.736 209.929C209.864 209.304 207.814 208.61 206.847 209.325C206.691 209.447 206.563 209.602 206.47 209.777C206.377 209.953 206.323 210.146 206.309 210.344C206.296 210.542 206.324 210.741 206.392 210.927C206.461 211.114 206.567 211.284 206.705 211.427C207.273 212.052 208.313 212.183 209.112 212.11C209.911 212.036 211.472 211.195 211.803 211.006C212.123 211.469 212.439 211.947 212.738 212.467C213.295 213.406 213.766 214.392 214.146 215.415L214.089 215.447C213.826 215.142 213.264 214.506 213.211 214.459C212.412 213.739 210.452 212.824 209.412 213.408C209.239 213.512 209.09 213.653 208.976 213.819C208.861 213.986 208.784 214.175 208.749 214.374C208.713 214.573 208.721 214.777 208.771 214.973C208.821 215.169 208.912 215.352 209.039 215.51C209.564 216.198 210.552 216.44 211.356 216.456C212.276 216.456 214.146 215.657 214.215 215.625C214.568 216.656 214.853 217.71 215.066 218.778C215.234 219.561 215.366 220.355 215.492 221.175C215.313 220.949 214.577 220.124 214.514 220.061C213.716 219.346 211.755 218.426 210.715 219.01C210.543 219.115 210.395 219.255 210.281 219.422C210.167 219.589 210.09 219.778 210.054 219.976C210.019 220.175 210.027 220.379 210.076 220.575C210.126 220.771 210.216 220.953 210.342 221.112C210.841 221.795 211.855 222.042 212.659 222.052C213.558 222.052 215.355 221.301 215.502 221.232L215.676 222.331C215.854 223.534 216.028 224.737 216.233 225.92C216.306 226.33 216.396 226.729 216.48 227.134C216.201 226.808 215.686 226.23 215.639 226.183C214.84 225.468 212.875 224.548 211.834 225.132C211.662 225.237 211.514 225.377 211.4 225.544C211.286 225.711 211.209 225.9 211.174 226.098C211.138 226.297 211.146 226.501 211.195 226.697C211.245 226.893 211.336 227.075 211.461 227.233C211.96 227.917 212.98 228.158 213.779 228.174C214.577 228.19 216.107 227.575 216.532 227.396C216.674 228.064 216.837 228.721 217.021 229.362C217.11 229.64 217.179 229.924 217.278 230.187C217.378 230.45 217.468 230.712 217.557 230.964C217.767 231.49 217.956 231.984 218.166 232.473C218.266 232.714 218.371 232.946 218.471 233.187C218.24 232.814 217.867 232.236 217.825 232.184C217.147 231.359 215.345 230.15 214.225 230.607C214.041 230.685 213.876 230.801 213.74 230.947C213.604 231.093 213.5 231.266 213.436 231.455C213.371 231.644 213.348 231.845 213.366 232.044C213.384 232.243 213.444 232.435 213.542 232.609C213.931 233.366 214.898 233.76 215.686 233.897C216.527 234.012 218.356 233.545 218.576 233.487Z" fill="#00AFC1"/>
<path d="M216.601 9.81592H46.1675V211.668H216.601V9.81592Z" fill="#263238" stroke="#263238" stroke-miterlimit="10"/>
<path d="M200.084 12.1489C200.084 12.4201 200.004 12.6853 199.853 12.9109C199.703 13.1364 199.488 13.3122 199.238 13.416C198.987 13.5198 198.711 13.547 198.445 13.4941C198.179 13.4411 197.935 13.3105 197.743 13.1187C197.551 12.9269 197.421 12.6825 197.368 12.4165C197.315 12.1504 197.342 11.8746 197.446 11.624C197.55 11.3734 197.725 11.1592 197.951 11.0085C198.176 10.8578 198.442 10.7773 198.713 10.7773C199.077 10.7773 199.425 10.9218 199.683 11.1791C199.94 11.4363 200.084 11.7851 200.084 12.1489Z" fill="#00AFC1" stroke="#263238" stroke-miterlimit="10"/>
<path d="M205.229 12.1489C205.229 12.4201 205.148 12.6853 204.998 12.9109C204.847 13.1364 204.633 13.3122 204.382 13.416C204.132 13.5198 203.856 13.547 203.59 13.4941C203.324 13.4411 203.079 13.3105 202.888 13.1187C202.696 12.9269 202.565 12.6825 202.512 12.4165C202.459 12.1504 202.486 11.8746 202.59 11.624C202.694 11.3734 202.87 11.1592 203.095 11.0085C203.321 10.8578 203.586 10.7773 203.857 10.7773C204.221 10.7773 204.57 10.9218 204.827 11.1791C205.084 11.4363 205.229 11.7851 205.229 12.1489Z" fill="#00AFC1" stroke="#263238" stroke-miterlimit="10"/>
<path d="M210.373 12.1489C210.373 12.4197 210.293 12.6845 210.143 12.9098C209.993 13.1351 209.779 13.3109 209.529 13.415C209.279 13.5191 209.004 13.5469 208.738 13.4948C208.472 13.4427 208.228 13.3132 208.036 13.1224C207.844 12.9316 207.712 12.6882 207.658 12.4229C207.604 12.1575 207.63 11.8821 207.732 11.6313C207.834 11.3805 208.008 11.1656 208.232 11.0136C208.456 10.8617 208.721 10.7795 208.991 10.7774C209.172 10.776 209.352 10.8104 209.519 10.8788C209.687 10.9471 209.84 11.0479 209.968 11.1754C210.096 11.3029 210.198 11.4545 210.268 11.6216C210.338 11.7887 210.373 11.9679 210.373 12.1489Z" fill="#00AFC1" stroke="#263238" stroke-miterlimit="10"/>
<path d="M216.601 14.272H46.1675V216.124H216.601V14.272Z" fill="#00AFC1" stroke="#263238" stroke-miterlimit="10"/>
<path d="M93.7509 25.8696V22.1911C93.7509 21.2568 93.3801 20.3608 92.72 19.6997C92.0599 19.0385 91.1643 18.6664 90.2301 18.665H54.1707C53.2356 18.665 52.3387 19.0365 51.6774 19.6978C51.0162 20.3591 50.6447 21.2559 50.6447 22.1911V25.8696H46.1675V216.124H216.601V25.8696H93.7509Z" fill="#263238" stroke="#263238" stroke-miterlimit="10"/>
<path d="M139.626 25.8696V22.1911C139.626 21.2559 139.255 20.3591 138.594 19.6978C137.932 19.0365 137.036 18.665 136.1 18.665H100.041C99.1099 18.672 98.2193 19.0463 97.5628 19.7067C96.9064 20.3671 96.5374 21.26 96.536 22.1911V25.8696H46.1675V216.124H216.601V25.8696H139.626Z" fill="#263238" stroke="#263238" stroke-miterlimit="10"/>
<path d="M188.844 25.8696V22.1911C188.844 21.2605 188.476 20.3676 187.821 19.707C187.165 19.0465 186.275 18.672 185.344 18.665H149.264C148.328 18.665 147.431 19.0364 146.769 19.6975C146.107 20.3586 145.734 21.2554 145.733 22.1911V25.8696H46.1675V216.124H216.601V25.8696H188.844Z" fill="white" stroke="#263238" stroke-miterlimit="10"/>
<path d="M149.39 125.697H97.687V161.031H149.39V125.697Z" stroke="#263238" stroke-miterlimit="10"/>
<path d="M212.78 60.8623H50.1719V113.349H212.78V60.8623Z" fill="#00AFC1"/>
<path d="M91.854 117.978H50.1719V206.487H91.854V117.978Z" fill="#00AFC1"/>
<path d="M209.89 113.348H156.652V54.3037L209.89 71.3087V113.348Z" fill="white" stroke="#263238" stroke-miterlimit="10"/>
<path d="M209.89 113.348H156.652V102.686L209.89 105.76V113.348Z" fill="white" stroke="#263238" stroke-miterlimit="10"/>
<path d="M168.313 66.511L160.126 64.2987V60.6045L168.313 62.985V66.511Z" fill="#263238" stroke="#263238" stroke-miterlimit="10"/>
<path d="M169.721 69.4223L158.555 66.5636V62.8379L169.721 65.9225V69.4223Z" fill="white" stroke="#263238" stroke-miterlimit="10"/>
<path d="M180.379 69.7747L173.316 67.8671V64.4409L180.379 66.4956V69.7747Z" fill="#263238" stroke="#263238" stroke-miterlimit="10"/>
<path d="M181.598 72.4595L171.965 69.995V66.5425L181.598 69.2015V72.4595Z" fill="white" stroke="#263238" stroke-miterlimit="10"/>
<path d="M190.872 72.6124L184.719 70.9518V67.7568L190.872 69.5435V72.6124Z" fill="#263238" stroke="#263238" stroke-miterlimit="10"/>
<path d="M191.939 75.1031L183.542 72.9538V69.7378L191.939 72.0552V75.1031Z" fill="white" stroke="#263238" stroke-miterlimit="10"/>
<path d="M200.079 75.1033L194.672 73.6424V70.6523L200.079 72.2236V75.1033Z" fill="#263238" stroke="#263238" stroke-miterlimit="10"/>
<path d="M201.02 77.4259L193.642 75.5394V72.5283L201.02 74.562V77.4259Z" fill="white" stroke="#263238" stroke-miterlimit="10"/>
<path d="M208.229 77.31L203.432 76.0121V73.2007L208.229 74.5932V77.31Z" fill="#263238" stroke="#263238" stroke-miterlimit="10"/>
<path d="M209.065 79.4805L202.522 77.8095V74.9771L209.065 76.7847V79.4805Z" fill="white" stroke="#263238" stroke-miterlimit="10"/>
<path d="M168.313 76.7057L160.126 74.9716V71.2773L168.313 73.1796V76.7057Z" fill="#263238" stroke="#263238" stroke-miterlimit="10"/>
<path d="M169.721 79.533L158.555 77.3312V73.6055L169.721 76.0333V79.533Z" fill="white" stroke="#263238" stroke-miterlimit="10"/>
<path d="M180.379 79.2598L173.316 77.7622V74.3359L180.379 75.9755V79.2598Z" fill="#263238" stroke="#263238" stroke-miterlimit="10"/>
<path d="M181.598 81.8661L171.965 79.9743V76.5166L181.598 78.6133V81.8661Z" fill="white" stroke="#263238" stroke-miterlimit="10"/>
<path d="M190.872 81.4773L184.719 80.1741V76.9844L190.872 78.4085V81.4773Z" fill="#263238" stroke="#263238" stroke-miterlimit="10"/>
<path d="M191.939 83.905L183.542 82.2497V79.0337L191.939 80.8572V83.905Z" fill="white" stroke="#263238" stroke-miterlimit="10"/>
<path d="M200.079 83.4266L194.672 82.2811V79.291L200.079 80.5469V83.4266Z" fill="#263238" stroke="#263238" stroke-miterlimit="10"/>
<path d="M201.02 85.6918L193.642 84.2414V81.2251L201.02 82.8331V85.6918Z" fill="white" stroke="#263238" stroke-miterlimit="10"/>
<path d="M208.229 85.1503L203.432 84.1361V81.3247L208.229 82.4335V85.1503Z" fill="#263238" stroke="#263238" stroke-miterlimit="10"/>
<path d="M209.065 87.2733L202.522 85.9858V83.1587L209.065 84.5775V87.2733Z" fill="white" stroke="#263238" stroke-miterlimit="10"/>
<path d="M168.313 86.8951L160.126 85.6444V81.9502L168.313 83.369V86.8951Z" fill="#263238" stroke="#263238" stroke-miterlimit="10"/>
<path d="M169.721 89.638L158.555 88.0983V84.3726L169.721 86.1382V89.638Z" fill="white" stroke="#263238" stroke-miterlimit="10"/>
<path d="M180.379 88.7398L173.316 87.6625V84.2363L180.379 85.4555V88.7398Z" fill="#263238" stroke="#263238" stroke-miterlimit="10"/>
<path d="M181.598 91.2776L171.965 89.9481V86.4956L181.598 88.0195V91.2776Z" fill="white" stroke="#263238" stroke-miterlimit="10"/>
<path d="M190.872 90.3422L184.719 89.4015V86.2065L190.872 87.2733V90.3422Z" fill="#263238" stroke="#263238" stroke-miterlimit="10"/>
<path d="M191.939 92.7069L183.542 91.5456V88.3296L191.939 89.6591V92.7069Z" fill="white" stroke="#263238" stroke-miterlimit="10"/>
<path d="M200.079 91.7505L194.672 90.9202V87.9302L200.079 88.8656V91.7505Z" fill="#263238" stroke="#263238" stroke-miterlimit="10"/>
<path d="M201.02 93.9578L193.642 92.9383V89.9272L201.02 91.0991V93.9578Z" fill="white" stroke="#263238" stroke-miterlimit="10"/>
<path d="M208.229 92.9963L203.432 92.2606V89.4492L208.229 90.2795V92.9963Z" fill="#263238" stroke="#263238" stroke-miterlimit="10"/>
<path d="M209.065 95.0717L202.522 94.1679V91.3354L209.065 92.3707V95.0717Z" fill="white" stroke="#263238" stroke-miterlimit="10"/>
<path d="M168.313 97.0897L160.126 96.3173V92.623L168.313 93.5584V97.0897Z" fill="#263238" stroke="#263238" stroke-miterlimit="10"/>
<path d="M169.721 99.7486L158.555 98.8658V95.1348L169.721 96.2488V99.7486Z" fill="white" stroke="#263238" stroke-miterlimit="10"/>
<path d="M180.379 98.2192L173.316 97.5571V94.1309L180.379 94.9401V98.2192Z" fill="#263238" stroke="#263238" stroke-miterlimit="10"/>
<path d="M181.598 100.689L171.965 99.9275V96.4697L181.598 97.4314V100.689Z" fill="white" stroke="#263238" stroke-miterlimit="10"/>
<path d="M190.872 99.2071L184.719 98.6291V95.4341L190.872 96.1382V99.2071Z" fill="#263238" stroke="#263238" stroke-miterlimit="10"/>
<path d="M191.939 101.509L183.542 100.842V97.6255L191.939 98.461V101.509Z" fill="white" stroke="#263238" stroke-miterlimit="10"/>
<path d="M200.079 100.069L194.672 99.5647V96.5693L200.079 97.1894V100.069Z" fill="#263238" stroke="#263238" stroke-miterlimit="10"/>
<path d="M201.02 102.224L193.642 101.64V98.6294L201.02 99.3651V102.224Z" fill="white" stroke="#263238" stroke-miterlimit="10"/>
<path d="M208.229 100.837L203.432 100.385V97.5732L208.229 98.1198V100.837Z" fill="#263238" stroke="#263238" stroke-miterlimit="10"/>
<path d="M209.065 102.865L202.522 102.345V99.5122L209.065 100.164V102.865Z" fill="white" stroke="#263238" stroke-miterlimit="10"/>
<path d="M144.923 58.0825H131.355V113.328H144.923V58.0825Z" fill="#263238" stroke="#263238" stroke-miterlimit="10"/>
<path d="M157.078 54.5825H143.51V113.327H157.078V54.5825Z" fill="#263238" stroke="#263238" stroke-miterlimit="10"/>
<path d="M131.355 113.27L76.6514 113.349V69.0653L131.355 58.0825V113.27Z" fill="white" stroke="#263238" stroke-miterlimit="10"/>
<path d="M131.355 113.27L76.6514 113.348V105.35L131.355 103.306V113.27Z" fill="white" stroke="#263238" stroke-miterlimit="10"/>
<path d="M84.2027 74.5721L78.748 75.497V72.6488L84.2027 71.6504V74.5721Z" fill="#263238" stroke="#263238" stroke-miterlimit="10"/>
<path d="M85.2222 76.5167L77.7812 77.7148V74.8772L85.2222 73.5845V76.5167Z" fill="white" stroke="#263238" stroke-miterlimit="10"/>
<path d="M93.8663 72.9274L87.9492 73.9363V70.9673L93.8663 69.8848V72.9274Z" fill="#263238" stroke="#263238" stroke-miterlimit="10"/>
<path d="M94.9754 74.9456L86.9038 76.2488V73.2903L94.9754 71.8872V74.9456Z" fill="white" stroke="#263238" stroke-miterlimit="10"/>
<path d="M104.376 71.1407L97.9336 72.2337V69.1385L104.376 67.9614V71.1407Z" fill="#263238" stroke="#263238" stroke-miterlimit="10"/>
<path d="M105.585 73.2376L96.7988 74.6512V71.5718L105.585 70.0479V73.2376Z" fill="white" stroke="#263238" stroke-miterlimit="10"/>
<path d="M115.853 69.1857L108.812 70.3839V67.1521L115.853 65.8594V69.1857Z" fill="#263238" stroke="#263238" stroke-miterlimit="10"/>
<path d="M117.177 71.3719L107.571 72.9169V69.7009L117.177 68.0298V71.3719Z" fill="white" stroke="#263238" stroke-miterlimit="10"/>
<path d="M128.433 67.0418L120.708 68.3555V64.9713L128.433 63.563V67.0418Z" fill="#263238" stroke="#263238" stroke-miterlimit="10"/>
<path d="M129.889 69.3225L119.353 71.0199V67.6515L129.889 65.8228V69.3225Z" fill="white" stroke="#263238" stroke-miterlimit="10"/>
<path d="M84.2027 83.0063L78.748 83.7368V80.8833L84.2027 80.0898V83.0063Z" fill="#263238" stroke="#263238" stroke-miterlimit="10"/>
<path d="M85.2222 84.9874L77.7812 85.9123V83.0746L85.2222 82.0552V84.9874Z" fill="white" stroke="#263238" stroke-miterlimit="10"/>
<path d="M93.8663 81.7189L87.9492 82.5071V79.5381L93.8663 78.6763V81.7189Z" fill="#263238" stroke="#263238" stroke-miterlimit="10"/>
<path d="M94.9754 83.7791L86.9038 84.7828V81.8242L94.9754 80.7207V83.7791Z" fill="white" stroke="#263238" stroke-miterlimit="10"/>
<path d="M104.376 80.316L97.9336 81.1725V78.0774L104.376 77.1367V80.316Z" fill="#263238" stroke="#263238" stroke-miterlimit="10"/>
<path d="M105.585 82.4596L96.7988 83.5527V80.468L105.585 79.2646V82.4596Z" fill="white" stroke="#263238" stroke-miterlimit="10"/>
<path d="M115.853 78.7816L108.812 79.7222V76.4904L115.853 75.4604V78.7816Z" fill="#263238" stroke="#263238" stroke-miterlimit="10"/>
<path d="M117.177 81.0199L107.571 82.2127V78.9915L117.177 77.6777V81.0199Z" fill="white" stroke="#263238" stroke-miterlimit="10"/>
<path d="M128.433 77.1051L120.708 78.1351V74.7509L128.433 73.6211V77.1051Z" fill="#263238" stroke="#263238" stroke-miterlimit="10"/>
<path d="M129.889 79.4383L119.353 80.7467V77.3783L129.889 75.9385V79.4383Z" fill="white" stroke="#263238" stroke-miterlimit="10"/>
<path d="M84.2027 91.4404L78.748 91.9712V89.1177L84.2027 88.5239V91.4404Z" fill="#263238" stroke="#263238" stroke-miterlimit="10"/>
<path d="M85.2222 93.464L77.7812 94.1156V91.2779L85.2222 90.5317V93.464Z" fill="white" stroke="#263238" stroke-miterlimit="10"/>
<path d="M93.8663 90.5051L87.9492 91.0779V88.1141L93.8663 87.4678V90.5051Z" fill="#263238" stroke="#263238" stroke-miterlimit="10"/>
<path d="M94.9754 92.6073L86.9038 93.3167V90.3635L94.9754 89.5542V92.6073Z" fill="white" stroke="#263238" stroke-miterlimit="10"/>
<path d="M104.376 89.4909L97.9336 90.1162V87.0211L104.376 86.3169V89.4909Z" fill="#263238" stroke="#263238" stroke-miterlimit="10"/>
<path d="M105.585 91.677L96.7988 92.4495V89.3701L105.585 88.4873V91.677Z" fill="white" stroke="#263238" stroke-miterlimit="10"/>
<path d="M115.853 88.382L108.812 89.0599V85.8281L115.853 85.0557V88.382Z" fill="#263238" stroke="#263238" stroke-miterlimit="10"/>
<path d="M117.177 90.6631L107.571 91.5038V88.2878L117.177 87.3262V90.6631Z" fill="white" stroke="#263238" stroke-miterlimit="10"/>
<path d="M128.433 87.1632L120.708 87.9094V84.5252L128.433 83.6792V87.1632Z" fill="#263238" stroke="#263238" stroke-miterlimit="10"/>
<path d="M129.889 89.5539L119.353 90.4735V87.1051L129.889 86.0488V89.5539Z" fill="white" stroke="#263238" stroke-miterlimit="10"/>
<path d="M84.2027 99.8802L78.748 100.206V97.3579L84.2027 96.9585V99.8802Z" fill="#263238" stroke="#263238" stroke-miterlimit="10"/>
<path d="M85.2222 101.935L77.7812 102.313V99.4754L85.2222 99.0024V101.935Z" fill="white" stroke="#263238" stroke-miterlimit="10"/>
<path d="M93.8663 99.2965L87.9492 99.6538V96.6848L93.8663 96.2539V99.2965Z" fill="#263238" stroke="#263238" stroke-miterlimit="10"/>
<path d="M94.9754 101.441L86.9038 101.851V98.8973L94.9754 98.3823V101.441Z" fill="white" stroke="#263238" stroke-miterlimit="10"/>
<path d="M104.376 98.6662L97.9336 99.055V95.9599L104.376 95.4922V98.6662Z" fill="#263238" stroke="#263238" stroke-miterlimit="10"/>
<path d="M105.585 100.9L96.7988 101.346V98.267L105.585 97.71V100.9Z" fill="white" stroke="#263238" stroke-miterlimit="10"/>
<path d="M115.853 97.9779L108.812 98.4035V95.1665L115.853 94.6567V97.9779Z" fill="#263238" stroke="#263238" stroke-miterlimit="10"/>
<path d="M117.177 100.311L107.571 100.8V97.5837L117.177 96.9741V100.311Z" fill="white" stroke="#263238" stroke-miterlimit="10"/>
<path d="M128.433 97.2209L120.708 97.6886V94.3045L128.433 93.7422V97.2209Z" fill="#263238" stroke="#263238" stroke-miterlimit="10"/>
<path d="M129.889 99.6648L119.353 100.201V96.8324L129.889 96.165V99.6648Z" fill="white" stroke="#263238" stroke-miterlimit="10"/>
<path d="M155.291 113.348H137.057L151.644 49.7583L155.291 53.6364V113.348Z" fill="white" stroke="#263238" stroke-miterlimit="10"/>
<path d="M151.644 113.348H133.415V53.6732L151.644 49.7583V113.348Z" fill="white" stroke="#263238" stroke-miterlimit="10"/>
<path d="M159.753 123.06C158.533 123.06 157.364 123.544 156.502 124.406C155.639 125.269 155.155 126.438 155.155 127.658C155.155 130.201 159.753 135.393 159.753 135.393C159.753 135.393 164.356 130.201 164.356 127.658C164.355 126.438 163.869 125.268 163.006 124.406C162.143 123.544 160.973 123.06 159.753 123.06ZM159.753 129.323C159.441 129.323 159.136 129.231 158.877 129.058C158.618 128.885 158.416 128.638 158.296 128.35C158.177 128.062 158.146 127.745 158.207 127.439C158.267 127.134 158.418 126.853 158.638 126.632C158.859 126.412 159.139 126.262 159.445 126.201C159.751 126.14 160.068 126.171 160.356 126.29C160.644 126.41 160.89 126.612 161.064 126.871C161.237 127.13 161.329 127.435 161.329 127.747C161.329 128.165 161.163 128.566 160.868 128.862C160.572 129.157 160.171 129.323 159.753 129.323Z" fill="#263238"/>
<path d="M178.077 128.703C177.762 128.488 173.106 125.645 172.822 125.435L172.922 125.324L173.973 124.242C174.008 124.196 174.057 124.162 174.113 124.147C174.17 124.132 174.229 124.136 174.283 124.158L175.912 124.683L178.371 125.493L180.2 126.107L180.468 126.181C180.531 126.118 180.594 126.065 180.647 126.008L183.006 123.554C183.189 123.349 183.429 123.203 183.694 123.133C183.938 123.078 184.194 123.098 184.426 123.192C184.658 123.286 184.856 123.449 184.992 123.659C185.13 123.869 185.198 124.118 185.185 124.37C185.171 124.621 185.078 124.862 184.919 125.056C184.733 125.268 184.537 125.47 184.33 125.661L182.286 127.621L182.228 127.679C182.179 127.711 182.143 127.761 182.128 127.818C182.114 127.876 182.121 127.937 182.149 127.989C182.333 128.514 182.502 129.04 182.675 129.565C182.885 130.191 183.095 130.821 183.3 131.446C183.57 132.249 183.836 133.049 184.099 133.848C184.101 133.865 184.101 133.883 184.099 133.9C184.162 134.132 184.225 134.126 183.994 134.352C183.673 134.662 183.363 134.978 183.048 135.293C182.99 135.351 182.927 135.398 182.88 135.445C182.833 135.493 182.775 135.382 182.748 135.335C182.304 134.634 181.86 133.916 181.419 133.181C180.893 132.319 180.368 131.452 179.816 130.585C179.769 130.511 179.727 130.427 179.674 130.353C179.64 130.307 179.602 130.265 179.559 130.227C179.396 130.374 179.243 130.516 179.096 130.663C178.413 131.315 177.732 131.968 177.052 132.624C176.784 132.876 176.784 132.881 176.847 133.259L177.005 134.226C177.005 134.342 177.042 134.458 177.057 134.578C176.875 134.794 176.678 134.998 176.469 135.188C176.285 135.393 176.087 135.585 175.875 135.761C175.747 135.495 175.642 135.219 175.56 134.936C175.46 134.668 175.365 134.41 175.271 134.116C175.176 133.822 175.076 133.59 174.976 133.286C174.151 132.981 173.321 132.702 172.475 132.392C172.493 132.356 172.516 132.323 172.543 132.292C172.869 131.967 173.2 131.641 173.521 131.31C173.559 131.265 173.61 131.231 173.667 131.214C173.723 131.196 173.784 131.195 173.841 131.21C174.125 131.263 174.414 131.305 174.698 131.352L175.223 131.436C175.271 131.452 175.322 131.453 175.37 131.439C175.418 131.425 175.46 131.396 175.491 131.357C175.533 131.308 175.579 131.262 175.628 131.22L177.888 128.861C177.988 128.84 177.988 128.782 178.077 128.703Z" fill="#263238"/>
<path d="M200.126 124.231H193.821C193.699 124.235 193.582 124.277 193.487 124.353C193.392 124.429 193.325 124.534 193.295 124.652L192.507 127.957H201.44L200.652 124.652C200.622 124.534 200.555 124.429 200.46 124.353C200.365 124.277 200.248 124.235 200.126 124.231Z" fill="#263238"/>
<path d="M199.701 124.852H194.262L193.584 127.684H200.379L199.701 124.852Z" fill="white"/>
<path d="M191.913 131.536H194.015V134.216C194.015 134.296 193.983 134.374 193.926 134.431C193.869 134.488 193.791 134.52 193.71 134.52H192.228C192.148 134.52 192.07 134.488 192.013 134.431C191.956 134.374 191.924 134.296 191.924 134.216V131.536H191.913Z" fill="#263238"/>
<path d="M200.163 131.536H202.265V134.216C202.265 134.296 202.233 134.374 202.176 134.431C202.119 134.488 202.041 134.52 201.96 134.52H200.478C200.398 134.52 200.32 134.488 200.263 134.431C200.206 134.374 200.174 134.296 200.174 134.216V131.536H200.163Z" fill="#263238"/>
<path d="M198.045 124.646H196.038V125.393H198.045V124.646Z" fill="#263238"/>
<path d="M202.254 127.358H192.002C191.541 127.358 191.167 127.732 191.167 128.193V131.588C191.167 132.05 191.541 132.424 192.002 132.424H202.254C202.716 132.424 203.09 132.05 203.09 131.588V128.193C203.09 127.732 202.716 127.358 202.254 127.358Z" fill="#263238"/>
<path d="M195.045 129.597C195.046 129.863 194.968 130.124 194.821 130.346C194.674 130.568 194.464 130.741 194.218 130.843C193.972 130.946 193.702 130.973 193.441 130.922C193.179 130.871 192.939 130.743 192.75 130.555C192.562 130.367 192.433 130.128 192.381 129.866C192.328 129.605 192.355 129.335 192.456 129.089C192.558 128.842 192.73 128.632 192.952 128.484C193.173 128.336 193.433 128.257 193.7 128.257C194.056 128.257 194.397 128.398 194.649 128.649C194.901 128.9 195.044 129.241 195.045 129.597Z" fill="white"/>
<path d="M201.997 129.597C201.997 129.862 201.919 130.121 201.772 130.341C201.624 130.562 201.415 130.733 201.17 130.835C200.925 130.936 200.656 130.963 200.396 130.911C200.136 130.859 199.897 130.732 199.71 130.544C199.522 130.357 199.395 130.118 199.343 129.858C199.291 129.598 199.318 129.329 199.419 129.084C199.521 128.839 199.693 128.63 199.913 128.483C200.133 128.335 200.392 128.257 200.657 128.257C201.013 128.257 201.354 128.398 201.605 128.649C201.856 128.901 201.997 129.241 201.997 129.597Z" fill="white"/>
<path d="M198.639 128.782H195.66V129.297H198.639V128.782Z" fill="white"/>
<path d="M198.639 129.686H195.66V130.201H198.639V129.686Z" fill="white"/>
<path d="M141.592 133.748H105.496V147.059H141.592V133.748Z" fill="white" stroke="#263238" stroke-miterlimit="10"/>
<path d="M107.571 145.009H139.484C140.042 145.009 140.577 145.231 140.971 145.625C141.365 146.019 141.586 146.554 141.586 147.111V156.539H105.469V147.101C105.472 146.545 105.695 146.013 106.089 145.621C106.482 145.229 107.016 145.009 107.571 145.009Z" fill="white" stroke="#263238" stroke-miterlimit="10"/>
<path d="M117.204 144.668L115.648 144.311H108.812L106.894 144.668L107.377 143.233V139.276L106.894 137.836L108.875 138.257H115.948L117.204 137.836L116.726 139.513V142.871L117.204 144.668Z" fill="#00AFC1" stroke="#263238" stroke-miterlimit="10"/>
<path d="M128.234 144.668L126.678 144.311H119.841L117.923 144.668L118.407 143.233V139.276L117.923 137.836L119.904 138.257H126.978L128.234 137.836L127.755 139.513V142.871L128.234 144.668Z" fill="#00AFC1" stroke="#263238" stroke-miterlimit="10"/>
<path d="M139.264 144.668L137.708 144.311H130.872L128.954 144.668L129.432 143.233V139.276L128.954 137.836L130.935 138.257H138.008L139.264 137.836L138.786 139.513V142.871L139.264 144.668Z" fill="#00AFC1" stroke="#263238" stroke-miterlimit="10"/>
<path d="M97.5396 156.533H149.322" stroke="#263238" stroke-miterlimit="10"/>
<path d="M102.605 141.793H101.801V145.277H102.605V141.793Z" stroke="#263238" stroke-miterlimit="10"/>
<path d="M104.886 135.493H99.5259V142.193H104.886V135.493Z" fill="#263238"/>
<path d="M105.154 145.545H99.2578V156.533H105.154V145.545Z" stroke="#263238" stroke-miterlimit="10"/>
<path d="M105.154 145.545H99.2578V147.153H105.154V145.545Z" fill="#263238" stroke="#263238" stroke-miterlimit="10"/>
<path d="M104.082 148.225H100.062V150.768H104.082V148.225Z" stroke="#263238" stroke-miterlimit="10"/>
<path d="M104.082 151.978H100.062V154.521H104.082V151.978Z" stroke="#263238" stroke-miterlimit="10"/>
<path d="M145.486 141.793H144.682V145.277H145.486V141.793Z" stroke="#263238" stroke-miterlimit="10"/>
<path d="M147.761 135.493H142.401V142.193H147.761V135.493Z" fill="#263238"/>
<path d="M148.029 145.545H142.133V156.533H148.029V145.545Z" stroke="#263238" stroke-miterlimit="10"/>
<path d="M148.029 145.545H142.133V147.153H148.029V145.545Z" fill="#263238" stroke="#263238" stroke-miterlimit="10"/>
<path d="M146.957 148.225H142.937V150.768H146.957V148.225Z" stroke="#263238" stroke-miterlimit="10"/>
<path d="M146.957 151.978H142.937V154.521H146.957V151.978Z" stroke="#263238" stroke-miterlimit="10"/>
<path d="M105.154 190.837H99.2578V201.825H105.154V190.837Z" stroke="#263238" stroke-miterlimit="10"/>
<path d="M105.154 190.837H99.2578V192.445H105.154V190.837Z" fill="#263238" stroke="#263238" stroke-miterlimit="10"/>
<path d="M104.082 193.518H100.062V196.061H104.082V193.518Z" stroke="#263238" stroke-miterlimit="10"/>
<path d="M104.082 197.27H100.062V199.813H104.082V197.27Z" stroke="#263238" stroke-miterlimit="10"/>
<path d="M148.029 190.837H142.133V201.825H148.029V190.837Z" stroke="#263238" stroke-miterlimit="10"/>
<path d="M148.029 190.837H142.133V192.445H148.029V190.837Z" fill="#263238" stroke="#263238" stroke-miterlimit="10"/>
<path d="M146.957 193.518H142.937V196.061H146.957V193.518Z" stroke="#263238" stroke-miterlimit="10"/>
<path d="M146.957 197.27H142.937V199.813H146.957V197.27Z" stroke="#263238" stroke-miterlimit="10"/>
<path d="M149.39 170.995H97.687V206.329H149.39V170.995Z" stroke="#263238" stroke-miterlimit="10"/>
<path d="M141.592 179.041H105.496V192.351H141.592V179.041Z" fill="#263238" stroke="#263238" stroke-miterlimit="10"/>
<path d="M107.571 190.307H139.484C140.042 190.307 140.577 190.528 140.971 190.922C141.365 191.316 141.586 191.851 141.586 192.409V201.836H105.469V192.398C105.472 191.842 105.695 191.31 106.089 190.919C106.482 190.527 107.016 190.307 107.571 190.307Z" fill="white" stroke="#263238" stroke-miterlimit="10"/>
<path d="M97.5396 201.826H149.322" stroke="#263238" stroke-miterlimit="10"/>
<path d="M54.6015 37.2937V40.8776H53.7134V32.9111H54.6015V36.495H56.5563V32.9111H57.4444V40.8776H56.5563V37.2937H54.6015Z" fill="#263238"/>
<path d="M58.2905 34.8345C58.2905 33.6154 58.8896 32.8271 60.1087 32.8271C61.3279 32.8271 61.9427 33.6154 61.9427 34.8345V38.9544C61.9427 40.163 61.3384 40.9565 60.1087 40.9565C58.8791 40.9565 58.2905 40.163 58.2905 38.9544V34.8345ZM59.1628 39.0017C59.1628 39.7269 59.4729 40.1473 60.1087 40.1473C60.7446 40.1473 61.0546 39.7269 61.0546 39.0017V34.7977C61.0546 34.0778 60.7603 33.6469 60.1087 33.6469C59.4571 33.6469 59.1628 34.0778 59.1628 34.7977V39.0017Z" fill="#263238"/>
<path d="M63.9554 40.8776V33.7151H62.4893V32.9111H66.3148V33.7151H64.8435V40.8776H63.9554Z" fill="#263238"/>
<path d="M69.7356 36.4372V37.2359H67.786V40.0683H70.177V40.8776H66.8979V32.9111H70.177V33.7151H67.786V36.4372H69.7356Z" fill="#263238"/>
<path d="M71.0127 40.8776V32.9111H71.9008V40.0683H74.1762V40.8776H71.0127Z" fill="#263238"/>
<path d="M78.4011 32.9111C79.6412 32.9111 80.1299 33.4997 80.1299 34.6715V35.0657C80.1299 35.9064 79.8935 36.4319 79.1998 36.6421C79.9723 36.8576 80.2508 37.4724 80.2508 38.35V39.0226C80.2508 40.2155 79.6728 40.8881 78.4326 40.8881H76.5986V32.9111H78.4011ZM78.1856 36.2901C78.8898 36.2901 79.2366 36.0641 79.2366 35.2391V34.7766C79.2366 34.0672 79.0001 33.7256 78.3643 33.7256H77.4867V36.3006L78.1856 36.2901ZM78.4484 40.0683C79.0947 40.0683 79.389 39.7268 79.389 38.9858V38.2817C79.389 37.3936 79.0369 37.0993 78.275 37.0993H77.5025V40.0683H78.4484Z" fill="#263238"/>
<path d="M81.0078 34.8345C81.0078 33.6154 81.6121 32.8271 82.826 32.8271C84.0399 32.8271 84.66 33.6154 84.66 34.8345V38.9544C84.66 40.163 84.0557 40.9565 82.826 40.9565C81.5964 40.9565 81.0078 40.163 81.0078 38.9544V34.8345ZM81.8854 39.0017C81.8854 39.7269 82.1902 40.1473 82.826 40.1473C83.4619 40.1473 83.7719 39.7269 83.7719 39.0017V34.7977C83.7719 34.0778 83.4776 33.6469 82.826 33.6469C82.1744 33.6469 81.8854 34.0778 81.8854 34.7977V39.0017Z" fill="#263238"/>
<path d="M85.4321 34.8345C85.4321 33.6154 86.0364 32.8271 87.2556 32.8271C88.4747 32.8271 89.0896 33.6154 89.0896 34.8345V38.9544C89.0896 40.163 88.4852 40.9565 87.2556 40.9565C86.0259 40.9565 85.4321 40.163 85.4321 38.9544V34.8345ZM86.3097 39.0017C86.3097 39.7269 86.6197 40.1473 87.2556 40.1473C87.8914 40.1473 88.2015 39.7269 88.2015 39.0017V34.7977C88.2015 34.0778 87.9019 33.6469 87.2556 33.6469C86.6092 33.6469 86.3097 34.0778 86.3097 34.7977V39.0017Z" fill="#263238"/>
<path d="M91.2811 37.4146L90.8134 38.2028V40.8776H89.9253V32.9111H90.8134V36.7577L92.9154 32.9111H93.8139L91.8066 36.5423L93.9085 40.8776H92.9994L91.2811 37.4146Z" fill="#263238"/>
<path d="M95.4848 32.9111V40.8776H94.5967V32.9111H95.4848Z" fill="#263238"/>
<path d="M97.1718 40.8776H96.373V32.9111H97.4976L99.3421 38.6916V32.9111H100.13V40.8776H99.2055L97.1718 34.4351V40.8776Z" fill="#263238"/>
<path d="M104.555 34.8345V35.5177H103.714V34.7872C103.714 34.0673 103.431 33.6364 102.779 33.6364C102.127 33.6364 101.849 34.0673 101.849 34.7872V38.9912C101.849 39.7059 102.143 40.1368 102.779 40.1368C103.415 40.1368 103.714 39.7059 103.714 38.9912V37.4147H102.894V36.6107H104.555V38.9544C104.555 40.163 103.988 40.9565 102.758 40.9565C101.528 40.9565 100.971 40.163 100.971 38.9544V34.8345C100.971 33.6259 101.539 32.8271 102.758 32.8271C103.977 32.8271 104.555 33.6259 104.555 34.8345Z" fill="#263238"/>
<path d="M84.0869 46.2744H53.7134V51.3927H84.0869V46.2744Z" stroke="#263238" stroke-miterlimit="10"/>
<path d="M119.92 46.2744H89.5469V51.3927H119.92V46.2744Z" stroke="#263238" stroke-miterlimit="10"/>
<path d="M152.338 22.3857H182.028" stroke="#263238" stroke-miterlimit="10"/>
<path d="M205.213 157.521H196.685V162.64H205.213V157.521Z" stroke="#263238" stroke-miterlimit="10"/>
<path d="M194.976 157.521H186.448V162.64H194.976V157.521Z" stroke="#263238" stroke-miterlimit="10"/>
<path d="M157.099 143.191H205.896" stroke="#263238" stroke-miterlimit="10"/>
<path d="M157.099 146.943H205.896" stroke="#263238" stroke-miterlimit="10"/>
<path d="M157.099 150.695H205.896" stroke="#263238" stroke-miterlimit="10"/>
<path d="M157.099 154.453H205.896" stroke="#263238" stroke-miterlimit="10"/>
<path d="M159.753 168.178C158.533 168.178 157.364 168.663 156.502 169.525C155.639 170.387 155.155 171.557 155.155 172.776C155.155 175.32 159.753 180.512 159.753 180.512C159.753 180.512 164.356 175.32 164.356 172.776C164.355 171.556 163.869 170.387 163.006 169.525C162.143 168.663 160.973 168.178 159.753 168.178ZM159.753 174.442C159.441 174.442 159.136 174.35 158.877 174.176C158.618 174.003 158.416 173.757 158.296 173.469C158.177 173.181 158.146 172.864 158.207 172.558C158.267 172.252 158.418 171.971 158.638 171.751C158.859 171.53 159.139 171.38 159.445 171.319C159.751 171.259 160.068 171.29 160.356 171.409C160.644 171.528 160.89 171.731 161.064 171.99C161.237 172.249 161.329 172.554 161.329 172.866C161.329 173.284 161.163 173.685 160.868 173.98C160.572 174.276 160.171 174.442 159.753 174.442Z" fill="#263238"/>
<path d="M178.077 173.822C177.762 173.607 173.106 170.764 172.822 170.553C172.853 170.515 172.886 170.478 172.922 170.443L173.973 169.361C174.008 169.314 174.057 169.281 174.113 169.266C174.17 169.25 174.229 169.254 174.283 169.277L175.912 169.802L178.371 170.611L180.2 171.226L180.468 171.3C180.531 171.237 180.594 171.184 180.647 171.126C181.435 170.306 182.223 169.487 183.006 168.672C183.189 168.467 183.429 168.321 183.694 168.252C183.938 168.196 184.194 168.217 184.426 168.311C184.658 168.405 184.856 168.567 184.992 168.777C185.13 168.988 185.198 169.237 185.185 169.488C185.171 169.74 185.078 169.98 184.919 170.175C184.733 170.387 184.537 170.588 184.33 170.779L182.286 172.739L182.228 172.797C182.179 172.83 182.143 172.88 182.128 172.937C182.114 172.994 182.121 173.055 182.149 173.107C182.333 173.633 182.502 174.158 182.675 174.684C182.885 175.309 183.095 175.94 183.3 176.565C183.57 177.371 183.836 178.171 184.099 178.967C184.101 178.984 184.101 179.002 184.099 179.019C184.162 179.25 184.225 179.245 183.994 179.471C183.673 179.781 183.363 180.096 183.048 180.412C182.99 180.47 182.927 180.517 182.88 180.564C182.833 180.611 182.775 180.501 182.748 180.454C182.304 179.753 181.86 179.035 181.419 178.299C180.893 177.437 180.368 176.57 179.816 175.703C179.769 175.63 179.727 175.546 179.674 175.472C179.64 175.426 179.602 175.384 179.559 175.346C179.396 175.493 179.243 175.635 179.096 175.782C178.413 176.434 177.732 177.087 177.052 177.742C176.784 177.994 176.784 177.994 176.847 178.378L177.005 179.345C177.005 179.461 177.042 179.576 177.057 179.697C176.875 179.913 176.678 180.117 176.469 180.307C176.285 180.512 176.087 180.703 175.875 180.879C175.747 180.614 175.642 180.338 175.56 180.054C175.46 179.786 175.365 179.529 175.271 179.235C175.176 178.94 175.076 178.709 174.976 178.399C174.151 178.1 173.321 177.821 172.475 177.511C172.493 177.475 172.516 177.441 172.543 177.411C172.869 177.08 173.2 176.76 173.521 176.428C173.559 176.383 173.61 176.35 173.667 176.332C173.723 176.315 173.784 176.313 173.841 176.329C174.125 176.381 174.414 176.423 174.698 176.471L175.223 176.555C175.271 176.571 175.323 176.572 175.371 176.557C175.419 176.542 175.462 176.511 175.491 176.471C175.534 176.424 175.58 176.38 175.628 176.339L177.888 173.98C177.988 173.959 177.988 173.901 178.077 173.822Z" fill="#263238"/>
<path d="M200.126 169.35H193.821C193.699 169.353 193.582 169.396 193.487 169.472C193.392 169.548 193.325 169.653 193.295 169.77L192.507 173.076H201.44L200.652 169.77C200.622 169.653 200.555 169.548 200.46 169.472C200.365 169.396 200.248 169.353 200.126 169.35Z" fill="#263238"/>
<path d="M199.701 169.97H194.262L193.584 172.803H200.379L199.701 169.97Z" fill="white"/>
<path d="M191.913 176.655H194.015V179.335C194.015 179.416 193.983 179.493 193.926 179.55C193.869 179.607 193.791 179.64 193.71 179.64H192.228C192.148 179.64 192.07 179.607 192.013 179.55C191.956 179.493 191.924 179.416 191.924 179.335V176.655H191.913Z" fill="#263238"/>
<path d="M200.163 176.655H202.265V179.335C202.265 179.416 202.233 179.493 202.176 179.55C202.119 179.607 202.041 179.64 201.96 179.64H200.478C200.398 179.64 200.32 179.607 200.263 179.55C200.206 179.493 200.174 179.416 200.174 179.335V176.655H200.163Z" fill="#263238"/>
<path d="M198.045 169.765H196.038V170.511H198.045V169.765Z" fill="#263238"/>
<path d="M202.254 172.477H192.002C191.541 172.477 191.167 172.851 191.167 173.313V176.707C191.167 177.169 191.541 177.543 192.002 177.543H202.254C202.716 177.543 203.09 177.169 203.09 176.707V173.313C203.09 172.851 202.716 172.477 202.254 172.477Z" fill="#263238"/>
<path d="M195.045 174.715C195.046 174.982 194.968 175.242 194.821 175.464C194.674 175.686 194.464 175.859 194.218 175.962C193.972 176.065 193.702 176.092 193.441 176.041C193.179 175.989 192.939 175.862 192.75 175.674C192.562 175.486 192.433 175.246 192.381 174.985C192.328 174.724 192.355 174.453 192.456 174.207C192.558 173.961 192.73 173.751 192.952 173.603C193.173 173.455 193.433 173.375 193.7 173.375C194.056 173.375 194.397 173.516 194.649 173.768C194.901 174.019 195.044 174.36 195.045 174.715Z" fill="white"/>
<path d="M201.997 174.715C201.997 174.981 201.919 175.24 201.772 175.46C201.624 175.68 201.415 175.852 201.17 175.953C200.925 176.055 200.656 176.081 200.396 176.03C200.136 175.978 199.897 175.85 199.71 175.663C199.522 175.476 199.395 175.237 199.343 174.977C199.291 174.717 199.318 174.448 199.419 174.203C199.521 173.958 199.693 173.749 199.913 173.601C200.133 173.454 200.392 173.375 200.657 173.375C201.013 173.375 201.354 173.517 201.605 173.768C201.856 174.019 201.997 174.36 201.997 174.715Z" fill="white"/>
<path d="M198.639 173.901H195.66V174.416H198.639V173.901Z" fill="white"/>
<path d="M198.639 174.805H195.66V175.32H198.639V174.805Z" fill="white"/>
<path d="M205.213 202.64H196.685V207.758H205.213V202.64Z" stroke="#263238" stroke-miterlimit="10"/>
<path d="M194.976 202.64H186.448V207.758H194.976V202.64Z" stroke="#263238" stroke-miterlimit="10"/>
<path d="M157.099 188.31H205.896" stroke="#263238" stroke-miterlimit="10"/>
<path d="M157.099 192.062H205.896" stroke="#263238" stroke-miterlimit="10"/>
<path d="M157.099 195.814H205.896" stroke="#263238" stroke-miterlimit="10"/>
<path d="M157.099 199.571H205.896" stroke="#263238" stroke-miterlimit="10"/>
<path d="M103.541 22.3857H133.226" stroke="white" stroke-miterlimit="10"/>
<path d="M57.8125 22.3857H87.4976" stroke="white" stroke-miterlimit="10"/>
<path d="M112.557 180.045L107.897 184.705L112.557 189.365L117.217 184.705L112.557 180.045Z" fill="#00AFC1" stroke="#263238" stroke-miterlimit="10"/>
<path d="M123.466 180.046L118.807 184.706L123.466 189.365L128.126 184.706L123.466 180.046Z" fill="#00AFC1" stroke="#263238" stroke-miterlimit="10"/>
<path d="M134.372 180.044L129.712 184.704L134.372 189.364L139.031 184.704L134.372 180.044Z" fill="#00AFC1" stroke="#263238" stroke-miterlimit="10"/>
<path d="M140.83 172.156H106.252V176.103H140.83V172.156Z" stroke="#263238" stroke-miterlimit="10"/>
<path d="M137.288 175.115H109.794V176.103H137.288V175.115Z" stroke="#263238" stroke-miterlimit="10"/>
<path d="M212.775 117.81H208.661V208.374H212.775V117.81Z" fill="#D9D9D9"/>
<path d="M212.775 144.484H208.661V165.998H212.775V144.484Z" fill="#EDEDED"/>
<path d="M72.9622 78.7344C72.9622 78.7344 73.5297 82.0187 72.8151 83.7318C72.1004 85.4449 71.102 85.8706 70.8182 86.5852C70.5344 87.2999 71.102 89.013 71.2491 89.7382C71.3962 90.4634 71.6747 91.1675 70.5344 91.3147C70.0118 91.3894 69.4856 91.4367 68.9579 91.4566C68.9579 91.4566 66.2464 94.8828 64.3914 94.8828C62.5364 94.8828 60.9704 92.0136 58.7003 88.1407C56.4302 84.2678 57.9856 82.0029 60.6972 80.1479C63.4087 78.293 72.9622 78.7344 72.9622 78.7344Z" fill="white" stroke="#263238" stroke-miterlimit="10"/>
<path d="M69.0737 86.6009C68.8425 87.1895 68.4746 87.5941 68.2539 87.5048C68.0332 87.4154 68.0437 86.8742 68.2539 86.2856C68.4641 85.6971 68.853 85.2977 69.0737 85.3818C69.2944 85.4659 69.3101 86.0386 69.0737 86.6009Z" fill="#263238"/>
<path d="M68.6846 84.0154C68.6846 84.0154 70.1087 82.8751 70.8233 84.5882" stroke="#263238" stroke-miterlimit="10"/>
<path d="M65.6789 79.7324L65.2532 114.567C65.2532 114.567 62.5364 114.709 59.1102 114.567C55.684 114.425 50.8337 112.991 45.2635 109.428C39.6932 105.865 41.9791 94.4462 41.9791 94.4462L50.5447 84.0257L65.6789 79.7324Z" fill="#263238" stroke="#263238" stroke-miterlimit="10"/>
<path d="M53.9707 68.8864C53.9707 68.8864 50.9754 72.5964 49.6879 75.8807C48.4005 79.165 49.977 82.5912 49.977 82.5912L72.8149 74.8823C72.8149 74.8823 72.8149 73.022 69.8196 70.4523C66.8243 67.8827 57.9697 66.8842 55.9728 67.1733C53.976 67.4623 53.9707 68.8864 53.9707 68.8864Z" fill="#7D7D7D" stroke="#263238" stroke-miterlimit="10"/>
<path d="M55.4003 60.0319C55.4003 60.0319 49.2625 61.8922 48.1222 64.7613C46.9819 67.6305 50.1191 70.4682 52.2579 71.1829C54.3966 71.8975 60.8234 69.6064 61.8271 67.4729C62.8308 65.3394 62.3789 62.9169 60.5396 61.0356C58.7004 59.1543 56.115 59.7639 55.4003 60.0319Z" fill="white" stroke="#263238" stroke-miterlimit="10"/>
<path d="M53.8291 79.3069C53.8291 79.3069 50.1191 80.7309 49.0996 81.3037C48.0802 81.8765 48.5268 83.0168 48.9578 83.8734C49.3887 84.7299 49.2415 85.5865 49.9562 85.5865C50.6709 85.5865 64.2286 81.1618 68.9423 80.0215C73.6559 78.8812 74.0816 80.0215 74.3653 78.5922C74.6491 77.1628 74.9381 74.1675 73.9397 73.4529C72.9413 72.7382 61.3962 76.0225 53.8291 79.3069Z" fill="#7D7D7D" stroke="#263238" stroke-miterlimit="10"/>
<path d="M31.8476 154.185L35.1267 182.44C35.1267 182.44 30.702 189.435 29.5617 194.574C28.4214 199.713 22.5674 211.847 22.5674 211.847L27.8486 214.7C27.8486 214.7 37.5544 200.281 40.6969 195.283C43.8393 190.286 45.4263 188.147 45.4263 186.292C45.4263 184.437 49.4253 157.327 49.4253 157.327L31.8476 154.185Z" fill="#263238" stroke="#263238" stroke-miterlimit="10"/>
<path d="M30.9911 214.548C30.9911 214.548 33.0038 215.41 32.5256 216.755C32.0474 218.1 26.4877 220.207 26.2932 220.491C26.0988 220.775 30.9911 214.548 30.9911 214.548Z" fill="#7D7D7D" stroke="#263238" stroke-miterlimit="10"/>
<path d="M20.1557 208.699C20.4447 208.988 31.5694 214.164 31.5694 214.164C31.5694 214.164 27.0607 221.09 26.1201 222.604C25.1794 224.117 27.5547 227.591 28.222 228.836C28.8894 230.082 32.8254 232.289 33.5926 232.672C34.3598 233.056 33.7818 233.534 33.5926 234.874C33.4034 236.214 33.0145 236.503 32.0581 236.503C31.1018 236.503 24.8641 235.836 22.8515 234.685C20.8389 233.534 20.3607 231.532 19.4989 230.754C18.6371 229.976 18.348 229.987 18.348 229.987L17.481 231.232C17.481 231.232 16.3354 231.327 14.4173 230.082C13.2701 229.336 12.3687 228.269 11.8267 227.013C11.8267 227.013 13.8393 223.371 15.1846 222.409C16.5298 221.448 17.6754 219.44 18.059 218.205C18.4426 216.97 20.1557 208.699 20.1557 208.699Z" fill="#7D7D7D" stroke="#263238" stroke-miterlimit="10"/>
<path d="M27.875 220.129C27.875 220.129 30.245 217.359 31.2749 218.552C32.3049 219.745 27.875 220.129 27.875 220.129Z" stroke="#263238" stroke-miterlimit="10"/>
<path d="M27.875 220.128C27.875 220.128 32.9408 221.474 31.7531 221.868C30.5655 222.262 27.875 220.128 27.875 220.128Z" stroke="#263238" stroke-miterlimit="10"/>
<path d="M27.9539 224.007C27.5754 222.745 27.5481 221.404 27.875 220.128C28.4744 222.115 28.8723 224.158 29.0626 226.224" stroke="#263238" stroke-miterlimit="10"/>
<path d="M30.2238 234.874C27.8276 234.685 22.746 233.245 20.9226 230.271C19.3881 227.769 18.3371 228.931 15.6676 227.302C14.5955 226.7 13.7653 225.746 13.3187 224.601C12.4989 225.809 11.8315 227.013 11.8315 227.013C12.3736 228.269 13.2749 229.336 14.4222 230.081C16.3403 231.327 17.4858 231.232 17.4858 231.232L18.3529 229.987C18.3529 229.987 18.6367 229.987 19.5037 230.754C20.3708 231.521 20.8438 233.534 22.8564 234.685C24.869 235.836 31.1014 236.503 32.063 236.503C33.0247 236.503 33.3873 236.224 33.5817 234.927C32.6463 234.969 31.4219 234.969 30.2238 234.874Z" fill="white" stroke="#263238" stroke-miterlimit="10"/>
<path d="M36.2725 155.755L50.2611 185.435C50.2611 185.435 49.1208 192.004 50.5449 196.854C51.9689 201.705 58.9527 214.984 58.9527 214.984L59.6674 217.128L65.6633 214.127C65.6633 214.127 61.9533 202.283 61.0968 197.569C60.2402 192.855 60.9549 186.434 59.5203 182.009C58.0857 177.584 53.5244 155.472 53.5244 155.472L36.2725 155.755Z" fill="#263238" stroke="#263238" stroke-miterlimit="10"/>
<path d="M36.8135 159.161L45.048 177.159" stroke="#858585" stroke-miterlimit="10"/>
<path d="M68.1592 215.945C68.1592 215.945 68.9527 211.116 69.5833 211.116C70.2139 211.116 72.7362 211.589 71.722 213.176C70.7078 214.763 68.5691 218.794 68.5691 218.794L68.1592 215.945Z" fill="#7D7D7D" stroke="#263238" stroke-miterlimit="10"/>
<path d="M67.6758 211.705L56.2568 216.986L63.2512 228.547C63.4965 230.069 63.929 231.556 64.5386 232.972C65.3952 234.685 65.8208 235.4 65.8208 235.4L71.9586 233.403C71.9586 233.403 71.9586 232.404 72.6732 232.262C73.0404 232.213 73.4131 232.224 73.7768 232.294C74.3891 232.396 75.0181 232.302 75.574 232.026C77.8599 230.891 83.6771 227.995 84.7018 227.423C85.9892 226.708 86.0943 224.837 85.6634 224.122C85.2325 223.408 83.8084 222.546 82.3791 222.546C80.9498 222.546 75.5477 223.261 73.5298 222.688C71.5119 222.115 71.102 222.404 70.2455 221.406C69.3889 220.407 67.6758 211.705 67.6758 211.705Z" fill="#7D7D7D" stroke="#263238" stroke-miterlimit="10"/>
<path d="M68.5532 218.794C68.5532 218.794 70.9284 216.024 71.9584 217.217C72.9884 218.41 68.5532 218.794 68.5532 218.794Z" stroke="#263238" stroke-miterlimit="10"/>
<path d="M68.5532 218.794C68.5532 218.794 73.619 220.139 72.4314 220.539C71.2438 220.938 68.5532 218.794 68.5532 218.794Z" stroke="#263238" stroke-miterlimit="10"/>
<path d="M68.6325 222.667C68.2574 221.405 68.2302 220.065 68.5536 218.789C69.1552 220.775 69.5531 222.817 69.7412 224.884" stroke="#263238" stroke-miterlimit="10"/>
<path d="M84.7019 227.423C85.858 226.408 86.0997 224.664 85.6005 224.033C82.5228 226.431 79.1712 228.454 75.6161 230.061C68.7847 233.156 66.0942 233.156 64.7227 233.324C65.4583 234.774 65.2481 235.326 65.8314 235.426C70.5609 236.014 71.9692 233.429 71.9692 233.429C71.9692 233.429 71.9692 232.431 72.6839 232.289C73.0318 232.231 73.3869 232.231 73.7349 232.289C74.4233 232.394 75.8368 232.604 76.4464 232.289C78.8111 231.106 82.3477 229.498 84.7019 227.423Z" fill="white" stroke="#263238" stroke-miterlimit="10"/>
<path d="M54.9746 106.858C54.9746 106.858 61.2805 140.91 63.5401 147.763C64.8704 151.644 65.7794 155.658 66.2517 159.734L55.684 160.732L54.9746 106.858Z" fill="#7D7D7D" stroke="#263238" stroke-miterlimit="10"/>
<path d="M42.6941 92.5811C42.6941 92.5811 37.9646 97.4366 34.4176 107.142C30.8705 116.848 28.5636 142.908 27.707 147.605C26.8504 152.303 26.4195 159.061 27.2761 159.345C28.1327 159.629 41.27 163.486 48.6899 163.486C56.1099 163.486 60.3979 163.628 60.3979 162.629C60.3979 161.631 58.8214 117.836 57.3974 110.411C55.9733 102.986 53.8293 102.276 51.5486 97.8465C49.268 93.4166 42.6941 92.5811 42.6941 92.5811Z" fill="#7D7D7D" stroke="#263238" stroke-miterlimit="10"/>
<path d="M54.6857 101.278C53.4241 98.6173 51.8353 96.1247 49.9562 93.8578C46.9557 90.2897 44.8169 86.7164 42.9619 87.8619C41.1069 89.0075 39.2467 91.43 39.6776 93.0013C40.1085 94.5725 48.7161 98.5768 50.5448 99.7013C52.3735 100.826 54.26 103.001 54.6857 101.278Z" fill="white" stroke="#263238" stroke-miterlimit="10"/>
<path d="M55.0219 104.189C55.0219 104.189 49.9299 101.183 46.1411 102.612C43.6867 103.628 41.4973 105.192 39.7406 107.184L38.4321 101.955C38.4321 101.955 43.6555 97.9092 47.4443 97.9092C51.2331 97.9092 54.0918 100.137 55.0219 104.189Z" fill="#263238" stroke="#263238" stroke-miterlimit="10"/>
<path d="M76.4833 112.019L75.7949 111.494L82.3478 100.18C82.3785 100.127 82.4202 100.081 82.4701 100.045C82.52 100.009 82.577 99.9845 82.6372 99.9726C82.6974 99.9606 82.7594 99.9617 82.8192 99.9757C82.8789 99.9897 82.935 100.016 82.9837 100.054C83.0674 100.117 83.1249 100.208 83.1453 100.311C83.1657 100.414 83.1474 100.521 83.094 100.611L76.4833 112.019Z" fill="#263238" stroke="#263238" stroke-miterlimit="10"/>
<path d="M69.3101 115.429C70.2559 114.678 70.9282 113.637 71.2229 112.465C71.5907 110.647 71.9953 107.962 72.6942 107.373C73.3931 106.785 76.3727 105.797 76.8456 105.597C77.3186 105.398 78.2697 105.597 77.7074 106.953C77.1452 108.309 75.1798 108.755 75.1798 108.755L77.5603 109.969C77.5603 109.969 78.9949 107.2 79.4153 107.289C79.8357 107.379 79.9986 107.988 80.2771 109.502C80.5556 111.015 79.9881 111.604 79.1998 112.655C78.4116 113.706 78.5482 114.415 77.9019 115.45C77.2555 116.485 72.3632 119.67 71.7536 119.859C71.144 120.048 69.3101 115.429 69.3101 115.429Z" fill="white" stroke="#263238" stroke-miterlimit="10"/>
<path d="M45.1214 105.004C45.1214 105.004 42.8355 108.43 45.1214 114.426C47.4073 120.422 52.4048 136.265 54.1179 135.971C55.831 135.677 73.1039 122.692 73.3877 121.41C73.6715 120.127 69.9615 115.556 69.5358 115.104C69.1102 114.652 65.9625 117.242 63.8237 118.099C61.685 118.956 58.4006 120.721 58.4006 120.721C58.4006 120.721 56.6875 106.007 54.1179 103.448C51.5482 100.889 48.8314 102.45 48.4058 102.592" fill="#7D7D7D"/>
<path d="M45.1214 105.004C45.1214 105.004 42.8355 108.43 45.1214 114.426C47.4073 120.422 52.4048 136.265 54.1179 135.971C55.831 135.677 73.1039 122.692 73.3877 121.41C73.6715 120.127 69.9615 115.556 69.5358 115.104C69.1102 114.652 65.9625 117.242 63.8237 118.099C61.685 118.956 58.4006 120.721 58.4006 120.721C58.4006 120.721 56.6875 106.007 54.1179 103.448C51.5482 100.889 48.8314 102.45 48.4058 102.592" stroke="#263238" stroke-miterlimit="10"/>
<path d="M68.6794 125.419L66.6772 122.277L68.5322 120.847L70.3925 124.131L68.6794 125.419Z" fill="white" stroke="#263238" stroke-miterlimit="10"/>
<path d="M39.0419 101.162C39.1943 101.73 39.1838 111.845 38.7581 121.961C38.3325 132.077 36.1937 143.317 35.1953 147.752C34.1969 152.188 31.6325 152.734 27.2183 152.45C22.8042 152.167 16.5298 151.026 13.6816 148.746C10.8334 146.465 11.1172 141.483 12.6832 137.348C14.2491 133.212 16.6612 120.111 16.6612 114.557C16.6612 110.5 17.0868 106.228 18.4583 102.392C20.76 95.9913 25.9519 96.0228 31.9005 96.212C35.3109 96.3224 38.096 97.6781 39.0419 101.162Z" fill="#00AFC1" stroke="#263238" stroke-miterlimit="10"/>
<path d="M38.6738 100.127C37.4915 97.4104 34.9481 96.3121 31.9107 96.2123C25.9517 96.0178 20.7598 95.9915 18.4686 102.392C17.0971 106.228 16.6714 110.5 16.6714 114.557C16.6714 120.112 14.2489 133.217 12.683 137.348C11.2063 141.242 10.87 145.887 13.2084 148.32C12.7145 146.218 13.7024 141.788 16.6662 134.783C20.229 126.376 19.9453 112.135 19.9453 112.135C19.9453 112.135 19.9453 102.586 21.0856 100.306C22.2259 98.0252 26.64 98.3142 33.3348 99.0236C35.1487 99.2007 36.9384 99.5706 38.6738 100.127Z" fill="#00AFC1" stroke="#263238" stroke-miterlimit="10"/>
<path d="M38.9 103.585L39.1207 103.39C39.1331 102.647 39.1067 101.903 39.0418 101.162C38.096 97.6784 35.3108 96.3226 31.9109 96.2123C25.9518 96.0178 20.7599 95.9915 18.4688 102.392C17.0973 106.228 16.6716 110.5 16.6716 114.557C16.6378 116.352 16.5009 118.143 16.2617 119.923C17.1656 120.527 18.4951 121.157 18.9522 119.97C19.6669 118.115 20.5287 106.307 20.9491 102.87C21.3695 99.4335 25.7889 99.5964 31.0649 100.306C36.3408 101.015 38.9 103.585 38.9 103.585Z" fill="#263238" stroke="#263238" stroke-miterlimit="10"/>
<path d="M26.5033 135.356L25.5049 119.539L33.4819 120.253L32.4887 136.065L26.5033 135.356Z" fill="white" stroke="#263238" stroke-miterlimit="10"/>
<path d="M21.3745 133.648L21.5164 124.384L29.2096 125.666L28.2112 135.924L21.3745 133.648Z" fill="white" stroke="#263238" stroke-miterlimit="10"/>
<path d="M35.9045 132.807C25.0793 133.948 19.2358 131.094 19.2358 131.094C19.2358 131.094 15.962 140.075 14.9636 143.491C13.9651 146.906 15.962 147.621 20.518 149.192C25.0741 150.763 31.916 152.182 33.1982 149.76C34.4804 147.337 35.9045 132.807 35.9045 132.807Z" fill="#263238" stroke="#263238" stroke-miterlimit="10"/>
<path d="M234.215 236.503H238.067" stroke="#263238" stroke-miterlimit="10"/>
<path d="M7.20215 236.503H228.96" stroke="#263238" stroke-miterlimit="10"/>
</svg>
