<svg width="200" height="212" viewBox="0 0 200 212" fill="none" xmlns="http://www.w3.org/2000/svg">
<path d="M24.9499 145.203H12.4063C12.3307 145.203 12.2582 145.173 12.2047 145.119C12.1512 145.066 12.1212 144.993 12.1212 144.918V125.703H8.39803C8.34446 125.704 8.29179 125.689 8.2463 125.661C8.20081 125.633 8.16442 125.592 8.14146 125.543C8.11377 125.498 8.09912 125.446 8.09912 125.392C8.09912 125.339 8.11377 125.287 8.14146 125.241L18.4044 112.287C18.4317 112.255 18.4658 112.229 18.5042 112.211C18.5426 112.193 18.5844 112.184 18.6268 112.184C18.6692 112.184 18.711 112.193 18.7494 112.211C18.7878 112.229 18.8219 112.255 18.8492 112.287L29.1121 125.241C29.1453 125.283 29.166 125.333 29.1718 125.387C29.1777 125.44 29.1685 125.493 29.1453 125.542C29.1221 125.59 29.0859 125.63 29.0407 125.659C28.9955 125.687 28.9432 125.703 28.8898 125.703H25.1495V144.918C25.1524 144.98 25.1343 145.042 25.0982 145.094C25.0621 145.146 25.01 145.184 24.9499 145.203ZM12.7028 144.632H24.6762V125.418C24.6762 125.342 24.7063 125.27 24.7597 125.216C24.8132 125.163 24.8857 125.133 24.9613 125.133H28.3823L18.6895 112.926L8.99671 125.133H12.4177C12.4933 125.133 12.5658 125.163 12.6193 125.216C12.6727 125.27 12.7028 125.342 12.7028 125.418V144.632Z" fill="#00AFC1"/>
<path d="M150.865 145.203H138.322C138.246 145.203 138.174 145.173 138.12 145.119C138.067 145.066 138.037 144.993 138.037 144.918V125.703H134.296C134.243 125.703 134.191 125.687 134.146 125.659C134.1 125.63 134.064 125.59 134.041 125.542C134.018 125.493 134.009 125.44 134.014 125.387C134.02 125.333 134.041 125.283 134.074 125.241L144.366 112.287C144.393 112.255 144.427 112.229 144.465 112.211C144.504 112.193 144.546 112.184 144.588 112.184C144.63 112.184 144.672 112.193 144.711 112.211C144.749 112.229 144.783 112.255 144.81 112.287L155.102 125.241C155.135 125.283 155.156 125.333 155.161 125.387C155.167 125.44 155.158 125.493 155.135 125.542C155.112 125.59 155.076 125.63 155.03 125.659C154.985 125.687 154.933 125.703 154.879 125.703H151.139V144.918C151.139 144.991 151.111 145.062 151.06 145.115C151.009 145.168 150.939 145.2 150.865 145.203ZM138.618 144.632H150.592V125.418C150.592 125.342 150.622 125.27 150.675 125.216C150.729 125.163 150.801 125.133 150.877 125.133H154.298L144.605 112.926L134.912 125.133H138.333C138.409 125.133 138.481 125.163 138.535 125.216C138.588 125.27 138.618 125.342 138.618 125.418V144.632Z" fill="#00AFC1"/>
<path d="M182.635 177.103H170.091C170.016 177.103 169.943 177.073 169.89 177.02C169.836 176.966 169.806 176.894 169.806 176.818V157.604H166.083C166.03 157.603 165.977 157.588 165.932 157.559C165.887 157.531 165.851 157.49 165.828 157.442C165.804 157.394 165.795 157.34 165.801 157.287C165.807 157.234 165.828 157.184 165.861 157.142L176.124 144.193C176.151 144.161 176.185 144.135 176.223 144.117C176.262 144.099 176.304 144.09 176.346 144.09C176.388 144.09 176.43 144.099 176.469 144.117C176.507 144.135 176.541 144.161 176.568 144.193L186.831 157.142C186.865 157.184 186.885 157.234 186.891 157.287C186.897 157.34 186.888 157.394 186.865 157.442C186.841 157.49 186.805 157.531 186.76 157.559C186.715 157.588 186.662 157.603 186.609 157.604H182.869V176.818C182.87 176.886 182.847 176.951 182.804 177.004C182.761 177.056 182.701 177.091 182.635 177.103ZM170.394 176.533H182.367V157.318C182.367 157.243 182.397 157.17 182.45 157.117C182.504 157.063 182.576 157.033 182.652 157.033H186.073L176.38 144.826L166.687 157.033H170.108C170.184 157.035 170.255 157.065 170.308 157.118C170.362 157.172 170.392 157.243 170.394 157.318V176.533Z" fill="#00AFC1"/>
<path d="M169.618 102.594H157.074C156.999 102.594 156.926 102.564 156.873 102.51C156.819 102.457 156.789 102.385 156.789 102.309V83.0943H153.049C152.995 83.0946 152.942 83.0792 152.896 83.0498C152.851 83.0204 152.815 82.9785 152.793 82.929C152.77 82.8804 152.761 82.8264 152.767 82.7731C152.773 82.7197 152.794 82.6691 152.827 82.6268L163.09 69.6784C163.118 69.6459 163.152 69.6198 163.191 69.6019C163.23 69.584 163.272 69.5747 163.315 69.5747C163.358 69.5747 163.4 69.584 163.439 69.6019C163.478 69.6198 163.512 69.6459 163.54 69.6784L173.803 82.6268C173.836 82.6693 173.856 82.72 173.861 82.7732C173.867 82.8265 173.858 82.8802 173.835 82.9286C173.812 82.9769 173.776 83.018 173.731 83.0472C173.686 83.0765 173.634 83.0928 173.581 83.0943H169.84V102.309C169.842 102.375 169.821 102.439 169.78 102.491C169.74 102.543 169.682 102.58 169.618 102.594ZM157.377 102.024H169.35V82.8093C169.35 82.7337 169.38 82.6611 169.434 82.6077C169.487 82.5542 169.56 82.5242 169.635 82.5242H173.056L163.363 70.3112L153.671 82.5242H157.092C157.167 82.5242 157.24 82.5542 157.293 82.6077C157.347 82.6611 157.377 82.7337 157.377 82.8093V102.024Z" fill="#00AFC1"/>
<path d="M51.115 104.835H38.5714C38.4958 104.835 38.4232 104.805 38.3698 104.751C38.3163 104.698 38.2863 104.625 38.2863 104.55V85.3353H34.5517C34.4978 85.3361 34.4447 85.3217 34.3987 85.2936C34.3527 85.2654 34.3156 85.2249 34.2917 85.1765C34.2678 85.1281 34.2581 85.074 34.2638 85.0204C34.2694 84.9667 34.2902 84.9158 34.3236 84.8735L44.6151 71.9193C44.6424 71.8869 44.6765 71.8609 44.7149 71.843C44.7533 71.8252 44.7951 71.8159 44.8375 71.8159C44.8798 71.8159 44.9217 71.8252 44.9601 71.843C44.9985 71.8609 45.0326 71.8869 45.0598 71.9193L55.3513 84.8735C55.3845 84.9154 55.4052 84.9658 55.411 85.0189C55.4169 85.0721 55.4077 85.1258 55.3845 85.1739C55.3613 85.2221 55.3251 85.2627 55.2799 85.2913C55.2347 85.3198 55.1824 85.3351 55.129 85.3353H51.3887V104.55C51.3887 104.624 51.3603 104.694 51.3093 104.748C51.2582 104.801 51.1886 104.832 51.115 104.835ZM38.8679 104.265H50.8413V85.0502C50.8413 84.9746 50.8714 84.9021 50.9248 84.8486C50.9783 84.7952 51.0508 84.7651 51.1264 84.7651H54.5474L44.8546 72.5579L35.1618 84.7651H38.5828C38.6584 84.7651 38.7309 84.7952 38.7844 84.8486C38.8378 84.9021 38.8679 84.9746 38.8679 85.0502V104.265Z" fill="#00AFC1"/>
<path d="M71.0706 177.103H58.5269C58.4513 177.103 58.3788 177.073 58.3253 177.02C58.2719 176.966 58.2418 176.894 58.2418 176.818V157.604H54.5016C54.4481 157.603 54.3958 157.588 54.3506 157.559C54.3054 157.531 54.2692 157.49 54.246 157.442C54.2228 157.394 54.2136 157.34 54.2195 157.287C54.2254 157.234 54.2461 157.184 54.2792 157.142L64.5707 144.193C64.598 144.161 64.632 144.135 64.6704 144.117C64.7088 144.099 64.7507 144.09 64.793 144.09C64.8354 144.09 64.8772 144.099 64.9156 144.117C64.9541 144.135 64.9881 144.161 65.0154 144.193L75.3069 157.142C75.3403 157.184 75.3611 157.235 75.3667 157.289C75.3724 157.342 75.3627 157.396 75.3388 157.445C75.315 157.493 75.2778 157.534 75.2318 157.562C75.1858 157.59 75.1327 157.604 75.0788 157.604H71.3442V176.818C71.3443 176.892 71.3158 176.963 71.2648 177.016C71.2138 177.069 71.1442 177.1 71.0706 177.103ZM58.8234 176.533H70.7969V157.318C70.7969 157.243 70.8269 157.17 70.8804 157.117C70.9338 157.063 71.0063 157.033 71.0819 157.033H74.5029L64.8101 144.826L55.1173 157.033H58.5383C58.6139 157.033 58.6864 157.063 58.7399 157.117C58.7934 157.17 58.8234 157.243 58.8234 157.318V176.533Z" fill="#00AFC1"/>
<path d="M101.768 211.94C133.887 211.94 159.925 208.92 159.925 205.195C159.925 201.47 133.887 198.45 101.768 198.45C69.649 198.45 43.6113 201.47 43.6113 205.195C43.6113 208.92 69.649 211.94 101.768 211.94Z" fill="#00AFC1"/>
<path opacity="0.5" d="M101.768 211.94C133.887 211.94 159.925 208.92 159.925 205.195C159.925 201.47 133.887 198.45 101.768 198.45C69.649 198.45 43.6113 201.47 43.6113 205.195C43.6113 208.92 69.649 211.94 101.768 211.94Z" fill="white"/>
<path d="M138.983 43.3141C139.763 39.1595 139.299 34.867 137.649 30.975C136 27.0829 133.238 23.7646 129.71 21.4361C126.181 19.1076 122.044 17.8725 117.817 17.8859C113.59 17.8992 109.461 19.1603 105.948 21.511C103.396 15.3081 98.7704 10.1831 92.8608 7.01065C86.9513 3.83824 80.1239 2.8151 73.5439 4.11587C66.964 5.41665 61.0395 8.96069 56.7816 14.1431C52.5237 19.3255 50.1963 25.825 50.1968 32.5323C50.1968 32.8915 50.1968 33.245 50.1968 33.5985C46.037 34.784 42.4112 37.3637 39.9276 40.905C37.4439 44.4462 36.2532 48.7338 36.5553 53.0487C36.8574 57.3636 38.6339 61.4434 41.5868 64.604C44.5397 67.7647 48.4895 69.814 52.7739 70.4083V70.6079H138.059C141.524 70.4877 144.814 69.0567 147.265 66.6041C149.716 64.1515 151.144 60.8601 151.261 57.3951C151.378 53.93 150.176 50.5496 147.897 47.9369C145.618 45.3242 142.432 43.674 138.983 43.3198V43.3141Z" fill="#263238" stroke="#263238" stroke-linecap="round" stroke-linejoin="round"/>
<path d="M138.983 40.7482C139.763 36.5936 139.299 32.3011 137.649 28.4091C136 24.517 133.238 21.1987 129.71 18.8702C126.181 16.5417 122.044 15.3066 117.817 15.3199C113.59 15.3333 109.461 16.5943 105.948 18.945C103.396 12.7426 98.7711 7.61787 92.8621 4.4454C86.9531 1.27293 80.1263 0.249373 73.5467 1.5494C66.9672 2.84943 61.0427 6.39248 56.7843 11.5739C52.526 16.7553 50.1977 23.2539 50.1968 29.9606C50.1968 30.3198 50.1968 30.6733 50.1968 31.0268C46.037 32.2124 42.4112 34.792 39.9276 38.3333C37.4439 41.8746 36.2532 46.1622 36.5553 50.4771C36.8574 54.7919 38.6339 58.8718 41.5868 62.0324C44.5397 65.1931 48.4895 67.2424 52.7739 67.8367V68.0363H138.059C141.524 67.9161 144.814 66.4851 147.265 64.0325C149.716 61.5799 151.144 58.2885 151.261 54.8234C151.378 51.3584 150.176 47.9779 147.897 45.3652C145.618 42.7525 142.432 41.1024 138.983 40.7482Z" fill="#00AFC1" stroke="#263238" stroke-linecap="round" stroke-linejoin="round"/>
<path d="M109.409 117.179L105.822 119.06C105.822 119.06 101.894 120.771 99.3281 122.133C96.7623 123.496 84.1218 133.24 84.1218 133.24L81.5617 133.411L80.0223 134.438C80.0223 134.438 77.4565 134.951 77.4565 135.464C77.4565 135.977 77.9697 136.142 78.4828 136.142C79.2549 135.948 80.0013 135.663 80.7065 135.293C80.7065 135.293 78.9675 137.836 79.6517 137.836C80.6423 137.938 81.6265 138.096 82.5994 138.309C83.7312 138.098 84.873 137.946 86.0204 137.853C86.8757 137.853 88.9226 133.24 88.9226 133.24C88.9226 133.24 103.616 127.43 105.497 126.062C107.379 124.693 112.841 121.278 112.841 121.278L109.409 117.179Z" fill="white" stroke="#263238" stroke-linecap="round" stroke-linejoin="round"/>
<path d="M123.201 103.142L107.185 117.692L111.803 123.16L120.687 119.745L123.76 103.341L123.201 103.142Z" fill="#00AFC1" stroke="#263238" stroke-linecap="round" stroke-linejoin="round"/>
<path d="M109.323 115.753L107.185 117.692L111.803 123.16L114.557 122.099L109.323 115.753Z" fill="#263238" stroke="#263238" stroke-linecap="round" stroke-linejoin="round"/>
<path d="M151.156 194.191C151.156 194.191 156.242 199.482 156.761 202.077C157.28 204.671 156.037 206.957 153.961 206.33C151.886 205.703 150.016 199.277 149.497 198.137C148.978 196.996 148.356 195.748 148.356 195.748C148.356 195.748 149.913 193.672 151.156 194.191Z" fill="#00AFC1" stroke="#263238" stroke-linecap="round" stroke-linejoin="round"/>
<path d="M156.807 202.356C157.183 204.83 155.957 206.917 153.956 206.347C153.232 206.136 152.536 205.206 151.915 204.066C153.272 201.871 155.455 201.991 156.807 202.356Z" fill="white" stroke="#263238" stroke-linecap="round" stroke-linejoin="round"/>
<path d="M151.208 202.567C152.348 204.123 153.796 205.794 154.891 205.503C155.986 205.212 156.561 203.154 156.761 202.082C157.274 204.671 156.031 206.94 153.961 206.318C152.947 206.028 151.989 204.346 151.208 202.567Z" fill="white" stroke="#263238" stroke-linecap="round" stroke-linejoin="round"/>
<path d="M150.118 197.099C150.118 197.099 152.399 195.85 152.507 196.267C152.616 196.683 150.329 197.823 150.016 197.823C149.702 197.823 149.497 197.721 150.118 197.099Z" fill="white" stroke="#263238" stroke-width="0.5" stroke-linecap="round" stroke-linejoin="round"/>
<path d="M150.637 197.823C150.637 197.823 152.918 196.58 153.026 196.996C153.135 197.413 150.848 198.553 150.535 198.553C150.221 198.553 150.016 198.45 150.637 197.823Z" fill="white" stroke="#263238" stroke-width="0.5" stroke-linecap="round" stroke-linejoin="round"/>
<path d="M151.156 198.553C151.156 198.553 153.437 197.304 153.545 197.72C153.653 198.136 151.367 199.277 151.053 199.277C150.74 199.277 150.534 199.174 151.156 198.553Z" fill="white" stroke="#263238" stroke-width="0.5" stroke-linecap="round" stroke-linejoin="round"/>
<path d="M151.675 199.277C151.675 199.277 153.956 198.034 154.064 198.444C154.172 198.855 151.886 200.001 151.572 200.001C151.259 200.001 151.053 199.898 151.675 199.277Z" fill="white" stroke="#263238" stroke-width="0.5" stroke-linecap="round" stroke-linejoin="round"/>
<path d="M110.178 198.952C110.178 198.952 112.162 201.717 112.339 203.285C112.516 204.853 111.199 204.893 109.522 204.717C107.846 204.54 105.845 205.777 103.484 205.714C101.124 205.652 98.3929 204.62 99.7042 203.496C101.016 202.373 104.437 201.449 105.178 200.805C105.62 200.418 106.036 200.001 106.421 199.557L110.178 198.952Z" fill="#00AFC1" stroke="#263238" stroke-linecap="round" stroke-linejoin="round"/>
<path d="M99.7042 203.496C100.165 203.134 100.671 202.833 101.209 202.601C101.812 202.924 102.343 203.367 102.768 203.902C103.194 204.437 103.505 205.054 103.684 205.714H103.479C101.118 205.651 98.3929 204.619 99.7042 203.496Z" fill="white" stroke="#263238" stroke-linecap="round" stroke-linejoin="round"/>
<path d="M105.395 200.44C105.395 200.44 107.829 201.711 107.214 201.962C106.598 202.213 104.75 200.788 105.395 200.44Z" fill="white" stroke="#263238" stroke-width="0.5" stroke-linecap="round" stroke-linejoin="round"/>
<path d="M104.448 200.697C104.448 200.697 106.883 201.968 106.267 202.219C105.651 202.47 103.804 201.045 104.448 200.697Z" fill="white" stroke="#263238" stroke-width="0.5" stroke-linecap="round" stroke-linejoin="round"/>
<path d="M103.901 201.073C103.901 201.073 106.335 202.344 105.719 202.595C105.104 202.846 103.256 201.421 103.901 201.073Z" fill="white" stroke="#263238" stroke-width="0.5" stroke-linecap="round" stroke-linejoin="round"/>
<path d="M102.909 201.529C102.909 201.529 105.343 202.8 104.727 203.051C104.112 203.302 102.253 201.871 102.909 201.529Z" fill="white" stroke="#263238" stroke-width="0.5" stroke-linecap="round" stroke-linejoin="round"/>
<path d="M99.4308 203.844C101.137 204.849 103.168 205.149 105.093 204.682C106.879 204.29 108.694 204.038 110.521 203.929C111.142 203.911 111.758 203.808 112.351 203.622C112.305 204.859 111.074 204.882 109.5 204.716C107.824 204.534 105.822 205.777 103.462 205.714C101.364 205.657 98.969 204.825 99.4308 203.844Z" fill="white" stroke="#263238" stroke-linecap="round" stroke-linejoin="round"/>
<path d="M135.112 138.013C135.112 138.013 133.914 154.684 134.638 158.727C135.363 162.769 137.147 174.805 137.147 174.805C137.147 174.805 139.85 176.778 142.547 181.134C145.244 185.49 151.156 194.208 151.156 194.208C151.156 194.208 151.367 195.765 149.497 196.283C149.497 196.283 148.562 196.7 148.043 196.283C147.524 195.867 129.798 179.475 127.705 176.054C125.613 172.633 122.83 151.583 122.83 151.583L120.133 151.064L108.73 172.855L110.714 199.345C110.714 199.345 110.868 200.258 109.574 200.628C108.28 200.999 107.236 201.13 106.461 200.463C105.685 199.796 99.6816 170.786 100.189 169.748C100.697 168.71 112.202 140.191 112.202 140.191L113.132 137.807C113.132 137.807 124.028 139.05 128.903 138.115C133.778 137.18 134.701 136.439 135.112 138.013Z" fill="#263238" stroke="#263238" stroke-linecap="round" stroke-linejoin="round"/>
<path d="M120.133 151.046L114.215 149.285" stroke="white" stroke-linecap="round" stroke-linejoin="round"/>
<path d="M119.506 151.36L111.416 150.425" stroke="white" stroke-linecap="round" stroke-linejoin="round"/>
<path d="M133.253 141.24C133.253 141.24 128.874 144.034 133.253 145.898" stroke="white" stroke-linecap="round" stroke-linejoin="round"/>
<path d="M120.857 142.38L120.185 145.071L118.383 146.873L120.629 148.891" stroke="white" stroke-linecap="round" stroke-linejoin="round"/>
<path d="M146.509 110.485C142.518 107.247 137.563 103.335 137.563 103.335C137.563 103.335 127.055 103.096 123.201 103.142L117.784 120.429C117.784 120.429 112.807 137.648 113.012 138.378C113.217 139.108 116.752 140.761 124.638 141.696C132.523 142.631 135.841 139.313 136.041 138.275C136.127 137.335 136.058 136.387 135.836 135.47L138.533 130.698L147.456 116.022C147.994 115.14 148.195 114.094 148.021 113.076C147.847 112.058 147.31 111.138 146.509 110.485Z" fill="#00AFC1" stroke="#263238" stroke-linecap="round" stroke-linejoin="round"/>
<path d="M143.39 107.959C140.334 105.507 137.58 103.335 137.58 103.335C137.58 103.335 134.091 103.255 130.402 103.198C129.467 105.331 127.853 109.687 129.182 111.842C130.801 114.499 136.155 115.291 143.39 107.959Z" fill="#263238" stroke="#263238" stroke-linecap="round" stroke-linejoin="round"/>
<path d="M138.641 85.5576C138.641 85.5576 135.636 86.39 134.388 88.2545C133.139 90.1189 129.513 101.02 129.615 101.938C129.718 102.856 134.388 101.938 134.388 101.938C134.388 101.938 131.172 108.684 131.172 109.824C131.172 110.964 132.626 111.591 134.49 111.175C136.355 110.759 142.724 99.8117 142.724 99.8117C142.724 99.8117 144.611 102.001 145.802 101.249C147.171 100.388 146.737 98.6543 145.7 98.6543C144.662 98.6543 148.602 94.4009 147.256 91.6014C145.911 88.8019 139.89 84.6282 138.641 85.5576Z" fill="white" stroke="#263238" stroke-linecap="round" stroke-linejoin="round"/>
<path d="M137.501 82.2446C137.501 82.2446 131.691 82.2446 131.377 85.0441C131.063 87.8436 134.08 89.0922 137.398 88.5734C140.716 88.0545 143.727 88.2598 144.143 88.7786C144.559 89.2975 140.095 90.3352 141.133 91.0593C141.736 91.4925 142.466 91.7131 143.208 91.6865C143.208 91.6865 141.754 92.097 141.857 93.1347C141.959 94.1724 142.866 98.7565 143.567 98.7565C144.268 98.7565 145.677 98.6653 145.677 98.6653C146.99 98.0045 148.183 97.1276 149.206 96.0711C150.763 94.4119 151.173 90.8826 149.206 88.8129C147.239 86.7432 145.677 84.7305 144.12 83.0713C142.564 81.4121 141.11 79.6503 137.997 79.2341C134.883 78.8179 133.247 80.0608 137.501 82.2446Z" fill="#263238" stroke="#263238" stroke-linecap="round" stroke-linejoin="round"/>
<path d="M149.617 92.9697C149.724 93.5776 149.745 94.1976 149.679 94.8114" stroke="white" stroke-linecap="round" stroke-linejoin="round"/>
<path d="M138.954 85.5176C138.954 85.5176 132.586 86.1391 134.963 87.3535C137.341 88.568 141.053 86.293 145.688 88.1289C146.47 88.4114 147.184 88.8547 147.784 89.4302C148.384 90.0057 148.857 90.7006 149.172 91.4701" stroke="white" stroke-linecap="round" stroke-linejoin="round"/>
<path d="M142.82 90.3525C142.82 90.3525 147.171 92.4793 147.747 95.5695" stroke="white" stroke-linecap="round" stroke-linejoin="round"/>
<path d="M134.388 101.956C134.388 101.956 139.371 101.648 140.717 100.507" stroke="#263238" stroke-linecap="round" stroke-linejoin="round"/>
<path d="M132.831 97.8044C132.831 97.8044 136.463 98.8421 137.501 96.6641" stroke="#263238" stroke-linecap="round" stroke-linejoin="round"/>
<path d="M136.879 96.248L138.435 96.8752" stroke="#263238" stroke-linecap="round" stroke-linejoin="round"/>
<path d="M133.971 93.0322C133.971 93.0322 130.755 93.4484 130.755 93.9673C130.755 94.4861 132.831 95.9401 132.831 95.9401" fill="white"/>
<path d="M133.971 93.0322C133.971 93.0322 130.755 93.4484 130.755 93.9673C130.755 94.4861 132.831 95.9401 132.831 95.9401" stroke="#263238" stroke-linecap="round" stroke-linejoin="round"/>
<path d="M134.382 92.0343C134.234 92.4847 133.931 92.7869 133.703 92.7128C133.475 92.6387 133.418 92.2168 133.572 91.7663C133.726 91.3159 134.023 91.0137 134.251 91.0878C134.479 91.162 134.536 91.5896 134.382 92.0343Z" fill="#263238"/>
<path d="M137.118 93.4199C136.965 93.8703 136.662 94.1725 136.44 94.0984C136.218 94.0243 136.155 93.5967 136.303 93.1519C136.451 92.7072 136.759 92.3993 136.982 92.4734C137.204 92.5475 137.261 92.9695 137.118 93.4199Z" fill="#263238"/>
<path d="M137.261 90.4722C137.261 90.4722 138.835 90.6147 138.687 92.7528L137.261 90.4722Z" fill="#263238" stroke="#263238" stroke-linecap="round" stroke-linejoin="round"/>
<path d="M135.836 89.4747C135.836 89.4747 134.975 88.3343 133.834 89.9023L135.836 89.4747Z" fill="#263238" stroke="#263238" stroke-linecap="round" stroke-linejoin="round"/>
<path d="M107.202 51.524L92.1838 32.623L77.1714 51.524H83.0441V79.981H101.329V51.524H107.202Z" fill="#263238" stroke="#263238" stroke-linecap="round" stroke-linejoin="round"/>
<path d="M107.202 50.2984L92.1838 31.3975L77.1714 50.2984H83.0441V78.7554H101.329V50.2984H107.202Z" fill="white" stroke="#263238" stroke-linecap="round" stroke-linejoin="round"/>
<path d="M121.473 75.5454H60.4028V136.616H121.473V75.5454Z" fill="white" stroke="#263238" stroke-linecap="round" stroke-linejoin="round"/>
<path d="M118.634 78.3848H63.2422V133.776H118.634V78.3848Z" fill="#263238" stroke="#263238" stroke-linecap="round" stroke-linejoin="round"/>
<path d="M105.788 97.0346L92.868 110.536L82.8103 107.719C82.3147 107.581 81.7943 107.557 81.2879 107.648C80.7814 107.738 80.302 107.942 79.8853 108.244L63.2422 120.337V133.799H118.634V105.291L110.708 97.0289C110.389 96.6991 110.006 96.4369 109.584 96.258C109.161 96.0792 108.706 95.9873 108.247 95.9878C107.788 95.9883 107.333 96.0813 106.911 96.2611C106.489 96.441 106.107 96.704 105.788 97.0346Z" fill="white" stroke="#263238" stroke-linecap="round" stroke-linejoin="round"/>
<path d="M90.2459 95.9406C91.7121 92.3693 90.0055 88.2856 86.4342 86.8194C82.8628 85.3532 78.7791 87.0598 77.3129 90.6312C75.8468 94.2025 77.5534 98.2862 81.1247 99.7524C84.6961 101.219 88.7798 99.512 90.2459 95.9406Z" fill="white" stroke="#263238" stroke-linecap="round" stroke-linejoin="round"/>
<path d="M138.881 113.125L123.617 128.816L100.354 135.224C100.354 135.224 98.279 132.813 96.7852 132.796C95.2914 132.778 90.4792 134.506 90.4792 134.506C90.4792 134.506 89.8691 136 91.0494 136.011C92.2629 135.926 93.4666 135.735 94.6471 135.441L88.0503 136.581C88.1299 137.084 88.3849 137.541 88.7701 137.873C89.1553 138.205 89.6457 138.39 90.1542 138.395H93.1248L98.2049 139.039L103.011 137.585C103.011 137.585 125.784 135.105 126.987 134.814C128.19 134.523 147.513 117.937 147.513 117.937C147.513 117.937 149.697 116.016 148.864 113.786C148.032 111.557 143.773 109.978 143.773 109.978" fill="white"/>
<path d="M138.881 113.125L123.617 128.816L100.354 135.224C100.354 135.224 98.2791 132.813 96.7852 132.796C95.2914 132.778 90.4792 134.506 90.4792 134.506C90.4792 134.506 89.8691 136 91.0494 136.011C92.2629 135.926 93.4666 135.735 94.6471 135.441L88.0503 136.581C88.1299 137.084 88.3849 137.541 88.7701 137.873C89.1553 138.205 89.6457 138.39 90.1542 138.395H93.1248L98.2049 139.039L103.011 137.585C103.011 137.585 125.784 135.105 126.987 134.814C128.19 134.523 147.513 117.937 147.513 117.937C147.513 117.937 149.697 116.016 148.864 113.786C148.032 111.557 143.773 109.978 143.773 109.978" stroke="#263238" stroke-linecap="round" stroke-linejoin="round"/>
<path d="M136.126 114.761L124.489 126.433L133.127 132.665L148.134 118.53C148.866 117.844 149.342 116.929 149.482 115.935C149.622 114.941 149.418 113.93 148.904 113.068L148.852 112.988C147.776 111.282 146.254 109.902 144.451 108.997" fill="#00AFC1"/>
<path d="M136.126 114.761L124.489 126.433L133.127 132.665L148.134 118.53C148.866 117.844 149.342 116.929 149.482 115.935C149.622 114.941 149.418 113.93 148.904 113.068L148.852 112.988C147.776 111.282 146.254 109.902 144.451 108.997" stroke="#263238" stroke-linecap="round" stroke-linejoin="round"/>
<path d="M133.15 132.665L135.18 130.749L126.496 124.42L124.489 126.433L133.15 132.665Z" fill="#263238" stroke="#263238" stroke-linecap="round" stroke-linejoin="round"/>
<path d="M77.4565 135.464L79.6517 137.836L81.7784 138.07L78.4771 135.242L77.4565 135.464Z" fill="white" stroke="#263238" stroke-linecap="round" stroke-linejoin="round"/>
<path d="M81.5845 135.464L83.7796 137.836L85.9006 138.07L82.5994 135.242L81.5845 135.464Z" fill="white" stroke="#263238" stroke-linecap="round" stroke-linejoin="round"/>
<path d="M81.7781 138.07L79.2979 134.888H80.8316L83.8991 138.07L82.5991 138.309L81.7781 138.07Z" fill="white" stroke="#263238" stroke-linecap="round" stroke-linejoin="round"/>
<path d="M76.5898 135.715L77.6504 137.716L79.6516 137.836L77.4565 135.464L76.5898 135.715Z" fill="white" stroke="#263238" stroke-linecap="round" stroke-linejoin="round"/>
</svg>
