<svg width="200" height="203" viewBox="0 0 200 203" fill="none" xmlns="http://www.w3.org/2000/svg">
<path opacity="0.7" d="M29.2908 186.635C68.3428 207.813 131.659 207.818 170.711 186.635C209.763 165.453 209.763 131.106 170.711 109.923C131.659 88.7404 68.3428 88.7404 29.2908 109.923C-9.76122 131.106 -9.76596 165.453 29.2908 186.635Z" fill="#F0F0F0"/>
<path d="M53.2993 139.116C68.2085 139.116 80.2949 133.355 80.2949 126.25C80.2949 119.144 68.2085 113.384 53.2993 113.384C38.39 113.384 26.3037 119.144 26.3037 126.25C26.3037 133.355 38.39 139.116 53.2993 139.116Z" fill="#E0E0E0"/>
<path d="M19.3736 125.411L22.4078 123.679C22.4078 123.679 23.8657 115.66 22.777 108.768C21.2433 99.0739 14.6447 95.732 12.2496 96.6929C9.85436 97.6538 9.29107 100.527 13.6176 106.127C16.1926 109.421 19.4588 116.418 19.3736 125.411Z" fill="#00AFC1"/>
<g opacity="0.1">
<path d="M19.3736 125.411L22.4078 123.679C22.4078 123.679 23.8657 115.66 22.777 108.768C21.2433 99.0739 14.6447 95.732 12.2496 96.6929C9.85436 97.6538 9.29107 100.527 13.6176 106.127C16.1926 109.421 19.4588 116.418 19.3736 125.411Z" fill="black"/>
</g>
<path d="M20.4767 121.563H20.453C20.3965 121.554 20.3457 121.523 20.3113 121.477C20.2769 121.431 20.2616 121.374 20.2684 121.317C21.5133 112.261 17.8638 102.321 13.7645 98.2974C13.7256 98.2567 13.7039 98.2025 13.7041 98.1462C13.7043 98.0899 13.7263 98.0358 13.7655 97.9954C13.8047 97.9549 13.8581 97.9313 13.9144 97.9293C13.9707 97.9274 14.0255 97.9474 14.0674 97.985C18.2424 102.065 21.963 112.186 20.6944 121.378C20.6865 121.43 20.66 121.477 20.62 121.511C20.58 121.545 20.5291 121.564 20.4767 121.563Z" fill="white"/>
<path d="M10.9574 130.277C10.484 130.552 9.48997 129.951 9.11128 129.695C8.46246 129.253 7.93773 128.651 7.58707 127.949C7.19834 127.15 7.06607 126.25 7.20839 125.374C7.28417 124.91 7.39333 124.453 7.535 124.005L7.91842 122.675C8.07153 122.246 8.13751 121.791 8.1125 121.336C7.99416 120.427 7.16578 119.788 6.45575 119.239C5.64157 118.633 4.799 117.819 4.80373 116.735C4.85832 115.888 5.19112 115.082 5.75045 114.444C6.27114 113.781 6.89124 113.199 7.36459 112.498C7.73556 112.01 7.93074 111.412 7.91842 110.799C7.86567 110.423 7.73855 110.06 7.54447 109.734C7.10096 109.056 6.71312 108.344 6.38474 107.604C6.11493 106.837 6.1528 105.885 6.75396 105.336C7.02168 105.134 7.32728 104.988 7.65256 104.907C7.97785 104.826 8.31618 104.811 8.64739 104.863C9.26934 104.937 9.86734 105.147 10.3988 105.478C12.136 106.425 13.1301 108.498 14.9714 109.265C15.7048 109.49 16.4509 109.672 17.2057 109.81C17.5805 109.879 17.9367 110.026 18.2513 110.241C18.566 110.456 18.8322 110.735 19.0329 111.059C19.7098 112.413 18.4554 114.074 18.9334 115.513C19.3547 116.782 20.5855 117.265 21.3002 118.41C21.581 118.916 21.6938 119.498 21.6221 120.072C21.5647 121.044 21.3288 121.997 20.9263 122.884C20.4743 123.763 19.9585 124.608 19.3831 125.411C19.3453 125.44 11.0284 130.249 10.9574 130.277Z" fill="#00AFC1"/>
<path d="M15.8804 127.65C15.852 127.65 15.824 127.643 15.7981 127.632C15.7722 127.62 15.7488 127.604 15.7294 127.583C15.71 127.562 15.695 127.538 15.6851 127.511C15.6753 127.484 15.6709 127.456 15.6721 127.428C16.0271 118.836 11.9799 109.355 9.04512 106.6C9.02461 106.581 9.00809 106.558 8.99651 106.532C8.98494 106.506 8.97852 106.479 8.97764 106.451C8.97676 106.422 8.98144 106.394 8.99139 106.368C9.00134 106.342 9.01638 106.318 9.03565 106.297C9.05492 106.277 9.07805 106.26 9.1037 106.248C9.12935 106.237 9.15704 106.23 9.18517 106.23C9.2133 106.229 9.24133 106.233 9.26765 106.243C9.29398 106.253 9.31809 106.268 9.3386 106.288C12.3397 109.095 16.4721 118.737 16.1076 127.442C16.107 127.471 16.1006 127.499 16.0888 127.525C16.0769 127.552 16.0598 127.575 16.0386 127.595C16.0173 127.614 15.9924 127.629 15.9652 127.639C15.938 127.648 15.9091 127.652 15.8804 127.65Z" fill="white"/>
<path d="M14.5974 117.506H14.5312C12.4958 116.945 10.4055 116.607 8.29705 116.498C8.24542 116.49 8.19826 116.464 8.16417 116.425C8.13008 116.385 8.11133 116.335 8.11133 116.283C8.11133 116.231 8.13008 116.18 8.16417 116.141C8.19826 116.101 8.24542 116.075 8.29705 116.067C10.4422 116.177 12.569 116.52 14.64 117.09C14.6898 117.105 14.7325 117.137 14.7604 117.181C14.7883 117.225 14.7995 117.278 14.7921 117.329C14.7846 117.381 14.759 117.428 14.7198 117.462C14.6807 117.496 14.6305 117.515 14.5785 117.516L14.5974 117.506Z" fill="white"/>
<path d="M167.558 169.117C169.191 165.567 175.132 159.394 180.93 156.478C186.729 153.562 194.061 152.852 197.531 156.147C200.759 159.214 198.038 164.047 191.851 165.245C185.664 166.442 176.77 167.417 172.083 172.236L164.552 177.33L167.558 169.117Z" fill="#00AFC1"/>
<path opacity="0.1" d="M167.558 169.117C169.191 165.567 175.132 159.394 180.93 156.478C186.729 153.562 194.061 152.852 197.531 156.147C200.759 159.214 198.038 164.047 191.851 165.245C185.664 166.442 176.77 167.417 172.083 172.236L164.552 177.33L167.558 169.117Z" fill="black"/>
<path d="M165.068 173.85C165.127 173.871 165.191 173.873 165.251 173.855C165.31 173.838 165.363 173.801 165.4 173.751C173.338 162.726 187.648 157.382 194.521 157.898C194.597 157.903 194.671 157.878 194.729 157.829C194.787 157.779 194.822 157.709 194.828 157.633C194.831 157.595 194.826 157.558 194.814 157.523C194.802 157.487 194.783 157.454 194.759 157.426C194.734 157.398 194.704 157.375 194.671 157.359C194.637 157.342 194.601 157.332 194.563 157.33C187.567 156.8 172.992 162.224 164.936 173.424C164.914 173.454 164.898 173.489 164.89 173.525C164.881 173.562 164.88 173.6 164.886 173.637C164.892 173.674 164.906 173.709 164.926 173.741C164.946 173.772 164.972 173.8 165.002 173.822C165.022 173.835 165.045 173.845 165.068 173.85Z" fill="white"/>
<path d="M163.317 182.432C164.803 180.7 168.751 178.527 173.939 177.618C179.681 176.61 185.83 177.76 188.178 176.004C190.994 173.893 189.844 170.148 185.115 168.648C180.386 167.147 169.702 169.642 164.221 178.262L163.317 182.432Z" fill="#00AFC1"/>
<path d="M163.407 179.952C163.459 179.971 163.515 179.974 163.569 179.961C163.623 179.949 163.672 179.921 163.71 179.881C172.188 171.209 181.778 171.204 185.664 172.411C185.7 172.422 185.737 172.426 185.775 172.422C185.812 172.419 185.848 172.408 185.881 172.39C185.914 172.373 185.943 172.349 185.967 172.32C185.99 172.291 186.008 172.258 186.019 172.222C186.031 172.186 186.035 172.149 186.032 172.112C186.029 172.075 186.019 172.038 186.002 172.005C185.984 171.972 185.961 171.943 185.932 171.919C185.903 171.895 185.87 171.878 185.834 171.867C181.536 170.532 171.956 170.631 163.298 179.483C163.271 179.51 163.25 179.541 163.236 179.575C163.222 179.61 163.214 179.647 163.214 179.684C163.214 179.722 163.222 179.759 163.236 179.793C163.25 179.828 163.271 179.859 163.298 179.886C163.329 179.916 163.366 179.938 163.407 179.952Z" fill="white"/>
<path d="M77.3696 137.932L82.9268 141.136L81.076 142.206H88.4793V137.932L86.6285 139.001L81.076 135.792L77.3696 137.932Z" fill="#00AFC1"/>
<path d="M91.7123 144.53C91.6324 144.531 91.5539 144.509 91.485 144.469L90.1028 143.669C90.0024 143.605 89.9296 143.506 89.8989 143.391C89.8682 143.276 89.8818 143.154 89.9372 143.049C90.0002 142.946 90.0998 142.872 90.2159 142.84C90.3319 142.808 90.4557 142.822 90.562 142.878L91.9442 143.678C92.0211 143.735 92.0792 143.814 92.1106 143.904C92.142 143.994 92.1454 144.092 92.1203 144.184C92.0952 144.276 92.0428 144.358 91.97 144.42C91.8971 144.482 91.8073 144.521 91.7123 144.53Z" fill="#00AFC1"/>
<path d="M149.949 178.153C149.87 178.153 149.791 178.132 149.722 178.091L147.057 176.553C146.981 176.479 146.932 176.381 146.918 176.275C146.904 176.169 146.926 176.062 146.981 175.97C147.036 175.879 147.12 175.808 147.22 175.771C147.319 175.733 147.429 175.73 147.531 175.762L150.191 177.301C150.268 177.357 150.326 177.435 150.357 177.525C150.389 177.615 150.393 177.712 150.368 177.804C150.344 177.896 150.292 177.979 150.22 178.041C150.148 178.103 150.058 178.142 149.964 178.153H149.949ZM143.479 174.413C143.399 174.414 143.321 174.394 143.251 174.356L140.586 172.818C140.518 172.796 140.456 172.76 140.404 172.711C140.352 172.661 140.312 172.601 140.287 172.534C140.262 172.468 140.252 172.396 140.258 172.325C140.265 172.254 140.287 172.185 140.324 172.124C140.36 172.062 140.41 172.01 140.47 171.971C140.53 171.932 140.598 171.907 140.668 171.898C140.739 171.888 140.811 171.895 140.879 171.918C140.947 171.94 141.009 171.978 141.06 172.028L143.725 173.566C143.8 173.623 143.856 173.701 143.887 173.791C143.917 173.88 143.92 173.977 143.895 174.068C143.87 174.159 143.819 174.241 143.747 174.302C143.675 174.364 143.587 174.402 143.493 174.413H143.479ZM137.008 170.678C136.928 170.679 136.849 170.657 136.781 170.617L134.116 169.064C134.015 169.001 133.942 168.902 133.912 168.787C133.881 168.672 133.895 168.55 133.95 168.444C134.014 168.343 134.114 168.269 134.23 168.238C134.346 168.207 134.469 168.222 134.575 168.279L137.24 169.817C137.315 169.874 137.371 169.952 137.402 170.042C137.432 170.131 137.435 170.228 137.41 170.319C137.385 170.41 137.334 170.492 137.262 170.553C137.19 170.615 137.102 170.653 137.008 170.664V170.678ZM130.537 166.944C130.457 166.944 130.379 166.923 130.31 166.882L127.645 165.344C127.544 165.28 127.472 165.181 127.441 165.066C127.41 164.951 127.424 164.829 127.479 164.724C127.542 164.621 127.642 164.546 127.758 164.515C127.874 164.483 127.998 164.497 128.104 164.553L130.764 166.092C130.841 166.148 130.899 166.226 130.931 166.316C130.962 166.406 130.966 166.503 130.942 166.595C130.917 166.687 130.865 166.77 130.793 166.832C130.721 166.894 130.632 166.933 130.537 166.944ZM124.066 163.209C123.986 163.209 123.908 163.188 123.839 163.147L121.174 161.609C121.098 161.535 121.048 161.437 121.035 161.331C121.021 161.225 121.043 161.118 121.098 161.026C121.153 160.935 121.237 160.865 121.336 160.827C121.436 160.789 121.546 160.786 121.647 160.818L124.312 162.357C124.414 162.421 124.488 162.521 124.518 162.637C124.549 162.753 124.535 162.876 124.478 162.982C124.435 163.052 124.375 163.11 124.302 163.15C124.23 163.19 124.149 163.21 124.066 163.209ZM117.595 159.474C117.516 159.473 117.438 159.452 117.368 159.413L114.703 157.874C114.635 157.853 114.573 157.816 114.521 157.767C114.469 157.718 114.429 157.657 114.404 157.591C114.379 157.524 114.369 157.452 114.375 157.381C114.381 157.31 114.404 157.241 114.441 157.18C114.477 157.119 114.527 157.066 114.587 157.027C114.647 156.988 114.714 156.963 114.785 156.954C114.856 156.944 114.928 156.951 114.996 156.974C115.064 156.996 115.125 157.034 115.177 157.084L117.842 158.622C117.942 158.686 118.015 158.785 118.046 158.9C118.076 159.015 118.063 159.137 118.007 159.242C117.965 159.314 117.905 159.373 117.832 159.413C117.76 159.454 117.678 159.475 117.595 159.474ZM111.125 155.735C111.045 155.735 110.967 155.715 110.897 155.678L108.232 154.139C108.156 154.065 108.107 153.967 108.093 153.861C108.079 153.756 108.102 153.648 108.156 153.557C108.211 153.465 108.295 153.395 108.395 153.357C108.495 153.32 108.604 153.317 108.706 153.349L111.371 154.887C111.446 154.944 111.503 155.023 111.533 155.112C111.563 155.202 111.566 155.298 111.541 155.389C111.516 155.48 111.465 155.562 111.393 155.624C111.321 155.685 111.233 155.724 111.139 155.735H111.125ZM104.654 152.023C104.574 152.024 104.495 152.002 104.427 151.962L101.762 150.424C101.661 150.36 101.588 150.261 101.558 150.146C101.527 150.031 101.541 149.909 101.596 149.803C101.659 149.701 101.759 149.626 101.875 149.595C101.991 149.563 102.114 149.577 102.221 149.633L104.886 151.171C104.963 151.228 105.021 151.307 105.052 151.397C105.084 151.487 105.087 151.585 105.062 151.677C105.037 151.769 104.984 151.852 104.912 151.913C104.839 151.975 104.749 152.014 104.654 152.023ZM98.1831 148.289C98.1032 148.289 98.0247 148.268 97.9558 148.227L95.2908 146.689C95.2144 146.614 95.1653 146.516 95.1515 146.411C95.1376 146.305 95.1599 146.198 95.2147 146.106C95.2695 146.015 95.3536 145.944 95.4533 145.907C95.553 145.869 95.6626 145.866 95.7642 145.898L98.4292 147.437C98.5309 147.5 98.6045 147.6 98.6353 147.716C98.6661 147.832 98.6516 147.956 98.5949 148.061C98.5492 148.128 98.4874 148.181 98.4153 148.217C98.3433 148.252 98.2633 148.269 98.1831 148.265V148.289Z" fill="#00AFC1"/>
<path d="M155.138 181.145C155.058 181.145 154.98 181.126 154.91 181.088L153.528 180.288C153.428 180.224 153.355 180.125 153.324 180.01C153.293 179.895 153.307 179.773 153.362 179.668C153.425 179.565 153.525 179.491 153.641 179.459C153.757 179.427 153.881 179.441 153.987 179.497L155.365 180.297C155.44 180.354 155.496 180.432 155.527 180.521C155.558 180.61 155.561 180.707 155.536 180.798C155.512 180.889 155.461 180.97 155.39 181.032C155.319 181.094 155.231 181.133 155.138 181.145Z" fill="#00AFC1"/>
<path d="M185.323 61.7636L184.897 61.5174L171.672 53.9437C168.612 51.9192 165.012 50.865 161.343 50.919C156.718 50.919 152.051 52.5946 146.555 55.6525C127.351 66.2936 110.945 96.9766 110.945 117.123V122.675C110.945 147.091 143.057 176.894 143.057 176.894L156.373 184.586C156.379 184.595 156.388 184.602 156.398 184.606C156.408 184.61 156.419 184.611 156.43 184.609C155.985 184.084 170.578 162.792 184.358 121.26C199.572 75.2685 185.607 62.0287 185.323 61.7636ZM162.848 134.765C151.961 141.046 142.859 137.756 140.279 127.622C135.294 126.935 131.692 123.101 130.58 116.806C129.183 96.4512 139.985 80.2671 155.455 73.6969C162.082 71.2875 167.61 73.0058 170.574 77.9855C179.662 76.4235 186.166 82.6528 186.166 94.3826C186.166 109.246 175.714 127.338 162.848 134.765Z" fill="#455A64"/>
<path d="M186.166 94.3834C186.166 109.247 175.729 127.339 162.848 134.765C151.961 141.047 142.859 137.757 140.279 127.623C143.55 128.096 147.412 127.22 151.564 124.82C163.36 118.018 172.912 101.46 172.912 87.8558C172.912 83.8133 172.069 80.4856 170.574 77.9863C179.662 76.4242 186.166 82.6536 186.166 94.3834Z" fill="#263238"/>
<path d="M144.681 126.202L152.08 130.476V116.143L144.681 111.869V126.202Z" fill="#00AFC1"/>
<path opacity="0.2" d="M144.681 126.202L152.08 130.476V116.143L144.681 111.869V126.202Z" fill="black"/>
<path d="M179.989 100.03L162.839 91.9927L145.689 119.836L152.08 116.143V130.477L160.183 125.8V116.423L165.49 113.36V122.733L173.603 118.046V103.713L179.989 100.03Z" fill="#00AFC1"/>
<path d="M155.436 87.7178L162.839 91.9922L145.689 119.835L138.286 115.561L155.436 87.7178Z" fill="#00AFC1"/>
<path opacity="0.1" d="M155.436 87.7178L162.839 91.9922L145.689 119.835L138.286 115.561L155.436 87.7178Z" fill="black"/>
<path d="M155.436 87.7178L162.839 91.9922L179.989 100.03L172.586 95.7554L155.436 87.7178Z" fill="#00AFC1"/>
<path opacity="0.4" d="M155.436 87.7178L162.839 91.9922L179.989 100.03L172.586 95.7554L155.436 87.7178Z" fill="white"/>
<path d="M160.184 125.8L165.49 122.732V113.36L160.184 116.422V125.8Z" fill="#00AFC1"/>
<path opacity="0.2" d="M160.184 125.8L165.49 122.732V113.36L160.184 116.422V125.8Z" fill="black"/>
<path d="M185.323 61.764L184.897 61.5179C178.479 57.9109 169.901 58.3937 160.477 63.8279C146.276 72.0406 133.969 89.2898 128.151 107.377C125.841 114.548 124.866 118.344 124.866 125.279V130.851C124.866 149.666 145.845 174.977 155.658 184.013C155.878 184.217 156.117 184.398 156.373 184.553C156.379 184.562 156.388 184.569 156.398 184.573C156.408 184.577 156.419 184.579 156.43 184.577C157.002 184.93 157.643 185.16 158.31 185.251C158.977 185.342 159.656 185.293 160.303 185.105C160.949 184.918 161.55 184.597 162.065 184.164C162.58 183.73 162.998 183.194 163.293 182.589C171.748 165.278 196.4 113.09 196.4 92.8541V87.3017C196.4 74.7577 192.159 65.8728 185.323 61.764ZM140.279 127.622C140.146 127.106 140.023 126.567 139.928 126.013C139.651 124.46 139.518 122.885 139.531 121.308C139.531 106.444 149.945 88.3572 162.848 80.9303C164.209 80.1422 165.634 79.4708 167.109 78.9232C168.235 78.5046 169.396 78.1877 170.578 77.9765C179.667 76.4144 186.171 82.6438 186.171 94.3736C186.171 109.237 175.733 127.329 162.853 134.756C151.975 141.047 142.859 137.757 140.279 127.622Z" fill="#37474F"/>
<path d="M67.5996 42.0056H57.6591C55.5023 42.0056 53.4338 41.1488 51.9087 39.6237C50.3836 38.0986 49.5269 36.0302 49.5269 33.8733V31.5776C49.5269 29.1822 50.4784 26.885 52.1722 25.1912C53.8659 23.4974 56.1632 22.5459 58.5585 22.5459C60.9539 22.5459 63.2511 23.4974 64.9449 25.1912C66.6386 26.885 67.5902 29.1822 67.5902 31.5776L67.5996 42.0056Z" fill="#263238"/>
<path d="M50.9704 27.0807L48.8545 25.9588C48.9213 25.8177 49.0161 25.6916 49.1331 25.5882C49.25 25.4847 49.3868 25.4061 49.535 25.357C49.6832 25.3078 49.8399 25.2893 49.9954 25.3024C50.151 25.3156 50.3024 25.3601 50.4402 25.4334C50.7232 25.5874 50.9361 25.8443 51.0348 26.151C51.1336 26.4577 51.1105 26.7906 50.9704 27.0807Z" fill="#263238"/>
<path d="M51.1456 27.3177L48.9209 28.1508C48.8588 28.0077 48.8265 27.8534 48.8257 27.6974C48.8249 27.5414 48.8558 27.3868 48.9164 27.2431C48.977 27.0993 49.0661 26.9693 49.1783 26.8609C49.2905 26.7525 49.4236 26.668 49.5694 26.6124C49.8725 26.5069 50.2045 26.5212 50.4975 26.6523C50.7904 26.7834 51.0223 27.0214 51.1456 27.3177Z" fill="#263238"/>
<path d="M70.8944 53.5322L73.6304 58.5451L69.8294 61.8065L66.0283 55.9132L70.8944 53.5322Z" fill="#9A4A4D"/>
<path d="M63.2446 42.7778C64.6647 42.9009 66.1605 43.5115 67.1877 45.618L71.4479 54.3656C71.4479 54.3656 70.7284 57.2436 66.9794 57.6271L65.4931 55.3455L63.2446 42.7778Z" fill="#00AFC1"/>
<path opacity="0.1" d="M63.2446 42.7778C64.6647 42.9009 66.1605 43.5115 67.1877 45.618L71.4479 54.3656C71.4479 54.3656 70.7284 57.2436 66.9794 57.6271L65.4931 55.3455L63.2446 42.7778Z" fill="black"/>
<path d="M37.9676 111.599C37.2528 111.23 36.8031 112.134 36.1546 112.863C35.6813 113.369 34.9949 114.179 34.8908 114.756C34.7346 115.618 35.5109 116.967 36.3676 117.715C37.2244 118.463 38.2185 118.993 38.5309 120.626C38.8433 122.259 39.4776 123.229 41.1722 123.963C43.0278 124.763 45.5129 124.507 46.3555 123.963C47.3543 123.315 46.4407 122.609 45.0443 120.607C43.2171 117.994 41.7923 116.124 41.7923 113.687L37.9676 111.599Z" fill="#263238"/>
<path d="M39.43 109.455L37.9295 111.656C37.6123 112.112 37.4881 112.676 37.5838 113.223C37.6795 113.771 37.9874 114.259 38.4407 114.581L38.488 114.614C38.9434 114.888 39.4802 114.993 40.0051 114.911C40.5301 114.83 41.0099 114.568 41.3613 114.169L43.6997 111.613L39.43 109.455Z" fill="#B16668"/>
<path d="M66.3971 67.7278C66.4918 70.5301 66.984 80.7452 64.9391 86.1083C63.8048 89.1534 62.3781 92.0814 60.6789 94.8512C60.0683 95.8973 42.5209 112.981 42.5209 112.981C42.5209 112.981 39.5388 112.763 39.0654 109.876C39.0654 109.876 46.2557 97.6487 47.8131 95.1447C49.3704 92.6406 54.885 88.7922 54.885 88.7922L54.3833 65.29L66.3971 67.7278Z" fill="#37474F"/>
<path d="M63.1112 126.253L66.8223 125.409L65.5933 120.004L61.8822 120.848L63.1112 126.253Z" fill="#B16668"/>
<path d="M60.2154 76.2867C61.4862 75.1131 62.6243 73.8035 63.6094 72.3815C66.4495 68.4621 66.0093 64.9829 66.0093 64.9829H64.8448L49.5033 65.2953C47.9791 67.7899 47.6477 71.572 48.1637 75.2358C49.2288 82.8806 55.5623 96.1109 55.5623 96.1109C55.4723 97.157 55.0321 101.55 56.0356 105.446C57.6119 111.599 61.9005 122.013 61.9005 122.013C61.9005 122.013 64.5845 122.396 65.9193 120.844C65.9193 120.844 63.5526 99.7273 62.9041 94.3358C62.1988 88.4567 60.2154 76.2867 60.2154 76.2867Z" fill="#37474F"/>
<path d="M66.4069 123.575L66.2838 123.044C66.6767 123.12 68.3429 125.885 69.9949 127.087C71.8031 128.403 73.3747 129.179 74.1841 129.776C75.2634 130.566 73.7108 132.194 71.0363 132.336C69.7156 132.407 67.311 132.005 66.5678 131.305C65.8246 130.604 65.2897 129.411 64.7028 128.938C64.1158 128.464 62.923 127.991 62.5206 127.343C62.3029 126.987 62.265 126.102 62.2934 125.345C62.3218 124.588 62.336 123.887 62.5774 123.896C62.5774 123.977 62.6673 124.304 62.6673 124.304C63.3661 124.657 64.1428 124.828 64.9253 124.801C65.5501 124.763 66.7146 124.616 66.4069 123.575Z" fill="#263238"/>
<path d="M62.4212 90.7285C62.4212 90.7285 60.6319 78.0188 60.2153 76.2864C60.2153 76.2864 63.3679 75.084 64.3383 73.9858C64.3383 73.9858 63.6472 75.5243 61.3893 76.8923L62.4212 90.7285Z" fill="#263238"/>
<path d="M52.9443 90.2363C52.9443 90.2363 54.7904 95.0788 55.5573 96.1249C55.5573 96.1249 55.3632 99.7271 55.3916 100.456L54.3928 101.322C54.3928 101.322 54.3455 98.2976 54.8662 96.4657C53.9545 94.4828 53.3083 92.3882 52.9443 90.2363Z" fill="#263238"/>
<path d="M65.536 56.3529C65.7774 58.5777 66.3975 67.7135 66.3975 67.7135C59.0557 71.6329 49.9483 69.0342 48.5566 67.42C49.2831 64.7568 50.7062 62.3353 52.6796 60.4048L50.3128 53.7778C50.3128 53.7778 50.0288 53.0962 50.0335 53.0915C50.1803 52.8453 53.7304 49.6454 51.9838 44.571C51.922 44.3868 51.9031 44.191 51.9284 43.9983C51.9537 43.8057 52.0226 43.6214 52.1298 43.4593C52.2371 43.2973 52.3798 43.1619 52.5473 43.0634C52.7147 42.9648 52.9024 42.9057 53.0961 42.8906L55.2026 42.7202L60.9207 42.5498C62.284 42.6303 63.2591 42.7581 63.2591 42.7581C64.1348 43.5817 65.517 45.8302 66.4117 48.1212C66.975 49.617 67.5998 51.9791 65.536 56.3529Z" fill="#00AFC1"/>
<path opacity="0.1" d="M51.8319 56.1785L52.6697 52.936L53.7064 60.4246L51.6094 61.589L52.6792 60.4198L51.5952 57.3951L51.8319 56.1785Z" fill="black"/>
<path d="M64.3715 26.4795C65.3182 27.0428 66.5064 29.4427 66.388 34.4698C66.2886 38.73 64.9064 39.7903 64.2153 40.0933C63.5242 40.3962 62.1846 40.2116 60.9018 39.9938V42.5547C60.9018 42.5547 62.8379 46.138 62.4024 47.5676C61.4556 47.7285 60.2675 47.0942 58.5871 45.9534C57.3371 45.0198 56.2026 43.9409 55.2073 42.7393L55.2357 36.8555C55.2357 36.8555 54.4689 37.5987 53.1719 36.4626C52.1021 35.5159 51.7518 33.9491 52.5755 33.097C52.7918 32.8956 53.0529 32.7485 53.3373 32.6679C53.6216 32.5872 53.9211 32.5753 54.2109 32.633C54.5008 32.6908 54.7728 32.8167 55.0044 33.0002C55.2361 33.1838 55.4209 33.4198 55.5434 33.6887C55.5434 33.6887 57.6215 33.7692 60.3811 32.2687C61.4547 31.6855 62.3755 30.8573 63.0688 29.8514C63.7622 28.8455 64.2085 27.6903 64.3715 26.4795Z" fill="#B16668"/>
<path d="M61.6353 33.4005C61.6371 33.5066 61.6075 33.6108 61.5504 33.7002C61.4932 33.7896 61.411 33.8601 61.3139 33.903C61.2169 33.9459 61.1093 33.9592 61.0048 33.9413C60.9002 33.9234 60.8032 33.8751 60.7259 33.8024C60.6487 33.7297 60.5946 33.6358 60.5704 33.5325C60.5462 33.4292 60.553 33.321 60.5899 33.2216C60.6268 33.1221 60.6923 33.0357 60.778 32.9733C60.8638 32.9108 60.966 32.875 61.072 32.8703C61.2169 32.8665 61.3574 32.9201 61.4629 33.0194C61.5684 33.1187 61.6304 33.2557 61.6353 33.4005Z" fill="#263238"/>
<g style="mix-blend-mode:multiply" opacity="0.5">
<path d="M61.7726 36.9976L63.0175 37.3952C62.9947 37.4782 62.9554 37.5559 62.9021 37.6235C62.8487 37.6911 62.7823 37.7473 62.7069 37.7888C62.6314 37.8303 62.5484 37.8562 62.4627 37.865C62.377 37.8738 62.2904 37.8654 62.2081 37.8401C62.0403 37.7837 61.901 37.6643 61.8198 37.507C61.7385 37.3498 61.7216 37.1671 61.7726 36.9976Z" fill="#9A4A4D"/>
</g>
<path d="M66.0233 31.7528L64.9487 31.0049C64.9938 30.9316 65.0534 30.8683 65.1239 30.819C65.1943 30.7696 65.2742 30.7352 65.3585 30.7179C65.4427 30.7006 65.5297 30.7008 65.6139 30.7184C65.6981 30.736 65.7778 30.7707 65.8481 30.8203C65.9927 30.9225 66.0919 31.077 66.1246 31.2511C66.1573 31.4251 66.1209 31.6051 66.0233 31.7528Z" fill="#263238"/>
<path d="M65.7723 33.012C65.7781 33.0837 65.7695 33.1558 65.747 33.224C65.7246 33.2923 65.6887 33.3555 65.6415 33.4097C65.5944 33.4639 65.5368 33.5082 65.4723 33.5399C65.4078 33.5716 65.3376 33.5901 65.2658 33.5942C65.1547 33.6045 65.0431 33.5813 64.9453 33.5276C64.8475 33.4738 64.7681 33.3921 64.7172 33.2928C64.6664 33.1935 64.6464 33.0813 64.6599 32.9705C64.6733 32.8598 64.7197 32.7556 64.7929 32.6715C64.8661 32.5873 64.9629 32.527 65.0707 32.4983C65.1785 32.4696 65.2924 32.4738 65.3978 32.5105C65.5031 32.5471 65.5951 32.6145 65.6619 32.7039C65.7286 32.7932 65.7671 32.9006 65.7723 33.012Z" fill="#263238"/>
<g style="mix-blend-mode:multiply" opacity="0.5">
<path d="M63.2446 32.7095L63.3298 35.933L65.0292 35.4076L63.2446 32.7095Z" fill="#9A4A4D"/>
</g>
<g style="mix-blend-mode:multiply" opacity="0.5">
<path d="M60.8827 39.9941C59.51 39.8143 56.6888 39.0048 56.2485 37.8877C56.4259 38.4508 56.7711 38.9463 57.2379 39.3078C58.0804 40.0273 60.8827 40.8414 60.8827 40.8414V39.9941Z" fill="#9A4A4D"/>
</g>
<path d="M44.0171 64.4145C44.0502 63.9411 44.9165 59.0324 45.5082 56.2822L51.2926 58.0526L50.3459 61.9104L45.5413 66.5635C45.0579 66.4734 44.6286 66.1987 44.3441 65.7976C44.0597 65.3965 43.9424 64.9005 44.0171 64.4145Z" fill="#B16668"/>
<path d="M53.0819 42.9102C50.8619 43.1042 47.9365 43.4356 46.5449 49.7549C45.2384 55.6766 44.9165 57.7452 44.9165 57.7452C44.9165 57.7452 46.6253 59.9084 51.0465 59.6717L52.6701 52.9359C55.6286 49.0401 54.6771 46.2521 53.0819 42.9102Z" fill="#00AFC1"/>
<path d="M71.784 59.8322C72.5793 58.3553 72.7781 58.2891 73.2467 57.9388C73.7153 57.5885 76.6218 57.1814 77.8241 57.082C79.2442 56.9637 79.7412 57.224 79.3483 58.4405C78.5057 61.044 75.9496 66.5728 75.3768 67.3397C75.0029 67.813 74.9271 68.2864 73.3367 68.4568C71.8503 68.6035 69.9853 68.684 69.4362 68.7171C68.8871 68.7503 68.1297 68.8875 68.622 67.2734C69.2484 65.4476 69.9737 63.6572 70.7947 61.9103C71.4054 60.6038 71.784 59.8322 71.784 59.8322Z" fill="#263238"/>
<path d="M50.3644 61.9105C50.3644 61.9105 63.2208 63.2691 64.8823 62.7531C66.5438 62.2371 68.7875 60.5709 69.9898 59.8846C71.1922 59.1982 72.0537 59.1367 72.0537 59.4112C72.0537 59.6857 71.0265 61.2715 70.7945 61.92C70.5626 62.5685 71.9022 62.5685 73.6631 62.1661C75.424 61.7638 76.1293 60.7461 76.5884 61.333C77.0476 61.92 75.6133 64.8595 72.688 65.953C69.7626 67.0464 67.5899 66.3222 65.1758 66.4264C62.7617 66.5305 48.9112 67.6097 45.5551 66.5542C45.4703 66.02 45.5336 65.4728 45.7381 64.972C45.9426 64.4713 46.2804 64.0362 46.7149 63.714C47.8 62.8772 49.0405 62.2642 50.3644 61.9105Z" fill="#B16668"/>
<path d="M132.54 16.0896L136.066 14.0542C136.047 13.9114 136.037 13.7675 136.038 13.6234V12.601C136.091 11.6136 136.376 10.6526 136.869 9.79578C137.363 8.93891 138.051 8.21019 138.878 7.66858C139.125 7.5024 139.402 7.3878 139.694 7.33167C139.986 7.27555 140.287 7.27904 140.577 7.34196C140.838 4.75743 142.627 1.83681 144.804 0.582418C147.171 -0.776118 149.065 0.322071 149.065 3.04388V4.56809C149.056 5.31103 148.934 6.04835 148.705 6.755L151.635 5.06511C152.506 4.56335 153.211 4.97044 153.211 5.97869C153.182 6.52648 153.024 7.05962 152.75 7.53495C152.476 8.01028 152.094 8.41444 151.635 8.7147L132.54 19.7392C131.669 20.241 130.963 19.8339 130.963 18.8256C130.993 18.2778 131.151 17.7447 131.425 17.2694C131.699 16.794 132.081 16.3899 132.54 16.0896Z" fill="#F0F0F0"/>
<path d="M115.655 39.7623L118.315 38.2239C118.3 38.1157 118.292 38.0066 118.291 37.8973V37.1305C118.332 36.3845 118.548 35.6585 118.921 35.0114C119.295 34.3642 119.815 33.814 120.44 33.4052C120.626 33.2793 120.836 33.1926 121.057 33.1503C121.277 33.108 121.504 33.111 121.723 33.159C121.855 32.1285 122.208 31.1387 122.759 30.2578C123.31 29.3769 124.045 28.6258 124.914 28.0562C126.689 27.029 128.132 27.8621 128.132 29.9118V31.0668C128.125 31.6266 128.032 32.182 127.858 32.714L130.069 31.4407C130.726 31.062 131.261 31.3697 131.261 32.1271C131.239 32.5412 131.119 32.9443 130.912 33.3036C130.704 33.6629 130.416 33.9685 130.069 34.1957L115.655 42.5125C114.997 42.896 114.462 42.5883 114.462 41.8262C114.484 41.4126 114.604 41.0101 114.811 40.6515C115.019 40.2928 115.308 39.9882 115.655 39.7623Z" fill="#F0F0F0"/>
</svg>
