<svg width="25179" height="27434" viewBox="0 0 25179 27434" fill="none" xmlns="http://www.w3.org/2000/svg">
<path d="M7752.52 25844.5C9239.24 24560 9388.36 22444.8 9132.36 20583.7C9089.48 20273.3 9090.12 19943.7 8913.48 19683.2C8736.84 19422.7 8371.4 19273.6 8105.8 19433.6C7885.64 19566.7 7812.68 19846.4 7706.44 20082.6C7563.91 20397.2 7335.41 20665.2 7047.24 20855.7C6859.08 20979.2 6620.36 21067.5 6413 20979.8C6128.84 20859.5 6059.08 20490.9 6029 20181.1C5972.68 19602.6 5916.57 19024.2 5860.68 18446.1C5830.6 18136.3 5796.68 17819.5 5672.52 17535.4C5548.36 17251.2 5304.52 16999.7 5001.16 16947.2C4697.8 16894.7 4350.28 17102.7 4319.56 17412.5C4306.12 17540.5 4345.8 17668.5 4350.28 17799.7C4354.76 17930.9 4309.96 18078.1 4190.92 18126.1C4071.88 18174.1 3934.92 18100.5 3835.72 18019.2C3483.72 17738.9 3225.16 17358.1 2980.68 16977.9C2736.2 16597.8 2496.84 16209.9 2171.72 15896.3C1846.6 15582.7 1416.52 15355.5 969.796 15376.6C523.076 15397.8 78.2756 15719.7 9.79557 16167.7C-58.6844 16615.7 243.396 17033 556.996 17358.7C1022.99 17840.8 1556.05 18253.1 2139.72 18583C2244.68 18642.6 2358.6 18706.6 2407.24 18817.3C2496.2 19017 2321.48 19242.9 2124.36 19329.3C1901 19429.8 1648.2 19431.7 1409.48 19485.4C1170.76 19539.2 919.875 19672.3 852.035 19910.4C757.315 20240 1056.84 20544.6 1339.72 20735.4C1907.16 21117.3 2536.06 21398.7 3198.92 21567.4C3435.72 21627.5 3683.4 21675.5 3883.72 21817C4084.04 21958.4 4223.56 22225.3 4135.24 22457C4046.92 22688.6 3768.52 22786.6 3525.32 22766.7C3282.12 22746.9 3054.28 22638.7 2821.32 22574.7C2378.44 22457.6 1831.24 22544 1596.36 22940.2C1442.12 23200.6 1461.32 23539.2 1581.64 23818.9C1701.96 24098.6 1911.88 24327 2130.76 24536.3C2898.76 25267.2 3836.99 25822.1 4860.35 26062.7C5883.71 26303.4 6809.16 26301.4 7754.44 25841.3" fill="#F5F5F5"/>
<path d="M7922.76 27226.2C7747.26 26369.3 7490.08 25531.1 7154.76 24723.2C6782.92 23809.3 6292.04 22841 5746.76 21846.4L5338.44 21111C5203.4 20869.8 5070.28 20631 4925 20407C4645.81 19974.2 4342.62 19557.3 4016.84 19158.4C3709 18774.4 3403.08 18422.4 3113.8 18094.7C2824.52 17767 2548.68 17468.2 2285.64 17205.8C1870.64 16788.4 1422.91 16404.9 946.756 16058.9C779.716 15936 646.596 15845.8 555.716 15785.6L452.036 15717.1C440.579 15708.9 428.363 15701.9 415.556 15696C426.11 15705.4 437.224 15714.2 448.836 15722.2L549.316 15795.2C638.276 15859.2 768.836 15952 933.316 16076.8C1400.26 16428.6 1840.11 16814.9 2249.16 17232.6C2509.64 17496.3 2782.92 17797.1 3070.28 18124.8C3357.64 18452.5 3661.64 18807 3966.28 19189.8C4289.33 19588.4 4590.36 20004.4 4868.04 20435.8C5012.04 20660.5 5144.52 20897.9 5278.92 21139.8L5687.24 21875.2C6235.08 22869.1 6725.96 23834.2 7099.72 24744.3C7437.09 25548.1 7698.08 26381.9 7879.24 27234.6" fill="#E0E0E0"/>
<path d="M4900.04 20405.1C4910.41 20360.6 4915.99 20315.1 4916.68 20269.4C4924.36 20182.4 4930.76 20055.7 4936.52 19898.9C4948.68 19585.3 4950.6 19152.6 4950.6 18675.2C4950.6 18197.8 4958.92 17765.8 4975.56 17453.4C4983.24 17297.3 4990.91 17171.2 4997.31 17083.5C5003.22 17038.3 5004.51 16992.7 5001.16 16947.2C4987.39 16990.8 4978.8 17036 4975.56 17081.6C4962.12 17168 4948.04 17294.1 4935.24 17450.2C4907.72 17763.2 4893.64 18196.5 4893.64 18674.6C4893.64 19152.6 4893.64 19570.6 4893.64 19897.6C4893.64 20044.8 4893.64 20169 4893.64 20268.8C4890.94 20314.3 4893.09 20360 4900.04 20405.1Z" fill="#E0E0E0"/>
<path d="M837.316 20071C890.969 20075.8 944.942 20075.8 998.595 20071C1101.64 20071 1250.76 20066.6 1435.72 20071C1804.36 20071 2314.44 20093.4 2875.72 20140.2C3437 20186.9 3943.88 20253.4 4308.68 20311C4491.72 20338.6 4638.92 20364.8 4740.68 20382.1C4793.01 20394.3 4846.35 20401.8 4900.04 20404.5C4850.06 20384.3 4798.17 20369.3 4745.16 20359.7C4644.04 20335.4 4497.48 20303.4 4315.08 20270.1C3950.92 20202.2 3444.04 20130.6 2880.2 20081.9C2399.66 20040.5 1917.33 20023.6 1435.08 20031.4C1250.12 20034.6 1100.36 20043.5 997.316 20051.8C943.503 20053.3 889.939 20059.7 837.316 20071Z" fill="#E0E0E0"/>
<path d="M7090.76 24654.7C7100.68 24638.8 7108.23 24621.6 7113.16 24603.5C7127.24 24562.6 7145.16 24512.6 7166.28 24452.5C7211.72 24320.6 7273.16 24128.6 7345.48 23890.6C7490.76 23413.8 7670.6 22749.4 7857.48 22013.4C8044.36 21277.4 8219.72 20612.5 8354.76 20133.8C8418.76 19900.8 8475.72 19709.4 8516.04 19566.7C8533.32 19502.7 8547.4 19454.1 8558.92 19412.5C8565.36 19394.8 8569.24 19376.2 8570.44 19357.4C8560.51 19373.3 8552.97 19390.6 8548.04 19408.6C8533.96 19449.6 8516.04 19499.5 8494.92 19559.7C8449.48 19691.5 8388.04 19883.5 8315.72 20121.6C8170.44 20598.4 7990.6 21262.7 7803.72 21998.7C7616.84 22734.7 7441.48 23399.7 7306.44 23879C7242.44 24111.4 7185.48 24303.4 7145.16 24445.4C7127.88 24509.4 7113.8 24558.1 7102.28 24599.7C7095.83 24617.4 7091.95 24635.9 7090.76 24654.7Z" fill="#E0E0E0"/>
<path d="M1620.68 23494.4C1637.95 23502.3 1656.27 23507.7 1675.08 23510.4L1834.44 23546.2L2420.68 23674.2C2915.4 23779.8 3597.64 23934.1 4350.92 24105.6C5104.2 24277.1 5788.36 24425.6 6285.64 24520.3C6533.96 24568.3 6733.64 24605.4 6875.08 24627.8L7036.36 24652.8C7054.97 24657.4 7074.21 24658.9 7093.32 24657.3C7075.66 24649.8 7057.18 24644.4 7038.28 24641.3L6879.56 24605.4L6293.32 24480.6C5798.6 24374.4 5116.36 24220.2 4363.08 24048.6C3609.8 23877.1 2925.64 23728.6 2428.36 23633.9C2180.04 23585.9 1980.36 23549.4 1838.28 23526.4L1677.64 23501.4C1659.08 23496.4 1639.9 23494 1620.68 23494.4Z" fill="#E0E0E0"/>
<path d="M6231.24 11699.8C6207 11699.9 6183.25 11693.1 6162.74 11680.1C6142.24 11667.2 6125.82 11648.8 6115.4 11626.9L5837.64 11050.9C5828.9 11033 5824.46 11013.3 5824.68 10993.3C5824.9 10973.4 5829.78 10953.8 5838.92 10936.1C5848.05 10918.4 5861.2 10903 5877.31 10891.3C5893.42 10879.6 5912.05 10871.7 5931.72 10868.5C5985.69 10858.1 6036.92 10836.6 6082.2 10805.5C6127.47 10774.3 6165.79 10734.1 6194.76 10687.4C6222.62 10646.9 6241.89 10601.1 6251.36 10552.9C6260.82 10504.7 6260.29 10455 6249.8 10407C6236.23 10359.5 6213.27 10315.2 6182.26 10276.7C6151.26 10238.3 6112.86 10206.4 6069.32 10183C6022.4 10155.4 5970.46 10137.4 5916.51 10130C5862.56 10122.6 5807.68 10126.1 5755.08 10140.2C5652.7 10177.5 5566.02 10248.5 5509.18 10341.5C5452.34 10434.5 5428.7 10544 5442.12 10652.2C5444.47 10669 5443.49 10686.1 5439.23 10702.5C5434.97 10718.9 5427.52 10734.4 5417.3 10747.9C5407.08 10761.5 5394.28 10772.9 5379.66 10781.5C5365.03 10790.1 5348.85 10795.7 5332.04 10798.1C5315.23 10800.4 5298.12 10799.5 5281.69 10795.2C5265.26 10790.9 5249.83 10783.5 5236.28 10773.3C5222.73 10763 5211.32 10750.2 5202.72 10735.6C5194.11 10721 5188.47 10704.8 5186.12 10688C5164.76 10518.6 5202.5 10347 5292.98 10202.2C5383.46 10057.4 5521.13 9948.21 5682.76 9893.12C5768.64 9868.67 5858.56 9861.74 5947.18 9872.74C6035.79 9883.73 6121.29 9912.43 6198.6 9957.12C6272.12 9997.6 6336.76 10052.5 6388.65 10118.4C6440.55 10184.4 6478.64 10260.1 6500.68 10341.1C6519.61 10423.4 6521.48 10508.6 6506.18 10591.6C6490.88 10674.6 6458.73 10753.6 6411.72 10823.7C6343.4 10931.2 6245.97 11017.1 6130.76 11071.4L6344.52 11519.4C6351.9 11534.6 6356.2 11551.1 6357.17 11567.9C6358.14 11584.8 6355.76 11601.7 6350.17 11617.7C6344.57 11633.6 6335.88 11648.3 6324.58 11660.8C6313.29 11673.4 6299.62 11683.6 6284.36 11690.9C6267.52 11697.7 6249.39 11700.8 6231.24 11699.8Z" fill="#E0E0E0"/>
<path d="M6507.72 11866.2C6518.16 11890.8 6518.91 11918.4 6509.81 11943.5C6500.71 11968.7 6482.43 11989.4 6458.65 12001.6C6434.88 12013.7 6407.38 12016.4 6381.69 12009.1C6356 12001.8 6334.03 11985.1 6320.2 11962.2C6312.69 11949.8 6307.81 11936 6305.88 11921.6C6303.94 11907.3 6304.99 11892.7 6308.95 11878.7C6312.91 11864.8 6319.7 11851.8 6328.9 11840.6C6338.1 11829.4 6349.5 11820.2 6362.41 11813.6C6375.32 11806.9 6389.45 11803.1 6403.92 11802.2C6418.39 11801.3 6432.9 11803.3 6446.53 11808.3C6460.16 11813.2 6472.63 11820.9 6483.16 11830.9C6493.68 11840.9 6502.04 11852.9 6507.72 11866.2Z" fill="#E0E0E0"/>
<path d="M2713.8 9764.48C2696.78 9764.54 2680.11 9759.76 2665.71 9750.69C2651.32 9741.63 2639.81 9728.65 2632.52 9713.28L2440.52 9310.08C2434.37 9297.64 2431.17 9283.95 2431.17 9270.08C2431.17 9256.21 2434.37 9242.52 2440.52 9230.08C2446.73 9217.73 2455.76 9207.01 2466.88 9198.78C2477.99 9190.55 2490.88 9185.05 2504.52 9182.72C2542.18 9175.1 2577.88 9159.81 2609.37 9137.78C2640.86 9115.76 2667.48 9087.49 2687.56 9054.72C2706.74 9026.31 2720.03 8994.34 2726.63 8960.7C2733.22 8927.05 2732.99 8892.43 2725.96 8858.88C2716.32 8825.53 2700.01 8794.49 2678 8767.65C2656 8740.8 2628.76 8718.71 2597.96 8702.72C2565.2 8683.36 2528.92 8670.73 2491.23 8665.57C2453.53 8660.4 2415.19 8662.81 2378.44 8672.64C2307.04 8699.47 2246.85 8749.7 2207.68 8815.14C2168.51 8880.58 2152.67 8957.36 2162.76 9032.96C2166.07 9056.55 2159.87 9080.5 2145.52 9099.52C2131.18 9118.54 2109.87 9131.09 2086.28 9134.4C2062.68 9137.71 2038.74 9131.51 2019.72 9117.17C2000.69 9102.83 1988.15 9081.51 1984.84 9057.92C1969.94 8939.72 1996.16 8820 2059.09 8718.85C2122.02 8617.7 2217.83 8541.27 2330.44 8502.4C2390.46 8485.67 2453.23 8481.19 2515.02 8489.21C2576.81 8497.24 2636.36 8517.61 2690.12 8549.12C2741.78 8577.41 2787.18 8615.87 2823.59 8662.18C2860 8708.48 2886.65 8761.68 2901.96 8818.56C2914.85 8876.07 2915.83 8935.61 2904.82 8993.51C2893.81 9051.41 2871.06 9106.44 2837.96 9155.2C2790.83 9228.36 2724.38 9287.06 2645.96 9324.8L2795.08 9635.84C2800.29 9646.41 2803.35 9657.92 2804.07 9669.69C2804.8 9681.45 2803.18 9693.25 2799.31 9704.38C2795.44 9715.52 2789.4 9725.77 2781.53 9734.55C2773.66 9743.33 2764.12 9750.46 2753.48 9755.52C2741.04 9761.31 2727.51 9764.36 2713.8 9764.48Z" fill="#F5F5F5"/>
<path d="M2907.08 9880.32C2912.04 9896.7 2911.13 9914.3 2904.52 9930.08C2897.91 9945.87 2886 9958.86 2870.85 9966.82C2855.69 9974.77 2838.24 9977.2 2821.49 9973.68C2804.74 9970.15 2789.74 9960.9 2779.08 9947.52C2772.32 9939.04 2767.52 9929.18 2765.02 9918.63C2762.52 9908.08 2762.38 9897.11 2764.61 9886.51C2766.84 9875.9 2771.39 9865.91 2777.92 9857.27C2784.46 9848.62 2792.83 9841.52 2802.42 9836.49C2812.02 9831.45 2822.61 9828.59 2833.44 9828.12C2844.27 9827.65 2855.07 9829.58 2865.07 9833.77C2875.07 9837.95 2884.02 9844.3 2891.28 9852.34C2898.54 9860.39 2903.93 9869.94 2907.08 9880.32Z" fill="#F5F5F5"/>
<path d="M18683.1 9983.36C18690.4 9998.71 18693.2 10015.8 18691.2 10032.7C18689.1 10049.6 18682.3 10065.6 18671.6 10078.7L18390 10426.2C18381.1 10437 18370 10445.5 18357.3 10451.3C18344.7 10457.1 18330.9 10459.9 18317 10459.5C18303.1 10459.1 18289.5 10455.5 18277.3 10449C18265.1 10442.4 18254.6 10433.1 18246.6 10421.8C18224.1 10390.8 18195.4 10364.9 18162.3 10345.6C18129.3 10326.3 18092.6 10314.1 18054.6 10309.8C18021 10304.4 17986.6 10305.9 17953.6 10314.3C17920.6 10322.6 17889.6 10337.7 17862.6 10358.4C17836.5 10381.1 17815.3 10408.9 17800.2 10440C17785.1 10471.1 17776.5 10505 17774.9 10539.5C17771.2 10577.2 17774.9 10615.3 17785.9 10651.5C17796.9 10687.7 17814.9 10721.5 17838.9 10750.7C17893.3 10804 17964.1 10837.4 18039.8 10845.6C18115.5 10853.7 18191.7 10836.1 18256.2 10795.5C18265.8 10787.1 18277.1 10780.9 18289.3 10777.2C18301.5 10773.5 18314.3 10772.5 18327 10774.2C18339.6 10775.8 18351.7 10780.2 18362.6 10786.9C18373.4 10793.7 18382.6 10802.7 18389.7 10813.3C18396.8 10823.9 18401.5 10835.9 18403.6 10848.5C18405.6 10861 18405 10873.9 18401.7 10886.2C18398.4 10898.5 18392.5 10910 18384.4 10919.9C18376.3 10929.7 18366.2 10937.7 18354.8 10943.4C18254.4 11007.5 18135.1 11035.1 18016.8 11021.6C17898.5 11008 17788.4 10954.2 17705.2 10869.1C17664.4 10821.9 17633.5 10767 17614.2 10707.6C17595 10648.3 17587.8 10585.7 17593.2 10523.5C17596.8 10464.9 17612.2 10407.6 17638.5 10355C17664.8 10302.4 17701.4 10255.7 17746.1 10217.6C17792.4 10181.1 17845.7 10154.4 17902.8 10139.3C17959.8 10124.3 18019.3 10121.1 18077.6 10129.9C18164.1 10141 18245.8 10176.3 18313.2 10231.7L18530.1 9963.52C18537.5 9954.07 18546.8 9946.21 18557.3 9940.4C18567.8 9934.59 18579.3 9930.95 18591.3 9929.69C18603.2 9928.44 18615.3 9929.6 18626.8 9933.1C18638.2 9936.6 18648.9 9942.38 18658.1 9950.08C18668.8 9959.18 18677.3 9970.55 18683.1 9983.36Z" fill="#F5F5F5"/>
<path d="M18705.5 9758.08C18714.3 9746.52 18726.4 9737.85 18740.2 9733.17C18754 9728.48 18768.9 9728 18783 9731.77C18797 9735.55 18809.7 9743.41 18819.3 9754.37C18828.9 9765.33 18835 9778.89 18836.9 9793.34C18838.8 9807.78 18836.3 9822.46 18829.8 9835.52C18823.4 9848.57 18813.2 9859.41 18800.6 9866.67C18787.9 9873.93 18773.4 9877.28 18758.9 9876.29C18744.4 9875.3 18730.4 9870.02 18718.9 9861.12C18711.2 9855.28 18704.7 9847.97 18699.9 9839.6C18695 9831.24 18691.9 9822 18690.6 9812.41C18689.4 9802.82 18690.1 9793.08 18692.6 9783.76C18695.2 9774.43 18699.5 9765.7 18705.5 9758.08Z" fill="#F5F5F5"/>
<path d="M17744.8 1633.28C17752 1648.66 17754.7 1665.75 17752.7 1682.61C17750.7 1699.46 17744 1715.41 17733.3 1728.64L17451.7 2076.16C17443 2086.92 17431.8 2095.51 17419.2 2101.27C17406.6 2107.03 17392.8 2109.8 17378.9 2109.37C17365.1 2108.94 17351.5 2105.31 17339.2 2098.77C17327 2092.24 17316.4 2082.96 17308.4 2071.68C17285.7 2040.85 17257 2015 17224 1995.74C17191 1976.47 17154.3 1964.2 17116.4 1959.68C17082.7 1954.5 17048.3 1956.19 17015.3 1964.66C16982.3 1973.13 16951.4 1988.2 16924.4 2008.96C16898.3 2031.59 16877.2 2059.24 16862.1 2090.25C16847 2121.27 16838.4 2155 16836.7 2189.44C16832.9 2227.12 16836.6 2265.18 16847.6 2301.43C16858.6 2337.67 16876.6 2371.39 16900.7 2400.64C16954.8 2454.2 17025.5 2487.81 17101.2 2495.95C17176.8 2504.09 17253.1 2486.28 17317.3 2445.44C17337.2 2433.92 17360.8 2430.44 17383.2 2435.73C17405.6 2441.01 17425.2 2454.66 17437.8 2473.87C17450.5 2493.08 17455.3 2516.41 17451.4 2539.09C17447.4 2561.76 17435 2582.06 17416.5 2595.84C17316.1 2659.99 17196.7 2687.56 17078.4 2673.92C16960.1 2660.28 16850.1 2606.26 16766.9 2520.96C16725.9 2473.91 16694.8 2419.03 16675.5 2359.63C16656.3 2300.23 16649.3 2237.54 16654.9 2175.36C16658.6 2116.73 16674.1 2059.44 16700.4 2006.89C16726.7 1954.34 16763.2 1907.6 16807.9 1869.44C16854.1 1833.05 16907.4 1806.51 16964.3 1791.43C17021.2 1776.35 17080.5 1773.06 17138.8 1781.76C17225.1 1793.43 17306.6 1828.63 17374.3 1883.52L17591.2 1615.36C17598.7 1605.99 17607.9 1598.19 17618.5 1592.43C17629 1586.67 17640.5 1583.06 17652.4 1581.81C17664.3 1580.56 17676.4 1581.69 17687.8 1585.15C17699.3 1588.6 17710 1594.3 17719.2 1601.92C17729.9 1610.45 17738.6 1621.14 17744.8 1633.28Z" fill="#F5F5F5"/>
<path d="M17767.2 1407.36C17776.1 1395.8 17788.2 1387.13 17802 1382.44C17815.8 1377.76 17830.7 1377.28 17844.7 1381.05C17858.8 1384.83 17871.4 1392.69 17881 1403.65C17890.6 1414.61 17896.7 1428.17 17898.6 1442.62C17900.5 1457.06 17898.1 1471.74 17891.6 1484.8C17885.1 1497.85 17874.9 1508.69 17862.3 1515.95C17849.7 1523.21 17835.2 1526.56 17820.7 1525.57C17806.1 1524.58 17792.2 1519.3 17780.7 1510.4C17765.3 1498.5 17755.2 1480.97 17752.7 1461.66C17750.1 1442.34 17755.4 1422.82 17767.2 1407.36Z" fill="#F5F5F5"/>
<path d="M10639.6 2917.12C10661.4 2916.97 10682.8 2922.87 10701.4 2934.17C10720.1 2945.47 10735.2 2961.72 10745.2 2981.12L10994.8 3507.2C11002.8 3523.41 11007 3541.26 11007 3559.36C11007 3577.46 11002.8 3595.31 10994.8 3611.52C10986.8 3628.06 10975.1 3642.49 10960.5 3653.62C10946 3664.74 10929 3672.25 10910.9 3675.52C10862.8 3684.82 10817 3703.79 10776.4 3731.3C10735.8 3758.8 10701.2 3794.26 10674.8 3835.52C10649.2 3872.44 10631.5 3914.22 10622.8 3958.26C10614.1 4002.3 10614.6 4047.66 10624.2 4091.52C10636.5 4134.7 10657.3 4174.96 10685.4 4209.93C10713.6 4244.89 10748.5 4273.84 10788 4295.04C10830.7 4320.12 10877.8 4336.53 10926.8 4343.34C10975.8 4350.15 11025.6 4347.22 11073.5 4334.72C11166.4 4300.64 11245.1 4236.1 11296.7 4151.62C11348.3 4067.14 11369.8 3967.69 11357.6 3869.44C11355.5 3854.27 11356.4 3838.83 11360.3 3824.01C11364.2 3809.19 11370.9 3795.28 11380.2 3783.07C11389.4 3770.86 11401 3760.58 11414.2 3752.84C11427.4 3745.09 11442 3740.02 11457.2 3737.92C11472.3 3735.82 11487.8 3736.73 11502.6 3740.59C11517.4 3744.45 11531.3 3751.2 11543.5 3760.44C11555.7 3769.68 11566 3781.24 11573.8 3794.45C11581.5 3807.66 11586.6 3822.27 11588.7 3837.44C11608.2 3990.83 11574.3 4146.26 11492.7 4277.6C11411.1 4408.95 11286.8 4508.22 11140.7 4558.72C11062.6 4580.6 10980.9 4586.49 10900.6 4576.04C10820.2 4565.59 10742.7 4539.02 10672.8 4497.92C10605.9 4460.97 10547.1 4410.94 10500 4350.8C10452.8 4290.65 10418.2 4221.63 10398.3 4147.84C10381.1 4073.48 10379.3 3996.39 10393.1 3921.32C10406.8 3846.25 10435.8 3774.79 10478.3 3711.36C10539.8 3616.27 10626.4 3540.07 10728.5 3491.2L10536.5 3087.36C10529.8 3073.59 10525.9 3058.63 10524.9 3043.33C10524 3028.03 10526.2 3012.71 10531.2 2998.24C10536.3 2983.78 10544.2 2970.46 10554.4 2959.06C10564.7 2947.66 10577.1 2938.41 10590.9 2931.84C10605.8 2923.27 10622.4 2918.24 10639.6 2917.12Z" fill="#E0E0E0"/>
<path d="M10388.7 2766.08C10377.6 2743.52 10375.8 2717.54 10383.5 2693.65C10391.3 2669.75 10408.1 2649.82 10430.3 2638.08C10452.8 2626.67 10478.9 2624.65 10502.9 2632.44C10526.9 2640.24 10546.8 2657.23 10558.3 2679.68C10564 2690.86 10567.4 2703.05 10568.5 2715.57C10569.5 2728.08 10568 2740.67 10564.1 2752.62C10560.3 2764.56 10554.1 2775.63 10545.9 2785.19C10537.8 2794.74 10527.9 2802.6 10516.7 2808.32C10505.5 2814.03 10493.3 2817.49 10480.8 2818.5C10468.3 2819.5 10455.7 2818.02 10443.7 2814.16C10431.8 2810.3 10420.7 2804.12 10411.2 2795.98C10401.6 2787.84 10393.8 2777.9 10388 2766.72L10388.7 2766.08Z" fill="#E0E0E0"/>
<path d="M19321.8 13272.3C19343.6 13272.2 19365 13278.1 19383.7 13289.4C19402.3 13300.7 19417.4 13316.9 19427.4 13336.3L19678.9 13860.5C19687 13876.7 19691.2 13894.5 19691.2 13912.6C19691.2 13930.7 19687 13948.6 19678.9 13964.8C19671 13981.3 19659.3 13995.8 19644.7 14006.9C19630.1 14018 19613.1 14025.5 19595.1 14028.8C19546.5 14038.2 19500.3 14057.4 19459.5 14085.4C19418.6 14113.4 19384 14149.4 19357.6 14191.4C19332.1 14228.3 19314.4 14270.1 19305.7 14314.1C19297 14358.1 19297.5 14403.5 19307.1 14447.4C19319.3 14490.5 19340.2 14530.8 19368.3 14565.8C19396.5 14600.7 19431.4 14629.7 19470.9 14650.9C19513.5 14676 19560.7 14692.4 19609.7 14699.2C19658.7 14706 19708.5 14703.1 19756.4 14690.6C19849.3 14656.5 19928 14591.9 19979.6 14507.5C20031.2 14423 20052.6 14323.5 20040.5 14225.3C20036.3 14194.6 20044.4 14163.6 20063 14138.9C20081.7 14114.2 20109.4 14098 20140 14093.8C20170.7 14089.5 20201.7 14097.6 20226.4 14116.3C20251.1 14134.9 20267.3 14162.6 20271.6 14193.3C20291.1 14346.7 20257.2 14502.1 20175.6 14633.4C20094 14764.8 19969.7 14864.1 19823.6 14914.6C19745.5 14936.4 19663.8 14942.3 19583.4 14931.9C19503 14921.4 19425.6 14894.9 19355.7 14853.8C19288.8 14816.8 19230 14766.8 19182.8 14706.6C19135.7 14646.5 19101.1 14577.5 19081.2 14503.7C19064 14429 19062.3 14351.7 19076.3 14276.4C19090.3 14201 19119.6 14129.4 19162.4 14065.9C19223.9 13970.8 19310.5 13894.6 19412.7 13845.8L19220.7 13441.9C19213.9 13428.2 19210 13413.2 19209.1 13397.9C19208.2 13382.6 19210.3 13367.3 19215.4 13352.8C19220.5 13338.3 19228.3 13325 19238.6 13313.6C19248.8 13302.2 19261.2 13293 19275.1 13286.4C19289.4 13278.3 19305.4 13273.5 19321.8 13272.3Z" fill="#E0E0E0"/>
<path d="M19070.9 13119.4C19059.9 13096.8 19058 13070.8 19065.8 13046.9C19073.5 13023 19090.3 13003.1 19112.5 12991.4C19135 12980 19161.1 12977.9 19185.1 12985.7C19209.1 12993.5 19229 13010.5 19240.5 13033C19252.1 13055.5 19254.2 13081.8 19246.4 13105.9C19238.6 13130 19221.5 13150.1 19198.9 13161.6C19176.3 13173.1 19150.1 13175.2 19126 13167.4C19101.9 13159.6 19081.8 13142.6 19070.3 13120L19070.9 13119.4Z" fill="#E0E0E0"/>
<path d="M21069 16659.8C21069 16659.8 20576.8 16281.6 19859.4 17472C19142 18662.4 18852 19357.4 18852 19357.4C18852 19357.4 18667.1 19604.5 18501.3 19421.4C18335.6 19238.4 18126.9 18742.4 17818.4 18807C17498.4 18874.2 17370.4 19216.6 17393.5 19735C17416.5 20253.4 17425.5 21390.1 17426.1 21493.1C17426.8 21596.2 17358.3 21737.6 17225.8 21632C17093.3 21526.4 16353.5 20576 15922.8 20953.6C15492 21331.2 15794.8 22764.2 15823.6 22921.6C15852.4 23079 15818.4 23143 15742.3 23177.6C15666.1 23212.2 15448.5 22867.2 15227.1 22605.4C15005.6 22343.7 14702.9 22078.7 14473.2 22317.4C14243.4 22556.2 14100 23604.5 14980.7 25389.4L15442.8 26188.8L16370.1 26203.5C18354.1 26113.9 19206.6 25482.2 19304.5 25165.4C19402.4 24848.6 19024.2 24711.7 18688.2 24644.5C18352.2 24577.3 17945.8 24551.7 17938.1 24469.1C17930.4 24386.6 17968.8 24325.1 18121.2 24277.1C18273.5 24229.1 19673.8 23799.7 19797.3 23240.3C19920.8 22681 18729.8 22493.4 18573 22428.2C18416.2 22362.9 18509 22236.2 18598 22185.6C18686.9 22135 19686 21594.9 20153.8 21365.1C20621.6 21135.4 20857.8 20857.6 20761.2 20545.3C20669 20243.8 20132.7 20300.8 19893.3 20243.2C19654 20185.6 19782 19903.4 19782 19903.4C19782 19903.4 20251.1 19313.9 20946.8 18111.4C21642.4 16908.8 21058.1 16656.6 21058.1 16656.6" fill="#EBEBEB"/>
<path d="M20424.5 17727.4L20411.1 17753.6C20400.8 17770.9 20387.4 17795.8 20369.5 17827.8L20206.9 18111.4C20065.5 18359 19858.8 18716.8 19601.5 19157.1C19089.5 20039 18365.6 21250.6 17565 22586.2C16764.4 23921.9 16040.5 25132.8 15521.5 26011.5L14907.7 27052.8C14836 27175 14779.7 27270.4 14740.7 27335.7L14697.2 27409.3L14681.2 27433.6C14685.2 27424.8 14689.7 27416.3 14694.6 27408L14736.2 27333.1L14898.1 27047C15039.6 26799.4 15246.3 26442.2 15504.2 26001.3C16016.2 25120 16739.4 23907.8 17540.7 22571.5C18342 21235.2 19064.5 20025.6 19583.6 19146.9L20197.3 18105.6C20269.6 17983.4 20325.3 17888 20364.4 17822.7C20383.6 17791.4 20397.6 17767 20408.5 17749.1L20424.5 17727.4Z" fill="#E0E0E0"/>
<path d="M18082.8 19515.5C18091.6 19536 18098 19557.5 18102 19579.5C18112.2 19621.8 18125.6 19681.9 18141 19757.4C18172.4 19907.2 18210.1 20115.8 18247.9 20346.9C18285.6 20577.9 18317 20780.8 18342 20938.9C18353.5 21009.3 18363.7 21066.9 18371.4 21117.4C18376.4 21138.4 18379.2 21159.9 18379.7 21181.4C18371.2 21160.8 18364.8 21139.3 18360.5 21117.4C18350.3 21075.8 18336.8 21015 18322.1 20939.5C18292 20789.1 18258.1 20579.8 18219.7 20348.8C18181.3 20117.8 18147.4 19915.5 18121.2 19758.7C18109 19687.7 18099.4 19630.7 18091.1 19579.5C18086.1 19558.5 18083.3 19537.1 18082.8 19515.5Z" fill="#E0E0E0"/>
<path d="M18463.6 21206.4C18463.6 21198.7 18888.5 21101.4 19415.9 20990.1C19943.2 20878.7 20375.9 20793.6 20375.9 20798.1C20375.9 20802.6 19950.9 20903 19422.9 21014.4C18894.9 21125.8 18464.8 21214.1 18463.6 21206.4Z" fill="#E0E0E0"/>
<path d="M17138.8 23202.6C17161.3 23200.2 17184 23200.2 17206.6 23202.6L17391.6 23216.6C17547.7 23228.2 17763.4 23242.9 18001.5 23250.6C18239.6 23258.2 18455.9 23258.9 18612.7 23257.6H18797.6C18820.4 23254.6 18843.4 23254.6 18866.1 23257.6C18843.8 23262.5 18821.1 23265.3 18798.3 23265.9C18754.8 23269.1 18691.4 23273 18612.7 23276.2C18456.5 23282.6 18239.6 23285.8 18000.8 23276.2C17762.1 23266.6 17545.8 23250.6 17389.6 23233.9C17311.6 23225 17248.8 23217.3 17205.3 23210.9C17182.9 23210.5 17160.6 23207.7 17138.8 23202.6Z" fill="#E0E0E0"/>
<path d="M16460.4 21749.1C16473.5 21765.6 16484.5 21783.6 16493 21802.9C16514.1 21844.5 16541 21895 16571.7 21955.2C16635.7 22083.2 16725.3 22263.7 16822 22462.1C16918.6 22660.5 17003.7 22841.6 17063.9 22974.1C17092 23038.1 17115.7 23088 17134.3 23130.2C17144.4 23148.8 17151.9 23168.6 17156.7 23189.1C17144.4 23172.2 17133.7 23154.2 17124.7 23135.4L17046 22983C16982 22855 16891.7 22674.6 16795.7 22476.2C16699.7 22277.8 16614 22096.6 16553.2 21964.2L16482.8 21808C16473.4 21789.2 16465.9 21769.4 16460.4 21749.1Z" fill="#E0E0E0"/>
<path d="M15069.6 23362.6C15085.1 23384.6 15098.6 23407.9 15110 23432.3L15211.7 23624.3C15296.8 23789.4 15411.4 24018.6 15537.5 24272C15663.6 24525.4 15775.6 24755.2 15857.5 24922.9L15950.9 25121.3C15963.1 25145.4 15973.3 25170.4 15981.6 25196.2C15965.8 25174.3 15952.1 25150.9 15940.7 25126.4L15838.9 24934.4C15754.4 24769.3 15639.2 24540.8 15513.8 24287.4C15388.4 24033.9 15275.7 23803.5 15193.8 23636.5L15100.4 23437.4C15087.5 23413.6 15077.2 23388.5 15069.6 23362.6Z" fill="#E0E0E0"/>
<path d="M15970.1 25151.4C15998.9 25148.9 16027.8 25148.9 16056.5 25151.4L16291.4 25160.3C16489.8 25168 16763.7 25177 17066.4 25178.9C17369.2 25180.8 17642.4 25175.7 17842.1 25169.9L18077 25164.2C18105.7 25161.5 18134.7 25161.5 18163.4 25164.2C18135.1 25169.7 18106.4 25172.9 18077.6 25173.8C18022.6 25178.9 17942 25184 17842.8 25189.1C17644.4 25199.4 17369.8 25208.3 17066.4 25205.8C16763.1 25203.2 16490.4 25191.7 16290.8 25179.5C16191.6 25172.5 16110.9 25166.7 16055.9 25161C16027.1 25160.2 15998.4 25157 15970.1 25151.4Z" fill="#E0E0E0"/>
<path d="M24092.4 27222.4C24092.4 27232 18903.2 27239 12503.9 27239C6104.52 27239 914.115 27232 914.115 27222.4C914.115 27212.8 6101.96 27205.8 12503.9 27205.8C18905.8 27205.8 24092.4 27213.4 24092.4 27222.4Z" fill="#263238"/>
<path d="M18475.1 23266.6L17500.4 18617.6C17500.4 18617.6 16928.8 16377.6 14961.5 15604.5L14825.8 15562.9L14633.8 15504.6C14554.4 15473.9 14231.9 15371.5 14146.8 15344.6C11494.6 14425.6 10790.6 14665 8027.08 15607.7C8027.08 15607.7 6798.92 15938.6 6203.72 17539.8C5608.52 19141.1 4469.96 21646.7 4469.96 21646.7L7227.08 22620.8L7755.72 21835.5V27207H15339.7L15130.4 24734.1L15094 21688.3" fill="#FF725E"/>
<path d="M10755.4 15893.1C10736.6 15915.4 10715.1 15935.2 10691.4 15952C10666.1 15975 10639.3 15996.3 10611.4 16016C10575.8 16043.3 10538.9 16068.7 10500.7 16092.2C10402 16154.7 10298.2 16208.7 10190.3 16253.4C10057.6 16307.3 9920.29 16348.8 9780.04 16377.6C9639.23 16403.6 9496.35 16416.9 9353.16 16417.3C9236.39 16416.3 9119.91 16405.4 9005 16384.6C8955.08 16377.6 8912.2 16364.8 8873.8 16355.8C8840.53 16348.8 8807.81 16339.4 8775.88 16327.7C8747.9 16320.6 8720.84 16310.3 8695.24 16297C8695.24 16290.6 8813.64 16331.5 9008.84 16361C9122.83 16377.8 9237.92 16386.2 9353.16 16385.9C9494.27 16384 9634.95 16369.9 9773.64 16343.7C9911.81 16315.6 10047.3 16275.8 10178.8 16224.6C10285.7 16181.4 10389.2 16130.3 10488.5 16071.7C10658.8 15969.3 10751.6 15888 10755.4 15893.1Z" fill="#FAFAFA"/>
<g opacity="0.3">
<path d="M7758.28 23879.7L8379.72 24597.8H8990.92V25379.2L15310.9 26841L15259.7 26232.3L9313.48 24190.7H8317L7837 23806.7L7758.28 23879.7Z" fill="black"/>
</g>
<path d="M9619.4 23240.3L9092.04 23143C9092.04 23143 7842.76 21776 7608.52 21759.4C7416.52 21743.4 6352.2 21753.6 5982.28 21759.4C5948.33 21759.4 5915.77 21772.8 5891.77 21796.9C5867.76 21820.9 5854.28 21853.4 5854.28 21887.4C5854.26 21920.7 5867.22 21952.6 5890.4 21976.5C5913.58 22000.4 5945.16 22014.4 5978.44 22015.4L7234.12 22064L7239.88 22165.1L5982.28 22181.8C5854.28 22191.4 5772.36 22394.2 6182.6 22430.7L7234.12 22468.5V22532.5L6167.88 22681.6C6113.48 22689.3 5972.04 22716.8 5970.76 22771.2C5970.76 22771.2 5906.76 22905 6210.12 22942.7C6314.44 22955.5 7239.88 22924.8 7239.88 22924.8L7204.68 23008L6244.68 23214.7C6211 23222 6181.32 23241.7 6161.61 23270C6141.9 23298.3 6133.62 23332.9 6138.44 23367C6143.23 23401.7 6161.19 23433.3 6188.6 23455.1C6216 23476.9 6250.75 23487.3 6285.64 23484.2L7309.64 23388.8L8317 24191.4H9661L9619.4 23240.3Z" fill="#FFBE9D"/>
<path d="M18475.1 23266.6L15407.6 23870.1L15096.5 21688.3" fill="#FF725E"/>
<path d="M14999.2 23349.8L9313.47 23167.4V25132.2L13085.6 25881.6L15735.2 26303.4C17381.3 26303.4 18697.8 24792.3 18443.1 23167.4H18436L14999.2 23349.8Z" fill="#FF725E"/>
<path d="M16562.8 23313.9C16538.4 23317.4 16513.8 23319.1 16489.2 23319L16278 23324.8L15500.4 23338.9C14844.4 23348.5 13937.5 23359.4 12935.2 23349.8C11933 23340.2 11026.1 23303.7 10370.8 23259.5C10043.1 23237.8 9778.11 23216.6 9595.71 23195.5L9385.16 23173.8C9360.61 23172.2 9336.22 23168.8 9312.2 23163.5C9336.9 23161.5 9361.73 23161.5 9386.43 23163.5L9597 23177C9780.04 23189.8 10045 23206.4 10372.7 23224.3C11028 23260.2 11934.3 23291.5 12935.9 23301.8C13937.5 23312 14843.7 23301.8 15500.4 23301.8H16278H16489.2C16514 23303.3 16538.7 23307.3 16562.8 23313.9Z" fill="#263238"/>
<path d="M9314.12 23184C9314.96 23195.5 9314.96 23207.1 9314.12 23218.6C9314.12 23243.3 9314.12 23277.2 9314.12 23320.3C9314.12 23411.8 9314.12 23542.4 9317.96 23708.2C9317.96 24044.2 9321.8 24521.6 9325 25097L9313.48 25082.9C9953.48 25220.5 10725.3 25391.4 11553.5 25564.8C12688.8 25805.4 13723.1 25994.9 14474.4 26111.4C14850.8 26169 15155.4 26211.2 15366.6 26239.4L15609.2 26271.4L15673.2 26280.3C15680.4 26280.7 15687.5 26282.2 15694.3 26284.8H15672.5L15608.5 26279L15364.7 26253.4C15153.5 26229.1 14847.6 26189.4 14468.7 26135.7C13715.4 26025.6 12679.9 25839.4 11543.9 25598.7C10715.1 25425.3 9943.88 25252.5 9303.88 25111.7H9293V25100.8C9293 24524.8 9296.84 24048 9298.12 23712C9298.12 23546.2 9298.12 23415.7 9301.96 23324.2C9301.96 23281.5 9301.96 23247.6 9301.96 23222.4C9303.96 23209 9308.06 23196.1 9314.12 23184Z" fill="#263238"/>
<path d="M8828.36 17809.3C8826.66 17777.2 8827.94 17745.1 8832.2 17713.3C8836.68 17649.3 8842.44 17562.9 8845 17452.8C8852.51 17166.3 8832.58 16879.8 8785.48 16597.1C8727.24 16268.2 8653.64 15968 8539.08 15781.1C8495.72 15706.6 8438.09 15641.3 8369.48 15589.1C8319.56 15553.9 8287.56 15540.5 8288.84 15537.9C8290.12 15535.4 8297.8 15537.9 8313.16 15545.6C8335.48 15554.4 8356.91 15565.3 8377.16 15578.2C8450.92 15628.5 8513.1 15694 8559.56 15770.2C8627.42 15881.9 8679.13 16002.5 8713.16 16128.6C8837.94 16559.3 8890.71 17007.5 8869.32 17455.4C8863.56 17565.4 8853.96 17655 8846.28 17715.8C8843.35 17747.5 8837.35 17778.8 8828.36 17809.3Z" fill="#263238"/>
<path d="M15080.5 16081.9C15090.1 16081.9 15097.2 17388.2 15097.2 18999.7C15097.2 20611.2 15090.1 21917.4 15080.5 21917.4C15070.9 21917.4 15063.9 20611.2 15063.9 18999.7C15063.9 17388.2 15071.6 16081.9 15080.5 16081.9Z" fill="#263238"/>
<path d="M17042.8 22644.5C17042.8 22650.2 16946.1 22647.7 16792.5 22666.2C16702.5 22677.9 16613.4 22695.2 16525.6 22718.1C16418.9 22747.5 16314.5 22784.7 16213.3 22829.4C16112.5 22876 16015.4 22930.1 15922.8 22991.4C15847.7 23041.8 15776.1 23097.2 15708.4 23157.1C15592.5 23260.2 15531.1 23334.4 15526 23330.6C15537.2 23310.9 15550.5 23292.4 15565.6 23275.5C15605.3 23227.5 15648 23182.2 15693.6 23139.8C15760 23076.3 15831.3 23018.1 15906.8 22965.8C16000 22902.4 16098.2 22846.8 16200.5 22799.4C16303.9 22753.5 16410.9 22716.5 16520.5 22688.6C16609.8 22666.3 16700.8 22651.1 16792.5 22643.2C16854 22636.9 16915.8 22635 16977.5 22637.4C16999.4 22637 17021.4 22639.4 17042.8 22644.5Z" fill="#263238"/>
<g opacity="0.3">
<path d="M8882.76 22916.5C9842.76 22344.3 10439.2 21397.1 11023.6 20446.1C11607.9 19495 12152.5 18497.3 12962.8 17730.6C13334.6 17377.9 13769.8 17081 13907.4 16586.9L12450.8 17744.6L8393.16 22410.9L8882.76 22916.5Z" fill="black"/>
</g>
<path d="M6251.08 20415.4C6251.08 20427.5 6021.96 20418.6 5760.2 20508.2C5649.05 20548.1 5540.84 20595.8 5436.36 20650.9C5394.2 20677 5349.36 20698.4 5302.6 20714.9C5339.71 20681.8 5380.77 20653.4 5424.84 20630.4C5527.37 20568.1 5636.12 20516.6 5749.32 20476.8C5863.38 20438.1 5982.28 20415.5 6102.6 20409.6C6152.1 20404 6202.16 20405.9 6251.08 20415.4Z" fill="#263238"/>
<path d="M6251.08 20415.4C6251.08 20427.5 6021.96 20418.6 5760.2 20508.2C5649.05 20548.1 5540.84 20595.8 5436.36 20650.9C5394.2 20677 5349.36 20698.4 5302.6 20714.9C5339.71 20681.8 5380.77 20653.4 5424.84 20630.4C5527.37 20568.1 5636.12 20516.6 5749.32 20476.8C5863.38 20438.1 5982.28 20415.5 6102.6 20409.6C6152.1 20404 6202.16 20405.9 6251.08 20415.4Z" fill="#263238"/>
<path d="M15056.2 22504.3C14987.9 22459.8 14913.6 22425.5 14835.4 22402.6C14685 22355.8 14451.4 22356.5 14180.7 22443.5C13910 22530.6 13628.4 22715.5 13280.2 22860.2C13098.9 22939.6 12902.1 22977.4 12704.2 22970.9C12492.1 22950.6 12286.3 22887.5 12099.4 22785.3C11907.4 22688 11725 22579.2 11541.3 22494.1C11365.5 22409.2 11176.2 22355.4 10982 22335.4C10652.1 22304.4 10320.1 22364.4 10022 22508.8C9820.45 22603.7 9639.21 22736.7 9488.2 22900.5L9418.44 22979.2L9372.36 23043.2L9343.56 23080.3L9332.68 23092.5C9334.43 23087.4 9337.02 23082.6 9340.36 23078.4C9347.4 23068.2 9356.36 23055.4 9366.6 23039.4L9410.76 22975.4L9478.6 22894.7C9627.4 22725.4 9808.69 22587.6 10011.7 22489.6C10150.7 22420 10298.4 22369.2 10450.8 22338.6C10625.6 22301.3 10805.2 22290.7 10983.2 22307.2C11180.2 22326.5 11372.3 22380 11550.9 22465.3C11737.2 22551.7 11918.3 22660.5 12110.3 22756.5C12293.2 22856.8 12494.6 22919.1 12702.3 22939.5C12896.1 22946.9 13089.1 22910.4 13266.8 22832.6C13611.1 22691.8 13895.9 22500.5 14171.7 22422.4C14447.6 22344.3 14683.7 22339.8 14836.7 22391C14895.3 22408.8 14951.3 22434.4 15003.1 22467.2L15042.1 22495.4C15052.4 22500.5 15056.8 22503.7 15056.2 22504.3Z" fill="#FAFAFA"/>
<path d="M17836.4 20137C17798.8 20125.8 17760.2 20118.5 17721.2 20115.2C17614.2 20116.8 17509.9 20148.8 17420.4 20207.4C17302 20271.4 17188 20394.2 17026.8 20484.5C16942 20534.4 16844.7 20558.8 16746.4 20554.9C16642.9 20544.3 16542.7 20512.5 16452 20461.4C16358 20414.1 16270.9 20361 16180.7 20325.1C16094.1 20289.5 16003.7 20264.2 15911.2 20249.6C15827.7 20236.1 15742.9 20231.6 15658.4 20236.2C15584.5 20238.5 15511 20248.2 15438.9 20265C15334.1 20287.9 15232.6 20324.1 15136.8 20372.5C15068.4 20407 15033.8 20430.7 15031.9 20428.2C15030 20425.6 15039.6 20420.5 15055.6 20409C15079.4 20391.5 15104.5 20375.7 15130.4 20361.6C15291.8 20271 15471.8 20218.7 15656.5 20208.6C15839.5 20196.6 16022.9 20226.2 16192.8 20295C16286.3 20331.5 16374.6 20384.6 16466.8 20431.4C16553.6 20480.3 16649.3 20511.2 16748.4 20522.2C16840.6 20526.6 16932.1 20504.4 17012 20458.2C17168.2 20372.5 17285.3 20253.4 17408.2 20187.5C17502.1 20129 17611.2 20099.6 17721.8 20103C17751.7 20105.4 17781 20112.3 17808.8 20123.5C17818.5 20126.9 17827.8 20131.4 17836.4 20137Z" fill="#FAFAFA"/>
<path d="M15021.6 19263.4C15006.9 19262.2 14992.3 19259.6 14978.1 19255.7C14964 19255.7 14946.8 19248 14925.6 19244.8L14854 19235.2C14700.3 19222.1 14545.5 19238 14397.6 19281.9C14179.1 19349.6 13969.7 19444 13774.3 19562.9C13536.4 19715.1 13288.1 19850.2 13031.2 19967.4C12895.8 20025.5 12753 20064.7 12606.9 20083.8C12469.8 20100.5 12330.8 20091 12197.3 20055.7C12078.4 20020.9 11963.1 19974.8 11853 19918.1C11749.3 19866.9 11654.6 19816.3 11566.3 19774.7C11429.6 19703.3 11280.6 19658.4 11127.2 19642.2C11084.5 19639.7 11041.7 19641 10999.2 19646.1C10984.8 19647.5 10970.2 19647.5 10955.7 19646.1C10969.6 19641.1 10984 19637.9 10998.6 19636.5C11040.8 19628.9 11083.7 19625.5 11126.6 19626.2C11282.7 19637.6 11435.1 19680 11574.6 19751C11664.8 19791.4 11760.2 19840.6 11863.9 19890.6C11972.7 19945.5 12086.5 19989.8 12203.7 20023C12333.6 20056.5 12468.7 20065.2 12601.8 20048.6C12745.1 20029.8 12885.1 19991.3 13017.8 19934.1C13293 19820.8 13529.8 19663.4 13757.6 19534.7C13956 19415.7 14168.7 19322.4 14390.6 19257C14541.2 19214.5 14698.6 19202.1 14854 19220.5L14926.3 19233.3C14947.4 19237.8 14964 19243.5 14978.1 19247.4C14993.1 19251.2 15007.7 19256.6 15021.6 19263.4Z" fill="#FAFAFA"/>
<path d="M17003.7 17292.2C16982.6 17308.2 16959.6 17321.5 16935.2 17331.8C16889.8 17355.5 16824.5 17388.8 16743.2 17425.3C16645.4 17469 16543.9 17504.1 16439.9 17530.2C16311.5 17562.5 16178.5 17571.6 16046.9 17557.1C15907.4 17542.4 15778.8 17513 15662.9 17497C15559 17480.2 15453.2 17478.3 15348.7 17491.2C15252.6 17504.9 15160.5 17538.9 15078.6 17591C15078.6 17591 15083.1 17584.6 15092.7 17575.7C15107.9 17563.1 15123.9 17551.6 15140.7 17541.1C15203.8 17504.1 15273.2 17479.1 15345.5 17467.5C15451.6 17451.8 15559.4 17451.8 15665.5 17467.5C15785.8 17482.2 15915.1 17511 16049.5 17525.1C16324 17557.8 16567.2 17470.1 16733.6 17404.8C16817.5 17371.5 16884.7 17340.8 16931.4 17321.6C16954.4 17309.4 16978.7 17299.5 17003.7 17292.2Z" fill="#FAFAFA"/>
<path d="M8728.52 18357.8C8692.4 18342.9 8654.17 18333.8 8615.24 18330.9C8507.88 18333.1 8404.4 18371.5 8321.48 18439.7C8266.44 18478.7 8208.84 18527.4 8140.36 18572.2C8066.58 18620 7984.19 18653.1 7897.8 18669.4C7699.38 18697.6 7497.04 18673.4 7310.92 18599C7112.52 18527.4 6935.24 18436.5 6765 18376.3C6685.25 18348.1 6603.24 18326.7 6519.88 18312.3C6447.23 18299.6 6373.37 18295.1 6299.72 18298.9C6192.41 18302.4 6087.33 18330.4 5992.52 18380.8C5928.52 18417.9 5895.88 18448 5893.96 18444.8C5892.04 18441.6 5900.36 18436.5 5915.08 18422.4C5936.94 18402.2 5960.73 18384.2 5986.12 18368.6C6080.94 18312.7 6187.85 18280.4 6297.8 18274.6C6373.44 18269.4 6449.42 18272.6 6524.36 18284.2C6609.72 18298 6693.68 18319.4 6775.24 18348.2C6948.04 18407 7126.6 18497.9 7322.44 18568.3C7503.02 18640.7 7699.22 18665.1 7892.04 18639.4C7975.05 18624.8 8054.41 18594.2 8125.64 18549.1C8192.84 18506.9 8253.64 18459.5 8308.04 18421.1C8395.47 18352 8504.43 18315.7 8615.88 18318.7C8645.92 18320.6 8675.3 18328.4 8702.28 18341.8C8711.92 18345.5 8720.81 18350.9 8728.52 18357.8Z" fill="#FAFAFA"/>
<path d="M12333.6 23260.2C12333.6 23260.2 12341.3 23265.3 12354.1 23277.4C12372.7 23295.7 12389.6 23315.6 12404.7 23337C12473.7 23435.6 12512.3 23552.2 12515.8 23672.6C12519.4 23792.9 12487.6 23911.6 12424.5 24014.1C12339.4 24151.7 12194.1 24261.1 12112.8 24419.2C12074.9 24496.4 12063.7 24583.9 12080.8 24668.2C12098.7 24747.8 12126.7 24824.8 12164 24897.3C12233.8 25036.8 12298.4 25172.5 12295.9 25297.9C12296.6 25346.9 12286.2 25395.3 12265.4 25439.7C12244.7 25484 12214.2 25523.1 12176.2 25553.9C12155.2 25569.7 12131.3 25581.3 12105.8 25587.8C12087.9 25591 12078.9 25591.7 12078.3 25587.8C12110.7 25577.4 12141.3 25561.6 12168.5 25541.1C12202.5 25510.2 12229.4 25472.2 12247.4 25429.9C12265.4 25387.6 12274.1 25342 12272.8 25296C12272.8 25178.2 12208.8 25049 12136.5 24908.8C12097 24834.3 12067.6 24754.9 12048.8 24672.6C12029.8 24581.3 12041.8 24486.3 12082.8 24402.6C12126.2 24323.4 12180 24250.5 12242.8 24185.6C12299.7 24125.9 12351.7 24061.7 12398.3 23993.6C12472.8 23877.2 12503.8 23738.3 12486 23601.3C12475 23508.5 12443.5 23419.3 12393.8 23340.2C12358 23288.3 12331.1 23262.1 12333.6 23260.2Z" fill="#FAFAFA"/>
<path d="M15016.5 26069.8C15007.6 26063.7 14999.4 26056.6 14992.2 26048.6C14971.4 26026.1 14954.7 26000.2 14942.9 25971.8C14904.5 25864 14910.3 25745.3 14958.9 25641.6C14989.1 25569.5 15031.3 25503.1 15083.7 25445.1C15138.1 25381.1 15202.1 25321 15267.4 25253.1C15336.5 25186.8 15396.4 25111.5 15445.3 25029.1C15493.4 24938.9 15522.4 24839.8 15530.4 24737.9C15552.2 24527.4 15513.8 24325.1 15503.6 24138.9C15485.5 23972.7 15507.4 23804.6 15567.6 23648.6C15610.3 23544 15683.7 23454.8 15778.1 23392.6C15803.9 23376.3 15831.7 23363.2 15860.7 23353.6C15870.5 23349.7 15880.9 23347.3 15891.4 23346.6C15854.5 23362.7 15819 23381.7 15785.2 23403.5C15696.4 23468.1 15628.4 23557 15589.3 23659.5C15534.5 23812.8 15516.3 23976.7 15536.2 24138.2C15548.4 24321.9 15588 24525.4 15566.3 24743C15557.4 24849.3 15526.7 24952.6 15476 25046.4C15425.1 25132.5 15362.2 25211 15289.2 25279.4C15156 25407.4 15033.2 25523.2 14980.7 25653.1C14942.2 25718 14924.9 25793.3 14931.4 25868.5C14937.8 25943.6 14967.6 26014.9 15016.5 26072.3V26069.8Z" fill="#FAFAFA"/>
<path d="M15346.8 26918.4C15324.6 26936.1 15300.6 26951.4 15275.1 26963.8C15202.7 27000.5 15123.7 27022.2 15042.8 27027.8C14914.7 27038.5 14785.8 27024.2 14663.2 26985.6C14501.8 26933.7 14347.3 26862.3 14203.1 26773.1C14031.1 26664.3 13848.6 26572.9 13658.4 26500.5C13435.8 26431.4 13198.6 26423.2 12971.7 26476.8C12720.9 26538.6 12476.3 26623.3 12240.8 26729.6C11986.7 26847.8 11721.5 26940.9 11449.2 27007.4C11309.3 27036.6 11165.8 27044.5 11023.6 27031C10884.8 27016.1 10750 26976.2 10625.5 26913.3C10381 26791 10185.2 26613.8 9985.48 26469.1C9889.81 26396.2 9787.86 26332 9680.84 26277.1L9602.76 26240C9576.52 26228.5 9549.64 26220.2 9523.4 26209.9C9471.38 26190.6 9418.15 26174.8 9364.04 26162.6C9166.03 26116.2 8961.03 26107.7 8759.88 26137.6C8593.87 26161.4 8432.31 26209.7 8280.52 26281C8246.6 26295.7 8216.52 26314.9 8185.16 26330.2C8155.67 26345.1 8127.23 26362 8100.04 26380.8C8073.8 26398.7 8048.2 26414.7 8024.52 26431.4L7960.52 26481.9C7923.96 26510.3 7889.32 26541.1 7856.84 26574.1C7831.52 26596.5 7807.98 26620.9 7786.44 26647L7744.2 26693.8C7734.6 26704 7729.48 26709.1 7728.84 26708.5L7741.64 26691.2L7781.32 26642.6C7802.19 26615.7 7825.08 26590.4 7849.8 26567C7881.88 26533.3 7916.08 26501.7 7952.2 26472.3L8016.2 26419.2L8092.36 26367.4C8119.67 26348.4 8148.09 26331.1 8177.48 26315.5C8208.2 26298.9 8241.48 26279.7 8272.84 26264.3C8424.8 26189.2 8587.29 26137.6 8754.76 26111.4C8958.58 26078.8 9166.78 26086 9367.88 26132.5C9423.06 26144.6 9477.37 26160.4 9530.44 26179.8C9557.96 26190.1 9585.48 26198.4 9612.36 26209.9L9691.72 26247.7C9800.4 26302.5 9904.05 26366.7 10001.5 26439.7C10203.1 26585 10398.3 26759.7 10637.6 26879.4C10757.7 26940.4 10887.8 26979 11021.6 26993.3C11160.7 27006.7 11301 26998.7 11437.6 26969.6C11707.3 26905.2 11970.1 26814.8 12222.3 26699.5C12459.3 26591.4 12705.9 26505.6 12958.9 26443.5C13191.8 26389.5 13434.9 26399 13662.9 26471C13854.4 26545.2 14037.9 26638.5 14210.8 26749.4C14352.5 26839.3 14504.7 26911.5 14663.9 26964.5C14784.3 27003.8 14911.2 27019.9 15037.6 27011.8C15117.5 27006.9 15195.7 26986.7 15268 26952.3C15320.5 26934.4 15346.8 26916.5 15346.8 26918.4Z" fill="#FAFAFA"/>
<path d="M11784.5 16243.2C12128.2 16260.1 12465.1 16143.2 12724.5 15917.1C12983.9 15691 13145.7 15373.2 13175.9 15030.4C13213 14608 13239.9 14247 13239.9 14247C13239.9 14247 14327.9 14219.5 14482.1 13152.6C14636.4 12085.8 14770.8 9607.68 14770.8 9607.68C14197.1 9267.65 13543.1 9086.95 12876.2 9084.25C12209.3 9081.55 11553.9 9256.95 10977.5 9592.32L10802.8 9694.08L10522.4 14841.6C10512.9 15016.6 10537.9 15191.8 10596.3 15357C10654.6 15522.3 10745 15674.4 10862.2 15804.7C10979.5 15934.9 11121.4 16040.7 11279.6 16115.9C11437.9 16191.2 11609.5 16234.4 11784.5 16243.2Z" fill="#FFBE9D"/>
<path d="M13393.5 12415.4C13393.5 12403.2 13486.9 12396.8 13638 12395.5C13677 12395.5 13708.4 12391.7 13713.5 12371.2C13719.9 12332.8 13715.5 12293.3 13700.7 12257.3L13622.6 11943C13517 11495 13449.8 11129.6 13472.8 11124.5C13495.9 11119.4 13600.8 11477.1 13705.2 11923.8C13729.5 12032.6 13753.2 12137 13776.2 12239.4C13794.5 12292.2 13794.5 12349.7 13776.2 12402.6C13768.7 12416.5 13758.1 12428.4 13745.3 12437.6C13732.4 12446.7 13717.6 12452.6 13702 12455C13680.7 12458 13659.2 12458 13638 12455C13485 12441 13392.8 12426.9 13393.5 12415.4Z" fill="#263238"/>
<path d="M13246.3 14232.3C12751 14178 12283.2 13977.4 11902.3 13656.3C11902.3 13656.3 12132 14468.5 13210.4 14510.7L13246.3 14232.3Z" fill="#EB996E"/>
<path d="M14756.7 9879.04C14756.7 9879.04 14084.7 10160 13255.9 9687.04C12711.9 9377.28 12068 9205.12 11917.6 9309.44C11767.2 9413.76 11705.8 9988.48 11142.6 10126.1C11142.6 10126.1 11120.2 11227.5 10683.7 11164.2C10247.2 11100.8 10615.9 9413.12 10615.9 9413.12L11716.7 8948.48L12898.8 8792.32L13993.2 9008.64L14834.8 9289.6L14756.7 9879.04Z" fill="#263238"/>
<path d="M10790.6 10815.4C10773.3 10805.1 10086.6 10503 10013 11236.5C9939.4 11969.9 10692.7 11890.6 10695.9 11870.1C10699.1 11849.6 10790.6 10815.4 10790.6 10815.4Z" fill="#FFBE9D"/>
<path d="M10498.8 11572.5C10498.8 11572.5 10485.3 11580.2 10462.9 11587.8C10431.2 11598.1 10396.8 11595.5 10366.9 11580.8C10292 11545 10238.9 11415 10248.5 11282.6C10252.5 11219.6 10270.7 11158.3 10301.6 11103.4C10310.8 11081.1 10325.1 11061.4 10343.5 11045.9C10361.9 11030.4 10383.8 11019.6 10407.2 11014.4C10422.4 11011.6 10438 11014.3 10451.3 11022C10464.5 11029.8 10474.6 11042.1 10479.6 11056.6C10487.2 11078.4 10479.6 11092.5 10485.3 11094.4C10491.1 11096.3 10502 11083.5 10498.8 11052.8C10496.8 11034 10488.2 11016.5 10474.4 11003.5C10455.8 10986.4 10431.2 10977.2 10406 10977.9C10375.2 10981.1 10345.8 10992.1 10320.5 11009.7C10295.2 11027.4 10274.8 11051.3 10261.3 11079C10223.9 11139.6 10202 11208.4 10197.3 11279.4C10187.1 11427.2 10249.8 11573.1 10352.8 11614.1C10371.9 11621.7 10392.4 11624.9 10412.9 11623.6C10433.4 11622.3 10453.3 11616.4 10471.2 11606.4C10495.6 11590.4 10501.3 11574.4 10498.8 11572.5Z" fill="#EB996E"/>
<path d="M11630.3 9427.84C11487 9593.95 11322.9 9740.87 11142 9864.96C10958.2 9989.23 10733.1 10036.8 10514.8 9997.44C10301.6 9948.16 10112.8 9763.84 10103.9 9544.32C10094.9 9324.8 10309.3 9112.32 10523.1 9160.32C10486.7 9160.86 10450.7 9152.68 10418 9136.48C10385.4 9120.28 10357.2 9096.51 10335.6 9067.17C10314 9037.83 10299.8 9003.75 10294.1 8967.79C10288.3 8931.83 10291.3 8895.02 10302.7 8860.43C10314.1 8825.84 10333.6 8794.47 10359.5 8768.94C10385.5 8743.41 10417.2 8724.46 10452 8713.66C10486.7 8702.86 10523.6 8700.54 10559.5 8706.87C10595.3 8713.21 10629.1 8728.02 10658.1 8750.08C10471.9 8714.88 10451.4 8419.84 10599.2 8302.08C10747.1 8184.32 10964.7 8209.92 11139.4 8280.96C11314.1 8352 11476 8462.08 11661 8501.76C11950.9 8565.76 12248.5 8443.52 12505.2 8294.4C12761.8 8145.28 13005 7963.52 13291.1 7884.16C13641.8 7787.52 14021.3 7858.56 14356.7 7999.36C14640.5 8107.99 14890.4 8290.23 15080.5 8527.36C15261.6 8769.28 15351.2 9090.56 15272.5 9381.76C15193.8 9672.96 14921.2 9914.88 14618.4 9916.16C14618.4 9916.16 13939.4 9984 13386.4 9573.76C12833.5 9163.52 11666.1 9215.36 11666.1 9215.36L11630.3 9427.84Z" fill="#263238"/>
<path d="M10610.8 8575.36C10610.8 8575.36 10624.2 8589.44 10653 8609.28C10681.8 8629.12 10726.6 8656.64 10784.8 8689.92C10952.3 8780.88 11130 8851.57 11314.1 8900.48C11588.2 8973.82 11872.7 9000.86 12155.7 8980.48C12475.7 8959.36 12814.3 8852.48 13165.6 8769.92C13517 8687.36 13863.2 8641.92 14164 8714.88C14464.8 8787.84 14700.4 8965.76 14804 9171.2C14889.3 9335.25 14909.2 9525.54 14859.7 9703.68C14836.7 9767.88 14808.3 9829.98 14774.6 9889.28C14774.6 9889.28 14790 9878.4 14813 9850.88C14844.8 9808.96 14870.2 9762.6 14888.5 9713.28C14920.6 9621.3 14934.1 9523.85 14928.2 9426.61C14922.2 9329.36 14897 9234.28 14854 9146.88C14747.7 8920.32 14496.2 8721.28 14180.7 8644.48C13865.2 8567.68 13501 8606.08 13146.4 8693.76C12791.9 8781.44 12460.4 8885.76 12149.3 8908.16C11873.5 8930.26 11596 8908.66 11326.9 8844.16C10862.9 8732.8 10614.6 8558.08 10610.8 8575.36Z" fill="#455A64"/>
<path d="M10278 9707.52C10270.3 9711.36 10294 9783.04 10373.3 9874.56C10478.8 9993.29 10619.3 10075.3 10774.5 10108.8C10929.8 10142.3 11091.6 10125.5 11236.7 10060.8C11346.8 10010.9 11398 9955.2 11392.2 9948.16C11386.4 9941.12 11323.7 9975.68 11216.8 10012.2C11079.5 10057.7 10932.4 10065.7 10790.9 10035.2C10649.5 10004.7 10518.7 9936.85 10412.4 9838.72C10329.2 9760.64 10290.8 9701.12 10278 9707.52Z" fill="#455A64"/>
<path d="M10507.1 9343.36C10488.5 9352.32 10544.8 9485.44 10686.9 9583.36C10829 9681.28 10973 9687.68 10974.3 9666.56C10975.6 9645.44 10856.5 9606.4 10731.1 9518.72C10605.6 9431.04 10526.3 9333.12 10507.1 9343.36Z" fill="#455A64"/>
<path d="M15117 10367.4C15126.6 10367.4 15147.7 10333.4 15152.8 10267.5C15158.3 10180.5 15135.6 10094.1 15088.1 10021C15040.6 9947.96 14970.9 9892.11 14889.2 9861.76C14825.2 9840 14785.5 9844.48 14783.6 9854.08C14777.2 9875.2 14928.2 9918.08 15022.3 10064C15116.4 10209.9 15095.2 10367.4 15117 10367.4Z" fill="#263238"/>
<path d="M15497.2 9316.48C15475.4 9307.52 15394.8 9501.44 15202.8 9661.44C15010.8 9821.44 14809.2 9873.92 14814.9 9896.96C14820.7 9920 15046 9896.96 15254 9721.6C15462 9546.24 15517.6 9319.04 15497.2 9316.48Z" fill="#455A64"/>
<path d="M14386.8 11233.3C14381.8 11276 14360.2 11315.2 14326.7 11342.2C14293.2 11369.2 14250.4 11382.1 14207.6 11377.9C14186.5 11376.9 14165.9 11371.6 14146.9 11362.5C14127.9 11353.3 14110.9 11340.5 14096.9 11324.7C14083 11308.9 14072.3 11290.4 14065.6 11270.5C14058.9 11250.5 14056.2 11229.3 14057.8 11208.3C14062.9 11165.6 14084.6 11126.6 14118 11099.6C14151.5 11072.6 14194.2 11059.7 14237 11063.7C14258.1 11064.7 14278.7 11070 14297.7 11079.1C14316.7 11088.3 14333.7 11101.1 14347.6 11116.9C14361.6 11132.7 14372.2 11151.2 14378.9 11171.1C14385.7 11191.1 14388.3 11212.3 14386.8 11233.3Z" fill="#263238"/>
<path d="M14514.8 11219.2C14491.7 11237.8 14379.7 11129.6 14203.7 11107.2C14027.7 11084.8 13886.9 11155.8 13870.3 11132.2C13862.6 11121.3 13888.2 11085.4 13949.6 11051.5C14032.8 11008.9 14127.1 10992.8 14219.7 11005.4C14311.6 11016.7 14397.3 11057.3 14464.2 11121.3C14514.8 11169.9 14526.3 11210.9 14514.8 11219.2Z" fill="#263238"/>
<path d="M12781.6 11010.6C12776.6 11053.3 12755.1 11092.4 12721.6 11119.5C12688.1 11146.5 12645.3 11159.3 12602.4 11155.2C12581.4 11154.2 12560.7 11148.9 12541.8 11139.8C12522.8 11130.6 12505.8 11117.8 12491.8 11102C12477.9 11086.1 12467.2 11067.7 12460.5 11047.7C12453.8 11027.8 12451.1 11006.6 12452.7 10985.6C12458 10942.9 12479.7 10903.8 12513.3 10876.8C12546.9 10849.8 12589.6 10837 12632.5 10841C12653.5 10842 12674.2 10847.3 12693.1 10856.4C12712.1 10865.6 12729 10878.4 12742.9 10894.2C12756.8 10910.1 12767.4 10928.5 12774.1 10948.5C12780.7 10968.5 12783.3 10989.6 12781.6 11010.6Z" fill="#263238"/>
<path d="M12896.8 11007.4C12873.8 11025.9 12761.2 10918.4 12585.2 10895.4C12409.2 10872.3 12268.4 10944.6 12251.7 10920.3C12244 10909.4 12269.6 10873.6 12331.1 10840.3C12414.1 10797.1 12508.5 10781 12601.2 10794.2C12692.8 10805.6 12778.5 10846 12845.6 10909.4C12894.3 10956.8 12907.7 10997.8 12896.8 11007.4Z" fill="#263238"/>
<path d="M12829 10521.6C12793.8 10552.3 12662 10457.6 12483.4 10439.7C12304.8 10421.8 12156.4 10484.5 12128.8 10447.4C12116 10429.4 12139.7 10383.4 12205.6 10340.5C12294.2 10286.4 12398.1 10263 12501.3 10273.9C12604.4 10284.8 12701.2 10329.3 12776.5 10400.6C12831.6 10457 12845 10506.9 12829 10521.6Z" fill="#263238"/>
<path d="M14503.9 10815.4C14511.6 10836.5 14480.8 10871.7 14416.8 10899.2C14331.9 10931.8 14239.9 10941.5 14150 10927.4C14060.2 10913.2 13975.6 10875.7 13904.8 10818.6C13852.4 10772.5 13834.4 10730.2 13847.9 10712.3C13878.6 10676.5 14009.8 10738.6 14176.2 10762.2C14342.6 10785.9 14486 10769.9 14503.9 10815.4Z" fill="#263238"/>
<path d="M13258.4 12708.5C13276.4 12708.5 13289.2 12742.4 13287.2 12782.1C13285.3 12821.8 13268 12853.1 13249.5 12852.5C13230.9 12851.8 13218.1 12817.9 13220.7 12778.2C13223.2 12738.6 13239.9 12707.2 13258.4 12708.5Z" fill="#263238"/>
<path d="M10660 12151.7C10658.4 12167.1 10652.9 12181.8 10644 12194.6C10621.6 12231.1 10589.2 12260.4 10550.6 12279C10522 12293.7 10490.7 12302.3 10458.6 12304.2C10426.6 12306 10394.4 12301.2 10364.4 12289.9C10327.1 12276.3 10293.4 12254.7 10265.6 12226.4C10237.9 12198.2 10216.7 12164.1 10203.7 12126.7C10190.4 12082.6 10187.6 12036 10195.6 11990.7C10203.5 11945.3 10222.1 11902.5 10249.7 11865.6C10277.3 11828.7 10313.1 11798.8 10354.4 11778.4C10395.7 11757.9 10441.2 11747.5 10487.2 11747.8C10502.7 11746.4 10518.3 11748.8 10532.7 11754.9C10478.4 11759.3 10425.1 11772.7 10375.2 11794.6C10323.1 11820.4 10280.5 11862 10253.6 11913.6C10237.4 11944.4 10227.3 11978.2 10224.2 12012.9C10221 12047.6 10224.7 12082.6 10235.1 12115.8C10246.7 12148.7 10265.2 12178.6 10289.4 12203.7C10313.6 12228.7 10342.9 12248.3 10375.2 12261.1C10401.7 12271.8 10430 12277 10458.4 12276.5C10486.9 12275.9 10515 12269.6 10541 12257.9C10589.7 12234.2 10630.9 12197.4 10660 12151.7Z" fill="#455A64"/>
<path d="M11367.9 16534.4C11367.9 16534.4 11725 16030.1 11949.6 15746.6C12221.6 15403.5 12383.6 15106.6 12383.6 14947.2V14097.3C12383.6 14097.3 12722.1 14017.3 12767.6 14401.9C12813 14786.6 12767.6 14883.2 12767.6 14883.2C12767.6 14883.2 14189 13923.2 14285 13995.5C14454.6 14117.1 14133.3 14373.1 14133.3 14373.1L13267.4 15155.8L13760.2 14999.7C13817.7 14981.2 13880.1 14985.9 13934.1 15013C13988.1 15040 14029.3 15087.2 14048.8 15144.3C14065 15191.8 14065.2 15243.3 14049.4 15290.9C14033.5 15338.5 14002.6 15379.7 13961.2 15408L13669.3 15660.8L13815.9 15601.9C13868.3 15580.7 13926.7 15579.9 13979.7 15599.7C14032.7 15619.5 14076.3 15658.4 14102 15708.8C14123.2 15750 14131 15796.9 14124.4 15842.7C14117.7 15888.6 14096.9 15931.3 14064.8 15964.8L13799.2 16248.3L13923.4 16184.3C13942.5 16174.1 13963.4 16167.9 13984.9 16165.9C14006.4 16163.9 14028.1 16166.2 14048.8 16172.7C14069.4 16179.2 14088.5 16189.7 14105 16203.7C14121.5 16217.7 14135 16234.8 14144.8 16254.1C14161.2 16287.1 14165.7 16324.8 14157.7 16360.8C14149.7 16396.7 14129.5 16428.9 14100.7 16451.8L12509.6 17709.4L11367.9 16534.4Z" fill="#FFBE9D"/>
<path d="M12512.2 17705L12492.4 17686.4C12478.9 17672.3 12459.1 17653.1 12434.1 17628.8C12382.3 17575.7 12306.1 17500.8 12208.2 17401L11360.8 16542.1L11354.4 16535.7L11359.6 16528.6C11463.2 16380.6 11576.5 16223.1 11699.4 16056.3C11760.8 15971 11824.8 15885.7 11891.4 15800.3C11959.2 15713.3 12029 15625.6 12094.3 15530.2C12162.2 15434.2 12223.6 15333.8 12278 15229.4C12340.5 15124.5 12372.1 15004 12368.8 14881.9C12368.8 14629.8 12368.8 14368.2 12368.8 14097.3V14084.5H12380.4C12468 14066 12559.3 14081 12636.4 14126.7C12674.1 14152.1 12705.8 14185.6 12729.2 14224.6C12751.4 14264.6 12767.2 14307.8 12775.9 14352.6C12791.6 14440.4 12801.2 14529.2 12804.7 14618.2C12804.7 14663 12804.7 14708.5 12804.7 14753.9C12804.4 14801.2 12797 14848.3 12782.9 14893.4L12759.2 14873C12978.8 14725.8 13207.2 14576.6 13441.5 14425C13558.6 14350.7 13678.3 14276.5 13799.9 14204.2C13922.4 14129.4 14049.1 14061.6 14179.4 14001.3C14197.2 13993.3 14215.6 13986.7 14234.4 13981.4C14244.4 13978.4 14254.7 13976.5 14265.2 13975.7C14271.7 13974.5 14278.4 13974.5 14285 13975.7C14291.7 13977.6 14297.7 13981.3 14302.3 13986.6C14319.5 13999.4 14333.1 14016.6 14341.5 14036.4C14349.9 14056.2 14353 14077.9 14350.3 14099.2C14333.1 14175.5 14293.4 14244.8 14236.4 14298.2C14184.5 14353.9 14125.6 14399.4 14073.2 14449.3L13910.6 14595.8L13280.8 15167.4L13264.8 15139.8L13553.5 15049L13696.2 15004.2C13719.9 14996.5 13742.3 14988.8 13767.2 14981.8C13792.4 14974.9 13818.6 14972 13844.7 14973.4C13896.5 14975 13946.6 14993 13987.5 15024.9C14028.4 15056.7 14058.2 15100.8 14072.5 15150.6C14086.7 15200.5 14084.7 15253.7 14066.8 15302.3C14048.8 15351 14015.9 15392.7 13972.7 15421.4L13682.8 15671.7L13667.4 15647.4L13810.8 15589.8C13860.7 15569.2 13916 15565.6 13968.2 15579.5C14005.9 15589.5 14040.5 15608.7 14069 15635.3C14097.6 15661.9 14119.1 15695.1 14131.7 15731.9C14144.4 15768.8 14147.8 15808.2 14141.6 15846.7C14135.4 15885.2 14119.8 15921.6 14096.2 15952.6C14063.6 15991 14032.2 16022.4 14000.2 16057C13936.2 16124.2 13872.2 16190.1 13814 16254.7L13798 16234.2L13931.7 16164.5C13955.4 16153.5 13981.2 16148 14007.3 16148.4C14033.3 16148.8 14059 16155 14082.3 16166.6C14105.7 16178.2 14126.1 16194.9 14142.1 16215.5C14158.2 16236.1 14169.4 16260 14174.9 16285.4C14180.2 16310 14180 16335.4 14174.4 16359.8C14168.7 16384.2 14157.8 16407.1 14142.3 16426.9C14126.7 16444.9 14109.1 16461 14089.8 16474.9L14036.7 16516.5L13933 16598.4L13734.6 16753.9L13076.7 17265.9L12658.8 17594.2L12550.6 17677.4C12526.3 17696.6 12513.5 17705 12513.5 17705L12550.6 17673.6L12658.8 17586.6L13072.8 17254.4L13723.1 16736L13918.9 16579.8L14022 16497.9L14074.4 16456.3C14092.2 16443.8 14108.3 16429.2 14122.4 16412.8C14142.7 16386.3 14153.5 16353.8 14153.1 16320.5C14152.7 16287.2 14141.2 16254.9 14120.4 16228.9C14099.5 16202.9 14070.5 16184.6 14038.1 16177C14005.6 16169.4 13971.6 16172.9 13941.3 16186.9L13810.8 16255.4L13742.3 16291.8L13795.4 16234.9L13981 16036.5C14011.7 16003.2 14045 15968.6 14074.4 15934.7C14095.2 15907.4 14109 15875.3 14114.5 15841.4C14120 15807.4 14117.1 15772.7 14106.1 15740.1C14095 15707.6 14076.1 15678.3 14051.1 15654.7C14026 15631.2 13995.6 15614.1 13962.4 15605.1C13916.4 15592.9 13867.5 15596.3 13823.6 15614.7L13680.2 15672.3L13598.9 15705.6L13662.9 15647.4L13954.1 15394.6C13991.3 15369.3 14019.6 15332.8 14035 15290.5C14050.3 15248.2 14051.8 15202.1 14039.4 15158.8C14027 15115.5 14001.3 15077.3 13965.8 15049.5C13930.4 15021.8 13887.1 15005.9 13842.1 15004.2C13794.8 15005 13748 15015 13704.5 15033.6L13561.8 15079L13273.2 15170.6L13202.8 15193L13257.8 15143L13889.5 14571.5L14052 14424.3C14105.8 14373.8 14163.4 14329 14212.7 14276.5C14264.4 14228 14300.9 14165.5 14317.6 14096.6C14320 14080.7 14317.9 14064.5 14311.6 14049.7C14305.2 14034.9 14294.9 14022.1 14281.8 14012.8C14278 14003.2 14261.3 14009 14244 14012.8C14226.6 14018 14209.5 14024.2 14192.8 14031.4C14063.9 14090.8 13938.7 14157.9 13817.8 14232.3C13696.2 14304.6 13577.2 14378.2 13459.4 14452.5C13224.5 14600.3 12997.3 14748.8 12777.8 14896L12737.5 14922.9L12754.8 14874.9C12766.7 14833.2 12772.9 14790.2 12773.3 14746.9C12775.6 14702.5 12775.6 14658.1 12773.3 14613.8C12769.8 14526.4 12760.6 14439.4 12745.8 14353.3C12737.2 14312.4 12722.8 14272.9 12702.9 14236.2C12681.7 14201.4 12653.4 14171.5 12619.7 14148.5C12549.6 14107.1 12466.6 14093.2 12386.8 14109.4L12398.9 14094.7C12398.9 14365.2 12398.9 14626.8 12398.9 14879.4C12398.9 14911.4 12398.9 14943.4 12398.9 14975.4C12395.1 15007.1 12388.2 15038.4 12378.4 15068.8C12358.9 15127.6 12334.7 15184.7 12306.1 15239.7C12251 15345 12188.5 15446.4 12119.2 15543C12055.2 15638.4 11982.3 15727.4 11915.1 15813.1C11847.9 15898.9 11783.9 15984.6 11723.1 16069.1C11600.2 16235.5 11486.3 16393 11381.3 16539.5V16526.1L12210.8 17390.1L12434.1 17622.4L12492.4 17683.2L12512.2 17705Z" fill="#EB996E"/>
<path d="M12512.2 17705L8151.88 23465C7489.48 24338.6 6295.88 24658.6 5305.8 24184.3C4581.32 23837.4 4050.12 23109.1 4494.28 21610.2L8671.56 18751.4L11211.1 16300.8L12512.2 17705Z" fill="#FF725E"/>
<path d="M5305.8 24181.8L5352.52 24205.4L5489.48 24277.8C5669.92 24359 5862.24 24410.6 6059.08 24430.7C6201.44 24443.6 6344.79 24441.1 6486.6 24423C6567.5 24413 6647.83 24398.7 6727.24 24380.2C6768.84 24371.2 6809.8 24357.1 6855.24 24345.6C6898.63 24334.1 6941.36 24320.2 6983.24 24304C7167.3 24239.3 7343.2 24153.4 7507.4 24048C7693.21 23932.2 7859.17 23787.1 7998.92 23618.6C8296.52 23266.6 8604.36 22864.6 8937.16 22435.8C9269.96 22007 9615.56 21541.8 9984.2 21055.4C10720.2 20081.3 11524.7 19007.4 12365 17875.8L12498.8 17696V17717.1L11197.6 16309.1H11220C10331.1 17043.2 9508.04 17743.4 8762.44 18367.4C8016.84 18991.4 7349.32 19540.5 6784.84 19987.2C6220.36 20433.9 5760.84 20782.7 5440.84 21016.3C5281.48 21134.7 5156.04 21221.8 5072.2 21282.6L4976.2 21350.4L4942.92 21372.2L4974.28 21347.8L5069 21277.4C5151.56 21213.4 5275.72 21126.4 5433.8 21007.4C5753.8 20770.6 6208.2 20420.5 6770.76 19971.2C7333.32 19521.9 7999.56 18972.2 8743.88 18345.6C9488.2 17719 10310 17018.9 11198.3 16284.2L11210.4 16274.6L11220.7 16285.4L12522.4 17693.4L12532 17703.7L12523.7 17715.2L12390 17895.7C11549 19025.9 10743.9 20100.5 10006.6 21073.3C9637.32 21559.7 9286.6 22021.8 8953.8 22450.6C8621 22879.4 8313.8 23282.6 8011.72 23632C7869.97 23801.8 7701.85 23947.6 7513.8 24064C7348 24169.8 7170.36 24255.7 6984.52 24320C6942.63 24336.2 6899.9 24350 6856.52 24361.6C6813.64 24373.1 6772.04 24386.6 6728.52 24396.2C6648.5 24414.4 6567.51 24428 6485.96 24437.1C6343.03 24455 6198.55 24456.7 6055.24 24442.2C5857.25 24420.6 5664.16 24366.6 5483.72 24282.2C5423.56 24250.2 5378.76 24224 5348.68 24207.4C5318.6 24190.7 5305.8 24181.8 5305.8 24181.8Z" fill="#263238"/>
<path d="M8612.04 22681.6C8563.42 22649 8512.52 22619.9 8459.72 22594.6C8311.16 22534.3 8149.48 22513.8 7990.6 22535C7880.89 22547 7772.64 22569.7 7667.4 22602.9C7553.48 22637.4 7435.08 22686.1 7309.64 22735.4C7178.9 22789.6 7045.13 22836.2 6909 22874.9C6761.31 22917.4 6607.1 22932.6 6453.96 22919.7C6302.06 22900.4 6153.75 22859.2 6013.64 22797.4C5877.32 22741.1 5751.24 22676.5 5629.64 22621.4C5387.08 22508.2 5150.92 22435.2 4948.68 22446.1C4788.42 22450.2 4633.85 22506.3 4508.36 22606.1C4464.53 22643.7 4425.61 22686.7 4392.52 22734.1C4398.08 22719.7 4405.16 22706 4413.64 22693.1C4438.2 22656.4 4467.22 22622.9 4500.04 22593.3C4625.48 22486.5 4783.4 22425.4 4948.04 22419.8C5156.04 22404.5 5396.04 22478.1 5642.44 22590.1C5765.96 22645.1 5892.68 22708.5 6026.44 22764.2C6163.83 22824.2 6309.08 22864.2 6457.8 22883.2C6606.8 22895.9 6756.88 22881.4 6900.68 22840.3C7035.85 22802.2 7168.75 22756.5 7298.76 22703.4C7426.76 22654.7 7543.24 22606.7 7659.72 22575.4C7766.92 22542.9 7877.14 22521.5 7988.68 22511.4C8150.84 22491.7 8315.3 22516 8464.84 22581.8C8519.23 22606.4 8569.02 22640.2 8612.04 22681.6Z" fill="#FAFAFA"/>
<path d="M10153.2 20751.4C10167.8 20715.3 10173.5 20676.2 10169.8 20637.4C10159.6 20585.6 10136.8 20537 10103.3 20496.2C10069.8 20455.3 10026.7 20423.4 9977.8 20403.2C9909.64 20374.4 9838.63 20353 9765.96 20339.2C9680.65 20322.3 9597.55 20295.6 9518.28 20259.8C9341.38 20167.8 9183.17 20043.7 9051.72 19893.8C8907.72 19740.8 8779.72 19588.5 8642.76 19470.7C8525.23 19363.3 8385.33 19283.3 8233.16 19236.5C8129.55 19204.9 8020.09 19197.5 7913.16 19214.7C7838.28 19228.2 7799.88 19246.7 7798.6 19243.5C7797.32 19240.3 7807.56 19237.8 7826.12 19229.4C7853.26 19217.4 7881.57 19208.2 7910.6 19201.9C8018.79 19179.7 8130.76 19183.8 8237 19214.1C8394.26 19258.5 8539.21 19338.4 8660.68 19447.7C8806.16 19581 8943.98 19722.5 9073.48 19871.4C9202.33 20018 9356.72 20140.1 9529.16 20231.7C9689.16 20311 9859.4 20317.4 9985.48 20382.1C10037 20404.8 10082 20440.1 10116.1 20484.9C10150.2 20529.7 10172.5 20582.4 10180.7 20638.1C10184 20668.4 10179.3 20699.1 10167.2 20727C10164.1 20735.9 10159.3 20744.2 10153.2 20751.4Z" fill="#FAFAFA"/>
<path d="M22400.2 5588.48L22208.2 5600.64L21831.2 6208.64L21856.2 6588.8C21856.2 6588.8 21563.1 6626.56 21564.4 6126.08C21565.6 5625.6 21536.8 5754.88 21536.8 5754.88C21536.8 5754.88 20910.9 5793.92 20855.2 5742.72C20814.9 5706.24 20756.7 5085.44 20727.2 4748.8C20717.9 4667.84 20735.8 4586.07 20778.3 4516.49C20820.7 4446.91 20885.2 4393.52 20961.5 4364.8C20982.2 4357.72 21003.7 4353.21 21025.5 4351.36C21181.6 4341.12 21985.5 4415.36 21985.5 4415.36L22314.4 4393.6L22400.2 5588.48Z" fill="#455A64"/>
<path d="M22953.2 5656.32L22749 4360.32L22422.6 4382.08L22507.7 5659.52L22953.2 5656.32Z" fill="#455A64"/>
<path d="M17935.6 6752.64C17944.8 6753.33 17953.9 6755.49 17962.4 6759.04C17973.6 6762.07 17984.3 6766.37 17994.4 6771.84C18009 6777.71 18022.9 6784.99 18036 6793.6C18108.5 6838.82 18167.5 6902.61 18207 6978.35C18246.5 7054.09 18265.1 7139.01 18260.7 7224.32C18254.5 7305.34 18225.2 7382.89 18176.2 7447.68C18121.8 7518.71 18049.3 7573.77 17966.3 7607.04C17876.8 7643.81 17778.1 7651.43 17684 7628.8C17591.1 7602.34 17509.1 7546.97 17449.8 7470.72C17393.4 7401.05 17357.5 7317.06 17346.1 7228.16C17335.2 7147.78 17347.8 7065.94 17382.6 6992.64C17420.9 6916.16 17478.9 6851.32 17550.7 6804.84C17622.5 6758.37 17705.5 6731.95 17790.9 6728.32C17806.5 6726.96 17822.1 6726.96 17837.6 6728.32C17849.1 6728.74 17860.5 6730.46 17871.6 6733.44C17880.9 6734.44 17890 6737.04 17898.4 6741.12C17898.4 6744.96 17860 6734.72 17791.6 6741.12C17694.9 6749.92 17603.2 6787.86 17528.5 6849.92C17477.5 6891.92 17436.2 6944.56 17407.6 7004.16C17376.3 7073.04 17365.4 7149.44 17376.2 7224.32C17384.6 7311.19 17419.5 7393.4 17476 7459.89C17532.6 7526.38 17608.1 7573.98 17692.5 7596.27C17776.9 7618.57 17866.1 7614.51 17948.1 7584.63C18030.1 7554.75 18101 7500.48 18151.2 7429.12C18198.1 7369.67 18226.6 7297.82 18233.2 7222.4C18237.6 7157.07 18227.8 7091.56 18204.4 7030.4C18170.1 6939.59 18108.9 6861.42 18029 6806.4C17970.8 6766.08 17934.3 6755.84 17935.6 6752.64Z" fill="#263238"/>
<path d="M16603.1 7892.48C16626 7894.95 16648 7903.09 16667.1 7916.16C16713.6 7944.63 16751.6 7985.07 16777.2 8033.25C16802.7 8081.44 16814.9 8135.6 16812.4 8190.08C16808.7 8242.07 16790.1 8291.89 16758.6 8333.44C16724.2 8382.79 16675.5 8420.38 16619.1 8441.12C16562.7 8461.85 16501.2 8464.73 16443.1 8449.36C16385 8433.99 16333 8401.11 16294.1 8355.19C16255.3 8309.27 16231.6 8252.52 16226.1 8192.64C16219.3 8141.06 16227.5 8088.6 16249.8 8041.6C16269.8 8001.49 16298.7 7966.47 16334.3 7939.2C16384.5 7898.59 16447 7876.04 16511.6 7875.2C16534.8 7873.29 16558.1 7877.25 16579.4 7886.72C16579.4 7886.72 16554.4 7886.72 16515.4 7886.72C16455.3 7892.81 16398.4 7916.9 16352.2 7955.84C16318 7983.09 16291.4 8018.77 16275.1 8059.39C16258.9 8100.01 16253.4 8144.17 16259.4 8187.52C16264.3 8241.25 16285.6 8292.18 16320.3 8333.45C16355.1 8374.71 16401.7 8404.32 16453.8 8418.27C16505.9 8432.22 16561.1 8429.86 16611.8 8411.48C16662.5 8393.11 16706.4 8359.61 16737.5 8315.52C16764 8280.75 16780.9 8239.71 16786.8 8196.4C16792.6 8153.09 16787.1 8109.01 16770.8 8068.48C16750.1 8011.68 16712.6 7962.55 16663.2 7927.68C16626.8 7902.72 16601.8 7895.68 16603.1 7892.48Z" fill="#263238"/>
<path d="M18542.9 4799.36C18542.9 4799.36 18542.9 4781.44 18550.6 4746.24L18575.6 4590.08L18594.8 4474.88C18603.7 4432.64 18617.8 4387.84 18630.6 4338.56L18674.8 4178.56C18682.4 4149.15 18692 4120.29 18703.6 4092.16L18738.8 4002.56C18851 3700.92 19009 3418.36 19207.2 3164.8C19467.2 2825.83 19790.4 2540.46 20158.9 2324.48L20315.1 2234.88C20368.8 2208 20425.8 2184.32 20481.5 2158.08C20537.2 2131.84 20594.1 2103.04 20654.3 2083.84L20836 2019.84L20928.2 1989.12L21024.2 1966.08L21216.2 1920.64C21280.2 1907.2 21350 1901.44 21417.8 1891.84C21485.7 1880.06 21554.4 1872.79 21623.2 1870.08C21764.7 1860.17 21906.7 1860.17 22048.2 1870.08C22119.9 1875.84 22192.2 1877.76 22265.2 1887.36L22482.8 1925.12C22519.2 1932.16 22556.4 1936 22592.2 1945.6L22701 1975.68C22773.3 1996.8 22846.9 2014.08 22919.2 2039.68C23065.7 2092.1 23208.5 2154.1 23346.8 2225.28L23451.7 2278.4C23469.6 2288 23487.6 2296.32 23504.8 2305.92L23554.8 2337.92L23756.4 2465.92C23820.4 2512 23884.4 2564.48 23948.4 2613.76C23979.7 2639.36 24012.4 2662.4 24043.1 2691.2L24132 2775.68C24252.1 2889.98 24364.8 3011.83 24469.3 3140.48C24517.3 3208.96 24566 3277.44 24615.2 3346.56L24651.7 3398.4L24683.7 3453.44L24747.7 3564.16L24811.7 3674.88L24865.5 3792L24918.6 3910.4L24945.5 3969.28C24953.2 3989.12 24959.6 4010.24 24966.6 4033.28L25051.1 4280.32C25070.9 4365.44 25090.8 4451.2 25111.2 4536.32C25256 5242.77 25166.1 5977.17 24855.2 6627.84L24735.6 6862.08L24594.1 7082.24L24558.9 7136.64L24518.6 7187.84L24438.6 7289.6L24358.6 7390.08L24269.6 7482.88L24181.3 7575.04L24137.2 7621.12L24089.2 7662.72L23897.2 7827.2C23765.3 7927.61 23626.7 8018.91 23482.4 8100.48L23375.6 8164.48C23340.4 8184.96 23302 8199.04 23265.5 8216.32C23191.2 8248.96 23118.3 8284.8 23044 8314.24L22817.5 8391.04L22761.2 8410.24L22703.6 8424.32L22588.4 8451.2C22437.6 8486.11 22284.8 8511.12 22130.8 8526.08C22054.6 8532.48 21978.4 8531.84 21903.6 8534.4L21790.9 8538.24C21753.8 8538.24 21716.7 8533.76 21679.6 8531.2L21458.8 8515.84C21386.4 8507.52 21315.4 8492.16 21244.4 8480.64C21104.6 8456.68 20966.7 8423.1 20831.6 8380.16C20766.1 8360.9 20702 8337.39 20639.6 8309.76C20575.6 8284.16 20511.6 8262.4 20450.8 8233.6L20274.8 8139.52L20187.7 8094.08L20105.2 8042.24L19940.7 7935.36C19886.3 7902.08 19840.2 7859.2 19790.9 7822.08C19741.6 7784.96 19693.6 7746.56 19647.6 7707.52L19519.6 7582.72C19213.5 7284.75 18968.1 6930.26 18797 6538.88C18665.1 6245.23 18578.7 5933.15 18541 5613.44C18536.5 5580.16 18532.7 5549.44 18528.8 5517.44C18523.8 5487.62 18521.2 5457.44 18521.2 5427.2C18521.2 5368.96 18521.2 5313.92 18517.3 5262.72C18513.5 5211.52 18513.5 5165.44 18517.3 5122.56C18521.2 5079.68 18523.7 5040.64 18526.3 5006.08C18532 4937.6 18536.5 4885.12 18539.1 4848.64C18541.6 4812.16 18544.8 4794.88 18544.8 4794.88C18544.8 4794.88 18544.8 4813.44 18544.8 4848.64C18544.8 4883.84 18539.7 4937.6 18535.9 5006.72C18535.9 5041.28 18530.8 5079.68 18528.2 5122.56C18525.6 5165.44 18528.2 5212.16 18532 5262.72C18535.9 5313.28 18535.9 5368.32 18537.8 5426.56C18538.1 5456.61 18540.9 5486.57 18546.1 5516.16C18550 5547.52 18554.4 5580.16 18558.9 5611.52C18597.2 5929.47 18683.6 6239.77 18814.9 6531.84C18986.7 6919.88 19231.8 7271.06 19536.8 7566.08L19664.8 7688.96C19710.9 7728 19759.6 7764.48 19808.2 7802.88C19856.8 7841.28 19902.9 7882.24 19956.7 7914.88L20117.3 8017.28L20199.2 8069.12L20286.3 8113.28L20462.9 8203.52C20523.1 8231.68 20587.1 8253.44 20649.8 8279.04C20712.4 8305.74 20776.5 8328.82 20841.8 8348.16C20975.9 8390.39 21112.8 8423.32 21251.4 8446.72C21321.8 8457.6 21392.2 8473.6 21463.9 8481.28L21682.8 8496.64C21719.2 8496.64 21756.4 8503.04 21793.5 8503.04L21904.8 8499.2C21979.7 8499.2 22054.6 8499.2 22130.1 8490.24C22282.6 8475.27 22434 8450.26 22583.2 8415.36L22697.2 8388.48C22716.4 8384 22735.6 8380.16 22754.1 8375.04L22809.8 8355.84L23034.4 8279.04C23108.7 8250.24 23180.4 8215.04 23254 8182.4C23289.8 8164.48 23328.2 8151.04 23363.4 8130.56L23468.4 8066.56C23611.2 7985.4 23748.5 7894.74 23879.2 7795.2L24071.2 7632L24118.6 7591.04L24162.8 7545.6L24249.8 7454.08L24337.5 7362.56L24416.8 7262.72L24496.2 7161.6L24535.9 7111.68L24571.1 7057.28L24710.6 6839.68C24749.6 6762.24 24789.3 6684.8 24829 6607.36C24977.9 6285.75 25077.5 5943.57 25124.7 5592.32C25163.3 5240.13 25148.6 4884.14 25081.2 4536.32C25061.3 4451.84 25041.5 4366.72 25021.6 4280.32C25001.8 4193.92 24966 4116.48 24938.4 4035.2C24931.4 4014.72 24925 3994.24 24917.3 3971.2L24891.1 3912.32L24838 3795.84L24785.5 3680L24721.5 3569.92L24657.5 3459.84L24625.5 3405.44L24589 3354.24L24445 3150.08C24341.5 3022.49 24229.9 2901.71 24110.9 2788.48L24023.2 2704.64C23994.4 2676.48 23959.2 2653.44 23929.8 2627.84C23865.8 2579.2 23805 2527.36 23737.8 2481.28L23538.8 2367.36L23488.8 2335.36C23472.2 2325.76 23454.3 2317.44 23437 2308.48L23333.3 2254.72C23196.6 2185.22 23055.5 2124.72 22910.9 2073.6C22839.2 2049.28 22766.3 2031.36 22694.6 2009.6L22587.1 1979.52C22551.2 1969.92 22514.1 1965.44 22478.3 1959.04L22263.2 1919.36C22191.6 1909.12 22119.2 1907.84 22048.2 1901.44C21908 1891.85 21767.3 1891.85 21627.1 1901.44C21558.7 1904.26 21490.5 1911.31 21422.9 1922.56C21355.7 1932.16 21288.5 1937.28 21223.2 1950.72L21031.2 1995.52L20935.9 2017.92C20905.2 2026.88 20875.1 2038.4 20844.4 2048L20663.9 2112C20603.7 2130.56 20549.3 2161.28 20492.4 2184.96C20435.4 2208.64 20380.4 2234.24 20326.6 2261.12L20171.7 2349.44C19805 2563.42 19482.8 2845.87 19222.6 3181.44C19024.4 3433.32 18865.5 3713.85 18751.6 4013.44L18715.7 4103.04C18704 4130.72 18694.2 4159.16 18686.3 4188.16C18670.3 4244.48 18655.6 4296.96 18641.5 4345.6C18627.4 4394.24 18614 4439.04 18604.4 4481.28C18594.8 4523.52 18589.6 4561.28 18583.9 4595.84C18571.1 4659.84 18561.5 4714.88 18555.1 4750.72C18548.7 4786.56 18542.9 4799.36 18542.9 4799.36Z" fill="#263238"/>
<path d="M8491.72 5892.48C8491.72 5896.32 8453.32 5901.44 8391.88 5932.16C8306.11 5977.37 8236.22 6047.71 8191.56 6133.76C8160.07 6193.09 8142.14 6258.67 8139.08 6325.76C8136.69 6401.38 8156.25 6476.07 8195.4 6540.8C8236.49 6617.84 8300.23 6680.42 8378 6720.11C8455.78 6759.8 8543.85 6774.68 8630.35 6762.76C8716.85 6750.83 8797.61 6712.66 8861.74 6653.4C8925.87 6594.15 8970.28 6516.65 8989 6431.36C9008.95 6358.49 9007.62 6281.42 8985.16 6209.28C8963.77 6146.68 8929.05 6089.47 8883.4 6041.6C8817.04 5970.86 8730.6 5922.17 8635.72 5902.08C8571.72 5888.64 8529.48 5894.4 8529.48 5890.56C8538.33 5887.54 8547.64 5886.03 8557 5886.08C8568.48 5884.76 8580.07 5884.76 8591.56 5886.08C8607.21 5885.93 8622.85 5887.22 8638.28 5889.92C8738.06 5905.75 8830.07 5953.33 8900.68 6025.6C8950.1 6075.4 8987.91 6135.49 9011.4 6201.6C9037.11 6278.52 9039.78 6361.27 9019.08 6439.68C8996.88 6526.44 8951.01 6605.32 8886.6 6667.52C8818.74 6736.17 8730.52 6781.07 8635.08 6795.52C8538.93 6806.85 8441.67 6787.36 8357.32 6739.84C8278.59 6697.28 8213.22 6633.69 8168.52 6556.16C8127.68 6486.24 8107.9 6406.01 8111.56 6325.12C8117.51 6239.86 8146.09 6157.74 8194.35 6087.2C8242.61 6016.67 8308.81 5960.28 8386.12 5923.84C8400.38 5917.14 8415.14 5911.58 8430.28 5907.2C8441.06 5903.3 8452.21 5900.51 8463.56 5898.88C8472.51 5895.15 8482.03 5892.98 8491.72 5892.48Z" fill="#263238"/>
<path d="M9706.43 6926.08C9706.43 6926.08 9682.75 6933.12 9642.43 6952.96C9589.42 6982.36 9546.41 7026.93 9518.92 7080.96C9497.78 7119.3 9487.01 7162.49 9487.68 7206.27C9488.36 7250.05 9500.45 7292.89 9522.75 7330.56C9548.12 7378.01 9587.42 7416.55 9635.37 7440.96C9683.31 7465.38 9737.59 7474.51 9790.89 7467.11C9844.18 7459.72 9893.93 7436.16 9933.41 7399.61C9972.9 7363.06 10000.2 7315.29 10011.7 7262.72C10023 7220.52 10023.1 7176.08 10011.9 7133.85C10000.6 7091.62 9978.51 7053.08 9947.71 7022.08C9906.83 6977.73 9853.52 6946.73 9794.75 6933.12C9752.51 6924.16 9730.75 6926.72 9730.75 6924.16C9752.81 6916.67 9776.48 6915.35 9799.24 6920.32C9853.2 6928.54 9903.93 6951.21 9946.07 6985.91C9988.21 7020.61 10020.2 7066.06 10038.6 7117.44C10055.3 7166.79 10057.3 7219.93 10044.4 7270.4C10031.8 7329.28 10001.4 7382.87 9957.27 7423.86C9913.17 7464.86 9857.51 7491.28 9797.87 7499.53C9738.22 7507.78 9677.49 7497.46 9623.91 7469.98C9570.34 7442.49 9526.53 7399.18 9498.43 7345.92C9472.08 7300.82 9459.62 7248.95 9462.59 7196.8C9466.39 7142.22 9484.79 7089.65 9515.87 7044.62C9546.94 6999.58 9589.55 6963.73 9639.24 6940.8C9659.93 6930 9683.12 6924.92 9706.43 6926.08Z" fill="#263238"/>
<path d="M4983.88 3413.12H4777.16L4329.16 2784V2371.84C4329.16 2371.84 4009.16 2352 4046.92 2892.16C4084.68 3432.32 4043.72 3294.72 4043.72 3294.72C4043.72 3294.72 3365.32 3294.72 3309 3358.72C3268.04 3401.6 3249.48 4075.52 3245 4440.96C3240.6 4529.16 3265.79 4616.29 3316.58 4688.53C3367.37 4760.77 3440.84 4813.97 3525.32 4839.68C3549.13 4845.97 3573.65 4849.2 3598.28 4849.28C3767.88 4849.28 4631.88 4711.68 4631.88 4711.68H4989L4983.88 3413.12Z" fill="#FF725E"/>
<path d="M5575.88 3299.84L5448.52 4712.96H5094.6V3328L5575.88 3299.84Z" fill="#FF725E"/>
<path d="M8125 3608.96C8125 3608.96 8125 3589.76 8119.88 3551.36C8114.76 3512.96 8114.12 3454.72 8109.64 3380.48C8109.64 3342.72 8105.16 3301.12 8102.6 3252.48C8100.04 3203.84 8088.52 3156.48 8080.2 3102.08C8071.88 3047.68 8062.92 2989.44 8052.68 2926.72C8048.48 2894.42 8041.63 2862.53 8032.2 2831.36C8023.88 2798.72 8014.92 2767.36 8005.96 2730.88C7922.62 2394.59 7788.83 2072.87 7609.16 1776.64C7373.54 1382.43 7064.36 1037.19 6698.44 759.68L6543.56 644.48C6489.16 608.64 6431.56 576 6375.24 540.8L6289.48 488.96C6261.11 470.302 6231.38 453.827 6200.52 439.68L6014.92 350.72C5983.56 336 5950.92 320 5920.2 305.92L5821 269.44L5618.76 198.4C5550.28 176 5478.6 161.28 5408.2 142.08L5298.76 114.56C5280.84 110.08 5262.92 104.96 5244.36 101.12L5189.32 92.8C5039.84 65.134 4888.67 47.6007 4736.84 40.3201C4659.4 40.3201 4581.96 30.0801 4503.24 31.3601L4266.44 43.52C4226.76 43.52 4187.08 43.5202 4146.76 51.2002L4027.72 69.76C3948.36 82.56 3867.08 92.16 3787.08 108.8C3626.8 145.103 3469.03 191.706 3314.76 248.32L3196.36 291.84C3176.52 299.52 3156.04 305.92 3136.84 314.24L3079.24 341.76L2848.2 453.76C2772.68 494.72 2700.36 542.08 2625.48 586.88C2589 609.92 2549.96 629.76 2514.76 656.64L2407.24 735.36C2264.19 841.107 2128.42 956.354 2000.84 1080.32L1819.08 1279.36L1773.64 1329.28C1759.56 1347.2 1746.12 1365.76 1732.68 1383.68L1650.76 1495.04L1568.2 1605.12L1495.88 1722.24L1424.2 1841.28L1388.36 1900.16C1377.48 1920.64 1367.88 1942.4 1357.64 1964.16L1236.04 2216.32C1204.04 2304.64 1172.04 2392.96 1138.76 2481.28C1021.21 2845.83 959.081 3225.96 954.436 3608.96C959.305 3991.52 1021.43 4371.2 1138.76 4735.36L1236.04 5000.32L1357 5252.48L1387.72 5316.48L1424.2 5376L1495.88 5494.4L1568.2 5612.16L1650.76 5723.52L1732.68 5832.96L1773.64 5887.36L1819.72 5937.92L2001.48 6138.24C2128.98 6262.04 2264.53 6377.28 2407.24 6483.2L2512.84 6561.92C2547.4 6588.16 2587.08 6608.64 2623.56 6631.68C2698.44 6676.48 2770.76 6723.84 2846.28 6764.8L3077.32 6876.16L3134.92 6904.32L3194.44 6926.72L3312.84 6970.24C3468.78 7027.07 3628.27 7073.67 3790.28 7109.76C3870.28 7126.4 3951.56 7136 4030.92 7148.8L4150.6 7167.36C4190.28 7172.48 4229.96 7172.48 4269.64 7175.04L4507.08 7187.2C4585.16 7187.2 4663.24 7180.8 4740.04 7178.24C4891.87 7170.96 5043.04 7153.43 5192.52 7125.76L5248.2 7117.44L5298.76 7103.36L5406.28 7075.84C5477.32 7056.64 5549 7041.92 5616.84 7018.88L5818.44 6945.92L5917.64 6909.44L6012.36 6864.64L6197.96 6775.68C6228.69 6761.29 6258.41 6744.82 6286.92 6726.4L6372.68 6674.56C6429.64 6639.36 6486.6 6606.72 6541 6570.88L6695.88 6455.68C7062.81 6178.77 7372.9 5833.7 7609.16 5439.36C7635.4 5395.84 7661.64 5354.24 7685.96 5311.36C7710.28 5268.48 7728.2 5224.32 7749.96 5183.36L7810.12 5058.56C7819.72 5038.08 7830.6 5018.24 7838.92 4994.56L7861.96 4930.56C7892.04 4849.28 7920.2 4771.2 7947.72 4696.96C7975.24 4622.72 7988.04 4548.48 8007.24 4480C8016.2 4445.44 8025.16 4412.16 8033.48 4379.52C8041.63 4349.3 8047.41 4318.48 8050.76 4287.36C8061 4223.36 8069.96 4167.04 8078.28 4112.64C8086.6 4058.24 8096.2 4008.32 8100.68 3962.24C8105.16 3916.16 8105.8 3874.56 8107.72 3834.24C8112.2 3760 8116.04 3706.24 8117.96 3663.36C8119.88 3620.48 8123.08 3605.12 8123.08 3605.12C8123.08 3605.12 8123.08 3624.96 8123.08 3663.36C8123.08 3701.76 8119.24 3760 8116.04 3834.88C8116.04 3872 8112.2 3914.24 8110.28 3962.88C8108.36 4011.52 8096.84 4058.88 8089.8 4113.28C8082.76 4167.68 8072.52 4226.56 8063.56 4289.28C8059.28 4321.72 8052.65 4353.8 8043.72 4385.28C8035.4 4417.92 8027.08 4449.28 8018.12 4486.4C7999.56 4554.88 7984.84 4629.76 7959.88 4704.64C7934.92 4779.52 7904.2 4857.6 7874.76 4939.52L7851.72 5003.52C7844.04 5024 7833.16 5043.84 7823.56 5067.52C7804.36 5108.48 7783.88 5150.08 7763.4 5195.52C7742.92 5240.96 7722.44 5281.28 7699.4 5323.52C7676.36 5365.76 7648.2 5408.64 7622.6 5451.52C7387.33 5848.37 7077.67 6196.07 6710.6 6475.52L6557.64 6591.36C6502.6 6627.84 6445 6660.48 6388.04 6696.32L6301.64 6748.8C6273.27 6767.46 6243.54 6783.93 6212.68 6798.08L6025.8 6888.96C5993.8 6903.68 5961.8 6919.68 5930.44 6933.76L5830.6 6970.88L5627.72 7045.12C5558.6 7068.16 5486.92 7082.88 5415.24 7102.72L5307.08 7130.88C5289.16 7135.36 5271.24 7140.48 5252.68 7144.32L5197 7152.64C5046.52 7181.05 4894.27 7199.01 4741.32 7206.4C4663.24 7206.4 4585.16 7217.28 4505.8 7216L4267.08 7204.48C4227.4 7201.28 4186.44 7204.48 4146.76 7196.8L4026.44 7178.24C3945.8 7165.44 3864.52 7155.84 3783.24 7139.2C3619.88 7103.19 3459.1 7056.37 3301.96 6999.04L3182.28 6954.88C3162.44 6947.84 3141.96 6940.8 3122.12 6932.48L3063.88 6904.96L2830.92 6792.32C2754.76 6751.36 2681.16 6703.36 2605.64 6658.56C2569.16 6634.88 2529.48 6615.04 2494.28 6588.16L2388.04 6508.8C2243.56 6402.18 2106.5 6285.86 1977.8 6160.64L1794.12 5959.04L1748.04 5908.48L1706.44 5853.44L1623.88 5742.72L1540.68 5631.36L1467.72 5512.96L1394.76 5393.28L1358.28 5333.12L1327.56 5269.12L1204.68 5013.12L1106.76 4745.6C988.3 4378.16 925.734 3995 921.156 3608.96C925.685 3222.03 988.469 2837.99 1107.4 2469.76C1140.04 2380.16 1171.4 2291.2 1205.32 2202.24C1239.24 2113.28 1287.88 2032 1328.2 1946.24C1338.44 1925.76 1348.04 1904 1358.92 1882.24L1395.4 1822.08L1468.36 1702.4L1541.32 1584L1623.88 1472.64L1707.08 1362.56C1720.52 1344 1733.96 1325.44 1748.68 1307.52L1794.76 1256.96L1978.44 1054.72C2107.23 930.051 2244.05 813.962 2388.04 707.2L2494.28 627.84C2529.48 600.96 2569.16 581.12 2606.28 557.44C2681.8 512.64 2754.76 464.64 2830.92 423.68L3064.52 311.04L3122.12 283.52C3141.96 275.2 3162.44 268.16 3182.28 261.12L3301.96 216.96C3459.1 159.632 3619.88 112.808 3783.24 76.8C3863.88 60.16 3945.8 50.56 4026.44 37.76L4146.76 19.2002C4186.44 14.0802 4226.76 14.72 4267.08 11.52L4505.8 0C4584.52 0 4663.24 6.4001 4740.68 9.6001C4893.84 16.9513 5046.31 34.9143 5197 63.3601L5252.68 71.6802C5271.24 75.5202 5289.16 80.6401 5307.08 85.1201L5415.24 113.28C5486.28 132.48 5558.6 147.84 5627.72 170.88L5830.6 245.12L5930.44 281.6L6025.16 327.04L6212.68 417.28C6243.42 431.894 6273.14 448.573 6301.64 467.2L6388.04 519.68C6445 554.88 6502.6 588.16 6557 624L6712.52 741.12C7079.82 1020.51 7389.71 1368.21 7625.16 1765.12C7804.43 2063.23 7937.16 2386.96 8018.76 2725.12C8027.72 2759.68 8036.04 2793.6 8044.36 2826.24C8053.29 2857.72 8059.92 2889.8 8064.2 2922.24C8073.16 2986.24 8082.12 3043.84 8090.44 3098.24C8098.76 3152.64 8107.08 3202.56 8110.92 3248.64C8114.76 3294.72 8114.76 3336.96 8116.68 3376.64C8119.88 3451.52 8121.8 3508.48 8123.72 3547.52C8125.64 3586.56 8125 3608.96 8125 3608.96Z" fill="#263238"/>
<path d="M13870.9 4857.6C13858.3 4857.27 13845.9 4854.45 13834.4 4849.32C13822.8 4844.19 13812.5 4836.83 13803.8 4827.68C13795.1 4818.53 13788.3 4807.75 13783.8 4795.98C13779.3 4784.2 13777.1 4771.65 13777.5 4759.04L13796.7 3903.36C13797 3888.56 13800.7 3874.02 13807.6 3860.91C13814.5 3847.81 13824.3 3836.48 13836.4 3827.84C13848.5 3819.27 13862.4 3813.59 13877 3811.26C13891.7 3808.93 13906.7 3810.01 13920.8 3814.4C14000.7 3837.64 14084.5 3844.29 14167.1 3833.94C14249.6 3823.6 14329.2 3796.47 14400.8 3754.24C14467.4 3717.85 14525.9 3668.26 14572.6 3608.51C14619.4 3548.76 14653.5 3480.09 14672.8 3406.72C14688 3332.17 14688 3255.32 14672.8 3180.77C14657.7 3106.22 14627.6 3035.49 14584.5 2972.8C14540.5 2902.5 14482.7 2841.83 14414.6 2794.43C14346.5 2747.03 14269.6 2713.88 14188.4 2696.96C13874.1 2638.72 13529.8 2848 13420.4 3164.16C13411.9 3188.26 13394.2 3208.01 13371.1 3219.05C13348.1 3230.09 13321.6 3231.53 13297.5 3223.04C13273.4 3214.55 13253.6 3196.84 13242.6 3173.79C13231.5 3150.75 13230.1 3124.26 13238.6 3100.16C13378.1 2698.24 13819.7 2432 14223.6 2506.88C14330.2 2528.68 14431.4 2571.77 14521 2633.58C14610.6 2695.38 14686.9 2774.62 14745.2 2866.56C14804.8 2949.92 14845.9 3045.07 14865.6 3145.62C14885.4 3246.17 14883.5 3349.79 14859.9 3449.53C14836.3 3549.26 14791.6 3642.78 14728.9 3723.82C14666.2 3804.86 14586.8 3871.53 14496.2 3919.36C14341.6 4009.23 14161.6 4045.66 13984.2 4023.04L13965.6 4761.6C13965.6 4786.84 13955.7 4811.07 13938 4829.03C13920.2 4847 13896.2 4857.26 13870.9 4857.6Z" fill="#263238"/>
<path d="M14019.4 5280C14019.4 5307.88 14011.1 5335.12 13995.6 5358.29C13980.1 5381.46 13958.1 5399.51 13932.3 5410.14C13906.6 5420.78 13878.2 5423.53 13850.9 5418.05C13823.6 5412.56 13798.5 5399.09 13778.8 5379.33C13759.1 5359.58 13745.8 5334.43 13740.4 5307.08C13735.1 5279.72 13737.9 5251.39 13748.7 5225.67C13759.5 5199.96 13777.6 5178.01 13800.8 5162.62C13824.1 5147.22 13851.4 5139.07 13879.2 5139.2C13897.7 5139.2 13916 5142.85 13933 5149.93C13950.1 5157.01 13965.5 5167.4 13978.6 5180.48C13991.6 5193.56 14001.9 5209.09 14008.9 5226.17C14015.9 5243.25 14019.5 5261.54 14019.4 5280Z" fill="#263238"/>
<path d="M3365.96 14707.8C3222.32 14709.3 3082.04 14664.4 2965.96 14579.8C2898.08 14527.1 2841.43 14461.3 2799.33 14386.3C2757.24 14311.4 2730.55 14228.8 2720.84 14143.4C2708.29 14062.8 2712.99 13980.4 2734.65 13901.8C2756.3 13823.2 2794.4 13750.1 2846.43 13687.3C2898.46 13624.5 2963.24 13573.4 3036.47 13537.5C3109.7 13501.6 3189.72 13481.7 3271.24 13479C3404.33 13470.5 3536.84 13503.1 3650.76 13572.5L3906.76 13093.1C3912.64 13081.9 3920.67 13072 3930.38 13064C3940.09 13055.9 3951.3 13049.8 3963.37 13046.1C3975.43 13042.3 3988.11 13041 4000.69 13042.1C4013.27 13043.3 4025.5 13046.9 4036.68 13052.8C4047.85 13058.7 4057.76 13066.7 4065.84 13076.4C4073.92 13086.1 4080 13097.3 4083.74 13109.4C4087.49 13121.5 4088.82 13134.2 4087.66 13146.7C4086.5 13159.3 4082.88 13171.5 4077 13182.7L3767.88 13759.4C3760.84 13772.5 3750.89 13783.8 3738.8 13792.4C3726.7 13801.1 3712.79 13806.8 3698.12 13809.3C3683.51 13811.8 3668.52 13810.7 3654.39 13806.3C3640.26 13801.8 3627.38 13794.1 3616.84 13783.7C3571.92 13742.7 3519.14 13711.3 3461.71 13691.4C3404.27 13671.5 3343.39 13663.5 3282.76 13667.8C3227.68 13670 3173.62 13683.4 3123.88 13707.2C3074.15 13730.9 3029.78 13764.6 2993.48 13806.1C2959.68 13849.9 2935.02 13900.1 2920.95 13953.6C2906.88 14007.2 2903.69 14063 2911.56 14117.8C2917.53 14178 2935.64 14236.3 2964.79 14289.4C2993.94 14342.4 3033.52 14388.9 3081.16 14426.2C3181.08 14492.6 3300.56 14523.1 3420.07 14512.8C3539.58 14502.4 3652.05 14451.8 3739.08 14369.3C3757.43 14352.5 3781.6 14343.4 3806.48 14344.1C3831.37 14344.7 3855.03 14355 3872.47 14372.8C3889.9 14390.6 3899.76 14414.4 3899.94 14439.3C3900.13 14464.2 3890.64 14488.2 3873.48 14506.2C3736.93 14636.8 3554.9 14709.1 3365.96 14707.8Z" fill="#263238"/>
<path d="M4062.92 12728.3C4072.34 12709.3 4087.21 12693.4 4105.65 12682.8C4124.08 12672.2 4145.24 12667.3 4166.47 12668.7C4187.69 12670.1 4208.01 12677.8 4224.87 12690.8C4241.72 12703.7 4254.35 12721.4 4261.16 12741.6C4267.97 12761.7 4268.64 12783.4 4263.11 12804C4257.57 12824.5 4246.06 12842.9 4230.05 12856.9C4214.03 12870.9 4194.23 12879.9 4173.14 12882.6C4152.04 12885.3 4130.61 12881.8 4111.56 12872.3C4086.02 12859.7 4066.55 12837.4 4057.43 12810.4C4048.31 12783.4 4050.28 12753.9 4062.92 12728.3Z" fill="#263238"/>
<path d="M22741.3 13092.5C22726.1 13092.6 22711 13089.1 22697.4 13082.2C22683.8 13075.3 22672.1 13065.2 22663.2 13052.8L22279.2 12521.6C22270.4 12509.6 22264.5 12495.7 22262.1 12481C22259.7 12466.4 22260.7 12451.3 22265.2 12437.1C22269.3 12422.6 22276.8 12409.2 22287 12398.1C22297.2 12387 22309.9 12378.4 22324 12373.1C22381.1 12351.9 22433.2 12319.1 22477 12276.8C22520.8 12234.5 22555.5 12183.6 22578.8 12127.4C22601.5 12077.2 22613.6 12022.9 22614.3 11967.8C22615.1 11912.8 22604.5 11858.1 22583.2 11807.4C22559.3 11757.4 22525.4 11712.8 22483.7 11676.3C22442 11639.8 22393.4 11612.1 22340.7 11594.9C22284 11573.7 22223.6 11564.1 22163.1 11566.8C22102.6 11569.4 22043.3 11584.2 21988.7 11610.2C21885 11670.1 21804.7 11763.3 21760.8 11874.6C21716.9 11985.9 21711.9 12108.9 21746.8 12223.4C21754.7 12247.5 21752.8 12273.9 21741.3 12296.7C21729.9 12319.4 21709.8 12336.7 21685.6 12344.6C21661.4 12352.6 21635.1 12350.7 21612.3 12339.2C21589.6 12327.7 21572.3 12307.7 21564.4 12283.5C21514.5 12125.3 21520.8 11954.7 21581.9 11800.5C21643.1 11646.3 21755.6 11517.8 21900.4 11436.8C21978.3 11399.2 22063 11377.7 22149.4 11373.5C22235.8 11369.3 22322.2 11382.6 22403.4 11412.5C22480.5 11438.3 22551.6 11479.5 22612.4 11533.5C22673.2 11587.5 22722.5 11653.2 22757.3 11726.7C22789.6 11801.5 22806.3 11882.1 22806.3 11963.5C22806.3 12045 22789.6 12125.5 22757.3 12200.3C22705.8 12323.2 22618 12427.4 22505.8 12499.2L22825.8 12938.2C22833.2 12948.5 22838.6 12960.1 22841.5 12972.4C22844.4 12984.7 22844.9 12997.5 22842.9 13010C22840.8 13022.5 22836.4 13034.4 22829.7 13045.2C22823 13055.9 22814.3 13065.3 22804 13072.6C22786.2 13086.5 22763.9 13093.6 22741.3 13092.5Z" fill="#263238"/>
<path d="M23072.8 13243.5C23085.7 13260.5 23093.2 13280.8 23094.5 13302C23095.7 13323.2 23090.7 13344.3 23080 13362.7C23069.3 13381 23053.3 13395.8 23034.2 13405.1C23015.2 13414.4 22993.7 13417.8 22972.7 13415C22951.6 13412.1 22931.9 13403.1 22916 13389C22900 13375 22888.6 13356.5 22883.2 13336C22877.8 13315.5 22878.5 13293.8 22885.4 13273.7C22892.3 13253.6 22904.9 13235.9 22921.8 13223C22944.6 13205.8 22973.2 13198.3 23001.5 13202.2C23029.8 13206 23055.5 13220.9 23072.8 13243.5Z" fill="#263238"/>
</svg>
