<svg width="16" height="16" viewBox="0 0 16 16" fill="none" xmlns="http://www.w3.org/2000/svg">
<path d="M3.09202 14.4433L2.80254 14.9972L2.80254 14.9972L3.09202 14.4433ZM2.21799 13.5468L2.77772 13.2687L2.77772 13.2687L2.21799 13.5468ZM12.908 14.4433L12.6185 13.8893L12.908 14.4433ZM13.782 13.5468L13.2223 13.2687L13.2223 13.2687L13.782 13.5468ZM12.908 2.58271L12.6185 3.13664L12.6185 3.13664L12.908 2.58271ZM13.782 3.47916L14.3417 3.20109V3.20109L13.782 3.47916ZM3.09202 2.58271L3.38149 3.13664H3.38149L3.09202 2.58271ZM2.21799 3.47916L2.77772 3.75723L2.21799 3.47916ZM5.95833 1.3335C5.95833 0.988318 5.67851 0.708496 5.33333 0.708496C4.98816 0.708496 4.70833 0.988318 4.70833 1.3335H5.95833ZM4.70833 3.38478C4.70833 3.72996 4.98816 4.00978 5.33333 4.00978C5.67851 4.00978 5.95833 3.72996 5.95833 3.38478H4.70833ZM11.2917 1.3335C11.2917 0.988318 11.0118 0.708496 10.6667 0.708496C10.3215 0.708496 10.0417 0.988318 10.0417 1.3335H11.2917ZM10.0417 3.38478C10.0417 3.72996 10.3215 4.00978 10.6667 4.00978C11.0118 4.00978 11.2917 3.72996 11.2917 3.38478H10.0417ZM5.2 2.35914V2.98414H10.8V2.35914V1.73414H5.2V2.35914ZM10.8 14.6668V14.0418H5.2V14.6668V15.2918H10.8V14.6668ZM2 11.3848H2.625V5.77794H2H1.375V11.3848H2ZM2 5.77794H2.625V5.64119H2H1.375V5.77794H2ZM14 5.64119H13.375V5.77794H14H14.625V5.64119H14ZM14 5.77794H13.375V11.3848H14H14.625V5.77794H14ZM2 5.77794V6.40294H14V5.77794V5.15294H2V5.77794ZM5.2 14.6668V14.0418C4.62937 14.0418 4.23995 14.0413 3.9386 14.0161C3.64502 13.9915 3.49123 13.9467 3.38149 13.8893L3.09202 14.4433L2.80254 14.9972C3.12063 15.1634 3.46078 15.2304 3.83421 15.2617C4.19987 15.2923 4.65052 15.2918 5.2 15.2918V14.6668ZM2 11.3848H1.375C1.375 11.9491 1.37454 12.4091 1.40422 12.7817C1.43445 13.1612 1.4989 13.5041 1.65825 13.8249L2.21799 13.5468L2.77772 13.2687C2.71909 13.1507 2.67454 12.9871 2.65027 12.6824C2.62546 12.3709 2.625 11.9692 2.625 11.3848H2ZM3.09202 14.4433L3.38149 13.8893C3.12399 13.7548 2.91171 13.5384 2.77772 13.2687L2.21799 13.5468L1.65825 13.8249C1.90776 14.3271 2.3074 14.7384 2.80254 14.9972L3.09202 14.4433ZM10.8 14.6668V15.2918C11.3495 15.2918 11.8001 15.2923 12.1658 15.2617C12.5392 15.2304 12.8794 15.1634 13.1975 14.9972L12.908 14.4433L12.6185 13.8893C12.5088 13.9467 12.355 13.9915 12.0614 14.0161C11.7601 14.0413 11.3706 14.0418 10.8 14.0418V14.6668ZM14 11.3848H13.375C13.375 11.9692 13.3745 12.3709 13.3497 12.6824C13.3255 12.9871 13.2809 13.1507 13.2223 13.2687L13.782 13.5468L14.3417 13.8249C14.5011 13.5041 14.5655 13.1612 14.5958 12.7817C14.6255 12.4091 14.625 11.9491 14.625 11.3848H14ZM12.908 14.4433L13.1975 14.9972C13.6926 14.7384 14.0922 14.3271 14.3417 13.8249L13.782 13.5468L13.2223 13.2687C13.0883 13.5384 12.876 13.7548 12.6185 13.8893L12.908 14.4433ZM10.8 2.35914V2.98414C11.3706 2.98414 11.7601 2.98465 12.0614 3.0099C12.355 3.0345 12.5088 3.07929 12.6185 3.13664L12.908 2.58271L13.1975 2.02879C12.8794 1.86256 12.5392 1.79556 12.1658 1.76427C11.8001 1.73363 11.3495 1.73414 10.8 1.73414V2.35914ZM14 5.64119H14.625C14.625 5.07683 14.6255 4.61691 14.5958 4.24428C14.5655 3.8648 14.5011 3.52186 14.3417 3.20109L13.782 3.47916L13.2223 3.75723C13.2809 3.87524 13.3255 4.03891 13.3497 4.34354C13.3745 4.65502 13.375 5.05672 13.375 5.64119H14ZM12.908 2.58271L12.6185 3.13664C12.876 3.27121 13.0883 3.48752 13.2223 3.75723L13.782 3.47916L14.3417 3.20109C14.0922 2.69884 13.6926 2.28755 13.1975 2.02879L12.908 2.58271ZM5.2 2.35914V1.73414C4.65052 1.73414 4.19987 1.73363 3.83421 1.76427C3.46078 1.79556 3.12063 1.86256 2.80254 2.02879L3.09202 2.58271L3.38149 3.13664C3.49123 3.07929 3.64502 3.0345 3.93859 3.0099C4.23995 2.98465 4.62937 2.98414 5.2 2.98414V2.35914ZM2 5.64119H2.625C2.625 5.05672 2.62546 4.65502 2.65027 4.34354C2.67454 4.03891 2.71909 3.87524 2.77772 3.75723L2.21799 3.47916L1.65825 3.20109C1.4989 3.52186 1.43445 3.8648 1.40422 4.24428C1.37454 4.61691 1.375 5.07683 1.375 5.64119H2ZM3.09202 2.58271L2.80254 2.02879C2.3074 2.28755 1.90776 2.69884 1.65825 3.20109L2.21799 3.47916L2.77772 3.75723C2.91171 3.48752 3.12399 3.27121 3.38149 3.13664L3.09202 2.58271ZM5.33333 1.3335H4.70833V3.38478H5.33333H5.95833V1.3335H5.33333ZM10.6667 1.3335H10.0417V3.38478H10.6667H11.2917V1.3335H10.6667Z" fill="#EEF2F6"/>
<path d="M5.33334 8.3667C4.98817 8.3667 4.70834 8.64652 4.70834 8.9917C4.70834 9.33688 4.98817 9.6167 5.33334 9.6167V8.3667ZM5.34001 9.6167C5.68519 9.6167 5.96501 9.33688 5.96501 8.9917C5.96501 8.64652 5.68519 8.3667 5.34001 8.3667V9.6167ZM5.33334 10.7599C4.98817 10.7599 4.70834 11.0397 4.70834 11.3849C4.70834 11.73 4.98817 12.0099 5.33334 12.0099V10.7599ZM5.34001 12.0099C5.68519 12.0099 5.96501 11.73 5.96501 11.3849C5.96501 11.0397 5.68519 10.7599 5.34001 10.7599V12.0099ZM8.00001 8.3667C7.65483 8.3667 7.37501 8.64652 7.37501 8.9917C7.37501 9.33688 7.65483 9.6167 8.00001 9.6167V8.3667ZM8.00668 9.6167C8.35186 9.6167 8.63168 9.33688 8.63168 8.9917C8.63168 8.64652 8.35186 8.3667 8.00668 8.3667V9.6167ZM8.00001 10.7599C7.65483 10.7599 7.37501 11.0397 7.37501 11.3849C7.37501 11.73 7.65483 12.0099 8.00001 12.0099V10.7599ZM8.00668 12.0099C8.35186 12.0099 8.63168 11.73 8.63168 11.3849C8.63168 11.0397 8.35186 10.7599 8.00668 10.7599V12.0099ZM10.6667 8.3667C10.3215 8.3667 10.0417 8.64652 10.0417 8.9917C10.0417 9.33688 10.3215 9.6167 10.6667 9.6167V8.3667ZM10.6733 9.6167C11.0185 9.6167 11.2983 9.33688 11.2983 8.9917C11.2983 8.64652 11.0185 8.3667 10.6733 8.3667V9.6167ZM10.6667 10.7599C10.3215 10.7599 10.0417 11.0397 10.0417 11.3849C10.0417 11.73 10.3215 12.0099 10.6667 12.0099V10.7599ZM10.6733 12.0099C11.0185 12.0099 11.2983 11.73 11.2983 11.3849C11.2983 11.0397 11.0185 10.7599 10.6733 10.7599V12.0099ZM5.33334 8.9917V9.6167H5.34001V8.9917V8.3667H5.33334V8.9917ZM5.33334 11.3849V12.0099H5.34001V11.3849V10.7599H5.33334V11.3849ZM8.00001 8.9917V9.6167H8.00668V8.9917V8.3667H8.00001V8.9917ZM8.00001 11.3849V12.0099H8.00668V11.3849V10.7599H8.00001V11.3849ZM10.6667 8.9917V9.6167H10.6733V8.9917V8.3667H10.6667V8.9917ZM10.6667 11.3849V12.0099H10.6733V11.3849V10.7599H10.6667V11.3849Z" fill="#EEF2F6"/>
</svg>
