<svg width="16" height="16" viewBox="0 0 16 16" fill="none" xmlns="http://www.w3.org/2000/svg">
<path d="M1.96131 8.7614L1.41519 9.06533L1.41519 9.06533L1.96131 8.7614ZM1.40488 11.066L2.00864 11.2276L2.00864 11.2276L1.40488 11.066ZM1.9808 8.91358L2.58456 9.07512L2.58456 9.07512L1.9808 8.91358ZM1.6008 11.2619L1.43926 10.6582L1.43925 10.6582L1.6008 11.2619ZM3.75323 10.686L3.91478 11.2898H3.91478L3.75323 10.686ZM1.38129 11.228L0.797835 11.4521L0.797843 11.4521L1.38129 11.228ZM1.4388 11.2855L1.21472 11.869L1.21474 11.869L1.4388 11.2855ZM14.0386 12.0947L13.4925 11.7908L13.4925 11.7908L14.0386 12.0947ZM14.5951 14.3993L13.9913 14.5609L13.9913 14.5609L14.5951 14.3993ZM14.0192 12.2469L13.4154 12.4085L14.0192 12.2469ZM12.0945 14.0388L11.7906 13.4927L11.7906 13.4927L12.0945 14.0388ZM14.3992 14.5953L14.5607 13.9915L14.5607 13.9915L14.3992 14.5953ZM12.2467 14.0193L12.4083 13.4156L12.2467 14.0193ZM14.6187 14.5613L14.0352 14.3373L14.0352 14.3373L14.6187 14.5613ZM14.5612 14.6188L14.3371 14.0354L14.3371 14.0354L14.5612 14.6188ZM7.66665 8.16683C7.32147 8.16683 7.04165 8.44665 7.04165 8.79183C7.04165 9.13701 7.32147 9.41683 7.66665 9.41683V8.16683ZM11.6666 9.41683C12.0118 9.41683 12.2916 9.13701 12.2916 8.79183C12.2916 8.44665 12.0118 8.16683 11.6666 8.16683V9.41683ZM7.66665 9.91683C7.32147 9.91683 7.04165 10.1967 7.04165 10.5418C7.04165 10.887 7.32147 11.1668 7.66665 11.1668V9.91683ZM10.6666 11.1668C11.0118 11.1668 11.2916 10.887 11.2916 10.5418C11.2916 10.1967 11.0118 9.91683 10.6666 9.91683V11.1668ZM11.1191 4.88105L10.9378 5.47918H10.9378L11.1191 4.88105ZM4.88087 11.1193L5.479 10.938V10.938L4.88087 11.1193ZM3.90541 10.7055L4.20934 10.1594L4.20934 10.1594L3.90541 10.7055ZM6.33331 1.3335V0.708496C3.22671 0.708496 0.708313 3.22689 0.708313 6.3335H1.33331H1.95831C1.95831 3.91725 3.91707 1.9585 6.33331 1.9585V1.3335ZM1.33331 6.3335H0.708313C0.708313 7.32368 0.964703 8.25586 1.41519 9.06533L1.96131 8.7614L2.50744 8.45747C2.15775 7.82912 1.95831 7.10554 1.95831 6.3335H1.33331ZM1.40488 11.066L2.00864 11.2276L2.58456 9.07512L1.9808 8.91358L1.37704 8.75203L0.801121 10.9045L1.40488 11.066ZM1.6008 11.2619L1.76235 11.8657L3.91478 11.2898L3.75323 10.686L3.59169 10.0822L1.43926 10.6582L1.6008 11.2619ZM1.40488 11.066L0.801122 10.9045C0.79256 10.9365 0.774337 11.0021 0.763918 11.0628C0.75405 11.1204 0.73032 11.2763 0.797835 11.4521L1.38129 11.228L1.96475 11.004C1.99342 11.0786 2.00087 11.1451 2.00167 11.1914C2.00242 11.2347 1.99742 11.2655 1.99591 11.2743C1.99428 11.2838 1.99334 11.2863 1.99609 11.2753C1.99875 11.2646 2.00236 11.251 2.00864 11.2276L1.40488 11.066ZM1.6008 11.2619L1.43925 10.6582C1.41578 10.6644 1.4022 10.6681 1.39152 10.6707C1.3805 10.6735 1.38305 10.6725 1.39254 10.6709C1.40132 10.6694 1.43209 10.6644 1.4754 10.6651C1.52175 10.6659 1.58819 10.6734 1.66285 10.7021L1.4388 11.2855L1.21474 11.869C1.39055 11.9365 1.54646 11.9128 1.60396 11.9029C1.66467 11.8925 1.73035 11.8742 1.76235 11.8657L1.6008 11.2619ZM1.38129 11.228L0.797843 11.4521C0.87148 11.6438 1.02298 11.7953 1.21472 11.869L1.4388 11.2855L1.66287 10.7021C1.80171 10.7554 1.91142 10.8651 1.96474 11.0039L1.38129 11.228ZM4.66665 9.66683H5.29165C5.29165 7.25058 7.2504 5.29183 9.66665 5.29183V4.66683V4.04183C6.56004 4.04183 4.04165 6.56023 4.04165 9.66683H4.66665ZM14.6666 9.66683H14.0416C14.0416 10.4389 13.8422 11.1624 13.4925 11.7908L14.0386 12.0947L14.5848 12.3987C15.0353 11.5892 15.2916 10.657 15.2916 9.66683H14.6666ZM14.5951 14.3993L15.1988 14.2378L14.6229 12.0854L14.0192 12.2469L13.4154 12.4085L13.9913 14.5609L14.5951 14.3993ZM12.0945 14.0388L11.7906 13.4927C11.1623 13.8424 10.4387 14.0418 9.66665 14.0418V14.6668V15.2918C10.6568 15.2918 11.589 15.0354 12.3985 14.585L12.0945 14.0388ZM14.3992 14.5953L14.5607 13.9915L12.4083 13.4156L12.2467 14.0193L12.0852 14.6231L14.2376 15.199L14.3992 14.5953ZM14.5951 14.3993L13.9913 14.5609C13.9976 14.5844 14.0012 14.5979 14.0039 14.6086C14.0066 14.6196 14.0057 14.6171 14.004 14.6076C14.0025 14.5988 13.9975 14.568 13.9983 14.5247C13.9991 14.4784 14.0065 14.4119 14.0352 14.3373L14.6187 14.5613L15.2021 14.7854C15.2696 14.6096 15.2459 14.4537 15.236 14.3962C15.2256 14.3355 15.2074 14.2698 15.1988 14.2378L14.5951 14.3993ZM14.3992 14.5953L14.2376 15.199C14.2696 15.2076 14.3353 15.2258 14.396 15.2362C14.4535 15.2461 14.6094 15.2698 14.7852 15.2023L14.5612 14.6188L14.3371 14.0354C14.4118 14.0067 14.4782 13.9993 14.5246 13.9985C14.5679 13.9977 14.5986 14.0027 14.6074 14.0042C14.6169 14.0059 14.6195 14.0068 14.6084 14.0041C14.5978 14.0014 14.5842 13.9978 14.5607 13.9915L14.3992 14.5953ZM14.6187 14.5613L14.0352 14.3373C14.0885 14.1984 14.1982 14.0887 14.3371 14.0354L14.5612 14.6188L14.7852 15.2023C14.977 15.1287 15.1285 14.9772 15.2021 14.7854L14.6187 14.5613ZM7.66665 8.79183V9.41683H11.6666V8.79183V8.16683H7.66665V8.79183ZM7.66665 10.5418V11.1668H10.6666V10.5418V9.91683H7.66665V10.5418ZM9.66665 4.66683V5.29183C10.1097 5.29183 10.5363 5.35749 10.9378 5.47918L11.1191 4.88105L11.3004 4.28292C10.7826 4.12599 10.2339 4.04183 9.66665 4.04183V4.66683ZM11.1191 4.88105L10.9378 5.47918C12.7347 6.02382 14.0416 7.69352 14.0416 9.66683H14.6666H15.2916C15.2916 7.12758 13.6096 4.98283 11.3004 4.28292L11.1191 4.88105ZM11.1191 4.88105L11.7172 4.69977C11.0173 2.39054 8.87256 0.708496 6.33331 0.708496V1.3335V1.9585C8.30663 1.9585 9.97632 3.26542 10.521 5.06234L11.1191 4.88105ZM9.66665 14.6668V14.0418C7.69333 14.0418 6.02363 12.7349 5.479 10.938L4.88087 11.1193L4.28274 11.3006C4.98265 13.6098 7.1274 15.2918 9.66665 15.2918V14.6668ZM4.88087 11.1193L5.479 10.938C5.35731 10.5365 5.29165 10.1099 5.29165 9.66683H4.66665H4.04165C4.04165 10.2341 4.1258 10.7828 4.28274 11.3006L4.88087 11.1193ZM3.90541 10.7055L3.60148 11.2516C3.94667 11.4437 4.31434 11.6006 4.69958 11.7174L4.88087 11.1193L5.06216 10.5211C4.76319 10.4305 4.47767 10.3087 4.20934 10.1594L3.90541 10.7055ZM12.0945 14.0388L12.3985 14.585C12.3079 14.6354 12.1959 14.6527 12.0852 14.6231L12.2467 14.0193L12.4083 13.4156C12.195 13.3585 11.974 13.3907 11.7906 13.4927L12.0945 14.0388ZM3.75323 10.686L3.91478 11.2898C3.80403 11.3194 3.69207 11.302 3.60148 11.2516L3.90541 10.7055L4.20934 10.1594C4.026 10.0573 3.80498 10.0252 3.59168 10.0823L3.75323 10.686ZM14.0386 12.0947L13.4925 11.7908C13.3905 11.9741 13.3583 12.1952 13.4154 12.4085L14.0192 12.2469L14.6229 12.0854C14.6526 12.1961 14.6352 12.3081 14.5848 12.3987L14.0386 12.0947ZM1.96131 8.7614L1.41519 9.06533C1.36478 8.97474 1.3474 8.86278 1.37703 8.75203L1.9808 8.91358L2.58456 9.07512C2.64163 8.86183 2.60947 8.64081 2.50744 8.45747L1.96131 8.7614Z" fill="#EEF2F6"/>
</svg>
