<svg width="16" height="16" viewBox="0 0 16 16" fill="none" xmlns="http://www.w3.org/2000/svg">
<g clip-path="url(#clip0_2398_2351)">
<path d="M4.6683 3.33207L4.27787 2.84403L4.6683 3.33207ZM11.3317 3.33207L11.7222 2.84403L11.3317 3.33207ZM12.665 4.39874L12.2746 4.88678L12.665 4.39874ZM3.33497 4.39874L3.7254 4.88678V4.88678L3.33497 4.39874ZM14.6667 8.56337H14.0417V9.33337H14.6667H15.2917V8.56337H14.6667ZM9.33334 14.6667V14.0417H6.66668V14.6667V15.2917H9.33334V14.6667ZM1.33334 9.33337H1.95834V8.56337H1.33334H0.708344V9.33337H1.33334ZM3.33497 4.39874L3.7254 4.88678L5.05874 3.82012L4.6683 3.33207L4.27787 2.84403L2.94454 3.9107L3.33497 4.39874ZM11.3317 3.33207L10.9413 3.82011L12.2746 4.88678L12.665 4.39874L13.0555 3.91069L11.7222 2.84403L11.3317 3.33207ZM4.6683 3.33207L5.05874 3.82012C5.86958 3.17144 6.43466 2.72074 6.91133 2.42577C7.37354 2.13974 7.69174 2.04004 8.00001 2.04004V1.41504V0.790039C7.37286 0.790039 6.82397 1.00984 6.25356 1.36283C5.69762 1.70686 5.06455 2.21468 4.27787 2.84403L4.6683 3.33207ZM11.3317 3.33207L11.7222 2.84403C10.9355 2.21468 10.3024 1.70686 9.74646 1.36283C9.17605 1.00984 8.62715 0.790039 8.00001 0.790039V1.41504V2.04004C8.30828 2.04004 8.62648 2.13974 9.08869 2.42577C9.56536 2.72074 10.1304 3.17144 10.9413 3.82011L11.3317 3.33207ZM6.66668 14.6667V14.0417C5.39193 14.0417 4.49874 14.0404 3.8239 13.9496C3.16703 13.8613 2.81138 13.6988 2.55633 13.4437L2.11439 13.8857L1.67245 14.3276C2.19846 14.8536 2.86186 15.0816 3.65734 15.1885C4.43483 15.293 5.42727 15.2917 6.66668 15.2917V14.6667ZM1.33334 9.33337H0.708344C0.708344 10.5728 0.707016 11.5652 0.811548 12.3427C0.918497 13.1382 1.14645 13.8016 1.67245 14.3276L2.11439 13.8857L2.55633 13.4437C2.30129 13.1887 2.13871 12.833 2.0504 12.1762C1.95967 11.5013 1.95834 10.6081 1.95834 9.33337H1.33334ZM14.6667 9.33337H14.0417C14.0417 10.6081 14.0403 11.5013 13.9496 12.1762C13.8613 12.833 13.6987 13.1887 13.4437 13.4437L13.8856 13.8857L14.3276 14.3276C14.8536 13.8016 15.0815 13.1382 15.1885 12.3427C15.293 11.5652 15.2917 10.5728 15.2917 9.33337H14.6667ZM9.33334 14.6667V15.2917C10.5728 15.2917 11.5652 15.293 12.3427 15.1885C13.1382 15.0816 13.8016 14.8536 14.3276 14.3276L13.8856 13.8857L13.4437 13.4437C13.1886 13.6988 12.833 13.8613 12.1761 13.9496C11.5013 14.0404 10.6081 14.0417 9.33334 14.0417V14.6667ZM14.6667 8.56337H15.2917C15.2917 7.36393 15.3061 6.56182 14.9668 5.85579L14.4035 6.12654L13.8402 6.39728C14.0272 6.78646 14.0417 7.24384 14.0417 8.56337H14.6667ZM12.665 4.39874L12.2746 4.88678C13.305 5.71109 13.6531 6.0081 13.8402 6.39728L14.4035 6.12654L14.9668 5.85579C14.6275 5.14977 13.9921 4.65998 13.0555 3.91069L12.665 4.39874ZM1.33334 8.56337H1.95834C1.95834 7.24384 1.9728 6.78646 2.15985 6.39728L1.59653 6.12654L1.03322 5.85579C0.693886 6.56182 0.708344 7.36393 0.708344 8.56337H1.33334ZM3.33497 4.39874L2.94454 3.9107C2.00793 4.65998 1.37255 5.14977 1.03322 5.85579L1.59653 6.12654L2.15985 6.39728C2.3469 6.0081 2.69502 5.71109 3.7254 4.88678L3.33497 4.39874ZM6.00001 11.3334V11.9584H10V11.3334V10.7084H6.00001V11.3334Z" fill="#EEF2F6"/>
</g>
<defs>
<clipPath id="clip0_2398_2351">
<rect width="16" height="16" fill="white"/>
</clipPath>
</defs>
</svg>
