<svg width="16" height="16" viewBox="0 0 16 16" fill="none" xmlns="http://www.w3.org/2000/svg">
<path d="M7.65638 1.87076C7.80526 1.59907 8.19475 1.59907 8.34364 1.87076L10.1327 5.13551C10.2459 5.34201 10.4455 5.48673 10.6766 5.5298L14.346 6.21365C14.6519 6.27066 14.7728 6.64497 14.5582 6.87083L11.9981 9.56569C11.8349 9.73752 11.7579 9.97406 11.7885 10.2093L12.2683 13.8892C12.3085 14.1972 11.9929 14.4279 11.7124 14.2955L8.33433 12.6996C8.12262 12.5996 7.8774 12.5996 7.66569 12.6996L4.28758 14.2955C4.00716 14.4279 3.69152 14.1972 3.73168 13.8892L4.21147 10.2093C4.24215 9.97406 4.16512 9.73752 4.00188 9.56569L1.44181 6.87083C1.22725 6.64497 1.34815 6.27066 1.65407 6.21365L5.32341 5.5298C5.55452 5.48673 5.75416 5.34201 5.86731 5.13551L7.65638 1.87076Z" stroke="#EEF2F6" stroke-width="1.25"/>
</svg>
