<svg width="16" height="16" viewBox="0 0 16 16" fill="none" xmlns="http://www.w3.org/2000/svg">
<path d="M10.6243 3.92609C10.6243 5.35794 9.44921 6.51868 7.99971 6.51868C6.55021 6.51868 5.37516 5.35794 5.37516 3.92609C5.37516 2.49424 6.55021 1.3335 7.99971 1.3335C9.44921 1.3335 10.6243 2.49424 10.6243 3.92609Z" stroke="#EEF2F6" stroke-width="1.25"/>
<path d="M3.06865 12.0667C3.32571 10.3074 4.70452 8.86971 6.49921 8.74055C7.52459 8.66676 8.4784 8.66664 9.50182 8.74015C11.2958 8.869 12.6736 10.3066 12.9306 12.0652L12.9805 12.4072C13.1286 13.4208 12.4158 14.3668 11.3851 14.476C8.96589 14.7323 7.04146 14.7293 4.61869 14.474C3.58629 14.3652 2.87115 13.4184 3.01947 12.4033L3.06865 12.0667Z" stroke="#EEF2F6" stroke-width="1.25"/>
</svg>
