<svg width="25" height="24" viewBox="0 0 25 24" fill="none" xmlns="http://www.w3.org/2000/svg">
<path fill-rule="evenodd" clip-rule="evenodd" d="M7.861 1.066C9.034 1.012 9.408 1 12.396 1C15.384 1 15.758 1.013 16.93 1.066C18.102 1.119 18.902 1.306 19.602 1.577C20.335 1.854 21 2.287 21.55 2.847C22.11 3.396 22.542 4.06 22.818 4.794C23.09 5.494 23.276 6.294 23.33 7.464C23.384 8.639 23.396 9.013 23.396 12C23.396 14.987 23.383 15.362 23.33 16.535C23.277 17.705 23.09 18.505 22.818 19.205C22.5419 19.939 22.1092 20.6041 21.55 21.154C21 21.714 20.335 22.146 19.602 22.422C18.902 22.694 18.102 22.88 16.932 22.934C15.758 22.988 15.384 23 12.396 23C9.408 23 9.034 22.987 7.861 22.934C6.691 22.881 5.891 22.694 5.191 22.422C4.45696 22.1459 3.79188 21.7132 3.242 21.154C2.68258 20.6045 2.24954 19.9398 1.973 19.206C1.702 18.506 1.516 17.706 1.462 16.536C1.408 15.361 1.396 14.987 1.396 12C1.396 9.013 1.409 8.638 1.462 7.466C1.515 6.294 1.702 5.494 1.973 4.794C2.24983 4.06014 2.68321 3.39539 3.243 2.846C3.7922 2.2867 4.45658 1.85367 5.19 1.577C5.89 1.306 6.691 1.12 7.861 1.066ZM16.84 3.046C15.68 2.993 15.332 2.982 12.395 2.982C9.458 2.982 9.11 2.993 7.95 3.046C6.877 3.095 6.295 3.274 5.907 3.425C5.394 3.625 5.027 3.862 4.642 4.247C4.27672 4.60179 3.99581 5.0341 3.82 5.512C3.669 5.9 3.49 6.482 3.441 7.555C3.388 8.715 3.377 9.063 3.377 12C3.377 14.937 3.388 15.285 3.441 16.445C3.49 17.518 3.669 18.1 3.82 18.488C3.996 18.965 4.277 19.398 4.642 19.753C4.997 20.118 5.43 20.399 5.907 20.575C6.295 20.726 6.877 20.905 7.95 20.954C9.11 21.007 9.457 21.018 12.395 21.018C15.333 21.018 15.68 21.007 16.84 20.954C17.913 20.905 18.495 20.726 18.883 20.575C19.396 20.375 19.763 20.138 20.148 19.753C20.513 19.398 20.794 18.965 20.97 18.488C21.121 18.1 21.3 17.518 21.349 16.445C21.402 15.285 21.413 14.937 21.413 12C21.413 9.063 21.402 8.715 21.349 7.555C21.3 6.482 21.121 5.9 20.97 5.512C20.77 4.999 20.533 4.632 20.148 4.247C19.7932 3.88173 19.3609 3.60081 18.883 3.425C18.495 3.274 17.913 3.095 16.84 3.046ZM10.99 15.391C11.7747 15.7176 12.6484 15.7617 13.4619 15.5157C14.2755 15.2697 14.9784 14.7489 15.4506 14.0422C15.9228 13.3356 16.1351 12.4869 16.051 11.6411C15.967 10.7953 15.592 10.005 14.99 9.405C14.6062 9.02148 14.1422 8.72781 13.6313 8.54515C13.1205 8.36248 12.5754 8.29536 12.0355 8.34862C11.4956 8.40187 10.9741 8.57418 10.5088 8.85313C10.0435 9.13208 9.64574 9.51074 9.3443 9.96185C9.04286 10.413 8.84519 10.9253 8.76551 11.462C8.68584 11.9986 8.72615 12.5463 8.88354 13.0655C9.04092 13.5847 9.31148 14.0626 9.67572 14.4647C10.04 14.8668 10.4888 15.1832 10.99 15.391ZM8.398 8.002C8.92302 7.47698 9.54632 7.0605 10.2323 6.77636C10.9183 6.49222 11.6535 6.34597 12.396 6.34597C13.1385 6.34597 13.8737 6.49222 14.5597 6.77636C15.2457 7.0605 15.869 7.47698 16.394 8.002C16.919 8.52702 17.3355 9.15032 17.6196 9.8363C17.9038 10.5223 18.05 11.2575 18.05 12C18.05 12.7425 17.9038 13.4777 17.6196 14.1637C17.3355 14.8497 16.919 15.473 16.394 15.998C15.3337 17.0583 13.8955 17.654 12.396 17.654C10.8965 17.654 9.45833 17.0583 8.398 15.998C7.33766 14.9377 6.74197 13.4995 6.74197 12C6.74197 10.5005 7.33766 9.06234 8.398 8.002ZM19.304 7.188C19.4341 7.06527 19.5383 6.91768 19.6103 6.75397C19.6823 6.59027 19.7208 6.41377 19.7234 6.23493C19.726 6.05609 19.6927 5.87855 19.6255 5.71281C19.5582 5.54707 19.4584 5.39651 19.332 5.27004C19.2055 5.14357 19.0549 5.04376 18.8892 4.97652C18.7234 4.90928 18.5459 4.87598 18.3671 4.87858C18.1882 4.88119 18.0117 4.91965 17.848 4.9917C17.6843 5.06374 17.5367 5.1679 17.414 5.298C17.1753 5.55103 17.0446 5.88712 17.0497 6.23493C17.0548 6.58274 17.1952 6.91488 17.4412 7.16084C17.6871 7.40681 18.0193 7.54723 18.3671 7.5523C18.7149 7.55737 19.051 7.42669 19.304 7.188Z" fill="white"/>
</svg>
