<svg width="16" height="16" viewBox="0 0 16 16" fill="none" xmlns="http://www.w3.org/2000/svg">
<path d="M7.65641 1.87051C7.80529 1.59883 8.19479 1.59883 8.34367 1.87051L10.1327 5.13527C10.2459 5.34176 10.4455 5.48648 10.6766 5.52955L14.346 6.2134C14.6519 6.27042 14.7728 6.64473 14.5582 6.87058L11.9982 9.56544C11.8349 9.73727 11.7579 9.97382 11.7886 10.2091L12.2684 13.8889C12.3085 14.197 11.9929 14.4277 11.7125 14.2952L8.33436 12.6993C8.12265 12.5993 7.87743 12.5993 7.66572 12.6993L4.28761 14.2952C4.0072 14.4277 3.69155 14.197 3.73171 13.8889L4.2115 10.2091C4.24218 9.97382 4.16515 9.73727 4.00191 9.56544L1.44184 6.87058C1.22728 6.64473 1.34818 6.27042 1.6541 6.2134L5.32344 5.52955C5.55455 5.48648 5.75419 5.34176 5.86734 5.13527L7.65641 1.87051Z" stroke="#6D6D6D"/>
</svg>
