<svg width="20" height="20" viewBox="0 0 20 20" fill="none" xmlns="http://www.w3.org/2000/svg">
<path d="M3.86502 18.0538L3.51765 18.7185H3.51765L3.86502 18.0538ZM2.77248 16.9333L3.44417 16.5996L3.44416 16.5996L2.77248 16.9333ZM16.135 18.0538L15.7876 17.3891L15.7876 17.3891L16.135 18.0538ZM17.2275 16.9333L16.5558 16.5996V16.5996L17.2275 16.9333ZM16.135 3.22815L15.7876 3.89285L15.7876 3.89285L16.135 3.22815ZM17.2275 4.3487L17.8992 4.01502V4.01502L17.2275 4.3487ZM3.86502 3.22815L4.21239 3.89285V3.89285L3.86502 3.22815ZM2.77248 4.3487L3.44416 4.68238H3.44417L2.77248 4.3487ZM7.41667 1.66663C7.41667 1.25241 7.08088 0.916626 6.66667 0.916626C6.25245 0.916626 5.91667 1.25241 5.91667 1.66663H7.41667ZM5.91667 4.23073C5.91667 4.64494 6.25245 4.98073 6.66667 4.98073C7.08088 4.98073 7.41667 4.64494 7.41667 4.23073H5.91667ZM14.0833 1.66663C14.0833 1.25241 13.7475 0.916626 13.3333 0.916626C12.9191 0.916626 12.5833 1.25241 12.5833 1.66663H14.0833ZM12.5833 4.23073C12.5833 4.64494 12.9191 4.98073 13.3333 4.98073C13.7475 4.98073 14.0833 4.64494 14.0833 4.23073H12.5833ZM6.5 2.94868V3.69868H13.5V2.94868V2.19868H6.5V2.94868ZM13.5 18.3333V17.5833H6.5V18.3333V19.0833H13.5V18.3333ZM2.5 14.2307H3.25V7.22218H2.5H1.75V14.2307H2.5ZM2.5 7.22218H3.25V7.05124H2.5H1.75V7.22218H2.5ZM17.5 7.05124H16.75V7.22218H17.5H18.25V7.05124H17.5ZM17.5 7.22218H16.75V14.2307H17.5H18.25V7.22218H17.5ZM2.5 7.22218V7.97218H17.5V7.22218V6.47218H2.5V7.22218ZM6.5 18.3333V17.5833C5.78724 17.5833 5.29893 17.5827 4.92063 17.551C4.55166 17.5201 4.35478 17.4635 4.21239 17.3891L3.86502 18.0538L3.51765 18.7185C3.91005 18.9236 4.33059 19.0068 4.79538 19.0457C5.25083 19.0839 5.81262 19.0833 6.5 19.0833V18.3333ZM2.5 14.2307H1.75C1.75 14.9367 1.74945 15.5101 1.78643 15.9744C1.82407 16.4469 1.90412 16.871 2.1008 17.2669L2.77248 16.9333L3.44416 16.5996C3.36836 16.447 3.31218 16.2379 3.28169 15.8553C3.25055 15.4644 3.25 14.9608 3.25 14.2307H2.5ZM3.86502 18.0538L4.21239 17.3891C3.88457 17.2178 3.61453 16.9425 3.44417 16.5996L2.77248 16.9333L2.1008 17.2669C2.4098 17.8889 2.90467 18.3982 3.51765 18.7185L3.86502 18.0538ZM13.5 18.3333V19.0833C14.1874 19.0833 14.7492 19.0839 15.2046 19.0457C15.6694 19.0068 16.0899 18.9236 16.4823 18.7185L16.135 18.0538L15.7876 17.3891C15.6452 17.4635 15.4483 17.5201 15.0794 17.551C14.7011 17.5827 14.2128 17.5833 13.5 17.5833V18.3333ZM17.5 14.2307H16.75C16.75 14.9608 16.7494 15.4644 16.7183 15.8553C16.6878 16.2379 16.6316 16.447 16.5558 16.5996L17.2275 16.9333L17.8992 17.2669C18.0959 16.871 18.1759 16.4469 18.2136 15.9744C18.2506 15.5101 18.25 14.9367 18.25 14.2307H17.5ZM16.135 18.0538L16.4823 18.7185C17.0953 18.3982 17.5902 17.8889 17.8992 17.2669L17.2275 16.9333L16.5558 16.5996C16.3855 16.9425 16.1154 17.2178 15.7876 17.3891L16.135 18.0538ZM13.5 2.94868V3.69868C14.2128 3.69868 14.7011 3.69929 15.0794 3.73099C15.4483 3.76191 15.6452 3.81845 15.7876 3.89285L16.135 3.22815L16.4823 2.56344C16.0899 2.35838 15.6694 2.27518 15.2046 2.23623C14.7492 2.19806 14.1874 2.19868 13.5 2.19868V2.94868ZM17.5 7.05124H18.25C18.25 6.34529 18.2506 5.77185 18.2136 5.30759C18.1759 4.83511 18.0959 4.41092 17.8992 4.01502L17.2275 4.3487L16.5558 4.68238C16.6316 4.83497 16.6878 5.04404 16.7183 5.4267C16.7494 5.81758 16.75 6.32116 16.75 7.05124H17.5ZM16.135 3.22815L15.7876 3.89285C16.1154 4.06417 16.3855 4.33944 16.5558 4.68238L17.2275 4.3487L17.8992 4.01502C17.5902 3.39303 17.0953 2.88378 16.4823 2.56344L16.135 3.22815ZM6.5 2.94868V2.19868C5.81262 2.19868 5.25084 2.19806 4.79538 2.23623C4.33059 2.27518 3.91005 2.35838 3.51765 2.56344L3.86502 3.22815L4.21239 3.89285C4.35478 3.81845 4.55166 3.76191 4.92063 3.73099C5.29894 3.69929 5.78724 3.69868 6.5 3.69868V2.94868ZM2.5 7.05124H3.25C3.25 6.32116 3.25055 5.81758 3.28169 5.4267C3.31218 5.04404 3.36836 4.83497 3.44416 4.68238L2.77248 4.3487L2.1008 4.01502C1.90412 4.41092 1.82407 4.83511 1.78643 5.30759C1.74945 5.77185 1.75 6.34529 1.75 7.05124H2.5ZM3.86502 3.22815L3.51765 2.56344C2.90467 2.88378 2.4098 3.39303 2.1008 4.01502L2.77248 4.3487L3.44417 4.68238C3.61453 4.33944 3.88457 4.06417 4.21239 3.89285L3.86502 3.22815ZM6.66667 1.66663H5.91667V4.23073H6.66667H7.41667V1.66663H6.66667ZM13.3333 1.66663H12.5833V4.23073H13.3333H14.0833V1.66663H13.3333Z" fill="#E5F7F9"/>
<path d="M6.66669 10.4059C6.20645 10.4059 5.83335 10.779 5.83335 11.2393C5.83335 11.6995 6.20645 12.0726 6.66669 12.0726V10.4059ZM6.67502 12.0726C7.13526 12.0726 7.50835 11.6995 7.50835 11.2393C7.50835 10.779 7.13526 10.4059 6.67502 10.4059V12.0726ZM6.66669 13.3974C6.20645 13.3974 5.83335 13.7705 5.83335 14.2307C5.83335 14.6909 6.20645 15.064 6.66669 15.064V13.3974ZM6.67502 15.064C7.13526 15.064 7.50835 14.6909 7.50835 14.2307C7.50835 13.7705 7.13526 13.3974 6.67502 13.3974V15.064ZM10 10.4059C9.53978 10.4059 9.16669 10.779 9.16669 11.2393C9.16669 11.6995 9.53978 12.0726 10 12.0726V10.4059ZM10.0084 12.0726C10.4686 12.0726 10.8417 11.6995 10.8417 11.2393C10.8417 10.779 10.4686 10.4059 10.0084 10.4059V12.0726ZM10 13.3974C9.53978 13.3974 9.16669 13.7705 9.16669 14.2307C9.16669 14.6909 9.53978 15.064 10 15.064V13.3974ZM10.0084 15.064C10.4686 15.064 10.8417 14.6909 10.8417 14.2307C10.8417 13.7705 10.4686 13.3974 10.0084 13.3974V15.064ZM13.3334 10.4059C12.8731 10.4059 12.5 10.779 12.5 11.2393C12.5 11.6995 12.8731 12.0726 13.3334 12.0726V10.4059ZM13.3417 12.0726C13.8019 12.0726 14.175 11.6995 14.175 11.2393C14.175 10.779 13.8019 10.4059 13.3417 10.4059V12.0726ZM13.3334 13.3974C12.8731 13.3974 12.5 13.7705 12.5 14.2307C12.5 14.6909 12.8731 15.064 13.3334 15.064V13.3974ZM13.3417 15.064C13.8019 15.064 14.175 14.6909 14.175 14.2307C14.175 13.7705 13.8019 13.3974 13.3417 13.3974V15.064ZM6.66669 11.2393V12.0726H6.67502V11.2393V10.4059H6.66669V11.2393ZM6.66669 14.2307V15.064H6.67502V14.2307V13.3974H6.66669V14.2307ZM10 11.2393V12.0726H10.0084V11.2393V10.4059H10V11.2393ZM10 14.2307V15.064H10.0084V14.2307V13.3974H10V14.2307ZM13.3334 11.2393V12.0726H13.3417V11.2393V10.4059H13.3334V11.2393ZM13.3334 14.2307V15.064H13.3417V14.2307V13.3974H13.3334V14.2307Z" fill="#E5F7F9"/>
</svg>
