<svg width="20" height="20" viewBox="0 0 20 20" fill="none" xmlns="http://www.w3.org/2000/svg">
<g clip-path="url(#clip0_2161_1070)">
<path d="M2.29786 14.4314C2.71539 14.4723 3.19328 14.0538 3.42892 13.4049C3.69709 12.6663 3.54998 11.9089 3.10034 11.7131M2.29786 14.4314C2.24023 14.4258 2.18375 14.4114 2.12922 14.3877M2.29786 14.4314L2.12922 14.3877M2.29786 14.4314L5.24643 15.1968M2.12922 14.3877C1.67958 14.1919 1.53247 13.4345 1.80063 12.6959C2.0688 11.9574 2.6507 11.5174 3.10034 11.7131M3.10034 11.7131L5.306 12.3725M17.7022 14.4314C17.2847 14.4723 16.8068 14.0538 16.5711 13.4049C16.3029 12.6663 16.4501 11.9089 16.8997 11.7131M17.7022 14.4314C17.7598 14.4258 17.8163 14.4114 17.8708 14.3877M17.7022 14.4314L17.8708 14.3877M17.7022 14.4314L14.7536 15.1968M17.8708 14.3877C18.3205 14.1919 18.4676 13.4345 18.1994 12.6959C17.9312 11.9574 17.3493 11.5174 16.8997 11.7131M16.8997 11.7131L14.5511 12.4153M5.306 12.3725L10 13.7758M5.306 12.3725C4.5947 11.507 4.16669 10.3929 4.16669 9.17735C4.16669 6.91286 7.48427 3.07525 8.66662 1.77948C8.84947 1.57908 9.17923 1.66042 9.29594 1.90659C9.58973 2.74489 10.1092 3.4949 10.6984 4.19962C10.8268 4.35321 11.063 4.33931 11.1677 4.16806C11.3709 3.83552 11.5427 3.48804 11.6658 3.1206C11.7607 2.91135 12.0286 2.84221 12.1772 3.01255C13.1378 4.11396 15.8334 7.37593 15.8334 9.30074C15.8334 10.5319 15.3396 11.6405 14.5511 12.4153M10 13.7758L14.5511 12.4153M10 13.7758L14.7536 15.1968M14.7536 15.1968L17.9633 16.1563C18.323 16.3129 18.4407 16.9189 18.2262 17.5098C18.0116 18.1007 17.5461 18.4527 17.1863 18.2961L10 16.4307M10 16.4307L2.81369 18.2961C2.45395 18.4527 1.9884 18.1007 1.77385 17.5098C1.5593 16.9189 1.677 16.3129 2.03674 16.1563L5.24643 15.1968M10 16.4307L5.24643 15.1968M10.0877 11.6666C9.11882 11.6666 8.33335 10.922 8.33335 10.0035C8.33335 9.2487 9.5182 7.9695 9.94047 7.53758C10.0058 7.47078 10.1235 7.49789 10.1652 7.57995C10.2528 7.81325 10.3966 8.02604 10.5642 8.22666C10.657 8.33771 10.8439 8.328 10.9122 8.20342C10.951 8.13274 10.9846 8.05994 11.0116 7.98462C11.0455 7.91487 11.1412 7.89182 11.1942 7.9486C11.5373 8.31574 12.5 9.40306 12.5 10.0447C12.5 10.8254 11.8618 11.4583 11.0746 11.4583C11.0578 11.4583 11.041 11.458 11.0244 11.4574C10.9752 11.4557 10.9262 11.4655 10.8829 11.4864C10.6442 11.6016 10.374 11.6666 10.0877 11.6666Z" stroke="#E5F7F9" stroke-width="1.5" stroke-linecap="round"/>
</g>
<defs>
<clipPath id="clip0_2161_1070">
<rect width="20" height="20" fill="white"/>
</clipPath>
</defs>
</svg>
