<svg width="20" height="20" viewBox="0 0 20 20" fill="none" xmlns="http://www.w3.org/2000/svg">
<g clip-path="url(#clip0_2161_1060)">
<path d="M1.66663 10.4167L1.1649 9.8592C0.934081 10.0669 0.855156 10.3954 0.966411 10.6854C1.07767 10.9753 1.35609 11.1667 1.66663 11.1667V10.4167ZM8.32755 4.42184L7.82582 3.86437L7.82582 3.86437L8.32755 4.42184ZM11.6724 4.42184L11.1706 4.97931L11.6724 4.42184ZM18.3333 10.4167V11.1667C18.6438 11.1667 18.9223 10.9753 19.0335 10.6854C19.1448 10.3954 19.0658 10.0669 18.835 9.8592L18.3333 10.4167ZM9.39308 0.864128C9.17997 0.508943 8.71927 0.393769 8.36409 0.60688C8.0089 0.819991 7.89373 1.28069 8.10684 1.63587L9.39308 0.864128ZM9.99996 3.33333L9.35684 3.71921C9.49238 3.94511 9.73651 4.08333 9.99996 4.08333C10.2634 4.08333 10.5075 3.94511 10.6431 3.71921L9.99996 3.33333ZM11.8931 1.63587C12.1062 1.28069 11.991 0.819991 11.6358 0.60688C11.2806 0.393769 10.82 0.508943 10.6068 0.864128L11.8931 1.63587ZM15.7618 17.8452L15.2315 17.3148L15.2315 17.3148L15.7618 17.8452ZM4.23811 17.8452L4.76844 17.3148H4.76844L4.23811 17.8452ZM1.66663 10.4167L2.16835 10.9741L8.82927 4.97931L8.32755 4.42184L7.82582 3.86437L1.1649 9.8592L1.66663 10.4167ZM11.6724 4.42184L11.1706 4.97931L17.8316 10.9741L18.3333 10.4167L18.835 9.8592L12.1741 3.86437L11.6724 4.42184ZM1.66663 10.4167V11.1667H18.3333V10.4167V9.66667H1.66663V10.4167ZM8.32755 4.42184L8.82927 4.97931C9.2417 4.60812 9.4987 4.37877 9.70861 4.23363C9.90094 4.10065 9.97118 4.09837 9.99996 4.09837V3.34837V2.59837C9.54907 2.59837 9.18068 2.77501 8.85551 2.99985C8.54792 3.21253 8.20855 3.51992 7.82582 3.86437L8.32755 4.42184ZM11.6724 4.42184L12.1741 3.86437C11.7914 3.51991 11.452 3.21252 11.1444 2.99984C10.8192 2.77501 10.4509 2.59837 9.99996 2.59837V3.34837V4.09837C10.0287 4.09837 10.099 4.10065 10.2913 4.23363C10.5012 4.37877 10.7582 4.60812 11.1706 4.97931L11.6724 4.42184ZM8.74996 1.25L8.10684 1.63587L9.35684 3.71921L9.99996 3.33333L10.6431 2.94746L9.39308 0.864128L8.74996 1.25ZM9.99996 3.33333L10.6431 3.71921L11.8931 1.63587L11.25 1.25L10.6068 0.864128L9.35684 2.94746L9.99996 3.33333ZM3.74996 10.4167H2.99996V15H3.74996H4.49996V10.4167H3.74996ZM7.08329 18.3333V19.0833H12.9166V18.3333V17.5833H7.08329V18.3333ZM16.25 15H17V10.4167H16.25H15.5V15H16.25ZM12.9166 18.3333V19.0833C13.6811 19.0833 14.3299 19.0849 14.8453 19.0156C15.3824 18.9434 15.8855 18.7822 16.2921 18.3755L15.7618 17.8452L15.2315 17.3148C15.15 17.3963 15.0162 17.4792 14.6455 17.529C14.2532 17.5817 13.7235 17.5833 12.9166 17.5833V18.3333ZM16.25 15H15.5C15.5 15.8069 15.4984 16.3366 15.4456 16.7289C15.3958 17.0995 15.313 17.2333 15.2315 17.3148L15.7618 17.8452L16.2921 18.3755C16.6988 17.9689 16.8601 17.4657 16.9323 16.9287C17.0016 16.4133 17 15.7645 17 15H16.25ZM3.74996 15H2.99996C2.99996 15.7645 2.99837 16.4133 3.06767 16.9287C3.13987 17.4657 3.30113 17.9689 3.70778 18.3755L4.23811 17.8452L4.76844 17.3148C4.68694 17.2333 4.60413 17.0995 4.55429 16.7289C4.50155 16.3366 4.49996 15.8069 4.49996 15H3.74996ZM7.08329 18.3333V17.5833C6.27642 17.5833 5.74671 17.5817 5.35444 17.529C4.98375 17.4792 4.84995 17.3963 4.76844 17.3148L4.23811 17.8452L3.70778 18.3755C4.11444 18.7822 4.61755 18.9434 5.15457 19.0156C5.67002 19.0849 6.31882 19.0833 7.08329 19.0833V18.3333ZM7.91663 18.3333H8.66663V14.5833H7.91663H7.16663V18.3333H7.91663ZM8.74996 13.75V14.5H11.25V13.75V13H8.74996V13.75ZM12.0833 14.5833H11.3333V18.3333H12.0833H12.8333V14.5833H12.0833ZM11.25 13.75V14.5C11.296 14.5 11.3333 14.5373 11.3333 14.5833H12.0833H12.8333C12.8333 13.7089 12.1244 13 11.25 13V13.75ZM7.91663 14.5833H8.66663C8.66663 14.5373 8.70394 14.5 8.74996 14.5V13.75V13C7.87551 13 7.16663 13.7089 7.16663 14.5833H7.91663Z" fill="#E5F7F9"/>
</g>
<defs>
<clipPath id="clip0_2161_1060">
<rect width="20" height="20" fill="white"/>
</clipPath>
</defs>
</svg>
