<svg width="18" height="22" viewBox="0 0 18 22" fill="none" xmlns="http://www.w3.org/2000/svg">
<path d="M6.12734 19.5C6.75982 20.4067 7.81063 21 9 21C10.1894 21 11.2402 20.4067 11.8727 19.5M7.04989 4H10.9501C12.1862 4 13.2958 4.75815 13.745 5.90972L15.6842 13C15.8096 13.3215 16.0095 13.6088 16.2675 13.8381L16.4055 13.9608C16.7836 14.2969 17 14.7787 17 15.2846C17 16.2628 16.207 17.0559 15.2287 17.0559H2.77126C1.79302 17.0559 1 16.2628 1 15.2846C1 14.7787 1.21635 14.2969 1.5945 13.9608L1.73254 13.8381C1.9905 13.6088 2.1904 13.3215 2.31584 13L4.25502 5.90972C4.70424 4.75815 5.8138 4 7.04989 4ZM10.5 2.5C10.5 3.32843 9.82843 4 9 4C8.17157 4 7.5 3.32843 7.5 2.5C7.5 1.67157 8.17157 1 9 1C9.82843 1 10.5 1.67157 10.5 2.5Z" stroke="#E5F7F9" stroke-width="1.5" stroke-linecap="round"/>
</svg>
