<svg width="34" height="25" viewBox="0 0 34 25" fill="none" xmlns="http://www.w3.org/2000/svg">
<path d="M24.6591 0.5L23.348 0.514057L23.3786 3.35317C20.0447 4.32079 15.4736 4.79079 11.2535 5.07012C13.8098 12.083 18.4901 17.7267 22.7501 23.7982C24.2591 22.3667 26.4727 21.4687 28.829 21.1754C27.314 19.8565 26.1607 19.1385 24.5438 16.0451C26.8214 18.7462 28.3734 19.5752 30.1975 20.5613C30.4352 19.6076 30.8485 18.7668 31.5611 18.1815C32.1923 17.6629 33.0197 17.4055 34.0032 17.4281C30.5892 13.0752 26.5981 8.90241 24.6927 3.63053L24.6591 0.5ZM10.2446 1.35035L8.93373 1.36812C8.93373 1.36812 8.95194 2.70392 8.97452 4.06084C8.98588 4.73937 8.99819 5.42308 9.01013 5.94938C9.0145 6.14138 9.01866 6.28297 9.02281 6.42587C6.51888 12.5246 3.98596 18.1518 -0.00292969 23.4287C2.44688 23.3276 4.82794 23.341 7.17512 23.4257C8.79665 18.865 8.87553 13.6035 9.77002 8.71253C10.6016 13.7063 10.5396 18.869 12.2088 23.7042C15.3379 23.9287 18.45 24.2285 21.63 24.5C17.5753 18.735 13.0199 13.2078 10.3319 6.33745C10.3283 6.20766 10.3247 6.0901 10.3209 5.91959C10.3091 5.39839 10.2966 4.71614 10.2853 4.03899C10.2628 2.68469 10.2446 1.35035 10.2446 1.35035Z" fill="#565C5D"/>
</svg>
