<svg width="22" height="24" viewBox="0 0 22 24" fill="none" xmlns="http://www.w3.org/2000/svg">
<path d="M6.2002 9.59986V17.9999H15.8002V9.59986C15.8002 8.32683 15.2945 7.10593 14.3943 6.20575C13.4941 5.30558 12.2732 4.79986 11.0002 4.79986C9.72716 4.79986 8.50626 5.30558 7.60608 6.20575C6.70591 7.10593 6.2002 8.32683 6.2002 9.59986ZM8.6362 2.79586C8.58148 2.45304 8.60178 2.10242 8.69572 1.7682C8.78965 1.43398 8.95498 1.12412 9.18029 0.859998C9.4056 0.595874 9.68552 0.383776 10.0008 0.238336C10.316 0.0928963 10.659 0.0175781 11.0062 0.0175781C11.3534 0.0175781 11.6964 0.0928963 12.0116 0.238336C12.3269 0.383776 12.6068 0.595874 12.8321 0.859998C13.0574 1.12412 13.2227 1.43398 13.3167 1.7682C13.4106 2.10242 13.4309 2.45304 13.3762 2.79586C14.787 3.28905 16.0094 4.20904 16.8737 5.42822C17.7381 6.6474 18.2017 8.10535 18.2002 9.59986V16.7999L21.8002 19.1999V20.3999H0.200195V19.1999L3.8002 16.7999V9.59986C3.79954 8.10389 4.26487 6.64487 5.13154 5.42551C5.9982 4.20616 7.22316 3.28704 8.6362 2.79586ZM13.4002 21.5999C13.4002 22.2364 13.1473 22.8468 12.6973 23.2969C12.2472 23.747 11.6367 23.9999 11.0002 23.9999C10.3637 23.9999 9.75323 23.747 9.30314 23.2969C8.85305 22.8468 8.6002 22.2364 8.6002 21.5999H13.4002Z" fill="white"/>
</svg>
