<svg width="258" height="51" viewBox="0 0 258 51" fill="none" xmlns="http://www.w3.org/2000/svg">
<path d="M31.8417 31.6472L20.2976 38.4391C19.9607 38.6373 19.929 38.9521 20.1066 39.1822H0V41.5032H258V39.1822H214.923C212.158 37.5077 206.776 34.665 203.754 34.5443C203.625 34.5391 203.5 34.5636 203.386 34.6081L191.678 39.1822H160.361C158.687 38.7698 157.313 37.9382 155.467 36.821C154.364 36.1533 153.092 35.3836 151.486 34.5403C148.788 33.1228 147.125 33.0905 145.348 33.0559C143.488 33.0197 141.503 32.9811 138.073 31.349C132.512 28.7023 131.834 27.2529 130.864 25.1804C130.665 24.7539 130.453 24.3009 130.183 23.8057C129.052 21.7258 127.52 19.9565 125.983 19.333C125.68 19.21 125.447 18.9883 125.366 18.7407C125.277 18.469 125.125 18.1371 124.944 17.7429C124.36 16.4707 123.477 14.5498 123.477 11.9107C123.477 9.32207 121.156 9.33661 118.632 9.35242C117.388 9.36022 116.094 9.36833 115.004 9.06524C114.868 9.02742 114.754 8.95694 114.672 8.86865C113.818 7.94914 113.077 6.99771 112.379 6.10107C110.459 3.63437 108.861 1.58233 106.119 1.75036C102.664 1.96214 101.941 4.03228 100.728 7.50469C100.28 8.78917 99.764 10.2655 99.0183 11.9107C98.5246 13.0001 97.2582 13.7486 95.6062 14.7252C94.6184 15.309 93.4928 15.9743 92.3119 16.8428C90.5219 18.1592 88.478 21.9025 86.6122 25.3195C85.1885 27.9269 83.8685 30.3444 82.844 31.349C80.9954 33.1617 75.487 34.2002 72.7795 34.5184C72.6522 34.5334 72.533 34.5698 72.4293 34.6261L64.0476 39.1822H48.2444L37.5358 34.5656C37.4967 34.5488 37.4597 34.5295 37.4251 34.508L32.8442 31.6574C32.5563 31.4782 32.1362 31.4739 31.8417 31.6472Z" fill="#E9E9EB"/>
<mask id="mask0_85205_4992" style="mask-type:alpha" maskUnits="userSpaceOnUse" x="57" y="0" width="162" height="42">
<rect x="57.5962" width="160.954" height="41.7778" fill="#1F2223"/>
</mask>
<g mask="url(#mask0_85205_4992)">
<path d="M31.8417 31.6472L20.2976 38.4391C19.9607 38.6373 19.929 38.9521 20.1066 39.1822H0V41.5032H258V39.1822H214.923C212.158 37.5077 206.776 34.665 203.754 34.5443C203.625 34.5391 203.5 34.5636 203.386 34.6081L191.678 39.1822H160.361C158.687 38.7698 157.313 37.9382 155.467 36.821C154.364 36.1533 153.092 35.3836 151.486 34.5403C148.788 33.1228 147.125 33.0905 145.348 33.0559C143.488 33.0197 141.503 32.9811 138.073 31.349C132.512 28.7023 131.834 27.2529 130.864 25.1804C130.665 24.7539 130.453 24.3009 130.183 23.8057C129.052 21.7258 127.52 19.9565 125.983 19.333C125.68 19.21 125.447 18.9883 125.366 18.7407C125.277 18.469 125.125 18.1371 124.944 17.7429C124.36 16.4707 123.477 14.5498 123.477 11.9107C123.477 9.32207 121.156 9.33661 118.632 9.35242C117.388 9.36022 116.094 9.36833 115.004 9.06524C114.868 9.02742 114.754 8.95694 114.672 8.86865C113.818 7.94914 113.077 6.99771 112.379 6.10107C110.459 3.63437 108.861 1.58233 106.119 1.75036C102.664 1.96214 101.941 4.03228 100.728 7.50469C100.28 8.78917 99.764 10.2655 99.0183 11.9107C98.5246 13.0001 97.2582 13.7486 95.6062 14.7252C94.6184 15.309 93.4928 15.9743 92.3119 16.8428C90.5219 18.1592 88.478 21.9025 86.6122 25.3195C85.1885 27.9269 83.8685 30.3444 82.844 31.349C80.9954 33.1617 75.487 34.2002 72.7795 34.5184C72.6522 34.5334 72.533 34.5698 72.4293 34.6261L64.0476 39.1822H48.2444L37.5358 34.5656C37.4967 34.5488 37.4597 34.5295 37.4251 34.508L32.8442 31.6574C32.5563 31.4782 32.1362 31.4739 31.8417 31.6472Z" fill="#00AFC1"/>
</g>
<g filter="url(#filter0_d_85205_4992)">
<ellipse cx="217.762" cy="38.8764" rx="11.0459" ry="8.12346" fill="white"/>
<path d="M217.762 47.4998C220.907 47.4998 223.775 46.5628 225.869 45.0233C227.962 43.484 229.308 41.3165 229.308 38.8764C229.308 36.4362 227.962 34.2687 225.869 32.7294C223.775 31.19 220.907 30.2529 217.762 30.2529C214.616 30.2529 211.748 31.19 209.655 32.7294C207.562 34.2687 206.216 36.4362 206.216 38.8764C206.216 41.3165 207.562 43.484 209.655 45.0233C211.748 46.5628 214.616 47.4998 217.762 47.4998Z" stroke="#D2D3D3"/>
</g>
<g filter="url(#filter1_d_85205_4992)">
<ellipse cx="58" cy="39" rx="11" ry="8" fill="white"/>
<path d="M58 47.5C61.1318 47.5 63.9874 46.5775 66.0723 45.0612C68.1567 43.5453 69.5 41.4085 69.5 39C69.5 36.5915 68.1567 34.4547 66.0723 32.9388C63.9874 31.4225 61.1318 30.5 58 30.5C54.8682 30.5 52.0126 31.4225 49.9277 32.9388C47.8433 34.4547 46.5 36.5915 46.5 39C46.5 41.4085 47.8433 43.5453 49.9277 45.0612C52.0126 46.5775 54.8682 47.5 58 47.5Z" stroke="#D2D3D3"/>
</g>
<defs>
<filter id="filter0_d_85205_4992" x="203.716" y="28.7529" width="28.0918" height="22.2471" filterUnits="userSpaceOnUse" color-interpolation-filters="sRGB">
<feFlood flood-opacity="0" result="BackgroundImageFix"/>
<feColorMatrix in="SourceAlpha" type="matrix" values="0 0 0 0 0 0 0 0 0 0 0 0 0 0 0 0 0 0 127 0" result="hardAlpha"/>
<feOffset dy="1"/>
<feGaussianBlur stdDeviation="1"/>
<feComposite in2="hardAlpha" operator="out"/>
<feColorMatrix type="matrix" values="0 0 0 0 0 0 0 0 0 0 0 0 0 0 0 0 0 0 0.1 0"/>
<feBlend mode="normal" in2="BackgroundImageFix" result="effect1_dropShadow_85205_4992"/>
<feBlend mode="normal" in="SourceGraphic" in2="effect1_dropShadow_85205_4992" result="shape"/>
</filter>
<filter id="filter1_d_85205_4992" x="44" y="29" width="28" height="22" filterUnits="userSpaceOnUse" color-interpolation-filters="sRGB">
<feFlood flood-opacity="0" result="BackgroundImageFix"/>
<feColorMatrix in="SourceAlpha" type="matrix" values="0 0 0 0 0 0 0 0 0 0 0 0 0 0 0 0 0 0 127 0" result="hardAlpha"/>
<feOffset dy="1"/>
<feGaussianBlur stdDeviation="1"/>
<feComposite in2="hardAlpha" operator="out"/>
<feColorMatrix type="matrix" values="0 0 0 0 0 0 0 0 0 0 0 0 0 0 0 0 0 0 0.1 0"/>
<feBlend mode="normal" in2="BackgroundImageFix" result="effect1_dropShadow_85205_4992"/>
<feBlend mode="normal" in="SourceGraphic" in2="effect1_dropShadow_85205_4992" result="shape"/>
</filter>
</defs>
</svg>
