<svg width="162" height="41" viewBox="0 0 162 41" fill="none" xmlns="http://www.w3.org/2000/svg">
<path d="M-25.1583 30.6472L-36.7024 37.4391C-37.0393 37.6373 -37.071 37.9521 -36.8934 38.1822H-57V40.5032H201V38.1822H157.923C155.158 36.5077 149.776 33.665 146.754 33.5443C146.625 33.5391 146.5 33.5636 146.386 33.6081L134.678 38.1822H103.361C101.687 37.7698 100.313 36.9382 98.4669 35.821C97.3635 35.1533 96.0915 34.3836 94.4862 33.5403C91.7878 32.1228 90.1253 32.0905 88.3483 32.0559C86.4884 32.0197 84.5031 31.9811 81.0734 30.349C75.5117 27.7023 74.8337 26.2529 73.8643 24.1804C73.6647 23.7539 73.4528 23.3009 73.1835 22.8057C72.0522 20.7258 70.5196 18.9565 68.9832 18.333C68.6799 18.21 68.4471 17.9883 68.3662 17.7407C68.2775 17.469 68.125 17.1371 67.9439 16.7429C67.3595 15.4707 66.4771 13.5498 66.4771 10.9107C66.4771 8.32207 64.1565 8.33661 61.6319 8.35242C60.3876 8.36022 59.0938 8.36833 58.0038 8.06524C57.8678 8.02742 57.7539 7.95694 57.6719 7.86865C56.818 6.94914 56.0773 5.99771 55.3792 5.10107C53.4587 2.63437 51.861 0.582331 49.1193 0.750361C45.6636 0.962144 44.9407 3.03228 43.7281 6.50469C43.2796 7.78917 42.764 9.26553 42.0183 10.9107C41.5246 12.0001 40.2582 12.7486 38.6062 13.7252C37.6184 14.309 36.4928 14.9743 35.3119 15.8428C33.5219 17.1592 31.478 20.9025 29.6122 24.3195C28.1885 26.9269 26.8685 29.3444 25.844 30.349C23.9954 32.1617 18.487 33.2002 15.7795 33.5184C15.6522 33.5334 15.533 33.5698 15.4293 33.6261L7.04758 38.1822H-8.75564L-19.4642 33.5656C-19.5033 33.5488 -19.5403 33.5295 -19.5749 33.508L-24.1558 30.6574C-24.4437 30.4782 -24.8638 30.4739 -25.1583 30.6472Z" fill="#00AFC1"/>
</svg>
