<svg width="25" height="24" viewBox="0 0 25 24" fill="none" xmlns="http://www.w3.org/2000/svg">
<path d="M19.75 2.75H7.664C7.39881 2.75006 7.14449 2.85545 6.957 3.043L3.25 6.75H17.75V21.25L21.457 17.543C21.6446 17.3555 21.7499 17.1012 21.75 16.836V4.75C21.75 4.21957 21.5393 3.71086 21.1642 3.33579C20.7891 2.96071 20.2804 2.75 19.75 2.75Z" stroke="black" stroke-width="0.5" stroke-linecap="round" stroke-linejoin="round"/>
<path d="M7.75 9.75H4.75C4.47386 9.75 4.25 9.97386 4.25 10.25V13.25C4.25 13.5261 4.47386 13.75 4.75 13.75H7.75C8.02614 13.75 8.25 13.5261 8.25 13.25V10.25C8.25 9.97386 8.02614 9.75 7.75 9.75Z" stroke="black" stroke-width="0.5" stroke-linecap="round" stroke-linejoin="round"/>
<path d="M14.25 9.75H11.25C10.9739 9.75 10.75 9.97386 10.75 10.25V13.25C10.75 13.5261 10.9739 13.75 11.25 13.75H14.25C14.5261 13.75 14.75 13.5261 14.75 13.25V10.25C14.75 9.97386 14.5261 9.75 14.25 9.75Z" stroke="black" stroke-width="0.5" stroke-linecap="round" stroke-linejoin="round"/>
<path d="M14.25 16.25H11.25C10.9739 16.25 10.75 16.4739 10.75 16.75V19.75C10.75 20.0261 10.9739 20.25 11.25 20.25H14.25C14.5261 20.25 14.75 20.0261 14.75 19.75V16.75C14.75 16.4739 14.5261 16.25 14.25 16.25Z" stroke="black" stroke-width="0.5" stroke-linecap="round" stroke-linejoin="round"/>
</svg>
