<svg width="25" height="24" viewBox="0 0 25 24" fill="none" xmlns="http://www.w3.org/2000/svg">
<path d="M12.5 1.5C9.72568 1.53366 7.07448 2.65072 5.1126 4.6126C3.15072 6.57448 2.03366 9.22568 2 12C2.03366 14.7743 3.15072 17.4255 5.1126 19.3874C7.07448 21.3493 9.72568 22.4663 12.5 22.5C15.2743 22.4663 17.9255 21.3493 19.8874 19.3874C21.8493 17.4255 22.9663 14.7743 23 12C22.9663 9.22568 21.8493 6.57448 19.8874 4.6126C17.9255 2.65072 15.2743 1.53366 12.5 1.5ZM18.5 12.75H13.25V18H11.75V12.75H6.5V11.25H11.75V6H13.25V11.25H18.5V12.75Z" fill="black"/>
</svg>
