<svg width="29" height="28" viewBox="0 0 29 28" fill="none" xmlns="http://www.w3.org/2000/svg">
<path d="M21.6194 3.21339C24.0194 3.21339 25.2384 4.38339 25.2859 6.70289L25.2874 6.84589V21.1554C25.2874 23.5209 24.1174 24.7389 21.7649 24.7864L21.6199 24.7879H7.39239C5.00389 24.7879 3.76289 23.6289 3.71439 21.2994L3.71289 21.1554V6.84539C3.71289 4.46839 4.90589 3.26139 7.24789 3.21439L7.39289 3.21289L21.6194 3.21339ZM21.5844 5.09989H7.42789C6.29389 5.09989 5.64289 5.68189 5.60189 6.82389L5.59989 6.93989V21.0604C5.59989 22.2399 6.21489 22.8594 7.31639 22.8984L7.42789 22.9004H21.5844C22.7069 22.9004 23.3579 22.3184 23.3989 21.1764L23.4009 21.0604V6.94039C23.4009 5.76089 22.7859 5.14139 21.6949 5.10239L21.5844 5.09989ZM17.0004 19.0004C17.2656 19.0004 17.52 19.1057 17.7075 19.2933C17.895 19.4808 18.0004 19.7352 18.0004 20.0004C18.0004 20.2656 17.895 20.52 17.7075 20.7075C17.52 20.895 17.2656 21.0004 17.0004 21.0004H8.00039C7.73517 21.0004 7.48082 20.895 7.29328 20.7075C7.10575 20.52 7.00039 20.2656 7.00039 20.0004C7.00039 19.7352 7.10575 19.4808 7.29328 19.2933C7.48082 19.1057 7.73517 19.0004 8.00039 19.0004H17.0004ZM21.0004 15.5004C21.2656 15.5004 21.52 15.6057 21.7075 15.7933C21.895 15.9808 22.0004 16.2352 22.0004 16.5004C22.0004 16.7656 21.895 17.02 21.7075 17.2075C21.52 17.395 21.2656 17.5004 21.0004 17.5004H8.00039C7.73517 17.5004 7.48082 17.395 7.29328 17.2075C7.10575 17.02 7.00039 16.7656 7.00039 16.5004C7.00039 16.2352 7.10575 15.9808 7.29328 15.7933C7.48082 15.6057 7.73517 15.5004 8.00039 15.5004H21.0004ZM7.55039 7.11989C8.28289 6.29739 9.47839 6.29389 10.2054 7.10989L10.3254 7.24839L10.4244 7.37239L10.5054 7.48039L10.5954 7.60989L10.6734 7.74089L10.7099 7.67589L10.7734 7.57589L10.8364 7.48589L10.8749 7.43439L10.9659 7.31739L11.0194 7.25239L11.1424 7.10989C11.8664 6.29639 13.0644 6.29739 13.7974 7.11989C14.5304 7.94239 14.5074 9.22089 13.8059 10.1004L13.6539 10.2839L13.4659 10.4989L13.2499 10.7374L12.8919 11.1224L12.5169 11.5159L12.0379 12.0084L11.6994 12.3479L11.4434 12.5964L11.3809 12.6534C10.8594 13.1139 10.5004 13.1019 10.0209 12.7014L9.93089 12.6224L9.81239 12.5099L9.40839 12.1104L8.96289 11.6584L8.48189 11.1584L8.29289 10.9569L8.02539 10.6664L7.78789 10.3994L7.65289 10.2399C7.61156 10.1899 7.57439 10.1434 7.54139 10.1004C6.81939 9.16289 6.81789 7.94239 7.55039 7.11989Z" fill="black"/>
</svg>
