<svg width="29" height="28" viewBox="0 0 29 28" fill="none" xmlns="http://www.w3.org/2000/svg">
<path d="M21.6194 3.21339C24.0689 3.21339 25.2874 4.43189 25.2874 6.84589V21.1554C25.2874 23.5694 24.0689 24.7879 21.6194 24.7879H7.39289C4.95539 24.7879 3.71289 23.5809 3.71289 21.1554V6.84539C3.71289 4.41989 4.95539 3.21289 7.39289 3.21289L21.6194 3.21339ZM17.0004 19.0004H8.00039C7.73517 19.0004 7.48082 19.1057 7.29328 19.2933C7.10575 19.4808 7.00039 19.7352 7.00039 20.0004C7.00039 20.2656 7.10575 20.52 7.29328 20.7075C7.48082 20.895 7.73517 21.0004 8.00039 21.0004H17.0004C17.2656 21.0004 17.52 20.895 17.7075 20.7075C17.895 20.52 18.0004 20.2656 18.0004 20.0004C18.0004 19.7352 17.895 19.4808 17.7075 19.2933C17.52 19.1057 17.2656 19.0004 17.0004 19.0004ZM21.0004 15.5004H8.00039C7.73517 15.5004 7.48082 15.6057 7.29328 15.7933C7.10575 15.9808 7.00039 16.2352 7.00039 16.5004C7.00039 16.7656 7.10575 17.02 7.29328 17.2075C7.48082 17.395 7.73517 17.5004 8.00039 17.5004H21.0004C21.2656 17.5004 21.52 17.395 21.7075 17.2075C21.895 17.02 22.0004 16.7656 22.0004 16.5004C22.0004 16.2352 21.895 15.9808 21.7075 15.7933C21.52 15.6057 21.2656 15.5004 21.0004 15.5004ZM7.55039 7.11989C6.81789 7.94239 6.81939 9.16289 7.54139 10.1004C8.06939 10.7864 9.74539 12.4594 9.95439 12.6444C10.4679 13.0994 10.8359 13.1349 11.3809 12.6534C11.4469 12.5954 11.5849 12.4619 11.7644 12.2829L11.9284 12.1189C12.5319 11.5104 13.4334 10.5684 13.8059 10.1004C14.5074 9.22089 14.5299 7.94239 13.7969 7.11989C13.0639 6.29739 11.8664 6.29639 11.1419 7.10989C10.7844 7.51139 10.6734 7.74089 10.6734 7.74089C10.6734 7.74089 10.5514 7.49839 10.2054 7.10989C9.47839 6.29389 8.28289 6.29739 7.55039 7.11989Z" fill="black"/>
</svg>
