<svg width="24" height="24" viewBox="0 0 24 24" fill="none" xmlns="http://www.w3.org/2000/svg">
<path d="M11.75 2.5C11.9489 2.5 12.1397 2.57902 12.2803 2.71967C12.421 2.86032 12.5 3.05109 12.5 3.25V11H20.25C20.4489 11 20.6397 11.079 20.7803 11.2197C20.921 11.3603 21 11.5511 21 11.75C21 11.9489 20.921 12.1397 20.7803 12.2803C20.6397 12.421 20.4489 12.5 20.25 12.5H12.5V20.25C12.5 20.4489 12.421 20.6397 12.2803 20.7803C12.1397 20.921 11.9489 21 11.75 21C11.5511 21 11.3603 20.921 11.2197 20.7803C11.079 20.6397 11 20.4489 11 20.25V12.5H3.25C3.05109 12.5 2.86032 12.421 2.71967 12.2803C2.57902 12.1397 2.5 11.9489 2.5 11.75C2.5 11.5511 2.57902 11.3603 2.71967 11.2197C2.86032 11.079 3.05109 11 3.25 11H11V3.25C11 3.05109 11.079 2.86032 11.2197 2.71967C11.3603 2.57902 11.5511 2.5 11.75 2.5Z" fill="black"/>
</svg>
