<svg width="21" height="20" viewBox="0 0 21 20" fill="none" xmlns="http://www.w3.org/2000/svg">
<g clip-path="url(#clip0_86079_161)">
<path d="M16.2129 2.84763C16.7691 3.0781 17.2745 3.41589 17.7001 3.84172C18.1259 4.26735 18.4637 4.77271 18.6942 5.32893C18.9247 5.88514 19.0433 6.48132 19.0433 7.08339C19.0433 7.68546 18.9247 8.28164 18.6942 8.83785C18.4637 9.39407 18.1259 9.89943 17.7001 10.3251L16.8168 11.2084L10.3334 17.6917L3.8501 11.2084L2.96677 10.3251C2.10702 9.46531 1.62402 8.29925 1.62402 7.08339C1.62402 5.86753 2.10702 4.70147 2.96677 3.84172C3.82651 2.98198 4.99257 2.49898 6.20843 2.49898C7.42429 2.49898 8.59036 2.98198 9.4501 3.84172L10.3334 4.72506L11.2168 3.84172C11.6424 3.41589 12.1478 3.0781 12.704 2.84763C13.2602 2.61716 13.8564 2.49854 14.4584 2.49854C15.0605 2.49854 15.6567 2.61716 16.2129 2.84763Z" stroke="#363939" stroke-width="2" stroke-linecap="round" stroke-linejoin="round"/>
</g>
<defs>
<clipPath id="clip0_86079_161">
<rect width="20" height="20" fill="white" transform="translate(0.333496)"/>
</clipPath>
</defs>
</svg>
