<svg width="25" height="24" viewBox="0 0 25 24" fill="none" xmlns="http://www.w3.org/2000/svg">
<path d="M19.81 18.9C20.25 18.21 20.5 17.38 20.5 16.5C20.5 14 18.5 12 16 12C13.5 12 11.5 14 11.5 16.5C11.5 19 13.5 21 16 21C16.87 21 17.69 20.75 18.38 20.32L21.5 23.39L22.89 22L19.81 18.9ZM16 19C15.337 19 14.7011 18.7366 14.2322 18.2678C13.7634 17.7989 13.5 17.163 13.5 16.5C13.5 15.837 13.7634 15.2011 14.2322 14.7322C14.7011 14.2634 15.337 14 16 14C16.663 14 17.2989 14.2634 17.7678 14.7322C18.2366 15.2011 18.5 15.837 18.5 16.5C18.5 17.163 18.2366 17.7989 17.7678 18.2678C17.2989 18.7366 16.663 19 16 19ZM5.5 20V12H2.5L12.5 3L22.5 12H20.68C19.8186 11.0982 18.7139 10.466 17.5 10.18L12.5 5.69L7.5 10.19V18H9.68C9.85 18.72 10.14 19.39 10.53 20H5.5Z" fill="black"/>
</svg>
