<svg width="25" height="24" viewBox="0 0 25 24" fill="none" xmlns="http://www.w3.org/2000/svg">
<path fill-rule="evenodd" clip-rule="evenodd" d="M19.5 3C20.2956 3 21.0587 3.31607 21.6213 3.87868C22.1839 4.44129 22.5 5.20435 22.5 6V16C22.5 16.7956 22.1839 17.5587 21.6213 18.1213C21.0587 18.6839 20.2956 19 19.5 19H7.833L4.5 21.5C3.676 22.118 2.5 21.53 2.5 20.5V6C2.5 5.20435 2.81607 4.44129 3.37868 3.87868C3.94129 3.31607 4.70435 3 5.5 3H19.5ZM11.5 12H8.5C8.23478 12 7.98043 12.1054 7.79289 12.2929C7.60536 12.4804 7.5 12.7348 7.5 13C7.5 13.2652 7.60536 13.5196 7.79289 13.7071C7.98043 13.8946 8.23478 14 8.5 14H11.5C11.7652 14 12.0196 13.8946 12.2071 13.7071C12.3946 13.5196 12.5 13.2652 12.5 13C12.5 12.7348 12.3946 12.4804 12.2071 12.2929C12.0196 12.1054 11.7652 12 11.5 12ZM16.5 8H8.5C8.24512 8.00028 7.99997 8.09788 7.81463 8.27285C7.6293 8.44782 7.51777 8.68695 7.50283 8.94139C7.48789 9.19584 7.57067 9.44638 7.73426 9.64183C7.89786 9.83729 8.1299 9.9629 8.383 9.993L8.5 10H16.5C16.7549 9.99972 17 9.90212 17.1854 9.72715C17.3707 9.55218 17.4822 9.31305 17.4972 9.05861C17.5121 8.80416 17.4293 8.55362 17.2657 8.35817C17.1021 8.16271 16.8701 8.0371 16.617 8.007L16.5 8Z" fill="black"/>
</svg>
