<svg width="25" height="24" viewBox="0 0 25 24" fill="none" xmlns="http://www.w3.org/2000/svg">
<path d="M19.5639 0H5.43586C4.12891 0.00185177 2.87602 0.521856 1.95187 1.44601C1.02771 2.37016 0.507711 3.62305 0.505859 4.93V19.06C0.505856 20.3683 1.02481 21.6231 1.94886 22.5492C2.87291 23.4753 4.1266 23.9971 5.43486 24H19.5629C20.2114 24.0005 20.8536 23.873 21.4527 23.6248C22.0517 23.3765 22.5959 23.0124 23.054 22.5533C23.512 22.0943 23.8749 21.5493 24.1218 20.9496C24.3687 20.35 24.4948 19.7075 24.4929 19.059V4.93C24.4929 3.62283 23.9737 2.36917 23.0496 1.44467C22.1255 0.520174 20.872 0.000530292 19.5649 0L19.5639 0ZM9.04986 10.63V12.959C9.05232 13.0039 9.04528 13.0488 9.02921 13.0908C9.01315 13.1328 8.98841 13.171 8.95661 13.2028C8.92481 13.2345 8.88667 13.2593 8.84467 13.2754C8.80267 13.2914 8.75776 13.2985 8.71286 13.296H6.38386C6.33896 13.2985 6.29404 13.2914 6.25205 13.2754C6.21005 13.2593 6.1719 13.2345 6.14011 13.2028C6.10831 13.171 6.08357 13.1328 6.06751 13.0908C6.05144 13.0488 6.0444 13.0039 6.04686 12.959V10.63C6.04686 10.43 6.18386 10.293 6.38386 10.293H8.72386C8.92386 10.293 9.05986 10.43 9.05986 10.63H9.04986ZM14.2119 18.121C14.2143 18.1659 14.2073 18.2108 14.1912 18.2528C14.1751 18.2948 14.1504 18.333 14.1186 18.3648C14.0868 18.3965 14.0487 18.4213 14.0067 18.4374C13.9647 18.4534 13.9198 18.4605 13.8749 18.458H11.5469C11.502 18.4605 11.457 18.4534 11.415 18.4374C11.373 18.4213 11.3349 18.3965 11.3031 18.3648C11.2713 18.333 11.2466 18.2948 11.2305 18.2528C11.2144 18.2108 11.2074 18.1659 11.2099 18.121V15.793C11.2099 15.593 11.3459 15.456 11.5469 15.456H13.8749C14.0649 15.456 14.2119 15.592 14.2119 15.793V18.121ZM14.2119 12.959C14.2143 13.0039 14.2073 13.0488 14.1912 13.0908C14.1751 13.1328 14.1504 13.171 14.1186 13.2028C14.0868 13.2345 14.0487 13.2593 14.0067 13.2754C13.9647 13.2914 13.9198 13.2985 13.8749 13.296H11.5469C11.502 13.2985 11.457 13.2914 11.415 13.2754C11.373 13.2593 11.3349 13.2345 11.3031 13.2028C11.2713 13.171 11.2466 13.1328 11.2305 13.0908C11.2144 13.0488 11.2074 13.0039 11.2099 12.959V10.63C11.2099 10.43 11.3459 10.293 11.5469 10.293H13.8749C14.0749 10.293 14.2119 10.43 14.2119 10.63V12.959ZM20.1859 17.331C20.19 17.428 20.1725 17.5247 20.1344 17.614C20.0963 17.7032 20.0387 17.7829 19.9659 17.847L17.6579 20.144C17.4779 20.312 17.2259 20.196 17.2259 19.944V7.28H4.56186C4.30886 7.28 4.19286 7.016 4.36186 6.848L6.66886 4.55C6.80586 4.403 6.94286 4.318 7.17486 4.318H18.6479C19.5019 4.318 20.1859 5.003 20.1859 5.857V17.331Z" fill="black"/>
</svg>
