<svg width="24447" height="24144" viewBox="0 0 24447 24144" fill="none" xmlns="http://www.w3.org/2000/svg">
<path d="M6500.07 6077.37L3886.62 5287.89C3785.19 5257.25 3678.13 5314.63 3647.49 5416.06L3182.65 6954.83C3152.01 7056.26 3209.4 7163.32 3310.82 7193.96L5924.28 7983.44C6025.7 8014.08 6132.76 7956.69 6163.4 7855.27L6628.24 6316.49C6658.88 6215.07 6601.49 6108.01 6500.07 6077.37Z" stroke="#263238" stroke-width="1.00285" stroke-miterlimit="10"/>
<path d="M3555.28 5653.7L6526.16 6554.07" stroke="#263238" stroke-miterlimit="10"/>
<path d="M3464.81 5951.83L6436.23 6852.19" stroke="#263238" stroke-miterlimit="10"/>
<path d="M5532.05 7409.74C5524.49 7434.83 5522.09 7461.19 5525 7487.23C5527.9 7513.27 5536.05 7538.45 5548.95 7561.25C5504.41 7583.25 5453.18 7587.54 5405.61 7573.24C5375.31 7564.09 5347.72 7547.65 5325.26 7525.35C5302.8 7503.06 5286.15 7475.6 5276.77 7445.37C5267.39 7415.14 5265.57 7383.08 5271.47 7351.98C5277.37 7320.89 5290.8 7291.72 5310.59 7267.02C5330.39 7242.33 5355.94 7222.87 5385 7210.34C5414.07 7197.82 5445.76 7192.62 5477.3 7195.19C5508.84 7197.77 5539.27 7208.04 5565.92 7225.11C5592.57 7242.18 5614.63 7265.53 5630.15 7293.11C5606.85 7305.02 5586.16 7321.48 5569.32 7341.51C5552.47 7361.54 5539.8 7384.74 5532.05 7409.74Z" stroke="#263238" stroke-miterlimit="10"/>
<path d="M5902.12 7522.01C5890.97 7558.62 5869.21 7591.1 5839.59 7615.34C5809.98 7639.59 5773.84 7654.5 5735.75 7658.2C5697.66 7661.91 5659.33 7654.23 5625.6 7636.14C5591.87 7618.06 5564.27 7590.38 5546.27 7556.6C5528.28 7522.82 5520.71 7484.47 5524.51 7446.39C5528.32 7408.31 5543.33 7372.21 5567.66 7342.67C5591.98 7313.12 5624.52 7291.45 5661.16 7280.4C5697.79 7269.34 5736.89 7269.4 5773.49 7280.57C5822.56 7295.54 5863.68 7329.38 5887.8 7374.66C5911.92 7419.94 5917.07 7472.94 5902.12 7522.01Z" stroke="#263238" stroke-miterlimit="10"/>
<path d="M24263.4 9791.8L22102.5 9136.9C22001.3 9106.26 21894.5 9163.38 21863.9 9264.49L21485.2 10514.2C21454.5 10615.3 21511.6 10722.1 21612.7 10752.8L23773.7 11407.7C23874.8 11438.3 23981.6 11381.2 24012.2 11280.1L24391 10030.4C24421.6 9929.24 24364.5 9822.44 24263.4 9791.8Z" stroke="#263238" stroke-miterlimit="10"/>
<path d="M21805.6 9456.81L24332.9 10222.6" stroke="#263238" stroke-miterlimit="10"/>
<path d="M21728.8 9710.79L24255.5 10476.5" stroke="#263238" stroke-miterlimit="10"/>
<path d="M23487 10949.1C23480.5 10970.3 23478.4 10992.7 23480.8 11014.8C23483.3 11037 23490.2 11058.3 23501.2 11077.7C23477.3 11089.3 23451 11094.9 23424.5 11094.1C23398 11093.2 23372 11086 23349 11072.9C23325.9 11059.8 23306.3 11041.3 23292 11018.9C23277.7 10996.6 23269 10971.1 23266.8 10944.7C23264.5 10918.2 23268.7 10891.6 23279 10867.2C23289.3 10842.7 23305.4 10821.2 23325.9 10804.3C23346.4 10787.5 23370.7 10775.9 23396.6 10770.5C23422.6 10765.2 23449.5 10766.2 23475 10773.6C23515.5 10785.7 23549.7 10813.1 23570.4 10849.9C23550.5 10859.9 23532.8 10873.8 23518.5 10890.9C23504.1 10907.9 23493.4 10927.7 23487 10949.1Z" stroke="#263238" stroke-miterlimit="10"/>
<path d="M23801.5 11046.1C23791.8 11076.9 23773.3 11104.1 23748.2 11124.4C23723.1 11144.6 23692.6 11157 23660.5 11160C23628.4 11163 23596.1 11156.4 23567.7 11141C23539.3 11125.7 23516.1 11102.3 23501 11073.8C23485.9 11045.3 23479.6 11013 23482.8 10980.9C23486 10948.8 23498.6 10918.4 23519.1 10893.5C23539.5 10868.5 23566.9 10850.2 23597.8 10840.8C23628.6 10831.4 23661.6 10831.3 23692.5 10840.6C23713.2 10846.8 23732.5 10857.1 23749.2 10870.8C23765.9 10884.6 23779.8 10901.5 23789.9 10920.6C23800 10939.7 23806.3 10960.6 23808.3 10982.2C23810.3 11003.7 23808 11025.4 23801.5 11046.1Z" stroke="#263238" stroke-miterlimit="10"/>
<path d="M20804.9 3821.05L17650.3 5265.37L18401.7 6906.62L21556.4 5462.31L20804.9 3821.05Z" stroke="#263238" stroke-miterlimit="10"/>
<path d="M21285.2 5226.41L20807.7 4183.8C20763.1 4204.16 20712.3 4206.02 20666.3 4188.96C20620.3 4171.9 20583 4137.31 20562.5 4092.78L18012.3 5260.2C18032.7 5304.81 18034.6 5355.66 18017.5 5401.63C18000.4 5447.6 17965.9 5484.94 17921.3 5505.46L18398.8 6548.07C18420.9 6537.93 18444.8 6532.26 18469.1 6531.37C18493.4 6530.49 18517.6 6534.41 18540.4 6542.92C18563.2 6551.43 18584.1 6564.35 18601.8 6580.95C18619.6 6597.54 18634 6617.49 18644 6639.63L21193.6 5471.67C21183.5 5449.56 21177.8 5425.67 21176.9 5401.36C21176 5377.05 21179.9 5352.81 21188.4 5330.03C21196.9 5307.24 21209.9 5286.36 21226.5 5268.58C21243.1 5250.79 21263 5236.47 21285.2 5226.41Z" stroke="#263238" stroke-miterlimit="10"/>
<path d="M19892.2 5740.31C20099.9 5580.78 20138.9 5283.11 19979.4 5075.44C19819.8 4867.76 19522.2 4828.73 19314.5 4988.26C19106.8 5147.78 19067.8 5445.46 19227.3 5653.13C19386.8 5860.81 19684.5 5899.84 19892.2 5740.31Z" stroke="#263238" stroke-miterlimit="10"/>
<path d="M19732.4 5593.75L19767.8 5671.14L19734 5686.41L19699.2 5610.1C19639.5 5636.08 19572.5 5640.33 19510 5622.09V5574.68C19565.3 5591.39 19624.6 5588.5 19677.9 5566.5L19597.8 5389.92C19514.9 5405.72 19429.4 5417.71 19388.5 5328.33C19359.1 5264.02 19379.8 5186.63 19479 5131.58L19443.5 5053.64L19477.3 5038.38L19514.4 5117.41C19563.4 5096.14 19617.4 5088.97 19670.3 5096.7V5144.12C19623.7 5137.39 19576.2 5142.84 19532.4 5159.92L19614.1 5338.69C19698.6 5321.79 19788.5 5306.53 19832.1 5397C19859.4 5459.68 19836 5538.71 19732.4 5593.75ZM19576.5 5342.5L19499.1 5171.91C19432.1 5209.52 19417.4 5259.66 19437 5302.17C19459.9 5355.58 19514.4 5353.4 19576 5342.5H19576.5ZM19782 5419.35C19758 5364.85 19700.3 5370.3 19635.9 5382.83L19712.8 5551.24C19786.9 5512 19801.1 5462.4 19781.5 5419.35H19782Z" fill="#263238"/>
<path d="M3395.26 11297.4L969.403 11515.8L1082.96 12777.5L3508.82 12559.1L3395.26 11297.4Z" stroke="#263238" stroke-width="1.00404" stroke-miterlimit="10"/>
<path d="M3313.84 12304L3245.17 11505.5C3211.01 11508.4 3177.09 11497.6 3150.84 11475.6C3124.6 11453.5 3108.15 11422 3105.1 11387.8L1151.77 11556.8C1154.5 11590.9 1143.67 11624.7 1121.64 11650.9C1099.61 11677.2 1068.14 11693.6 1034.05 11696.8L1102.72 12495.3C1119.65 12493.8 1136.71 12495.6 1152.92 12500.7C1169.14 12505.9 1184.18 12514.1 1197.19 12525.1C1210.2 12536 1220.93 12549.4 1228.75 12564.5C1236.58 12579.6 1241.35 12596.1 1242.79 12613L3196.12 12444C3193.39 12409.9 3204.22 12376.1 3226.25 12349.9C3248.28 12323.6 3279.75 12307.2 3313.84 12304Z" stroke="#263238" stroke-miterlimit="10"/>
<path d="M2504.5 11972.1C2510.18 12037.5 2496.34 12103.1 2464.73 12160.6C2433.11 12218.2 2385.14 12265.1 2326.88 12295.3C2268.62 12325.6 2202.68 12337.9 2137.42 12330.7C2072.16 12323.5 2010.5 12297.1 1960.25 12254.9C1909.99 12212.6 1873.39 12156.4 1855.08 12093.4C1836.77 12030.3 1837.58 11963.2 1857.39 11900.6C1877.2 11838.1 1915.14 11782.7 1966.39 11741.7C2017.64 11700.7 2079.92 11675.8 2145.33 11670.1C2188.75 11666.3 2232.5 11671.1 2274.06 11684.2C2315.63 11697.3 2354.2 11718.5 2387.56 11746.6C2420.92 11774.6 2448.43 11809 2468.49 11847.7C2488.56 11886.4 2500.79 11928.6 2504.5 11972.1Z" stroke="#263238" stroke-miterlimit="10"/>
<path d="M2204.74 12182.4L2209.64 12241.8H2184.03L2178.58 12183C2133.28 12186 2088.36 12173.1 2051.59 12146.5L2063.58 12115.9C2096.1 12139.6 2135.68 12151.5 2175.85 12149.7L2164.41 12014C2106.09 12005.3 2046.68 11992.8 2041.23 11924.6C2036.87 11875 2068.49 11828.7 2146.97 11815.6L2142.06 11756.2H2167.68L2172.58 11814.5C2210.39 11812.1 2248.12 11820.2 2281.59 11838L2271.23 11869C2242.15 11853.9 2209.71 11846.4 2176.94 11847.2L2188.39 11984C2247.79 11992.8 2311.02 12004.2 2317.01 12073.4C2320.28 12124.1 2285.95 12170.4 2204.74 12182.4ZM2161.14 11980.2L2149.69 11851.1C2095.19 11860.3 2075.57 11889.8 2078.3 11922.5C2081.02 11955.2 2117.54 11973.1 2161.14 11980.2ZM2278.32 12079.4C2274.5 12038.5 2235.8 12024.9 2190.57 12020.6L2201.47 12149.7C2258.15 12140.5 2281.04 12112.1 2278.32 12079.4Z" fill="#263238"/>
<path d="M23020.5 4556.59C23282.4 4556.59 23494.6 4344.3 23494.6 4082.43C23494.6 3820.55 23282.4 3608.26 23020.5 3608.26C22758.6 3608.26 22546.3 3820.55 22546.3 4082.43C22546.3 4344.3 22758.6 4556.59 23020.5 4556.59Z" stroke="#263238" stroke-miterlimit="10"/>
<path d="M23041.7 4345.67V4430.69H23002.5V4346.21C22937.5 4344.93 22874.9 4321.25 22825.4 4279.18L22846.6 4236.67C22890 4274.72 22944.9 4297 23002.5 4299.89V4105.32C22920.7 4085.15 22839 4060.08 22839 3961.98C22839 3891.13 22890.2 3829.54 23002.5 3820.82V3734.16H23039.6V3818.64C23093 3819.77 23145.1 3835.82 23190 3864.97L23171.4 3908.57C23131.9 3883.08 23086.5 3868.24 23039.6 3865.51V4061.72C23122.9 4081.88 23211.2 4105.32 23211.2 4205.05C23213.4 4276.45 23159.5 4339.13 23041.7 4345.67ZM23004.7 4051.91V3867.15C22928.4 3873.69 22895.7 3912.93 22895.7 3959.8C22893.5 4015.93 22943.6 4036.64 23002.5 4051.91H23004.7ZM23159.5 4207.78C23159.5 4149.46 23105 4129.3 23041.7 4113.49V4299.89C23122.9 4292.8 23159.5 4255.2 23159.5 4207.78Z" fill="#263238"/>
<path d="M19897.4 10425.9C20152.3 10365.9 20310.3 10110.5 20250.2 9855.65C20190.1 9600.75 19934.8 9442.82 19679.9 9502.88C19425 9562.95 19267.1 9818.27 19327.2 10073.2C19387.2 10328.1 19642.6 10486 19897.4 10425.9Z" stroke="#263238" stroke-miterlimit="10"/>
<path d="M19669.2 10199.1L19625 10271.6L19593.4 10252L19637.6 10180C19582.7 10145.2 19541.8 10092.1 19522 10030.2L19562.4 10005.1C19579.4 10060 19614.6 10107.4 19662.1 10139.7L19764.6 9973.49C19705.2 9914.08 19647.9 9849.23 19699.2 9765.84C19736.2 9705.34 19812 9679.73 19913.4 9731.5L19958 9658.47L19989.7 9678.09L19945.5 9750.03C19990.2 9779.15 20026.2 9819.84 20049.6 9867.76L20010.9 9895.55C19990.4 9853.27 19959.4 9816.89 19921 9789.82L19818 9957.14C19879 10018.2 19941.7 10084.1 19889.4 10169.1C19851.8 10230.2 19773.3 10254.7 19669.2 10199.1ZM19791.8 9926.62L19888.3 9769.11C19820.2 9734.77 19770.6 9750.03 19746 9789.82C19716.6 9840.5 19747.7 9884.65 19791.8 9929.34V9926.62ZM19842 10140.3C19872.5 10090.7 19837 10045.4 19790.7 9998.56L19693.7 10156.6C19766.2 10196.9 19816.9 10186 19841.4 10143L19842 10140.3Z" fill="#263238"/>
<path d="M12984 811.794C13023 897.099 13035.8 992.036 13020.7 1084.6C13005.7 1177.17 12963.6 1263.2 12899.7 1331.83C12835.8 1400.46 12753 1448.6 12661.7 1470.17C12570.5 1491.73 12474.9 1485.75 12387 1452.98C12299.1 1420.22 12223 1362.13 12168.1 1286.08C12113.3 1210.02 12082.2 1119.41 12078.8 1025.69C12075.5 931.978 12100 839.373 12149.3 759.586C12198.5 679.798 12270.3 616.41 12355.6 577.438C12412.3 551.48 12473.5 536.952 12535.7 534.685C12598 532.418 12660.1 542.457 12718.5 564.227C12776.8 585.997 12830.3 619.07 12875.9 661.552C12921.5 704.034 12958.2 755.09 12984 811.794Z" stroke="#263238" stroke-miterlimit="10"/>
<path d="M12681.6 1238.54L12717 1315.93L12683.2 1331.74L12647.2 1254.89C12587.5 1280.87 12520.6 1285.11 12458.1 1266.88V1219.46C12513.1 1236.09 12572.1 1233.4 12625.4 1211.83L12544.8 1034.16C12461.9 1049.96 12376.3 1061.41 12335.5 972.573C12306 907.716 12326.7 830.869 12426.5 775.822L12391.1 697.885L12424.3 682.625L12459.7 759.472C12508.8 738.203 12562.7 731.031 12615.6 738.761V786.178C12569 779.58 12521.6 785.022 12477.7 801.983L12559.5 980.748C12643.9 963.852 12733.9 949.137 12777.5 1039.06C12810.7 1104.47 12785.7 1183.49 12681.6 1238.54ZM12525.7 987.288L12448.8 818.879C12381.8 856.485 12367.1 906.626 12386.7 948.592C12410.1 999.823 12464.1 998.188 12525.7 987.288ZM12731.1 1064.14C12706.6 1009.63 12649.4 1015.63 12585.1 1027.62L12661.9 1196.03C12733.3 1156.79 12750.8 1107.74 12731.1 1064.14Z" fill="#263238"/>
<path d="M11387.1 20014.3C11445.7 20142.4 11464.9 20285.1 11442.3 20424.1C11419.8 20563.2 11356.5 20692.5 11260.5 20795.6C11164.5 20898.7 11040.1 20971 10903 21003.4C10765.9 21035.8 10622.2 21026.8 10490.2 20977.6C10358.2 20928.3 10243.8 20841.1 10161.4 20726.8C10079 20612.5 10032.3 20476.4 10027.3 20335.6C10022.2 20194.8 10059.1 20055.7 10133.1 19935.8C10207.1 19816 10315 19720.7 10443.2 19662.2C10528.3 19623.3 10620.2 19601.6 10713.7 19598.3C10807.2 19594.9 10900.4 19610 10988.1 19642.7C11075.7 19675.4 11156.1 19725.1 11224.6 19788.8C11293 19852.6 11348.3 19929.2 11387.1 20014.3Z" stroke="#263238" stroke-miterlimit="10"/>
<path d="M10932.1 20656.3L10986.6 20773L10935.9 20795.8L10881.4 20680.3C10791.8 20719.5 10691.3 20726.1 10597.4 20698.8L10600.7 20628C10683.4 20652.6 10772.1 20648.2 10851.9 20615.4L10730.4 20349.5C10606.7 20372.9 10477.5 20390.4 10416.5 20256.8C10371.8 20159.8 10403.4 20043.7 10552.7 19960.9L10498.2 19844.8L10548.4 19821.4L10602.9 19936.9C10676.6 19905.2 10757.7 19894.4 10837.2 19905.8V19976.7C10767.5 19966.8 10696.3 19975.1 10630.7 20000.7L10752.7 20268.8C10879.7 20243.7 11014.9 20221.4 11077 20356.6C11123.9 20455.2 11089 20574 10932.1 20656.3ZM10698.8 20278.6L10582.7 20025.7C10483 20080.2 10460.6 20157.1 10490.1 20221.4C10524.9 20298.2 10605.6 20295.5 10698.8 20278.6ZM11007.3 20394.7C10970.8 20314.6 10884.1 20321.1 10789.3 20340.2L10904.8 20593.1C11012.2 20533.7 11036.7 20459.6 11007.3 20394.7Z" fill="#263238"/>
<path d="M1183.38 8945.05C1077.54 9038.01 946.515 9097.51 806.864 9116.02C667.214 9134.52 525.212 9111.21 398.811 9049.02C272.41 8986.83 167.287 8888.56 96.7317 8766.63C26.1766 8644.7 -6.64189 8504.59 2.42529 8364.01C11.4925 8223.43 62.0382 8088.69 147.672 7976.84C233.306 7864.98 350.182 7781.03 483.525 7735.59C616.868 7690.16 760.688 7685.28 896.804 7721.57C1032.92 7757.86 1155.22 7833.7 1248.24 7939.49C1310.03 8009.77 1357.36 8091.53 1387.55 8180.1C1417.73 8268.67 1430.16 8362.33 1424.14 8455.71C1418.12 8549.09 1393.75 8640.37 1352.44 8724.33C1311.13 8808.29 1253.69 8883.29 1183.38 8945.05Z" stroke="#263238" stroke-miterlimit="10"/>
<path d="M438.892 8694.34L342.969 8778.82L305.908 8736.85L401.286 8653.46C338.096 8578.69 302.841 8484.29 301.548 8386.41L370.765 8368.97C370.799 8454.83 399.795 8538.16 453.062 8605.5L671.068 8412.57C612.751 8300.84 558.795 8182.03 671.068 8085.56C751.73 8015.25 871.633 8011.98 993.716 8130.79L1092.91 8046.86L1129.42 8088.28L1034.05 8172.22C1084.79 8233.93 1117.59 8308.4 1128.88 8387.5L1061.3 8409.84C1050.44 8340.15 1022.13 8274.34 979.001 8218.54L757.18 8413.11C817.677 8527.02 878.173 8650.19 766.445 8748.84C685.238 8819.69 561.52 8823.51 438.892 8694.34ZM733.199 8361.88L941.94 8178.21C859.098 8098.64 778.436 8099.18 728.294 8145.51C662.893 8201.1 689.053 8278.49 731.564 8361.88H733.199ZM710.854 8688.89C777.346 8631.12 746.28 8549.91 700.498 8462.71L491.758 8646.38C577.325 8734.12 656.897 8737.39 711.399 8690.52L710.854 8688.89Z" fill="#263238"/>
<path d="M4444.33 15020.8C4451.93 14830.9 4304.12 14670.8 4114.19 14663.2C3924.25 14655.6 3764.12 14803.4 3756.53 14993.3C3748.93 15183.2 3896.74 15343.4 4086.67 15351C4276.61 15358.6 4436.74 15210.8 4444.33 15020.8Z" stroke="#263238" stroke-width="1.0008" stroke-miterlimit="10"/>
<path d="M4199.49 15073.7L4238.73 15121.2L4218.57 15138L4179.33 15091.2C4142.45 15120.8 4096.37 15136.6 4049.07 15135.9L4041.44 15102.1C4083.04 15103.2 4123.78 15090.1 4156.98 15065L4066.51 14956C4012.01 14982.7 3954.24 15007.2 3908.45 14952.7C3875.75 14913.5 3875.75 14855.2 3934.61 14797.4L3894.83 14750L3915.54 14733.1L3954.78 14780C3985.12 14755.9 4021.52 14740.6 4059.97 14735.8L4069.78 14768.5C4036.09 14773.2 4004.08 14786.1 3976.58 14806.1L4067.6 14915.1C4122.1 14887.3 4183.69 14860.6 4231.1 14915.1C4264.35 14955.5 4263.26 15015.4 4199.49 15073.7ZM4043.62 14927.7L3957.51 14824.7C3918.26 14863.9 3917.72 14901.5 3938.98 14927.7C3960.23 14953.8 4002.74 14946.7 4043.62 14927.7ZM4202.22 14942.4C4174.97 14910.2 4135.73 14923.9 4093.21 14945.1L4179.33 15048.1C4221.29 15006.7 4224.02 14968.5 4202.22 14941.8V14942.4Z" fill="#263238"/>
<path d="M15022.9 21804.1C15066.4 21856.4 15093.5 21920.4 15100.6 21988C15107.8 22055.6 15094.7 22123.9 15063.1 22184.1C15031.4 22244.3 14982.7 22293.8 14922.9 22326.3C14863.2 22358.7 14795.1 22372.8 14727.4 22366.6C14659.7 22360.5 14595.3 22334.3 14542.4 22291.6C14489.5 22248.8 14450.5 22191.4 14430.3 22126.4C14410.1 22061.5 14409.5 21992 14428.8 21926.8C14448 21861.6 14486.2 21803.5 14538.4 21760C14608.6 21701.7 14699 21673.6 14789.8 21681.9C14880.6 21690.2 14964.5 21734.1 15022.9 21804.1Z" stroke="#263238" stroke-miterlimit="10"/>
<path d="M14892.1 22161.1L14931.9 22208.5L14911.2 22225.4L14872 22178.5C14835.3 22208.2 14789.4 22224 14742.3 22223.2L14734.6 22189.4C14776.3 22190.8 14817.1 22177.7 14850.2 22152.4L14759.7 22043.4C14705.2 22070.1 14646.9 22094.6 14601.6 22040.1C14568.4 22000.9 14568.4 21942.6 14627.3 21884.8L14588 21837.4L14608.7 21820.5L14648 21867.3C14678.2 21843 14714.6 21827.7 14753.2 21823.2L14763 21855.9C14729.1 21860.6 14696.9 21873.5 14669.2 21893.5L14760.8 22002.5C14815.3 21974.7 14876.9 21948 14924.3 22002.5C14955.9 22042.8 14954.8 22102.8 14892.1 22161.1ZM14735.7 22012.9L14649.6 21909.9C14609.8 21949.1 14609.3 21986.7 14631.1 22012.9C14652.9 22039 14694.3 22034.1 14735.7 22012.9ZM14893.8 22028.1C14866.5 21995.4 14827.3 22009 14784.8 22028.1L14870.9 22131.1C14913.4 22094.1 14916.1 22055.9 14893.8 22029.8V22028.1Z" fill="#263238"/>
<path d="M5610.38 2211.59C5627.73 2022.45 5488.46 1855.06 5299.32 1837.71C5110.18 1820.37 4942.79 1959.63 4925.45 2148.77C4908.1 2337.91 5047.37 2505.3 5236.51 2522.65C5425.65 2539.99 5593.04 2400.73 5610.38 2211.59Z" stroke="#263238" stroke-miterlimit="10"/>
<path d="M5402.34 2317.12L5441.58 2364.54L5420.87 2381.44L5381.63 2334.56C5345.01 2364.29 5299.07 2380.12 5251.91 2379.26L5244.28 2345.46C5285.89 2346.56 5326.62 2333.49 5359.83 2308.4L5269.36 2199.4C5214.85 2226.11 5156.54 2250.63 5111.3 2196.13C5078.6 2156.89 5078.06 2098.57 5137.46 2040.8L5097.68 1993.39L5118.39 1976.49L5157.63 2023.36C5187.91 1999.16 5224.33 1983.88 5262.82 1979.22L5272.63 2011.92C5238.94 2016.59 5206.92 2029.51 5179.43 2049.52L5270.45 2158.52C5324.95 2130.73 5386.53 2104.02 5433.95 2158.52C5466.11 2198.86 5464.47 2258.81 5402.34 2317.12ZM5245.37 2170.52L5159.26 2065.33C5120.02 2104.57 5118.93 2142.17 5140.73 2168.34C5162.53 2194.5 5203.95 2190.14 5245.37 2170.52ZM5403.97 2185.23C5376.72 2153.07 5336.94 2166.7 5294.97 2185.23L5381.08 2288.24C5423.05 2250.09 5425.77 2211.94 5403.97 2185.23Z" fill="#263238"/>
<path opacity="0.2" d="M13018.4 16279.8C13018.4 16279.8 12598.2 18412.5 10020.8 18895.9C10020.8 18895.9 9347.7 19432.8 9123.7 19750.5C8899.7 20068.2 7706.66 20608.4 6491.28 22293.5C5275.9 23978.7 3466.45 18627.2 3466.45 18627.2L7465.76 13433.2L13018.4 16279.8Z" fill="black" fill-opacity="0.7"/>
<path d="M15309.1 6266.3C15309.1 6266.3 16698.9 5586.67 17004.6 5703.84C17310.4 5821.02 17604.1 6524.09 16435.1 7197.18C15266 7870.28 15614.8 9124.36 15614.8 9124.36H16448.7C16448.7 9124.36 16949 9328.19 17143.6 9590.34C17338.2 9852.5 17477.1 10746.3 17588.3 11049.3C17699.5 11352.4 17642.8 11655.9 17338.2 11754.6C17338.2 11754.6 17143.6 12602.6 17199.2 12978.7C17254.8 13354.8 17227 13596.7 16865.6 13642.5C16774.7 13652 16682.8 13641.6 16596.3 13612C16509.8 13582.5 16430.8 13534.5 16364.7 13471.3C16298.6 13408.2 16247 13331.4 16213.5 13246.3C16180 13161.3 16165.4 13070 16170.7 12978.7L15892.8 13985.9L16087.3 14372.8C16362.2 14479.2 16616.2 14633.1 16837.8 14827.4C17227 15160.9 17616.1 15252 17504.9 15623.7C17393.7 15995.4 17171.4 16395.9 16004 15931.6C14836.5 15467.2 13863.7 13642.5 13863.7 13642.5L13162.3 7280.03L15309.1 6266.3Z" fill="white"/>
<path opacity="0.4" d="M16771.9 9921.17C16141.8 10780.1 16838.9 11769.3 16838.9 11769.3C16838.9 11769.3 16402.9 12012.4 16390.4 12632.6C16385.5 12890.4 16450.3 13250.7 16527.7 13584.2C16414.4 13530.7 16319.8 13444.3 16256.3 13336.3C16192.7 13228.3 16163.1 13103.7 16171.3 12978.7L15892.8 13985.9L16087.3 14372.3C16292.1 14450.6 16485 14556.8 16660.7 14687.9C16487.9 15084.6 16435.1 15575.1 16450.3 16080.9C16298.5 16040.6 16149.4 15990.7 16004 15931.6C14836.5 15466.7 13863.7 13642.5 13863.7 13642.5L13162.3 7279.48L15309.1 6266.3C15309.1 6266.3 16068.3 5895.14 16588.2 5748.54C16547.9 6234.69 16642.7 6737.74 16711.4 7017.87C16622.7 7082.77 16530.5 7142.64 16435.1 7197.18C15267.6 7870.28 15614.8 9124.36 15614.8 9124.36H16449.2C16449.2 9124.36 16924.5 9318.38 17128.3 9570.72C16988.9 9664.56 16868.1 9783.37 16771.9 9921.17Z" fill="#7AD0EA"/>
<path d="M13137.7 15254.7C13137.7 15254.7 11625.9 18219 8900.79 18891.6C8900.79 18891.6 8796.69 19478 8335.61 19729.8C8089.26 19863.9 7095.15 21353.4 6222.59 22713.2L1389.4 19748.3C1686.97 19454 2025.97 19115 2370.42 18761.3C3378.7 17733.4 4454.56 16581.2 4783.75 16011.2C5078.06 15504.3 5450.3 14624.6 5774.58 13797.9C6189.89 12740.5 6527.79 11769.3 6527.79 11769.3L8138.86 9978.39L10671.5 7162.3L10780.5 7522.56L13137.7 15254.7Z" fill="white"/>
<path opacity="0.4" d="M10673.7 7162.3L13137.7 15254.7C13137.7 15254.7 11625.9 18219 8900.79 18891.6C8900.79 18891.6 8796.69 19478 8335.61 19729.8C8114.33 19850.2 7290.81 21062.9 6494 22291.4C6789.4 21277.6 7644.53 19661.7 7644.53 19661.7C7095.7 19011.5 7255.93 18326.4 7475.57 18521.5C7695.21 18716.6 8247.31 19264.9 8282.2 19299.2C8039.66 19013.6 7983.53 18566.2 7983.53 18566.2C7983.53 18566.2 8663.71 19018.6 8718.75 18293.7C8773.8 17568.8 8311.08 15797.5 8311.08 15797.5L7096.24 11139.8L10673.7 7162.3Z" fill="#7AD0EA"/>
<path d="M13162.3 7280.03L15309.1 6266.3C15309.1 6266.3 16698.9 5586.67 17004.6 5703.84C17310.4 5821.02 17604.1 6524.09 16435.1 7197.18C15266 7870.28 15614.8 9124.36 15614.8 9124.36H16448.7C16448.7 9124.36 16949 9328.19 17143.6 9590.34C17338.2 9852.5 17477.1 10746.3 17588.3 11049.3C17699.5 11352.4 17642.8 11655.9 17338.2 11754.6C17338.2 11754.6 17143.6 12602.6 17199.2 12978.7C17254.8 13354.8 17227 13596.7 16865.6 13642.5C16774.7 13652 16682.8 13641.6 16596.3 13612C16509.8 13582.5 16430.8 13534.5 16364.7 13471.3C16298.6 13408.2 16247 13331.4 16213.5 13246.3C16180 13161.3 16165.4 13070 16170.7 12978.7L15892.8 13985.9L16087.3 14372.8C16362.2 14479.2 16616.2 14633.1 16837.8 14827.4C17227 15160.9 17616.1 15252 17504.9 15623.7C17393.7 15995.4 17171.4 16395.9 16004 15931.6C14836.5 15467.2 13863.7 13642.5 13863.7 13642.5" stroke="#263238" stroke-linecap="round" stroke-linejoin="round"/>
<path d="M17338.2 11754.6C16921.2 11867.4 16435.1 11784 16254.1 11046.1C16073.2 10308.1 16435.1 9520.04 16671.1 9447.55" stroke="#263238" stroke-linecap="round" stroke-linejoin="round"/>
<path d="M16170.7 12978.7C16170.7 12978.7 16142.9 12029.8 16490.7 11795.5" stroke="#263238" stroke-linecap="round" stroke-linejoin="round"/>
<path opacity="0.4" d="M6031.83 17691.4C6031.83 17691.4 5013.2 17564.5 4785.93 17108.8C4597.9 16731.7 3578.72 18144.3 2372.6 18761.3C3380.88 17733.4 4456.74 16581.2 4785.93 16011.2C5080.24 15504.3 5452.48 14624.6 5776.76 13797.9C5760.41 14483.5 5395.25 15533.2 5499.35 16079.8C5387.81 16109.3 5292.38 16181.6 5233.72 16280.9C5175.07 16380.3 5157.91 16498.8 5185.97 16610.7C5263.91 17045.1 6031.83 17691.4 6031.83 17691.4Z" fill="#7AD0EA"/>
<path d="M13137.7 15254.7C13137.7 15254.7 11625.9 18219 8900.24 18891.6C8900.24 18891.6 8796.69 19478 8335.61 19729.8C8089.26 19863.9 7095.7 21353.4 6222.04 22713.2" stroke="#263238" stroke-linecap="round" stroke-linejoin="round"/>
<path d="M1389.4 19748.3C2553.55 18597.8 4342.83 16773.6 4785.93 16011.2C5456.3 14857.4 6529.97 11768.8 6529.97 11768.8L10672.1 7162.3" stroke="#263238" stroke-linecap="round" stroke-linejoin="round"/>
<path d="M8308.36 10680.4C8308.36 10680.4 8944.93 11250.5 9125.88 11770.4" stroke="#263238" stroke-linecap="round" stroke-linejoin="round"/>
<path d="M15822.5 2377.08H8973.27C8770.7 2377.08 8606.48 2541.3 8606.48 2743.87V17324.6C8606.48 17527.2 8770.7 17691.4 8973.27 17691.4H15822.5C16025 17691.4 16189.3 17527.2 16189.3 17324.6V2743.87C16189.3 2541.3 16025 2377.08 15822.5 2377.08Z" fill="#263238"/>
<path d="M13900.8 2794.01L13755.8 3059.43C13740.4 3088.24 13717.6 3112.36 13689.7 3129.24C13661.8 3146.13 13629.8 3155.15 13597.2 3155.36H11199.1C11166.5 3155.18 11134.6 3146.3 11106.6 3129.62C11078.6 3112.95 11055.6 3089.09 11040 3060.52L10895.5 2795.1C10880 2766.42 10857 2742.47 10829 2725.77C10801 2709.08 10769 2700.27 10736.4 2700.27H9060.48C9036.6 2700.34 9012.97 2705.12 8990.94 2714.34C8968.91 2723.57 8948.92 2737.04 8932.11 2754C8915.3 2770.97 8902 2791.08 8892.98 2813.19C8883.96 2835.3 8879.39 2858.97 8879.53 2882.85V17216.7C8879.53 17264.8 8898.58 17310.9 8932.5 17344.9C8966.41 17378.9 9012.44 17398.1 9060.48 17398.2H15734.7C15758.6 17398.4 15782.4 17393.8 15804.5 17384.7C15826.7 17375.7 15846.8 17362.3 15863.8 17345.5C15880.7 17328.6 15894.2 17308.5 15903.4 17286.4C15912.6 17264.3 15917.3 17240.7 15917.3 17216.7V2882.85C15917.3 2834.72 15898.2 2788.55 15864.1 2754.52C15830.1 2720.48 15783.9 2701.36 15735.8 2701.36H14060.4C14028 2701.05 13996 2709.48 13967.9 2725.79C13939.8 2742.09 13916.6 2765.66 13900.8 2794.01Z" fill="#7AD0EA" stroke="#263238" stroke-linecap="round" stroke-linejoin="round"/>
<path d="M11877.7 2922.63C11931.5 2922.63 11975.2 2878.96 11975.2 2825.08C11975.2 2771.2 11931.5 2727.52 11877.7 2727.52C11823.8 2727.52 11780.1 2771.2 11780.1 2825.08C11780.1 2878.96 11823.8 2922.63 11877.7 2922.63Z" stroke="white" stroke-miterlimit="10"/>
<path d="M13015.1 2825.08C13015 2837.02 13011.4 2848.66 13004.6 2858.54C12997.9 2868.42 12988.4 2876.08 12977.4 2880.58C12966.3 2885.08 12954.2 2886.2 12942.5 2883.8C12930.8 2881.41 12920 2875.6 12911.6 2867.12C12903.2 2858.64 12897.5 2847.86 12895.2 2836.14C12892.9 2824.42 12894.2 2812.28 12898.8 2801.26C12903.4 2790.24 12911.1 2780.82 12921.1 2774.2C12931 2767.57 12942.7 2764.04 12954.6 2764.04C12962.6 2764.04 12970.5 2765.62 12977.9 2768.69C12985.3 2771.77 12992 2776.27 12997.6 2781.95C13003.2 2787.62 13007.6 2794.36 13010.7 2801.76C13013.7 2809.16 13015.2 2817.09 13015.1 2825.08Z" stroke="white" stroke-miterlimit="10"/>
<path d="M12743.7 2786.93H12150.7C12145.7 2786.93 12140.8 2787.92 12136.2 2789.84C12131.6 2791.76 12127.4 2794.58 12123.9 2798.13C12120.4 2801.68 12117.7 2805.89 12115.8 2810.52C12113.9 2815.14 12113 2820.09 12113.1 2825.08C12113.1 2835.05 12117.1 2844.62 12124.1 2851.67C12131.2 2858.72 12140.7 2862.68 12150.7 2862.68H12743.7C12753.7 2862.68 12763.2 2858.72 12770.3 2851.67C12777.3 2844.62 12781.3 2835.05 12781.3 2825.08C12781.4 2820.09 12780.4 2815.14 12778.6 2810.52C12776.7 2805.89 12774 2801.68 12770.5 2798.13C12767 2794.58 12762.8 2791.76 12758.2 2789.84C12753.6 2787.92 12748.7 2786.93 12743.7 2786.93Z" fill="white"/>
<path d="M10120.5 3063.79H9481.23V3335.21H10120.5V3063.79Z" stroke="#263238" stroke-linecap="round" stroke-linejoin="round"/>
<path d="M10219.2 3109.58H10120V3289.98H10219.2V3109.58Z" stroke="#263238" stroke-linecap="round" stroke-linejoin="round"/>
<path d="M14650.7 3237.11H14537.3V3335.76H14650.7V3237.11Z" stroke="#263238" stroke-linecap="round" stroke-linejoin="round"/>
<path d="M14872 3137.92H14758.6V3335.76H14872V3137.92Z" stroke="#263238" stroke-linecap="round" stroke-linejoin="round"/>
<path d="M15093.2 3038.72H14979.9V3335.21H15093.2V3038.72Z" stroke="#263238" stroke-linecap="round" stroke-linejoin="round"/>
<path d="M15314 2939.53H15200.6V3335.21H15314V2939.53Z" stroke="#263238" stroke-linecap="round" stroke-linejoin="round"/>
<path opacity="0.5" d="M15870.4 5867.35H8924.77V12492H15870.4V5867.35Z" fill="white"/>
<path d="M10843.2 4809.48V4924.47C10843.2 5066.72 10775.1 5142.48 10635.6 5142.48H10569.6V5475.48H10430.1V4589.84H10635.6C10775.1 4589.84 10843.2 4667.23 10843.2 4809.48ZM10570.7 4716.82V5017.13H10636.7C10680.8 5017.13 10704.8 4996.96 10704.8 4933.74V4800.21C10704.8 4736.99 10680.8 4716.82 10636.7 4716.82H10570.7Z" fill="#263238"/>
<path d="M11343 5477.12H11202.4L11177.9 5316.34H11007.3L10982.7 5477.12H10854.7L10996.9 4589.84H11200.7L11343 5477.12ZM11024.7 5195.89H11159.3L11093.4 4747.35H11090.7L11024.7 5195.89Z" fill="#263238"/>
<path d="M11476 5183.36L11299.9 4589.84H11448.2L11553.4 4994.24H11556.1L11661.3 4589.84H11794.3L11618.2 5183.36V5477.12H11478.7L11476 5183.36Z" fill="#263238"/>
<path d="M12141.4 5219.87H12144.2L12237.9 4589.84H12431.9V5477.12H12300V4841.09L12206.3 5477.12H12074.4L11973 4849.81V5477.12H11846V4589.84H12040.1L12141.4 5219.87Z" fill="#263238"/>
<path d="M12672.8 4963.72H12865.2V5090.7H12673.9V5350.68H12914.8V5477.12H12533.3V4589.84H12914.8V4716.82H12673.9L12672.8 4963.72Z" fill="#263238"/>
<path d="M13126.8 4834.55H13124.1V5477.12H12998.8V4589.84H13173.7L13314.3 5121.23V4589.84H13438.6V5477.12H13295.8L13126.8 4834.55Z" fill="#263238"/>
<path d="M13500.7 4589.84H13931.8V4716.82H13785.8V5477.12H13646.2V4716.82H13500.7V4589.84Z" fill="#263238"/>
<path d="M14180.3 4580.03C14315.5 4580.03 14385.3 4661.23 14385.3 4802.94V4830.73H14253.4V4794.22C14253.4 4730.45 14228.3 4706.47 14183.6 4706.47C14138.9 4706.47 14114.4 4730.45 14114.4 4794.22C14114.4 4857.98 14142.2 4907.03 14233.2 4986.61C14349.8 5089.61 14386.9 5162.65 14386.9 5264.02C14386.9 5406.27 14315.5 5487.47 14178.7 5487.47C14041.9 5487.47 13971.1 5406.27 13971.1 5264.02V5209.52H14103V5273.28C14103 5336.51 14130.7 5359.4 14174.9 5359.4C14219 5359.4 14247.4 5336.51 14247.4 5273.28C14247.4 5210.06 14219.6 5160.47 14128 5080.35C14011.4 4977.89 13974.9 4904.31 13974.9 4802.94C13974.9 4661.23 14044.6 4580.03 14180.3 4580.03Z" fill="#263238"/>
<path d="M15314 6670.16H9481.23V7541.63H15314V6670.16Z" fill="white" stroke="#263238" stroke-linecap="round" stroke-linejoin="round"/>
<path d="M15314 8304.65H9481.23V9176.13H15314V8304.65Z" fill="white" stroke="#263238" stroke-linecap="round" stroke-linejoin="round"/>
<path d="M15314 9790.91H9481.23V10662.4H15314V9790.91Z" fill="white" stroke="#263238" stroke-linecap="round" stroke-linejoin="round"/>
<path d="M12242.8 10980.1H9481.23V12000.4H12242.8V10980.1Z" fill="white" stroke="#263238" stroke-linecap="round" stroke-linejoin="round"/>
<path d="M15314.5 10980.1H12552.9V12000.4H15314.5V10980.1Z" fill="white" stroke="#263238" stroke-linecap="round" stroke-linejoin="round"/>
<path d="M9844.75 6518.1V6541.53H9662.17V6283.74H9839.3V6307.18H9689.97V6399.28H9822.95V6422.17H9689.97V6518.1H9844.75Z" fill="#263238"/>
<path d="M10223 6429.26V6541.53H10194.7V6432.53C10194.7 6391.65 10173.9 6370.4 10140.2 6370.4C10131.1 6370.01 10122 6371.61 10113.6 6375.09C10105.2 6378.56 10097.6 6383.83 10091.4 6390.52C10085.3 6397.21 10080.6 6405.17 10077.8 6413.83C10075 6422.5 10074.2 6431.67 10075.3 6440.7V6542.08H10049.1V6433.07C10049.1 6392.2 10028.4 6370.94 9994.63 6370.94C9985.54 6370.56 9976.47 6372.16 9968.05 6375.63C9959.64 6379.11 9952.08 6384.37 9945.91 6391.06C9939.74 6397.76 9935.1 6405.71 9932.31 6414.38C9929.52 6423.04 9928.66 6432.21 9929.77 6441.25V6542.62H9903.61V6349.14H9928.68V6384.57C9936.13 6372.52 9946.7 6362.72 9959.27 6356.19C9971.84 6349.67 9985.94 6346.67 10000.1 6347.51C10014.4 6346.3 10028.7 6349.6 10041 6356.93C10053.3 6364.26 10063 6375.26 10068.8 6388.38C10076.7 6375.28 10088 6364.56 10101.5 6357.36C10115.1 6350.17 10130.3 6346.76 10145.6 6347.51C10156.3 6346.78 10167.1 6348.44 10177.1 6352.36C10187.1 6356.28 10196.1 6362.36 10203.5 6370.17C10210.9 6377.98 10216.5 6387.32 10219.9 6397.54C10223.2 6407.75 10224.3 6418.58 10223 6429.26Z" fill="#263238"/>
<path d="M10440.5 6421.63V6541.53H10415.4V6511.56C10408 6522.35 10398 6531 10386.2 6536.65C10374.4 6542.29 10361.4 6544.73 10348.3 6543.71C10304.7 6543.71 10278 6520.82 10278 6489.21C10278 6457.6 10297.1 6434.71 10352.7 6434.71H10412.7V6422.72C10412.7 6389.47 10393.6 6371.49 10358.2 6371.49C10334.7 6371.12 10311.8 6379.25 10293.8 6394.38L10281.9 6374.76C10304.4 6357.29 10332.3 6348.06 10360.9 6348.6C10371.1 6346.92 10381.7 6347.59 10391.6 6350.56C10401.6 6353.54 10410.8 6358.74 10418.4 6365.77C10426.1 6372.81 10432 6381.49 10435.9 6391.16C10439.7 6400.84 10441.3 6411.26 10440.5 6421.63ZM10414.3 6483.76V6451.6H10353.3C10315.6 6451.6 10303.7 6466.32 10303.7 6486.49C10303.7 6506.65 10321.6 6523 10352.7 6523C10365.5 6523.37 10378.1 6519.81 10388.8 6512.79C10399.6 6505.78 10407.9 6495.64 10412.7 6483.76H10414.3Z" fill="#263238"/>
<path d="M10505.3 6287.01C10505.5 6282.05 10507.5 6277.33 10511.1 6273.87C10514.6 6270.41 10519.4 6268.48 10524.4 6268.48C10529.3 6268.48 10534 6270.43 10537.5 6273.91C10541 6277.38 10542.9 6282.1 10542.9 6287.01C10542.9 6291.92 10541 6296.64 10537.5 6300.11C10534 6303.59 10529.3 6305.54 10524.4 6305.54C10519.4 6305.54 10514.6 6303.61 10511.1 6300.15C10507.5 6296.69 10505.5 6291.97 10505.3 6287.01ZM10511.3 6348.05H10537.5V6541.53H10511.3V6348.05Z" fill="#263238"/>
<path d="M10610.5 6268.48H10636.7V6540.99H10610.5V6268.48Z" fill="#263238"/>
<path d="M10025.2 7188.46V7211.9H9842.57V6954.11H10019.7V6977.54H9867.64V7069.11H10001.2V7092.54H9867.64V7188.46H10025.2Z" fill="#263238"/>
<path d="M10403.4 7098.54V7210.81H10377.2V7101.81C10377.2 7060.93 10356.5 7039.68 10322.7 7039.68C10313.7 7039.21 10304.6 7040.73 10296.2 7044.14C10287.8 7047.55 10280.2 7052.77 10274 7059.42C10267.8 7066.07 10263.2 7074 10260.4 7082.64C10257.6 7091.28 10256.7 7100.43 10257.9 7109.44V7211.36H10231.7V7102.35C10231.7 7061.48 10211 7040.22 10177.2 7040.22C10168.1 7039.75 10159.1 7041.28 10150.7 7044.69C10142.2 7048.1 10134.7 7053.31 10128.5 7059.97C10122.3 7066.62 10117.7 7074.54 10114.9 7083.18C10112.1 7091.82 10111.2 7100.97 10112.4 7109.98V7211.9H10085.6V7017.87H10110.7V7053.3C10118.3 7041.4 10128.9 7031.73 10141.4 7025.31C10154 7018.89 10168 7015.95 10182.1 7016.79C10196.4 7015.74 10210.6 7019.1 10222.9 7026.42C10235.2 7033.73 10244.9 7044.63 10250.8 7057.66C10258.7 7044.52 10270 7033.76 10283.5 7026.56C10297.1 7019.36 10312.3 7015.98 10327.6 7016.79C10338.2 7016.31 10348.8 7018.15 10358.6 7022.18C10368.4 7026.21 10377.2 7032.32 10384.5 7040.1C10391.7 7047.88 10397.1 7057.14 10400.4 7067.23C10403.6 7077.32 10404.7 7088.01 10403.4 7098.54Z" fill="#263238"/>
<path d="M10620.3 7090.91V7210.81H10595.2V7180.83C10588 7191.56 10578 7200.15 10566.3 7205.71C10554.6 7211.27 10541.6 7213.59 10528.7 7212.44C10485.1 7212.44 10457.9 7189.55 10457.9 7157.94C10457.9 7126.33 10477.5 7103.44 10533.1 7103.44H10594.7V7092C10594.7 7058.75 10575.6 7040.76 10540.2 7040.76C10516.5 7040.46 10493.6 7048.58 10475.3 7063.66L10463.9 7044.04C10486.3 7026.24 10514.3 7016.97 10542.9 7017.87C10553 7016.55 10563.3 7017.5 10573 7020.64C10582.7 7023.78 10591.5 7029.03 10598.9 7036.02C10606.4 7043.01 10612.1 7051.57 10615.8 7061.06C10619.5 7070.55 10621 7080.75 10620.3 7090.91ZM10594.7 7152.49V7120.88H10533.7C10496 7120.88 10484.1 7135.6 10484.1 7155.76C10484.1 7175.93 10502 7192.28 10533.1 7192.28C10546.3 7193.04 10559.3 7189.59 10570.4 7182.44C10581.5 7175.29 10590 7164.8 10594.7 7152.49Z" fill="#263238"/>
<path d="M10685.2 6955.74C10685.3 6950.78 10687.4 6946.06 10690.9 6942.6C10694.5 6939.14 10699.3 6937.21 10704.2 6937.21C10706.7 6937.14 10709.2 6937.56 10711.5 6938.46C10713.8 6939.36 10715.9 6940.71 10717.7 6942.44C10719.5 6944.17 10720.9 6946.24 10721.9 6948.52C10722.8 6950.81 10723.3 6953.26 10723.3 6955.74C10723.3 6960.8 10721.3 6965.65 10717.7 6969.23C10714.2 6972.81 10709.3 6974.82 10704.2 6974.82C10699.2 6974.82 10694.3 6972.81 10690.8 6969.23C10687.2 6965.65 10685.2 6960.8 10685.2 6955.74ZM10691.2 7016.78H10717.3V7210.81H10691.2V7016.78Z" fill="#263238"/>
<path d="M10790.9 6937.21H10816.5V7209.72H10790.9V6937.21Z" fill="#263238"/>
<path d="M11066.7 7098.54V7210.81H11040.5V7101.81C11041.7 7093.75 11041 7085.54 11038.6 7077.78C11036.2 7070.01 11032 7062.89 11026.5 7056.93C11020.9 7050.97 11014.1 7046.33 11006.6 7043.34C10999 7040.36 10990.9 7039.1 10982.7 7039.68C10973.5 7038.9 10964.1 7040.18 10955.4 7043.44C10946.7 7046.69 10938.8 7051.84 10932.2 7058.51C10925.7 7065.17 10920.8 7073.19 10917.7 7082C10914.7 7090.8 10913.6 7100.17 10914.6 7109.44V7211.35H10888.5V7017.33H10913.5V7053.3C10921.4 7041.16 10932.4 7031.34 10945.3 7024.82C10958.2 7018.31 10972.7 7015.35 10987.1 7016.24C10998 7015.36 11009 7016.92 11019.2 7020.78C11029.5 7024.65 11038.7 7030.73 11046.3 7038.6C11053.9 7046.47 11059.7 7055.92 11063.2 7066.29C11066.7 7076.65 11067.9 7087.66 11066.7 7098.54Z" fill="#263238"/>
<path d="M11284.7 7090.91V7210.81H11259.6V7180.83C11252.4 7191.56 11242.4 7200.15 11230.7 7205.71C11219 7211.27 11206 7213.59 11193.1 7212.44C11149 7212.44 11122.3 7189.55 11122.3 7157.94C11122.3 7126.33 11141.3 7103.44 11196.9 7103.44H11258.5V7092C11258.5 7058.75 11240 7040.76 11204 7040.76C11180.5 7040.4 11157.7 7048.53 11139.7 7063.66L11127.7 7044.04C11150.2 7026.33 11178.2 7017.07 11206.7 7017.87C11216.9 7016.46 11227.2 7017.34 11237 7020.44C11246.7 7023.54 11255.7 7028.78 11263.1 7035.78C11270.6 7042.78 11276.4 7051.37 11280.2 7060.91C11283.9 7070.44 11285.4 7080.69 11284.7 7090.91ZM11258.5 7152.49V7120.88H11198C11160.4 7120.88 11147.9 7135.6 11147.9 7155.76C11147.9 7175.93 11165.9 7192.28 11196.9 7192.28C11210.2 7193.16 11223.4 7189.77 11234.5 7182.61C11245.7 7175.45 11254.3 7164.89 11259.1 7152.49H11258.5Z" fill="#263238"/>
<path d="M11676 7098.54V7210.81H11649.8V7101.81C11649.8 7060.93 11629.1 7039.68 11595.3 7039.68C11586.3 7039.21 11577.2 7040.73 11568.8 7044.14C11560.4 7047.56 11552.8 7052.77 11546.6 7059.42C11540.4 7066.07 11535.8 7074 11533 7082.64C11530.2 7091.28 11529.4 7100.43 11530.5 7109.44V7211.36H11502.7V7102.35C11502.7 7061.48 11482 7040.22 11448.2 7040.22C11439.1 7039.75 11430.1 7041.28 11421.6 7044.69C11413.2 7048.1 11405.7 7053.31 11399.5 7059.97C11393.3 7066.62 11388.6 7074.54 11385.9 7083.18C11383.1 7091.82 11382.2 7100.97 11383.3 7109.98V7211.9H11357.2V7017.88H11382.2V7053.3C11389.8 7041.4 11400.4 7031.74 11413 7025.31C11425.5 7018.89 11439.6 7015.95 11453.6 7016.79C11467.9 7015.58 11482.2 7018.88 11494.5 7026.21C11506.8 7033.54 11516.6 7044.53 11522.3 7057.66C11530.2 7044.56 11541.6 7033.84 11555.1 7026.64C11568.6 7019.45 11583.9 7016.04 11599.2 7016.79C11609.8 7016.15 11620.5 7017.87 11630.5 7021.82C11640.4 7025.77 11649.4 7031.87 11656.7 7039.67C11664.1 7047.47 11669.6 7056.78 11672.9 7066.96C11676.2 7077.13 11677.3 7087.91 11676 7098.54Z" fill="#263238"/>
<path d="M11916.4 7121.97H11752.8C11754.2 7140.97 11763.1 7158.64 11777.5 7171.11C11791.9 7183.57 11810.7 7189.81 11829.7 7188.46C11840.9 7188.77 11852 7186.64 11862.2 7182.21C11872.5 7177.79 11881.7 7171.18 11889.1 7162.85L11903.8 7179.74C11889.9 7194.34 11872 7204.52 11852.3 7208.99C11832.7 7213.45 11812.1 7212.02 11793.3 7204.86C11774.4 7197.7 11758.1 7185.14 11746.3 7168.75C11734.6 7152.36 11727.9 7132.86 11727.2 7112.71C11726.6 7099.92 11728.5 7087.14 11733 7075.15C11737.5 7063.15 11744.4 7052.22 11753.3 7043.01C11762.2 7033.81 11772.9 7026.53 11784.7 7021.65C11796.6 7016.76 11809.3 7014.36 11822.1 7014.6C11834.8 7014.35 11847.5 7016.75 11859.3 7021.65C11871 7026.55 11881.7 7033.84 11890.5 7043.06C11899.3 7052.28 11906.1 7063.24 11910.5 7075.22C11914.8 7087.21 11916.6 7099.98 11915.8 7112.71C11915.8 7112.71 11916.4 7119.25 11916.4 7121.97ZM11752.8 7102.35H11890.2C11890.2 7084.14 11883 7066.67 11870.1 7053.79C11857.2 7040.92 11839.7 7033.68 11821.5 7033.68C11803.3 7033.68 11785.8 7040.92 11773 7053.79C11760.1 7066.67 11752.8 7084.14 11752.8 7102.35Z" fill="#263238"/>
<path d="M12295.7 7113.25C12295.7 7175.93 12272.2 7212.45 12234.1 7212.45C12228.7 7212.75 12223.3 7211.93 12218.3 7210.06C12213.2 7208.19 12208.6 7205.3 12204.7 7201.57C12200.8 7197.83 12197.8 7193.34 12195.7 7188.37C12193.6 7183.39 12192.6 7178.05 12192.7 7172.66C12185.1 7185.26 12174.3 7195.6 12161.3 7202.6C12148.4 7209.59 12133.8 7213 12119.1 7212.45C12093.9 7212.45 12069.8 7202.45 12052 7184.67C12034.3 7166.89 12024.3 7142.76 12024.3 7117.61C12024.3 7092.46 12034.3 7068.34 12052 7050.56C12069.8 7032.77 12093.9 7022.78 12119.1 7022.78C12133.6 7022.16 12148 7025.42 12160.9 7032.22C12173.7 7039.02 12184.5 7049.12 12192.1 7061.48V7024.96H12216.1V7164.48C12216.1 7185.2 12226.5 7192.83 12239 7192.83C12261.3 7192.83 12276.1 7164.48 12276.1 7114.89C12276.7 7095.2 12273.1 7075.61 12265.6 7057.38C12258.2 7039.15 12246.9 7022.7 12232.7 7009.08C12218.5 6995.46 12201.5 6984.99 12183 6978.34C12164.5 6971.68 12144.7 6969 12125.1 6970.46C12105.6 6970.46 12086.3 6974.29 12068.4 6981.74C12050.4 6989.19 12034 7000.11 12020.3 7013.88C12006.5 7027.65 11995.6 7043.99 11988.1 7061.97C11980.7 7079.96 11976.8 7099.24 11976.8 7118.7C11976.8 7138.17 11980.7 7157.45 11988.1 7175.43C11995.6 7193.42 12006.5 7209.76 12020.3 7223.53C12034 7237.29 12050.4 7248.21 12068.4 7255.66C12086.3 7263.11 12105.6 7266.95 12125.1 7266.95C12149.6 7266.88 12173.9 7261.3 12195.9 7250.6L12201.9 7268.58C12177.9 7279.89 12151.6 7285.66 12125.1 7285.48C12080.9 7285.48 12038.4 7267.91 12007.2 7236.63C11975.9 7205.35 11958.3 7162.93 11958.3 7118.7C11958.3 7074.47 11975.9 7032.05 12007.2 7000.78C12038.4 6969.5 12080.9 6951.93 12125.1 6951.93C12147.1 6950.34 12169.2 6953.35 12190 6960.77C12210.8 6968.19 12229.9 6979.86 12245.9 6995.03C12262 7010.21 12274.7 7028.55 12283.2 7048.91C12291.8 7069.26 12296 7091.17 12295.7 7113.25ZM12192.1 7117.07C12193 7107.35 12191.8 7097.56 12188.7 7088.33C12185.6 7079.09 12180.5 7070.6 12173.9 7063.41C12167.4 7056.21 12159.4 7050.47 12150.4 7046.54C12141.5 7042.61 12131.8 7040.58 12122.1 7040.58C12112.3 7040.58 12102.7 7042.61 12093.8 7046.54C12084.8 7050.47 12076.8 7056.21 12070.2 7063.41C12063.7 7070.6 12058.6 7079.09 12055.5 7088.33C12052.4 7097.56 12051.2 7107.35 12052.1 7117.07C12051.2 7126.78 12052.4 7136.57 12055.5 7145.81C12058.6 7155.05 12063.7 7163.54 12070.2 7170.73C12076.8 7177.92 12084.8 7183.67 12093.8 7187.6C12102.7 7191.53 12112.3 7193.56 12122.1 7193.56C12131.8 7193.56 12141.5 7191.53 12150.4 7187.6C12159.4 7183.67 12167.4 7177.92 12173.9 7170.73C12180.5 7163.54 12185.6 7155.05 12188.7 7145.81C12191.8 7136.57 12193 7126.78 12192.1 7117.07Z" fill="#263238"/>
<path d="M12519.1 7121.97H12355.6C12356.2 7131.43 12358.6 7140.68 12362.7 7149.19C12366.9 7157.71 12372.7 7165.33 12379.8 7171.61C12386.8 7177.89 12395.1 7182.7 12404.1 7185.78C12413 7188.86 12422.5 7190.14 12431.9 7189.55C12443.1 7189.86 12454.2 7187.73 12464.5 7183.3C12474.7 7178.88 12483.9 7172.27 12491.3 7163.94L12506.1 7180.83C12492.1 7195.43 12474.2 7205.61 12454.6 7210.07C12434.9 7214.54 12414.4 7213.11 12395.5 7205.95C12376.7 7198.79 12360.3 7186.23 12348.6 7169.84C12336.8 7153.45 12330.2 7133.95 12329.5 7113.8C12328.8 7101.01 12330.8 7088.23 12335.2 7076.23C12339.7 7064.24 12346.6 7053.31 12355.5 7044.1C12364.4 7034.9 12375.1 7027.62 12387 7022.74C12398.8 7017.85 12411.5 7015.45 12424.3 7015.69C12437.1 7015.44 12449.7 7017.84 12461.5 7022.74C12473.3 7027.64 12483.9 7034.93 12492.7 7044.15C12501.5 7053.37 12508.3 7064.33 12512.7 7076.31C12517.1 7088.3 12518.9 7101.07 12518 7113.8C12518 7113.8 12519.1 7119.25 12519.1 7121.97ZM12355.6 7102.35H12493C12493 7084.14 12485.7 7066.67 12472.9 7053.79C12460 7040.91 12442.5 7033.68 12424.3 7033.68C12406.1 7033.68 12388.6 7040.91 12375.7 7053.79C12362.9 7066.67 12355.6 7084.14 12355.6 7102.35Z" fill="#263238"/>
<path d="M12893 7098.54V7210.81H12865.2V7101.81C12865.2 7060.93 12844.5 7039.67 12810.7 7039.67C12801.7 7039.21 12792.6 7040.73 12784.2 7044.14C12775.8 7047.55 12768.2 7052.77 12762 7059.42C12755.8 7066.07 12751.2 7073.99 12748.4 7082.64C12745.6 7091.28 12744.7 7100.43 12745.9 7109.44V7211.35H12719.7V7102.35C12719.7 7061.47 12699 7040.22 12665.2 7040.22C12656.1 7039.75 12647.1 7041.28 12638.7 7044.69C12630.2 7048.1 12622.7 7053.31 12616.5 7059.96C12610.3 7066.61 12605.7 7074.54 12602.9 7083.18C12600.1 7091.82 12599.2 7100.97 12600.3 7109.98V7211.9H12574.2V7017.87H12599.3V7053.3C12606.7 7041.44 12617.2 7031.8 12629.7 7025.38C12642.2 7018.96 12656.1 7015.99 12670.1 7016.78C12684.4 7015.71 12698.8 7019.05 12711.1 7026.35C12723.5 7033.66 12733.3 7044.59 12739.3 7057.66C12747.1 7044.52 12758.3 7033.75 12771.8 7026.55C12785.2 7019.34 12800.4 7015.96 12815.6 7016.78C12826.4 7016.06 12837.1 7017.72 12847.1 7021.64C12857.1 7025.55 12866.2 7031.63 12873.6 7039.44C12881 7047.25 12886.5 7056.6 12889.9 7066.81C12893.3 7077.03 12894.3 7087.86 12893 7098.54Z" fill="#263238"/>
<path d="M13109.9 7090.91V7210.81H13083.2V7180.83C13075.9 7191.52 13065.9 7200.08 13054.3 7205.63C13042.6 7211.19 13029.6 7213.54 13016.7 7212.44C12972.6 7212.44 12945.9 7189.55 12945.9 7157.94C12945.9 7126.33 12965 7103.44 13020.6 7103.44H13083.2V7092C13083.2 7058.75 13064.7 7040.76 13028.7 7040.76C13005.2 7040.4 12982.4 7048.53 12964.4 7063.66L12952.4 7044.04C12974.9 7026.33 13002.9 7017.07 13031.5 7017.87C13041.6 7016.38 13052 7017.19 13061.9 7020.24C13071.7 7023.3 13080.7 7028.53 13088.2 7035.54C13095.8 7042.55 13101.6 7051.17 13105.4 7060.75C13109.1 7070.34 13110.7 7080.64 13109.9 7090.91ZM13083.8 7152.49V7120.88H13023.3C12985.7 7120.88 12973.1 7135.6 12973.1 7155.76C12973.1 7175.93 12991.1 7192.28 13022.2 7192.28C13035.3 7192.92 13048.2 7189.42 13059.2 7182.27C13070.1 7175.13 13078.5 7164.71 13083.2 7152.49H13083.8Z" fill="#263238"/>
<path d="M13175.3 6955.74C13175.3 6951.97 13176.5 6948.28 13178.6 6945.15C13180.6 6942.01 13183.6 6939.56 13187.1 6938.12C13190.6 6936.68 13194.4 6936.3 13198.1 6937.03C13201.8 6937.77 13205.2 6939.59 13207.9 6942.26C13210.6 6944.92 13212.4 6948.32 13213.1 6952.02C13213.9 6955.72 13213.5 6959.56 13212 6963.04C13210.6 6966.53 13208.1 6969.51 13205 6971.6C13201.9 6973.7 13198.2 6974.82 13194.4 6974.82C13189.4 6974.82 13184.5 6972.81 13180.9 6969.23C13177.3 6965.66 13175.3 6960.8 13175.3 6955.74ZM13180.8 7016.79H13206.9V7210.81H13180.8V7016.79Z" fill="#263238"/>
<path d="M13280 6937.21H13306.1V7209.72H13280V6937.21Z" fill="#263238"/>
<path d="M13362.3 7192.28C13362.2 7189.68 13362.7 7187.1 13363.6 7184.68C13364.6 7182.27 13366 7180.07 13367.9 7178.24C13369.7 7176.4 13371.9 7174.96 13374.3 7174C13376.7 7173.04 13379.3 7172.58 13381.9 7172.66C13387.1 7172.66 13392.1 7174.73 13395.8 7178.4C13399.4 7182.08 13401.5 7187.08 13401.5 7192.28C13401.5 7197.53 13399.5 7202.58 13395.8 7206.35C13392.1 7210.11 13387.2 7212.3 13381.9 7212.44C13379.3 7212.45 13376.7 7211.92 13374.3 7210.9C13371.8 7209.88 13369.7 7208.39 13367.8 7206.51C13366 7204.63 13364.6 7202.4 13363.6 7199.95C13362.7 7197.51 13362.2 7194.9 13362.3 7192.28Z" fill="#263238"/>
<path d="M13432 7113.8C13431.6 7100.67 13434 7087.6 13438.9 7075.41C13443.8 7063.23 13451.1 7052.18 13460.5 7042.97C13469.9 7033.76 13481 7026.59 13493.3 7021.89C13505.6 7017.2 13518.7 7015.09 13531.8 7015.69C13546.7 7014.71 13561.7 7017.73 13575.1 7024.43C13588.5 7031.13 13599.9 7041.29 13608.1 7053.84L13588.5 7066.93C13582.3 7058.17 13574.2 7051.02 13564.7 7046.08C13555.2 7041.15 13544.6 7038.58 13534 7038.58C13515 7040.19 13497.4 7048.84 13484.6 7062.82C13471.7 7076.8 13464.6 7095.09 13464.6 7114.07C13464.6 7133.05 13471.7 7151.34 13484.6 7165.32C13497.4 7179.3 13515 7187.94 13534 7189.55C13544.7 7189.65 13555.2 7187.12 13564.7 7182.18C13574.2 7177.24 13582.4 7170.04 13588.5 7161.21L13608.1 7174.29C13599.8 7186.77 13588.4 7196.86 13575 7203.56C13561.6 7210.25 13546.7 7213.31 13531.8 7212.44C13518.6 7213.05 13505.5 7210.93 13493.2 7206.2C13480.8 7201.48 13469.7 7194.25 13460.3 7184.98C13450.9 7175.71 13443.6 7164.6 13438.7 7152.35C13433.8 7140.1 13431.6 7126.97 13432 7113.8Z" fill="#263238"/>
<path d="M13636.4 7113.8C13636.4 7094.29 13642.2 7075.21 13653 7058.99C13663.9 7042.77 13679.3 7030.13 13697.3 7022.66C13715.3 7015.19 13735.2 7013.24 13754.3 7017.05C13773.4 7020.85 13791 7030.25 13804.8 7044.04C13818.6 7057.84 13828 7075.42 13831.8 7094.55C13835.6 7113.69 13833.7 7133.52 13826.2 7151.55C13818.7 7169.57 13806.1 7184.98 13789.9 7195.82C13773.6 7206.66 13754.6 7212.45 13735.1 7212.45C13722 7212.9 13709 7210.66 13696.8 7205.87C13684.6 7201.07 13673.5 7193.82 13664.3 7184.57C13655 7175.31 13647.8 7164.26 13643 7152.08C13638.2 7139.91 13636 7126.88 13636.4 7113.8ZM13807 7113.8C13806.6 7099.45 13801.9 7085.55 13793.5 7073.87C13785.2 7062.2 13773.5 7053.26 13760.1 7048.2C13746.7 7043.13 13732 7042.18 13718.1 7045.44C13704.1 7048.71 13691.4 7056.05 13681.6 7066.54C13671.8 7077.03 13665.3 7090.2 13663 7104.36C13660.7 7118.53 13662.7 7133.07 13668.6 7146.13C13674.6 7159.19 13684.3 7170.18 13696.5 7177.72C13708.7 7185.26 13722.9 7189 13737.2 7188.46C13746.8 7188.33 13756.2 7186.27 13764.9 7182.41C13773.7 7178.55 13781.5 7172.96 13788 7165.99C13794.5 7159.02 13799.6 7150.8 13802.8 7141.83C13806.1 7132.86 13807.5 7123.33 13807 7113.8Z" fill="#263238"/>
<path d="M14206.5 7098.54V7210.81H14180.3V7101.81C14180.3 7060.93 14159.6 7039.67 14125.8 7039.67C14116.8 7039.21 14107.7 7040.73 14099.3 7044.14C14090.9 7047.55 14083.3 7052.77 14077.1 7059.42C14070.9 7066.07 14066.3 7073.99 14063.5 7082.64C14060.7 7091.28 14059.9 7100.43 14061 7109.44V7211.35H14034.8V7102.35C14034.8 7061.47 14014.1 7040.22 13980.3 7040.22C13971.3 7039.75 13962.2 7041.28 13953.8 7044.69C13945.4 7048.1 13937.8 7053.31 13931.6 7059.96C13925.4 7066.61 13920.8 7074.54 13918 7083.18C13915.2 7091.82 13914.3 7100.97 13915.5 7109.98V7211.9H13889.3V7017.87H13914.4V7053.3C13921.8 7041.44 13932.4 7031.8 13944.8 7025.38C13957.3 7018.96 13971.2 7015.99 13985.2 7016.78C13999.6 7015.71 14013.9 7019.05 14026.3 7026.35C14038.6 7033.66 14048.5 7044.59 14054.4 7057.66C14062.2 7044.56 14073.5 7033.83 14086.9 7026.63C14100.4 7019.42 14115.5 7016.02 14130.7 7016.78C14141.3 7016.31 14151.9 7018.15 14161.7 7022.18C14171.5 7026.21 14180.4 7032.32 14187.6 7040.1C14194.8 7047.88 14200.2 7057.14 14203.5 7067.23C14206.7 7077.32 14207.8 7088.01 14206.5 7098.54Z" fill="#263238"/>
<path d="M9888.9 8745.03L9934.68 8771.19L9926.5 8786.45L9880.18 8759.74V8814.24H9863.28V8759.74L9816.96 8786.45L9808.24 8771.19L9854.56 8745.03L9808.24 8719.41L9816.96 8703.6L9863.28 8730.85V8676.35H9880.18V8730.85L9926.5 8703.6L9934.68 8719.41L9888.9 8745.03Z" fill="#263238"/>
<path d="M10038.8 8745.03L10084.6 8771.19L10075.8 8786.45L10030.1 8759.74V8814.24H10012.6V8759.74L9966.84 8786.45L9957.57 8771.19L10003.9 8745.03L9957.57 8719.41L9966.84 8703.6L10012.6 8730.85V8676.35H10031.1V8730.85L10076.9 8703.6L10085.6 8719.41L10038.8 8745.03Z" fill="#263238"/>
<path d="M10188.1 8745.03L10233.9 8771.19L10225.2 8786.45L10179.4 8759.74V8814.24H10162.5V8759.74L10116.7 8786.45L10108 8771.19L10153.8 8745.03L10108 8719.41L10116.7 8703.6L10162.5 8730.85V8676.35H10179.4V8730.85L10225.2 8703.6L10233.9 8719.41L10188.1 8745.03Z" fill="#263238"/>
<path d="M10337.4 8745.03L10383.2 8771.19L10375.1 8786.45L10328.7 8759.74V8814.24H10311.8V8759.74L10265.5 8786.45L10256.8 8771.19L10303.1 8745.03L10256.8 8719.41L10265.5 8703.6L10311.8 8730.85V8676.35H10328.7V8730.85L10375.1 8703.6L10383.2 8719.41L10337.4 8745.03Z" fill="#263238"/>
<path d="M10487.3 8745.03L10533.1 8771.19L10524.4 8786.45L10478.6 8759.74V8814.24H10461.2V8759.74L10415.4 8786.45L10406.1 8771.19L10452.4 8745.03L10406.1 8719.41L10415.4 8703.6L10461.2 8730.85V8676.35H10478.6V8730.85L10524.4 8703.6L10533.1 8719.41L10487.3 8745.03Z" fill="#263238"/>
<path d="M10636.7 8745.03L10682.4 8771.19L10673.7 8786.45L10627.9 8759.74V8814.24H10611V8759.74L10565.3 8786.45L10556.5 8771.19L10602.3 8745.03L10556.5 8719.41L10565.3 8703.6L10611 8730.85V8676.35H10630.7V8730.85L10676.4 8703.6L10685.2 8719.41L10636.7 8745.03Z" fill="#263238"/>
<path d="M10786 8745.03L10831.8 8771.19L10823.6 8786.45L10777.3 8759.74V8814.24H10760.4V8759.74L10714.1 8786.45L10705.3 8771.19L10751.7 8745.03L10705.3 8719.41L10714.1 8703.6L10760.4 8730.85V8676.35H10777.3V8730.85L10823.6 8703.6L10831.8 8719.41L10786 8745.03Z" fill="#263238"/>
<path d="M10935.9 8745.03L10981.7 8771.19L10972.9 8786.45L10926.6 8759.74V8814.24H10909.7V8759.74L10863.9 8786.45L10854.7 8771.19L10901 8745.03L10854.7 8719.41L10863.9 8703.6L10909.7 8730.85V8676.35H10926.6V8730.85L10972.9 8703.6L10981.7 8719.41L10935.9 8745.03Z" fill="#263238"/>
<path d="M11085.2 8745.03L11131 8771.19L11122.3 8786.45L11076.5 8759.74V8814.24H11059.6V8759.74L11013.8 8786.45L11005.1 8771.19L11050.9 8745.03L11005.1 8719.41L11013.8 8703.6L11059.6 8730.85V8676.35H11076.5V8730.85L11122.3 8703.6L11131 8719.41L11085.2 8745.03Z" fill="#263238"/>
<path d="M11234.5 8745.03L11280.3 8771.19L11272.1 8786.45L11225.8 8759.74V8814.24H11208.9V8759.74L11162.6 8786.45L11153.9 8771.19L11199.7 8745.03L11153.9 8719.41L11162.6 8703.6L11208.9 8730.85V8676.35H11225.8V8730.85L11272.1 8703.6L11280.3 8719.41L11234.5 8745.03Z" fill="#263238"/>
<path d="M11384.4 8745.03L11429.7 8771.19L11421.5 8786.45L11375.2 8759.74V8814.24H11358.3V8759.74L11312.5 8786.45L11303.2 8771.19L11349.5 8745.03L11303.2 8719.41L11312.5 8703.6L11358.3 8730.85V8676.35H11375.2V8730.85L11421.5 8703.6L11429.7 8719.41L11384.4 8745.03Z" fill="#263238"/>
<path d="M9864.37 8005.99C9864.37 8060.49 9824.59 8094.28 9759.18 8094.28H9689.97V8175.49H9662.17V7918.78H9758.64C9824.59 7918.78 9864.37 7951.48 9864.37 8005.99ZM9837.12 8005.99C9837.12 7964.56 9809.87 7941.13 9758.09 7941.13H9689.97V8070.3H9758.64C9809.87 8071.39 9837.12 8047.95 9837.12 8005.99Z" fill="#263238"/>
<path d="M10062.2 8056.67V8176.58H10037.1V8146.6C10029.8 8157.33 10019.7 8165.91 10007.9 8171.46C9996.12 8177.02 9983.08 8179.35 9970.11 8178.21C9926.51 8178.21 9899.8 8155.87 9899.8 8123.71C9899.8 8091.55 9918.87 8069.21 9974.47 8069.21H10036.1V8057.76C10036.1 8024.52 10017 8006.53 9981.55 8006.53C9958.06 8006.17 9935.22 8014.3 9917.24 8029.42L9905.25 8009.8C9927.71 7992.09 9955.68 7982.83 9984.28 7983.64C9994.42 7982.23 10004.7 7983.11 10014.5 7986.21C10024.3 7989.31 10033.2 7994.55 10040.7 8001.55C10048.2 8008.55 10054 8017.14 10057.7 8026.67C10061.4 8036.21 10063 8046.46 10062.2 8056.67ZM10036.1 8118.26V8086.65H9976.65C9939.04 8086.65 9927.05 8101.36 9927.05 8121.53C9927.05 8141.7 9945.04 8158.05 9976.1 8158.05C9988.99 8158.45 10001.7 8154.84 10012.4 8147.71C10023.2 8140.59 10031.4 8130.29 10036.1 8118.26Z" fill="#263238"/>
<path d="M10106.4 8154.77L10117.8 8134.06C10138.1 8148.31 10162.3 8155.92 10187 8155.87C10223.5 8155.87 10238.8 8143.33 10238.8 8123.71C10238.8 8073.57 10113.4 8113.35 10113.4 8036.51C10113.4 8004.9 10140.7 7982.01 10189.7 7982.01C10213.8 7981.69 10237.6 7987.91 10258.4 7999.99L10247 8020.7C10230 8009.65 10210 8003.95 10189.7 8004.35C10154.9 8004.35 10139.6 8017.98 10139.6 8036.51C10139.6 8091.01 10265 8049.59 10265 8123.71C10265 8157.5 10235.5 8178.21 10184.8 8178.21C10156.8 8179.12 10129.3 8170.89 10106.4 8154.77Z" fill="#263238"/>
<path d="M10286.2 8154.77L10298.2 8134.06C10318.2 8148.36 10342.3 8155.99 10366.9 8155.86C10403.9 8155.86 10421.4 8143.33 10421.4 8123.71C10421.4 8073.57 10296 8113.35 10296 8036.51C10296 8004.9 10323.3 7982 10372.9 7982C10396.8 7981.63 10420.4 7987.85 10441 7999.99L10429.6 8020.7C10413.3 8010.13 10394.4 8004.45 10375.1 8004.35C10339.6 8004.35 10324.4 8017.98 10324.4 8036.51C10324.4 8091.01 10449.7 8049.59 10449.7 8123.71C10449.7 8157.5 10420.3 8178.21 10370.1 8178.21C10340.3 8180.31 10310.7 8172.03 10286.2 8154.77Z" fill="#263238"/>
<path d="M10774 7983.1L10700.4 8176.58H10675.9L10614.9 8017.98L10553.8 8176.58H10528.7L10456.3 7983.1H10481.3L10541.8 8146.6L10604 7983.1H10626.8L10688.4 8146.6L10750 7983.1H10774Z" fill="#263238"/>
<path d="M10788.2 8079.56C10788.2 8060.05 10794 8040.98 10804.8 8024.76C10815.6 8008.54 10831 7995.89 10849.1 7988.43C10867.1 7980.96 10886.9 7979.01 10906.1 7982.81C10925.2 7986.62 10942.8 7996.01 10956.6 8009.81C10970.4 8023.6 10979.8 8041.18 10983.6 8060.32C10987.4 8079.45 10985.4 8099.29 10978 8117.31C10970.5 8135.34 10957.8 8150.75 10941.6 8161.59C10925.4 8172.43 10906.3 8178.21 10886.8 8178.21C10873.7 8178.67 10860.7 8176.43 10848.5 8171.63C10836.4 8166.84 10825.3 8159.59 10816.1 8150.33C10806.8 8141.08 10799.5 8130.02 10794.8 8117.85C10790 8105.67 10787.7 8092.64 10788.2 8079.56ZM10958.8 8079.56C10958.8 8060.48 10951.2 8042.18 10937.7 8028.69C10924.2 8015.2 10905.9 8007.62 10886.8 8007.62C10867.7 8007.62 10849.4 8015.2 10835.9 8028.69C10822.5 8042.18 10814.9 8060.48 10814.9 8079.56C10814.9 8098.64 10822.5 8116.94 10835.9 8130.43C10849.4 8143.93 10867.7 8151.51 10886.8 8151.51C10905.9 8151.51 10924.2 8143.93 10937.7 8130.43C10951.2 8116.94 10958.8 8098.64 10958.8 8079.56Z" fill="#263238"/>
<path d="M11136.4 7981.46V8005.99H11129.9C11120.7 8005.58 11111.5 8007.2 11103 8010.73C11094.5 8014.27 11086.9 8019.64 11080.7 8026.46C11074.5 8033.27 11069.9 8041.37 11067.2 8050.17C11064.5 8058.97 11063.7 8068.26 11065 8077.38V8176.03H11038.9V7982.55H11066.7V8020.16C11073.2 8007.59 11083.4 7997.23 11095.8 7990.35C11108.2 7983.47 11122.3 7980.38 11136.4 7981.46Z" fill="#263238"/>
<path d="M11358.3 7903.52V8176.03H11333.2V8137.88C11325.4 8150.57 11314.4 8160.95 11301.3 8167.95C11288.1 8174.94 11273.4 8178.3 11258.5 8177.67C11233.7 8175.82 11210.5 8164.65 11193.5 8146.4C11176.6 8128.16 11167.2 8104.19 11167.2 8079.29C11167.2 8054.4 11176.6 8030.42 11193.5 8012.18C11210.5 7993.93 11233.7 7982.76 11258.5 7980.92C11273 7980.36 11287.4 7983.59 11300.3 7990.28C11313.2 7996.96 11324.2 8006.88 11332.1 8019.07V7902.98L11358.3 7903.52ZM11332.6 8079.56C11331.9 8065.52 11327.1 8052.01 11318.7 8040.69C11310.4 8029.37 11298.9 8020.74 11285.7 8015.88C11272.5 8011.01 11258.2 8010.12 11244.5 8013.31C11230.8 8016.51 11218.3 8023.64 11208.6 8033.84C11199 8044.03 11192.5 8056.85 11190 8070.69C11187.5 8084.53 11189.1 8098.79 11194.7 8111.72C11200.2 8124.64 11209.4 8135.66 11221.2 8143.41C11232.9 8151.16 11246.6 8155.3 11260.7 8155.32C11270.5 8155.5 11280.3 8153.62 11289.3 8149.83C11298.4 8146.03 11306.6 8140.39 11313.3 8133.27C11320.1 8126.14 11325.3 8117.69 11328.6 8108.45C11332 8099.2 11333.3 8089.36 11332.6 8079.56Z" fill="#263238"/>
<path d="M11745.8 10131.5V10389.9H11720.7V10155.5H11659.7V10131.5H11745.8Z" fill="#263238"/>
<path d="M11983.4 10364.8V10388.8H11802.4V10369.7L11911.4 10264.5C11940.3 10236.2 11946.3 10218.7 11946.3 10201.3C11946.3 10171.3 11925.1 10152.8 11885.8 10152.8C11872.7 10152 11859.5 10154.1 11847.3 10159.1C11835.2 10164.1 11824.3 10171.8 11815.5 10181.7L11796.4 10165.3C11808.1 10152.8 11822.3 10143 11838.1 10136.6C11853.9 10130.2 11871 10127.4 11888 10128.3C11942.5 10128.3 11973.6 10155 11973.6 10198C11972.7 10213.8 11968.5 10229.1 11961.2 10243C11953.8 10256.9 11943.6 10269.1 11931.1 10278.7L11843.3 10364.8H11983.4Z" fill="#263238"/>
<path d="M12187.2 10314.7C12187.2 10357.7 12155.6 10391 12093.5 10391C12059.5 10392 12026.4 10380.2 12000.8 10357.7L12013.4 10336.5C12035.2 10356.5 12063.9 10367.2 12093.5 10366.4C12136.5 10366.4 12160 10346.8 12160 10314.7C12160 10282.5 12138.2 10263.4 12090.2 10263.4H12071.7V10243.8L12143.1 10154.4H12011.2V10131.5H12174.7V10150.6L12102.2 10240.5C12159.4 10244.4 12187.2 10273.2 12187.2 10314.7Z" fill="#263238"/>
<path d="M12443.4 10320.7H12391.6V10388.8H12365.4V10320.7H12219.9V10301.6L12356.7 10130.5H12386.2L12254.3 10295H12366V10235.1H12391.6V10295H12443.4V10320.7Z" fill="#263238"/>
<path d="M12739.3 10312.5C12739.3 10356.6 12708.8 10391 12645.6 10391C12611.6 10392 12578.5 10380.1 12552.9 10357.7L12566 10336.5C12576.5 10346.5 12588.9 10354.3 12602.5 10359.4C12616.1 10364.6 12630.5 10367 12645 10366.4C12689.2 10366.4 12712.1 10345.2 12712.1 10311.9C12712.1 10278.7 12691.4 10257.4 12626 10257.4H12571.5L12585.1 10127.7H12726.2V10151.7H12608L12599.3 10233.5H12632.5C12709.9 10236.2 12739.3 10267.3 12739.3 10312.5Z" fill="#263238"/>
<path d="M12966.6 10311.4C12966.5 10322.6 12964.1 10333.6 12959.5 10343.8C12954.9 10354 12948.2 10363.1 12939.9 10370.6C12931.6 10378.1 12921.9 10383.7 12911.3 10387.3C12900.7 10390.8 12889.4 10392 12878.3 10391C12809.6 10391 12772.6 10343 12772.6 10261.8C12772.6 10180.6 12820.5 10128.3 12890.3 10128.3C12911.7 10127.5 12933 10132.3 12951.9 10142.4L12941 10163.7C12925.8 10155 12908.4 10150.8 12890.8 10151.7C12836.3 10151.7 12799.3 10187.1 12799.3 10257.4C12799.3 10263.4 12799.3 10270.5 12799.3 10278.2C12806.8 10264 12818.3 10252.3 12832.3 10244.4C12846.3 10236.6 12862.3 10233 12878.3 10234C12889.3 10232.6 12900.5 10233.6 12911.1 10236.8C12921.7 10240.1 12931.5 10245.5 12939.8 10252.9C12948.2 10260.2 12954.9 10269.2 12959.5 10279.3C12964.1 10289.3 12966.5 10300.3 12966.6 10311.4ZM12940.4 10311.4C12940.4 10277.1 12915.4 10256.9 12875.6 10256.9C12867.6 10255.9 12859.5 10256.6 12851.8 10258.8C12844.1 10261 12836.9 10264.8 12830.7 10269.9C12824.4 10275 12819.3 10281.3 12815.6 10288.4C12811.9 10295.6 12809.7 10303.4 12809.1 10311.4C12809.1 10339.7 12832.5 10365.9 12877.2 10365.9C12885 10367.2 12892.9 10366.7 12900.5 10364.6C12908.1 10362.5 12915.1 10358.8 12921.1 10353.7C12927.1 10348.7 12931.9 10342.3 12935.3 10335.2C12938.6 10328.1 12940.4 10320.4 12940.4 10312.5V10311.4Z" fill="#263238"/>
<path d="M13175.9 10131.5V10150.6L13066.9 10389.9H13038L13144.3 10155.5H13011.8V10203.5H12985.7V10131.5H13175.9Z" fill="#263238"/>
<path d="M13402.1 10316.8C13402.1 10362.6 13363.4 10391 13301.8 10391C13240.2 10391 13202.6 10362.6 13202.6 10316.8C13202.4 10302.2 13207.2 10287.9 13216.2 10276.3C13225.3 10264.7 13237.9 10256.5 13252.2 10253.1C13240.3 10249.9 13229.8 10242.8 13222.5 10232.9C13215.2 10223 13211.4 10210.9 13211.9 10198.6C13211.9 10156.6 13247.3 10130.5 13301.8 10130.5C13356.3 10130.5 13392.8 10156.6 13392.8 10198.6C13392.6 10210.9 13388.5 10222.8 13381 10232.6C13373.6 10242.4 13363.2 10249.6 13351.4 10253.1C13365.8 10256.4 13378.7 10264.5 13387.9 10276.1C13397.1 10287.7 13402.1 10302.1 13402.1 10316.8ZM13374.8 10316.8C13374.8 10285.2 13347.6 10265.1 13301.8 10265.1C13256 10265.1 13229.3 10285.2 13229.3 10316.8C13229.3 10348.5 13256 10371.3 13301.8 10371.3C13347.6 10371.3 13374.8 10349.5 13374.8 10316.3V10316.8ZM13301.2 10243.8C13341.6 10243.8 13365.5 10225.8 13365.5 10197.5C13365.5 10169.1 13339.9 10151.2 13301.2 10151.2C13262.5 10151.2 13237.5 10168.6 13237.5 10197.5C13237.5 10226.4 13261.4 10243.8 13301.2 10243.8Z" fill="#263238"/>
<path d="M13721.4 10257.4C13721.4 10345.2 13673.5 10391 13603.2 10391C13581.9 10391.7 13560.9 10386.8 13542.1 10376.8L13553 10355.5C13568.3 10364.3 13585.7 10368.4 13603.2 10367.5C13657.7 10367.5 13694.2 10331.6 13694.2 10261.8C13694.7 10254.9 13694.7 10248 13694.2 10241.1C13686.9 10255.3 13675.5 10267.1 13661.6 10274.9C13647.6 10282.8 13631.7 10286.4 13615.7 10285.2C13604.8 10286.5 13593.7 10285.4 13583.2 10282C13572.8 10278.7 13563.1 10273.2 13554.9 10265.9C13546.7 10258.6 13540.1 10249.7 13535.5 10239.7C13531 10229.7 13528.6 10218.8 13528.5 10207.8C13528.6 10196.7 13531 10185.6 13535.6 10175.4C13540.2 10165.3 13546.9 10156.1 13555.2 10148.7C13563.5 10141.2 13573.2 10135.5 13583.8 10132C13594.4 10128.5 13605.7 10127.2 13616.8 10128.3C13682.7 10128.3 13721.4 10176.2 13721.4 10257.4ZM13684.9 10206.2C13684.9 10177.9 13661.5 10151.7 13616.8 10151.7C13608.9 10150.4 13600.9 10150.9 13593.3 10153.1C13585.6 10155.2 13578.5 10159 13572.5 10164.2C13566.5 10169.4 13561.6 10175.9 13558.4 10183.1C13555.1 10190.4 13553.5 10198.3 13553.6 10206.2C13553.6 10240.5 13578.6 10260.7 13618.4 10260.7C13634.2 10261.9 13649.7 10256.9 13661.8 10246.7C13673.8 10236.5 13681.4 10221.9 13682.7 10206.2H13684.9Z" fill="#263238"/>
<path d="M13830.4 10131.5V10389.9H13803.7V10155.5H13742.7V10131.5H13830.4Z" fill="#263238"/>
<path d="M13891.5 10259.6C13891.5 10177.3 13935.1 10128.3 13994.5 10128.3C14053.9 10128.3 14097.5 10177.3 14097.5 10259.6C14097.5 10341.9 14054.4 10391 13994.5 10391C13934.5 10391 13891.5 10341.9 13891.5 10259.6ZM14070.2 10259.6C14070.2 10191 14039.7 10150.6 13994.5 10150.6C13949.3 10150.6 13918.7 10188.8 13918.7 10259.6C13918.7 10330.5 13949.8 10368.6 13994.5 10368.6C14039.2 10368.6 14070.2 10328.3 14070.2 10259.6Z" fill="#263238"/>
<path d="M14206.5 10131.5V10389.9H14179.8V10155.5H14118.8V10131.5H14206.5Z" fill="#263238"/>
<path d="M14436 10131.5V10389.9H14409.2V10155.5H14348.2V10131.5H14436Z" fill="#263238"/>
<path d="M14568.4 10131.5V10389.9H14542.2V10155.5H14481.2V10131.5H14568.4Z" fill="#263238"/>
<path d="M14806 10364.8V10388.8H14625.1V10369.7L14734.1 10264.5C14763 10236.2 14769 10218.7 14769 10201.3C14769 10171.3 14747.7 10152.8 14708.5 10152.8C14695.3 10152 14682.2 10154.1 14670 10159.1C14657.8 10164.1 14646.9 10171.8 14638.2 10181.7L14619.1 10165.3C14630.7 10152.9 14645 10143.1 14660.8 10136.7C14676.6 10130.3 14693.6 10127.4 14710.6 10128.3C14765.1 10128.3 14796.2 10155 14796.2 10198C14795.4 10213.8 14791.1 10229.1 14783.8 10243C14776.5 10256.9 14766.2 10269.1 14753.7 10278.7L14663.8 10364.8H14806Z" fill="#263238"/>
<path d="M14910.7 10131.5V10389.9H14881.8V10155.5H14821.3V10131.5H14910.7Z" fill="#263238"/>
<path d="M10564.7 10071.6V10032.3C10564.7 10014.1 10557.5 9996.67 10544.6 9983.79C10531.7 9970.91 10514.3 9963.68 10496 9963.68H9800.06C9781.85 9963.68 9764.38 9970.91 9751.5 9983.79C9738.62 9996.67 9731.39 10014.1 9731.39 10032.3V10071.6H10564.7Z" fill="#263238"/>
<path d="M9731.39 10125.5V10414.4C9731.39 10432.6 9738.62 10450.1 9751.5 10463C9764.38 10475.8 9781.85 10483.1 9800.06 10483.1H10496C10514.3 10483.1 10531.7 10475.8 10544.6 10463C10557.5 10450.1 10564.7 10432.6 10564.7 10414.4V10125.5H9731.39Z" fill="#263238"/>
<path d="M9741.74 11646.7C9741.74 11564.4 9784.8 11515.9 9844.75 11515.9C9904.7 11515.9 9947.76 11564.4 9947.76 11646.7C9947.76 11729 9904.16 11778 9844.75 11778C9785.35 11778 9741.74 11729 9741.74 11646.7ZM9920.51 11646.7C9920.51 11578 9889.44 11537.7 9844.75 11537.7C9800.06 11537.7 9768.99 11575.8 9768.99 11646.7C9768.99 11717.5 9799.52 11755.7 9844.75 11755.7C9889.99 11755.7 9922.14 11715.9 9922.14 11646.7H9920.51Z" fill="#263238"/>
<path d="M10183.8 11703.9C10183.8 11749.7 10145.1 11778 10083.5 11778C10021.9 11778 9984.28 11749.7 9984.28 11703.9C9984.04 11689.3 9988.83 11675 9997.86 11663.5C10006.9 11652 10019.6 11643.9 10033.9 11640.7C10022.3 11636.9 10012.2 11629.7 10005 11619.9C9997.74 11610.1 9993.74 11598.3 9993.54 11586.2C9993.54 11544.2 10029 11518.1 10083.5 11518.1C10138 11518.1 10174.5 11544.2 10174.5 11586.2C10174.2 11598.4 10170.1 11610.2 10162.7 11620C10155.4 11629.7 10145.2 11637 10133.6 11640.7C10147.9 11643.9 10160.7 11652 10169.8 11663.5C10179 11675 10183.9 11689.2 10183.8 11703.9ZM10156.5 11703.9C10156.5 11672.3 10129.3 11652.7 10083.5 11652.7C10037.7 11652.7 10011 11672.3 10011 11703.9C10011 11735.5 10038.2 11758.4 10083.5 11758.4C10128.7 11758.4 10156.5 11735.5 10156.5 11703.4V11703.9ZM10085.6 11630.9C10126 11630.9 10150 11612.9 10150 11585.1C10150 11557.3 10124.3 11538.2 10085.6 11538.2C10047 11538.2 10021.9 11555.7 10021.9 11584.6C10021.9 11613.4 10043.7 11630.9 10085.6 11630.9Z" fill="#263238"/>
<path d="M10314 11465.7H10338L10215.9 11812.4H10194.7L10314 11465.7Z" fill="#263238"/>
<path d="M10521.7 11751.9V11775.9H10340.7V11756.8L10449.7 11652.1C10478.6 11623.2 10484.1 11605.8 10484.1 11588.4C10484.1 11558.4 10463.3 11539.9 10424.1 11539.9C10410.9 11539 10397.6 11541.2 10385.4 11546.2C10373.1 11551.2 10362.1 11558.9 10353.3 11568.7L10334.7 11552.4C10346.3 11539.9 10360.6 11530.2 10376.4 11523.9C10392.2 11517.6 10409.3 11514.8 10426.3 11515.9C10480.8 11515.9 10511.3 11542 10511.3 11585.1C10510.8 11600.8 10506.7 11616.2 10499.4 11630.2C10492.2 11644.1 10481.9 11656.3 10469.3 11665.8L10381.6 11751.9H10521.7Z" fill="#263238"/>
<path d="M10728.2 11699.6C10728.2 11743.7 10697.7 11778 10634.5 11778C10600.5 11779 10567.4 11767.2 10541.8 11744.8L10554.9 11723.5C10565.4 11733.5 10577.8 11741.3 10591.4 11746.5C10605 11751.6 10619.4 11754 10633.9 11753.5C10678.1 11753.5 10701 11732.3 10701 11699C10701 11665.8 10680.8 11644.5 10614.9 11644.5H10560.4L10573.4 11515.3H10714.6V11538.8H10596.3L10587.6 11621.1H10620.9C10698.8 11623.8 10728.2 11654.3 10728.2 11699.6Z" fill="#263238"/>
<path d="M9862.19 11351.8V11366.5H9748.83V11206.3H9857.83V11221.6H9765.18V11276.1H9848.02V11290.8H9765.18V11350.2L9862.19 11351.8Z" fill="#263238"/>
<path d="M10000.1 11366.5L9948.85 11295.7L9894.35 11366.5H9874.73L9935.77 11284.2L9881.27 11206.3H9900.34L9948.85 11271.7L9996.81 11206.3H10014.8L9960.3 11283.7L10021.3 11366.5H10000.1Z" fill="#263238"/>
<path d="M10170.1 11261.4C10170.1 11295.1 10145.1 11315.9 10104.7 11315.9H10061.7V11366.5H10044.8V11206.3H10104.7C10145.1 11206.3 10170.1 11227 10170.1 11261.4ZM10153.2 11261.4C10153.2 11235.7 10136.3 11221 10104.2 11221H10061.7V11301.1H10104.2C10136.3 11301.1 10153.2 11286.4 10153.2 11261.4Z" fill="#263238"/>
<path d="M10269.3 11206.3H10334.2C10355.4 11206.3 10375.8 11214.8 10390.8 11229.8C10405.9 11244.8 10414.3 11265.2 10414.3 11286.4C10414.3 11307.7 10405.9 11328.1 10390.8 11343.1C10375.8 11358.1 10355.4 11366.5 10334.2 11366.5H10269.3V11206.3ZM10333.1 11351.8C10350.4 11351.8 10367.1 11344.9 10379.3 11332.7C10391.6 11320.4 10398.5 11303.8 10398.5 11286.4C10398.5 11269.1 10391.6 11252.4 10379.3 11240.2C10367.1 11227.9 10350.4 11221 10333.1 11221H10286.2V11351.8H10333.1Z" fill="#263238"/>
<path d="M10545.6 11291.9V11366.5H10529.8V11347.5C10525.4 11354.3 10519.2 11359.7 10511.9 11363.3C10504.6 11366.9 10496.5 11368.4 10488.4 11367.6C10461.7 11367.6 10444.8 11353.5 10444.8 11332.8C10444.8 11312 10456.8 11298.4 10491.1 11298.4H10529.3V11291.3C10529.8 11286.9 10529.2 11282.3 10527.6 11278.1C10526.1 11273.9 10523.6 11270 10520.3 11266.9C10517 11263.8 10513.1 11261.5 10508.8 11260.2C10504.5 11258.8 10500 11258.5 10495.5 11259.2C10480.8 11258.9 10466.5 11264 10455.2 11273.3L10448.1 11261.4C10462 11250.3 10479.4 11244.5 10497.1 11245C10503.6 11244 10510.2 11244.6 10516.4 11246.6C10522.6 11248.6 10528.3 11252 10532.9 11256.5C10537.6 11261 10541.2 11266.6 10543.4 11272.7C10545.6 11278.8 10546.4 11285.4 10545.6 11291.9ZM10529.3 11330V11310.4H10491.7C10468.2 11310.4 10460.6 11319.7 10460.6 11332.2C10460.6 11344.7 10472.1 11354.6 10491.1 11354.6C10499.2 11355.1 10507.3 11353.1 10514.1 11348.8C10521 11344.5 10526.3 11338.1 10529.3 11330.6V11330Z" fill="#263238"/>
<path d="M10653 11358.9C10646.1 11364.9 10637.1 11368 10627.9 11367.6C10623.2 11368.1 10618.4 11367.6 10613.9 11366C10609.4 11364.5 10605.4 11361.9 10602 11358.6C10598.6 11355.2 10596 11351.2 10594.3 11346.7C10592.7 11342.3 10592.1 11337.5 10592.5 11332.8V11259.7H10571.3V11246.1H10592.5V11221.6H10608.9V11247.7H10645.4V11261.4H10608.9V11330.6C10608.4 11333.4 10608.7 11336.4 10609.5 11339.1C10610.4 11341.9 10611.9 11344.4 10613.9 11346.5C10615.9 11348.6 10618.3 11350.2 10621.1 11351.3C10623.8 11352.3 10626.7 11352.7 10629.6 11352.4C10636.1 11352.5 10642.4 11350.4 10647.6 11346.4L10653 11358.9Z" fill="#263238"/>
<path d="M10783.3 11311.5H10685.2C10686 11323.3 10691.5 11334.2 10700.3 11342C10709.2 11349.7 10720.8 11353.7 10732.6 11352.9C10739.5 11353.2 10746.5 11351.9 10752.9 11349.2C10759.3 11346.5 10765 11342.3 10769.6 11337.1L10778.9 11348C10773 11354.5 10765.7 11359.5 10757.6 11362.9C10749.5 11366.3 10740.8 11367.9 10732 11367.6C10723.8 11368.1 10715.5 11366.8 10707.8 11363.9C10700 11361 10693 11356.5 10687.1 11350.7C10681.2 11344.9 10676.6 11337.9 10673.5 11330.2C10670.5 11322.6 10669 11314.3 10669.4 11306.1C10668.9 11298.1 10670.1 11290.2 10672.8 11282.8C10675.6 11275.4 10679.8 11268.6 10685.3 11262.9C10690.7 11257.1 10697.3 11252.6 10704.6 11249.5C10711.9 11246.5 10719.8 11244.9 10727.7 11245C10735.7 11244.4 10743.8 11245.6 10751.4 11248.4C10758.9 11251.3 10765.7 11255.9 10771.3 11261.7C10776.9 11267.5 10781.1 11274.5 10783.6 11282.2C10786.2 11289.9 10787 11298 10786 11306.1L10783.3 11311.5ZM10682.4 11299H10768C10766.8 11288.4 10761.8 11278.7 10753.9 11271.7C10746 11264.6 10735.8 11260.7 10725.2 11260.7C10714.6 11260.7 10704.4 11264.6 10696.5 11271.7C10688.6 11278.7 10683.6 11288.4 10682.4 11299Z" fill="#263238"/>
<path d="M12785.7 11518.1V11775.9H12759.5V11541.5H12698.4V11518.1H12785.7Z" fill="#263238"/>
<path d="M13023.3 11751.9V11775.9H12842.3V11756.8L12951.3 11652.1C12980.2 11623.2 12986.2 11605.8 12986.2 11588.4C12986.2 11558.4 12965 11539.9 12925.7 11539.9C12912.6 11539 12899.4 11541.2 12887.2 11546.2C12875 11551.2 12864.2 11558.9 12855.4 11568.7L12836.3 11552.4C12848 11540 12862.3 11530.3 12878.1 11524C12893.9 11517.7 12910.9 11514.9 12927.9 11515.9C12982.4 11515.9 13013.5 11542 13013.5 11585.1C13012.6 11600.8 13008.4 11616.2 13001.1 11630.1C12993.7 11644 12983.4 11656.2 12971 11665.8L12883.2 11751.9H13023.3Z" fill="#263238"/>
<path d="M13227.1 11701.7C13227.1 11744.8 13195.5 11778 13133.4 11778C13099.4 11779.1 13066.3 11767.2 13040.7 11744.8L13053.8 11723.5C13064.4 11733.6 13076.9 11741.4 13090.5 11746.6C13104.2 11751.7 13118.8 11754.1 13133.4 11753.5C13176.4 11753.5 13199.9 11733.9 13199.9 11701.7C13199.9 11669.6 13178.1 11650.5 13130.1 11650.5H13111.6V11630.9L13183 11541.5H13051.1V11518.1H13214.6V11536.6L13141.5 11628.2C13199.3 11631.4 13227.1 11660.3 13227.1 11701.7Z" fill="#263238"/>
<path d="M12707.2 11286.4C12707 11275.5 12709.1 11264.6 12713.3 11254.4C12717.5 11244.3 12723.7 11235.1 12731.5 11227.5C12739.4 11219.8 12748.7 11213.9 12759 11209.9C12769.2 11206 12780.1 11204.2 12791.1 11204.7C12801.9 11204.3 12812.7 11206.2 12822.7 11210.3C12832.8 11214.3 12841.9 11220.4 12849.4 11228.1L12839.1 11239C12832.9 11232.8 12825.5 11227.9 12817.3 11224.6C12809.2 11221.3 12800.4 11219.7 12791.6 11219.9C12782.4 11219.1 12773.2 11220.2 12764.4 11223.1C12755.7 11226.1 12747.6 11230.8 12740.8 11237.1C12734 11243.3 12728.5 11250.9 12724.8 11259.3C12721.1 11267.8 12719.1 11276.9 12719.1 11286.2C12719.1 11295.4 12721.1 11304.5 12724.8 11313C12728.5 11321.4 12734 11329 12740.8 11335.3C12747.6 11341.5 12755.7 11346.2 12764.4 11349.2C12773.2 11352.1 12782.4 11353.2 12791.6 11352.4C12800.4 11352.7 12809.2 11351.2 12817.4 11347.9C12825.6 11344.6 12832.9 11339.6 12839.1 11333.3L12849.4 11344.2C12841.9 11352.1 12832.7 11358.3 12822.5 11362.3C12812.4 11366.4 12801.5 11368.2 12790.6 11367.6C12779.7 11368.1 12768.8 11366.3 12758.6 11362.4C12748.5 11358.5 12739.2 11352.6 12731.4 11345C12723.6 11337.4 12717.4 11328.3 12713.2 11318.2C12709.1 11308.1 12707 11297.3 12707.2 11286.4Z" fill="#263238"/>
<path d="M13103.9 11206.3L13049.4 11366.5H13031.5L12984.6 11229.7L12937.7 11366.5H12919.7L12865.2 11206.3H12882.7L12929 11344.2L12976.9 11206.3H12992.8L13039.6 11344.7L13086.5 11206.3H13103.9Z" fill="#263238"/>
<path d="M11356.1 13160.7H11212.2L11181.1 13229.9H11152.8L11270.5 12972.2H11297.8L11415.5 13229.9H11386.6L11356.1 13160.7ZM11345.7 13138.9L11284.7 13000.5L11222.5 13138.9H11345.7Z" fill="#263238"/>
<path d="M11431.3 13132.9C11430.8 13119.8 11433.1 13106.6 11438 13094.4C11442.8 13082.1 11450.2 13071 11459.5 13061.8C11468.9 13052.5 11480.1 13045.3 11492.4 13040.5C11504.7 13035.8 11517.9 13033.7 11531 13034.3C11546 13033.4 11560.9 13036.5 11574.2 13043.3C11587.5 13050.1 11598.7 13060.4 11606.8 13073L11587.7 13086.1C11581.6 13077.2 11573.5 13070 11564 13065C11554.5 13060 11543.9 13057.3 11533.2 13057.2C11513.1 13057.2 11493.8 13065.2 11479.6 13079.4C11465.4 13093.6 11457.4 13112.8 11457.4 13132.9C11457.4 13153 11465.4 13172.3 11479.6 13186.5C11493.8 13200.7 11513.1 13208.7 11533.2 13208.7C11543.9 13208.6 11554.4 13206 11563.9 13201.1C11573.3 13196.1 11581.5 13189 11587.7 13180.4L11606.8 13193.4C11598.6 13205.9 11587.3 13215.9 11574 13222.6C11560.7 13229.3 11545.9 13232.4 11531 13231.6C11517.9 13232.2 11504.7 13230.1 11492.4 13225.3C11480.1 13220.6 11468.9 13213.4 11459.5 13204.1C11450.2 13194.9 11442.8 13183.7 11438 13171.5C11433.1 13159.2 11430.8 13146.1 11431.3 13132.9Z" fill="#263238"/>
<path d="M11762.1 13218C11750.6 13227.4 11736.1 13232.2 11721.2 13231.6C11714 13232.1 11706.7 13231 11699.8 13228.4C11693 13225.8 11686.8 13221.9 11681.6 13216.7C11676.5 13211.5 11672.5 13205.3 11669.9 13198.5C11667.3 13191.7 11666.3 13184.4 11666.7 13177.1V13058.3H11632.4V13035.9H11666.2V12993.4H11692.4V13035.9H11751.8V13058.3H11692.4V13173.8C11691.7 13178.5 11692.1 13183.2 11693.5 13187.7C11694.9 13192.2 11697.4 13196.4 11700.6 13199.8C11703.9 13203.2 11707.9 13205.8 11712.3 13207.4C11716.7 13209.1 11721.4 13209.7 11726.1 13209.2C11736.6 13209.4 11746.8 13205.9 11755 13199.4L11762.1 13218Z" fill="#263238"/>
<path d="M11804.1 12974.9C11804.1 12969.8 11806.1 12965 11809.7 12961.4C11813.2 12957.8 11818.1 12955.8 11823.2 12955.8C11828.2 12955.8 11833.1 12957.8 11836.6 12961.4C11840.2 12965 11842.2 12969.8 11842.2 12974.9C11842.2 12979.9 11840.2 12984.8 11836.6 12988.4C11833.1 12991.9 11828.2 12994 11823.2 12994C11818.1 12994 11813.2 12991.9 11809.7 12988.4C11806.1 12984.8 11804.1 12979.9 11804.1 12974.9ZM11810.1 13035.9H11836.2V13230H11810.1V13035.9Z" fill="#263238"/>
<path d="M11889.1 13132.9C11889.1 13113.4 11894.9 13094.4 11905.7 13078.2C11916.5 13062 11931.9 13049.3 11949.9 13041.9C11967.9 13034.4 11987.7 13032.4 12006.8 13036.1C12025.9 13039.9 12043.5 13049.3 12057.3 13063C12071.1 13076.7 12080.6 13094.3 12084.4 13113.4C12088.3 13132.5 12086.4 13152.3 12079 13170.3C12071.7 13188.3 12059.1 13203.8 12043 13214.7C12026.8 13225.6 12007.8 13231.5 11988.3 13231.6C11975.2 13232 11962.1 13229.8 11949.9 13225C11937.7 13220.2 11926.6 13213 11917.3 13203.7C11908 13194.5 11900.7 13183.4 11895.9 13171.3C11891 13159.1 11888.7 13146 11889.1 13132.9ZM12059.7 13132.9C12058.9 13118.9 12054.1 13105.3 12045.7 13094C12037.3 13082.7 12025.8 13074.1 12012.6 13069.2C11999.4 13064.4 11985 13063.5 11971.3 13066.7C11957.6 13070 11945.2 13077.2 11935.5 13087.4C11925.8 13097.7 11919.4 13110.5 11917 13124.4C11914.6 13138.3 11916.3 13152.6 11921.9 13165.5C11927.5 13178.4 11936.8 13189.4 11948.6 13197C11960.4 13204.7 11974.2 13208.8 11988.3 13208.7C11998.1 13208.8 12007.8 13206.9 12016.8 13203C12025.8 13199.2 12033.9 13193.6 12040.6 13186.4C12047.3 13179.3 12052.4 13170.9 12055.7 13161.7C12059 13152.5 12060.4 13142.7 12059.7 13132.9Z" fill="#263238"/>
<path d="M12320.2 13117.7V13230H12294V13120.9C12295.1 13112.9 12294.4 13104.7 12291.9 13096.9C12289.4 13089.2 12285.2 13082.1 12279.6 13076.2C12274 13070.3 12267.2 13065.7 12259.6 13062.8C12252 13059.9 12243.8 13058.7 12235.7 13059.4C12226.5 13058.7 12217.2 13060 12208.5 13063.3C12199.9 13066.6 12192.1 13071.8 12185.6 13078.4C12179.2 13085.1 12174.3 13093.1 12171.2 13101.8C12168.2 13110.6 12167.2 13119.9 12168.1 13129.1V13231H12142V13037H12167.1V13074.6C12174.9 13062.4 12185.9 13052.5 12198.8 13045.9C12211.7 13039.3 12226.1 13036.2 12240.6 13037C12251.4 13036.3 12262.1 13037.9 12272.2 13041.7C12282.3 13045.5 12291.4 13051.4 12299 13059.1C12306.5 13066.7 12312.3 13075.9 12316 13086C12319.7 13096.2 12321.1 13107 12320.2 13117.7Z" fill="#263238"/>
<path d="M12518.6 12995.6V13097H12651.6V13120.4H12518.6V13229.4H12491.3V12971.6H12667.9V12995.1L12518.6 12995.6Z" fill="#263238"/>
<path d="M12709.3 12974.9C12709.3 12969.8 12711.4 12965 12714.9 12961.4C12718.5 12957.8 12723.4 12955.8 12728.4 12955.8C12733.5 12955.8 12738.3 12957.8 12741.9 12961.4C12745.5 12965 12747.5 12969.8 12747.5 12974.9C12747.5 12979.9 12745.5 12984.8 12741.9 12988.4C12738.3 12991.9 12733.5 12994 12728.4 12994C12723.4 12994 12718.5 12991.9 12714.9 12988.4C12711.4 12984.8 12709.3 12979.9 12709.3 12974.9ZM12714.8 13035.9H12741V13230H12714.8V13035.9Z" fill="#263238"/>
<path d="M12993.3 13035.9V13206.5C12995.3 13219.6 12994.3 13233.1 12990.1 13245.7C12986 13258.4 12979 13269.8 12969.6 13279.2C12960.2 13288.6 12948.7 13295.7 12936 13299.8C12923.4 13303.9 12910 13305 12896.8 13303C12864.1 13304.4 12832 13294 12806.4 13273.5L12819.4 13253.4C12840.9 13271.1 12867.9 13280.6 12895.7 13280.1C12944.8 13280.1 12967.1 13257.2 12967.1 13209.8V13183.6C12958.9 13195.8 12947.6 13205.7 12934.5 13212.3C12921.3 13218.9 12906.6 13222 12891.9 13221.2C12879 13222.2 12866 13220.5 12853.7 13216.2C12841.4 13212 12830.2 13205.2 12820.7 13196.4C12811.2 13187.5 12803.6 13176.8 12798.4 13164.9C12793.2 13153 12790.5 13140.2 12790.5 13127.2C12790.5 13114.2 12793.2 13101.4 12798.4 13089.5C12803.6 13077.6 12811.2 13066.9 12820.7 13058.1C12830.2 13049.2 12841.4 13042.5 12853.7 13038.2C12866 13033.9 12879 13032.2 12891.9 13033.2C12906.9 13032.6 12921.8 13035.8 12935.1 13042.6C12948.5 13049.4 12959.9 13059.5 12968.2 13071.9V13034.8L12993.3 13035.9ZM12968.2 13128C12968.7 13113.4 12964.7 13099 12956.9 13086.6C12949.1 13074.2 12937.8 13064.4 12924.4 13058.5C12911 13052.6 12896.1 13050.8 12881.7 13053.4C12867.3 13056 12854 13062.9 12843.4 13073C12832.9 13083.2 12825.7 13096.3 12822.7 13110.7C12819.7 13125 12821 13139.9 12826.5 13153.5C12832 13167.1 12841.4 13178.7 12853.6 13186.9C12865.7 13195 12880 13199.4 12894.7 13199.4C12904.2 13200 12913.8 13198.7 12922.7 13195.4C12931.7 13192.1 12939.9 13187 12946.8 13180.4C12953.8 13173.8 12959.2 13165.8 12962.9 13157C12966.6 13148.2 12968.4 13138.7 12968.2 13129.1V13128Z" fill="#263238"/>
<path d="M13241.3 13035.9V13230H13216.2V13194.5C13209 13206.4 13198.7 13216.1 13186.4 13222.6C13174.1 13229.1 13160.3 13232.2 13146.5 13231.6C13135.3 13232.6 13124.1 13231.2 13113.6 13227.3C13103.1 13223.5 13093.6 13217.3 13085.7 13209.4C13077.9 13201.4 13071.9 13191.7 13068.3 13181.2C13064.7 13170.6 13063.4 13159.3 13064.7 13148.2V13035.9H13090.9V13144.9C13089.7 13153 13090.4 13161.3 13092.8 13169.1C13095.3 13176.9 13099.5 13184.1 13105.1 13190C13110.7 13196 13117.5 13200.6 13125.2 13203.6C13132.8 13206.5 13141 13207.7 13149.2 13207.1C13158.3 13207.5 13167.5 13206 13176 13202.5C13184.5 13199.1 13192.1 13193.9 13198.4 13187.2C13204.7 13180.5 13209.4 13172.5 13212.3 13163.8C13215.2 13155.1 13216.2 13145.9 13215.1 13136.8V13034.8L13241.3 13035.9Z" fill="#263238"/>
<path d="M13410.2 13034.3V13059.9H13403.7C13394.4 13059.5 13385.2 13061.1 13376.6 13064.7C13368 13068.3 13360.4 13073.7 13354.1 13080.5C13347.9 13087.4 13343.2 13095.6 13340.5 13104.4C13337.8 13113.3 13337 13122.7 13338.3 13131.8V13230.5H13312.1V13036.5H13337.2V13074.6C13344 13061.4 13354.6 13050.5 13367.6 13043.3C13380.6 13036.1 13395.4 13033 13410.2 13034.3Z" fill="#263238"/>
<path d="M13628.2 13141.1H13464.7C13465.3 13150.6 13467.7 13159.8 13471.8 13168.3C13476 13176.9 13481.8 13184.5 13488.9 13190.7C13495.9 13197 13504.2 13201.8 13513.2 13204.9C13522.1 13208 13531.6 13209.3 13541 13208.7C13552.2 13209 13563.3 13206.9 13573.6 13202.4C13583.8 13198 13593 13191.4 13600.4 13183.1L13615.2 13200C13601.3 13214.6 13583.3 13224.7 13563.7 13229.2C13544 13233.7 13523.5 13232.3 13504.6 13225.1C13485.8 13217.9 13469.4 13205.4 13457.7 13189C13445.9 13172.6 13439.3 13153.1 13438.6 13132.9C13437.9 13120.1 13439.9 13107.3 13444.3 13095.3C13448.8 13083.3 13455.7 13072.3 13464.6 13063.1C13473.5 13053.8 13484.2 13046.5 13496 13041.5C13507.9 13036.6 13520.6 13034.1 13533.4 13034.3C13546.2 13034 13558.9 13036.4 13570.7 13041.4C13582.6 13046.3 13593.2 13053.6 13602 13062.9C13610.9 13072.2 13617.7 13083.2 13622 13095.3C13626.3 13107.3 13628.1 13120.2 13627.2 13132.9C13627.2 13132.9 13628.2 13137.8 13628.2 13141.1ZM13464.7 13121.5H13602.1C13602.1 13103.3 13594.8 13085.8 13582 13072.9C13569.1 13060.1 13551.6 13052.8 13533.4 13052.8C13515.2 13052.8 13497.7 13060.1 13484.9 13072.9C13472 13085.8 13464.7 13103.3 13464.7 13121.5Z" fill="#263238"/>
<path d="M11471.6 14263.8V14377.2H11370.8V14268.2C11280.7 14265.4 11193.3 14237.3 11118.5 14187L11173 14063.8C11231.2 14104.5 11299 14129.3 11369.7 14135.8V13966.8C11256.9 13939 11131.5 13902 11131.5 13757C11131.5 13648 11209.5 13557.5 11369.7 13539V13426.7H11470.5V13535.7C11543 13539.8 11613.4 13561.1 11676 13597.8L11625.3 13722.1C11577.8 13693.9 11525.2 13675.4 11470.5 13667.6V13839.8C11582.8 13866 11706.5 13903.6 11706.5 14046.4C11707.6 14153.7 11630.8 14244.8 11471.6 14263.8ZM11370.8 13816.9V13674.1C11316.3 13686.1 11295.6 13715.6 11295.6 13748.8C11295.6 13782 11326.1 13802.8 11370.8 13816.9ZM11544.7 14060.6C11544.7 14025.1 11515.2 14006 11471.6 13990.8V14130.3C11522.3 14119.4 11544.7 14093.3 11544.7 14060.6Z" fill="#263238"/>
<path d="M12304.4 14122.1V14256.2H11769.2V14149.9L12041.7 13891.6C12104.9 13831.6 12115.8 13795.7 12115.8 13760.8C12115.8 13706.3 12077.1 13673 12002.5 13673C11974.1 13671.9 11945.9 13677.8 11920.3 13690.2C11894.8 13702.5 11872.6 13721 11855.9 13743.9L11736.5 13667.1C11768.8 13623.5 11811.4 13588.6 11860.5 13565.6C11909.5 13542.6 11963.6 13532.1 12017.7 13535.2C12175.8 13535.2 12281 13616.4 12281 13745C12281 13813.7 12261.3 13876.3 12162.2 13968.4L11998.6 14122.1H12304.4Z" fill="#263238"/>
<path d="M12370.3 13902C12370.3 13668.1 12500.1 13535.2 12673.9 13535.2C12847.8 13535.2 12977.5 13668.1 12977.5 13902C12977.5 14135.8 12848.9 14268.2 12673.9 14268.2C12499 14268.2 12370.3 14135.8 12370.3 13902ZM12812.9 13902C12812.9 13738.4 12758.4 13674.1 12673.9 13674.1C12589.4 13674.1 12536.6 13740.6 12536.6 13902C12536.6 14063.3 12591.1 14129.2 12673.9 14129.2C12756.8 14129.2 12810.7 14062.7 12810.7 13902H12812.9Z" fill="#263238"/>
<path d="M13057.6 13902C13057.6 13668.1 13187.3 13535.2 13361.2 13535.2C13535 13535.2 13664.8 13668.1 13664.8 13902C13664.8 14135.8 13536.1 14268.2 13361.2 14268.2C13186.2 14268.2 13057.6 14135.8 13057.6 13902ZM13499.6 13902C13499.6 13738.4 13445.1 13674.1 13361.2 13674.1C13277.3 13674.1 13223.3 13740.6 13223.3 13902C13223.3 14063.3 13277.8 14129.2 13361.2 14129.2C13444.6 14129.2 13499.6 14062.7 13499.6 13902Z" fill="#263238"/>
<path d="M13527.4 16060.2H11267.8C11127.6 16060.1 10993.2 16004.3 10894.1 15905.2C10795 15806.1 10739.3 15671.7 10739.1 15531.5C10739.1 15391.3 10794.8 15256.8 10893.9 15157.5C10993.1 15058.3 11127.5 15002.5 11267.8 15002.3H13527.4C13596.9 15002.3 13665.7 15016 13729.9 15042.6C13794 15069.2 13852.3 15108.2 13901.4 15157.4C13950.5 15206.5 13989.5 15264.9 14016 15329.1C14042.5 15393.3 14056.2 15462.1 14056.1 15531.5C14056.1 15671.8 14000.4 15806.2 13901.2 15905.4C13802.1 16004.5 13667.6 16060.2 13527.4 16060.2Z" fill="#263238"/>
<path d="M11672.7 15472.7C11672.7 15539.2 11624.8 15579 11545.7 15579H11461.8V15677.1H11429.1V15366.4H11545.7C11624.8 15368.6 11672.7 15408.4 11672.7 15472.7ZM11639.5 15472.7C11639.5 15423.1 11606.8 15394.7 11544.7 15394.7H11461.8V15550.1H11544.7C11606.8 15552.3 11639.5 15523.9 11639.5 15472.7Z" fill="white"/>
<path d="M11910.9 15534.3V15679.2H11880.9V15642.7C11872.1 15655.8 11860 15666.2 11845.9 15673C11831.7 15679.9 11815.9 15682.7 11800.3 15681.4C11745.8 15681.4 11715.2 15654.2 11715.2 15613.3C11715.2 15572.4 11738.1 15547.4 11805.2 15547.4H11879.3V15533.2C11879.3 15493.4 11856.9 15471.6 11813.3 15471.6C11785 15471.2 11757.3 15480.8 11735.4 15498.8L11721.2 15475.4C11748.4 15454 11782.1 15442.9 11816.6 15443.8C11829.1 15442 11841.8 15443.1 11853.8 15446.9C11865.8 15450.8 11876.8 15457.3 11885.9 15466C11894.9 15474.7 11901.9 15485.4 11906.3 15497.2C11910.6 15509.1 11912.2 15521.7 11910.9 15534.3ZM11879.3 15608.9V15570.8H11806.3C11761 15570.8 11746.3 15588.8 11746.3 15612.8C11746.3 15636.7 11768.1 15656.9 11805.2 15656.9C11821 15657.9 11836.8 15653.8 11850.1 15645.2C11863.5 15636.5 11873.7 15623.8 11879.3 15608.9Z" fill="white"/>
<path d="M12188.3 15445.4L12071.7 15707C12052.1 15752.8 12027.5 15767.5 11994.3 15767.5C11973.6 15767.5 11953.7 15759.5 11938.7 15745.2L11953.4 15721.8C11958.9 15727.5 11965.5 15732 11972.8 15735.1C11980.1 15738.2 11988 15739.8 11995.9 15739.7C12017.2 15739.7 12031.4 15729.9 12044.4 15700.5L12054.8 15677.6L11950.1 15444.3H11983.4L12071.1 15643.3L12156.7 15445.4H12188.3Z" fill="white"/>
<path d="M12454.8 15681.4V15732.7H12432.5V15682C12393.4 15681.7 12355.7 15667.4 12326.2 15641.6L12339.3 15616C12365 15639 12398 15652.3 12432.5 15653.6V15537C12383.4 15525 12333.8 15509.7 12333.8 15450.9C12333.8 15408.4 12364.4 15371.3 12432.5 15366.4V15315.2H12454.8V15363.7C12486.8 15364.2 12517.9 15373.7 12544.8 15390.9L12533.9 15417.1C12510 15402.2 12482.9 15393.4 12454.8 15391.5V15509.2C12505 15521.2 12557.8 15535.4 12557.8 15594.8C12557.8 15640 12525.1 15677.6 12454.8 15681.4ZM12432.5 15505.9V15396.9C12386.7 15400.7 12366 15424.2 12366 15451.4C12366 15478.7 12396 15496.1 12432.5 15505.9ZM12525.1 15599.1C12525.1 15563.7 12493 15551.7 12454.8 15544.6V15653.6C12503.3 15649.8 12525.1 15627.5 12525.1 15599.1Z" fill="white"/>
<path d="M12814 15650.9V15679.2H12596V15656.9L12725.2 15529.9C12760 15495.6 12766.6 15475.4 12766.6 15453.1C12766.6 15417.1 12741.5 15395.3 12694.1 15395.3C12678.3 15394.5 12662.5 15397.2 12647.8 15403.1C12633.1 15409 12619.9 15418.1 12609.1 15429.6L12586.2 15410C12600.1 15395.2 12617 15383.7 12635.9 15376C12654.7 15368.4 12674.9 15365 12695.2 15365.9C12757.9 15365.9 12798.2 15398 12798.2 15449.8C12797.4 15468.8 12792.4 15487.3 12783.5 15504.1C12774.7 15520.9 12762.2 15535.5 12747 15546.8L12641.2 15650.9H12814Z" fill="white"/>
<path d="M12852.1 15523.9C12852.1 15424.7 12903.9 15365.9 12975.9 15365.9C13047.8 15365.9 13100.1 15424.7 13100.1 15523.9C13100.1 15623.1 13045.6 15682 12975.9 15682C12906.1 15682 12852.1 15623.1 12852.1 15523.9ZM13067.4 15523.9C13067.4 15441.1 13030.4 15395.3 12975.9 15395.3C12921.4 15395.3 12884.3 15441.1 12884.3 15523.9C12884.3 15606.8 12921.9 15652.5 12975.9 15652.5C13029.8 15652.5 13067.4 15606.8 13067.4 15523.9Z" fill="white"/>
<path d="M13145.9 15523.9C13145.9 15424.7 13200.4 15365.9 13270.2 15365.9C13339.9 15365.9 13394.4 15424.7 13394.4 15523.9C13394.4 15623.1 13339.9 15682 13270.2 15682C13200.4 15682 13145.9 15623.1 13145.9 15523.9ZM13363.9 15523.9C13363.9 15441.1 13326.9 15395.3 13272.9 15395.3C13218.9 15395.3 13181.3 15441.1 13181.3 15523.9C13181.3 15606.8 13218.4 15652.5 13272.9 15652.5C13327.4 15652.5 13361.2 15606.8 13361.2 15523.9H13363.9Z" fill="white"/>
<path d="M8978.72 14395.7C9060.48 15652 8478.4 17051 8478.4 17051L5334.21 16165.9L4785.93 16011.2C5330.94 15254.1 5590.37 13763 5448.12 12556.3C5437.22 12465.3 5430.68 12379.7 5425.77 12298C5371.27 11302.8 5784.94 11011.7 6134.29 10571.9C6515.8 10095.6 7364.94 8297.02 7364.94 7871.37C7364.94 7445.71 8430.44 6403.64 8193.36 5220.96C8193.36 5220.96 8515.46 5020.94 8839.2 5184.99C8986.35 5259.11 9132.96 5407.9 9251.23 5683.68C9528.64 6331.7 9138.96 8163.5 8807.59 8612.59L8169.38 11254.8C8169.38 11254.8 8384.66 11626 8596.12 12299.6C8806.33 12980.7 8934.77 13684.3 8978.72 14395.7Z" fill="white"/>
<path opacity="0.4" d="M5425.77 12298C5603.99 12785.8 5793.11 13115.5 5776.76 13798.9C5760.41 14482.4 5395.25 15534.3 5499.35 16080.9C5439.88 16098.5 5384.36 16127.3 5335.85 16165.9L4787.56 16011.2C5332.58 15254.1 5592 13763 5449.76 12556.3C5437.22 12465.3 5430.68 12379.7 5425.77 12298Z" fill="#7AD0EA"/>
<path opacity="0.4" d="M8807.59 8612.59L8169.38 11254.8C8169.38 11254.8 8384.66 11626 8596.12 12299.6C8163.93 11603.1 7796.59 11394.9 7796.59 11394.9C8084.36 11049.9 8306.18 8526.47 8306.18 8526.47C8306.18 8526.47 9208.18 7466.42 9123.7 6357.32C9096.59 5953.15 9000.36 5556.63 8839.2 5184.99C8986.35 5259.11 9132.96 5407.9 9251.23 5683.68C9528.64 6331.7 9138.96 8163.5 8807.59 8612.59Z" fill="#7AD0EA"/>
<path d="M4785.93 16011.2C5330.94 15254.1 5590.37 13763 5448.66 12556.3C5306.96 11349.6 5756.05 11047.7 6134.84 10571.4C6513.62 10095 7364.94 8297.02 7364.94 7870.82C7364.94 7444.62 8429.89 6404.19 8193.36 5220.96C8193.36 5220.96 8872.99 4799.67 9251.23 5683.68C9528.64 6332.25 9138.96 8163.5 8807.59 8613.13L8169.92 11254.8C8169.92 11254.8 8850.65 12429.3 8978.72 14395.7C9060.48 15652 8478.4 17051.6 8478.4 17051.6" stroke="#263238" stroke-linecap="round" stroke-linejoin="round"/>
<path d="M6887.5 18056.6C6887.5 18056.6 7603.11 18497 8020.59 19193.5" stroke="#263238" stroke-linecap="round" stroke-linejoin="round"/>
<path d="M8897.52 18889.9C8897.52 18889.9 8281.11 18977.7 7724.1 18311.1C7367.12 17884.4 6283.08 17691.4 6034.56 16575.2" stroke="#263238" stroke-linecap="round" stroke-linejoin="round"/>
<path opacity="0.2" d="M17856.5 22190.5C16278.6 21435.7 17234.1 20830.7 15063.3 19893.8C12892.5 18957 12870.7 18156.3 13132.3 16315.3C13393.9 14474.2 13186.8 12516 13817.9 12349.8C14449 12183.5 13324.1 9644.3 14059.9 8746.66L17681 15790.4L17856.5 22190.5Z" fill="black" fill-opacity="0.7"/>
<path d="M23735.5 22117C23661.4 21904.9 23586.2 21673.3 23527.9 21462.9C23452.7 21190.4 23393.8 20972.4 23255.4 20719C23233.6 20678.7 23210.1 20636.2 23184 20590.4C23036.3 20327.1 22834.1 19966.9 22715.8 19524.3C22636.2 19226.2 22715.8 18492.1 22789.9 17780.3C22844.4 17269.1 22894 16786.7 22879.3 16513.1L22875 16416.1C22837.9 15700.5 22760.5 14211.5 22602.5 13800C22447.1 13403.3 22302.1 13343.9 22037.8 13238.1C22010.6 13226.1 21983.3 13215.2 21951.7 13202.2C21852.5 13160.7 21683.6 13073.5 21489 12972.7C21050.3 12745.4 20504.1 12462.6 20226.7 12427.7C19967.2 12398.5 19704.7 12410.7 19449 12463.7C19107.3 12201.5 18525.7 11864.1 18352.4 11857.1C18210.7 11850 17901.2 11938.8 17752.9 11985.1L17678.2 12009.1C17584.4 11936.3 17484.9 11871.1 17380.7 11814C17373.6 11810.2 17366.5 11807.5 17360.5 11804.7C17168.1 11725.7 16877.6 11723 16719 11727.3C16671.1 11727.3 16633.5 11732.2 16616.6 11733.9C16317.3 11273.3 16023 10815 15895 10613.9C15627.9 10190.9 14801.1 8450.72 14792.9 8433.82C14792 8431.58 14790.5 8429.61 14788.6 8428.09C14786.7 8426.57 14784.4 8425.54 14782 8425.1C14779.5 8424.75 14776.9 8424.75 14774.4 8425.1C14710.1 8406.57 14236.5 8286.12 14046.3 8745.03C13838.1 9244.8 14135.1 10341.9 14425.1 10740.3C14564.6 10932.2 14945.5 11714.8 15332 12524.7C15232.8 12616.8 14439.2 13349.9 14053.9 13486.7C13738.3 13598.4 13812.5 15216 13871.9 16514.8C13894.2 16994.4 13912.7 17406.9 13907.3 17654.9C13896.4 18134.5 14769 18795.1 15614.8 19433.8C16377.8 20012.7 17169.2 20610.5 17261.9 21044.9C17287.5 21167 17360.5 21266.2 17447.7 21377.9C17593.2 21563.2 17780.7 21781.8 17860.3 22195.4C17883.7 22319.7 18083.2 22482.1 18241.8 22747.5H23966.6C23918.7 22618.4 23828.2 22382.9 23735.5 22117ZM15796.3 13500.3C16073.7 14081.3 16245.4 14426.8 16286.8 14465.5C16328.2 14504.2 16325.5 14688.4 16324.4 14867.7C16318.5 15024.7 16323.9 15181.9 16340.8 15338.1C16273.2 15397.5 15846.5 15786.1 15760.3 16101.1L15397.9 15674.3L15306.3 14335.2C15360.8 14277.5 15733.6 13883.4 15796.3 13500.3Z" fill="white"/>
<path opacity="0.4" d="M22092.9 17233.6C22227.5 18489.9 22229.1 19171.2 22380.1 19534.7C22635.2 20148.4 23010.7 20272.6 23010.7 20272.6C22885.8 20034.8 22786.6 19784.3 22714.7 19525.4C22635.7 19227.3 22714.7 18493.2 22788.8 17781.4C22843.3 17270.1 22893.5 16787.3 22879.3 16513.7L22874.4 16416.7C22837.4 15701.6 22760 14212.6 22601.9 13800.6C22447.1 13403.8 22301.6 13344.4 22037.3 13238.1C22010 13226.7 21982.8 13215.8 21951.2 13202.7C21852 13161.3 21683.6 13074.1 21488.4 12973.2C21049.7 12746 20503.6 12463.1 20226.2 12428.2C19966.7 12398.7 19704.1 12410.9 19448.5 12464.2C19106.7 12202.1 18525.2 11864.7 18351.9 11857.6C18210.2 11850.5 17825.9 11962.2 17676.6 12009.7C18330.6 12543.2 19272.4 13208.7 19272.4 13208.7C20017.4 13356.9 19922.1 13680.1 20223.5 13862.7C20496 14026.2 20756.5 13547.7 20986.5 13505.7C21287.3 13451.2 21629.1 13768.4 21613.8 14153.2C21566.9 15213.3 21977.3 16155 22092.9 17233.6Z" fill="#7AD0EA"/>
<path opacity="0.4" d="M18326.8 13340.6C18326.8 13340.6 17736.6 12850.1 17454.8 12686.6C17173 12523.1 17127.8 11959.5 17350.1 11822.7C17358.6 11817.7 17368.1 11814.7 17377.9 11814L17357.8 11804.7C17165.4 11725.7 16874.9 11722.4 16716.3 11727.3C17043.3 12336.1 17304.4 12803.2 17374.7 12905.7C17611.8 13247.9 18326.8 13340.6 18326.8 13340.6Z" fill="#7AD0EA"/>
<path opacity="0.4" d="M17431.4 20968.6C17456.4 20838.4 17241.7 20456.8 17147.4 20302.1C16933.2 19948.9 14446.3 17751.4 14806.6 17165C15166.8 16578.5 15496 17012.4 15723.8 17050.5C15887.3 17077.8 16336.4 16810.2 16334.2 16787.8C16283 16336 16699.9 16042.2 16699.9 16042.2C16699.9 16042.2 16661.8 14243.7 16565.9 14274.2C16469.9 14304.7 15322.1 11573.7 15322.1 11573.7C15322.1 11573.7 14108.9 9960.41 14177.6 9207.74C14246.3 8455.08 14772.8 8442 14772.8 8442V8421.83C14708.5 8403.3 14234.8 8282.85 14044.6 8741.76C13836.4 9241.53 14133.5 10338.6 14423.4 10737.1C14562.9 10928.9 14943.9 11711.5 15330.3 12521.4C15231.1 12613.5 14437.6 13346.6 14052.3 13483.4C13736.7 13595.1 13810.8 15212.7 13870.2 16511.5C13892.6 16991.1 13911.1 17403.7 13905.7 17651.7C13894.8 18131.3 14767.3 18791.8 15613.2 19430.6C16376.2 20009.4 17167.6 20607.3 17260.2 21041.6C17285.8 21163.7 17358.9 21262.9 17446.1 21374.6C17428.7 21240 17423.8 21104.1 17431.4 20968.6ZM15796.3 13501.9C16073.7 14082.9 16245.4 14428.4 16286.8 14467.1C16328.2 14505.8 16325.5 14690 16324.4 14869.4C16318.5 15026.3 16323.9 15183.5 16340.8 15339.7C16273.2 15399.1 15846.5 15787.7 15760.3 16102.7L15397.9 15676L15306.3 14336.9C15360.8 14277.5 15733.6 13883.4 15796.3 13500.3V13501.9Z" fill="#7AD0EA"/>
<path d="M17988.4 13333.5C17744.8 13256.9 17530.8 13106.9 17375.8 12904C17126.7 12570.5 16148.4 11051 15877.5 10622.6C15606.6 10194.2 14772.8 8442 14772.8 8442C14772.8 8442 14260.5 8270.32 14061 8748.84C13861.5 9227.36 14134.6 10308.7 14438.1 10725.1C14741.7 11141.5 16184.4 14347.8 16298.8 14451.3C16413.3 14554.9 16241.6 15410.6 16471 15617.7" stroke="#263238" stroke-linecap="round" stroke-linejoin="round"/>
<path d="M16360.9 15345.7C16360.9 15345.7 15832.3 15806.2 15770.1 16142.5L15377.7 15680.9L15285.1 14328.2C15285.1 14328.2 15758.7 13854 15784.9 13432.2" stroke="#263238" stroke-linecap="round" stroke-linejoin="round"/>
<path d="M15352.1 12523.1C15352.1 12523.1 14474.1 13351.5 14056.6 13499.2C13639.1 13646.9 13943.8 16750.7 13923.1 17649.5C13902.4 18548.2 17081.5 20114 17276.6 21034C17354 21400.3 17674.4 21474.9 17870.1 22178.5" stroke="#263238" stroke-linecap="round" stroke-linejoin="round"/>
<path d="M16601.8 11751.9C16601.8 11751.9 17079.8 11708.8 17349.1 11821.1C17618.3 11933.4 18711.6 12872.4 18975.4 13051.7C19239.2 13231 19635.9 13299.2 19711.2 13492.6" stroke="#263238" stroke-linecap="round" stroke-linejoin="round"/>
<path d="M17670.6 12028.7C17670.6 12028.7 18161.1 11865.2 18348.6 11874.5C18536.1 11883.8 19241.3 12299.6 19557.5 12577.6C19799.7 12792.5 20078.6 12962 20381 13077.9" stroke="#263238" stroke-linecap="round" stroke-linejoin="round"/>
<path d="M19442.5 12483.3C19698.4 12428.2 19961.7 12415.5 20221.8 12445.7C20620.8 12500.2 21622.5 13088.8 21941.9 13221.8C22261.3 13354.8 22413.9 13379.3 22581.7 13808.8C22749.6 14238.2 22826.5 15871.1 22860.2 16516.4C22894 17161.7 22557.8 19009.8 22696.7 19529.8C22835.7 20049.7 23086.4 20450.8 23238.5 20728.8" stroke="#263238" stroke-linecap="round" stroke-linejoin="round"/>
<path d="M15285.1 14328.2C15285.1 14328.2 15208.8 14009.3 15099.8 13968.4" stroke="#263238" stroke-linecap="round" stroke-linejoin="round"/>
<path d="M15377.7 15680.9C15414.5 15866.7 15464.2 16049.7 15526.5 16228.6C15605 16422.1 15482.9 16702.2 15482.9 16702.2" stroke="#263238" stroke-linecap="round" stroke-linejoin="round"/>
<path d="M15770.1 16142.5C15757.6 16452.1 16065.5 16814 16140.2 16762.7" stroke="#263238" stroke-linecap="round" stroke-linejoin="round"/>
<path d="M17338.2 14328.2C17338.2 14328.2 17669 13793 17986.2 13766.8C18303.4 13740.6 18669.6 14190.8 18865.3 14148.3C19060.9 14105.8 19307.3 13818 19636.5 13766.8C19965.7 13715.6 20119.9 13872.5 20381 13885.6C20642 13898.7 20668.7 13549.9 20980.5 13504.1C21292.2 13458.3 21398.5 13613.1 21607.8 13653.4C21817.1 13693.8 21869.4 13528.6 22038.9 13435.4" stroke="#263238" stroke-linecap="round" stroke-linejoin="round"/>
</svg>
