<svg width="32000" height="23844" viewBox="0 0 32000 23844" fill="none" xmlns="http://www.w3.org/2000/svg">
<path d="M32000 20953.6H0V20969.6H32000V20953.6Z" fill="#EBEBEB"/>
<path d="M5728 21389.4H3357.44V21405.4H5728V21389.4Z" fill="#EBEBEB"/>
<path d="M15360 21735.7H10816V21751.7H15360V21735.7Z" fill="#EBEBEB"/>
<path d="M9322.88 21397.1H6074.88V21413.1H9322.88V21397.1Z" fill="#EBEBEB"/>
<path d="M29148.8 21875.8H26033.9V21891.8H29148.8V21875.8Z" fill="#EBEBEB"/>
<path d="M25749.1 21875.8H23703V21891.8H25749.1V21875.8Z" fill="#EBEBEB"/>
<path d="M21710.1 21605.8H17741.4V21621.8H21710.1V21605.8Z" fill="#EBEBEB"/>
<path d="M15168 18099.2H2810.24C2713.43 18099 2620.64 18060.5 2552.25 17991.9C2483.85 17923.4 2445.44 17830.6 2445.44 17733.8V362.24C2446.28 265.986 2485.07 173.951 2553.37 106.126C2621.68 38.3013 2713.98 0.164889 2810.24 0H15168C15264.9 0 15357.9 38.5016 15426.4 107.035C15494.9 175.568 15533.4 268.519 15533.4 365.44V17733.8C15533.4 17830.7 15494.9 17923.6 15426.4 17992.2C15357.9 18060.7 15264.9 18099.2 15168 18099.2ZM2810.24 12.8C2717.67 12.9696 2628.96 49.8602 2563.56 115.375C2498.17 180.889 2461.44 269.674 2461.44 362.24V17733.8C2461.44 17826.3 2498.17 17915.1 2563.56 17980.6C2628.96 18046.1 2717.67 18083 2810.24 18083.2H15168C15260.6 18083 15349.4 18046.2 15414.9 17980.7C15480.4 17915.2 15517.3 17826.4 15517.4 17733.8V362.24C15517.3 269.615 15480.4 180.832 15414.9 115.335C15349.4 49.8394 15260.6 12.9692 15168 12.8H2810.24Z" fill="#EBEBEB"/>
<path d="M29011.8 18099.2H16653.4C16556.6 18099 16463.7 18060.5 16395.2 17992C16326.7 17923.5 16288.2 17830.6 16288 17733.8V362.24C16289 265.927 16327.9 173.893 16396.3 106.086C16464.7 38.279 16557.1 0.163091 16653.4 0H29011.8C29108 0.333088 29200.1 38.5439 29268.3 106.351C29336.5 174.157 29375.2 266.096 29376 362.24V17733.8C29376 17830.5 29337.7 17923.2 29269.4 17991.7C29201.2 18060.2 29108.5 18098.9 29011.8 18099.2ZM16653.4 12.8C16560.8 12.9692 16472 49.8394 16406.5 115.335C16341 180.832 16304.2 269.615 16304 362.24V17733.8C16304.2 17826.4 16341 17915.2 16406.5 17980.7C16472 18046.2 16560.8 18083 16653.4 18083.2H29011.8C29104.5 18083 29193.2 18046.2 29258.7 17980.7C29324.2 17915.2 29361.1 17826.4 29361.3 17733.8V362.24C29361.1 269.615 29324.2 180.832 29258.7 115.335C29193.2 49.8394 29104.5 12.9692 29011.8 12.8H16653.4Z" fill="#EBEBEB"/>
<path d="M27879.7 20756.5H22887.7C22654.8 20756.5 22431.5 20664 22266.8 20499.3C22102.1 20334.6 22009.6 20111.3 22009.6 19878.4V15393.3C22009.6 15160.4 22102.1 14937.1 22266.8 14772.4C22431.5 14607.7 22654.8 14515.2 22887.7 14515.2H27879.7V20756.5Z" fill="#F0F0F0"/>
<path d="M27838.7 20756.5H27921.3C28406.2 20756.5 28799.4 20363.4 28799.4 19878.4V15393.3C28799.4 14908.3 28406.2 14515.2 27921.3 14515.2H27838.7C27353.8 14515.2 26960.6 14908.3 26960.6 15393.3V19878.4C26960.6 20363.4 27353.8 20756.5 27838.7 20756.5Z" fill="#F5F5F5"/>
<path d="M27210.9 16817.3H16272V20756.5H27210.9V16817.3Z" fill="#F0F0F0"/>
<path d="M27746.6 20953.6H11578.9C11555.2 20953.7 11531.8 20949.1 11509.9 20940.1C11488 20931.1 11468.1 20917.9 11451.3 20901.2C11434.5 20884.4 11421.2 20864.6 11412.2 20842.7C11403.1 20820.9 11398.4 20797.4 11398.4 20773.8V20756.5H22883.8L27926.4 20773.8C27926.4 20821.5 27907.5 20867.2 27873.7 20900.9C27840 20934.7 27794.3 20953.6 27746.6 20953.6Z" fill="#E0E0E0"/>
<path d="M12623.4 11925.8H23109.1C23433.8 11925.8 23745.2 12054.7 23974.8 12284.4C24204.5 12514 24333.4 12825.4 24333.4 13150.1V17707.5H11398.4V13150.1C11398.4 12825.4 11527.4 12514 11757 12284.4C11986.6 12054.7 12298 11925.8 12622.7 11925.8H12623.4Z" fill="#E0E0E0"/>
<path d="M13463 11925.8H24064C24373.1 11925.8 24669.5 12048.5 24888.1 12267.1C25106.7 12485.7 25229.4 12782.1 25229.4 13091.2V17708.2H12297.6V13091.2C12297.6 12782.1 12420.4 12485.7 12638.9 12267.1C12857.5 12048.5 13153.9 11925.8 13463 11925.8Z" fill="#F5F5F5"/>
<path d="M26688 16457.6H17104.6C16958 16457.6 16817.3 16515.9 16713.6 16619.6C16609.9 16723.3 16551.7 16863.9 16551.7 17010.6V17509.1C16551.7 17655.8 16609.9 17796.4 16713.6 17900.1C16817.3 18003.8 16958 18062.1 17104.6 18062.1H26688C26793.4 18062.1 26897.7 18041.3 26995 18001C27092.4 17960.6 27180.8 17901.5 27255.3 17827C27329.7 17752.4 27388.8 17664 27429.1 17566.6C27469.3 17469.2 27490 17364.9 27489.9 17259.5C27489.9 17046.8 27405.4 16842.9 27255 16692.5C27104.7 16542.1 26900.7 16457.6 26688 16457.6Z" fill="#E0E0E0"/>
<path d="M16243.8 20756.5H11251.8C11019 20756.5 10795.6 20664 10630.9 20499.3C10466.3 20334.6 10373.8 20111.3 10373.8 19878.4V15393.3C10373.8 15160.4 10466.3 14937.1 10630.9 14772.4C10795.6 14607.7 11019 14515.2 11251.8 14515.2H16243.8V20756.5Z" fill="#F0F0F0"/>
<path d="M16202.2 20756.5H16284.8C16769.7 20756.5 17162.9 20363.4 17162.9 19878.4V15393.3C17162.9 14908.3 16769.7 14515.2 16284.8 14515.2H16202.2C15717.3 14515.2 15324.2 14908.3 15324.2 15393.3V19878.4C15324.2 20363.4 15717.3 20756.5 16202.2 20756.5Z" fill="#F5F5F5"/>
<path d="M25667.8 2401.28H21147.5V9048.32H25667.8V2401.28Z" fill="#E0E0E0"/>
<path d="M25939.8 2401.28H21271V9048.32H25939.8V2401.28Z" fill="#F5F5F5"/>
<path d="M21662.1 2924.8V8524.16H25548.8V2924.8H21662.1Z" fill="white"/>
<path d="M23121.9 5994.88V6421.12C23248.9 6421.12 23374.7 6396.11 23492 6347.51C23609.3 6298.91 23715.9 6227.68 23805.7 6137.88C23895.5 6048.08 23966.7 5941.48 24015.3 5824.15C24063.9 5706.82 24089 5581.07 24089 5454.08V5027.84C23961.9 5027.76 23836.2 5052.71 23718.8 5101.28C23601.4 5149.85 23494.8 5221.08 23405 5310.89C23315.2 5400.71 23243.9 5507.35 23195.4 5624.71C23146.8 5742.07 23121.8 5867.86 23121.9 5994.88Z" fill="#F5F5F5"/>
<path d="M23121.9 4557.44V4983.68C23378.3 4983.51 23624.2 4881.57 23805.5 4700.25C23986.9 4518.93 24088.8 4273.06 24089 4016.64V3589.76C23961.9 3589.76 23836.1 3614.79 23718.7 3663.43C23601.4 3712.07 23494.7 3783.36 23404.9 3873.23C23315.1 3963.09 23243.9 4069.77 23195.3 4187.17C23146.8 4304.57 23121.8 4430.39 23121.9 4557.44Z" fill="#F5F5F5"/>
<path d="M23121.9 7432.96V7859.2C23378.5 7859.03 23624.4 7757 23805.8 7575.55C23987.1 7394.09 24089 7148.05 24089 6891.52V6464C23961.8 6464 23835.9 6489.08 23718.4 6537.79C23601 6586.51 23494.3 6657.92 23404.5 6747.92C23314.7 6837.92 23243.5 6944.75 23195 7062.3C23146.5 7179.85 23121.7 7305.8 23121.9 7432.96Z" fill="#F5F5F5"/>
<path d="M18954.2 7614.72V2924.8L4192 2924.8V7614.72L18954.2 7614.72Z" fill="#EBEBEB"/>
<path d="M4192 7614.72V2924.8H4103.04V7614.72H4192Z" fill="#E0E0E0"/>
<path d="M18226.6 3652.48H4919.68V6887.04H18226.6V3652.48Z" fill="#F5F5F5"/>
<path d="M8108.8 6887.04H7003.52L7868.8 3652.48H8974.08L8108.8 6887.04Z" fill="white"/>
<path d="M9136.64 6887.04H8497.28L9362.56 3652.48H10001.9L9136.64 6887.04Z" fill="white"/>
<path d="M14700.2 6887.04H14060.8L14926.1 3652.48H15565.4L14700.2 6887.04Z" fill="white"/>
<path d="M9940.48 15589.8H6362.24L5919.36 10728.3H9498.24L9940.48 15589.8Z" fill="#E6E6E6"/>
<path d="M10126.1 15589.8H6547.2L6104.96 10728.3H9683.84L10126.1 15589.8Z" fill="#F0F0F0"/>
<path d="M7036.16 15051.5L6691.84 11266.6H9194.24L9538.56 15051.5H7036.16Z" fill="white"/>
<path d="M12622.7 15589.8H12140.8V20953H12622.7V15589.8Z" fill="#E6E6E6"/>
<path d="M12774.4 15589.8H12439.7V20953H12774.4V15589.8Z" fill="#F5F5F5"/>
<path d="M7792.64 16181.8H12878.1V15589.8H7792.64V16181.8Z" fill="#F5F5F5"/>
<path d="M7576.96 16181.8H7095.04V20953.6H7576.96V16181.8Z" fill="#E6E6E6"/>
<path d="M7729.28 16181.8H7394.56V20953.6H7729.28V16181.8Z" fill="#F5F5F5"/>
<path d="M4528 16181.8H4046.08V20953.6H4528V16181.8Z" fill="#E6E6E6"/>
<path d="M4680.32 16181.8H4345.6V20953.6H4680.32V16181.8Z" fill="#F5F5F5"/>
<path d="M9573.76 16181.8H9091.84V20953.6H9573.76V16181.8Z" fill="#E6E6E6"/>
<path d="M9725.44 16181.8H9390.72V20953.6H9725.44V16181.8Z" fill="#F5F5F5"/>
<path d="M7792.64 15589.8H4046.08V16181.8H7792.64V15589.8Z" fill="#E6E6E6"/>
<path d="M16000 23843.8C22853.3 23843.8 28409 23519.5 28409 23119.4C28409 22719.2 22853.3 22394.9 16000 22394.9C9146.72 22394.9 3591.04 22719.2 3591.04 23119.4C3591.04 23519.5 9146.72 23843.8 16000 23843.8Z" fill="#F5F5F5"/>
<path d="M21015 5184C20770.6 5031.04 20068.5 5184 20183 5952C20297.6 6720 19395.2 6523.52 19592.3 7416.96C19789.4 8310.4 21388.8 9637.76 22373.8 8736.64C23358.7 7835.52 22528.6 7438.08 22547.2 6368.64C22560 5733.12 22272 4595.2 21015 5184Z" fill="#00AFC1"/>
<path d="M22464 8698.24C22459.4 8698.21 22455.1 8696.37 22451.8 8693.12C22450.3 8691.63 22449.1 8689.84 22448.2 8687.86C22447.4 8685.88 22446.9 8683.75 22446.9 8681.6C22446.9 8679.45 22447.4 8677.32 22448.2 8675.34C22449.1 8673.36 22450.3 8671.57 22451.8 8670.08C23058.6 8067.2 22918.4 7699.84 22741.1 7235.2C22642.6 6979.2 22531.8 6687.36 22522.2 6309.12C22512.6 5900.8 22363.5 5343.36 21975 5113.6C21699.8 4951.04 21346.6 4979.2 20925.4 5197.44C20921.6 5199.27 20917.2 5199.56 20913.2 5198.25C20909.1 5196.94 20905.7 5194.13 20903.7 5190.4C20902.6 5188.49 20901.9 5186.37 20901.7 5184.17C20901.4 5181.98 20901.6 5179.76 20902.3 5177.66C20903 5175.56 20904.1 5173.61 20905.5 5171.95C20907 5170.29 20908.7 5168.94 20910.7 5168C21342.7 4944 21706.2 4916.48 21992.3 5085.44C22391.7 5322.24 22545.3 5891.84 22555.5 6307.84C22564.5 6680.96 22674.6 6968.96 22771.8 7223.04C22953 7699.2 23097 8075.52 22474.9 8695.04C22471.7 8697.3 22467.9 8698.43 22464 8698.24Z" fill="#00AFC1"/>
<path d="M22606.1 8610.56C22606.1 8610.56 22616.3 8625.28 22623.4 8634.88L22649 8669.44C22667.7 8693.33 22687.6 8717.01 22708.5 8740.48C22751.4 8788.81 22797.1 8834.55 22845.4 8877.44C22944.5 8968.19 23051.6 9049.81 23165.4 9121.28C23281 9194.83 23401.1 9260.89 23525.1 9319.04C23589.1 9350.4 23653.1 9375.36 23717.1 9403.52C23729.3 9409.28 23717.1 9403.52 23708.8 9408.64C23700.5 9413.76 23693.4 9418.24 23700.5 9414.4C23731.9 9387.67 23756.8 9354.19 23773.4 9316.48C23801.7 9260.07 23825.9 9201.67 23845.8 9141.76C23888.7 9008.1 23923.6 8871.95 23950.1 8734.08C23978.9 8593.28 24001.3 8449.28 24021.1 8304C24041 8158.72 24058.9 8011.52 24074.9 7867.52H24335.4C24356.7 8173.59 24354.3 8480.85 24328.3 8786.56C24316.4 8944.99 24292.2 9102.26 24256 9256.96C24236.6 9340.98 24210 9423.2 24176.6 9502.72C24136.2 9603.99 24073.7 9694.95 23993.6 9768.96C23934.6 9820.61 23862.7 9855.33 23785.6 9869.44C23709.2 9882.25 23630.8 9875.42 23557.8 9849.6C23482.9 9822.72 23406.7 9800.32 23332.5 9769.6C23181.8 9710.75 23035.9 9640.36 22896 9559.04C22754 9474.62 22619.7 9377.82 22494.7 9269.76C22431.4 9213.54 22371.5 9153.48 22315.5 9089.92C22286.7 9057.92 22258.6 9025.92 22231.7 8988.8L22192 8932.48C22177.9 8911.36 22168.3 8896.64 22148.5 8862.08L22606.1 8610.56Z" fill="#FFC3BD"/>
<path d="M22518.4 8373.76C23116.8 8757.76 23068.2 8990.72 23068.2 8990.72L22691.8 9536C22691.8 9536 21731.8 9152 21672.3 8850.56C21609.6 8536.32 22227.8 8188.16 22518.4 8373.76Z" fill="#00AFC1"/>
<path opacity="0.1" d="M22518.4 8373.76C23116.8 8757.76 23068.2 8990.72 23068.2 8990.72L22691.8 9536C22691.8 9536 21731.8 9152 21672.3 8850.56C21609.6 8536.32 22227.8 8188.16 22518.4 8373.76Z" fill="white"/>
<path d="M23104 8936.96C23115.1 8944.83 23122.7 8956.76 23125.1 8970.17C23127.5 8983.59 23124.5 8997.41 23116.8 9008.64L22732.8 9559.68C22729 9565.33 22724.1 9570.15 22718.4 9573.87C22712.8 9577.59 22706.4 9580.12 22699.7 9581.31C22693 9582.51 22686.1 9582.34 22679.5 9580.82C22672.9 9579.31 22666.6 9576.47 22661.1 9572.48C22655.6 9568.59 22650.9 9563.64 22647.3 9557.93C22643.7 9552.21 22641.2 9545.84 22640.1 9539.17C22639 9532.51 22639.2 9525.69 22640.7 9519.1C22642.2 9512.51 22645 9506.29 22649 9500.8L23033 8949.76C23040.8 8938.81 23052.6 8931.35 23065.9 8928.96C23079.1 8926.57 23092.8 8929.44 23104 8936.96Z" fill="#7AD0EA"/>
<path d="M24117.1 7992.96L23820.2 7596.16L24389.8 7449.6C24389.8 7449.6 24505.6 7802.88 24316.2 8062.08L24117.1 7992.96Z" fill="#FFC3BD"/>
<path d="M23836.2 7108.48L24310.4 7028.48L24389.8 7449.6L23820.2 7596.16L23836.2 7108.48Z" fill="#FFC3BD"/>
<path d="M19010.6 22566.4L19553.3 22618.9L19941.1 21342.7L19398.4 21290.2L19010.6 22566.4Z" fill="#FFC3BD"/>
<path d="M15557.8 20680.3L15960.3 21057.9L16829.4 20103L16426.9 19725.4L15557.8 20680.3Z" fill="#FFC3BD"/>
<path d="M16146.6 20876.8L15843.8 20332.2C15838.9 20322.6 15830.6 20315.3 15820.6 20311.5C15810.5 20307.7 15799.4 20307.8 15789.4 20311.7L15323.5 20489C15311.6 20493.8 15301 20501.1 15292.2 20510.5C15283.4 20519.8 15276.7 20531 15272.7 20543.1C15268.6 20555.3 15267.2 20568.2 15268.6 20580.9C15270 20593.7 15274.1 20606 15280.6 20617C15389.4 20805.1 15451.5 20890.9 15584 21129C15665.9 21276.2 15825.3 21614.7 15938.6 21818.2C16051.8 22021.8 16258.6 21921.3 16230.4 21825.9C16102.4 21400.3 16125.4 21163.5 16161.9 20976C16168.5 20942.2 16163.1 20907.1 16146.6 20876.8Z" fill="#00AFC1"/>
<path d="M19617.9 22453.1H18959.4C18947.6 22453.3 18936.2 22457.3 18926.9 22464.4C18917.6 22471.6 18910.8 22481.5 18907.5 22492.8L18764.2 23013.8C18760.8 23026.1 18760.3 23039 18762.8 23051.6C18765.3 23064.1 18770.7 23075.9 18778.5 23086C18786.3 23096.1 18796.4 23104.3 18807.9 23109.9C18819.4 23115.4 18832 23118.2 18844.8 23118.1C19076.5 23118.1 19186.6 23118.1 19475.8 23118.1H20361C20601.6 23118.1 20651.5 22874.9 20553 22853.1C20105 22754.6 19849 22618.2 19711.4 22488.3C19686 22464.8 19652.5 22452.1 19617.9 22453.1Z" fill="#00AFC1"/>
<path opacity="0.2" d="M19941.1 21343.4L19741.4 22000.6H19182.1L19398.4 21290.9L19941.1 21343.4Z" fill="black"/>
<path opacity="0.2" d="M16426.9 19725.4L16829.4 20103.7L16381.4 20595.8L15978.9 20217.6L16426.9 19725.4Z" fill="black"/>
<path d="M22518.4 8373.76C22518.4 8373.76 22736 8521.6 21356.8 11518.1L19185.3 10917.1C19466.2 10042.9 19618.6 9498.24 19697.3 7567.36C20018.8 7588.69 20338.4 7633.39 20653.4 7701.12C20988 7768.69 21317.4 7860.02 21639 7974.4C21938.9 8092.21 22232.4 8225.51 22518.4 8373.76Z" fill="#00AFC1"/>
<path opacity="0.1" d="M22518.4 8373.76C22518.4 8373.76 22736 8521.6 21356.8 11518.1L19185.3 10917.1C19466.2 10042.9 19618.6 9498.24 19697.3 7567.36C20018.8 7588.69 20338.4 7633.39 20653.4 7701.12C20988 7768.69 21317.4 7860.02 21639 7974.4C21938.9 8092.21 22232.4 8225.51 22518.4 8373.76Z" fill="white"/>
<path d="M21059.2 6617.6C21033.6 6952.32 20934.4 7550.72 20654.1 7701.12C20654.1 7701.12 20490.9 8256 21198.7 8460.16C21798.4 8632.32 21639.7 7974.4 21639.7 7974.4C21309.4 7792 21511.7 7468.8 21575.7 7106.56L21059.2 6617.6Z" fill="#FFC3BD"/>
<path opacity="0.2" d="M21056 6618.24C21035.5 6886.4 20968.3 7326.72 20796.2 7566.08C20995.8 7585.92 21308.2 7525.12 21400.3 7374.08C21445.9 7268.19 21482.9 7158.83 21511 7047.04L21056 6618.24Z" fill="black"/>
<path d="M21937.3 6133.12C21937.3 6683.52 21946.9 6917.12 21686.4 7214.72C21294.1 7662.72 20618.2 7540.48 20455 7000.32C20308.5 6514.56 20335.4 5696 20860.2 5445.76C20975.5 5390.07 21103.1 5364.8 21230.9 5372.35C21358.8 5379.91 21482.5 5420.04 21590.5 5488.93C21698.4 5557.81 21787 5653.16 21847.7 5765.92C21908.4 5878.67 21939.2 6005.08 21937.3 6133.12Z" fill="#FFC3BD"/>
<path d="M20800 5827.84C21109.1 6259.84 22149.1 6860.16 22218.9 6281.6C22288.6 5703.04 21757.4 5129.6 21231.4 5186.56C20705.3 5243.52 20535.7 5460.48 20800 5827.84Z" fill="#00AFC1"/>
<path d="M22165.1 6647.04C22141.8 6694.38 22109.4 6736.67 22069.8 6771.49C22030.2 6806.3 21984 6832.95 21934.1 6849.92C21800.3 6894.08 21726.7 6776.32 21758.1 6646.4C21786.9 6529.28 21890.6 6365.44 22028.2 6377.6C22058.1 6380.68 22086.7 6391.21 22111.5 6408.22C22136.3 6425.24 22156.4 6448.2 22170.1 6475C22183.7 6501.8 22190.4 6531.59 22189.5 6561.65C22188.6 6591.7 22180.3 6621.06 22165.1 6647.04Z" fill="#FFC3BD"/>
<path d="M21356.8 11520C21356.8 11520 22129.9 14651.5 21623 17020.2C21283.2 18606.7 20058.2 21811.8 20058.2 21811.8L19098.2 21787.5C19098.2 21787.5 20025.6 18424.3 20217 17101.4C20545.3 14838.4 19763.8 11079.7 19763.8 11079.7L21356.8 11520Z" fill="#7AD0EA"/>
<path opacity="0.2" d="M20494.7 11968L20016 12723.2C20159.3 13618.7 20250.1 14521.8 20288 15427.8C20963.2 14222.7 20644.5 12608 20494.7 11968Z" fill="black"/>
<path d="M20229.8 21859.8L19010.6 21829.8L19092.5 21395.8L20318.7 21488L20229.8 21859.8Z" fill="#00AFC1"/>
<path d="M20880.6 11392C20880.6 11392 20432.6 14816 19468.2 16761.6C18688 18332.8 16606.1 20569.6 16606.1 20569.6L16073.6 20021.1C16073.6 20021.1 17481.6 17589.1 18057.6 16546.6C19479.7 13986.6 18219.5 11692.2 19183.4 10914.6L20880.6 11392Z" fill="#7AD0EA"/>
<path d="M16659.8 20644.5L15973.1 19974.4L16201 19664.6L16949.8 20438.4L16659.8 20644.5Z" fill="#00AFC1"/>
<path d="M19187.8 10780.2L19036.2 10947.8C19024.6 10960.6 19036.2 10981.1 19063 10988.2L21340.8 11618.6C21360 11623.7 21379.2 11618.6 21383.7 11607L21457.3 11415C21462.4 11402.2 21448.3 11386.2 21427.2 11379.8L19228.2 10771.2C19221.2 10769.1 19213.9 10768.8 19206.8 10770.3C19199.7 10771.9 19193.2 10775.3 19187.8 10780.2Z" fill="#7AD0EA"/>
<path opacity="0.5" d="M19187.8 10780.2L19036.2 10947.8C19024.6 10960.6 19036.2 10981.1 19063 10988.2L21340.8 11618.6C21360 11623.7 21379.2 11618.6 21383.7 11607L21457.3 11415C21462.4 11402.2 21448.3 11386.2 21427.2 11379.8L19228.2 10771.2C19221.2 10769.1 19213.9 10768.8 19206.8 10770.3C19199.7 10771.9 19193.2 10775.3 19187.8 10780.2Z" fill="white"/>
<path d="M19415 11107.8L19356.2 11091.8C19344.6 11088.6 19337.6 11079.7 19340.2 11072.6L19437.4 10828.2C19440.6 10820.5 19452.8 10817.3 19464.3 10820.5L19523.2 10837.1C19534.7 10837.1 19542.4 10848.6 19539.2 10856.3L19441.9 11100.8C19438.8 11104.7 19434.5 11107.6 19429.7 11108.8C19424.8 11110.1 19419.7 11109.8 19415 11107.8Z" fill="#7AD0EA"/>
<path d="M21169.3 11593.6L21110.4 11577.6C21098.9 11574.4 21091.2 11565.4 21094.4 11558.4L21191.7 11313.3C21194.8 11309.3 21199.1 11306.5 21203.9 11305.3C21208.8 11304 21213.9 11304.3 21218.6 11306.2L21277.4 11322.9C21289 11326.1 21296 11334.4 21293.4 11341.4L21196.2 11584C21193 11593.6 21184 11596.8 21169.3 11593.6Z" fill="#7AD0EA"/>
<path d="M20292.5 11351L20233.6 11334.4C20221.4 11334.4 20214.4 11322.9 20217 11315.8L20314.9 11070.7C20314.9 11063.7 20329.6 11060.5 20341.1 11063.7L20400 11079.7C20412.2 11079.7 20419.2 11091.8 20416.6 11098.9L20318.7 11344C20316.2 11351 20304 11354.2 20292.5 11351Z" fill="#7AD0EA"/>
<path d="M21114.2 6336C21114.2 6380.8 21095 6418.56 21066.2 6419.84C21037.4 6421.12 21011.2 6387.2 21008 6342.4C21004.8 6297.6 21027.2 6259.84 21056.6 6257.92C21086.1 6256 21111.7 6290.56 21114.2 6336Z" fill="#00AFC1"/>
<path d="M20608 6364.8C20608 6409.6 20588.8 6447.36 20559.4 6449.28C20529.9 6451.2 20505 6416 20501.8 6371.2C20498.6 6326.4 20521 6288.64 20550.4 6287.36C20579.8 6286.08 20608 6320.64 20608 6364.8Z" fill="#00AFC1"/>
<path d="M20564.5 6288.64L20455.7 6264.32C20455.7 6264.32 20515.2 6344.96 20564.5 6288.64Z" fill="#00AFC1"/>
<path d="M20746.9 6433.92C20713 6538 20665.2 6637.03 20604.8 6728.32C20628.5 6743.23 20655.1 6752.79 20682.9 6756.32C20710.6 6759.86 20738.8 6757.29 20765.4 6748.8L20746.9 6433.92Z" fill="#ED847E"/>
<path d="M21014.4 6901.12C20987.8 6908 20960.6 6912.07 20933.1 6913.28C20931.7 6913.46 20930.2 6913.33 20928.8 6912.9C20927.4 6912.47 20926.1 6911.74 20925 6910.77C20923.9 6909.8 20923.1 6908.61 20922.5 6907.28C20921.9 6905.94 20921.6 6904.5 20921.6 6903.04C20921.5 6901.61 20921.7 6900.18 20922.2 6898.82C20922.6 6897.47 20923.4 6896.22 20924.3 6895.15C20925.3 6894.08 20926.4 6893.21 20927.7 6892.59C20929 6891.96 20930.4 6891.6 20931.8 6891.52C20987.8 6889.26 21042.4 6873.96 21091.4 6846.85C21140.4 6819.74 21182.4 6781.56 21214.1 6735.36C21215.7 6733.34 21218 6731.97 21220.6 6731.5C21223.1 6731.04 21225.8 6731.5 21228 6732.82C21230.3 6734.14 21232 6736.21 21232.8 6738.68C21233.7 6741.14 21233.6 6743.82 21232.6 6746.24C21182.2 6823.74 21104.2 6879.12 21014.4 6901.12Z" fill="#00AFC1"/>
<path d="M21281.3 6008.96C21277.7 6009.9 21273.9 6009.86 21270.3 6008.84C21266.7 6007.83 21263.4 6005.88 21260.8 6003.2C21237.5 5978.63 21208.7 5960 21176.7 5948.87C21144.8 5937.73 21110.6 5934.42 21077.1 5939.2C21071.5 5940.2 21065.6 5939.05 21060.8 5935.97C21055.9 5932.89 21052.4 5928.1 21050.9 5922.56C21049.7 5916.88 21050.8 5910.98 21053.9 5906.08C21057 5901.19 21061.9 5897.69 21067.5 5896.32C21108.1 5889.82 21149.6 5893.17 21188.6 5906.09C21227.6 5919.01 21262.9 5941.12 21291.5 5970.56C21295.5 5974.82 21297.7 5980.42 21297.7 5986.24C21297.7 5992.05 21295.5 5997.66 21291.5 6001.92C21288.7 6005.03 21285.2 6007.44 21281.3 6008.96Z" fill="#00AFC1"/>
<path d="M20389.1 6073.6C20385.7 6075.63 20381.9 6076.7 20377.9 6076.7C20374 6076.7 20370.1 6075.63 20366.7 6073.6C20362.2 6070.16 20359.2 6065.09 20358.4 6059.47C20357.5 6053.85 20358.9 6048.12 20362.2 6043.52C20385.8 6009.93 20417.2 5982.52 20453.6 5963.58C20490 5944.64 20530.5 5934.75 20571.5 5934.72C20574.4 5934.88 20577.2 5935.61 20579.8 5936.86C20582.3 5938.1 20584.6 5939.85 20586.5 5941.99C20588.4 5944.13 20589.9 5946.62 20590.8 5949.33C20591.8 5952.04 20592.2 5954.9 20592 5957.76C20591.8 5960.62 20591.1 5963.42 20589.9 5966C20588.6 5968.57 20586.9 5970.88 20584.7 5972.78C20582.6 5974.68 20580.1 5976.15 20577.4 5977.08C20574.7 5978.02 20571.8 5978.41 20569 5978.24C20535.2 5978.78 20502.1 5987.29 20472.3 6003.09C20442.5 6018.88 20416.8 6041.51 20397.4 6069.12C20395 6071.22 20392.2 6072.75 20389.1 6073.6Z" fill="#00AFC1"/>
<path d="M19748.5 8392.32C19692.8 8476.8 19642.2 8544.64 19585.3 8616.32C19528.3 8688 19472.6 8755.2 19413.8 8821.76C19295.7 8955.54 19170 9082.47 19037.4 9201.92C18905.6 9323.77 18765.8 9436.66 18618.9 9539.84C18546.6 9593.6 18469.1 9640.32 18393.6 9688.96L18275.2 9756.8L18216.3 9790.08C18194.6 9801.6 18166.4 9816.96 18139.5 9827.84C18020.9 9881.49 17889.1 9898.85 17760.6 9877.76C17639.4 9854.86 17526.1 9801.08 17431.7 9721.6C17352 9655.11 17281.8 9578.02 17223 9492.48C17168.8 9414.79 17120.7 9333.06 17079 9248C16927.2 8925.65 16822.5 8583.17 16768 8231.04L17024 8172.16C17077.1 8324.48 17136.6 8482.56 17203.8 8630.4C17266.8 8778.19 17341 8920.91 17425.9 9057.28C17496.7 9180.69 17590.6 9289.33 17702.4 9377.28C17739.6 9405.79 17783.8 9423.7 17830.4 9429.12C17871.1 9430.85 17911.5 9421.09 17946.9 9400.96C17959.2 9394.66 17971.2 9387.6 17982.7 9379.84L18032.6 9347.84L18131.8 9283.84C18195.8 9236.48 18259.8 9192.32 18323.8 9141.76C18449.9 9043.05 18570.8 8937.95 18686.1 8826.88C18803.2 8716.16 18912.6 8597.76 19018.2 8476.16C19071.4 8415.36 19123.2 8353.92 19173.1 8291.2C19223 8228.48 19273 8163.2 19313.3 8105.6L19748.5 8392.32Z" fill="#FFC3BD"/>
<path d="M17073.3 8408.32L17129.6 7811.2L16592.6 8030.72C16592.6 8030.72 16656.6 8330.88 16861.4 8438.4L17073.3 8408.32Z" fill="#FFC3BD"/>
<path d="M16958.1 7488.64L16542.7 7398.4L16592.6 8030.72L17129.6 7811.2L16958.1 7488.64Z" fill="#FFC3BD"/>
<path d="M19697.9 7567.36C19418.2 7567.36 18745 8634.88 18745 8634.88L19220.5 9127.68C19220.5 9127.68 20116.5 8523.52 20151.7 8167.68C20182.4 7861.76 20053.8 7570.56 19697.9 7567.36Z" fill="#00AFC1"/>
<path opacity="0.1" d="M19697.9 7567.36C19418.2 7567.36 18745 8634.88 18745 8634.88L19220.5 9127.68C19220.5 9127.68 20116.5 8523.52 20151.7 8167.68C20182.4 7861.76 20053.8 7570.56 19697.9 7567.36Z" fill="white"/>
<path d="M19264 9152C19254.4 9161.58 19241.4 9166.95 19227.8 9166.95C19214.3 9166.95 19201.3 9161.58 19191.7 9152L18711 8680.96C18701.5 8671.36 18696.1 8658.36 18696.1 8644.8C18696.1 8631.24 18701.5 8618.24 18711 8608.64C18720.7 8599.03 18733.9 8593.63 18747.5 8593.63C18761.2 8593.63 18774.3 8599.03 18784 8608.64L19264 9079.04C19273.6 9088.75 19279 9101.86 19279 9115.52C19279 9129.18 19273.6 9142.29 19264 9152Z" fill="#7AD0EA"/>
<path d="M16256 21169.9C16273.5 21169.5 16290.4 21163.2 16304 21152C16310.4 21147.9 16315.6 21142 16318.8 21135.1C16322.1 21128.2 16323.4 21120.6 16322.6 21113C16316.8 21043.8 16141.4 20949.8 16121 20938.9C16119.2 20937.8 16117.2 20937.2 16115.2 20937.2C16113.2 20937.2 16111.2 20937.8 16109.4 20938.9C16107.7 20940.1 16106.3 20941.9 16105.6 20944C16104.9 20946.1 16104.9 20948.3 16105.6 20950.4C16125.4 21020.8 16169.6 21142.4 16233.6 21164.8C16240.7 21167.8 16248.3 21169.6 16256 21169.9ZM16128 20970.9C16192 21005.4 16291.8 21072 16295 21114.9C16295.5 21118.7 16294.7 21122.6 16292.9 21126.1C16291.1 21129.5 16288.2 21132.3 16284.8 21134.1C16278.3 21140.2 16270.4 21144.4 16261.7 21146.4C16253.1 21148.5 16244 21148.2 16235.5 21145.6C16201 21132.8 16161.3 21068.2 16128 20970.9Z" fill="#7AD0EA"/>
<path d="M16279.7 20998.4C16307.4 21000.5 16335 20993.5 16358.4 20978.6C16366.1 20972.2 16371.3 20963.3 16373.2 20953.5C16375.1 20943.7 16373.5 20933.6 16368.6 20924.8C16365.3 20915.6 16359.8 20907.3 16352.7 20900.5C16345.6 20893.7 16337 20888.7 16327.7 20885.8C16252.8 20859.5 16113.3 20935.7 16107.5 20938.9C16105.9 20939.9 16104.5 20941.3 16103.5 20943C16102.5 20944.6 16101.9 20946.5 16101.8 20948.5C16101.8 20950.4 16102.2 20952.2 16103.1 20953.9C16104 20955.6 16105.3 20957 16106.9 20958.1C16160.7 20984.3 16219.8 20998.1 16279.7 20998.4ZM16290.6 20901.8C16300.8 20901.7 16311 20903.5 16320.6 20906.9C16327 20908.8 16332.8 20912.1 16337.6 20916.7C16342.4 20921.2 16346 20926.9 16348.2 20933.1C16355.2 20949.8 16348.2 20957.4 16344.3 20961.9C16311.7 20989.4 16196.5 20974.1 16137 20948.5C16184.6 20923 16236.8 20907.1 16290.6 20901.8Z" fill="#7AD0EA"/>
<path d="M19909.8 22559.4C19954.5 22562.7 19999.2 22552.2 20037.8 22529.3C20047.7 22521.8 20055.8 22512.2 20061.3 22501.1C20066.9 22489.9 20069.8 22477.7 20069.8 22465.3C20070.6 22458.8 20069.6 22452.3 20066.9 22446.4C20064.1 22440.5 20059.8 22435.5 20054.4 22432C19994.9 22391 19755.5 22501.1 19728.6 22513.9C19726.5 22514.9 19724.7 22516.5 19723.5 22518.6C19722.3 22520.7 19721.9 22523.1 19722.2 22525.4C19722.5 22527.6 19723.4 22529.7 19724.9 22531.3C19726.4 22532.9 19728.4 22534 19730.6 22534.4C19789.2 22549 19849.3 22557.4 19909.8 22559.4ZM20014.7 22446.1C20024 22445.5 20033.3 22447.5 20041.6 22451.8C20044.8 22451.8 20048 22457.6 20047.4 22466.6C20047.2 22475.4 20045 22484 20040.9 22491.8C20036.8 22499.6 20030.9 22506.3 20023.7 22511.4C19969.9 22552.3 19838.7 22535 19767.7 22522.2C19845.5 22484 19928.9 22458.3 20014.7 22446.1Z" fill="#7AD0EA"/>
<path d="M19732.5 22537H19736.3C19808.6 22507.5 19959 22386.6 19950.7 22326.4C19950.7 22313.6 19940.5 22297.6 19907.8 22293.8C19779.8 22279 19724.2 22513.9 19721.6 22524.2C19721.2 22526.1 19721.4 22528.2 19722.1 22530.1C19722.7 22532 19723.9 22533.7 19725.4 22535C19727.6 22536.3 19730 22537 19732.5 22537ZM19896.3 22314.2H19904C19926.4 22314.2 19927.7 22325.1 19928.3 22328.3C19933.4 22366.7 19825.9 22464.6 19747.8 22505.6C19765.1 22451.2 19813.8 22314.2 19896.3 22314.2Z" fill="#7AD0EA"/>
<path d="M21069.4 6259.2L20960.6 6234.88C20960.6 6234.88 21020.2 6315.52 21069.4 6259.2Z" fill="#00AFC1"/>
<path d="M9760.82 22828.3L16999.2 22196.3C17490.8 22153.4 17854.5 21720.1 17811.5 21228.5L16303.9 3961.75C16261 3470.19 15827.7 3106.49 15336.2 3149.41L8097.78 3781.41C7606.22 3824.33 7242.52 4257.62 7285.44 4749.18L8793.06 22016C8835.98 22507.5 9269.26 22871.2 9760.82 22828.3Z" fill="#7AD0EA"/>
<path d="M7827.2 9848.96C7894.25 9842.62 7956.11 9810.11 7999.35 9758.48C8042.6 9706.84 8063.76 9640.25 8058.24 9573.12L7859.2 7296C7853.01 7228.95 7820.66 7167.04 7769.15 7123.68C7717.64 7080.31 7651.12 7058.99 7584 7064.32C7516.83 7070.5 7454.82 7102.95 7411.43 7154.6C7368.05 7206.25 7346.81 7272.93 7352.32 7340.16L7552 9617.28C7558.18 9684.33 7590.54 9746.24 7642.05 9789.61C7693.56 9832.97 7760.08 9854.3 7827.2 9848.96Z" fill="#7AD0EA"/>
<path d="M16667.9 8047.9L16756.5 8040.16C16860.4 8031.09 16937.3 7939.53 16928.2 7835.65L16806.7 6444.47C16797.7 6340.59 16706.1 6263.73 16602.2 6272.8L16513.6 6280.54C16409.7 6289.61 16332.9 6381.17 16341.9 6485.05L16463.4 7876.24C16472.5 7980.11 16564 8056.97 16667.9 8047.9Z" fill="#00AFC1"/>
<path d="M16771.8 10389.9L16860.8 10381.9C16965 10372.5 17042 10280.4 17032.6 10176.1L16906.9 8779.61C16897.5 8675.34 16805.4 8598.42 16701.1 8607.8L16612.1 8615.81C16507.9 8625.19 16431 8717.33 16440.3 8821.6L16566 10218.1C16575.4 10322.4 16667.5 10399.3 16771.8 10389.9Z" fill="#00AFC1"/>
<path d="M9912.91 22814.6L17151.3 22182.6C17642.9 22139.7 18006.6 21706.4 17963.6 21214.9L16456 3948.07C16413.1 3456.51 15979.8 3092.81 15488.3 3135.73L8249.87 3767.73C7758.31 3810.65 7394.61 4243.94 7437.53 4735.5L8945.14 22002.3C8988.06 22493.9 9421.35 22857.6 9912.91 22814.6Z" fill="#00AFC1"/>
<path opacity="0.4" d="M9200 21739.5L17664 21000.3C17708.2 20996.3 17749.1 20974.9 17777.6 20940.8C17806.1 20906.8 17820.1 20862.8 17816.3 20818.6L16384 4396.16C16379.9 4352.04 16358.6 4311.31 16324.7 4282.8C16290.8 4254.28 16247 4240.28 16202.9 4243.84L7735.68 4983.68C7713.83 4985.61 7692.57 4991.83 7673.12 5001.98C7653.67 5012.13 7636.41 5026 7622.33 5042.82C7608.24 5059.64 7597.61 5079.07 7591.03 5100C7584.46 5120.93 7582.07 5142.95 7584 5164.8L9018.88 21587.8C9020.73 21609.7 9026.89 21631 9037.01 21650.5C9047.14 21670 9061.02 21687.3 9077.85 21701.4C9094.69 21715.5 9114.15 21726.1 9135.12 21732.7C9156.08 21739.2 9178.13 21741.5 9200 21739.5Z" fill="#7AD0EA"/>
<path opacity="0.3" d="M15084.2 4341.76L14020.5 21318.4L12251.5 21473.3L13315.2 4496L15084.2 4341.76Z" fill="#7AD0EA"/>
<path opacity="0.2" d="M12807.7 3796.93L11000.2 3954.75C10958.3 3958.41 10927.3 3995.34 10930.9 4037.24L10937.4 4110.57C10941 4152.47 10977.9 4183.47 11019.8 4179.81L12827.4 4021.99C12869.3 4018.33 12900.3 3981.4 12896.6 3939.5L12890.2 3866.18C12886.6 3824.27 12849.6 3793.27 12807.7 3796.93Z" fill="white"/>
<path d="M11123.2 10375.7H19930.2C20159 10376.4 20378.2 10467.5 20540 10629.3C20701.7 10791.1 20792.9 11010.3 20793.6 11239V15559C20792.9 15787.9 20701.8 16007.1 20540 16169C20378.3 16330.9 20159.1 16422.2 19930.2 16423H16882.6L15526.4 17779.2L14170.2 16423H11123.2C10894.3 16422.4 10674.9 16331.1 10513 16169.2C10351.1 16007.3 10259.9 15788 10259.2 15559V11239C10259.9 11010.2 10351.1 10790.9 10513 10629.1C10674.9 10467.3 10894.3 10376.2 11123.2 10375.7Z" fill="#7AD0EA"/>
<path opacity="0.3" d="M11123.2 10375.7H19930.2C20159 10376.4 20378.2 10467.5 20540 10629.3C20701.7 10791.1 20792.9 11010.3 20793.6 11239V15559C20792.9 15787.9 20701.8 16007.1 20540 16169C20378.3 16330.9 20159.1 16422.2 19930.2 16423H16882.6L15526.4 17779.2L14170.2 16423H11123.2C10894.3 16422.4 10674.9 16331.1 10513 16169.2C10351.1 16007.3 10259.9 15788 10259.2 15559V11239C10259.9 11010.2 10351.1 10790.9 10513 10629.1C10674.9 10467.3 10894.3 10376.2 11123.2 10375.7Z" fill="white"/>
<path d="M11687.7 11872.6V14925.4C11686.7 15043.8 11732.5 15157.8 11815.3 15242.5C11898 15327.1 12010.9 15375.6 12129.3 15377.3H18923.5C19041.9 15375.6 19154.8 15327.1 19237.5 15242.5C19320.3 15157.8 19366.1 15043.8 19365.1 14925.4V11872.6C19365.1 11814.8 19354.2 11757.5 19333.1 11703.7C19300.9 11621 19244.7 11549.9 19171.7 11499.5C19098.7 11449 19012.2 11421.7 18923.5 11420.8H12129.3C12040.6 11421.6 11954.3 11449 11881.4 11499.4C11808.4 11549.9 11752.3 11621 11720.3 11703.7C11698.6 11757.4 11687.5 11814.7 11687.7 11872.6Z" fill="white"/>
<path opacity="0.1" d="M11720.3 11703.7L15004.8 13134.1C15169.4 13206 15347.1 13243.1 15526.7 13243.1C15706.3 13243.1 15884 13206 16048.6 13134.1L19333.1 11703.7C19300.9 11621 19244.7 11549.9 19171.7 11499.5C19098.7 11449 19012.2 11421.7 18923.5 11420.8H12129.3C12040.6 11421.6 11954.3 11449 11881.4 11499.4C11808.4 11549.9 11752.3 11621 11720.3 11703.7Z" fill="black"/>
<path d="M11867.6 11687.9C12380.5 11175.1 12380.5 10343.5 11867.6 9830.66C11354.7 9317.79 10523.2 9317.79 10010.3 9830.66C9497.46 10343.5 9497.46 11175.1 10010.3 11687.9C10523.2 12200.8 11354.7 12200.8 11867.6 11687.9Z" fill="#DE5753"/>
<path d="M11192.3 11559.7H10886.4V10407.7C10773.3 10512.9 10638.5 10592 10491.5 10639.4V10362.2C10585.9 10327.5 10673.8 10277.1 10751.4 10213.1C10838.7 10148.1 10905.4 10059.2 10943.4 9957.12H11191.7L11192.3 11559.7Z" fill="white"/>
<path d="M18327.7 2618.88C18282.1 2618.51 18238.2 2601.95 18203.7 2572.17C18169.3 2542.4 18146.5 2501.33 18139.5 2456.32C18051.7 1879.35 17738.7 1360.72 17269.2 1014.13C16799.6 667.543 16211.8 521.264 15634.6 607.36C15587.7 608.591 15542 592.639 15506.1 562.51C15470.2 532.381 15446.6 490.157 15439.6 443.798C15432.7 397.438 15443 350.147 15468.5 310.838C15494 271.529 15533.1 242.919 15578.2 230.4C16255.4 129.457 16944.9 301.176 17495.6 707.897C18046.3 1114.62 18413.2 1723.14 18515.8 2400C18522.8 2449.83 18510 2500.42 18480.1 2540.87C18450.1 2581.33 18405.5 2608.42 18355.8 2616.32C18346.6 2618.1 18337.1 2618.95 18327.7 2618.88Z" fill="#7AD0EA"/>
<path d="M17381.1 2760.96C17335.7 2760.61 17291.8 2744.15 17257.4 2714.5C17222.9 2684.85 17200.1 2643.93 17193 2599.04C17143.5 2272.82 16966.7 1979.52 16701.3 1783.47C16435.9 1587.43 16103.6 1504.65 15777.3 1553.28C15730.4 1554.69 15684.5 1538.86 15648.5 1508.78C15612.5 1478.7 15588.7 1436.47 15581.7 1390.05C15574.7 1343.64 15584.9 1296.26 15610.4 1256.88C15636 1217.5 15675.1 1188.84 15720.3 1176.32C16146.6 1112.63 16580.8 1220.67 16927.6 1476.71C17274.3 1732.76 17505.3 2115.9 17569.9 2542.08C17577.1 2592.01 17564.3 2642.76 17534.4 2683.36C17504.5 2723.96 17459.7 2751.15 17409.9 2759.04C17400.4 2760.32 17390.8 2760.96 17381.1 2760.96Z" fill="#7AD0EA"/>
<path d="M16435.2 2903.68C16389.7 2903.31 16345.7 2886.75 16311.2 2856.97C16276.8 2827.2 16254 2786.13 16247 2741.12C16241.5 2703.68 16228.6 2667.71 16209.1 2635.27C16189.6 2602.83 16163.9 2574.56 16133.5 2552.08C16103 2529.6 16068.4 2513.36 16031.7 2504.28C15994.9 2495.21 15956.8 2493.48 15919.4 2499.2C15872.9 2499.83 15827.8 2483.61 15792.4 2453.54C15757 2423.46 15733.7 2381.57 15726.9 2335.64C15720 2289.7 15730 2242.83 15755 2203.71C15780.1 2164.59 15818.4 2135.87 15863 2122.88C15950.1 2109.74 16039 2113.95 16124.5 2135.28C16209.9 2156.61 16290.4 2194.63 16361.1 2247.15C16431.8 2299.67 16491.4 2365.66 16536.6 2441.32C16581.7 2516.98 16611.4 2600.81 16624 2688C16631 2737.83 16618.2 2788.42 16588.2 2828.87C16558.3 2869.33 16513.7 2896.42 16464 2904.32C16454.4 2905.06 16444.8 2904.84 16435.2 2903.68Z" fill="#7AD0EA"/>
</svg>
