<svg width="300" height="301" viewBox="0 0 300 301" fill="none" xmlns="http://www.w3.org/2000/svg">
<path fill-rule="evenodd" clip-rule="evenodd" d="M170.435 249.214C199.407 249.214 224.831 227.663 210.553 198.392C196.274 169.121 249.327 170.066 264.912 149.835C283.917 125.164 278.413 20.4356 156.405 84.283C136.861 94.5106 86.6668 73.761 70.0172 84.0566C50.4188 96.1754 22.8454 120.991 50.4188 146.411C64.0012 158.932 15.3058 191.431 36.6334 220.543C57.4436 248.948 72.0316 221.869 103.715 227.663C135.398 233.457 148.918 249.214 170.435 249.214Z" fill="#E7D1EE"/>
<path d="M136.808 198.29C136.808 198.29 143.478 195.152 145.968 192.969C148.459 190.786 151.555 185.362 151.555 185.362C151.555 185.362 185.564 209.923 207.74 206.42C212.849 205.612 222.804 202.216 223.439 196.232C225.173 179.893 201.187 175.718 206.427 167.432C209.625 162.374 219.56 169.901 219.56 169.901L260.767 190.17C260.767 190.17 246.531 225.262 211.984 226.668C169.486 228.398 136.808 198.29 136.808 198.29Z" fill="white"/>
<path fill-rule="evenodd" clip-rule="evenodd" d="M104.138 60.8625C103.751 60.7105 101.674 58.1673 99.0371 57.7045C97.8391 57.4941 98.9263 59.0197 97.6079 59.0337C93.6803 59.0745 87.2975 58.3365 86.1151 59.0337C85.2363 59.5501 87.1715 61.3537 86.1151 61.4365C76.1463 62.2181 60.9383 72.1713 57.6391 77.0001C56.5887 78.5369 65.0815 75.9297 63.7283 76.6893C62.2095 77.5421 60.5251 83.1257 59.5183 87.4377C58.8211 90.4073 58.3819 94.2289 58.2271 98.3865C58.0979 101.976 58.1495 102.57 58.6663 104.532C59.2599 106.727 59.7247 107.372 60.5251 107.062C60.8095 106.959 60.9383 106.572 60.9383 105.849C60.9383 105.281 61.2483 103.576 61.6355 102.053L62.3071 99.3161L62.5911 100.452C62.9527 101.769 65.0699 105.849 66.9807 108.818C67.0839 108.976 67.5271 108.776 67.9271 107.809C68.2915 106.928 68.1435 105.522 68.7627 104.014C70.1723 100.579 72.9407 96.1133 76.1463 92.5385C80.8839 87.2557 82.4555 81.1413 86.8967 76.2333C95.1843 67.0741 105.585 61.4309 104.138 60.8625Z" fill="white"/>
<path fill-rule="evenodd" clip-rule="evenodd" d="M63.8456 77.9354C62.516 79.0046 60.5428 87.6758 60.5088 87.8206C59.8116 90.7902 59.1396 101.102 59.8264 103.055C60.5136 105.007 62.4372 97.9694 62.4372 97.9694C62.4372 97.9694 65.3444 105.519 67.9136 107.589C68.0232 107.677 64.86 98.2482 63.8456 92.7438C62.5064 85.4778 64.602 77.327 63.8456 77.9354Z" fill="#EAEAEA"/>
<path fill-rule="evenodd" clip-rule="evenodd" d="M113.399 229.8C115.878 229.258 120.06 227.37 121.662 226.724C123.263 226.078 128.143 219.188 129.899 211.415C131.164 205.682 131.81 197.523 131.087 196.154C130.98 195.96 130.589 192.25 131.629 193.461C133.94 196.154 136.684 200.382 145.34 192.806C147.698 190.742 150.823 188.08 150 185.725C147.698 179.138 137.718 165.874 136.197 164.869C134.378 163.668 125.184 164.689 111.501 160.65C95.9837 156.07 89.5221 142.584 83.4497 144.339C78.5389 145.759 66.7729 154.484 63.8201 160.009C49.8797 186.094 66.7729 204.371 70.6205 209.621L74.3557 211.234L74.4849 214.565L74.6657 216.657C75.0013 220.659 75.1305 221.021 76.9381 222.364C81.4569 225.798 90.3653 229 98.4221 230.136C102.166 230.652 110.3 230.472 113.399 229.8Z" fill="white"/>
<path fill-rule="evenodd" clip-rule="evenodd" d="M75.824 213.346L76.0048 215.437C76.3408 219.44 76.4696 219.801 78.2772 221.144C80.9432 223.17 85.1368 225.115 89.7816 226.603C93.0104 227.637 96.4576 228.451 99.7612 228.916C103.506 229.433 111.639 229.252 114.738 228.581C116.27 228.249 103.671 218.351 96.2492 221.144C90.5496 223.289 77.116 206.929 82.578 202.655C88.7052 197.86 77.4776 178.95 77.116 174.844C76.7544 170.739 75.3308 169.758 75.2892 169.902C75.2476 170.046 75.2476 170.537 75.3592 171.721C75.8412 176.822 75.824 213.346 75.824 213.346Z" fill="#EAEAEA"/>
<path fill-rule="evenodd" clip-rule="evenodd" d="M74.4792 173.673C75.0212 173.567 75.546 173.921 75.6516 174.464C77.6004 184.476 85.844 191.254 100.584 194.799C115.413 198.365 125.513 198.172 130.835 194.366C131.284 194.045 130.949 196.796 130.62 197.007C127.149 199.233 115.348 202.554 101.265 199.553C83.258 195.715 74.8032 180.573 73.6884 174.846C73.5832 174.304 73.9368 173.779 74.4792 173.673Z" fill="#DEAAEF"/>
<path fill-rule="evenodd" clip-rule="evenodd" d="M66.9705 155.608C67.4497 155.334 85.3345 175.831 109.878 180.471C134.422 185.111 140.365 182.16 141.32 175.831C141.402 175.285 141.912 174.909 142.458 174.992C143.004 175.074 143.38 175.584 143.298 176.13C142.087 184.151 130.73 186.058 109.542 182.443C88.6201 178.872 74.2757 170.39 66.5989 156.973C66.3249 156.494 66.4909 155.883 66.9705 155.608Z" fill="#DEAAEF"/>
<path fill-rule="evenodd" clip-rule="evenodd" d="M169.985 154.472C169.314 154.239 168.591 153.723 168.126 153.129L167.351 152.173L170.088 149.462C174.298 145.33 177.525 141.096 180.314 136.06C181.244 134.382 183.593 128.778 183.593 128.236C183.593 128.056 183.878 127.332 184.213 126.584C184.73 125.499 185.117 125.086 186.227 124.466C187.544 123.692 189.042 123.434 189.687 123.872C190.927 124.699 190.927 127.307 189.687 131.8C188.319 136.732 186.486 140.269 182.69 145.356C182.096 146.131 180.985 147.654 180.185 148.713C178.042 151.554 176.647 152.922 174.762 153.981C172.903 155.014 171.818 155.143 169.985 154.472ZM188.525 152.148L190.384 152.974C190.77 153.152 195.023 155.195 200.132 157.65C208.368 161.608 218.828 166.634 218.892 166.634C218.996 166.634 219.48 165.513 219.589 164.206C219.848 161.392 220.803 157.57 221.913 154.91C222.43 153.723 222.843 152.238 222.843 152.109C222.843 152.05 222.423 151.881 221.736 151.604C220.918 151.274 219.721 150.791 218.402 150.159C211.894 147.035 199.164 140.657 197.589 139.701C196.04 138.798 195.73 138.72 195.73 139.314C195.73 140.089 194.155 143.678 192.941 145.614C192.296 146.673 191.03 148.584 190.126 149.849L188.525 152.148ZM218.453 161.986C219.194 162.415 217.911 163.044 217.601 163.148C215.776 163.303 213.628 162.96 211.868 161.934C210.948 161.282 203.702 157.256 198.896 154.586C196.699 153.365 195.011 152.428 194.671 152.225C193.586 151.58 192.554 150.882 192.373 150.676C191.831 149.978 192.347 149.669 193.87 149.798C194.786 149.875 216.854 161.059 218.453 161.986ZM113.486 229.588C115.478 229.152 118.57 227.847 120.539 227.016C121.021 226.813 121.435 226.638 121.75 226.512C123.351 225.866 128.231 218.975 129.987 211.202C131.252 205.47 131.898 197.31 131.175 195.942C130.739 195.149 133.328 197.808 135.257 199.788C135.842 200.388 136.366 200.926 136.726 201.287C147.985 212.468 164.743 221.454 182.147 225.663C190.824 227.78 196.995 228.529 205.284 228.529C219.202 228.529 230.176 225.792 240.144 219.776C240.617 219.49 241.061 219.227 241.484 218.977C244.958 216.92 247.028 215.694 252.693 209.318C259.048 202.165 264.7 185.561 266.586 179.829C267.412 177.246 269.426 166.976 269.426 164.413C269.426 161.379 268.367 159.946 266.921 158.474C264.365 155.969 260.904 155.066 258.038 156.15L256.696 156.666L256.282 155.298C255.688 153.232 254.449 151.58 252.538 150.34C249.698 148.455 249.285 148.326 246.728 148.326C244.74 148.326 244.198 148.429 242.932 149.023L241.46 149.694L241.151 148.765C240.557 146.854 238.565 144.19 237.019 143.42C235.648 142.736 233.276 142.674 231.622 142.981C228.007 143.652 225.425 145.33 224.366 147.68C224.056 148.403 223.669 148.972 223.514 148.972C223.385 148.972 218.298 147.551 212.23 144.865C211.206 144.411 210.245 143.984 209.342 143.584C198.445 138.754 196.083 137.708 196.298 136.396C196.478 135.286 196.427 134.666 196.117 133.71C195.575 132.11 194.955 131.671 193.199 131.671C191.805 131.671 191.805 131.671 191.96 130.974C192.786 127.023 192.76 124.75 191.882 123.304C191.288 122.349 190.591 121.962 188.99 121.729C188.06 121.6 187.622 121.678 186.589 122.246C185.892 122.607 185.298 122.865 185.246 122.814C185.194 122.762 185.375 121.342 185.659 119.663C187.776 107.243 186.141 96.5415 180.744 85.1799C180.692 85.0711 180.632 84.9427 180.564 84.7955C178.923 81.2731 172.326 67.1095 153.459 59.9627C152.605 59.6391 151.797 59.3263 151.02 59.0259C144.594 56.5383 140.321 54.8843 130.013 54.9015C118.458 54.9207 114.545 56.5543 106.928 60.0403C105.869 60.5307 104.94 60.8147 104.862 60.7115C104.784 60.5823 104.294 60.2727 103.803 60.0143C103.313 59.7563 102.254 59.1107 101.479 58.5943C99.2584 57.0963 97.89 56.4767 97.1928 56.6315C96.3924 56.8383 96.3924 57.5095 97.1928 57.8195C97.5284 57.9487 97.916 58.3875 98.0708 58.8267C98.4064 59.7563 98.7936 59.8595 99.026 59.0847C99.1296 58.8007 99.2844 58.5943 99.362 58.6459C99.3912 58.6603 99.4896 58.7067 99.6396 58.7767C100.017 58.9535 100.722 59.2835 101.479 59.6527C102.538 60.1691 103.7 60.7115 104.01 60.8407C104.578 61.0471 104.397 61.2023 101.944 62.6483C92.364 68.2775 84.566 77.0311 80.202 86.9983C79.5304 88.4959 78.9368 89.4255 78.3168 89.9423C76.7416 91.2591 73.6432 95.0031 72.92 96.4751C72.5328 97.2755 71.7064 98.5151 71.0608 99.2379C70.4412 99.9611 69.7696 100.891 69.5372 101.278C69.3308 101.691 69.1244 101.975 69.0468 101.924C68.9952 101.846 69.0724 100.581 69.2532 99.1091C69.6408 95.6747 69.6408 94.7707 69.3308 94.6935C68.866 94.5643 68.1948 96.3719 67.9104 98.6183C67.704 99.9867 67.6524 102.053 67.7816 104.17L67.9364 107.527L66.1032 104.558C65.4728 103.564 64.852 102.572 64.4108 101.866V101.866H64.4104V101.866L64.4096 101.864L64.4088 101.863V101.863L64.4084 101.862L64.4076 101.861C64.128 101.414 63.9208 101.083 63.8308 100.942C63.1592 99.9611 62.772 98.4891 63.056 97.9987C63.2108 97.7147 63.1852 97.5855 62.9268 97.5855C62.3848 97.5855 61.326 99.3155 60.6288 101.304C60.2932 102.234 59.9572 103.008 59.854 103.008C59.4668 103.008 59.6476 93.7639 60.0608 90.7943C60.9128 84.9327 63.1592 77.7023 64.1664 77.7023C64.3728 77.7023 64.5536 77.5991 64.5536 77.4443C64.5536 76.9795 63.8824 77.1603 63.34 77.7543C62.1264 79.0711 60.5256 83.1251 59.5184 87.4375C58.8212 90.4071 58.3824 94.2287 58.2272 98.3859C58.0984 101.975 58.15 102.569 58.6664 104.532C59.2604 106.726 59.7252 107.372 60.5256 107.062C60.8096 106.959 60.9388 106.572 60.9388 105.848C60.9388 105.28 61.2484 103.576 61.636 102.053L62.3072 99.3155L62.5912 100.452C62.9528 101.769 65.07 105.849 66.9808 108.818C68.298 110.832 68.3236 110.961 68.7628 114.112C68.9952 115.893 69.718 120.227 71.3964 126.894C72.8796 132.784 81.2164 138.627 83.2984 140.086L83.2996 140.087C83.5732 140.278 83.7384 140.394 83.7652 140.424C84.0236 140.708 84.3852 140.863 84.5916 140.786C84.824 140.708 84.9532 140.812 84.9532 141.096C84.9532 141.354 85.134 141.69 85.3404 141.844C85.5988 142.025 85.7796 142.722 85.8312 143.936C85.9604 146.363 87.7676 151.011 89.162 152.535C90.066 153.516 91.9508 153.929 94.0424 153.568C95.4112 153.361 95.7984 153.206 95.6692 152.896C95.592 152.69 96.0824 152.948 96.754 153.464C104.604 159.455 112.557 163.044 121.491 164.594C124.952 165.188 130.684 165.523 133.808 165.291C136.572 165.11 136.572 165.11 136.442 165.652C136.262 166.376 136.494 166.814 140.29 173.244C143.311 178.331 143.569 178.667 146.926 182.101C154.053 189.46 161.825 195.167 170.631 199.583C178.92 203.714 192.153 207.148 204.251 208.233C216.349 209.318 225.038 198.214 225.012 195.374C224.96 191.474 224.418 188.918 223.101 186.439C221.81 184.038 220.958 183.212 217.084 180.629C212.772 177.763 210.113 175.413 208.357 172.908C207.246 171.333 206.833 169.552 206.833 168.596C206.833 167.976 207.634 166.582 208.822 166.298C209.906 166.014 210.113 166.04 211.326 166.634C212.049 166.969 213.934 167.847 215.484 168.596C217.059 169.319 218.582 170.042 218.892 170.197C219.806 170.451 220.192 172.239 220.401 173.208C220.448 173.425 220.486 173.6 220.519 173.709C220.88 175.052 222.591 176.786 223.695 177.376C225.633 178.412 230.409 178.551 231.726 177.131C232.062 176.769 233.175 176.324 233.404 176.459C233.634 176.594 234.463 177.711 234.463 178.615C234.489 180.164 235.289 181.585 236.993 183.005C240.221 185.69 242.726 186.336 245.256 185.148C246.573 184.528 247.653 184.286 247.653 184.286C247.653 184.286 248.729 185.66 248.794 186.129C249.301 189.798 254.733 191.336 256.179 191.491C256.51 191.524 257.156 191.382 257.81 191.238C258.686 191.046 259.58 190.849 259.768 191.061C260.137 191.478 253.597 202.294 252.693 203.662C244.094 216.574 227.362 224.475 206.885 225.302C193.586 225.844 177.241 222.125 163.065 215.36C154.001 210.996 145.971 205.651 137.372 198.162C135.874 196.871 134.144 195.4 133.524 194.883C132.905 194.392 131.433 192.714 130.297 191.165C128.386 188.582 127.301 187.653 127.301 188.531C127.301 188.918 128.541 191.294 129.961 193.644C130.529 194.573 130.89 195.219 130.762 195.116C130.632 195.012 130.219 196.871 129.832 199.247C128.566 206.864 126.475 214.379 124.358 219.052C123.196 221.583 120.968 223.473 120.296 223.989C117.817 225.874 114.106 226.722 108.968 227.238C102.46 227.883 92.8804 226.438 85.5728 223.7C83.6364 222.978 78.6524 220.886 78.3168 220.654C78.2968 220.633 78.1824 219.89 78.0228 218.854C77.9776 218.561 77.9292 218.246 77.878 217.916C76.9484 211.538 75.6572 186.982 75.6572 175.62C75.6572 170.92 75.6056 169.887 75.2956 169.887C74.65 169.887 74.392 170.507 74.108 172.728C73.4624 177.789 73.5916 204.205 74.2888 209.756L74.4436 211.022L73.5656 210.531C72.2228 209.756 67.11 204.566 65.3284 202.165C63.82 200.112 62.9236 197.482 62.2528 195.515C62.0968 195.058 61.9532 194.636 61.8164 194.266C58.0724 183.885 59.3892 172.237 64.5536 161.753C68.9436 152.819 74.3404 147.861 82.242 145.46C83.5328 145.072 84.6692 144.659 84.7984 144.556C85.2888 144.091 82.1384 144.324 80.4084 144.866C74.7792 146.596 68.892 151.321 64.8896 157.364C59.2604 165.833 56.7296 178.331 58.5112 188.996C58.9244 191.526 60.6028 197 61.0676 197.388C61.1088 197.429 61.3212 197.874 61.6424 198.548C62.5308 200.412 64.2508 204.02 65.4832 205.651C66.9808 207.691 71.5 212.132 73.3848 213.501L74.5728 214.353L74.7536 216.444C75.0892 220.447 75.2184 220.808 77.0256 222.151C81.5448 225.586 90.4532 228.787 98.5096 229.924C102.254 230.44 110.388 230.259 113.486 229.588ZM200.765 205.341C185.762 204.024 167.635 196.871 154.518 185.819C148.992 181.145 141.813 172.056 138.973 167.021C138.379 165.988 137.94 165.498 137.424 165.368C136.881 165.214 137.346 165.058 139.567 164.697C148.94 163.096 158.055 159.197 165.415 153.645L166.499 152.845L166.809 153.594C167.506 155.272 170.192 156.976 172.18 156.976C172.98 156.976 175.666 155.763 177.293 154.652L178.403 153.904L179.307 154.807C180.133 155.634 180.288 155.685 181.838 155.685C183.619 155.685 185.762 154.885 186.95 153.748L187.596 153.154L189.429 154.368C190.41 155.066 193.148 156.589 195.497 157.802C199.009 159.61 202.728 161.702 206.265 163.871L206.833 164.232L206.291 164.955C205.723 165.73 204.665 167.202 204.665 169.448C204.665 171.979 207.296 176.526 212.333 179.648C216.291 182.101 223.101 186.926 222.843 193.979C222.812 194.831 221.862 196.949 220.596 198.86C219.77 200.073 217.472 201.881 215.38 202.94C211.817 204.721 205.542 205.754 200.765 205.341ZM63.082 89.4255C63.7792 89.5807 64.244 89.8131 64.1404 89.9163C63.8048 90.2519 62.0232 90.0971 61.61 89.6839C60.9644 89.0643 61.1192 88.6251 62.0232 88.4443C62.488 88.3671 63.1852 87.9795 63.5724 87.5923C63.96 87.2051 64.2956 87.0243 64.2956 87.1535C64.2956 87.4891 63.0044 88.6767 62.3588 88.9351C61.9456 89.1159 62.0748 89.1931 63.082 89.4255ZM73.3592 89.8387C74.108 89.4255 73.9528 89.1415 73.0752 89.2707C72.1972 89.3999 72.1456 89.2967 72.7136 88.4187C72.946 88.0831 73.0752 87.5923 73.0232 87.3339C72.946 86.9983 72.7652 87.1535 72.352 87.9795C72.042 88.5735 71.6032 89.0643 71.3964 89.0643C70.7512 89.0643 70.6992 89.5807 71.3192 89.8131C72.1196 90.1487 72.7392 90.1487 73.3592 89.8387ZM64.4248 75.7399C63.8048 75.8431 61.8684 76.6179 60.164 77.4699C58.434 78.2963 56.962 78.9935 56.8588 78.9679C54.2248 78.6839 57.8916 74.2939 64.5536 69.8011C70.9316 65.4887 75.244 63.2163 79.2464 62.0543C81.7512 61.3311 84.566 61.2279 85.3664 61.8219C85.8052 62.1575 85.6504 62.1835 83.7396 62.2091C79.608 62.2091 74.8308 64.3267 67.0584 69.5167C63.0304 72.2023 58.3564 76.0499 58.3564 76.6695C58.3564 76.7987 59.1052 76.5403 60.0348 76.1275C62.0232 75.2235 64.0632 74.7587 64.9668 74.9655C65.9224 75.2235 65.7156 75.5591 64.4248 75.7399ZM74.4176 77.9607C76.8452 77.4699 76.9484 77.4443 76.9484 77.1859C76.9484 77.0571 76.0188 76.9279 74.8568 76.8763L72.7652 76.7987L74.7016 74.6039C75.7604 73.3903 77 72.1767 77.4388 71.8927C78.3944 71.2727 78.446 70.8339 77.6712 70.5755L77.0776 70.3947L77.7228 70.1623C78.0844 70.0335 78.756 69.9815 79.2208 70.0591C79.918 70.1623 80.0728 70.1107 79.9952 69.7491C79.918 69.3879 79.634 69.3103 78.3684 69.3363C74.676 69.3879 73.1008 70.3691 75.9928 70.8339C76.7932 70.9631 77.4648 71.1695 77.4648 71.2987C77.4648 71.4019 77.3356 71.5051 77.1808 71.5051C76.69 71.5051 72.5328 75.7143 72.0164 76.7471C71.216 78.2707 71.6548 78.5031 74.4176 77.9607ZM91.4604 67.9419C90.7116 67.9935 90.5308 68.1223 90.5824 68.4839L90.5904 68.5367C90.6192 68.7275 90.636 68.8375 90.5932 68.8707C90.5352 68.9155 90.3692 68.8215 89.9788 68.5999L89.9108 68.5615C89.4204 68.3031 89.3688 68.1743 89.6528 67.9675C89.8336 67.8127 90.324 67.5803 90.7116 67.5027L91.4344 67.3219L90.8924 66.7539C90.608 66.4183 90.4532 66.1083 90.5308 66.0051C90.7372 65.7987 93.268 66.0827 93.6292 66.3667C93.7844 66.4955 94.0168 66.4699 94.1716 66.3151C94.5332 65.9535 95.0236 66.2375 95.0236 66.8055C95.0236 67.1155 94.9464 67.1411 94.714 66.9087C94.5072 66.7023 94.3264 66.7023 94.094 66.8831C93.8876 67.0639 93.7328 67.0639 93.6036 66.8571C93.526 66.7279 93.0356 66.5991 92.5192 66.5991C92.0424 66.5991 91.8172 66.5991 91.7712 66.6899C91.73 66.7711 91.8332 66.9255 92.0284 67.2187C92.4404 67.8623 92.416 67.8643 91.4692 67.9411L91.4604 67.9419ZM87.5352 61.0731C87.5352 60.7375 87.2256 60.1435 86.838 59.7563L86.1152 59.0331L89.9884 59.1879C92.1316 59.2915 94.5588 59.5239 95.4112 59.7563C96.2632 59.9627 97.2444 60.1175 97.606 60.1175C98.1484 60.1175 98.0448 60.0143 97.038 59.4719C95.282 58.5683 93.0356 58.1295 88.7232 57.8195C83.5588 57.4579 80.9508 57.9487 81.4412 59.2395C81.5188 59.4979 81.932 59.6271 82.5516 59.6271C83.8168 59.6271 85.8828 60.3759 86.58 61.0731C87.3288 61.8219 87.5352 61.8219 87.5352 61.0731ZM74.934 129.45C77.0256 132.136 79.7888 135.182 81.08 136.215C81.8544 136.835 82.526 137.352 82.5776 137.352C82.6032 137.352 82.0352 136.164 81.3124 134.718C78.3944 128.908 76.69 123.124 75.8896 116.462C75.7088 114.99 75.4248 113.75 75.1148 113.234C74.4952 112.201 74.4952 110.858 75.1408 109.593C75.4764 108.922 75.6572 108.069 75.6572 107.14V105.72L74.4176 107.01C73.204 108.276 72.042 108.792 72.042 108.018C72.042 107.45 73.9528 104.712 74.96 103.86C75.7604 103.189 75.8636 102.956 76.122 100.942C76.3028 99.7287 76.716 97.5855 77.0516 96.1651C77.4132 94.7451 77.6196 93.5315 77.568 93.4799C77.3872 93.2991 71.3192 100.268 70.4928 102.492C70.3112 102.98 69.8216 103.834 69.434 104.351L68.7628 105.213C68.7628 105.213 68.9712 106.42 69.2016 107.937C69.4344 109.47 69.5436 110.523 69.6412 111.462C69.7712 112.717 69.88 113.766 70.2344 115.48C70.6476 117.598 71.0608 119.431 71.164 119.56C71.2416 119.715 71.5772 120.903 71.9132 122.22C72.636 125.138 73.8496 128.03 74.934 129.45ZM179.72 153.878L179.178 153.335C179.178 153.335 188.178 141.9 189.791 137.687C191.021 134.472 191.746 133.56 192.723 133.56C193.27 133.56 193.716 133.685 193.922 133.995C194.284 134.537 194.632 135.208 194.167 137.506C193.393 141.225 192.205 143.678 188.641 148.972C187.815 150.185 186.756 151.528 186.292 151.993C185.207 153 182.767 154.032 181.347 154.265C180.443 154.394 180.185 154.342 179.72 153.878Z" fill="#363939"/>
<path d="M251.222 179.138C254.434 170.385 253.948 168.52 253.391 168.338C253.391 168.338 252.164 169.035 251.622 170.507C250.614 173.27 247.168 180.5 245.876 181.791C244.353 183.315 244.353 183.315 242.804 183.315C241.254 183.315 236.786 180.981 236.178 178.681C235.204 175.001 239.395 162.218 239.498 161.495L238.801 161.004C238.336 161.443 232.29 179.777 224.341 175C223.43 174.453 221.5 171.875 221.346 170.507C220.485 166.53 224.433 152.625 225.104 149.769C225.705 147.212 228.834 144.84 232.681 144.84C238.594 144.84 237.8 150.009 240.449 151.83C241.623 152.637 243.552 151.174 244.146 151.063C247.477 150.443 248.754 151.165 251.196 153.103C253.081 154.599 254.476 157.559 256.01 158.603C256.863 159.182 257.768 158.39 258.064 158.241C259.279 157.631 261.886 158.086 262.609 158.603C263.669 159.065 266.266 161.562 266.677 163.014C268.536 169.595 262.664 184.187 260.447 186.924C256.777 191.455 248.009 187.891 251.222 179.138Z" fill="white"/>
<path fill-rule="evenodd" clip-rule="evenodd" d="M102.771 155.155C109.847 159.622 117.142 162.539 125.457 163.34C132.015 163.96 140.859 163.108 147.211 161.042C152.556 159.312 159.786 154.519 164.615 150.465C173.989 142.615 179.902 130.353 182.484 117.339C182.845 115.506 183.397 110.897 183.371 106.327C183.371 101.007 181.03 86.4714 173.937 78.0898C159.307 60.8026 135.259 53.0154 115.049 59.6694C107.759 62.0694 99.9962 66.4182 94.1346 72.099C86.7494 79.3034 81.301 89.1158 79.1318 99.1346C76.8594 109.722 79.8155 122.375 84.9539 132.755C89.0599 141.018 95.8251 150.739 102.771 155.155ZM171.716 123.95C166.861 138.539 154.209 149.436 138.302 152.741C135.875 153.232 134.197 153.413 130.788 153.464C128.387 153.542 125.985 153.516 125.495 153.464C114.365 152.121 105.896 148.016 98.0974 140.217C94.689 136.783 93.2431 134.924 91.1255 131.257C87.7947 125.447 86.0126 119.508 85.4706 112.355C83.6114 87.8506 101.145 67.4254 125.83 65.3078C135.513 64.4814 146.255 67.451 154.415 73.235C157.437 75.3782 162.911 80.801 164.615 83.3314C165.312 84.3386 172.077 94.2286 173.265 99.9094C174.789 107.295 174.195 116.539 171.716 123.95Z" fill="white"/>
<path fill-rule="evenodd" clip-rule="evenodd" d="M183.38 106.327C183.38 123.659 175.181 142.608 164.6 150.7C159.552 154.561 152.955 159.236 147.21 161.042C138.791 163.689 125.456 163.34 125.456 163.34C125.456 163.34 139.061 161.521 144.102 159.493C158.56 153.674 166.452 144.743 171.325 136.174C180.944 119.258 183.38 105.906 183.38 106.327Z" fill="#EAEAEA"/>
<path fill-rule="evenodd" clip-rule="evenodd" d="M125.752 150.366C118.857 149.488 112.014 147.035 106.489 143.394C103.209 141.251 98.2512 136.215 95.85 132.626C92.4156 127.462 90.1432 121.936 89.0328 115.997C88.2324 111.684 88.2584 105.048 89.0588 101.201C89.8852 97.2758 90.9436 94.2802 92.8288 90.4846C95.0236 86.0946 97.3476 82.867 100.834 79.381C106.773 73.4418 113.667 69.6718 121.878 67.8642C124.538 67.2962 134.17 66.8314 134.506 67.2706C134.583 67.3994 135.1 67.7354 135.642 68.0194C136.184 68.329 137.63 69.4138 138.818 70.4722C140.6 72.0218 141.4 73.003 142.949 75.4302C144.008 77.083 144.86 78.5806 144.86 78.7098C144.86 78.9938 145.686 79.5102 146.151 79.5102C146.797 79.5102 147.236 77.5734 147.365 74.165C147.442 72.2798 147.597 70.7306 147.701 70.7306C148.062 70.7306 152.039 72.9254 153.898 74.165C157.539 76.5922 161.18 80.0006 163.865 83.5642C165.079 85.165 165.26 85.5782 165.26 86.5594C165.26 87.4634 165.518 88.1606 166.318 89.555C168.332 93.0666 169.908 97.4822 170.863 102.363C171.483 105.642 171.483 111.839 170.837 115.274C169.081 124.725 163.865 134.124 157.074 140.089C151.316 145.124 145.196 148.223 137.966 149.746C135.487 150.288 128.05 150.65 125.752 150.366ZM107.289 132.703C107.522 132.445 107.676 132.058 107.599 131.877C107.576 131.823 107.252 131.671 106.779 131.449C105.676 130.93 103.758 130.028 102.927 129.089C99.6216 125.319 98.4076 122.504 97.6588 116.694C96.936 111.039 97.5432 107.216 98.8468 101.071C99.4824 98.0742 101.172 95.5982 102.224 94.0582C102.939 93.0106 103.359 92.3958 102.951 92.3438C101.944 92.1886 101.789 92.2662 100.73 93.2734C98.458 95.4422 97.4252 97.1722 96.3404 100.503C94.662 105.719 94.3376 119.816 97.6588 126.171C100.98 132.525 106.695 133.375 107.289 132.703ZM144.008 111.013C143.57 115.024 141.71 120.825 139.541 123.356C138.534 124.544 134.837 126.584 131.717 126.171C128.703 125.771 126.346 124.363 124.332 121.342C122.602 118.734 121.708 115.568 121.104 111.581C120.061 104.696 124.616 96.6818 126.578 94.6934C128.566 92.6534 129.987 91.9306 131.794 91.9046C133.55 91.9046 134.686 92.2922 136.468 93.5574C139.722 95.8298 144.86 103.218 144.008 111.013ZM109.2 89.6582C109.716 89.0642 109.794 88.7802 109.639 87.6698C109.536 86.637 109.329 86.2238 108.787 85.785C107.831 85.0102 106.644 85.0102 105.766 85.8366C105.146 86.4306 105.068 86.637 105.146 88.057C105.223 89.5806 105.275 89.6838 106.127 90.1486C107.263 90.7686 108.374 90.5878 109.2 89.6582ZM125.313 73.7258C120.665 77.057 118.651 78.4254 116.559 79.7166C114.907 80.7494 114.39 80.7754 114.39 79.8458C114.39 79.355 114.752 78.813 115.681 77.9606L116.972 76.773L114.468 76.4374C111.653 76.0758 108.916 75.301 108.322 74.707C107.341 73.7002 108.193 73.4678 110.982 73.9842C112.221 74.1906 114.622 74.449 116.327 74.5006L119.426 74.6298L121.672 73.003C126.604 69.4394 131.717 67.4254 134.17 68.045C135.693 68.4066 135.513 68.8198 133.782 69.0262C131.794 69.2586 130.58 69.9302 125.313 73.7258Z" fill="white"/>
<path d="M131.95 122.633C131.95 122.504 132.105 122.375 132.312 122.375C132.518 122.375 132.777 122.504 132.854 122.633C132.931 122.788 132.777 122.891 132.493 122.891C132.183 122.891 131.95 122.788 131.95 122.633Z" fill="white"/>
<path d="M133.498 122.4C133.498 122.116 134.144 121.858 134.867 121.858C135.435 121.884 135.435 121.884 134.944 122.246C134.376 122.684 133.498 122.762 133.498 122.4Z" fill="white"/>
<path d="M129.496 121.729C129.418 121.523 129.315 121.161 129.238 120.955C129.16 120.697 129.289 120.567 129.625 120.567C129.909 120.567 130.141 120.722 130.141 120.929C130.141 121.135 130.219 121.471 130.296 121.703C130.4 121.988 130.322 122.117 130.038 122.117C129.806 122.117 129.547 121.936 129.496 121.729Z" fill="white"/>
<path d="M130.865 121.084C130.736 120.309 131.02 120.051 131.95 120.051C132.234 120.051 132.466 120.309 132.57 120.748C132.776 121.497 132.44 121.858 131.537 121.858C131.124 121.858 130.943 121.678 130.865 121.084Z" fill="white"/>
<path d="M128.231 121.213C127.74 120.825 127.74 120.825 128.282 120.825C128.618 120.825 128.851 120.98 128.851 121.213C128.851 121.678 128.851 121.678 128.231 121.213Z" fill="white"/>
<path d="M133.42 121.187C133.085 120.851 133.239 119.844 133.653 119.689C134.401 119.405 134.737 119.535 134.892 120.206C134.995 120.593 135.047 120.929 134.995 120.955C134.789 121.187 133.575 121.342 133.42 121.187Z" fill="white"/>
<path d="M135.719 120.644C135.642 120.567 135.564 120.231 135.564 119.921C135.564 119.483 135.771 119.302 136.391 119.173C136.933 119.069 137.269 119.121 137.424 119.327C137.682 119.741 137.682 120.257 137.45 120.386C136.985 120.644 135.9 120.799 135.719 120.644Z" fill="white"/>
<path d="M127.044 119.844C127.044 119.534 127.276 119.276 127.612 119.199C128.284 119.018 128.258 118.992 128.387 119.663C128.438 120.051 128.31 120.206 127.767 120.257C127.199 120.335 127.044 120.231 127.044 119.844Z" fill="white"/>
<path d="M129.005 119.87C128.644 119.483 128.876 118.76 129.367 118.76C129.702 118.76 129.883 118.941 129.883 119.251C129.883 119.741 129.289 120.154 129.005 119.87Z" fill="white"/>
<path d="M130.555 119.096C130.349 118.605 130.788 118.243 131.64 118.243C132.027 118.243 132.208 118.398 132.208 118.734C132.208 119.018 131.976 119.276 131.64 119.38C130.788 119.586 130.736 119.586 130.555 119.096Z" fill="white"/>
<path d="M138.018 119.018C138.095 118.889 138.224 118.76 138.302 118.76C138.38 118.76 138.354 118.889 138.276 119.018C138.199 119.173 138.07 119.277 137.992 119.277C137.915 119.277 137.94 119.173 138.018 119.018Z" fill="white"/>
<path d="M132.878 118.579C132.672 118.062 132.93 117.804 133.756 117.675C134.221 117.623 134.428 117.727 134.479 118.088C134.66 118.94 133.188 119.405 132.878 118.579Z" fill="white"/>
<path d="M126.682 118.14C126.45 117.288 126.501 117.21 127.173 117.21C127.534 117.21 127.818 117.314 127.818 117.442C127.818 117.572 127.896 117.856 127.973 118.062C128.05 118.32 127.896 118.476 127.457 118.553C126.966 118.656 126.785 118.553 126.682 118.14Z" fill="white"/>
<path d="M135.307 117.856C135.307 117.391 135.487 117.185 135.978 117.055C136.701 116.875 137.114 117.236 137.114 118.063C137.114 118.398 136.907 118.501 136.21 118.501C135.41 118.501 135.307 118.424 135.307 117.856Z" fill="white"/>
<path d="M125.907 117.856C125.829 117.65 125.881 117.469 126.01 117.469C126.165 117.469 126.268 117.65 126.268 117.856C126.268 118.063 126.216 118.244 126.165 118.244C126.113 118.244 126.01 118.063 125.907 117.856Z" fill="white"/>
<path d="M128.515 118.063C128.154 117.727 128.36 117.004 128.825 116.875C129.109 116.798 129.393 116.823 129.471 116.901C129.781 117.185 129.6 117.934 129.212 118.088C128.722 118.269 128.722 118.269 128.515 118.063Z" fill="white"/>
<path d="M137.734 117.882C137.45 117.133 137.76 116.565 138.484 116.488C139.026 116.41 139.181 116.513 139.181 116.927C139.181 117.779 138.896 118.243 138.38 118.243C138.096 118.243 137.812 118.088 137.734 117.882Z" fill="white"/>
<path d="M130.322 117.546C130.012 117.262 130.115 116.746 130.555 116.591C131.045 116.41 132.078 116.927 131.794 117.211C131.433 117.521 130.503 117.753 130.322 117.546Z" fill="white"/>
<path d="M132.569 116.9C132.337 116.539 133.163 115.919 133.835 115.919C134.145 115.919 134.274 116.074 134.222 116.358C134.119 116.874 132.802 117.287 132.569 116.9Z" fill="white"/>
<path d="M125.494 116.72C125.494 116.591 125.417 116.307 125.339 116.074C125.262 115.842 125.288 115.661 125.442 115.661C125.778 115.661 126.036 116.642 125.726 116.849C125.597 116.927 125.494 116.875 125.494 116.72Z" fill="white"/>
<path d="M126.191 116.126C126.036 115.558 126.346 115.145 126.94 115.145C127.275 115.145 127.611 116.152 127.405 116.487C127.121 116.927 126.32 116.668 126.191 116.126Z" fill="white"/>
<path d="M127.998 116.255C127.611 115.868 127.843 114.938 128.36 114.809C128.747 114.706 128.954 114.834 129.16 115.299C129.315 115.635 129.392 115.971 129.341 116.022C129.082 116.255 128.153 116.436 127.998 116.255Z" fill="white"/>
<path d="M134.97 116.255C134.635 115.919 134.789 115.712 135.564 115.428C136.21 115.222 136.391 115.248 136.52 115.558C136.752 116.177 135.461 116.771 134.97 116.255Z" fill="white"/>
<path d="M137.243 115.661C136.985 115.248 137.346 114.887 138.017 114.887C138.818 114.887 139.051 115.558 138.327 115.765C137.553 115.971 137.424 115.946 137.243 115.661Z" fill="white"/>
<path d="M139.438 115.042C139.438 114.654 139.902 114.241 140.109 114.448C140.29 114.628 139.928 115.403 139.67 115.403C139.541 115.403 139.438 115.248 139.438 115.042Z" fill="white"/>
<path d="M125.159 114.705C125.056 114.628 124.978 114.292 125.004 114.008C125.004 113.518 125.03 113.518 125.262 114.086C125.52 114.705 125.469 115.015 125.159 114.705Z" fill="white"/>
<path d="M125.648 114.318C125.416 113.414 125.442 113.337 126.113 113.337C126.862 113.337 127.327 114.292 126.759 114.654C126.165 115.015 125.829 114.912 125.648 114.318Z" fill="white"/>
<path d="M134.531 114.834C134.531 114.757 134.66 114.344 134.815 113.879C135.177 112.846 135.977 112.794 136.158 113.801C136.236 114.188 136.261 114.524 136.236 114.55C136.106 114.705 134.531 114.937 134.531 114.834Z" fill="white"/>
<path d="M127.483 114.19C127.379 114.112 127.302 113.802 127.302 113.518C127.302 113.105 127.379 113.079 127.689 113.337C127.896 113.518 128.077 113.828 128.077 114.009C128.077 114.396 127.767 114.499 127.483 114.19Z" fill="white"/>
<path d="M136.777 113.673C136.622 112.872 136.958 112.511 137.758 112.614C138.146 112.666 138.275 112.898 138.275 113.466C138.275 114.112 138.172 114.267 137.603 114.318C137.035 114.396 136.906 114.267 136.777 113.673Z" fill="white"/>
<path d="M139.308 113.776C138.972 112.743 139.075 112.433 139.772 112.355C140.392 112.278 140.47 112.355 140.47 113.027C140.47 113.595 140.315 113.827 139.928 113.931C139.643 114.008 139.359 113.931 139.308 113.776Z" fill="white"/>
<path d="M124.771 112.304C124.771 111.813 124.822 111.607 124.9 111.865C124.951 112.097 124.951 112.51 124.9 112.769C124.822 113.001 124.771 112.794 124.771 112.304Z" fill="white"/>
<path d="M125.415 112.64C125.08 112.33 125.235 111.323 125.648 111.168C126.242 110.935 126.526 111.219 126.526 112.072C126.526 112.614 126.397 112.821 126.061 112.821C125.803 112.821 125.493 112.743 125.415 112.64Z" fill="white"/>
<path d="M126.965 111.942C126.862 111.555 126.81 111.142 126.914 111.064C127.172 110.806 127.327 111.219 127.249 111.968L127.172 112.691L126.965 111.942Z" fill="white"/>
<path d="M135.307 111.762C135.307 111.478 135.435 111.323 135.565 111.401C135.72 111.478 135.823 111.736 135.823 111.943C135.823 112.15 135.72 112.304 135.565 112.304C135.435 112.304 135.307 112.072 135.307 111.762Z" fill="white"/>
<path d="M136.468 112.098C136.106 111.711 136.39 111.014 136.984 110.858C137.733 110.678 137.759 110.678 137.991 111.426C138.146 111.891 138.043 111.995 137.371 112.098C136.958 112.175 136.545 112.149 136.468 112.098Z" fill="white"/>
<path d="M138.844 111.608C138.56 111.349 138.637 110.497 138.921 110.497C139.077 110.497 139.18 110.394 139.18 110.239C139.18 110.11 139.025 109.981 138.818 109.981C138.379 109.981 138.018 108.716 138.379 108.354C138.844 107.889 139.361 108.38 139.671 109.645C139.851 110.316 140.032 111.091 140.109 111.349C140.213 111.685 140.109 111.788 139.619 111.788C139.283 111.788 138.921 111.711 138.844 111.608Z" fill="white"/>
<path d="M140.238 110.238C140.058 109.463 139.593 107.914 139.257 106.778C138.741 105.125 138.689 104.712 138.973 104.531C139.154 104.402 139.386 104.299 139.464 104.299C139.748 104.299 140.781 109.592 140.677 110.625L140.6 111.658L140.238 110.238Z" fill="white"/>
<path d="M124.513 110.109C124.513 109.696 124.564 109.541 124.642 109.799C124.693 110.031 124.693 110.393 124.642 110.574C124.564 110.729 124.513 110.548 124.513 110.109Z" fill="white"/>
<path d="M125.028 110.058C125.132 109.154 125.881 108.947 126.087 109.774C126.268 110.445 126.32 110.368 125.545 110.626C125.003 110.781 124.951 110.729 125.028 110.058Z" fill="white"/>
<path d="M135.926 109.825C135.719 109.076 136.158 108.637 136.984 108.741C137.604 108.818 137.836 109.928 137.32 110.264C136.674 110.677 136.081 110.497 135.926 109.825Z" fill="white"/>
<path d="M126.526 109.619C126.526 109.18 126.656 108.947 126.94 108.947C127.198 108.947 127.301 109.128 127.25 109.515C127.12 110.342 126.526 110.419 126.526 109.619Z" fill="white"/>
<path d="M124.229 108.534C124.229 108.25 124.306 108.173 124.384 108.379C124.461 108.56 124.435 108.793 124.358 108.87C124.28 108.973 124.203 108.818 124.229 108.534Z" fill="white"/>
<path d="M124.719 108.456C124.719 108.069 124.874 107.914 125.261 107.914C125.622 107.914 125.752 108.043 125.7 108.353C125.571 109.024 124.719 109.102 124.719 108.456Z" fill="white"/>
<path d="M126.14 108.225C125.959 107.76 125.959 107.76 126.734 107.553C127.198 107.398 127.302 107.476 127.302 107.863C127.302 108.483 126.372 108.793 126.14 108.225Z" fill="white"/>
<path d="M135.487 107.863C135.306 107.217 135.641 106.882 136.545 106.882C136.984 106.882 137.113 107.037 137.113 107.527C137.113 107.915 136.958 108.173 136.752 108.173C136.545 108.173 136.209 108.251 136.003 108.328C135.771 108.405 135.59 108.251 135.487 107.863Z" fill="white"/>
<path d="M137.733 107.269C137.526 106.752 137.836 106.365 138.43 106.365C138.792 106.365 138.921 106.546 138.921 107.011C138.921 107.476 138.792 107.656 138.404 107.656C138.12 107.656 137.81 107.476 137.733 107.269Z" fill="white"/>
<path d="M124.461 106.907C124.461 106.365 125.055 105.745 125.313 106.029C125.417 106.107 125.494 106.468 125.494 106.804C125.494 107.217 125.339 107.398 124.977 107.398C124.642 107.398 124.461 107.217 124.461 106.907Z" fill="white"/>
<path d="M125.881 106.597C125.674 105.952 125.907 105.668 126.785 105.539C127.585 105.435 127.844 106.288 127.146 106.804C126.475 107.295 126.062 107.217 125.881 106.597Z" fill="white"/>
<path d="M135.228 106.442C135.047 106.287 134.97 105.332 135.125 105.332C135.151 105.332 135.538 105.228 136.003 105.099C136.778 104.867 136.829 104.893 136.803 105.59C136.778 106.106 136.623 106.365 136.235 106.468C135.538 106.649 135.435 106.649 135.228 106.442Z" fill="white"/>
<path d="M134.273 105.848C134.273 105.668 134.351 105.59 134.454 105.668C134.531 105.771 134.531 105.926 134.454 106.029C134.351 106.106 134.273 106.029 134.273 105.848Z" fill="white"/>
<path d="M137.165 105.435C137.243 104.996 138.043 104.351 138.224 104.557C138.302 104.635 138.43 104.944 138.508 105.28C138.689 105.797 138.611 105.848 137.888 105.848C137.268 105.848 137.088 105.745 137.165 105.435Z" fill="white"/>
<path d="M124.719 105.409C124.719 105.28 124.848 105.022 124.977 104.815C125.184 104.506 125.235 104.531 125.235 105.022C125.235 105.332 125.132 105.59 124.977 105.59C124.848 105.59 124.719 105.513 124.719 105.409Z" fill="white"/>
<path d="M125.493 104.841C125.493 104.118 126.036 103.886 126.449 104.428C126.707 104.815 126.707 104.945 126.449 105.125C125.906 105.461 125.493 105.358 125.493 104.841Z" fill="white"/>
<path d="M133.344 104.506C132.879 103.989 132.879 103.964 133.318 104.118C133.576 104.222 133.912 104.299 134.041 104.299C134.17 104.299 134.274 104.48 134.274 104.686C134.274 105.229 133.912 105.177 133.344 104.506Z" fill="white"/>
<path d="M127.792 104.48C126.681 103.628 126.526 101.717 127.559 101.717C128.256 101.717 128.902 102.801 128.799 103.808C128.721 104.738 128.412 104.944 127.792 104.48Z" fill="white"/>
<path d="M134.868 104.635C134.971 104.558 135.126 104.558 135.229 104.635C135.307 104.739 135.229 104.816 135.048 104.816C134.868 104.816 134.79 104.739 134.868 104.635Z" fill="white"/>
<path d="M138.765 103.628C138.843 103.396 138.92 103.164 138.92 103.112C138.92 103.06 139.049 103.009 139.179 103.009C139.333 103.009 139.437 103.241 139.437 103.525C139.437 103.835 139.256 104.042 139.023 104.042C138.739 104.042 138.662 103.912 138.765 103.628Z" fill="white"/>
<path d="M125.236 103.551C125.236 102.957 125.779 101.976 126.088 101.976C126.631 101.976 126.243 103.628 125.675 103.732C125.443 103.783 125.236 103.706 125.236 103.551Z" fill="white"/>
<path d="M131.045 103.266L130.271 103.086L130.968 102.905C131.691 102.698 132.207 102.853 132.207 103.292C132.207 103.55 132.181 103.55 131.045 103.266Z" fill="white"/>
<path d="M130.142 102.027C130.142 100.968 130.736 100.813 131.278 101.743C131.64 102.362 131.665 102.491 131.33 102.491C131.123 102.491 130.787 102.569 130.555 102.646C130.245 102.775 130.142 102.621 130.142 102.027Z" fill="white"/>
<path d="M134.634 102.388C133.472 101.872 132.724 100.503 132.724 98.8765C132.724 97.7145 132.827 97.4305 133.524 96.7849C133.963 96.3717 134.402 96.0361 134.531 96.0361C135.099 96.0361 137.191 98.0245 137.888 99.2637L138.688 100.684L137.836 101.588C136.855 102.621 135.77 102.905 134.634 102.388Z" fill="white"/>
<path d="M129.238 101.717C129.16 101.588 129.212 101.459 129.341 101.459C129.496 101.459 129.625 101.588 129.625 101.717C129.625 101.872 129.573 101.976 129.522 101.976C129.444 101.976 129.315 101.872 129.238 101.717Z" fill="white"/>
<path d="M125.855 101.304C125.932 101.072 126.009 100.839 126.009 100.788C126.009 100.736 126.242 100.685 126.526 100.685C127.171 100.685 127.197 101.098 126.551 101.459C125.855 101.821 125.674 101.795 125.855 101.304Z" fill="white"/>
<path d="M127.895 100.994C127.301 100.916 127.12 100.581 127.508 100.348C127.611 100.271 128.076 100.142 128.54 100.038C129.238 99.8835 129.366 99.9351 129.366 100.374C129.366 100.916 128.824 101.149 127.895 100.994Z" fill="white"/>
<path d="M129.883 100.116C129.883 99.8059 129.909 99.6251 129.96 99.6767C129.986 99.7283 130.193 99.9863 130.374 100.245C130.683 100.606 130.658 100.684 130.296 100.684C130.038 100.684 129.883 100.477 129.883 100.116Z" fill="white"/>
<path d="M126.269 99.9357C126.269 99.7809 126.398 99.6001 126.527 99.5229C126.682 99.4453 126.785 99.5485 126.785 99.7553C126.785 99.9877 126.682 100.168 126.527 100.168C126.398 100.168 126.269 100.065 126.269 99.9357Z" fill="white"/>
<path d="M127.224 99.5482C127.018 99.0318 128.851 98.4638 129.161 98.9542C129.393 99.3674 129.161 99.5482 128.18 99.755C127.586 99.8838 127.327 99.8322 127.224 99.5482Z" fill="white"/>
<path d="M129.651 98.7218C129.651 98.4378 129.728 98.3602 129.805 98.567C129.883 98.7478 129.857 98.9802 129.78 99.0574C129.702 99.161 129.625 99.0058 129.651 98.7218Z" fill="white"/>
<path d="M127.456 98.3086C127.766 97.7402 128.67 96.8105 128.902 96.8105C129.16 96.8105 129.186 98.0242 128.928 98.1794C128.799 98.231 128.386 98.3601 127.998 98.4634C127.43 98.5926 127.301 98.5666 127.456 98.3086Z" fill="white"/>
<path d="M129.521 97.7145C129.237 96.9401 129.367 96.6041 129.986 96.5009C130.632 96.3717 130.632 96.3717 130.219 97.1725C129.702 98.2053 129.728 98.2053 129.521 97.7145Z" fill="white"/>
<path d="M129.367 96.1655C129.367 96.1135 129.884 95.7523 130.529 95.3907C131.304 94.9259 131.846 94.7711 132.234 94.8743C132.698 95.0291 132.569 95.1323 131.433 95.6747C130.168 96.2427 129.367 96.4495 129.367 96.1655Z" fill="white"/>
<path d="M143.698 73.2874C143.001 72.2802 141.529 70.6534 140.47 69.6722C139.411 68.691 138.714 67.8906 138.921 67.8906C139.489 67.8906 143.827 69.0782 144.912 69.543C145.816 69.9302 145.841 69.9822 145.609 70.7826C145.48 71.2474 145.376 72.4094 145.376 73.3646C145.376 74.3458 145.299 75.1206 145.196 75.1206C145.067 75.1206 144.421 74.2942 143.698 73.2874Z" fill="white"/>
<path d="M91.1516 151.502C90.0928 150.96 89.8604 150.65 88.5176 147.991C86.5812 144.221 86.5292 143.343 88.3628 145.486C89.0856 146.338 90.7644 148.094 92.0812 149.385C94.3276 151.554 94.4308 151.709 93.682 151.606C93.14 151.528 92.9332 151.58 93.0624 151.786C93.3724 152.251 92.3908 152.122 91.1516 151.502Z" fill="white"/>
<path fill-rule="evenodd" clip-rule="evenodd" d="M134.424 198.547C134.21 198.038 134.449 197.452 134.958 197.238L135.514 197.002C140.923 194.687 144.028 193.297 146.137 191.089C148.247 188.882 148.499 185.639 148.896 183.667C149.005 183.125 150.231 184.076 150.772 184.185C151.313 184.293 151.664 184.821 151.555 185.362C151.079 187.734 149.796 189.996 147.73 192.143C145.671 194.282 141.685 196.576 135.734 199.081C135.225 199.295 134.639 199.057 134.424 198.547Z" fill="#363939"/>
<path fill-rule="evenodd" clip-rule="evenodd" d="M158.885 95.518C159.36 95.2352 159.974 95.3912 160.256 95.8656C163.085 100.617 164.6 106.049 164.6 111.7C164.6 128.821 150.721 142.7 133.6 142.7C129.051 142.7 124.638 141.719 120.597 139.85C120.096 139.618 118.203 137.771 120.11 138.522C122.017 139.273 129.395 140.959 133.653 140.959C149.669 140.959 161 127.716 161 111.7C161 106.412 158.885 101.718 158.537 96.8888C158.497 96.3288 158.411 95.8004 158.885 95.518Z" fill="#363939"/>
<path fill-rule="evenodd" clip-rule="evenodd" d="M59.8468 171.202C60.2004 170.778 60.8308 169.921 61.2552 170.274C62.996 171.724 64.854 173.404 66.8412 173.728C68.9088 174.066 71.362 174.066 74.1972 173.722C74.7456 173.656 75.244 174.047 75.3104 174.595C75.3768 175.143 74.986 175.641 74.4376 175.708C71.4268 176.072 68.7884 176.072 66.5188 175.702C64.1688 175.319 61.9836 174.283 59.9752 172.611C59.5508 172.257 59.4936 171.627 59.8468 171.202Z" fill="#363939"/>
<path d="M81.0799 136.216C79.7887 135.183 77.0259 132.136 74.9343 129.45C73.8499 128.03 72.6363 125.138 71.9131 122.22C71.5775 120.903 71.2419 119.715 71.1643 119.56C71.0611 119.431 70.6479 117.598 70.2347 115.48C69.6151 112.485 69.7459 111.52 69.2019 107.937C68.9715 106.42 68.7627 105.213 68.7627 105.213L69.4343 104.351C69.8215 103.835 70.3115 102.98 70.4927 102.492C71.3191 100.268 77.3875 93.2992 77.5683 93.48C77.6199 93.5316 77.4131 94.7452 77.0515 96.1656C76.7159 97.5856 76.3027 99.7288 76.1219 100.942C75.8639 102.957 75.7607 103.189 74.9599 103.86C73.9531 104.713 72.0423 107.45 72.0423 108.018C72.0423 108.792 73.2043 108.276 74.4179 107.011L75.6571 105.72V107.14C75.6571 108.07 75.4767 108.922 75.1407 109.593C74.4951 110.858 74.4951 112.201 75.1151 113.234C75.4247 113.75 75.7091 114.99 75.8895 116.462C76.6903 123.124 78.3943 128.908 81.3123 134.718C82.0355 136.164 82.6035 137.352 82.5775 137.352C82.5259 137.352 81.8547 136.835 81.0799 136.216Z" fill="white"/>
<path fill-rule="evenodd" clip-rule="evenodd" d="M188.524 152.148L190.384 152.974C190.769 153.152 195.022 155.195 200.131 157.65C208.367 161.608 218.828 166.634 218.891 166.634C218.995 166.634 219.479 165.513 219.588 164.207C219.847 161.392 220.802 157.57 221.912 154.911C222.429 153.723 222.842 152.238 222.842 152.109C222.842 152.05 222.422 151.881 221.735 151.604C220.917 151.274 219.72 150.791 218.401 150.159C211.894 147.035 199.163 140.657 197.588 139.701C196.039 138.798 195.729 138.72 195.729 139.314C195.729 140.089 194.154 143.678 192.94 145.615C192.295 146.673 191.029 148.584 190.126 149.849L188.524 152.148ZM218.452 161.986C219.193 162.415 217.91 163.045 217.6 163.148C215.776 163.303 213.628 162.96 211.868 161.934C210.948 161.282 203.702 157.256 198.895 154.586C196.698 153.365 195.01 152.428 194.67 152.225C193.586 151.58 192.553 150.883 192.372 150.676C191.83 149.979 192.346 149.669 193.87 149.798C194.786 149.875 216.853 161.059 218.452 161.986Z" fill="white"/>
<path d="M169.986 154.472C169.314 154.239 168.591 153.723 168.126 153.129L167.352 152.173L170.089 149.462C174.298 145.331 177.396 140.815 180.185 135.78C181.115 134.102 183.878 127.333 184.213 126.584C184.73 125.499 185.117 125.086 186.228 124.467C187.544 123.692 189.042 123.433 189.688 123.873C190.927 124.699 190.927 127.307 189.688 131.8C188.319 136.732 186.486 140.269 182.69 145.357C182.096 146.131 180.986 147.655 180.185 148.713C178.042 151.554 176.648 152.922 174.762 153.981C172.903 155.014 171.819 155.143 169.986 154.472Z" fill="white"/>
<path d="M179.72 153.877L179.178 153.335C179.178 153.335 188.178 141.9 189.791 137.687C191.021 134.472 191.746 133.56 192.723 133.56C193.269 133.56 193.716 133.684 193.922 133.994C194.284 134.537 194.632 135.208 194.167 137.506C193.393 141.224 192.205 143.678 188.641 148.971C187.815 150.185 186.757 151.528 186.292 151.992C185.207 152.999 182.767 154.032 181.347 154.265C180.443 154.394 180.185 154.342 179.72 153.877Z" fill="white"/>
<path fill-rule="evenodd" clip-rule="evenodd" d="M194.838 141.921C195.359 140.729 195.73 139.69 195.73 139.314C195.73 138.72 196.04 138.798 197.589 139.701C199.164 140.657 211.894 147.035 218.402 150.159C220.829 151.321 222.843 151.98 222.843 152.109C222.843 152.238 194.286 143.184 194.838 141.921Z" fill="#EAEAEA"/>
<path fill-rule="evenodd" clip-rule="evenodd" d="M106.489 143.394C103.209 141.251 98.2512 136.216 95.85 132.626C92.4156 127.462 90.1432 121.936 89.0328 115.997C88.2324 111.684 88.2584 105.048 89.0588 101.201C89.8852 97.2757 90.9436 94.2805 92.8288 90.4845C95.0236 86.0949 97.3476 82.8673 100.834 79.3813C104.252 75.9629 89.0588 90.0997 92.8288 115.393C95.85 136.589 108.834 144.939 106.489 143.394Z" fill="#EAEAEA"/>
</svg>
