<svg width="342" height="300" viewBox="0 0 342 300" fill="none" xmlns="http://www.w3.org/2000/svg">
<path fill-rule="evenodd" clip-rule="evenodd" d="M310.171 125.34C306.714 151.11 302.813 164.723 280.041 191.71C257.27 218.698 153.065 236.451 114.54 236.451C76.016 236.451 28.539 206.745 31.5354 172.325C34.5318 137.905 50.1645 109.773 87.582 106.31C125.821 102.771 159.41 119.16 196.952 110.37C229.408 102.771 239.339 73.8048 261.631 64.6664C306.714 46.184 312.522 107.809 310.171 125.34Z" fill="#42ECFF"/>
<path d="M286.976 137.927C285.703 140.086 269.579 151.01 259.798 152.627C257.905 152.94 255.839 153.047 254.194 152.059C253.223 151.475 252.499 150.564 251.812 149.664C250.24 147.604 248.741 145.49 247.317 143.325C246.569 142.187 245.827 141 245.573 139.662C244.9 136.12 247.755 132.939 250.577 130.695C257.063 125.536 264.657 121.778 272.693 119.751C274.115 119.392 275.623 119.088 277.033 119.496C279.32 120.157 280.687 122.472 281.56 124.687C282.432 126.902 283.113 129.325 284.857 130.946C285.256 131.316 288.249 135.768 286.976 137.927Z" fill="white"/>
<path fill-rule="evenodd" clip-rule="evenodd" d="M200.337 232.042C184.688 234.718 192.147 223.344 194.305 209.109C197.851 185.717 202.223 150.17 202.223 150.17C202.223 150.17 205.075 204.336 205.075 217.524C205.075 230.714 202.223 231.719 200.337 232.042Z" fill="white"/>
<path d="M183.616 219.154C184.016 222.921 184.437 226.767 186.038 230.2C185.164 222.427 184.291 214.653 183.418 206.879C183.31 205.919 183.342 204.697 184.225 204.305C184.972 213.083 186.086 221.83 187.564 230.515C187.739 231.547 186.19 232.136 185.32 231.555C184.45 230.974 184.172 229.843 183.974 228.816C182.533 221.332 181.74 213.723 181.609 206.103C179.774 206.464 178.487 208.243 178.116 210.077C177.744 211.909 178.102 213.803 178.46 215.639C179.61 221.548 180.761 227.457 181.912 233.366C182.45 236.13 182.989 238.986 182.395 241.739C180.111 231.31 178.274 220.784 176.893 210.199C159.367 220.915 136.785 222.908 117.654 215.426C113.475 213.792 109.325 211.627 106.566 208.089C104.392 205.303 103.232 201.843 102.624 198.362C100.465 185.997 104.888 173.384 110.892 162.361C113.17 158.178 115.764 153.821 115.58 149.062C115.517 147.424 115.164 145.61 116.121 144.278C116.256 144.525 109.857 98.7486 112.424 88.623C118.604 64.2466 138.681 60.9454 151.535 61.2462C160.16 61.4478 214.83 72.3126 222.728 87.087C233.11 106.505 230.906 122.831 229.062 133.596C228.513 136.802 202.231 149.933 202.224 150C200.721 163.968 190.638 194.404 182.182 205.623C182.66 210.133 183.138 214.644 183.616 219.154Z" fill="white"/>
<path fill-rule="evenodd" clip-rule="evenodd" d="M57.4249 162.319C52.496 160.352 46.6223 160.935 42.1786 163.834C41.7484 164.115 41.13 163.802 40.917 163.335C40.704 162.868 40.7837 162.325 40.8926 161.824C42.3118 155.293 47.9656 150.295 54.253 147.999C60.5405 145.702 67.418 145.696 74.1016 146.088C74.7648 146.127 75.458 146.179 76.0236 146.527C76.5892 146.874 76.97 147.618 76.688 148.218C74.0588 153.817 72.0784 159.719 70.7984 165.769C70.5908 166.749 69.5744 167.4 68.5732 167.482C67.572 167.564 66.5912 167.195 65.6828 166.767C62.8512 165.434 60.3315 163.48 57.4249 162.319Z" fill="white"/>
<path fill-rule="evenodd" clip-rule="evenodd" d="M208.924 63.7247C209.168 59.9783 208.886 56.1975 208.087 52.5291L208.07 52.4507C207.934 51.8303 207.795 51.1923 207.92 50.5715C208.196 49.1987 209.721 48.3723 211.122 48.4011C212.522 48.4299 213.819 49.0983 215.058 49.7511C221 52.8815 227.049 56.0907 231.728 60.9095C231.875 64.8107 230.956 68.6603 230.048 72.4607L229.963 72.8179C226.174 88.7023 223.071 104.751 220.666 120.903C220.436 122.451 219.999 124.277 218.53 124.819C217.477 125.208 216.252 124.711 215.504 123.874C214.756 123.037 214.398 121.926 214.148 120.831C213.533 118.13 213.459 115.306 213.932 112.577C214.221 110.908 214.71 109.284 215.199 107.66L215.2 107.66V107.659V107.659C215.639 106.201 216.078 104.743 216.373 103.251C216.668 101.759 216.816 100.243 216.961 98.7287C217.728 90.6779 218.378 82.6159 218.912 74.5463C218.987 73.4063 219.056 72.2299 218.682 71.1499C218.018 69.2291 216.083 68.0147 214.128 67.4583C213.791 67.3623 213.449 67.2807 213.106 67.1991C212.31 67.0091 211.514 66.8191 210.787 66.4491C209.749 65.9199 208.848 64.8879 208.924 63.7247ZM212.554 63.4167C215.318 63.9999 218.018 64.8803 220.594 66.0383C221.113 66.2715 221.658 66.5443 221.938 67.0391C222.167 67.4431 222.18 67.9299 222.187 68.3943C222.268 73.8483 222.286 79.3171 221.708 84.7411C221.362 87.9891 220.804 91.2087 220.246 94.4279C220.07 95.4467 219.893 96.4659 219.723 97.4855C218.883 102.532 218.206 107.606 217.696 112.696C217.325 116.39 217.053 120.207 218.202 123.737C218.792 123.63 219.018 122.92 219.13 122.331L229.748 66.3679C230.005 65.0119 230.262 63.6099 229.959 62.2635C229.428 59.9063 227.336 58.2671 225.318 56.9371C221.435 54.3771 217.302 52.1967 212.996 50.4371C212.638 54.7531 212.49 59.0863 212.554 63.4167ZM218.014 100.171C219.958 90.1907 220.837 80.0031 220.63 69.8375C220.614 69.0695 220.572 68.2443 220.103 67.6367C219.759 67.1915 219.233 66.9307 218.72 66.7007C216.791 65.8367 214.763 65.1939 212.689 64.7887C212.089 64.6715 211.206 64.7987 211.232 65.4099L218.688 68.4903C219.125 68.6711 219.591 68.8755 219.838 69.2791C220.08 69.6747 220.056 70.1719 220.025 70.6347L218.014 100.171ZM211.077 49.4499C210.462 49.0423 209.574 49.4623 209.232 50.1155C208.89 50.7687 208.942 51.5503 209.02 52.2835C209.133 53.3595 209.283 54.4359 209.433 55.5127C209.849 58.4995 210.265 61.4875 209.912 64.4683C210.475 64.6619 211.105 64.2643 211.378 63.7347C211.652 63.2051 211.659 62.5831 211.66 61.9867L211.679 51.2379C211.68 50.5811 211.624 49.8127 211.077 49.4499ZM216.597 123.495C216.259 120.838 216.17 118.15 216.333 115.478C216.42 114.048 216.578 112.624 216.737 111.2C216.946 109.317 217.156 107.434 217.2 105.541C215.652 110.15 215.067 115.08 215.494 119.923C215.606 121.182 215.812 122.504 216.597 123.495ZM217.449 102.819C217.698 102.707 217.803 102.357 217.656 102.127C217.403 102.252 217.296 102.605 217.436 102.85L217.449 102.819ZM215.134 79.7371C202.812 72.1379 188.878 67.5847 174.944 63.6559C170.49 62.3999 165.998 61.1963 161.399 60.6811C147.772 59.1547 133.957 63.8563 122.626 71.5791C118.081 74.6767 113.696 78.4863 111.733 83.6235C110.276 87.4351 110.286 91.6311 110.427 95.7091C110.912 109.774 112.716 123.756 114.519 137.713C115.928 137.459 116.067 135.51 115.863 134.092C113.989 121.076 112.938 107.942 112.719 94.7931C112.657 91.1063 112.676 87.3263 113.952 83.8663C116.262 77.6035 122.22 73.5079 128.065 70.2843C135.427 66.2243 143.43 62.8115 151.836 62.6303C162.018 62.4111 171.669 66.9275 180.564 71.8879C185.522 74.6531 190.55 77.7415 193.705 82.4619C196.569 86.7487 197.61 91.9727 198.362 97.0731C200.747 113.261 200.834 129.688 200.917 146.051C200.92 146.713 200.88 147.471 200.362 147.883C200.007 148.164 199.523 148.199 199.071 148.223L182.46 149.088C190.2 151.313 198.787 150.435 205.917 146.69L224.374 136.993C226.097 136.088 227.875 135.138 229.062 133.596C230.696 131.474 230.93 128.62 231.007 125.943C231.292 116.056 230.304 106.134 228.074 96.4979C228.847 106.922 228.954 117.395 228.394 127.833C228.299 129.615 228.156 131.485 227.187 132.984C226.152 134.585 224.352 135.492 222.637 136.325L202.718 146.007C203.542 130.53 202.903 114.975 200.811 99.6183C200.107 94.4531 199.21 89.2155 196.846 84.5695C191.26 73.5895 178.896 68.1579 167.468 63.5559C184.553 68.5539 201.832 73.6347 217.202 82.6139C217.402 81.3735 216.204 80.3967 215.134 79.7371ZM278.793 126.981C279.678 129.263 280.923 131.696 283.212 132.566C283.754 132.608 284.078 131.889 283.9 131.376C283.751 130.946 283.402 130.634 283.059 130.327C283.034 130.304 283.009 130.282 282.984 130.26L282.946 130.226L282.916 130.198L282.897 130.181C282.884 130.169 282.871 130.157 282.858 130.145C281.401 128.792 280.687 126.88 279.982 124.996L279.982 124.994C279.843 124.622 279.704 124.252 279.56 123.886C278.688 121.671 277.32 119.357 275.033 118.695C273.624 118.287 272.116 118.591 270.693 118.95C262.658 120.978 255.063 124.736 248.577 129.894C245.756 132.138 242.901 135.32 243.574 138.862C243.828 140.199 244.57 141.387 245.318 142.524C246.741 144.689 248.241 146.804 249.812 148.863C250.5 149.764 251.224 150.674 252.195 151.258C253.839 152.246 255.906 152.139 257.798 151.826C267.579 150.209 275.95 144.131 283.916 138.23C284.33 137.922 284.762 137.595 284.976 137.126C285.191 136.657 285.1 136.004 284.644 135.762C284.122 135.485 283.506 135.868 283.04 136.233C275.627 142.036 267.709 147.707 258.518 149.746C256.776 150.132 254.856 150.36 253.288 149.507C252.115 148.869 251.323 147.721 250.575 146.615L245.939 139.754C245.548 139.177 245.143 138.556 245.129 137.858C245.114 137.161 245.678 136.407 246.369 136.497C252.869 137.342 259.399 137.95 265.942 138.318C266.463 138.347 267.008 138.371 267.482 138.154C268.094 137.875 268.467 137.256 268.793 136.669C271.563 131.675 273.679 126.318 275.07 120.78C276.919 122.106 277.782 124.351 278.605 126.494L278.606 126.496C278.668 126.658 278.73 126.82 278.793 126.981ZM273.072 120.341C271.834 124.974 270.003 129.447 267.636 133.617C267.24 134.316 266.799 135.036 266.106 135.442C265.223 135.959 264.125 135.862 263.109 135.748L246.919 133.942C249.605 130.392 253.596 128.089 257.582 126.11C261.356 124.236 265.23 122.565 269.183 121.105C270.434 120.643 271.746 120.196 273.072 120.341ZM183.617 219.154C184.016 222.921 184.437 226.767 186.038 230.2L183.418 206.879C183.31 205.919 183.342 204.697 184.225 204.305C184.972 213.084 186.086 221.83 187.564 230.516C187.739 231.546 186.19 232.136 185.32 231.555C184.45 230.974 184.172 229.843 183.974 228.816C182.533 221.332 181.741 213.723 181.609 206.103C179.774 206.464 178.487 208.243 178.116 210.076C177.744 211.91 178.102 213.802 178.46 215.638L181.912 233.366C182.451 236.13 182.989 238.986 182.395 241.738C180.111 231.31 178.274 220.784 176.893 210.198C159.367 220.915 136.785 222.908 117.654 215.426C113.475 213.792 109.326 211.627 106.566 208.09C104.392 205.303 103.232 201.843 102.624 198.362C100.466 185.996 104.889 173.384 110.892 162.36C111.048 162.073 111.206 161.785 111.365 161.496C113.513 157.578 115.752 153.495 115.581 149.062C115.569 148.77 115.549 148.471 115.528 148.17C115.433 146.79 115.335 145.372 116.121 144.278C117.175 146.195 117.576 148.464 117.244 150.627C135.388 149.846 153.558 149.688 171.712 150.155C171.924 150.99 170.715 151.378 169.854 151.365C152.912 151.112 135.962 151.401 119.038 152.23C118.502 152.256 117.94 152.291 117.486 152.577C117.008 152.877 116.729 153.404 116.472 153.906C111.669 163.304 106.85 172.839 104.528 183.135C103.334 188.429 102.877 194.224 105.324 199.068C106.252 200.906 107.566 202.53 109.031 203.976C116.901 211.738 128.686 214.118 139.738 213.932C146.792 213.813 153.83 212.799 160.63 210.922C167.84 208.932 175.03 205.794 179.951 200.162C182.841 196.854 184.805 192.849 186.525 188.808C189.81 181.091 192.329 173.049 194.034 164.838C195.102 165.063 195.117 166.572 194.87 167.635C191.822 180.786 188.279 194.803 178.239 203.826C169.171 211.976 156.393 214.503 144.22 215.185C137.189 215.578 130.046 215.455 123.236 213.663C116.425 211.87 109.922 208.285 105.598 202.726C106.859 207.534 111.131 210.966 115.578 213.186C127.255 219.017 141.044 218.709 153.937 216.682C162.525 215.332 171.341 213.116 178.025 207.556C183.738 202.804 187.379 196.016 190.12 189.108C193.154 181.462 195.258 173.448 196.372 165.298C197.066 164.859 197.58 166.085 197.492 166.901C195.99 180.87 190.638 194.404 182.182 205.622L183.617 219.154ZM175.496 243.04C174.752 241.782 174.272 240.368 174.098 238.916L173.027 242.543L170.326 232.24C170.116 231.441 169.606 230.441 168.798 230.613C168.012 230.78 167.924 231.858 168.041 232.653C168.63 236.65 169.752 240.567 171.37 244.27L168.496 241.748C168.357 242.949 168.673 244.196 169.367 245.185C167.87 244.083 165.863 243.708 164.07 244.194C165.351 245.975 167.091 247.423 169.076 248.36L166.648 244.971C168.61 246.104 170.666 247.074 172.788 247.87L170.731 245.29L173.272 245.995C171.327 241.571 169.346 236.978 169.393 232.146C170.13 236.077 171.207 239.944 172.61 243.689C172.848 244.324 173.112 244.98 173.618 245.43C174.125 245.881 174.948 246.05 175.478 245.629C175.891 245.301 176.011 244.736 176.104 244.217L177.249 237.869L178.506 245.742C179.46 243.334 182.56 242.73 185.149 242.714C188.569 242.693 192.014 243.07 195.45 243.446H195.45H195.45C201.645 244.123 207.81 244.797 213.745 243.131C213.571 244.048 213.266 244.941 212.842 245.774C217.632 245.076 222.477 244.77 227.316 244.86C229.36 244.898 231.409 245.005 233.459 245.113H233.459H233.46H233.46C238.879 245.397 244.298 245.681 249.606 244.675L214.37 244.366C215.032 244.327 215.54 243.558 215.314 242.934C215.088 242.311 214.206 242.044 213.673 242.438C213.326 241.336 211.769 240.846 210.854 241.552C211.384 239.916 212.433 238.454 213.812 237.427C212.256 237.343 210.676 237.82 209.425 238.749L213.215 221.208C212.895 220.933 212.36 221.118 212.124 221.468C211.889 221.815 211.863 222.256 211.838 222.674L211.838 222.687C211.483 228.676 209.371 234.552 205.831 239.396L204.44 235.374L202.448 240.178C201.545 239.479 200.264 239.302 199.206 239.732C199.476 240.759 200.298 241.623 201.31 241.944L201.782 240.681L204.894 242.766C203.705 241.52 203.447 239.48 204.289 237.976L206.172 241.136L209.823 233.915C209.844 236.814 208.601 239.555 207.383 242.186C208.707 241.149 209.845 239.876 210.727 238.444C211.578 239.952 210.648 241.973 209.168 242.87C207.687 243.768 205.856 243.816 204.126 243.743C201.487 243.632 198.828 243.3 196.172 242.969C190.207 242.226 184.259 241.484 178.593 243.24L177.776 235.707C176.528 237.962 175.747 240.474 175.496 243.04ZM211.046 243.241C210.918 243.088 210.919 242.842 211.048 242.69L211.151 242.729C211.324 242.315 212.052 242.349 212.185 242.778C211.85 243.02 211.455 243.18 211.046 243.241ZM230.297 163.2C226.193 161.126 221.31 161.686 216.754 162.31C215.467 162.487 214.154 162.672 212.988 163.245C211.823 163.818 210.807 164.856 210.606 166.14C199.481 164.751 188.82 159.854 180.517 152.319C178.715 150.684 176.876 148.355 177.686 146.061C177.941 145.34 178.437 144.731 178.952 144.166C182.823 139.922 188.16 137.37 193.356 134.92C187.467 135.436 181.817 138.3 177.92 142.744C177.027 143.763 176.204 144.901 175.896 146.22C175.136 149.478 177.666 152.534 180.199 154.719C188.278 161.692 198.441 166.221 209.029 167.566C209.664 167.646 209.697 168.539 209.639 169.176C209.381 172.012 210.926 174.778 213.068 176.654C215.21 178.529 217.894 179.655 220.556 180.664C228.8 183.786 237.357 186.086 246.056 187.518C246.631 187.613 247.42 187.568 247.542 186.998C245.534 185.67 243.118 185.164 240.755 184.67L240.746 184.668L240.72 184.662L240.517 184.62L240.373 184.59C234.383 183.328 228.473 181.686 222.691 179.676C220.319 178.851 217.941 177.95 215.873 176.526C213.805 175.101 212.048 173.088 211.387 170.666C211.06 169.47 211.504 167.684 212.735 167.834C217.747 168.447 222.897 169.052 227.791 167.809C228.898 167.528 230.053 167.104 230.728 166.182C231.403 165.26 231.316 163.716 230.297 163.2ZM217.654 166.513C215.934 166.216 214.176 166.137 212.436 166.277C213.281 164.671 215.347 164.248 217.145 164.003C221.054 163.471 225.125 162.952 228.87 164.191C229.118 164.273 229.382 164.378 229.516 164.601C229.692 164.896 229.563 165.296 229.313 165.531C229.062 165.766 228.721 165.872 228.391 165.964C224.911 166.937 221.215 167.126 217.654 166.513ZM160.721 247.543C163.6 247.462 166.497 248.099 169.078 249.379C168.388 250.37 167.002 250.509 165.795 250.555L134.255 251.752C133.966 251.716 133.912 251.27 134.116 251.063C134.321 250.856 134.641 250.829 134.932 250.815L165.721 249.313C163.942 249.15 162.206 248.536 160.721 247.543ZM100.024 143.234C99.5739 145.383 101.393 147.676 103.583 147.839C100.002 153.236 93.5507 155.899 87.3523 157.78C83.4839 158.953 79.1927 159.916 75.5051 158.261C75.0475 158.54 75.5355 159.229 76.0187 159.462C79.6075 161.191 83.8623 160.228 87.6795 159.088C93.2779 157.418 99.0483 155.258 102.858 150.829C103.014 150.648 103.169 150.461 103.326 150.273V150.273C104.306 149.094 105.328 147.866 106.803 147.593C111.548 146.715 115.501 143.743 119.407 140.805H119.408V140.805H119.408C120.294 140.139 121.177 139.474 122.066 138.837C127.474 134.961 133.472 131.91 139.789 129.822C140.347 129.637 141.026 129.295 140.976 128.71C133.144 129.428 126.298 134.099 119.986 138.79L119.775 138.947C115.485 142.136 111.002 145.469 105.723 146.26C107.447 144.9 107.083 141.757 105.138 140.738C103.192 139.72 100.473 141.084 100.024 143.234ZM101.485 144.547C101.133 143.504 101.676 142.264 102.642 141.736C102.916 141.586 103.223 141.486 103.535 141.486C104.566 141.485 105.32 142.588 105.326 143.619C105.333 144.65 104.81 145.601 104.302 146.498C103.114 146.316 101.87 145.686 101.485 144.547ZM218.682 121.57C218.39 121.245 218.48 120.808 218.572 120.354C218.638 120.034 218.706 119.705 218.641 119.403C218.585 119.142 218.432 118.919 218.279 118.695C218.144 118.497 218.008 118.299 217.938 118.072C217.954 117.773 218.354 117.62 218.626 117.744C218.899 117.868 219.052 118.161 219.147 118.445C219.494 119.482 219.316 120.68 218.682 121.57ZM192.279 98.8207C193.009 97.0903 194.456 95.5563 196.3 95.2051C196.897 95.0915 196.879 94.1071 196.356 93.7979C195.833 93.4883 195.161 93.6711 194.612 93.9323C192.056 95.1491 190.443 97.8267 189.811 100.586C189.178 103.345 189.388 106.218 189.6 109.04L190.73 124.043C190.768 124.553 190.815 125.089 191.099 125.514C191.678 126.381 192.918 126.408 193.958 126.342L199.222 126.008C198.052 125.091 196.482 124.705 195.02 124.975C194.167 125.132 193.31 124.57 192.858 123.829C192.405 123.088 192.273 122.202 192.161 121.341C191.427 115.711 191.158 110.02 191.357 104.345C191.423 102.468 191.549 100.551 192.279 98.8207ZM205.718 231.988C205.419 232.205 205.119 231.711 205.076 231.344C203.042 214.248 202.735 196.998 202.43 179.783L202.225 168.178C202.219 167.847 202.224 167.485 202.436 167.231C202.802 166.795 203.572 166.995 203.891 167.466C204.21 167.937 204.211 168.547 204.2 169.116C203.887 186.057 204.093 203.03 205.715 219.896C205.734 220.101 205.754 220.306 205.774 220.512C206.146 224.343 206.524 228.232 205.718 231.988ZM188.808 124.219C188.362 123.974 187.813 124.112 187.325 124.257C164.776 130.926 142.279 137.802 120.113 145.651C119.698 145.798 119.224 146.01 119.128 146.44C119.028 146.894 119.456 147.329 119.914 147.414C120.373 147.498 120.837 147.334 121.274 147.173C143.488 139.002 166.036 131.738 188.844 125.409C189.333 125.273 189.253 124.463 188.808 124.219Z" fill="#363939"/>
<path fill-rule="evenodd" clip-rule="evenodd" d="M269.146 226.235C268.621 226.466 268.053 226.68 267.488 226.583C266.923 226.486 266.394 225.955 266.508 225.393C267.545 220.255 266.242 214.69 263.031 210.546C261.906 209.093 260.566 207.816 259.469 206.341C258.778 205.413 258.163 204.245 258.514 203.141C259.012 201.571 261.021 201.189 262.664 201.077C266.485 200.817 270.306 200.556 274.127 200.296C275.888 200.176 277.916 200.158 279.091 201.474C282.362 205.139 288.739 205.385 292.283 201.983C292.832 201.457 293.522 202.505 293.5 203.265C293.432 205.654 292.447 208.005 290.793 209.731C290.402 210.137 289.903 210.536 289.342 210.478C288.782 210.419 288.368 209.614 288.815 209.271C289.774 208.534 290.752 207.778 291.424 206.773C292.097 205.767 292.423 204.449 291.964 203.329C289.496 206.452 287.004 209.556 284.49 212.641C280.128 217.989 275.465 223.46 269.146 226.235ZM276.038 210.497C275.41 210.67 274.741 210.537 274.114 210.359C269.604 209.085 265.45 205.562 260.836 206.386C266.216 210.719 269.072 217.982 268.084 224.818C271.628 224.059 274.426 221.413 276.936 218.799C280.652 214.929 284.18 210.879 287.504 206.667C285.114 206.648 282.734 205.959 280.705 204.699C278.197 205.319 278.528 209.808 276.038 210.497ZM279.313 203.381C277.819 201.62 275.135 201.675 272.834 201.877C269.833 202.14 266.832 202.404 263.832 202.667C262.613 202.775 261.214 202.988 260.579 204.033C265.773 205.121 270.836 206.829 275.628 209.109C276.244 207.173 277.479 205.44 279.107 204.225C279.29 204.089 279.5 203.913 279.476 203.686C279.463 203.57 279.389 203.471 279.313 203.381Z" fill="#00AFC1"/>
<path fill-rule="evenodd" clip-rule="evenodd" d="M56.8432 161.383C52.3235 159.575 46.9374 160.111 42.8626 162.774C42.4681 163.032 41.9009 162.745 41.7057 162.316C41.5104 161.887 41.5834 161.388 41.6833 160.928C42.9847 154.928 48.1692 150.337 53.9347 148.227C59.7002 146.117 66.0066 146.111 72.1358 146.472C72.7438 146.508 73.3794 146.555 73.8982 146.875C74.417 147.194 74.7658 147.877 74.5074 148.428C72.0962 153.572 70.2802 158.994 69.1066 164.551C68.9162 165.452 67.9842 166.05 67.0662 166.126C66.1482 166.201 65.2486 165.861 64.4154 165.468C61.819 164.244 59.5085 162.449 56.8432 161.383ZM57.3599 155.312C56.9571 155.639 56.3275 155.466 55.9485 155.112C55.5694 154.757 55.3535 154.266 55.0555 153.842C53.4575 151.562 49.7903 151.751 47.6165 153.49C45.4428 155.23 44.3909 157.978 43.433 160.592C49.8103 157.822 57.6649 158.816 63.151 163.088C63.9002 163.671 64.6434 164.328 65.5658 164.552C66.4882 164.777 67.6502 164.373 67.8838 163.453C69.1318 158.538 70.6698 153.696 72.487 148.962C69.0002 153.296 61.6774 151.804 57.3599 155.312ZM55.9722 152.693C56.3303 153.142 56.9805 153.262 57.5465 153.16C58.1126 153.059 58.6268 152.777 59.1542 152.548C60.97 151.758 62.981 151.582 64.9278 151.222C66.8746 150.86 68.8822 150.25 70.2526 148.821C67.1606 148.812 64.0686 148.802 60.9768 148.793C57.8695 148.784 54.521 148.849 52.0248 150.7C53.5444 150.755 55.0252 151.503 55.9722 152.693Z" fill="#00AFC1"/>
<path fill-rule="evenodd" clip-rule="evenodd" d="M202.05 160.969C202.042 158.249 202.035 155.529 202.028 152.81C202.026 152.029 202.024 151.248 202.022 150.467C202.02 149.928 202.11 149.254 202.622 149.087C203.01 148.96 203.436 149.238 203.616 149.603C203.798 149.968 203.796 150.393 203.789 150.801C203.733 154.596 203.676 158.391 203.62 162.187C203.612 162.733 203.52 163.404 203.009 163.596C202.157 163.113 202.052 161.949 202.05 160.969Z" fill="#363939"/>
<path fill-rule="evenodd" clip-rule="evenodd" d="M196.622 158.452C196.228 158.624 196.025 157.976 196.086 157.55C196.303 156.027 196.522 154.501 196.892 153.008C197.123 152.078 197.455 151.1 198.223 150.528C198.991 149.955 200.309 150.055 200.685 150.936C200.867 151.363 200.791 151.85 200.708 152.307C200.191 155.132 199.495 157.925 198.625 160.662C198.588 160.778 198.547 160.899 198.459 160.984C198.245 161.189 197.859 161.051 197.711 160.794C197.563 160.537 197.582 160.221 197.605 159.925C197.959 159.899 198.124 159.483 198.209 159.139C198.555 157.734 198.902 156.328 199.249 154.923C199.519 153.829 199.765 152.584 199.137 151.648C198.492 152.046 198.249 152.849 198.058 153.582C197.671 155.056 197.285 156.53 196.899 158.003C196.853 158.18 196.789 158.378 196.622 158.452Z" fill="#363939"/>
</svg>
