<svg width="40" height="44" viewBox="0 0 40 44" fill="none" xmlns="http://www.w3.org/2000/svg">
<g clip-path="url(#clip0_85205_1280)">
<path d="M20.6121 26.3082C20.6544 26.5054 20.773 26.6778 20.942 26.7877C21.1111 26.8977 21.3168 26.9362 21.5141 26.8949H21.5086L33.715 24.2402C33.8138 24.2197 33.9073 24.1789 33.9896 24.1206C34.0719 24.0622 34.1413 23.9875 34.1935 23.9011L34.1953 23.8974C34.2506 23.8103 34.2879 23.7131 34.3049 23.6114C34.3219 23.5096 34.3183 23.4055 34.2943 23.3052L34.2961 23.3107C30.9723 12.0009 24.2751 3.51072 15.9096 -0.00927732H15.8381C15.724 -0.00930482 15.6114 0.016332 15.5085 0.065735C15.4057 0.115138 15.3153 0.187042 15.244 0.276124C15.1727 0.365206 15.1223 0.469184 15.0966 0.58036C15.071 0.691537 15.0706 0.807064 15.0956 0.918389L15.0938 0.912889L20.6121 26.3082ZM8.8073 29.6449L18.4488 27.5586C18.6447 27.5162 18.8163 27.3991 18.9273 27.2322L18.9291 27.2286C18.9858 27.1459 19.024 27.0521 19.0411 26.9534C19.0581 26.8546 19.0537 26.7534 19.0281 26.6566L19.03 26.6621L15.9591 12.5216C15.9303 12.3721 15.8557 12.2354 15.7456 12.1303C15.6356 12.0251 15.4956 11.9569 15.345 11.9349H15.3413C15.3084 11.926 15.2745 11.9216 15.2405 11.9221H15.213C15.0806 11.9212 14.9522 11.9554 14.8373 12.0211C14.7224 12.0868 14.6268 12.1816 14.5603 12.2961L14.5585 12.2997L14.344 12.6664C11.4876 17.5174 9.0108 21.7139 7.89063 28.7906C7.87212 28.912 7.88293 29.0361 7.92215 29.1525C7.96138 29.2689 8.0279 29.3743 8.11614 29.4597C8.21182 29.5392 8.3239 29.5965 8.44435 29.6276C8.56479 29.6586 8.69061 29.6627 8.8128 29.6394H8.8073V29.6449ZM7.87413 37.3669C8.0288 37.3641 8.17725 37.3055 8.29213 37.2019L8.73214 36.7619C9.56502 35.9345 10.6913 35.4702 11.8653 35.4702C13.0393 35.4702 14.1656 35.9345 14.9985 36.7619L15.4385 37.2019C15.4903 37.2547 15.5522 37.2966 15.6206 37.3249C15.6889 37.3533 15.7623 37.3676 15.8363 37.3669H15.8546C16.0093 37.3641 16.1577 37.3055 16.2726 37.2019L16.7401 36.7344C17.5705 35.9164 18.6894 35.458 19.855 35.4584C21.076 35.4584 22.1796 35.9516 22.9826 36.7472L23.4116 37.1762C23.5232 37.2855 23.6717 37.349 23.8278 37.3541C23.9825 37.3512 24.1327 37.2926 24.2476 37.1891L24.6766 36.7601C25.5095 35.9327 26.6358 35.4684 27.8098 35.4684C28.9838 35.4684 30.1101 35.9327 30.943 36.7601L31.383 37.2001C31.4856 37.3009 31.625 37.3651 31.7808 37.3651H31.801C31.9556 37.3622 32.1022 37.3036 32.2171 37.2001L32.6571 36.7601C33.0812 36.3371 33.5871 36.0053 34.144 35.7847L34.1733 35.7737C34.2118 35.6967 34.2613 35.6362 34.2998 35.5592L38.8611 26.2587C38.9275 26.1174 38.9541 25.9607 38.9383 25.8054C38.9225 25.6501 38.8648 25.5019 38.7713 25.3769L38.7731 25.3787C38.6753 25.2545 38.5446 25.1602 38.3958 25.1068C38.247 25.0533 38.0862 25.0427 37.9316 25.0762L37.9371 25.0744L5.54947 32.0997C5.40402 32.1319 5.26732 32.1953 5.14884 32.2855C5.03035 32.3758 4.93293 32.4908 4.86334 32.6225C4.79374 32.7542 4.75363 32.8994 4.7458 33.0482C4.73796 33.1969 4.76259 33.3456 4.81797 33.4839L4.81613 33.4766L5.85197 36.1056C6.4863 36.3714 7.02713 36.7399 7.4818 37.1927C7.52279 37.2468 7.57573 37.2906 7.63647 37.3209C7.69722 37.3511 7.76412 37.3668 7.83197 37.3669L7.8778 37.3651L7.87413 37.3669ZM38.1883 41.2334C37.565 40.6156 36.7088 40.2361 35.7628 40.2361C34.8168 40.2361 33.9588 40.6174 33.3373 41.2352L32.8973 41.6752C32.6012 41.9678 32.2017 42.1318 31.7854 42.1318C31.3691 42.1318 30.9696 41.9678 30.6735 41.6752L30.2335 41.2352C29.6101 40.6174 28.754 40.2379 27.808 40.2379C26.862 40.2379 26.004 40.6192 25.3825 41.2371L24.9535 41.6661C24.658 41.9577 24.2595 42.1211 23.8443 42.1207H23.8333C23.6274 42.1205 23.4237 42.079 23.2341 41.9987C23.0446 41.9185 22.873 41.801 22.7296 41.6532L22.2988 41.2224C21.6518 40.5809 20.7771 40.2216 19.866 40.2232C18.9236 40.2232 18.0711 40.5991 17.446 41.2096L16.9785 41.6771C16.6823 41.9696 16.2828 42.1337 15.8666 42.1337C15.4503 42.1337 15.0508 41.9696 14.7546 41.6771L14.3146 41.2371C13.6913 40.6192 12.8351 40.2379 11.8873 40.2379C10.9395 40.2379 10.0833 40.6192 9.45997 41.2371L9.01997 41.6771C8.72383 41.9696 8.32433 42.1337 7.90805 42.1337C7.49178 42.1337 7.09227 41.9696 6.79613 41.6771C6.05913 40.9511 5.0453 40.5019 3.92697 40.5019C2.80863 40.5019 1.79663 40.9511 1.0578 41.6771C0.970219 41.7632 0.900662 41.8659 0.853182 41.9793C0.805702 42.0926 0.78125 42.2142 0.78125 42.3371C0.78125 42.4599 0.805702 42.5815 0.853182 42.6949C0.900662 42.8082 0.970219 42.9109 1.0578 42.9971C1.14319 43.0847 1.24526 43.1543 1.35798 43.2018C1.4707 43.2494 1.5918 43.2739 1.71413 43.2739H1.72147C1.96449 43.2748 2.19793 43.1792 2.37047 43.0081C2.57423 42.8032 2.81647 42.6406 3.08328 42.5297C3.35008 42.4187 3.63618 42.3616 3.92513 42.3616C4.21408 42.3616 4.50019 42.4187 4.76699 42.5297C5.03379 42.6406 5.27604 42.8032 5.4798 43.0081C6.10313 43.6241 6.9593 44.0054 7.9053 44.0054C8.8513 44.0054 9.7093 43.6241 10.3308 43.0081L10.7708 42.5681C11.0669 42.2755 11.4664 42.1115 11.8827 42.1115C12.299 42.1115 12.6985 42.2755 12.9946 42.5681L13.4346 43.0081C14.0506 43.6241 14.9013 44.0054 15.8418 44.0054H15.862H15.8601H15.8656C16.8043 44.0054 17.655 43.6296 18.2746 43.0191L18.755 42.5516C19.0511 42.259 19.4506 42.095 19.8669 42.095C20.2832 42.095 20.6827 42.259 20.9788 42.5516L21.4078 42.9806C22.0275 43.6039 22.8855 43.9889 23.8333 43.9907H23.8535C24.794 43.9907 25.6446 43.6094 26.2588 42.9934L26.6878 42.5644C26.9839 42.2718 27.3834 42.1078 27.7997 42.1078C28.216 42.1078 28.6155 42.2718 28.9116 42.5644L29.3516 43.0044C29.975 43.6204 30.8311 44.0017 31.7771 44.0017C32.7231 44.0017 33.5811 43.6204 34.2026 43.0044L34.6426 42.5644C34.9388 42.2718 35.3383 42.1078 35.7546 42.1078C36.1708 42.1078 36.5703 42.2718 36.8665 42.5644C37.0333 42.7294 37.2625 42.8302 37.5173 42.8302H37.5375C37.6579 42.8288 37.777 42.8036 37.8877 42.7561C37.9984 42.7085 38.0987 42.6397 38.1828 42.5534C38.2714 42.468 38.3418 42.3657 38.39 42.2526C38.4382 42.1394 38.4631 42.0177 38.4633 41.8947C38.4635 41.7717 38.4389 41.6499 38.391 41.5366C38.3431 41.4233 38.2729 41.3208 38.1846 41.2352L38.1883 41.2334Z" fill="#CA8DCF"/>
<path d="M3.88125 38.5788H3.88858C4.49358 38.5788 5.03991 38.8245 5.43591 39.2223C6.05925 39.8402 6.91541 40.2197 7.86141 40.2197C8.80741 40.2197 9.66541 39.8383 10.2869 39.2205L10.7269 38.7805C11.0231 38.4879 11.4226 38.3239 11.8388 38.3239C12.2551 38.3239 12.6546 38.4879 12.9507 38.7805L13.3907 39.2205C14.0067 39.8383 14.8574 40.2197 15.7997 40.2197H15.8181H15.8217C16.7604 40.2197 17.6111 39.8438 18.2307 39.2333L18.7111 38.7658C19.0095 38.4711 19.4127 38.3068 19.8321 38.3093C20.2515 38.3117 20.6528 38.4805 20.9477 38.7787L21.3767 39.2077C21.9964 39.8292 22.8544 40.216 23.8022 40.2178H23.8206C24.7611 40.2178 25.6117 39.8365 26.2277 39.2187L26.6567 38.7897C26.9529 38.4971 27.3524 38.3331 27.7687 38.3331C28.1849 38.3331 28.5844 38.4971 28.8806 38.7897L29.3206 39.2297C29.9439 39.8475 30.8001 40.227 31.7461 40.227C32.6921 40.227 33.5501 39.8457 34.1716 39.2278L34.6116 38.7878C34.9077 38.4953 35.3072 38.3312 35.7235 38.3312C36.1398 38.3312 36.5393 38.4953 36.8354 38.7878C37.0022 38.9528 37.2314 39.0537 37.4844 39.0537H37.5046C37.6251 39.0522 37.7441 39.027 37.8548 38.9795C37.9655 38.932 38.0658 38.8631 38.1499 38.7768C38.2375 38.6907 38.3071 38.5879 38.3545 38.4746C38.402 38.3613 38.4265 38.2397 38.4265 38.1168C38.4265 37.994 38.402 37.8723 38.3545 37.759C38.3071 37.6457 38.2375 37.543 38.1499 37.4568C37.5266 36.839 36.6704 36.4595 35.7244 36.4595C34.7784 36.4595 33.9204 36.8408 33.2989 37.4587L32.8589 37.8987C32.5628 38.1912 32.1633 38.3553 31.747 38.3553C31.3307 38.3553 30.9312 38.1912 30.6351 37.8987L30.1951 37.4587C29.5717 36.8408 28.7156 36.4613 27.7696 36.4613C26.8236 36.4613 25.9656 36.8427 25.3441 37.4605L24.9151 37.8895C24.6196 38.1812 24.2211 38.3445 23.8059 38.3442H23.7949C23.589 38.344 23.3853 38.3025 23.1957 38.2222C23.0062 38.1419 22.8346 38.0244 22.6912 37.8767L22.2604 37.4458C21.6136 36.8054 20.7396 36.4469 19.8294 36.4485C18.8871 36.4485 18.0327 36.8243 17.4094 37.4348L16.9419 37.9023C16.6458 38.1949 16.2463 38.3589 15.83 38.3589C15.4137 38.3589 15.0142 38.1949 14.7181 37.9023L14.2781 37.4623C13.6547 36.8445 12.7986 36.4632 11.8507 36.4632C10.9029 36.4632 10.0467 36.8445 9.42341 37.4623L8.98341 37.9023C8.68727 38.1949 8.28777 38.3589 7.8715 38.3589C7.45522 38.3589 7.05572 38.1949 6.75958 37.9023C6.02258 37.1763 5.00875 36.7272 3.89041 36.7272C2.77208 36.7272 1.76008 37.1763 1.02125 37.9023C0.932529 37.9878 0.861963 38.0904 0.813764 38.2038C0.765565 38.3172 0.740723 38.4391 0.740723 38.5623C0.740723 38.6855 0.765565 38.8075 0.813764 38.9209C0.861963 39.0343 0.932529 39.1368 1.02125 39.2223C1.10648 39.3103 1.20848 39.3802 1.32121 39.4281C1.43394 39.476 1.55511 39.5007 1.67758 39.501H1.68491C1.92793 39.5019 2.16137 39.4063 2.33391 39.2352C2.72075 38.83 3.26341 38.577 3.86841 38.577H3.87758L3.88125 38.5788Z" fill="#CA8DCF"/>
</g>
<defs>
<clipPath id="clip0_85205_1280">
<rect width="38.5" height="44" fill="white" transform="translate(0.75)"/>
</clipPath>
</defs>
</svg>
