<svg width="42" height="42" viewBox="0 0 42 42" fill="none" xmlns="http://www.w3.org/2000/svg">
<path d="M3.76732 18.072C3.04284 18.8062 2.63969 19.7981 2.64657 20.8296C2.65345 21.861 3.06978 22.8475 3.80399 23.572C4.5382 24.2964 5.53014 24.6996 6.56159 24.6927C7.59304 24.6858 8.57951 24.2695 9.30399 23.5353L18.1722 14.6671C19.7343 13.105 22.267 13.105 23.8291 14.6671L32.734 23.572C33.0977 23.9306 33.5284 24.214 34.0016 24.4062C34.4748 24.5983 34.9812 24.6954 35.492 24.6918C36.0027 24.6882 36.5077 24.5841 36.9782 24.3853C37.4487 24.1866 37.8754 23.8971 38.234 23.5335C38.5926 23.1698 38.8761 22.7391 39.0682 22.2658C39.2603 21.7926 39.3574 21.2862 39.3538 20.7755C39.3503 20.2648 39.2461 19.7597 39.0474 19.2893C38.8486 18.8188 38.5592 18.3921 38.1955 18.0335L24.1173 3.95529C23.7079 3.54447 23.2214 3.21864 22.6856 2.99654C22.1498 2.77444 21.5754 2.66045 20.9955 2.66114C20.4155 2.66182 19.8414 2.77715 19.3061 3.00051C18.7709 3.22387 18.2851 3.55084 17.8767 3.96262L3.76732 18.072Z" stroke="#6EE67C" stroke-width="3.66667" stroke-linecap="round" stroke-linejoin="round"/>
<path d="M24.6673 39.3386V26.5053C24.6673 25.5328 24.281 24.6002 23.5934 23.9126C22.9057 23.2249 21.9731 22.8386 21.0007 22.8386C20.0282 22.8386 19.0956 23.2249 18.4079 23.9126C17.7203 24.6002 17.334 25.5328 17.334 26.5053V39.3386" stroke="#6EE67C" stroke-width="3.66667" stroke-linecap="round" stroke-linejoin="round"/>
<path d="M24.6673 24.6719H31.6673C33.8765 24.6719 35.6673 26.4627 35.6673 28.6719V35.6719C35.6673 36.6443 35.281 37.577 34.5934 38.2646C33.9057 38.9522 32.9731 39.3385 32.0007 39.3385H10.0007C9.02819 39.3385 8.09556 38.9522 7.40793 38.2646C6.72029 37.577 6.33398 36.6443 6.33398 35.6719V28.6719C6.33398 26.4627 8.12485 24.6719 10.334 24.6719H17.334M6.33398 32.0052H17.334M24.6673 32.0052H35.6673" stroke="#6EE67C" stroke-width="3.66667" stroke-linecap="round" stroke-linejoin="round"/>
</svg>
