<svg width="44" height="32" viewBox="0 0 44 32" fill="none" xmlns="http://www.w3.org/2000/svg">
<path d="M31.9097 0.473389L30.2134 0.491577L30.253 4.16506C25.9393 5.41704 20.0248 6.02517 14.5644 6.38658C17.872 15.4604 23.9279 22.7627 29.4398 30.6186C31.3923 28.7663 34.2564 27.6045 37.3051 27.225C35.3449 25.5184 33.8527 24.5895 31.7606 20.5869C34.7075 24.0818 36.7157 25.1544 39.0759 26.4303C39.3834 25.1964 39.9182 24.1085 40.8401 23.3511C41.6569 22.6802 42.7274 22.3471 44 22.3763C39.5826 16.7442 34.4186 11.3451 31.9533 4.52393L31.9097 0.473389ZM13.2591 1.57364L11.563 1.59664C11.563 1.59664 11.5866 3.325 11.6158 5.0807C11.6305 5.95864 11.6464 6.84327 11.6618 7.52425C11.6675 7.77267 11.6729 7.95587 11.6782 8.14077C8.43846 16.0318 5.16116 23.3128 0 30.1404C3.16977 30.0097 6.25058 30.027 9.28756 30.1365C11.3856 24.2355 11.4877 17.4278 12.6451 11.0994C13.721 17.5607 13.6408 24.2408 15.8005 30.4969C19.8492 30.7874 23.8759 31.1753 27.9905 31.5266C22.7441 24.0674 16.8501 16.9159 13.3721 8.02637C13.3674 7.85843 13.3627 7.70633 13.3578 7.48571C13.3425 6.81133 13.3264 5.92858 13.3118 5.05243C13.2826 3.30012 13.2591 1.57364 13.2591 1.57364Z" fill="#03BD28"/>
</svg>
