<svg width="30" height="38" viewBox="0 0 30 38" fill="none" xmlns="http://www.w3.org/2000/svg">
<path d="M13.1668 8.91675H11.3335V10.7501H13.1668V8.91675ZM15.0002 8.91675H16.8335V10.7501H15.0002V8.91675ZM20.5002 8.91675H18.6668V10.7501H20.5002V8.91675ZM11.3335 12.5834H13.1668V14.4167H11.3335V12.5834ZM16.8335 12.5834H15.0002V14.4167H16.8335V12.5834ZM18.6668 12.5834H20.5002V14.4167H18.6668V12.5834ZM13.1668 16.2501H11.3335V18.0834H13.1668V16.2501ZM15.0002 16.2501H16.8335V18.0834H15.0002V16.2501ZM20.5002 16.2501H18.6668V18.0834H20.5002V16.2501ZM11.3335 19.9167H13.1668V21.7501H11.3335V19.9167ZM16.8335 19.9167H15.0002V21.7501H16.8335V19.9167ZM11.3335 23.5834H13.1668V25.4167H11.3335V23.5834ZM16.8335 23.5834H15.0002V25.4167H16.8335V23.5834ZM11.3335 27.2501H13.1668V29.0834H11.3335V27.2501ZM16.8335 27.2501H15.0002V29.0834H16.8335V27.2501ZM11.3335 30.9167H13.1668V32.7501H11.3335V30.9167ZM16.8335 30.9167H15.0002V32.7501H16.8335V30.9167ZM21.4168 24.5001H24.1668V22.6667H21.4168V24.5001ZM24.1668 28.1667H21.4168V26.3334H24.1668V28.1667ZM21.4168 31.8334H24.1668V30.0001H21.4168V31.8334Z" fill="#7AD0EA"/>
<path fill-rule="evenodd" clip-rule="evenodd" d="M8.5835 0.666748L23.2502 6.16675V19.0001H26.9168C27.1599 19.0001 27.3931 19.0967 27.565 19.2686C27.7369 19.4405 27.8335 19.6736 27.8335 19.9167V35.5001H28.7502C28.9933 35.5001 29.2264 35.5967 29.3983 35.7686C29.5703 35.9405 29.6668 36.1736 29.6668 36.4167C29.6668 36.6599 29.5703 36.893 29.3983 37.0649C29.2264 37.2368 28.9933 37.3334 28.7502 37.3334H1.25016C1.00705 37.3334 0.77389 37.2368 0.601982 37.0649C0.430073 36.893 0.333496 36.6599 0.333496 36.4167C0.333496 36.1736 0.430073 35.9405 0.601982 35.7686C0.77389 35.5967 1.00705 35.5001 1.25016 35.5001H2.16683V16.2501C2.16683 16.007 2.26341 15.7738 2.43532 15.6019C2.60722 15.43 2.84038 15.3334 3.0835 15.3334H4.91683V8.91675H6.75016V15.3334H8.5835V0.666748ZM10.4168 3.31225L21.4168 7.43725V19.0001H18.6668C18.4237 19.0001 18.1906 19.0967 18.0186 19.2686C17.8467 19.4405 17.7502 19.6736 17.7502 19.9167V35.5001H10.4168V3.31225ZM4.00016 17.1667V35.5001H8.5835V17.1667H4.00016ZM26.0002 35.5001H24.1668V33.6667H21.4168V35.5001H19.5835V20.8334H26.0002V35.5001Z" fill="#7AD0EA"/>
</svg>
