<svg width="42" height="43" viewBox="0 0 42 43" fill="none" xmlns="http://www.w3.org/2000/svg">
<path d="M10 25.2083H1.75V1.375H40.25V25.2083H32M31.0833 42.625C31.0832 39.029 32.0809 35.5035 33.9653 32.4408L34.75 31.1667V30.7083H7.25V31.1667L8.03467 32.4408C9.91908 35.5035 10.9168 39.029 10.9167 42.625M28.3333 26.125V19.7083C28.3333 19.7083 25.5833 17.875 21 17.875C16.4167 17.875 13.6667 19.7083 13.6667 19.7083V26.125M20.725 14.2083C20.725 14.2083 17.7917 12.375 17.7917 10.0833C17.7917 9.2334 18.1293 8.41828 18.7303 7.81729C19.3313 7.2163 20.1464 6.87867 20.9963 6.87867C21.8463 6.87867 22.6614 7.2163 23.2624 7.81729C23.8634 8.41828 24.201 9.2334 24.201 10.0833C24.201 12.375 21.275 14.2083 21.275 14.2083H20.725Z" stroke="#03BD28" stroke-width="1.83333"/>
</svg>
