<svg width="56" height="56" viewBox="0 0 56 56" fill="none" xmlns="http://www.w3.org/2000/svg">
<rect x="0.5" y="0.5" width="55" height="55" rx="3.5" stroke="#03BD28"/>
<g clip-path="url(#clip0_85205_1241)">
<path d="M31.5591 33.2786H34.1147V35.8343H31.5591V33.2786ZM40.3933 33.2786H42.949V35.8343H40.3933V33.2786ZM38.2495 24.2146V21.6602H34.7075V22.9044L36.0287 24.2158L38.2495 24.2146Z" fill="#03BD28"/>
<path d="M47.0081 38.0258V32.637H47.8208L48.5762 31.8903L39.6271 22.9411H38.5161V24.4921H35.9127L34.3617 22.9411H30.0644L21.1251 31.8805L21.8804 32.6358H23.077V38.0246H20.7413C17.2482 34.683 16.3193 27.104 16.6456 21.4659L16.7031 21.351H16.7312C18.259 21.351 19.6132 22.0917 20.4565 23.2333L20.4651 23.2455C21.1006 24.1047 21.4832 25.1864 21.4832 26.356C21.4832 27.1627 21.3023 27.9266 20.9772 28.6098L20.9906 28.578C21.6727 28.4034 22.3069 28.0776 22.846 27.6247L22.8386 27.6308C23.4002 27.1424 23.8503 26.539 24.1584 25.8614C24.4665 25.1839 24.6254 24.4481 24.6243 23.7038C24.6243 22.5366 24.2405 21.4598 23.5927 20.592L23.6025 20.6055C23.0467 19.8304 22.2607 19.2503 21.3562 18.9477C20.4517 18.6451 19.4748 18.6354 18.5645 18.92L18.5963 18.9115C18.9202 18.7098 19.293 18.5314 19.6853 18.3957L19.7244 18.3835C20.2577 18.1867 20.8219 18.087 21.3903 18.0889C22.714 18.0889 23.913 18.6181 24.7893 19.4749L24.7881 19.4737C24.9187 18.7882 24.8797 18.0812 24.6744 17.4143L24.683 17.4448C24.4803 16.8503 24.1587 16.3033 23.7379 15.8372C23.317 15.371 22.8056 14.9953 22.2349 14.7331C21.6642 14.4709 21.0461 14.3276 20.4182 14.312C19.7904 14.2964 19.1659 14.4088 18.5828 14.6423L18.6134 14.6313C18.3184 14.7326 18.0315 14.8564 17.7554 15.0016L17.7908 14.9845C17.7072 14.6023 17.5839 14.23 17.423 13.8735L17.4376 13.9089C16.3621 11.4975 13.8956 10.3584 11.9242 11.3545C11.3921 11.6271 10.9347 12.0257 10.592 12.5156L10.5846 12.5278C11.2786 12.5955 11.9471 12.8245 12.5368 13.1965C13.1266 13.5685 13.6212 14.0732 13.9812 14.6704L13.9922 14.6899C13.5351 14.4604 13.0509 14.2892 12.5512 14.1803L12.5096 14.1729C9.47851 13.5215 6.59407 15.1678 6.07707 17.8579C5.93893 18.5959 5.98468 19.3565 6.21029 20.0726L6.20173 20.0408C6.87927 19.271 7.75648 18.7035 8.73639 18.4011C9.71631 18.0987 10.7608 18.0731 11.7543 18.3273L11.7152 18.3187C12.2151 18.4238 12.6575 18.5754 13.0718 18.7746L13.0364 18.7587C12.0447 18.6259 11.036 18.7923 10.1395 19.2365C9.243 19.6808 8.49957 20.3826 8.00451 21.252L7.99107 21.2765C7.47423 22.1483 7.20268 23.1437 7.20518 24.1573C7.20518 26.0737 8.15484 27.7677 9.61051 28.7944L9.62884 28.8066C10.2546 29.2283 10.9696 29.4993 11.7176 29.5986L11.7433 29.601C11.2043 28.7074 10.9207 27.6831 10.9232 26.6396C10.9232 25.5726 11.2128 24.5728 11.7188 23.716L11.7042 23.7429C12.0798 23.0884 12.5952 22.5247 13.2135 22.0921C13.8319 21.6594 14.538 21.3684 15.2816 21.2398L15.3122 21.2349C13.5803 29.1219 13.1012 34.617 14.53 38.0234H10.3671V40.3211H49.6591V38.0234H47.0081V38.0258ZM37.2914 32.7617H46.0498V38.0258H37.2914V32.7617ZM24.0168 31.7179L30.0668 25.6679L36.1168 31.7179V38.0258H29.4741V33.2787H26.1142V38.0258H24.0095V31.7179H24.0168Z" fill="#03BD28"/>
</g>
<defs>
<clipPath id="clip0_85205_1241">
<rect width="44" height="29.3333" fill="white" transform="translate(6 11)"/>
</clipPath>
</defs>
</svg>
