<svg width="40" height="40" viewBox="0 0 40 40" fill="none" xmlns="http://www.w3.org/2000/svg">
<path d="M39.2433 11.7514C36.0118 11.5736 32.8059 12.4135 30.0767 14.153C29.4167 13.4014 28.7383 12.6497 28.0233 11.9347L27.4917 11.4397L27.7483 11.2197C28.6449 10.4501 29.2838 9.42397 29.5788 8.27983C29.8739 7.13569 29.8109 5.92857 29.3983 4.82136C28.8023 3.57136 27.8562 2.52132 26.6748 1.79882C25.4934 1.07631 24.1276 0.712424 22.7433 0.751363V4.41803C23.3956 4.40895 24.0385 4.57406 24.6057 4.89633C25.1729 5.21861 25.6439 5.68637 25.97 6.25136C26.2817 6.9847 25.97 7.79136 25.1083 8.65303L24.6867 9.03803C22.7745 7.44445 20.6751 6.09001 18.435 5.0047C13.7967 2.9147 11.4133 3.88636 10.24 5.0047C9.88315 5.36366 9.59706 5.78657 9.39666 6.25136L9.06666 7.22303L6.42666 15.1797C8.51666 20.3864 13.5767 29.6447 24.5767 33.6414L33.7433 30.598C34.0524 30.483 34.3248 30.2866 34.5317 30.0297L34.9167 29.6997C37.5383 27.0597 35.8517 21.9814 32.3317 17.0497C34.4218 15.8299 36.8284 15.2618 39.2433 15.418V11.7514ZM32.295 27.0964H32.185C30.92 27.7747 25.6767 26.0514 19.7367 20.1114C19.1133 19.488 18.5267 18.883 17.995 18.278C17.8117 18.0764 17.6467 17.8564 17.4633 17.6364L16.4917 16.463L15.9783 15.748C15.7217 15.3997 15.465 15.0514 15.245 14.7214C15.025 14.3914 14.9517 14.2447 14.805 14.0064C14.6583 13.768 14.4017 13.383 14.2367 13.0714C14.0717 12.7597 13.9983 12.6314 13.8883 12.393C13.7783 12.1547 13.5767 11.8797 13.4667 11.623C13.3567 11.3664 13.3017 11.2014 13.21 10.9997C13.1183 10.798 13.0083 10.5047 12.935 10.2664C12.8617 10.028 12.8433 9.91803 12.8067 9.7347C12.77 9.55136 12.6967 9.2947 12.66 9.11136C12.6512 8.96483 12.6512 8.8179 12.66 8.67136C12.6427 8.51294 12.6427 8.35312 12.66 8.1947L12.8617 7.62636C13.1733 7.29636 14.53 7.2047 16.95 8.3047C18.5662 9.08367 20.0962 10.03 21.515 11.128C20.7419 11.4681 19.9181 11.6787 19.0767 11.7514V15.418C21.0248 15.3098 22.9151 14.7175 24.5767 13.6947L25.475 14.538C26.2817 15.3264 26.9967 16.1147 27.6567 16.8664C26.5499 18.7508 26.1107 20.9532 26.41 23.118L30.0767 22.403C29.9516 21.712 29.9516 21.0041 30.0767 20.313C32.4417 23.9247 32.8817 26.528 32.295 27.0964ZM5.14333 19.0847L1.055 31.368C0.759917 32.2699 0.68244 33.2287 0.8289 34.1662C0.97536 35.1037 1.3416 35.9932 1.89768 36.7621C2.45376 37.531 3.18389 38.1573 4.02839 38.5899C4.87289 39.0226 5.80779 39.2492 6.75666 39.2514C7.38046 39.2456 7.99934 39.1404 8.59 38.9397L20.5433 34.9614C13.7969 31.5159 8.38161 25.933 5.14333 19.0847Z" fill="#BD85C2"/>
</svg>
