<svg width="44" height="44" viewBox="0 0 44 44" fill="none" xmlns="http://www.w3.org/2000/svg">
<path d="M29.6589 5.8667C29.3304 5.8667 28.3829 6.2979 28.3829 6.2979L18.6384 11.2259C17.3389 11.7392 16.8256 13.8102 17.6059 14.8456L20.4512 18.9758L8.80587 24.9275L14.6667 29.3275L22.0059 24.9275L29.3392 29.3275L32.2784 26.3883L23.4784 14.655L30.9789 10.167C32.5277 9.3867 32.2784 8.1019 32.2784 7.32163C32.2667 6.70563 31.2224 5.8667 29.6589 5.8667ZM35.9392 14.6667C35.2649 14.6661 34.5971 14.7984 33.9739 15.0559C33.3507 15.3134 32.7843 15.6911 32.3071 16.1675C31.8298 16.6439 31.4511 17.2097 31.1925 17.8324C30.934 18.4552 30.8006 19.1228 30.8 19.7971C30.7994 20.4714 30.9317 21.1392 31.1892 21.7624C31.4467 22.3856 31.8244 22.952 32.3008 23.4292C32.7772 23.9065 33.343 24.2852 33.9657 24.5438C34.5885 24.8023 35.2561 24.9357 35.9304 24.9363C37.2922 24.9375 38.5988 24.3976 39.5625 23.4355C40.5263 22.4733 41.0684 21.1677 41.0696 19.8059C41.0708 18.4441 40.5309 17.1375 39.5688 16.1738C38.6066 15.21 37.301 14.6679 35.9392 14.6667ZM7.33333 29.3334L0 33.7334V38.1334L7.33333 33.7334L14.6667 38.1334L22.0059 33.7334L29.3392 38.1334L35.2 33.7334L44 38.1334V33.7334L35.2 29.3334L29.3392 33.7334L22.0059 29.3334L14.6667 33.7334L7.33333 29.3334Z" fill="#7AD0EA"/>
</svg>
