<svg width="44" height="44" viewBox="0 0 44 44" fill="none" xmlns="http://www.w3.org/2000/svg">
<path d="M27.4998 33.9901C31.4048 33.3851 35.7498 33.0001 40.3332 33.0001V40.3334H9.1665C9.1665 39.1418 15.0332 36.4101 23.8332 34.6501V22.7334C22.2932 23.1918 20.9915 24.2184 20.1665 25.5751C19.5979 24.6237 18.7922 23.8361 17.8282 23.2892C16.8642 22.7423 15.7748 22.4548 14.6665 22.4548C13.5582 22.4548 12.4688 22.7423 11.5048 23.2892C10.5408 23.8361 9.73512 24.6237 9.1665 25.5751C9.2215 19.0118 15.5832 13.6217 23.8332 12.9067V12.8334C23.8332 12.3472 24.0263 11.8809 24.3701 11.5371C24.714 11.1932 25.1803 11.0001 25.6665 11.0001C26.1527 11.0001 26.619 11.1932 26.9629 11.5371C27.3067 11.8809 27.4998 12.3472 27.4998 12.8334V12.9067C35.7498 13.6217 42.0932 19.0118 42.1665 25.5751C41.5979 24.6237 40.7922 23.8361 39.8282 23.2892C38.8642 22.7423 37.7748 22.4548 36.6665 22.4548C35.5582 22.4548 34.4688 22.7423 33.5048 23.2892C32.5408 23.8361 31.7351 24.6237 31.1665 25.5751C30.3415 24.2184 29.0398 23.1918 27.4998 22.7151V33.9901ZM12.8332 3.66675C12.8332 4.87053 12.5961 6.06253 12.1354 7.17468C11.6747 8.28683 10.9995 9.29736 10.1483 10.1486C9.29711 10.9998 8.28659 11.675 7.17444 12.1356C6.06228 12.5963 4.87029 12.8334 3.6665 12.8334V3.66675H12.8332Z" fill="#7AD0EA"/>
</svg>
