<svg width="24" height="24" viewBox="0 0 24 24" fill="none" xmlns="http://www.w3.org/2000/svg">
<path d="M15 21H21V20.175C20.5833 19.7917 20.1166 19.5 19.6 19.3C19.0833 19.1 18.5499 19 18 19C17.45 19 16.9166 19.1 16.4 19.3C15.8833 19.5 15.4166 19.7917 15 20.175V21ZM18 18C18.4166 18 18.771 17.8543 19.063 17.563C19.3549 17.2717 19.5006 16.9173 19.5 16.5C19.4993 16.0827 19.3536 15.7287 19.063 15.438C18.7723 15.1473 18.4179 15.0013 18 15C17.582 14.9987 17.228 15.1447 16.938 15.438C16.648 15.7313 16.502 16.0853 16.5 16.5C16.498 16.9147 16.644 17.269 16.938 17.563C17.232 17.857 17.586 18.0027 18 18ZM12.05 8.5C11.0833 8.5 10.2583 8.84167 9.57495 9.525C8.89162 10.2083 8.54995 11.0333 8.54995 12C8.54995 12.8 8.77495 13.5 9.22495 14.1C9.67495 14.7 10.2666 15.1167 11 15.35C11 14.9667 11.0043 14.6 11.013 14.25C11.0216 13.9 11.0923 13.5833 11.225 13.3C10.9916 13.1667 10.821 12.9833 10.713 12.75C10.605 12.5167 10.5506 12.2667 10.55 12C10.55 11.5833 10.696 11.2293 10.988 10.938C11.28 10.6467 11.634 10.5007 12.05 10.5C12.3 10.5 12.5376 10.5627 12.763 10.688C12.9883 10.8133 13.1756 10.984 13.325 11.2C13.5083 11.1167 13.7 11.0583 13.9 11.025C14.1 10.9917 14.3 10.975 14.5 10.975H15.4C15.1833 10.2583 14.771 9.66667 14.163 9.2C13.555 8.73333 12.8506 8.5 12.05 8.5ZM9.24995 22L8.84995 18.8C8.63329 18.7167 8.42928 18.6167 8.23795 18.5C8.04662 18.3833 7.85895 18.2583 7.67495 18.125L4.69995 19.375L1.94995 14.625L4.52495 12.675C4.50828 12.5583 4.49995 12.446 4.49995 12.338V11.663C4.49995 11.5543 4.50828 11.4417 4.52495 11.325L1.94995 9.375L4.69995 4.625L7.67495 5.875C7.85828 5.74167 8.04995 5.61667 8.24995 5.5C8.44995 5.38333 8.64995 5.28333 8.84995 5.2L9.24995 2H14.75L15.15 5.2C15.3666 5.28333 15.571 5.38333 15.763 5.5C15.955 5.61667 16.1423 5.74167 16.325 5.875L19.2999 4.625L22.0499 9.375L19.9249 11H17.4C17.3833 10.9167 17.3666 10.8293 17.35 10.738C17.3333 10.6467 17.3083 10.559 17.275 10.475L19.4249 8.85L18.45 7.15L15.975 8.2C15.6083 7.81667 15.204 7.496 14.762 7.238C14.32 6.98 13.841 6.784 13.325 6.65L13 4H11.025L10.675 6.65C10.1583 6.78333 9.67928 6.97933 9.23795 7.238C8.79662 7.49667 8.39228 7.809 8.02495 8.175L5.54995 7.15L4.57495 8.85L6.72495 10.45C6.64162 10.7 6.58328 10.95 6.54995 11.2C6.51662 11.45 6.49995 11.7167 6.49995 12C6.49995 12.2667 6.51662 12.525 6.54995 12.775C6.58328 13.025 6.64162 13.275 6.72495 13.525L4.57495 15.15L5.54995 16.85L8.02495 15.8C8.42495 16.2167 8.87495 16.5667 9.37495 16.85C9.87495 17.1333 10.4166 17.3167 11 17.4V22H9.24995ZM14.5 23C14.0833 23 13.7293 22.8543 13.438 22.563C13.1466 22.2717 13.0006 21.9173 13 21.5V14.5C13 14.0833 13.146 13.7293 13.438 13.438C13.73 13.1467 14.084 13.0007 14.5 13H21.5C21.9166 13 22.271 13.146 22.563 13.438C22.8549 13.73 23.0006 14.084 23 14.5V21.5C23 21.9167 22.8543 22.271 22.563 22.563C22.2716 22.855 21.9173 23.0007 21.5 23H14.5Z" fill="#808D8E"/>
</svg>
