<svg width="20" height="20" viewBox="0 0 20 20" fill="none" xmlns="http://www.w3.org/2000/svg">
<g clip-path="url(#clip0_2161_1056)">
<path d="M1.66663 17.5833C1.25241 17.5833 0.916626 17.9191 0.916626 18.3333C0.916626 18.7475 1.25241 19.0833 1.66663 19.0833V17.5833ZM5.60181 5.54325C5.1876 5.54325 4.85181 5.87903 4.85181 6.29325C4.85181 6.70746 5.1876 7.04325 5.60181 7.04325V5.54325ZM6.52774 7.04325C6.94195 7.04325 7.27774 6.70746 7.27774 6.29325C7.27774 5.87903 6.94195 5.54325 6.52774 5.54325V7.04325ZM5.60181 8.7848C5.1876 8.7848 4.85181 9.12058 4.85181 9.5348C4.85181 9.94901 5.1876 10.2848 5.60181 10.2848V8.7848ZM6.52774 10.2848C6.94195 10.2848 7.27774 9.94901 7.27774 9.5348C7.27774 9.12058 6.94195 8.7848 6.52774 8.7848V10.2848ZM8.84255 5.54325C8.42834 5.54325 8.09255 5.87903 8.09255 6.29325C8.09255 6.70746 8.42834 7.04325 8.84255 7.04325V5.54325ZM9.76848 7.04325C10.1827 7.04325 10.5185 6.70746 10.5185 6.29325C10.5185 5.87903 10.1827 5.54325 9.76848 5.54325V7.04325ZM8.84255 8.7848C8.42834 8.7848 8.09255 9.12058 8.09255 9.5348C8.09255 9.94901 8.42834 10.2848 8.84255 10.2848V8.7848ZM9.76848 10.2848C10.1827 10.2848 10.5185 9.94901 10.5185 9.5348C10.5185 9.12058 10.1827 8.7848 9.76848 8.7848V10.2848ZM18.3333 19.0833C18.7475 19.0833 19.0833 18.7475 19.0833 18.3333C19.0833 17.9191 18.7475 17.5833 18.3333 17.5833V19.0833ZM5.09634 2.55711L5.21967 3.2969L5.09634 2.55711ZM10.2739 1.69396L10.1506 0.954171L10.1506 0.954171L10.2739 1.69396ZM10.6545 1.67027L10.5932 2.41777H10.5932L10.6545 1.67027ZM4.71584 2.59643L4.6546 1.84893L4.71584 2.59643ZM1.66663 18.3333V19.0833H2.59255V18.3333V17.5833H1.66663V18.3333ZM2.59255 18.3333V19.0833H5.83329V18.3333V17.5833H2.59255V18.3333ZM5.83329 18.3333V19.0833H9.537V18.3333V17.5833H5.83329V18.3333ZM9.537 18.3333V19.0833H12.7777V18.3333V17.5833H9.537V18.3333ZM5.83329 18.3333H6.58329V14.6287H5.83329H5.08329V18.3333H5.83329ZM7.22218 13.2394V13.9894H8.14811V13.2394V12.4894H7.22218V13.2394ZM9.537 14.6287H8.787V18.3333H9.537H10.287V14.6287H9.537ZM8.14811 13.2394V13.9894C8.50078 13.9894 8.787 14.2754 8.787 14.6287H9.537H10.287C10.287 13.4474 9.32956 12.4894 8.14811 12.4894V13.2394ZM5.83329 14.6287H6.58329C6.58329 14.2754 6.86951 13.9894 7.22218 13.9894V13.2394V12.4894C6.04073 12.4894 5.08329 13.4474 5.08329 14.6287H5.83329ZM5.60181 6.29325V7.04325H6.52774V6.29325V5.54325H5.60181V6.29325ZM5.60181 9.5348V10.2848H6.52774V9.5348V8.7848H5.60181V9.5348ZM8.84255 6.29325V7.04325H9.76848V6.29325V5.54325H8.84255V6.29325ZM8.84255 9.5348V10.2848H9.76848V9.5348V8.7848H8.84255V9.5348ZM12.7777 18.3333V19.0833H18.3333V18.3333V17.5833H12.7777V18.3333ZM17.8703 11.3871H17.1203V13.2394H17.8703H18.6203V11.3871H17.8703ZM15.0926 13.2394H15.8426V11.3871H15.0926H14.3426V13.2394H15.0926ZM16.4814 18.3333H17.2314V14.6287H16.4814H15.7314V18.3333H16.4814ZM15.0926 13.2394H14.3426C14.3426 14.4207 15.3 15.3787 16.4814 15.3787V14.6287V13.8787C16.1288 13.8787 15.8426 13.5926 15.8426 13.2394H15.0926ZM17.8703 13.2394H17.1203C17.1203 13.5926 16.8341 13.8787 16.4814 13.8787V14.6287V15.3787C17.6629 15.3787 18.6203 14.4207 18.6203 13.2394H17.8703ZM16.4814 9.99788V10.7479C16.8341 10.7479 17.1203 11.0339 17.1203 11.3871H17.8703H18.6203C18.6203 10.2058 17.6629 9.24788 16.4814 9.24788V9.99788ZM16.4814 9.99788V9.24788C15.3 9.24788 14.3426 10.2058 14.3426 11.3871H15.0926H15.8426C15.8426 11.0339 16.1288 10.7479 16.4814 10.7479V9.99788ZM2.59255 18.3333H3.34255V4.90401H2.59255H1.84255V18.3333H2.59255ZM5.09634 2.55711L5.21967 3.2969L10.3973 2.43375L10.2739 1.69396L10.1506 0.954171L4.97301 1.81732L5.09634 2.55711ZM10.6545 1.67027L10.5932 2.41777C11.3959 2.48353 12.0277 3.15713 12.0277 3.97785H12.7777H13.5277C13.5277 2.37008 12.2906 1.0518 10.7157 0.922774L10.6545 1.67027ZM2.59255 4.90401H3.34255C3.34255 4.08329 3.97435 3.40969 4.77708 3.34392L4.71584 2.59643L4.6546 1.84893C3.07966 1.97796 1.84255 3.29623 1.84255 4.90401H2.59255ZM10.2739 1.69396L10.3973 2.43375C10.4963 2.41725 10.5547 2.41461 10.5932 2.41777L10.6545 1.67027L10.7157 0.922774C10.5001 0.905109 10.3032 0.928739 10.1506 0.954171L10.2739 1.69396ZM5.09634 2.55711L4.97301 1.81732C4.887 1.83166 4.80283 1.83679 4.6546 1.84893L4.71584 2.59643L4.77708 3.34392C4.883 3.33525 5.05415 3.3245 5.21967 3.2969L5.09634 2.55711ZM2.59255 18.3333V19.0833H12.7777V18.3333V17.5833H2.59255V18.3333ZM12.7777 3.97785H12.0277V18.3333H12.7777H13.5277V3.97785H12.7777Z" fill="#E5F7F9"/>
</g>
<defs>
<clipPath id="clip0_2161_1056">
<rect width="20" height="20" fill="white"/>
</clipPath>
</defs>
</svg>
