<svg width="24" height="24" viewBox="0 0 24 24" fill="none" xmlns="http://www.w3.org/2000/svg">
<path d="M18 22V22.75C18.4142 22.75 18.75 22.4142 18.75 22H18ZM6 22H5.25C5.25 22.4142 5.58579 22.75 6 22.75V22ZM10 2V2.75H14V2V1.25H10V2ZM18 6H17.25V22H18H18.75V6H18ZM18 22V21.25H6V22V22.75H18V22ZM6 22H6.75V6H6H5.25V22H6ZM14 2V2.75C14.964 2.75 15.6116 2.75159 16.0946 2.81654C16.5561 2.87858 16.7536 2.9858 16.8839 3.11612L17.4142 2.58579L17.9445 2.05546C17.4891 1.59999 16.9223 1.41432 16.2945 1.32991C15.6883 1.24841 14.9216 1.25 14 1.25V2ZM18 6H18.75C18.75 5.07839 18.7516 4.31174 18.6701 3.70552C18.5857 3.07773 18.4 2.51093 17.9445 2.05546L17.4142 2.58579L16.8839 3.11612C17.0142 3.24643 17.1214 3.44393 17.1835 3.90539C17.2484 4.38843 17.25 5.03599 17.25 6H18ZM10 2V1.25C9.07839 1.25 8.31174 1.24841 7.70552 1.32991C7.07773 1.41432 6.51093 1.59999 6.05546 2.05546L6.58579 2.58579L7.11612 3.11612C7.24643 2.9858 7.44393 2.87858 7.90539 2.81654C8.38843 2.75159 9.03599 2.75 10 2.75V2ZM6 6H6.75C6.75 5.03599 6.75159 4.38843 6.81654 3.90539C6.87858 3.44393 6.9858 3.24643 7.11612 3.11612L6.58579 2.58579L6.05546 2.05546C5.59999 2.51093 5.41432 3.07773 5.32991 3.70552C5.24841 4.31174 5.25 5.07839 5.25 6H6ZM3 22V22.75H21V22V21.25H3V22ZM9 5H8.25V8H9H9.75V5H9ZM9 10H8.25V13H9H9.75V10H9ZM9 15H8.25V18H9H9.75V15H9ZM12 5H11.25V8H12H12.75V5H12ZM12 10H11.25V13H12H12.75V10H12ZM12 15H11.25V18H12H12.75V15H12ZM15 5H14.25V8H15H15.75V5H15ZM15 10H14.25V13H15H15.75V10H15ZM15 15H14.25V18H15H15.75V15H15Z" fill="#5E6464"/>
</svg>
