<svg width="25" height="24" viewBox="0 0 25 24" fill="none" xmlns="http://www.w3.org/2000/svg">
<path d="M2.5 21H21.9626M6.825 17.3941L5.20312 21M6.825 17.3941L4.12186 14.8184M6.825 17.3941H12.2313M20.8813 21L19.4971 18.6918C19.0158 17.8893 18.1202 17.3941 17.1501 17.3941H12.2313M3.0406 13.7882L4.12186 14.8184M4.12186 14.8184H8.76955C9.59072 14.8184 10.3674 15.1741 10.8803 15.7851L12.2313 17.3941M10.6609 8.18626C10.757 7.44778 11.0463 6.73946 11.5125 6.10175C11.9787 5.46404 12.6126 4.90943 13.378 4.46957C14.0457 4.08585 14.8021 3.79602 15.6137 3.61209M10.6609 8.18626L7.97832 7.86959C7.68201 7.83461 7.46849 7.57626 7.53908 7.29982C7.68093 6.7443 7.93486 6.21215 8.29336 5.72175C8.75955 5.08404 9.39343 4.52942 10.1588 4.08957C10.9242 3.64972 11.8061 3.33325 12.7542 3.15822C13.1808 3.07946 13.617 3.03003 14.0577 3.0101C14.5964 2.98573 15.1418 3.00543 15.6843 3.06947C16.2268 3.13352 16.7607 3.24122 17.2769 3.3901C17.6992 3.5119 18.1096 3.66127 18.5031 3.83685C19.3777 4.22703 20.1519 4.73899 20.7815 5.34352C21.4111 5.94804 21.8838 6.63327 22.1725 7.3601C22.3946 7.91904 22.5046 8.49415 22.4999 9.06586C22.4975 9.35035 22.2243 9.55125 21.928 9.51627L19.2453 9.1996M10.6609 8.18626L14.9531 8.69293M19.2453 9.1996C19.3414 8.46112 19.2422 7.70693 18.9534 6.9801C18.6646 6.25327 18.1919 5.56803 17.5623 4.96351C17.0131 4.43613 16.3538 3.97918 15.6137 3.61209M19.2453 9.1996L14.9531 8.69293M15.6137 3.61209L14.9531 8.69293M14.9531 8.69293L13.5343 21" stroke="#5E6464" stroke-width="1.5" stroke-linecap="round"/>
</svg>
