<svg width="25" height="24" viewBox="0 0 25 24" fill="none" xmlns="http://www.w3.org/2000/svg">
<path d="M14.4841 9.60292L14.3466 8.86563L14.4841 9.60292ZM13.8702 9.41416L14.4009 8.88417L13.8702 9.41416ZM9.67474 10.0711L10.3598 10.3763L9.67474 10.0711ZM9.13923 10.4757L9.01228 9.73654L9.13923 10.4757ZM11.836 6.23752C12.0285 6.60426 12.4819 6.74548 12.8487 6.55294C13.2154 6.3604 13.3566 5.90701 13.1641 5.54026L11.836 6.23752ZM12.3709 5.64287L11.7068 5.9915L11.7068 5.9915L12.3709 5.64287ZM12.48 3.97302L13.0945 4.40311L13.0945 4.40311L12.48 3.97302ZM12.52 3.91587L11.9056 3.48578L11.9056 3.48578L12.52 3.91587ZM12.6292 2.24602L11.9651 2.59464V2.59464L12.6292 2.24602ZM13.1641 1.65137C12.9715 1.28463 12.5182 1.14341 12.1514 1.33595C11.7847 1.52849 11.6434 1.98188 11.836 2.34863L13.1641 1.65137ZM8.33598 6.79307C8.52852 7.15981 8.98191 7.30103 9.34866 7.10849C9.7154 6.91595 9.85662 6.46256 9.66408 6.09582L8.33598 6.79307ZM8.87087 6.19843L8.20682 6.54705L8.20682 6.54705L8.87087 6.19843ZM8.98003 4.52857L9.59446 4.95867L9.59446 4.95867L8.98003 4.52857ZM9.02003 4.47143L8.40561 4.04133L8.40561 4.04133L9.02003 4.47143ZM9.79324 2.45295C9.6007 2.0862 9.14731 1.94498 8.78057 2.13752C8.41382 2.33007 8.2726 2.78345 8.46514 3.1502L9.79324 2.45295ZM15.336 6.79307C15.5285 7.15981 15.9819 7.30103 16.3487 7.10849C16.7154 6.91595 16.8566 6.46256 16.6641 6.09582L15.336 6.79307ZM15.8709 6.19843L16.5349 5.8498L16.5349 5.8498L15.8709 6.19843ZM15.98 4.52857L16.5945 4.95867L16.5945 4.95866L15.98 4.52857ZM16.02 4.47143L15.4056 4.04133L15.4056 4.04134L16.02 4.47143ZM16.1292 2.80157L15.4651 3.1502L15.4651 3.1502L16.1292 2.80157ZM16.6641 2.20693C16.4715 1.84019 16.0182 1.69897 15.6514 1.89151C15.2847 2.08405 15.1434 2.53744 15.336 2.90418L16.6641 2.20693ZM8 12.2222V12.9722H17V12.2222V11.4722H8V12.2222ZM13 22V21.25H12V22V22.75H13V22ZM12 22V21.25C8.73888 21.25 6.25 18.9184 6.25 16.2222H5.5H4.75C4.75 19.908 8.08142 22.75 12 22.75V22ZM19.5 16.2222H18.75C18.75 18.9184 16.2611 21.25 13 21.25V22V22.75C16.9186 22.75 20.25 19.908 20.25 16.2222H19.5ZM17 12.2222V12.9722C18.052 12.9722 18.75 13.712 18.75 14.4444H19.5H20.25C20.25 12.7223 18.7094 11.4722 17 11.4722V12.2222ZM8 12.2222V11.4722C6.29056 11.4722 4.75 12.7223 4.75 14.4444H5.5H6.25C6.25 13.712 6.94802 12.9722 8 12.9722V12.2222ZM15 9.55556V10.3056C16.052 10.3056 16.75 11.0453 16.75 11.7778H17.5H18.25C18.25 10.0557 16.7094 8.80556 15 8.80556V9.55556ZM9.67474 10.0711L10.3598 10.3763C10.5942 9.85013 11.2108 9.41667 12 9.41667V8.66667V7.91667C10.6775 7.91667 9.48821 8.64678 8.98966 9.76584L9.67474 10.0711ZM14.4841 9.60292L14.6216 10.3402C14.7428 10.3176 14.8693 10.3056 15 10.3056V9.55556V8.80556C14.777 8.80556 14.5584 8.82615 14.3466 8.86563L14.4841 9.60292ZM12 8.66667V9.41667C12.5508 9.41667 13.0263 9.63055 13.3395 9.94416L13.8702 9.41416L14.4009 8.88417C13.7981 8.28068 12.9373 7.91667 12 7.91667V8.66667ZM17.5 11.7778H16.75C16.75 11.8732 16.7392 11.9658 16.7188 12.0552L17.45 12.2222L18.1812 12.3892C18.2263 12.1914 18.25 11.9868 18.25 11.7778H17.5ZM7.5 12.2222H8.25C8.25 11.7792 8.63922 11.3226 9.26618 11.2149L9.13923 10.4757L9.01228 9.73654C7.86943 9.93283 6.75 10.8596 6.75 12.2222H7.5ZM14.4841 9.60292L14.3466 8.86563C14.3595 8.86324 14.3683 8.86474 14.3738 8.86644C14.3791 8.86807 14.389 8.87228 14.4009 8.88417L13.8702 9.41416L13.3395 9.94416C13.6718 10.2769 14.1563 10.427 14.6216 10.3402L14.4841 9.60292ZM9.67474 10.0711L8.98966 9.76584C8.9984 9.74621 9.0078 9.73884 9.00899 9.73794C9.01017 9.73705 9.01055 9.73684 9.01228 9.73654L9.13923 10.4757L9.26618 11.2149C9.73151 11.135 10.1574 10.8306 10.3598 10.3763L9.67474 10.0711ZM5.5 16.2222H6.25V15.3333H5.5H4.75V16.2222H5.5ZM5.5 15.3333H6.25V14.4444H5.5H4.75V15.3333H5.5ZM19.5 14.4444H18.75V15.3333H19.5H20.25V14.4444H19.5ZM19.5 15.3333H18.75V16.2222H19.5H20.25V15.3333H19.5ZM5.5 15.3333V16.0833H19.5V15.3333V14.5833H5.5V15.3333ZM12.5 5.88889L13.1641 5.54026L13.0349 5.29425L12.3709 5.64287L11.7068 5.9915L11.836 6.23752L12.5 5.88889ZM12.48 3.97302L13.0945 4.40311L13.1345 4.34597L12.52 3.91587L11.9056 3.48578L11.8656 3.54292L12.48 3.97302ZM12.6292 2.24602L13.2932 1.89739L13.1641 1.65137L12.5 2L11.836 2.34863L11.9651 2.59464L12.6292 2.24602ZM12.52 3.91587L13.1345 4.34597C13.6426 3.62004 13.7054 2.68246 13.2932 1.89739L12.6292 2.24602L11.9651 2.59464C12.1147 2.87948 12.0942 3.21642 11.9056 3.48578L12.52 3.91587ZM12.3709 5.64287L13.0349 5.29425C12.8854 5.00941 12.9059 4.67247 13.0945 4.40311L12.48 3.97302L11.8656 3.54292C11.3575 4.26885 11.2947 5.20643 11.7068 5.9915L12.3709 5.64287ZM9.00003 6.44444L9.66408 6.09582L9.53492 5.8498L8.87087 6.19843L8.20682 6.54705L8.33598 6.79307L9.00003 6.44444ZM8.98003 4.52857L9.59446 4.95867L9.63446 4.90152L9.02003 4.47143L8.40561 4.04133L8.36561 4.09848L8.98003 4.52857ZM9.02003 4.47143L9.63446 4.90153C10.1426 4.1756 10.2054 3.23802 9.79324 2.45295L9.12919 2.80157L8.46514 3.1502C8.61468 3.43503 8.59416 3.77197 8.40561 4.04133L9.02003 4.47143ZM8.87087 6.19843L9.53492 5.8498C9.38538 5.56497 9.4059 5.22803 9.59446 4.95867L8.98003 4.52857L8.36561 4.09847C7.85746 4.8244 7.79466 5.76198 8.20682 6.54705L8.87087 6.19843ZM16 6.44444L16.6641 6.09582L16.5349 5.8498L15.8709 6.19843L15.2068 6.54705L15.336 6.79307L16 6.44444ZM15.98 4.52857L16.5945 4.95866L16.6345 4.90152L16.02 4.47143L15.4056 4.04134L15.3656 4.09848L15.98 4.52857ZM16.1292 2.80157L16.7932 2.45295L16.6641 2.20693L16 2.55556L15.336 2.90418L15.4651 3.1502L16.1292 2.80157ZM16.02 4.47143L16.6345 4.90153C17.1426 4.1756 17.2054 3.23802 16.7932 2.45295L16.1292 2.80157L15.4651 3.1502C15.6147 3.43503 15.5942 3.77197 15.4056 4.04133L16.02 4.47143ZM15.8709 6.19843L16.5349 5.8498C16.3854 5.56497 16.4059 5.22803 16.5945 4.95867L15.98 4.52857L15.3656 4.09847C14.8575 4.8244 14.7947 5.76198 15.2068 6.54705L15.8709 6.19843Z" fill="#E5F7F9"/>
</svg>
