<svg width="25" height="24" viewBox="0 0 25 24" fill="none" xmlns="http://www.w3.org/2000/svg">
<path d="M5.50244 7.47555L5.97096 8.0612L5.97096 8.0612L5.50244 7.47555ZM7.50244 5.87555L7.03392 5.2899H7.03392L7.50244 5.87555ZM17.4976 5.87555L17.9661 5.2899L17.4976 5.87555ZM19.4976 7.47555L19.9661 6.8899L19.4976 7.47555ZM3.67157 20.8284L4.2019 20.2981H4.2019L3.67157 20.8284ZM22.1052 10.0672L21.4292 10.3921L22.1052 10.0672ZM2.89479 10.0672L2.21881 9.74235H2.21881L2.89479 10.0672ZM22.5 13.7225H21.75V13.8775H22.5H23.25V13.7225H22.5ZM14.5 22V21.25H10.5V22V22.75H14.5V22ZM2.5 13.8775H3.25V13.7225H2.5H1.75V13.8775H2.5ZM5.50244 7.47555L5.97096 8.0612L7.97096 6.4612L7.50244 5.87555L7.03392 5.2899L5.03392 6.8899L5.50244 7.47555ZM17.4976 5.87555L17.029 6.4612L19.029 8.0612L19.4976 7.47555L19.9661 6.8899L17.9661 5.2899L17.4976 5.87555ZM7.50244 5.87555L7.97096 6.4612C9.1836 5.49109 10.0414 4.80648 10.7683 4.35665C11.4779 3.91757 11.9898 3.75 12.5 3.75V3V2.25C11.6071 2.25 10.8184 2.56169 9.97899 3.08113C9.15697 3.58982 8.21757 4.34298 7.03392 5.2899L7.50244 5.87555ZM17.4976 5.87555L17.9661 5.2899C16.7824 4.34298 15.843 3.58982 15.021 3.08113C14.1816 2.56169 13.3929 2.25 12.5 2.25V3V3.75C13.0102 3.75 13.5221 3.91757 14.2317 4.35665C14.9586 4.80648 15.8164 5.49109 17.029 6.4612L17.4976 5.87555ZM10.5 22V21.25C8.59318 21.25 7.23851 21.2484 6.21085 21.1102C5.20476 20.975 4.62511 20.7213 4.2019 20.2981L3.67157 20.8284L3.14124 21.3588C3.88961 22.1071 4.83856 22.4392 6.01098 22.5969C7.16182 22.7516 8.63558 22.75 10.5 22.75V22ZM2.5 13.8775H1.75C1.75 15.743 1.74851 17.2454 1.90278 18.4251C2.05889 19.6189 2.38747 20.605 3.14124 21.3588L3.67157 20.8284L4.2019 20.2981C3.78411 19.8803 3.5269 19.2766 3.39011 18.2306C3.25149 17.1705 3.25 15.7833 3.25 13.8775H2.5ZM22.5 13.8775H21.75C21.75 15.7833 21.7485 17.1705 21.6099 18.2306C21.4731 19.2766 21.2159 19.8803 20.7981 20.2981L21.3284 20.8284L21.8588 21.3588C22.6125 20.605 22.9411 19.6189 23.0972 18.4251C23.2515 17.2454 23.25 15.743 23.25 13.8775H22.5ZM14.5 22V22.75C16.3644 22.75 17.8382 22.7516 18.989 22.5969C20.1614 22.4392 21.1104 22.1071 21.8588 21.3588L21.3284 20.8284L20.7981 20.2981C20.3749 20.7213 19.7952 20.975 18.7892 21.1102C17.7615 21.2484 16.4068 21.25 14.5 21.25V22ZM22.5 13.7225H23.25C23.25 11.9053 23.2673 10.7539 22.7812 9.74235L22.1052 10.0672L21.4292 10.3921C21.7327 11.0234 21.75 11.7612 21.75 13.7225H22.5ZM19.4976 7.47555L19.029 8.0612C20.5605 9.2864 21.1258 9.76084 21.4292 10.3921L22.1052 10.0672L22.7812 9.74235C22.295 8.73084 21.385 8.02507 19.9661 6.8899L19.4976 7.47555ZM2.5 13.7225H3.25C3.25 11.7612 3.26735 11.0234 3.57076 10.3921L2.89479 10.0672L2.21881 9.74235C1.73265 10.7539 1.75 11.9053 1.75 13.7225H2.5ZM5.50244 7.47555L5.03392 6.8899C3.61494 8.02508 2.70497 8.73084 2.21881 9.74235L2.89479 10.0672L3.57076 10.3921C3.87418 9.76084 4.43945 9.28641 5.97096 8.0612L5.50244 7.47555ZM8 5.5H8.75V3H8H7.25V5.5H8ZM7 2V1.25H5V2V2.75H7V2ZM4 3H3.25V9H4H4.75V3H4ZM5 2V1.25C4.0335 1.25 3.25 2.0335 3.25 3H4H4.75C4.75 2.86193 4.86193 2.75 5 2.75V2ZM8 3H8.75C8.75 2.0335 7.9665 1.25 7 1.25V2V2.75C7.13807 2.75 7.25 2.86193 7.25 3H8ZM9.5 22H10.25V15.5H9.5H8.75V22H9.5ZM10 15V15.75H15V15V14.25H10V15ZM15.5 15.5H14.75V22H15.5H16.25V15.5H15.5ZM15 15V15.75C14.8619 15.75 14.75 15.6381 14.75 15.5H15.5H16.25C16.25 14.8096 15.6904 14.25 15 14.25V15ZM9.5 15.5H10.25C10.25 15.6381 10.1381 15.75 10 15.75V15V14.25C9.30964 14.25 8.75 14.8096 8.75 15.5H9.5ZM5.5 7.5V8.25H19.5V7.5V6.75H5.5V7.5ZM3 12V12.75H22V12V11.25H3V12ZM3 17.5V18.25H9.5V17.5V16.75H3V17.5ZM15.5 17.5V18.25H22.5V17.5V16.75H15.5V17.5Z" fill="#5E6464"/>
</svg>
