<svg width="25" height="24" viewBox="0 0 25 24" fill="none" xmlns="http://www.w3.org/2000/svg">
<path d="M3.25741 17.3178C3.75845 17.3668 4.33191 16.8647 4.61468 16.0859C4.93649 15.1996 4.75995 14.2907 4.22038 14.0558M3.25741 17.3178C3.18825 17.311 3.12048 17.2937 3.05504 17.2652M3.25741 17.3178L3.05504 17.2652M3.25741 17.3178L6.79569 18.2362M3.05504 17.2652C2.51547 17.0303 2.33893 16.1214 2.66074 15.2352C2.98254 14.3489 3.68082 13.8209 4.22038 14.0558M4.22038 14.0558L6.86717 14.8471M21.7426 17.3178C21.2416 17.3668 20.6681 16.8647 20.3853 16.0859C20.0635 15.1996 20.24 14.2907 20.7796 14.0558M21.7426 17.3178C21.8117 17.311 21.8795 17.2937 21.945 17.2652M21.7426 17.3178L21.945 17.2652M21.7426 17.3178L18.2043 18.2362M21.945 17.2652C22.4845 17.0303 22.6611 16.1214 22.3393 15.2352C22.0175 14.3489 21.3192 13.8209 20.7796 14.0558M20.7796 14.0558L17.9612 14.8984M6.86717 14.8471L12.5 16.5309M6.86717 14.8471C6.01361 13.8084 5.5 12.4716 5.5 11.0129C5.5 8.29548 9.4811 3.69035 10.8999 2.13542C11.1193 1.89494 11.515 1.99255 11.6551 2.28796C12.0077 3.29392 12.631 4.19393 13.3381 5.0396C13.4922 5.22391 13.7756 5.20722 13.9012 5.00172C14.145 4.60267 14.3513 4.18569 14.499 3.74477C14.6128 3.49367 14.9343 3.4107 15.1126 3.61511C16.2654 4.9368 19.5 8.85116 19.5 11.1609C19.5 12.6383 18.9075 13.9687 17.9612 14.8984M12.5 16.5309L17.9612 14.8984M12.5 16.5309L18.2043 18.2362M18.2043 18.2362L22.0559 19.3876C22.4876 19.5756 22.6289 20.3027 22.3714 21.0118C22.1139 21.7208 21.5553 22.1433 21.1236 21.9553L12.5 19.7169M12.5 19.7169L3.87641 21.9553C3.44472 22.1433 2.88606 21.7208 2.6286 21.0118C2.37114 20.3027 2.51238 19.5756 2.94406 19.3876L6.79569 18.2362M12.5 19.7169L6.79569 18.2362M12.6053 14C11.4426 14 10.5 13.1065 10.5 12.0043C10.5 11.0985 11.9218 9.56345 12.4285 9.04514C12.5069 8.96498 12.6482 8.99752 12.6983 9.09599C12.8034 9.37595 12.9759 9.6313 13.177 9.87204C13.2883 10.0053 13.5126 9.99365 13.5946 9.84415C13.6411 9.75934 13.6815 9.67197 13.7139 9.58159C13.7546 9.49789 13.8694 9.47023 13.9331 9.53837C14.3448 9.97893 15.5 11.2837 15.5 12.0536C15.5 12.9905 14.7342 13.75 13.7895 13.75C13.7693 13.75 13.7492 13.7497 13.7292 13.749C13.6702 13.7469 13.6115 13.7586 13.5594 13.7837C13.273 13.922 12.9487 14 12.6053 14Z" stroke="#5E6464" stroke-width="1.5" stroke-linecap="round"/>
</svg>
