<svg width="24" height="24" viewBox="0 0 24 24" fill="none" xmlns="http://www.w3.org/2000/svg">
<path d="M19.4142 21.4142L18.8839 20.8839L18.8839 20.8839L19.4142 21.4142ZM4.58579 21.4142L5.11612 20.8839H5.11612L4.58579 21.4142ZM11.0769 18.2154L11.7692 18.5038L11.0769 18.2154ZM12.9231 18.2154L12.2308 18.5038L12.9231 18.2154ZM7.75 10.5C7.75 10.0858 7.41421 9.75 7 9.75C6.58579 9.75 6.25 10.0858 6.25 10.5H7.75ZM2 10.5L1.51426 9.92854C1.34662 10.071 1.25 10.28 1.25 10.5H2ZM12.75 10.5C12.75 10.0858 12.4142 9.75 12 9.75C11.5858 9.75 11.25 10.0858 11.25 10.5H12.75ZM17.75 10.5C17.75 10.0858 17.4142 9.75 17 9.75C16.5858 9.75 16.25 10.0858 16.25 10.5H17.75ZM22 10.5H22.75C22.75 10.28 22.6534 10.071 22.4857 9.92854L22 10.5ZM13.2953 3.101L13.781 2.52954V2.52954L13.2953 3.101ZM10.7047 3.101L10.219 2.52954V2.52954L10.7047 3.101ZM4 13H3.25V18H4H4.75V13H4ZM8 22V22.75H16V22V21.25H8V22ZM20 18H20.75V13H20H19.25V18H20ZM16 22V22.75C16.9216 22.75 17.6883 22.7516 18.2945 22.6701C18.9223 22.5857 19.4891 22.4 19.9445 21.9445L19.4142 21.4142L18.8839 20.8839C18.7536 21.0142 18.5561 21.1214 18.0946 21.1835C17.6116 21.2484 16.964 21.25 16 21.25V22ZM20 18H19.25C19.25 18.964 19.2484 19.6116 19.1835 20.0946C19.1214 20.5561 19.0142 20.7536 18.8839 20.8839L19.4142 21.4142L19.9445 21.9445C20.4 21.4891 20.5857 20.9223 20.6701 20.2945C20.7516 19.6883 20.75 18.9216 20.75 18H20ZM4 18H3.25C3.25 18.9216 3.24841 19.6883 3.32991 20.2945C3.41432 20.9223 3.59999 21.4891 4.05546 21.9445L4.58579 21.4142L5.11612 20.8839C4.9858 20.7536 4.87858 20.5561 4.81654 20.0946C4.75159 19.6116 4.75 18.964 4.75 18H4ZM8 22V21.25C7.03599 21.25 6.38843 21.2484 5.90539 21.1835C5.44393 21.1214 5.24643 21.0142 5.11612 20.8839L4.58579 21.4142L4.05546 21.9445C4.51093 22.4 5.07773 22.5857 5.70552 22.6701C6.31174 22.7516 7.07839 22.75 8 22.75V22ZM9.5 22L10.1923 22.2885L11.7692 18.5038L11.0769 18.2154L10.3846 17.9269L8.80769 21.7115L9.5 22ZM12.9231 18.2154L12.2308 18.5038L13.8077 22.2885L14.5 22L15.1923 21.7115L13.6154 17.9269L12.9231 18.2154ZM11.0769 18.2154L11.7692 18.5038C11.9755 18.0088 12.0997 17.7156 12.2059 17.5365C12.3268 17.3328 12.2656 17.55 12 17.55V16.8V16.05C11.4011 16.05 11.0749 16.5031 10.9159 16.7712C10.7422 17.0639 10.5715 17.4784 10.3846 17.9269L11.0769 18.2154ZM12.9231 18.2154L13.6154 17.9269C13.4285 17.4784 13.2578 17.0639 13.0841 16.7712C12.9251 16.5031 12.5989 16.05 12 16.05V16.8V17.55C11.7344 17.55 11.6732 17.3328 11.7941 17.5365C11.9003 17.7156 12.0245 18.0088 12.2308 18.5038L12.9231 18.2154ZM7 10.5H6.25C6.25 11.4665 5.4665 12.25 4.5 12.25V13V13.75C6.29493 13.75 7.75 12.2949 7.75 10.5H7ZM4.5 13V12.25C3.5335 12.25 2.75 11.4665 2.75 10.5H2H1.25C1.25 12.2949 2.70507 13.75 4.5 13.75V13ZM12 10.5H11.25C11.25 11.4665 10.4665 12.25 9.5 12.25V13V13.75C11.2949 13.75 12.75 12.2949 12.75 10.5H12ZM9.5 13V12.25C8.5335 12.25 7.75 11.4665 7.75 10.5H7H6.25C6.25 12.2949 7.70507 13.75 9.5 13.75V13ZM17 10.5H16.25C16.25 11.4665 15.4665 12.25 14.5 12.25V13V13.75C16.2949 13.75 17.75 12.2949 17.75 10.5H17ZM14.5 13V12.25C13.5335 12.25 12.75 11.4665 12.75 10.5H12H11.25C11.25 12.2949 12.7051 13.75 14.5 13.75V13ZM22 10.5H21.25C21.25 11.4665 20.4665 12.25 19.5 12.25V13V13.75C21.2949 13.75 22.75 12.2949 22.75 10.5H22ZM19.5 13V12.25C18.5335 12.25 17.75 11.4665 17.75 10.5H17H16.25C16.25 12.2949 17.7051 13.75 19.5 13.75V13ZM22 10.5L22.4857 9.92854L13.781 2.52954L13.2953 3.101L12.8096 3.67245L21.5143 11.0715L22 10.5ZM2 10.5L2.48574 11.0715L11.1904 3.67245L10.7047 3.101L10.219 2.52954L1.51426 9.92854L2 10.5ZM13.2953 3.101L13.781 2.52954C12.7541 1.65666 11.2459 1.65666 10.219 2.52954L10.7047 3.101L11.1904 3.67245C11.6572 3.27569 12.3428 3.27569 12.8096 3.67245L13.2953 3.101Z" fill="#5E6464"/>
</svg>
