<svg width="20" height="20" viewBox="0 0 20 20" fill="none" xmlns="http://www.w3.org/2000/svg">
<path d="M12.5 18.3333V19.0833C12.9143 19.0833 13.25 18.7475 13.25 18.3333H12.5ZM2.50004 18.3333H1.75004C1.75004 18.7475 2.08583 19.0833 2.50004 19.0833V18.3333ZM12.0119 2.98816L11.4816 3.51849L11.4816 3.51849L12.0119 2.98816ZM0.833374 17.5833C0.41916 17.5833 0.083374 17.9191 0.083374 18.3333C0.083374 18.7475 0.41916 19.0833 0.833374 19.0833V17.5833ZM15.8334 19.0833C16.2476 19.0833 16.5834 18.7475 16.5834 18.3333C16.5834 17.9191 16.2476 17.5833 15.8334 17.5833V19.0833ZM5.83337 2.5V3.25H9.16671V2.5V1.75H5.83337V2.5ZM12.5 5.83333H11.75V18.3333H12.5H13.25V5.83333H12.5ZM12.5 18.3333V17.5833H2.50004V18.3333V19.0833H12.5V18.3333ZM2.50004 18.3333H3.25004V5.83333H2.50004H1.75004V18.3333H2.50004ZM9.16671 2.5V3.25C9.97358 3.25 10.5033 3.25159 10.8956 3.30433C11.2662 3.35417 11.4001 3.43698 11.4816 3.51849L12.0119 2.98816L12.5422 2.45783C12.1356 2.05117 11.6325 1.88991 11.0954 1.81771C10.58 1.74841 9.93118 1.75 9.16671 1.75V2.5ZM12.5 5.83333H13.25C13.25 5.06886 13.2516 4.42006 13.1823 3.90461C13.1101 3.36759 12.9489 2.86448 12.5422 2.45783L12.0119 2.98816L11.4816 3.51849C11.5631 3.59999 11.6459 3.73379 11.6957 4.10448C11.7484 4.49675 11.75 5.02646 11.75 5.83333H12.5ZM5.83337 2.5V1.75C5.0689 1.75 4.4201 1.74841 3.90465 1.81771C3.36763 1.88991 2.86452 2.05117 2.45787 2.45783L2.9882 2.98816L3.51853 3.51849C3.60003 3.43698 3.73383 3.35417 4.10452 3.30433C4.49679 3.25159 5.0265 3.25 5.83337 3.25V2.5ZM2.50004 5.83333H3.25004C3.25004 5.02646 3.25163 4.49675 3.30437 4.10448C3.35421 3.73379 3.43703 3.59999 3.51853 3.51849L2.9882 2.98816L2.45787 2.45783C2.05121 2.86448 1.88995 3.36759 1.81775 3.90461C1.74845 4.42006 1.75004 5.06886 1.75004 5.83333H2.50004ZM0.833374 18.3333V19.0833H15.8334V18.3333V17.5833H0.833374V18.3333ZM5.00004 5H4.25004V7.5H5.00004H5.75004V5H5.00004ZM7.50004 5H6.75004V7.5H7.50004H8.25004V5H7.50004ZM10 5H9.25004V7.5H10H10.75V5H10ZM5.00004 9.16667H4.25004V11.6667H5.00004H5.75004V9.16667H5.00004ZM7.50004 9.16667H6.75004V11.6667H7.50004H8.25004V9.16667H7.50004ZM10 9.16667H9.25004V11.6667H10H10.75V9.16667H10ZM5.83337 18.3333H6.58337V14.5833H5.83337H5.08337V18.3333H5.83337ZM6.25004 14.1667V14.9167H8.75004V14.1667V13.4167H6.25004V14.1667ZM9.16671 14.5833H8.41671V18.3333H9.16671H9.91671V14.5833H9.16671ZM8.75004 14.1667V14.9167C8.56594 14.9167 8.41671 14.7674 8.41671 14.5833H9.16671H9.91671C9.91671 13.939 9.39437 13.4167 8.75004 13.4167V14.1667ZM5.83337 14.5833H6.58337C6.58337 14.7674 6.43414 14.9167 6.25004 14.9167V14.1667V13.4167C5.60571 13.4167 5.08337 13.939 5.08337 14.5833H5.83337ZM15 3.75H14.25V12.0833H15H15.75V3.75H15ZM15.4167 3.33333V4.08333H17.9167V3.33333V2.58333H15.4167V3.33333ZM18.3334 3.75H17.5834V12.0833H18.3334H19.0834V3.75H18.3334ZM17.9167 12.5V11.75H15.4167V12.5V13.25H17.9167V12.5ZM18.3334 12.0833H17.5834C17.5834 11.8992 17.7326 11.75 17.9167 11.75V12.5V13.25C18.561 13.25 19.0834 12.7277 19.0834 12.0833H18.3334ZM17.9167 3.33333V4.08333C17.7326 4.08333 17.5834 3.9341 17.5834 3.75H18.3334H19.0834C19.0834 3.10566 18.561 2.58333 17.9167 2.58333V3.33333ZM15 12.0833H14.25C14.25 12.7277 14.7724 13.25 15.4167 13.25V12.5V11.75C15.6008 11.75 15.75 11.8992 15.75 12.0833H15ZM15 3.75H15.75C15.75 3.9341 15.6008 4.08333 15.4167 4.08333V3.33333V2.58333C14.7724 2.58333 14.25 3.10567 14.25 3.75H15Z" fill="#E5F7F9"/>
</svg>
