<svg width="24" height="24" viewBox="0 0 24 24" fill="none" xmlns="http://www.w3.org/2000/svg">
<path d="M19 10C17.799 6.50442 14.5582 4 10.7489 4C5.91702 4 2 8.02944 2 13C2 17.9706 5.91702 22 10.7489 22C13.7823 22 16.4551 20.412 18.0246 18" stroke="#5E6464" stroke-width="1.5" stroke-linejoin="round"/>
<path d="M10 18H13L12 16L13 14H10" stroke="#5E6464" stroke-width="1.5" stroke-linejoin="round"/>
<path d="M6 11V11C7.10457 9.89543 8.89543 9.89543 10 11V11" stroke="#5E6464" stroke-width="1.5" stroke-linejoin="round"/>
<path d="M16 11V11C14.8954 9.89543 13.1046 9.89543 12 11V11" stroke="#5E6464" stroke-width="1.5" stroke-linejoin="round"/>
<path d="M12 16H20C21.1046 16 22 15.1046 22 14V13.5C22 12.6716 21.3284 12 20.5 12V12C19.6716 12 19 12.6716 19 13.5V14" stroke="#5E6464" stroke-width="1.5" stroke-linejoin="round"/>
<path d="M8 4.5L2 2L3 9" stroke="#5E6464" stroke-width="1.5" stroke-linejoin="round"/>
</svg>
