<svg width="24" height="24" viewBox="0 0 24 24" fill="none" xmlns="http://www.w3.org/2000/svg">
<path d="M2 15.6944C1.58579 15.6944 1.25 16.0302 1.25 16.4444C1.25 16.8587 1.58579 17.1944 2 17.1944V15.6944ZM22 17.1944C22.4142 17.1944 22.75 16.8587 22.75 16.4444C22.75 16.0302 22.4142 15.6944 22 15.6944V17.1944ZM7.36111 13.1111C7.36111 13.5253 7.6969 13.8611 8.11111 13.8611C8.52532 13.8611 8.86111 13.5253 8.86111 13.1111H7.36111ZM8.86111 11.6296C8.86111 11.2154 8.52532 10.8796 8.11111 10.8796C7.6969 10.8796 7.36111 11.2154 7.36111 11.6296H8.86111ZM11.25 13.1111C11.25 13.5253 11.5858 13.8611 12 13.8611C12.4142 13.8611 12.75 13.5253 12.75 13.1111H11.25ZM12.75 10.1481C12.75 9.73394 12.4142 9.39815 12 9.39815C11.5858 9.39815 11.25 9.73394 11.25 10.1481H12.75ZM15.1389 13.1111C15.1389 13.5253 15.4747 13.8611 15.8889 13.8611C16.3031 13.8611 16.6389 13.5253 16.6389 13.1111H15.1389ZM16.6389 8.66667C16.6389 8.25245 16.3031 7.91667 15.8889 7.91667C15.4747 7.91667 15.1389 8.25245 15.1389 8.66667H16.6389ZM13.3889 20.6111H12.6389C12.6389 20.964 12.3528 21.25 12 21.25V22V22.75C13.1813 22.75 14.1389 21.7924 14.1389 20.6111H13.3889ZM12 22V21.25C11.6472 21.25 11.3611 20.964 11.3611 20.6111H10.6111H9.86111C9.86111 21.7924 10.8187 22.75 12 22.75V22ZM10.6111 20.6111H11.3611C11.3611 20.2583 11.6472 19.9722 12 19.9722V19.2222V18.4722C10.8187 18.4722 9.86111 19.4298 9.86111 20.6111H10.6111ZM12 19.2222V19.9722C12.3528 19.9722 12.6389 20.2583 12.6389 20.6111H13.3889H14.1389C14.1389 19.4298 13.1813 18.4722 12 18.4722V19.2222ZM12 19.2222H12.75V16.4444H12H11.25V19.2222H12ZM3.11111 2V2.75H20.8889V2V1.25H3.11111V2ZM22 3.11111H21.25V4.22222H22H22.75V3.11111H22ZM20.8889 5.33333V4.58333H3.11111V5.33333V6.08333H20.8889V5.33333ZM2 4.22222H2.75V3.11111H2H1.25V4.22222H2ZM3.11111 5.33333V4.58333C2.91168 4.58333 2.75 4.42166 2.75 4.22222H2H1.25C1.25 5.25009 2.08325 6.08333 3.11111 6.08333V5.33333ZM22 4.22222H21.25C21.25 4.42166 21.0883 4.58333 20.8889 4.58333V5.33333V6.08333C21.9168 6.08333 22.75 5.25009 22.75 4.22222H22ZM20.8889 2V2.75C21.0883 2.75 21.25 2.91168 21.25 3.11111H22H22.75C22.75 2.08325 21.9168 1.25 20.8889 1.25V2ZM3.11111 2V1.25C2.08325 1.25 1.25 2.08325 1.25 3.11111H2H2.75C2.75 2.91167 2.91167 2.75 3.11111 2.75V2ZM20.8889 5.33333H20.1389V16.4444H20.8889H21.6389V5.33333H20.8889ZM20.8889 16.4444V15.6944H12V16.4444V17.1944H20.8889V16.4444ZM12 16.4444V15.6944H3.11111V16.4444V17.1944H12V16.4444ZM3.11111 16.4444L3.86111 16.4444L3.86111 5.33333H3.11111H2.36111L2.36111 16.4444H3.11111ZM3.11111 16.4444V15.6944H2V16.4444V17.1944H3.11111V16.4444ZM20.8889 16.4444V17.1944H22V16.4444V15.6944H20.8889V16.4444ZM8.11111 13.1111H8.86111V11.6296H8.11111H7.36111V13.1111H8.11111ZM12 13.1111H12.75V10.1481H12H11.25V13.1111H12ZM15.8889 13.1111H16.6389V8.66667H15.8889H15.1389V13.1111H15.8889Z" fill="#5E6464"/>
</svg>
