<svg width="25" height="24" viewBox="0 0 25 24" fill="none" xmlns="http://www.w3.org/2000/svg">
<path d="M13.0882 15.9411L20.5406 16.744C21.8949 16.8899 22.7887 18.1815 22.4143 19.4519C22.1443 20.3682 21.2804 21 20.2974 21H7.28954C6.21733 21 5.23076 20.4322 4.71733 19.5195L2.5727 15.7075C2.34578 15.3041 2.68087 14.82 3.15186 14.8707L13.0882 15.9411ZM13.0882 15.9411V13.1944M13.0882 13.1944C9.68506 12.5443 7.50089 12.5171 4.54188 13.2179C3.96879 13.3537 3.517 12.7005 3.8999 12.2742L12.0521 3.19726C12.4067 2.80239 13.0882 3.04009 13.0882 3.55866V5.94636M13.0882 13.1944C15.2105 13.5435 16.6383 13.9203 18.1823 14.5715C18.7571 14.8139 19.3582 14.1588 18.9894 13.6757L13.0882 5.94636M13.0882 13.1944V5.94636" stroke="#5E6464" stroke-width="1.5"/>
</svg>
