<svg width="25" height="24" viewBox="0 0 25 24" fill="none" xmlns="http://www.w3.org/2000/svg">
<path d="M2.5 14.5C2.5 14.5 7 11.1248 12.5 14.5C18 17.8752 22.5 14.5 22.5 14.5M2.5 19.5C2.5 19.5 7 16.1248 12.5 19.5C18 22.8752 22.5 19.5 22.5 19.5M13.5 11L9.90343 4.31546C9.46752 3.50529 8.62186 3 7.70187 3H4C3.17157 3 2.5 3.67157 2.5 4.5C2.5 5.32843 3.17157 6 4 6H6C6.55228 6 7 6.44772 7 7V9C8.51177 8.92881 10.6039 9.46874 12.5435 10.5323C12.8258 10.6871 13.1054 10.8253 13.3818 10.9482M13.5 11C13.4659 10.9853 13.4317 10.9704 13.3975 10.9552C13.3922 10.9529 13.387 10.9506 13.3818 10.9482M13.5 11C13.4607 10.9831 13.4212 10.9658 13.3818 10.9482M21.5 7C21.5 8.65685 20.1569 10 18.5 10C16.8431 10 15.5 8.65685 15.5 7C15.5 5.34315 16.8431 4 18.5 4C20.1569 4 21.5 5.34315 21.5 7Z" stroke="#5E6464" stroke-width="1.5" stroke-linejoin="round"/>
</svg>
