<svg width="24" height="24" viewBox="0 0 24 24" fill="none" xmlns="http://www.w3.org/2000/svg">
<path d="M9.54424 3.41L9.08378 2.81799L9.54424 3.41ZM14.4558 3.41001L14.9162 2.81799V2.81799L14.4558 3.41001ZM5.24254 12.6893L5.06063 11.9617H5.06063L5.24254 12.6893ZM2.75746 13.3106L2.93937 14.0382H2.93937L2.75746 13.3106ZM21.7071 21.7071L22.2374 22.2374L22.2374 22.2374L21.7071 21.7071ZM21.8941 13.5827L21.3029 14.0442L21.3029 14.0442L21.8941 13.5827ZM18.1059 12.4173L18.6971 11.9557L18.6971 11.9557L18.1059 12.4173ZM5.8941 12.4173L6.48526 12.8788L6.48526 12.8788L5.8941 12.4173ZM3 8.49997L3.46046 9.09198L10.0047 4.00202L9.54424 3.41L9.08378 2.81799L2.53954 7.90795L3 8.49997ZM14.4558 3.41001L13.9953 4.00202L20.5395 9.09198L21 8.49997L21.4605 7.90795L14.9162 2.81799L14.4558 3.41001ZM9.54424 3.41L10.0047 4.00202C10.6089 3.53207 11.0107 3.22114 11.3442 3.02017C11.6605 2.82959 11.8437 2.78369 12 2.78369V2.03369V1.28369C11.4701 1.28369 11.0152 1.46717 10.5701 1.73537C10.1422 1.99317 9.65926 2.3704 9.08378 2.81799L9.54424 3.41ZM14.4558 3.41001L14.9162 2.81799C14.3407 2.3704 13.8578 1.99317 13.4299 1.73537C12.9848 1.46717 12.5299 1.28369 12 1.28369V2.03369V2.78369C12.1563 2.78369 12.3395 2.82959 12.6558 3.02017C12.9893 3.22114 13.3911 3.53207 13.9953 4.00202L14.4558 3.41001ZM6 6.49997H5.25V11.7192H6H6.75V6.49997H6ZM18 11.7192H18.75V6.49997H18H17.25V11.7192H18ZM5.24254 12.6893L5.06063 11.9617L2.57556 12.583L2.75746 13.3106L2.93937 14.0382L5.42444 13.4169L5.24254 12.6893ZM21.2425 13.3106L21.4244 12.583L18.9394 11.9617L18.7575 12.6893L18.5756 13.4169L21.0606 14.0382L21.2425 13.3106ZM2 14.2807H1.25V20H2H2.75V14.2807H2ZM4 22V22.75H20V22V21.25H4V22ZM22 20H22.75V14.2807H22H21.25V20H22ZM20 22V22.75C20.4502 22.75 20.8633 22.7516 21.1972 22.7067C21.5527 22.6589 21.9284 22.5464 22.2374 22.2374L21.7071 21.7071L21.1768 21.1767C21.1763 21.1772 21.1763 21.1772 21.1767 21.1769C21.177 21.1766 21.1772 21.1765 21.1772 21.1765C21.1771 21.1766 21.1762 21.1771 21.1743 21.1781C21.1724 21.1791 21.1691 21.1807 21.164 21.1828C21.1423 21.1918 21.0939 21.2071 20.9973 21.22C20.7866 21.2484 20.4926 21.25 20 21.25V22ZM22 20H21.25C21.25 20.4926 21.2484 20.7866 21.2201 20.9973C21.2071 21.0939 21.1918 21.1422 21.1828 21.164C21.1808 21.1691 21.1791 21.1724 21.1781 21.1743C21.1771 21.1762 21.1766 21.1771 21.1765 21.1771C21.1765 21.1772 21.1766 21.177 21.1769 21.1766C21.1772 21.1763 21.1772 21.1763 21.1768 21.1767L21.7071 21.7071L22.2374 22.2374C22.5465 21.9284 22.6589 21.5527 22.7067 21.1972C22.7516 20.8633 22.75 20.4502 22.75 20H22ZM21.2425 13.3106L21.0606 14.0382C21.154 14.0616 21.2245 14.0792 21.2844 14.0957C21.3444 14.1121 21.3784 14.1233 21.398 14.1307C21.4169 14.1379 21.408 14.1364 21.3865 14.1223C21.3615 14.1058 21.3306 14.0797 21.3029 14.0442L21.8941 13.5827L22.4853 13.1211C22.317 12.9055 22.1066 12.7955 21.932 12.729C21.7763 12.6697 21.5886 12.624 21.4244 12.583L21.2425 13.3106ZM22 14.2807H22.75C22.75 14.1115 22.7512 13.9184 22.7315 13.7529C22.7093 13.5674 22.6535 13.3366 22.4853 13.1211L21.8941 13.5827L21.3029 14.0442C21.2753 14.0087 21.2574 13.9725 21.2475 13.9442C21.239 13.9199 21.2397 13.9109 21.2421 13.931C21.2446 13.9518 21.2471 13.9875 21.2485 14.0497C21.25 14.1118 21.25 14.1845 21.25 14.2807H22ZM2.75746 13.3106L2.57556 12.583C2.41139 12.624 2.22372 12.6697 2.06797 12.729C1.89337 12.7955 1.68304 12.9055 1.51474 13.1211L2.1059 13.5827L2.69705 14.0442C2.66936 14.0797 2.63854 14.1058 2.61346 14.1223C2.59201 14.1364 2.58311 14.1379 2.60198 14.1307C2.62161 14.1233 2.65556 14.1121 2.71555 14.0957C2.77546 14.0792 2.846 14.0616 2.93937 14.0382L2.75746 13.3106ZM2 14.2807H2.75C2.75 14.1845 2.75004 14.1118 2.75146 14.0497C2.75288 13.9875 2.75544 13.9518 2.75793 13.931C2.76033 13.9109 2.76099 13.9199 2.7525 13.9442C2.74257 13.9725 2.72474 14.0087 2.69705 14.0442L2.1059 13.5827L1.51474 13.1211C1.34645 13.3366 1.29073 13.5674 1.26854 13.7529C1.24875 13.9184 1.25 14.1115 1.25 14.2807H2ZM18 11.7192H17.25C17.25 11.8884 17.2488 12.0816 17.2685 12.247C17.2907 12.4326 17.3465 12.6633 17.5147 12.8788L18.1059 12.4173L18.6971 11.9557C18.7247 11.9912 18.7426 12.0274 18.7525 12.0558C18.761 12.08 18.7603 12.089 18.7579 12.0689C18.7554 12.0481 18.7529 12.0124 18.7515 11.9503C18.75 11.8882 18.75 11.8154 18.75 11.7192H18ZM18.7575 12.6893L18.9394 11.9617C18.846 11.9384 18.7755 11.9207 18.7156 11.9043C18.6556 11.8878 18.6216 11.8767 18.602 11.8692C18.5831 11.862 18.592 11.8636 18.6135 11.8777C18.6385 11.8942 18.6694 11.9203 18.6971 11.9557L18.1059 12.4173L17.5147 12.8788C17.683 13.0944 17.8934 13.2044 18.068 13.2709C18.2237 13.3303 18.4114 13.3759 18.5756 13.4169L18.7575 12.6893ZM2 20H1.25C1.25 20.4502 1.24841 20.8633 1.2933 21.1972C1.34109 21.5527 1.45354 21.9284 1.76256 22.2374L2.29289 21.7071L2.82322 21.1767C2.82277 21.1763 2.82279 21.1763 2.82307 21.1766C2.82335 21.177 2.82351 21.1772 2.82347 21.1771C2.82341 21.1771 2.82286 21.1762 2.82186 21.1743C2.82085 21.1724 2.81923 21.169 2.81716 21.164C2.8082 21.1422 2.79291 21.0939 2.77992 20.9973C2.75159 20.7866 2.75 20.4926 2.75 20H2ZM4 22V21.25C3.50739 21.25 3.21339 21.2484 3.00266 21.22C2.9061 21.2071 2.85774 21.1918 2.83596 21.1828C2.83092 21.1807 2.8276 21.1791 2.82567 21.1781C2.82376 21.1771 2.82292 21.1766 2.82283 21.1765C2.82277 21.1765 2.823 21.1766 2.82335 21.1769C2.8237 21.1772 2.82368 21.1772 2.82322 21.1767L2.29289 21.7071L1.76256 22.2374C2.07159 22.5464 2.44731 22.6589 2.80279 22.7067C3.1367 22.7516 3.5498 22.75 4 22.75V22ZM6 11.7192H5.25C5.25 11.8154 5.24996 11.8882 5.24854 11.9503C5.24712 12.0124 5.24456 12.0481 5.24207 12.0689C5.23967 12.089 5.23901 12.08 5.2475 12.0558C5.25743 12.0274 5.27526 11.9912 5.30295 11.9557L5.8941 12.4173L6.48526 12.8788C6.65355 12.6633 6.70927 12.4326 6.73146 12.247C6.75125 12.0816 6.75 11.8884 6.75 11.7192H6ZM5.24254 12.6893L5.42444 13.4169C5.58861 13.3759 5.77628 13.3303 5.93203 13.2709C6.10663 13.2044 6.31696 13.0944 6.48526 12.8788L5.8941 12.4173L5.30295 11.9557C5.33064 11.9203 5.36146 11.8942 5.38654 11.8777C5.40799 11.8636 5.41689 11.862 5.39802 11.8692C5.37839 11.8767 5.34444 11.8878 5.28445 11.9043C5.22454 11.9207 5.154 11.9384 5.06063 11.9617L5.24254 12.6893ZM10 22H10.75V16.5H10H9.25V22H10ZM10.5 16V16.75H13.5V16V15.25H10.5V16ZM14 16.5H13.25V22H14H14.75V16.5H14ZM13.5 16V16.75C13.3619 16.75 13.25 16.638 13.25 16.5H14H14.75C14.75 15.8096 14.1904 15.25 13.5 15.25V16ZM10 16.5H10.75C10.75 16.638 10.6381 16.75 10.5 16.75V16V15.25C9.80964 15.25 9.25 15.8096 9.25 16.5H10ZM6 17H5.25V19H6H6.75V17H6ZM18 17H17.25V19H18H18.75V17H18ZM9 8.99997V9.74997H11V8.99997V8.24997H9V8.99997ZM13 8.99997V9.74997H15V8.99997V8.24997H13V8.99997Z" fill="#5E6464"/>
</svg>
