<svg width="24" height="24" viewBox="0 0 24 24" fill="none" xmlns="http://www.w3.org/2000/svg">
<path d="M4.50004 5.375C4.50004 4.94402 4.67125 4.5307 4.976 4.22595C5.28074 3.92121 5.69407 3.75 6.12504 3.75C6.55602 3.75 6.96935 3.92121 7.27409 4.22595C7.57884 4.5307 7.75004 4.94402 7.75004 5.375V12.076C8.15004 12.1135 8.56704 12.178 9.00004 12.2745V10.5H16.75V14.529C17.1694 14.5159 17.5872 14.4718 18 14.397V5.375C18 4.6125 17.6971 3.88124 17.158 3.34207C16.6188 2.8029 15.8875 2.5 15.125 2.5C14.3625 2.5 13.6313 2.8029 13.0921 3.34207C12.5529 3.88124 12.25 4.6125 12.25 5.375V5.875C12.25 6.04076 12.3159 6.19973 12.4331 6.31694C12.5503 6.43415 12.7093 6.5 12.875 6.5C13.0408 6.5 13.1998 6.43415 13.317 6.31694C13.4342 6.19973 13.5 6.04076 13.5 5.875V5.375C13.5 4.94402 13.6712 4.5307 13.976 4.22595C14.2807 3.92121 14.6941 3.75 15.125 3.75C15.556 3.75 15.9693 3.92121 16.2741 4.22595C16.5788 4.5307 16.75 4.94402 16.75 5.375V9.25H9.00004V5.375C9.00004 4.6125 8.69714 3.88124 8.15798 3.34207C7.61881 2.8029 6.88754 2.5 6.12504 2.5C5.36255 2.5 4.63128 2.8029 4.09211 3.34207C3.55295 3.88124 3.25004 4.6125 3.25004 5.375V5.875C3.25004 6.04076 3.31589 6.19973 3.4331 6.31694C3.55031 6.43415 3.70928 6.5 3.87504 6.5C4.04081 6.5 4.19978 6.43415 4.31699 6.31694C4.4342 6.19973 4.50004 6.04076 4.50004 5.875V5.375ZM11.027 15.3765C6.28705 12.9435 3.66404 15.199 3.54504 15.3015L3.54404 15.302C3.28904 15.531 2.89404 15.511 2.66404 15.257C2.55348 15.1356 2.49559 14.9753 2.50309 14.8112C2.51059 14.6472 2.58286 14.4928 2.70404 14.382C2.83904 14.257 6.04855 11.4115 11.607 14.267C16.571 16.8195 20.4 14.6455 20.56 14.551C20.855 14.3765 21.24 14.476 21.415 14.77C21.5895 15.0635 21.495 15.4465 21.195 15.6205C21.08 15.6905 19.245 16.75 16.476 16.75C14.5575 16.6985 12.74 16.2585 11.027 15.3765ZM3.54504 19.8015C3.66404 19.699 6.28755 17.4435 11.027 19.8765C12.74 20.7585 14.557 21.1985 16.476 21.25C19.245 21.25 21.0795 20.19 21.1945 20.1205C21.4945 19.9465 21.5895 19.5635 21.4145 19.2695C21.3294 19.128 21.1919 19.0257 21.0319 18.9848C20.8719 18.9439 20.7022 18.9677 20.5595 19.051C20.3995 19.1455 16.571 21.3195 11.607 18.7675C6.04855 15.9115 2.83954 18.7575 2.70454 18.8815C2.64439 18.9364 2.59564 19.0026 2.56107 19.0763C2.52651 19.15 2.5068 19.2299 2.50309 19.3112C2.49938 19.3926 2.51172 19.4738 2.53942 19.5504C2.56713 19.627 2.60964 19.6974 2.66454 19.7575C2.89454 20.011 3.28954 20.031 3.54454 19.8025L3.54504 19.8015Z" fill="white"/>
</svg>
