<svg width="24" height="24" viewBox="0 0 24 24" fill="none" xmlns="http://www.w3.org/2000/svg">
<path d="M17.9999 4.7998C18.1219 4.7998 18.2411 4.83702 18.3414 4.90649C18.4418 4.97596 18.5185 5.07437 18.5615 5.1886C19.0895 6.5974 20.0927 7.1998 20.9999 7.1998C21.159 7.1998 21.3116 7.26302 21.4242 7.37554C21.5367 7.48806 21.5999 7.64067 21.5999 7.7998C21.5999 7.95893 21.5367 8.11155 21.4242 8.22407C21.3116 8.33659 21.159 8.3998 20.9999 8.3998C19.8455 8.3998 18.7487 7.8034 17.9999 6.7042C17.2511 7.8034 16.1543 8.3998 14.9999 8.3998C13.8455 8.3998 12.7487 7.8034 11.9999 6.7054C11.2511 7.8034 10.1543 8.3998 8.9999 8.3998C7.8467 8.3998 6.7487 7.8034 5.9999 6.7054C5.2511 7.8058 4.1543 8.4034 2.9999 8.4034C2.84077 8.4034 2.68816 8.34019 2.57564 8.22767C2.46312 8.11515 2.3999 7.96253 2.3999 7.8034C2.3999 7.64427 2.46312 7.49166 2.57564 7.37914C2.68816 7.26662 2.84077 7.2034 2.9999 7.2034C3.9071 7.2034 4.9103 6.5998 5.4383 5.1898C5.48126 5.07557 5.55803 4.97716 5.65838 4.90769C5.75872 4.83822 5.87786 4.801 5.9999 4.801C6.12195 4.801 6.24109 4.83822 6.34143 4.90769C6.44177 4.97716 6.51854 5.07557 6.5615 5.1898C7.0895 6.5974 8.0927 7.1998 8.9999 7.1998C9.9071 7.1998 10.9103 6.5974 11.4383 5.1898C11.4813 5.07557 11.558 4.97716 11.6584 4.90769C11.7587 4.83822 11.8779 4.801 11.9999 4.801C12.1219 4.801 12.2411 4.83822 12.3414 4.90769C12.4418 4.97716 12.5185 5.07557 12.5615 5.1898C13.0895 6.5974 14.0927 7.1998 14.9999 7.1998C15.9071 7.1998 16.9103 6.5974 17.4383 5.1886C17.4813 5.07437 17.558 4.97596 17.6584 4.90649C17.7587 4.83702 17.8779 4.7998 17.9999 4.7998ZM17.9999 10.7998C18.1219 10.7998 18.2411 10.837 18.3414 10.9065C18.4418 10.976 18.5185 11.0744 18.5615 11.1886C19.0895 12.5974 20.0927 13.1998 20.9999 13.1998C21.159 13.1998 21.3116 13.263 21.4242 13.3755C21.5367 13.4881 21.5999 13.6407 21.5999 13.7998C21.5999 13.9589 21.5367 14.1115 21.4242 14.2241C21.3116 14.3366 21.159 14.3998 20.9999 14.3998C19.8455 14.3998 18.7487 13.8034 17.9999 12.7042C17.2511 13.8034 16.1543 14.3998 14.9999 14.3998C13.8455 14.3998 12.7487 13.8034 11.9999 12.7054C11.2511 13.8034 10.1543 14.3998 8.9999 14.3998C7.8467 14.3998 6.7487 13.8034 5.9999 12.7054C5.2511 13.8058 4.1543 14.4034 2.9999 14.4034C2.84077 14.4034 2.68816 14.3402 2.57564 14.2277C2.46312 14.1151 2.3999 13.9625 2.3999 13.8034C2.3999 13.6443 2.46312 13.4917 2.57564 13.3791C2.68816 13.2666 2.84077 13.2034 2.9999 13.2034C3.9071 13.2034 4.9103 12.5998 5.4383 11.1898C5.48126 11.0756 5.55803 10.9772 5.65838 10.9077C5.75872 10.8382 5.87786 10.801 5.9999 10.801C6.12195 10.801 6.24109 10.8382 6.34143 10.9077C6.44177 10.9772 6.51854 11.0756 6.5615 11.1898C7.0895 12.5974 8.0927 13.1998 8.9999 13.1998C9.9071 13.1998 10.9103 12.5974 11.4383 11.1898C11.4813 11.0756 11.558 10.9772 11.6584 10.9077C11.7587 10.8382 11.8779 10.801 11.9999 10.801C12.1219 10.801 12.2411 10.8382 12.3414 10.9077C12.4418 10.9772 12.5185 11.0756 12.5615 11.1898C13.0895 12.5974 14.0927 13.1998 14.9999 13.1998C15.9071 13.1998 16.9103 12.5974 17.4383 11.1886C17.4813 11.0744 17.558 10.976 17.6584 10.9065C17.7587 10.837 17.8779 10.7998 17.9999 10.7998ZM18.5615 17.1886C18.5185 17.0744 18.4418 16.976 18.3414 16.9065C18.2411 16.837 18.1219 16.7998 17.9999 16.7998C17.8779 16.7998 17.7587 16.837 17.6584 16.9065C17.558 16.976 17.4813 17.0744 17.4383 17.1886C16.9103 18.5974 15.9071 19.1998 14.9999 19.1998C14.0927 19.1998 13.0895 18.5974 12.5615 17.1898C12.5185 17.0756 12.4418 16.9772 12.3414 16.9077C12.2411 16.8382 12.1219 16.801 11.9999 16.801C11.8779 16.801 11.7587 16.8382 11.6584 16.9077C11.558 16.9772 11.4813 17.0756 11.4383 17.1898C10.9103 18.5974 9.9071 19.1998 8.9999 19.1998C8.0927 19.1998 7.0895 18.5974 6.5615 17.1898C6.51854 17.0756 6.44177 16.9772 6.34143 16.9077C6.24109 16.8382 6.12195 16.801 5.9999 16.801C5.87786 16.801 5.75872 16.8382 5.65838 16.9077C5.55803 16.9772 5.48126 17.0756 5.4383 17.1898C4.9103 18.5998 3.9071 19.2034 2.9999 19.2034C2.84077 19.2034 2.68816 19.2666 2.57564 19.3791C2.46312 19.4917 2.3999 19.6443 2.3999 19.8034C2.3999 19.9625 2.46312 20.1151 2.57564 20.2277C2.68816 20.3402 2.84077 20.4034 2.9999 20.4034C4.1543 20.4034 5.2511 19.8058 5.9999 18.7054C6.7487 19.8034 7.8479 20.3998 8.9999 20.3998C10.1519 20.3998 11.2511 19.8034 11.9999 18.7054C12.7487 19.8034 13.8455 20.3998 14.9999 20.3998C16.1543 20.3998 17.2511 19.8034 17.9999 18.7042C18.7487 19.8034 19.8455 20.3998 20.9999 20.3998C21.159 20.3998 21.3116 20.3366 21.4242 20.2241C21.5367 20.1115 21.5999 19.9589 21.5999 19.7998C21.5999 19.6407 21.5367 19.4881 21.4242 19.3755C21.3116 19.263 21.159 19.1998 20.9999 19.1998C20.0927 19.1998 19.0895 18.5974 18.5615 17.1886Z" fill="white"/>
</svg>
