<svg width="24" height="24" viewBox="0 0 24 24" fill="none" xmlns="http://www.w3.org/2000/svg">
<path d="M6 12H18L20 22H4L6 12Z" stroke="white" stroke-width="1.5" stroke-linecap="round" stroke-linejoin="round"/>
<path d="M9 22L9.678 18.7C9.832 17.952 9.909 17.578 10.186 17.358C10.762 16.898 13.196 16.864 13.814 17.358C14.091 17.578 14.168 17.952 14.322 18.701L15 22M12 3.2L5.544 8.438C3.717 9.921 2.804 10.662 3.035 11.331C3.266 12 4.437 12 6.776 12H17.224C19.564 12 20.734 12 20.964 11.331C21.196 10.662 20.283 9.921 18.456 8.438L12 3.2ZM12 3.2L13.479 2M12 3.2L10.521 2M12 12V9M8 12V10.5M16 12V10.5M2 22H22" stroke="white" stroke-width="1.5" stroke-linecap="round" stroke-linejoin="round"/>
</svg>
