<svg width="24" height="24" viewBox="0 0 24 24" fill="none" xmlns="http://www.w3.org/2000/svg">
<path d="M8.23 11.77V10.23H9.77V11.77H8.23ZM14.23 11.77V10.23H15.77V11.77H14.23ZM4 21V14.423H5V10C5 9.028 5.18267 8.11867 5.548 7.272C5.91333 6.42533 6.41333 5.68433 7.048 5.049C7.68133 4.413 8.42467 3.91267 9.278 3.548C10.1307 3.18267 11.038 3 12 3C12.972 3 13.8813 3.18267 14.728 3.548C15.5747 3.91333 16.3157 4.41367 16.951 5.049C17.5863 5.68433 18.0867 6.42533 18.452 7.272C18.8173 8.11867 19 9.028 19 10V14.423H20V21H4ZM5 20H7.5V15.423H5V20ZM8.5 20H11.5V15.423H8.5V20ZM6 14.423H11.5V4.037C10.08 4.11633 8.80833 4.71 7.685 5.818C6.56167 6.92667 6 8.32067 6 10V14.423ZM12.5 14.423H18V10C18 8.32 17.4387 6.926 16.316 5.818C15.192 4.71 13.92 4.11633 12.5 4.037V14.423ZM12.5 20H15.5V15.423H12.5V20ZM16.5 20H19V15.423H16.5V20Z" fill="white"/>
</svg>
