<svg width="24" height="24" viewBox="0 0 24 24" fill="none" xmlns="http://www.w3.org/2000/svg">
<path d="M6.61608 18.9998H17.3851C17.5644 18.9998 17.7117 18.9421 17.8271 18.8268C17.9424 18.7115 18.0001 18.5641 18.0001 18.3848V16.2298H6.00008V18.3828C6.00008 18.5628 6.05774 18.7105 6.17308 18.8258C6.28841 18.9411 6.43608 18.9998 6.61608 18.9998ZM6.00008 15.2298H18.0001V12.4618H6.00008V15.2298ZM6.00008 11.4608H18.0001V10.0998L16.1461 8.69179H7.85408L6.00008 10.0998V11.4608ZM9.16608 7.69179H14.8541L12.3661 5.81379C12.2627 5.72379 12.1407 5.67879 12.0001 5.67879C11.8594 5.67879 11.7374 5.72346 11.6341 5.81279L9.16608 7.69179ZM5.00008 18.3838V10.8558L3.46208 12.0538C3.34341 12.1438 3.22141 12.1785 3.09608 12.1578C2.97074 12.1371 2.86308 12.0678 2.77308 11.9498C2.68308 11.8318 2.64508 11.7101 2.65908 11.5848C2.67308 11.4595 2.73741 11.3515 2.85208 11.2608L5.00008 9.59979V7.46179C5.00008 7.31912 5.04774 7.20012 5.14308 7.10479C5.23841 7.00946 5.35741 6.96179 5.50008 6.96179C5.64274 6.96179 5.76174 7.00946 5.85708 7.10479C5.95241 7.20012 6.00008 7.31912 6.00008 7.46179V8.82479L11.0251 5.00179C11.3277 4.78246 11.6561 4.67279 12.0101 4.67279C12.3641 4.67279 12.6857 4.78246 12.9751 5.00179L21.1481 11.2618C21.2621 11.3511 21.3264 11.4588 21.3411 11.5848C21.3544 11.7101 21.3164 11.8318 21.2271 11.9498C21.1371 12.0638 21.0294 12.1311 20.9041 12.1518C20.7787 12.1718 20.6587 12.1371 20.5441 12.0478L19.0001 10.8558V18.3848C19.0001 18.8315 18.8427 19.2125 18.5281 19.5278C18.2134 19.8425 17.8324 19.9998 17.3851 19.9998H6.61508C6.16841 19.9998 5.78741 19.8425 5.47208 19.5278C5.15741 19.2131 5.00008 18.8311 5.00008 18.3838ZM5.55008 5.76879C5.39741 5.76879 5.27141 5.70679 5.17208 5.58279C5.07274 5.45812 5.05074 5.32512 5.10608 5.18379C5.22274 4.70046 5.48141 4.31179 5.88208 4.01779C6.28274 3.72379 6.73241 3.57679 7.23108 3.57679C7.50441 3.57679 7.75608 3.49879 7.98608 3.34279C8.21741 3.18679 8.36174 2.98079 8.41908 2.72479C8.45108 2.62612 8.50908 2.54479 8.59308 2.48079C8.67708 2.41679 8.77241 2.38446 8.87908 2.38379C9.04441 2.38379 9.17908 2.44946 9.28308 2.58079C9.38708 2.71212 9.41141 2.85446 9.35608 3.00779C9.22674 3.47779 8.96474 3.85679 8.57008 4.14479C8.17608 4.43279 7.72941 4.57679 7.23008 4.57679C6.95741 4.57679 6.70574 4.64412 6.47508 4.77879C6.24441 4.91346 6.10008 5.11079 6.04208 5.37079C5.99741 5.48212 5.93408 5.57646 5.85208 5.65379C5.77008 5.73112 5.66941 5.76946 5.55008 5.76879Z" fill="white"/>
</svg>
