<svg width="24" height="24" viewBox="0 0 24 24" fill="none" xmlns="http://www.w3.org/2000/svg">
<path d="M3.51408 12.2229C4.27533 11.7981 5.16681 11.6699 6.01693 11.8629M7.42265 7.33723C6.9372 6.6054 6.736 5.72136 6.85693 4.85152M11.3655 1.23438C10.7647 3.07496 10.8437 5.06998 11.5884 6.85723M20.3141 22.6287L8.86265 18.3601C8.52368 18.2404 8.22027 18.0373 7.98036 17.7696C7.74045 17.5019 7.57175 17.1781 7.48979 16.8281C7.40784 16.478 7.41526 16.113 7.51137 15.7666C7.60748 15.4202 7.7892 15.1036 8.03979 14.8458L15.2226 7.66295C15.488 7.41426 15.8118 7.23658 16.1641 7.1464C16.5164 7.05621 16.8858 7.05644 17.238 7.14705C17.5902 7.23766 17.9138 7.41573 18.1788 7.66474C18.4438 7.91375 18.6417 8.22565 18.7541 8.57152L23.0055 20.0229C23.1236 20.3939 23.1358 20.7905 23.0407 21.1681C22.9456 21.5456 22.7471 21.8891 22.4674 22.1599C22.1876 22.4307 21.8379 22.6181 21.4575 22.7009C21.077 22.7837 20.6811 22.7587 20.3141 22.6287ZM1.71408 6.48009C1.9414 6.48009 2.15942 6.38978 2.32017 6.22904C2.48091 6.06829 2.57122 5.85027 2.57122 5.62295C2.57122 5.39562 2.48091 5.1776 2.32017 5.01686C2.15942 4.85611 1.9414 4.7658 1.71408 4.7658C1.48675 4.7658 1.26873 4.85611 1.10798 5.01686C0.947239 5.1776 0.856934 5.39562 0.856934 5.62295C0.856934 5.85027 0.947239 6.06829 1.10798 6.22904C1.26873 6.38978 1.48675 6.48009 1.71408 6.48009Z" stroke="white" stroke-linecap="round" stroke-linejoin="round"/>
</svg>
