<svg width="20" height="20" viewBox="0 0 20 20" fill="none" xmlns="http://www.w3.org/2000/svg">
<path d="M1.66675 5.66699C1.66675 4.26686 1.66675 3.5668 1.93923 3.03202C2.17892 2.56161 2.56137 2.17916 3.03177 1.93948C3.56655 1.66699 4.26662 1.66699 5.66675 1.66699H14.3334C15.7335 1.66699 16.4336 1.66699 16.9684 1.93948C17.4388 2.17916 17.8212 2.56161 18.0609 3.03202C18.3334 3.5668 18.3334 4.26686 18.3334 5.66699V14.3337C18.3334 15.7338 18.3334 16.4339 18.0609 16.9686C17.8212 17.439 17.4388 17.8215 16.9684 18.0612C16.4336 18.3337 15.7335 18.3337 14.3334 18.3337H5.66675C4.26662 18.3337 3.56655 18.3337 3.03177 18.0612C2.56137 17.8215 2.17892 17.439 1.93923 16.9686C1.66675 16.4339 1.66675 15.7338 1.66675 14.3337V5.66699Z" stroke="#E5F7F9" stroke-width="1.25" stroke-linecap="round"/>
<path d="M8 10H12" stroke="white" stroke-linecap="round"/>
</svg>
