<svg width="20" height="20" viewBox="0 0 20 20" fill="none" xmlns="http://www.w3.org/2000/svg">
<path d="M6.52777 9.92281L8.70578 12.3912C8.77878 12.474 8.90746 12.4749 8.98167 12.3933L13.4722 7.45367M5.66663 18.3333H14.3333C15.7334 18.3333 16.4335 18.3333 16.9683 18.0608C17.4387 17.8211 17.8211 17.4387 18.0608 16.9683C18.3333 16.4335 18.3333 15.7334 18.3333 14.3333V5.66663C18.3333 4.26649 18.3333 3.56643 18.0608 3.03165C17.8211 2.56124 17.4387 2.17879 16.9683 1.93911C16.4335 1.66663 15.7334 1.66663 14.3333 1.66663H5.66663C4.26649 1.66663 3.56643 1.66663 3.03165 1.93911C2.56124 2.17879 2.17879 2.56124 1.93911 3.03165C1.66663 3.56643 1.66663 4.26649 1.66663 5.66663V14.3333C1.66663 15.7334 1.66663 16.4335 1.93911 16.9683C2.17879 17.4387 2.56124 17.8211 3.03165 18.0608C3.56643 18.3333 4.26649 18.3333 5.66663 18.3333Z" stroke="white" stroke-width="1.25" stroke-linecap="round"/>
</svg>
