<svg width="100" height="24" viewBox="0 0 100 24" fill="none" xmlns="http://www.w3.org/2000/svg">
<path d="M3.63803 21.673L3.29754 22.3413H3.29754L3.63803 21.673ZM2.32698 20.362L1.65873 20.7025H1.65873L2.32698 20.362ZM21.673 20.362L22.3413 20.7025V20.7025L21.673 20.362ZM20.362 21.673L20.7025 22.3413H20.7025L20.362 21.673ZM20.362 2.32698L20.7025 1.65873V1.65873L20.362 2.32698ZM21.673 3.63803L22.3413 3.29754V3.29754L21.673 3.63803ZM3.63803 2.32698L3.29754 1.65873L3.63803 2.32698ZM2.32698 3.63803L1.65873 3.29754L2.32698 3.63803ZM6 6V5.25C5.58579 5.25 5.25 5.58579 5.25 6H6ZM5.25 9.27273C5.25 9.68694 5.58579 10.0227 6 10.0227C6.41421 10.0227 6.75 9.68694 6.75 9.27273H5.25ZM9.27273 6.75C9.68694 6.75 10.0227 6.41421 10.0227 6C10.0227 5.58579 9.68694 5.25 9.27273 5.25V6.75ZM9.28785 10.3485C9.58075 10.6414 10.0556 10.6414 10.3485 10.3485C10.6414 10.0556 10.6414 9.58075 10.3485 9.28785L9.28785 10.3485ZM6 18H5.25C5.25 18.4142 5.58579 18.75 6 18.75V18ZM6.75 14.7273C6.75 14.3131 6.41421 13.9773 6 13.9773C5.58579 13.9773 5.25 14.3131 5.25 14.7273H6.75ZM9.27273 18.75C9.68694 18.75 10.0227 18.4142 10.0227 18C10.0227 17.5858 9.68694 17.25 9.27273 17.25V18.75ZM10.3485 14.7121C10.6414 14.4193 10.6414 13.9444 10.3485 13.6515C10.0556 13.3586 9.58075 13.3586 9.28785 13.6515L10.3485 14.7121ZM18 6H18.75C18.75 5.58579 18.4142 5.25 18 5.25V6ZM14.7273 5.25C14.3131 5.25 13.9773 5.58579 13.9773 6C13.9773 6.41421 14.3131 6.75 14.7273 6.75V5.25ZM17.25 9.27273C17.25 9.68694 17.5858 10.0227 18 10.0227C18.4142 10.0227 18.75 9.68694 18.75 9.27273H17.25ZM13.6515 9.28785C13.3586 9.58075 13.3586 10.0556 13.6515 10.3485C13.9444 10.6414 14.4193 10.6414 14.7121 10.3485L13.6515 9.28785ZM18 18V18.75C18.4142 18.75 18.75 18.4142 18.75 18H18ZM14.7273 17.25C14.3131 17.25 13.9773 17.5858 13.9773 18C13.9773 18.4142 14.3131 18.75 14.7273 18.75V17.25ZM18.75 14.7273C18.75 14.3131 18.4142 13.9773 18 13.9773C17.5858 13.9773 17.25 14.3131 17.25 14.7273H18.75ZM14.7121 13.6515C14.4193 13.3586 13.9444 13.3586 13.6515 13.6515C13.3586 13.9444 13.3586 14.4193 13.6515 14.7121L14.7121 13.6515ZM6.8 2V2.75H17.2V2V1.25H6.8V2ZM22 6.8H21.25V17.2H22H22.75V6.8H22ZM17.2 22V21.25H6.8V22V22.75H17.2V22ZM2 17.2H2.75V6.8H2H1.25V17.2H2ZM6.8 22V21.25C5.94755 21.25 5.35331 21.2494 4.89068 21.2116C4.4368 21.1745 4.17604 21.1054 3.97852 21.0048L3.63803 21.673L3.29754 22.3413C3.74175 22.5676 4.22189 22.662 4.76853 22.7066C5.30641 22.7506 5.9723 22.75 6.8 22.75V22ZM2 17.2H1.25C1.25 18.0277 1.24942 18.6936 1.29336 19.2315C1.33803 19.7781 1.43238 20.2582 1.65873 20.7025L2.32698 20.362L2.99524 20.0215C2.8946 19.824 2.82546 19.5632 2.78838 19.1093C2.75058 18.6467 2.75 18.0525 2.75 17.2H2ZM3.63803 21.673L3.97852 21.0048C3.55516 20.789 3.21095 20.4448 2.99524 20.0215L2.32698 20.362L1.65873 20.7025C2.01825 21.4081 2.59193 21.9817 3.29754 22.3413L3.63803 21.673ZM22 17.2H21.25C21.25 18.0525 21.2494 18.6467 21.2116 19.1093C21.1745 19.5632 21.1054 19.824 21.0048 20.0215L21.673 20.362L22.3413 20.7025C22.5676 20.2582 22.662 19.7781 22.7066 19.2315C22.7506 18.6936 22.75 18.0277 22.75 17.2H22ZM17.2 22V22.75C18.0277 22.75 18.6936 22.7506 19.2315 22.7066C19.7781 22.662 20.2582 22.5676 20.7025 22.3413L20.362 21.673L20.0215 21.0048C19.824 21.1054 19.5632 21.1745 19.1093 21.2116C18.6467 21.2494 18.0525 21.25 17.2 21.25V22ZM21.673 20.362L21.0048 20.0215C20.789 20.4448 20.4448 20.789 20.0215 21.0048L20.362 21.673L20.7025 22.3413C21.4081 21.9817 21.9817 21.4081 22.3413 20.7025L21.673 20.362ZM17.2 2V2.75C18.0525 2.75 18.6467 2.75058 19.1093 2.78838C19.5632 2.82546 19.824 2.8946 20.0215 2.99524L20.362 2.32698L20.7025 1.65873C20.2582 1.43238 19.7781 1.33803 19.2315 1.29336C18.6936 1.24942 18.0277 1.25 17.2 1.25V2ZM22 6.8H22.75C22.75 5.9723 22.7506 5.30641 22.7066 4.76853C22.662 4.22189 22.5676 3.74175 22.3413 3.29754L21.673 3.63803L21.0048 3.97852C21.1054 4.17604 21.1745 4.4368 21.2116 4.89068C21.2494 5.35331 21.25 5.94755 21.25 6.8H22ZM20.362 2.32698L20.0215 2.99524C20.4448 3.21095 20.789 3.55516 21.0048 3.97852L21.673 3.63803L22.3413 3.29754C21.9817 2.59193 21.4081 2.01825 20.7025 1.65873L20.362 2.32698ZM6.8 2V1.25C5.9723 1.25 5.30641 1.24942 4.76853 1.29336C4.22189 1.33803 3.74175 1.43238 3.29754 1.65873L3.63803 2.32698L3.97852 2.99524C4.17604 2.8946 4.4368 2.82546 4.89068 2.78838C5.35331 2.75058 5.94755 2.75 6.8 2.75V2ZM2 6.8H2.75C2.75 5.94755 2.75058 5.35331 2.78838 4.89068C2.82546 4.4368 2.8946 4.17604 2.99524 3.97852L2.32698 3.63803L1.65873 3.29754C1.43238 3.74175 1.33803 4.22189 1.29336 4.76853C1.24942 5.30641 1.25 5.9723 1.25 6.8H2ZM3.63803 2.32698L3.29754 1.65873C2.59193 2.01825 2.01825 2.59193 1.65873 3.29754L2.32698 3.63803L2.99524 3.97852C3.21095 3.55516 3.55516 3.21095 3.97852 2.99524L3.63803 2.32698ZM6 6H5.25V9.27273H6H6.75V6H6ZM6 6V6.75H9.27273V6V5.25H6V6ZM6 6L5.46967 6.53033L9.28785 10.3485L9.81818 9.81818L10.3485 9.28785L6.53033 5.46967L6 6ZM6 18H6.75V14.7273H6H5.25V18H6ZM6 18V18.75H9.27273V18V17.25H6V18ZM6 18L6.53033 18.5303L10.3485 14.7121L9.81818 14.1818L9.28785 13.6515L5.46967 17.4697L6 18ZM18 6V5.25H14.7273V6V6.75H18V6ZM18 6H17.25V9.27273H18H18.75V6H18ZM18 6L17.4697 5.46967L13.6515 9.28785L14.1818 9.81818L14.7121 10.3485L18.5303 6.53033L18 6ZM18 18V17.25H14.7273V18V18.75H18V18ZM18 18H18.75V14.7273H18H17.25V18H18ZM18 18L18.5303 17.4697L14.7121 13.6515L14.1818 14.1818L13.6515 14.7121L17.4697 18.5303L18 18Z" fill="#E5F7F9"/>
<path d="M36.293 7.4375V17.5H34.7686V8.95508H34.7139L32.3076 10.5342V9.07812L34.8164 7.4375H36.293ZM38.9863 16.1191L38.918 16.6592C38.7607 17.835 38.2412 19.3184 38.002 19.9609H36.9697C37.0928 19.3457 37.4072 18.0059 37.5303 16.6797L37.5713 16.1191H38.9863ZM43.3887 17.6367C41.2764 17.6367 39.7998 16.4473 39.8066 14.8066C39.7998 13.5488 40.6885 12.4893 41.8301 12.291V12.2158C40.832 11.9902 40.1758 11.0674 40.1826 9.98047C40.1758 8.44238 41.5293 7.30078 43.3887 7.30078C45.2344 7.30078 46.5879 8.44238 46.6016 9.98047C46.5879 11.0674 45.9248 11.9902 44.9473 12.2158V12.291C46.0684 12.4893 46.9639 13.5488 46.9707 14.8066C46.9639 16.4473 45.4873 17.6367 43.3887 17.6367ZM43.3887 16.3926C44.6328 16.3926 45.4258 15.7227 45.4258 14.7178C45.4258 13.6719 44.5576 12.9268 43.3887 12.9268C42.1992 12.9268 41.3379 13.6719 41.3516 14.7178C41.3379 15.7227 42.1309 16.3926 43.3887 16.3926ZM43.3887 11.7168C44.3936 11.71 45.1113 11.0742 45.125 10.1104C45.1113 9.16699 44.4141 8.53809 43.3887 8.54492C42.3496 8.53809 41.6523 9.16699 41.6523 10.1104C41.6523 11.0674 42.3701 11.71 43.3887 11.7168ZM51.5576 17.6641C49.2334 17.6641 47.8662 15.7637 47.873 12.4688C47.873 9.20117 49.2471 7.30078 51.5576 7.30078C53.8682 7.30078 55.2422 9.20117 55.249 12.4688C55.2422 15.7705 53.875 17.6641 51.5576 17.6641ZM51.5576 16.3584C52.918 16.3584 53.7383 14.9912 53.7383 12.4688C53.7314 9.9668 52.9043 8.58594 51.5576 8.59277C50.2041 8.58594 49.377 9.9668 49.3906 12.4688C49.377 14.9912 50.1973 16.3584 51.5576 16.3584ZM59.7607 17.6641C57.4365 17.6641 56.0693 15.7637 56.0762 12.4688C56.0762 9.20117 57.4502 7.30078 59.7607 7.30078C62.0713 7.30078 63.4453 9.20117 63.4521 12.4688C63.4453 15.7705 62.0781 17.6641 59.7607 17.6641ZM59.7607 16.3584C61.1211 16.3584 61.9414 14.9912 61.9414 12.4688C61.9346 9.9668 61.1074 8.58594 59.7607 8.59277C58.4072 8.58594 57.5801 9.9668 57.5938 12.4688C57.5801 14.9912 58.4004 16.3584 59.7607 16.3584ZM71.9082 17.6641C69.4814 17.6641 67.9775 16.3652 67.9775 14.1777H69.502C69.5088 15.5039 70.4248 16.3311 71.9355 16.3311C73.3096 16.3311 74.1367 15.668 74.1367 14.6973C74.1367 13.5557 73.0977 13.4189 72.0449 13.1523L70.9238 12.8721C69.5635 12.5303 68.1895 11.915 68.1895 10.2539C68.1895 8.44922 69.5908 7.27344 71.8193 7.27344C74.0342 7.27344 75.3877 8.51758 75.4355 10.4316H73.9385C73.8633 9.31738 73.0977 8.58594 71.7852 8.58594C70.5 8.58594 69.748 9.24219 69.748 10.2129C69.748 11.2588 71.1699 11.4844 72.0518 11.7031L72.9268 11.9219C74.458 12.3047 75.6885 12.9883 75.6885 14.6631C75.6885 16.5088 74.2529 17.6641 71.9082 17.6641ZM83.2764 20.3438H81.8135V16.4131H81.7793C81.3486 17.1992 80.5283 17.6094 79.5781 17.6094C77.7666 17.6094 76.5293 16.1738 76.5293 13.8906C76.5293 11.5801 77.7871 10.1719 79.5713 10.1719C80.5283 10.1719 81.3076 10.582 81.7793 11.4023H81.8135V10.2812H83.2764V20.3438ZM81.8887 13.8906C81.8887 12.373 81.1299 11.4092 79.9268 11.4092C78.7852 11.4092 78.0059 12.2705 78.0059 13.8906C78.0059 15.5107 78.7852 16.3584 79.9268 16.3584C81.1299 16.3584 81.8887 15.3945 81.8887 13.8906ZM88.3418 17.5V7.4375H94.7266V8.79102H89.873V11.8125H94.1865V13.1455H89.873V17.5H88.3418ZM98.3564 17.541C97.2354 17.541 96.292 16.9941 96.292 15.6816V11.4844H95.2529V10.2812H96.292V8.51074H97.7617V10.2812H99.1426V11.4844H97.7617V15.4424C97.7617 16.2148 98.1377 16.2969 98.5957 16.2969C98.7734 16.2969 98.9512 16.2832 99.0469 16.2627L99.1973 17.4795C99.0195 17.5137 98.7393 17.541 98.3564 17.541Z" fill="#E5F7F9"/>
</svg>
