<svg width="24" height="25" viewBox="0 0 24 25" fill="none" xmlns="http://www.w3.org/2000/svg">
<path fill-rule="evenodd" clip-rule="evenodd" d="M12.6773 2.75285L13.8671 3.7851C14.1068 3.99312 14.4289 4.07942 14.7405 4.01915L16.287 3.72008C16.7921 3.62241 17.2922 3.9111 17.4601 4.39735L17.9744 5.8862C18.078 6.18623 18.3138 6.422 18.6138 6.52564L20.1026 7.03989C20.5889 7.20785 20.8776 7.70787 20.7799 8.21296L20.4809 9.75946C20.4206 10.0711 20.5069 10.3932 20.7149 10.6329L21.7472 11.8227C22.0843 12.2113 22.0843 12.7887 21.7472 13.1773L20.7149 14.3671C20.5069 14.6068 20.4206 14.9289 20.4809 15.2405L20.7799 16.787C20.8776 17.2921 20.5889 17.7922 20.1026 17.9601L18.6138 18.4744C18.3138 18.578 18.078 18.8138 17.9744 19.1138L17.4601 20.6026C17.2922 21.0889 16.7921 21.3776 16.287 21.2799L14.7405 20.9809C14.4289 20.9206 14.1068 21.0069 13.8671 21.2149L12.6773 22.2472C12.2887 22.5843 11.7113 22.5843 11.3227 22.2472L10.1329 21.2149C9.89318 21.0069 9.57112 20.9206 9.25946 20.9809L7.71296 21.2799C7.20787 21.3776 6.70785 21.0889 6.53989 20.6026L6.02564 19.1138C5.922 18.8138 5.68623 18.578 5.3862 18.4744L3.89735 17.9601C3.4111 17.7922 3.12241 17.2921 3.22008 16.787L3.51915 15.2405C3.57942 14.9289 3.49312 14.6068 3.2851 14.3671L2.25285 13.1773C1.91572 12.7887 1.91572 12.2113 2.25285 11.8227L3.2851 10.6329C3.49312 10.3932 3.57942 10.0711 3.51915 9.75946L3.22008 8.21296C3.12241 7.70787 3.4111 7.20785 3.89735 7.03989L5.3862 6.52564C5.68623 6.422 5.922 6.18623 6.02564 5.8862L6.53989 4.39735C6.70785 3.9111 7.20787 3.62241 7.71296 3.72008L9.25946 4.01915C9.57112 4.07942 9.89318 3.99312 10.1329 3.7851L11.3227 2.75285C11.7113 2.41572 12.2887 2.41572 12.6773 2.75285Z" fill="#00AFC1"/>
<path d="M15.6355 10.9586C15.9257 10.663 15.9214 10.1881 15.6258 9.89794C15.3303 9.60774 14.8554 9.61209 14.5652 9.90765L10.9745 13.5647L9.44248 11.957C9.15672 11.6572 8.68198 11.6458 8.38212 11.9315C8.08227 12.2173 8.07084 12.692 8.3566 12.9919L10.3014 15.0326C10.6597 15.4085 11.2631 15.4118 11.6258 15.0423L15.6355 10.9586Z" fill="#E5F7F9"/>
</svg>
