<svg width="28" height="32" viewBox="0 0 28 32" fill="none" xmlns="http://www.w3.org/2000/svg">
<g clip-path="url(#clip0_85205_1233)">
<path d="M14.4454 19.1334C14.4761 19.2768 14.5624 19.4022 14.6853 19.4821C14.8083 19.5621 14.9579 19.5901 15.1014 19.5601H15.0974L23.9747 17.6294C24.0466 17.6145 24.1146 17.5848 24.1745 17.5424C24.2344 17.4999 24.2848 17.4456 24.3227 17.3827L24.3241 17.3801C24.3643 17.3168 24.3914 17.246 24.4038 17.172C24.4161 17.0981 24.4135 17.0224 24.3961 16.9494L24.3974 16.9534C21.9801 8.72808 17.1094 2.55341 11.0254 -0.00659178H10.9734C10.8904 -0.00661178 10.8085 0.0120332 10.7337 0.0479627C10.6589 0.0838922 10.5931 0.136186 10.5413 0.200973C10.4894 0.26576 10.4528 0.34138 10.4341 0.422236C10.4155 0.503091 10.4152 0.587111 10.4334 0.668075L10.4321 0.664075L14.4454 19.1334ZM5.86008 21.5601L12.8721 20.0427C13.0145 20.0119 13.1394 19.9268 13.2201 19.8054L13.2214 19.8027C13.2626 19.7427 13.2904 19.6744 13.3028 19.6026C13.3152 19.5308 13.312 19.4572 13.2934 19.3867L13.2947 19.3907L11.0614 9.10674C11.0404 8.99807 10.9862 8.89861 10.9061 8.82216C10.8261 8.74571 10.7243 8.69606 10.6147 8.68008H10.6121C10.5882 8.67357 10.5635 8.67043 10.5387 8.67074H10.5187C10.4225 8.67015 10.3291 8.695 10.2455 8.74276C10.1619 8.79052 10.0924 8.85951 10.0441 8.94274L10.0427 8.94541L9.88674 9.21208C7.80941 12.7401 6.00808 15.7921 5.19341 20.9387C5.17994 21.0271 5.1878 21.1173 5.21633 21.202C5.24486 21.2866 5.29324 21.3633 5.35741 21.4254C5.427 21.4832 5.50852 21.5249 5.59611 21.5475C5.68371 21.5701 5.77521 21.573 5.86408 21.5561H5.86008V21.5601ZM5.18141 27.1761C5.2939 27.174 5.40185 27.1314 5.48541 27.0561L5.80541 26.7361C6.41115 26.1344 7.23028 25.7967 8.08408 25.7967C8.93787 25.7967 9.75701 26.1344 10.3627 26.7361L10.6827 27.0561C10.7204 27.0945 10.7655 27.125 10.8152 27.1456C10.8649 27.1662 10.9183 27.1766 10.9721 27.1761H10.9854C11.0979 27.174 11.2059 27.1314 11.2894 27.0561L11.6294 26.7161C12.2333 26.1212 13.047 25.7878 13.8947 25.7881C14.7827 25.7881 15.5854 26.1467 16.1694 26.7254L16.4814 27.0374C16.5625 27.1169 16.6705 27.1631 16.7841 27.1667C16.8966 27.1647 17.0059 27.1221 17.0894 27.0467L17.4014 26.7347C18.0071 26.133 18.8263 25.7953 19.6801 25.7953C20.5339 25.7953 21.353 26.133 21.9587 26.7347L22.2787 27.0547C22.3534 27.1281 22.4547 27.1747 22.5681 27.1747H22.5827C22.6952 27.1727 22.8019 27.1301 22.8854 27.0547L23.2054 26.7347C23.5138 26.4272 23.8818 26.1858 24.2867 26.0254L24.3081 26.0174C24.3361 25.9614 24.3721 25.9174 24.4001 25.8614L27.7174 19.0974C27.7656 18.9946 27.785 18.8807 27.7735 18.7677C27.762 18.6547 27.72 18.547 27.6521 18.4561L27.6534 18.4574C27.5823 18.3671 27.4872 18.2985 27.379 18.2596C27.2708 18.2207 27.1538 18.213 27.0414 18.2374L27.0454 18.2361L3.49074 23.3454C3.38497 23.3688 3.28554 23.4149 3.19938 23.4806C3.11321 23.5462 3.04236 23.6298 2.99174 23.7256C2.94112 23.8214 2.91195 23.927 2.90626 24.0352C2.90056 24.1434 2.91847 24.2515 2.95874 24.3521L2.95741 24.3467L3.71074 26.2587C4.17208 26.4521 4.56541 26.7201 4.89608 27.0494C4.92589 27.0887 4.96439 27.1206 5.00856 27.1426C5.05274 27.1646 5.1014 27.176 5.15074 27.1761L5.18408 27.1747L5.18141 27.1761ZM27.2281 29.9881C26.7747 29.5387 26.1521 29.2627 25.4641 29.2627C24.7761 29.2627 24.1521 29.5401 23.7001 29.9894L23.3801 30.3094C23.1647 30.5222 22.8742 30.6415 22.5714 30.6415C22.2687 30.6415 21.9781 30.5222 21.7627 30.3094L21.4427 29.9894C20.9894 29.5401 20.3667 29.2641 19.6787 29.2641C18.9907 29.2641 18.3667 29.5414 17.9147 29.9907L17.6027 30.3027C17.3879 30.5149 17.098 30.6337 16.7961 30.6334H16.7881C16.6384 30.6333 16.4902 30.6031 16.3523 30.5447C16.2144 30.4863 16.0897 30.4009 15.9854 30.2934L15.6721 29.9801C15.2015 29.5135 14.5654 29.2522 13.9027 29.2534C13.2174 29.2534 12.5974 29.5267 12.1427 29.9707L11.8027 30.3107C11.5874 30.5235 11.2968 30.6428 10.9941 30.6428C10.6913 30.6428 10.4008 30.5235 10.1854 30.3107L9.86541 29.9907C9.41208 29.5414 8.78941 29.2641 8.10008 29.2641C7.41074 29.2641 6.78808 29.5414 6.33474 29.9907L6.01474 30.3107C5.79937 30.5235 5.50882 30.6428 5.20608 30.6428C4.90333 30.6428 4.61279 30.5235 4.39741 30.3107C3.86141 29.7827 3.12408 29.4561 2.31074 29.4561C1.49741 29.4561 0.761411 29.7827 0.224077 30.3107C0.160382 30.3734 0.109794 30.4481 0.0752635 30.5305C0.0407328 30.6129 0.0229492 30.7014 0.0229492 30.7907C0.0229492 30.8801 0.0407328 30.9685 0.0752635 31.051C0.109794 31.1334 0.160382 31.2081 0.224077 31.2707C0.28618 31.3345 0.360409 31.3851 0.442388 31.4197C0.524367 31.4542 0.612438 31.4721 0.701411 31.4721H0.706744C0.883485 31.4727 1.05326 31.4032 1.17874 31.2787C1.32693 31.1297 1.50311 31.0115 1.69715 30.9308C1.89119 30.8501 2.09927 30.8086 2.30941 30.8086C2.51956 30.8086 2.72763 30.8501 2.92167 30.9308C3.11571 31.0115 3.29189 31.1297 3.44008 31.2787C3.89341 31.7267 4.51608 32.0041 5.20408 32.0041C5.89208 32.0041 6.51608 31.7267 6.96808 31.2787L7.28808 30.9587C7.50345 30.746 7.794 30.6267 8.09674 30.6267C8.39949 30.6267 8.69004 30.746 8.90541 30.9587L9.22541 31.2787C9.67341 31.7267 10.2921 32.0041 10.9761 32.0041H10.9907H10.9894H10.9934C11.6761 32.0041 12.2947 31.7307 12.7454 31.2867L13.0947 30.9467C13.3101 30.734 13.6007 30.6147 13.9034 30.6147C14.2062 30.6147 14.4967 30.734 14.7121 30.9467L15.0241 31.2587C15.4747 31.7121 16.0987 31.9921 16.7881 31.9934H16.8027C17.4867 31.9934 18.1054 31.7161 18.5521 31.2681L18.8641 30.9561C19.0795 30.7433 19.37 30.624 19.6727 30.624C19.9755 30.624 20.266 30.7433 20.4814 30.9561L20.8014 31.2761C21.2547 31.7241 21.8774 32.0014 22.5654 32.0014C23.2534 32.0014 23.8774 31.7241 24.3294 31.2761L24.6494 30.9561C24.8648 30.7433 25.1553 30.624 25.4581 30.624C25.7608 30.624 26.0514 30.7433 26.2667 30.9561C26.3881 31.0761 26.5547 31.1494 26.7401 31.1494H26.7547C26.8424 31.1483 26.9289 31.13 27.0095 31.0955C27.09 31.0609 27.1629 31.0108 27.2241 30.9481C27.2885 30.886 27.3397 30.8116 27.3748 30.7293C27.4098 30.647 27.4279 30.5585 27.4281 30.469C27.4282 30.3796 27.4103 30.291 27.3755 30.2086C27.3407 30.1262 27.2896 30.0517 27.2254 29.9894L27.2281 29.9881Z" fill="#565C5D"/>
<path d="M2.27718 28.0574H2.28251C2.72251 28.0574 3.11985 28.2361 3.40785 28.5254C3.86118 28.9747 4.48385 29.2507 5.17185 29.2507C5.85985 29.2507 6.48385 28.9734 6.93585 28.5241L7.25585 28.2041C7.47122 27.9913 7.76177 27.872 8.06452 27.872C8.36726 27.872 8.65781 27.9913 8.87318 28.2041L9.19318 28.5241C9.64118 28.9734 10.2598 29.2507 10.9452 29.2507H10.9585H10.9612C11.6438 29.2507 12.2625 28.9774 12.7132 28.5334L13.0625 28.1934C13.2795 27.979 13.5728 27.8596 13.8778 27.8613C14.1828 27.8631 14.4747 27.9859 14.6892 28.2027L15.0012 28.5147C15.4518 28.9667 16.0758 29.2481 16.7652 29.2494H16.7785C17.4625 29.2494 18.0812 28.9721 18.5292 28.5227L18.8412 28.2107C19.0566 27.998 19.3471 27.8787 19.6498 27.8787C19.9526 27.8787 20.2431 27.998 20.4585 28.2107L20.7785 28.5307C21.2318 28.9801 21.8545 29.2561 22.5425 29.2561C23.2305 29.2561 23.8545 28.9787 24.3065 28.5294L24.6265 28.2094C24.8419 27.9966 25.1324 27.8773 25.4352 27.8773C25.7379 27.8773 26.0285 27.9966 26.2438 28.2094C26.3652 28.3294 26.5318 28.4027 26.7158 28.4027H26.7305C26.8181 28.4017 26.9047 28.3833 26.9852 28.3488C27.0658 28.3142 27.1387 28.2641 27.1998 28.2014C27.2635 28.1387 27.3141 28.064 27.3487 27.9816C27.3832 27.8992 27.401 27.8107 27.401 27.7214C27.401 27.632 27.3832 27.5436 27.3487 27.4612C27.3141 27.3788 27.2635 27.3041 27.1998 27.2414C26.7465 26.7921 26.1238 26.5161 25.4358 26.5161C24.7478 26.5161 24.1238 26.7934 23.6718 27.2427L23.3518 27.5627C23.1365 27.7755 22.8459 27.8948 22.5432 27.8948C22.2404 27.8948 21.9499 27.7755 21.7345 27.5627L21.4145 27.2427C20.9612 26.7934 20.3385 26.5174 19.6505 26.5174C18.9625 26.5174 18.3385 26.7947 17.8865 27.2441L17.5745 27.5561C17.3596 27.7682 17.0698 27.887 16.7678 27.8867H16.7598C16.6101 27.8866 16.4619 27.8564 16.3241 27.798C16.1862 27.7396 16.0615 27.6542 15.9572 27.5467L15.6438 27.2334C15.1734 26.7676 14.5378 26.5069 13.8758 26.5081C13.1905 26.5081 12.5692 26.7814 12.1158 27.2254L11.7758 27.5654C11.5605 27.7782 11.2699 27.8975 10.9672 27.8975C10.6644 27.8975 10.3739 27.7782 10.1585 27.5654L9.83852 27.2454C9.38518 26.7961 8.76252 26.5187 8.07318 26.5187C7.38385 26.5187 6.76118 26.7961 6.30785 27.2454L5.98785 27.5654C5.77247 27.7782 5.48193 27.8975 5.17918 27.8975C4.87644 27.8975 4.58589 27.7782 4.37051 27.5654C3.83451 27.0374 3.09718 26.7107 2.28385 26.7107C1.47051 26.7107 0.734515 27.0374 0.197181 27.5654C0.13266 27.6276 0.0813386 27.7021 0.0462847 27.7846C0.0112309 27.8671 -0.00683594 27.9558 -0.00683594 28.0454C-0.00683594 28.135 0.0112309 28.2237 0.0462847 28.3062C0.0813386 28.3886 0.13266 28.4632 0.197181 28.5254C0.259172 28.5893 0.33335 28.6402 0.415335 28.675C0.497319 28.7098 0.585447 28.7279 0.674515 28.7281H0.679848C0.856589 28.7287 1.02636 28.6592 1.15185 28.5347C1.43318 28.2401 1.82785 28.0561 2.26785 28.0561H2.27451L2.27718 28.0574Z" fill="#565C5D"/>
</g>
<defs>
<clipPath id="clip0_85205_1233">
<rect width="28" height="32" fill="white"/>
</clipPath>
</defs>
</svg>
