<svg width="44" height="32" viewBox="0 0 44 32" fill="none" xmlns="http://www.w3.org/2000/svg">
<path d="M30.25 9.25C29.8776 9.25 29.5553 9.15104 29.2832 8.95312C29.0111 8.75521 28.875 8.52083 28.875 8.25C28.875 7.71875 29.0111 7.20833 29.2832 6.71875C29.5553 6.22917 29.9564 5.79688 30.4863 5.42188L32.1836 4.17188C32.7279 3.77604 33 3.30208 33 2.75C33 2.47917 33.1361 2.24479 33.4082 2.04688C33.6803 1.84896 34.0026 1.75 34.375 1.75C34.7474 1.75 35.0697 1.84896 35.3418 2.04688C35.6139 2.24479 35.75 2.47917 35.75 2.75C35.75 3.28125 35.6139 3.79167 35.3418 4.28125C35.0697 4.77083 34.6686 5.20312 34.1387 5.57812L32.4414 6.82812C31.8971 7.22396 31.625 7.69792 31.625 8.25C31.625 8.52083 31.4889 8.75521 31.2168 8.95312C30.9447 9.15104 30.6224 9.25 30.25 9.25ZM22 9.25C21.6276 9.25 21.3053 9.15104 21.0332 8.95312C20.7611 8.75521 20.625 8.52083 20.625 8.25C20.625 7.71875 20.7611 7.20833 21.0332 6.71875C21.3053 6.22917 21.7064 5.79688 22.2363 5.42188L23.9336 4.17188C24.4779 3.77604 24.75 3.30208 24.75 2.75C24.75 2.47917 24.8861 2.24479 25.1582 2.04688C25.4303 1.84896 25.7526 1.75 26.125 1.75C26.4974 1.75 26.8197 1.84896 27.0918 2.04688C27.3639 2.24479 27.5 2.47917 27.5 2.75C27.5 3.28125 27.3639 3.79167 27.0918 4.28125C26.8197 4.77083 26.4186 5.20312 25.8887 5.57812L24.1914 6.82812C23.6471 7.22396 23.375 7.69792 23.375 8.25C23.375 8.52083 23.2389 8.75521 22.9668 8.95312C22.6947 9.15104 22.3724 9.25 22 9.25ZM39.875 12C40.4479 12 40.985 12.0781 41.4863 12.2344C41.9876 12.3906 42.4245 12.6042 42.7969 12.875C43.1693 13.1458 43.4629 13.4635 43.6777 13.8281C43.8926 14.1927 44 14.5833 44 15V21C44 21.4167 43.8926 21.8073 43.6777 22.1719C43.4629 22.5365 43.1693 22.8542 42.7969 23.125C42.4245 23.3958 41.9876 23.6094 41.4863 23.7656C40.985 23.9219 40.4479 24 39.875 24H38.6504C38.6217 24.0729 38.6003 24.1406 38.5859 24.2031C38.5716 24.2656 38.543 24.3281 38.5 24.3906V25C38.5 25.6875 38.321 26.3333 37.9629 26.9375C37.6048 27.5417 37.1107 28.0729 36.4805 28.5312C35.8503 28.9896 35.1198 29.349 34.2891 29.6094C33.4583 29.8698 32.5703 30 31.625 30H23.375C22.2578 30 21.2266 29.8177 20.2812 29.4531C19.3359 29.0885 18.5482 28.6042 17.918 28H7.17578C6.23047 28 5.34245 27.8698 4.51172 27.6094C3.68099 27.349 2.95052 26.9948 2.32031 26.5469C1.6901 26.099 1.19596 25.5677 0.837891 24.9531C0.479818 24.3385 0.300781 23.6875 0.300781 23V22H5.80078C5.80078 21.1771 6.01562 20.401 6.44531 19.6719C6.875 18.9427 7.4694 18.3073 8.22852 17.7656C8.98763 17.224 9.86133 16.7917 10.8496 16.4688C11.8379 16.1458 12.9049 15.9896 14.0508 16C14.4805 16 14.8958 16.026 15.2969 16.0781C15.6979 16.1302 16.099 16.2031 16.5 16.2969V10H38.5V12H39.875ZM14.0508 18C13.2917 18 12.5827 18.1042 11.9238 18.3125C11.265 18.5208 10.6777 18.8073 10.1621 19.1719C9.64648 19.5365 9.2526 19.9583 8.98047 20.4375C8.70833 20.9167 8.5651 21.4375 8.55078 22H16.5V18.4375C16.1276 18.3021 15.7409 18.1979 15.3398 18.125C14.9388 18.0521 14.5091 18.0104 14.0508 18ZM7.17578 26H16.6504C16.5501 25.6979 16.5 25.3646 16.5 25V24H3.28711C3.43034 24.2917 3.63086 24.5573 3.88867 24.7969C4.14648 25.0365 4.4401 25.25 4.76953 25.4375C5.09896 25.625 5.47135 25.7604 5.88672 25.8438C6.30208 25.9271 6.73177 25.9792 7.17578 26ZM17.123 27.0469V27.0625L17.1445 27.0938V27.0781L17.123 27.0469ZM35.75 25V12H19.25V25C19.25 25.4167 19.3574 25.8073 19.5723 26.1719C19.7871 26.5365 20.0807 26.8542 20.4531 27.125C20.8255 27.3958 21.2624 27.6094 21.7637 27.7656C22.265 27.9219 22.8021 28 23.375 28H31.625C32.1979 28 32.735 27.9219 33.2363 27.7656C33.7376 27.6094 34.1745 27.3958 34.5469 27.125C34.9193 26.8542 35.2129 26.5365 35.4277 26.1719C35.6426 25.8073 35.75 25.4167 35.75 25ZM41.25 21V15C41.25 14.7292 41.1139 14.4948 40.8418 14.2969C40.5697 14.099 40.2474 14 39.875 14H38.5V22H39.875C40.2474 22 40.5697 21.901 40.8418 21.7031C41.1139 21.5052 41.25 21.2708 41.25 21Z" fill="#565C5D"/>
</svg>
