<svg width="32" height="32" viewBox="0 0 32 32" fill="none" xmlns="http://www.w3.org/2000/svg">
<path d="M3.46652 13.8666C2.93963 14.4005 2.64643 15.1219 2.65143 15.8721C2.65643 16.6222 2.95922 17.3397 3.49319 17.8666C4.02716 18.3935 4.74857 18.6867 5.49871 18.6817C6.24886 18.6767 6.96629 18.3739 7.49319 17.8399L15.9999 9.33323L24.5332 17.8666C24.7977 18.1274 25.1109 18.3335 25.4551 18.4733C25.7992 18.613 26.1676 18.6836 26.539 18.681C26.9104 18.6784 27.2777 18.6027 27.6199 18.4581C27.962 18.3136 28.2724 18.103 28.5332 17.8386C28.794 17.5741 29.0002 17.2608 29.1399 16.9167C29.2796 16.5725 29.3502 16.2042 29.3476 15.8328C29.345 15.4613 29.2693 15.094 29.1247 14.7519C28.9802 14.4097 28.7697 14.0994 28.5052 13.8386L18.2665 3.5999C17.9688 3.30112 17.6149 3.06415 17.2253 2.90262C16.8356 2.7411 16.4179 2.6582 15.9961 2.65869C15.5743 2.65919 15.1567 2.74307 14.7675 2.90551C14.3782 3.06796 14.0249 3.30575 13.7279 3.60523L3.46652 13.8666Z" stroke="#565C5D" stroke-width="3.66667" stroke-linecap="round" stroke-linejoin="round"/>
<path d="M18.6663 29.3333V19.9999C18.6663 19.2927 18.3854 18.6144 17.8853 18.1143C17.3852 17.6142 16.7069 17.3333 15.9997 17.3333C15.2924 17.3333 14.6142 17.6142 14.1141 18.1143C13.614 18.6144 13.333 19.2927 13.333 19.9999V29.3333" stroke="#565C5D" stroke-width="3.66667" stroke-linecap="round" stroke-linejoin="round"/>
<path d="M18.6663 18.6665H26.6663V26.6665C26.6663 27.3737 26.3854 28.052 25.8853 28.5521C25.3852 29.0522 24.7069 29.3332 23.9997 29.3332H7.99967C7.29243 29.3332 6.61415 29.0522 6.11406 28.5521C5.61396 28.052 5.33301 27.3737 5.33301 26.6665V18.6665H13.333M5.33301 23.9998H13.333M18.6663 23.9998H26.6663" stroke="#565C5D" stroke-width="3.66667" stroke-linecap="round" stroke-linejoin="round"/>
</svg>
