<svg width="34" height="24" viewBox="0 0 34 24" fill="none" xmlns="http://www.w3.org/2000/svg">
<path d="M24.6591 0L23.348 0.0140573L23.3786 2.85317C20.0447 3.82079 15.4736 4.29079 11.2535 4.57012C13.8098 11.583 18.4901 17.2267 22.7501 23.2982C24.2591 21.8667 26.4727 20.9687 28.829 20.6754C27.314 19.3565 26.1607 18.6385 24.5438 15.5451C26.8214 18.2462 28.3734 19.0752 30.1975 20.0613C30.4352 19.1076 30.8485 18.2668 31.5611 17.6815C32.1923 17.1629 33.0197 16.9055 34.0032 16.9281C30.5892 12.5752 26.5981 8.40241 24.6927 3.13053L24.6591 0ZM10.2446 0.850351L8.93373 0.868123C8.93373 0.868123 8.95194 2.20392 8.97452 3.56084C8.98588 4.23937 8.99819 4.92308 9.01013 5.44938C9.0145 5.64138 9.01866 5.78297 9.02281 5.92587C6.51888 12.0246 3.98596 17.6518 -0.00292969 22.9287C2.44688 22.8276 4.82794 22.841 7.17512 22.9257C8.79665 18.365 8.87553 13.1035 9.77002 8.21253C10.6016 13.2063 10.5396 18.369 12.2088 23.2042C15.3379 23.4287 18.45 23.7285 21.63 24C17.5753 18.235 13.0199 12.7078 10.3319 5.83745C10.3283 5.70766 10.3247 5.5901 10.3209 5.41959C10.3091 4.89839 10.2966 4.21614 10.2853 3.53899C10.2628 2.18469 10.2446 0.850351 10.2446 0.850351Z" fill="#565C5D"/>
</svg>
