<svg width="30" height="37" viewBox="0 0 30 37" fill="none" xmlns="http://www.w3.org/2000/svg">
<path d="M13.1668 8.25H11.3335V10.0833H13.1668V8.25ZM15.0002 8.25H16.8335V10.0833H15.0002V8.25ZM20.5002 8.25H18.6668V10.0833H20.5002V8.25ZM11.3335 11.9167H13.1668V13.75H11.3335V11.9167ZM16.8335 11.9167H15.0002V13.75H16.8335V11.9167ZM18.6668 11.9167H20.5002V13.75H18.6668V11.9167ZM13.1668 15.5833H11.3335V17.4167H13.1668V15.5833ZM15.0002 15.5833H16.8335V17.4167H15.0002V15.5833ZM20.5002 15.5833H18.6668V17.4167H20.5002V15.5833ZM11.3335 19.25H13.1668V21.0833H11.3335V19.25ZM16.8335 19.25H15.0002V21.0833H16.8335V19.25ZM11.3335 22.9167H13.1668V24.75H11.3335V22.9167ZM16.8335 22.9167H15.0002V24.75H16.8335V22.9167ZM11.3335 26.5833H13.1668V28.4167H11.3335V26.5833ZM16.8335 26.5833H15.0002V28.4167H16.8335V26.5833ZM11.3335 30.25H13.1668V32.0833H11.3335V30.25ZM16.8335 30.25H15.0002V32.0833H16.8335V30.25ZM21.4168 23.8333H24.1668V22H21.4168V23.8333ZM24.1668 27.5H21.4168V25.6667H24.1668V27.5ZM21.4168 31.1667H24.1668V29.3333H21.4168V31.1667Z" fill="#565C5D"/>
<path fill-rule="evenodd" clip-rule="evenodd" d="M8.5835 0L23.2502 5.5V18.3333H26.9168C27.1599 18.3333 27.3931 18.4299 27.565 18.6018C27.7369 18.7737 27.8335 19.0069 27.8335 19.25V34.8333H28.7502C28.9933 34.8333 29.2264 34.9299 29.3983 35.1018C29.5703 35.2737 29.6668 35.5069 29.6668 35.75C29.6668 35.9931 29.5703 36.2263 29.3983 36.3982C29.2264 36.5701 28.9933 36.6667 28.7502 36.6667H1.25016C1.00705 36.6667 0.77389 36.5701 0.601982 36.3982C0.430073 36.2263 0.333496 35.9931 0.333496 35.75C0.333496 35.5069 0.430073 35.2737 0.601982 35.1018C0.77389 34.9299 1.00705 34.8333 1.25016 34.8333H2.16683V15.5833C2.16683 15.3402 2.26341 15.1071 2.43532 14.9352C2.60722 14.7632 2.84038 14.6667 3.0835 14.6667H4.91683V8.25H6.75016V14.6667H8.5835V0ZM10.4168 2.6455L21.4168 6.7705V18.3333H18.6668C18.4237 18.3333 18.1906 18.4299 18.0186 18.6018C17.8467 18.7737 17.7502 19.0069 17.7502 19.25V34.8333H10.4168V2.6455ZM4.00016 16.5V34.8333H8.5835V16.5H4.00016ZM26.0002 34.8333H24.1668V33H21.4168V34.8333H19.5835V20.1667H26.0002V34.8333Z" fill="#565C5D"/>
</svg>
