<svg width="32" height="32" viewBox="0 0 32 32" fill="none" xmlns="http://www.w3.org/2000/svg">
<path d="M8 19.3333H2V2H30V19.3333H24M23.3333 32C23.3333 29.3847 24.0589 26.8207 25.4293 24.5933L26 23.6667V23.3333H6V23.6667L6.57067 24.5933C7.94115 26.8207 8.66673 29.3847 8.66667 32M21.3333 20V15.3333C21.3333 15.3333 19.3333 14 16 14C12.6667 14 10.6667 15.3333 10.6667 15.3333V20M15.8 11.3333C15.8 11.3333 13.6667 10 13.6667 8.33333C13.6667 7.7152 13.9122 7.12239 14.3493 6.6853C14.7864 6.24822 15.3792 6.00267 15.9973 6.00267C16.6155 6.00267 17.2083 6.24822 17.6454 6.6853C18.0824 7.12239 18.328 7.7152 18.328 8.33333C18.328 10 16.2 11.3333 16.2 11.3333H15.8Z" stroke="#565C5D" stroke-width="1.83333"/>
</svg>
