<svg width="32" height="32" viewBox="0 0 32 32" fill="none" xmlns="http://www.w3.org/2000/svg">
<g clip-path="url(#clip0_85205_1246)">
<g clip-path="url(#clip1_85205_1246)">
<path d="M25.5591 29.2786H28.1147V31.8343H25.5591V29.2786ZM34.3933 29.2786H36.949V31.8343H34.3933V29.2786ZM32.2495 20.2146V17.6602H28.7075V18.9044L30.0287 20.2158L32.2495 20.2146Z" fill="#565C5D"/>
<path d="M41.0081 34.0258V28.637H41.8208L42.5762 27.8903L33.6271 18.9411H32.5161V20.4921H29.9127L28.3617 18.9411H24.0644L15.1251 27.8805L15.8804 28.6358H17.077V34.0246H14.7413C11.2482 30.683 10.3193 23.104 10.6456 17.4659L10.7031 17.351H10.7312C12.259 17.351 13.6132 18.0917 14.4565 19.2333L14.4651 19.2455C15.1006 20.1047 15.4832 21.1864 15.4832 22.356C15.4832 23.1627 15.3023 23.9266 14.9772 24.6098L14.9906 24.578C15.6727 24.4034 16.3069 24.0776 16.846 23.6247L16.8386 23.6308C17.4002 23.1424 17.8503 22.539 18.1584 21.8614C18.4665 21.1839 18.6254 20.4481 18.6243 19.7038C18.6243 18.5366 18.2405 17.4598 17.5927 16.592L17.6025 16.6055C17.0467 15.8304 16.2607 15.2503 15.3562 14.9477C14.4517 14.6451 13.4748 14.6354 12.5645 14.92L12.5963 14.9115C12.9202 14.7098 13.293 14.5314 13.6853 14.3957L13.7244 14.3835C14.2577 14.1867 14.8219 14.087 15.3903 14.0889C16.714 14.0889 17.913 14.6181 18.7893 15.4749L18.7881 15.4737C18.9187 14.7882 18.8797 14.0812 18.6744 13.4143L18.683 13.4448C18.4803 12.8503 18.1587 12.3033 17.7379 11.8372C17.317 11.371 16.8056 10.9953 16.2349 10.7331C15.6642 10.4709 15.0461 10.3276 14.4182 10.312C13.7904 10.2964 13.1659 10.4088 12.5828 10.6423L12.6134 10.6313C12.3184 10.7326 12.0315 10.8564 11.7554 11.0016L11.7908 10.9845C11.7072 10.6023 11.5839 10.23 11.423 9.87347L11.4376 9.90892C10.3621 7.49747 7.89562 6.35836 5.92418 7.35447C5.39208 7.62711 4.93472 8.02572 4.59195 8.51558L4.58462 8.52781C5.27858 8.59552 5.94711 8.82451 6.53684 9.19652C7.12657 9.56852 7.62117 10.0732 7.98118 10.6704L7.99218 10.6899C7.53507 10.4604 7.05095 10.2892 6.55118 10.1803L6.50962 10.1729C3.47851 9.52147 0.594066 11.1678 0.0770657 13.8579C-0.0610739 14.5959 -0.0153188 15.3565 0.210288 16.0726L0.201732 16.0408C0.87927 15.271 1.75648 14.7035 2.73639 14.4011C3.71631 14.0987 4.76076 14.0731 5.75429 14.3273L5.71518 14.3187C6.21507 14.4238 6.65751 14.5754 7.07184 14.7746L7.0364 14.7587C6.04473 14.6259 5.036 14.7923 4.1395 15.2365C3.243 15.6808 2.49957 16.3826 2.00451 17.252L1.99107 17.2765C1.47423 18.1483 1.20268 19.1437 1.20518 20.1573C1.20518 22.0737 2.15484 23.7677 3.61051 24.7944L3.62884 24.8066C4.25465 25.2283 4.96957 25.4993 5.71762 25.5986L5.74329 25.601C5.20433 24.7074 4.92068 23.6831 4.92318 22.6396C4.92318 21.5726 5.21284 20.5728 5.71884 19.716L5.70418 19.7429C6.07982 19.0884 6.59516 18.5247 7.21351 18.0921C7.83185 17.6594 8.53798 17.3684 9.28162 17.2398L9.31218 17.2349C7.58029 25.1219 7.10118 30.617 8.52995 34.0234H4.36707V36.3211H43.6591V34.0234H41.0081V34.0258ZM31.2914 28.7617H40.0498V34.0258H31.2914V28.7617ZM18.0168 27.7179L24.0668 21.6679L30.1168 27.7179V34.0258H23.4741V29.2787H20.1142V34.0258H18.0095V27.7179H18.0168Z" fill="#565C5D"/>
</g>
</g>
<defs>
<clipPath id="clip0_85205_1246">
<rect width="32" height="32" fill="white"/>
</clipPath>
<clipPath id="clip1_85205_1246">
<rect width="44" height="29.3333" fill="white" transform="translate(0 7)"/>
</clipPath>
</defs>
</svg>
