<svg width="32" height="32" viewBox="0 0 32 32" fill="none" xmlns="http://www.w3.org/2000/svg">
<path d="M30.6664 9.33336C28.3162 9.20405 25.9846 9.81493 23.9998 11.08C23.5198 10.5334 23.0264 9.98669 22.5064 9.46669L22.1198 9.10669L22.3064 8.94669C22.9585 8.38697 23.4231 7.64071 23.6377 6.8086C23.8523 5.9765 23.8065 5.0986 23.5064 4.29336C23.073 3.38426 22.3849 2.6206 21.5257 2.09514C20.6665 1.56968 19.6732 1.30504 18.6664 1.33336V4.00002C19.1408 3.99342 19.6084 4.1135 20.0209 4.34788C20.4334 4.58226 20.7759 4.92245 21.0131 5.33336C21.2398 5.86669 21.0131 6.45336 20.3864 7.08002L20.0798 7.36002C18.6891 6.20106 17.1623 5.21601 15.5331 4.42669C12.1598 2.90669 10.4264 3.61336 9.57311 4.42669C9.31359 4.68775 9.10552 4.99533 8.95978 5.33336L8.71978 6.04002L6.79978 11.8267C8.31978 15.6134 11.9998 22.3467 19.9998 25.2534L26.6664 23.04C26.8913 22.9563 27.0893 22.8135 27.2398 22.6267L27.5198 22.3867C29.4264 20.4667 28.1998 16.7734 25.6398 13.1867C27.1598 12.2996 28.9101 11.8864 30.6664 12V9.33336ZM25.6131 20.4934H25.5331C24.6131 20.9867 20.7998 19.7334 16.4798 15.4134C16.0264 14.96 15.5998 14.52 15.2131 14.08C15.0798 13.9334 14.9598 13.7734 14.8264 13.6134L14.1198 12.76L13.7464 12.24C13.5598 11.9867 13.3731 11.7334 13.2131 11.4934C13.0531 11.2534 12.9998 11.1467 12.8931 10.9734C12.7864 10.8 12.5998 10.52 12.4798 10.2934C12.3598 10.0667 12.3064 9.97336 12.2264 9.80002C12.1464 9.62669 11.9998 9.42669 11.9198 9.24002C11.8398 9.05336 11.7998 8.93336 11.7331 8.78669C11.6664 8.64002 11.5864 8.42669 11.5331 8.25336C11.4798 8.08002 11.4664 8.00002 11.4398 7.86669C11.4131 7.73336 11.3598 7.54669 11.3331 7.41336C11.3267 7.30679 11.3267 7.19993 11.3331 7.09336C11.3206 6.97814 11.3206 6.8619 11.3331 6.74669L11.4798 6.33336C11.7064 6.09336 12.6931 6.02669 14.4531 6.82669C15.6285 7.39322 16.7413 8.08143 17.7731 8.88002C17.2109 9.12737 16.6118 9.28052 15.9998 9.33336V12C17.4166 11.9213 18.7914 11.4905 19.9998 10.7467L20.6531 11.36C21.2398 11.9334 21.7598 12.5067 22.2398 13.0534C21.4349 14.4238 21.1154 16.0256 21.3331 17.6L23.9998 17.08C23.9088 16.5774 23.9088 16.0626 23.9998 15.56C25.7198 18.1867 26.0398 20.08 25.6131 20.4934ZM5.86645 14.6667L2.89311 23.6C2.67851 24.2559 2.62216 24.9532 2.72868 25.6351C2.8352 26.3169 3.10155 26.9638 3.50597 27.523C3.91039 28.0822 4.4414 28.5377 5.05558 28.8523C5.66977 29.167 6.34969 29.3318 7.03978 29.3334C7.49345 29.3292 7.94355 29.2527 8.37311 29.1067L17.0664 26.2134C12.16 23.7076 8.22156 19.6473 5.86645 14.6667Z" fill="#565C5D"/>
</svg>
