<svg width="32" height="32" viewBox="0 0 32 32" fill="none" xmlns="http://www.w3.org/2000/svg">
<path d="M21.5701 4.2666C21.3312 4.2666 20.6421 4.5802 20.6421 4.5802L13.5552 8.1642C12.6101 8.53753 12.2368 10.0437 12.8043 10.7967L14.8736 13.8005L6.40427 18.129L10.6667 21.329L16.0043 18.129L21.3376 21.329L23.4752 19.1914L17.0752 10.6581L22.5301 7.39407C23.6565 6.8266 23.4752 5.8922 23.4752 5.32474C23.4667 4.87674 22.7072 4.2666 21.5701 4.2666ZM26.1376 10.6666C25.6472 10.6662 25.1615 10.7624 24.7083 10.9496C24.255 11.1369 23.8431 11.4116 23.496 11.7581C23.149 12.1046 22.8735 12.516 22.6855 12.969C22.4974 13.4219 22.4004 13.9074 22.4 14.3978C22.3996 14.8882 22.4958 15.3739 22.683 15.8271C22.8703 16.2804 23.145 16.6923 23.4915 17.0394C23.838 17.3864 24.2494 17.6619 24.7024 17.8499C25.1553 18.038 25.6408 18.135 26.1312 18.1354C27.1216 18.1363 28.0718 17.7436 28.7728 17.0439C29.4737 16.3441 29.868 15.3946 29.8688 14.4042C29.8697 13.4138 29.477 12.4636 28.7773 11.7626C28.0775 11.0617 27.128 10.6675 26.1376 10.6666ZM5.33333 21.3333L0 24.5333V27.7333L5.33333 24.5333L10.6667 27.7333L16.0043 24.5333L21.3376 27.7333L25.6 24.5333L32 27.7333V24.5333L25.6 21.3333L21.3376 24.5333L16.0043 21.3333L10.6667 24.5333L5.33333 21.3333Z" fill="#565C5D"/>
</svg>
