<svg width="32" height="32" viewBox="0 0 32 32" fill="none" xmlns="http://www.w3.org/2000/svg">
<path d="M19.9998 24.7201C22.8398 24.2801 25.9998 24.0001 29.3332 24.0001V29.3334H6.6665C6.6665 28.4668 10.9332 26.4801 17.3332 25.2001V16.5334C16.2132 16.8668 15.2665 17.6134 14.6665 18.6001C14.253 17.9082 13.667 17.3354 12.9659 16.9376C12.2648 16.5399 11.4726 16.3308 10.6665 16.3308C9.86044 16.3308 9.06817 16.5399 8.36707 16.9376C7.66598 17.3354 7.08004 17.9082 6.6665 18.6001C6.7065 13.8267 11.3332 9.90675 17.3332 9.38675V9.33342C17.3332 8.97979 17.4736 8.64066 17.7237 8.39061C17.9737 8.14056 18.3129 8.00008 18.6665 8.00008C19.0201 8.00008 19.3593 8.14056 19.6093 8.39061C19.8594 8.64066 19.9998 8.97979 19.9998 9.33342V9.38675C25.9998 9.90675 30.6132 13.8267 30.6665 18.6001C30.253 17.9082 29.667 17.3354 28.9659 16.9376C28.2648 16.5399 27.4726 16.3308 26.6665 16.3308C25.8604 16.3308 25.0682 16.5399 24.3671 16.9376C23.666 17.3354 23.08 17.9082 22.6665 18.6001C22.0665 17.6134 21.1198 16.8668 19.9998 16.5201V24.7201ZM9.33317 2.66675C9.33317 3.54223 9.16073 4.40913 8.8257 5.21797C8.49067 6.02681 7.99961 6.76174 7.38055 7.38079C6.76149 7.99985 6.02656 8.49091 5.21773 8.82595C4.40889 9.16098 3.54198 9.33342 2.6665 9.33342V2.66675H9.33317Z" fill="#565C5D"/>
</svg>
