<svg width="120" height="40" viewBox="0 0 120 40" fill="none" xmlns="http://www.w3.org/2000/svg">
<rect x="0.5" y="0.5" width="119" height="39" rx="5.5" fill="white"/>
<rect x="0.5" y="0.5" width="119" height="39" rx="5.5" stroke="black"/>
<path d="M24.7045 20.7632C24.7166 19.8433 24.9669 18.9414 25.4321 18.1413C25.8972 17.3412 26.5621 16.6689 27.3648 16.1871C26.8548 15.4761 26.1821 14.8909 25.4 14.4781C24.6178 14.0653 23.7479 13.8362 22.8592 13.8091C20.9635 13.6148 19.1258 14.9165 18.1598 14.9165C17.1751 14.9165 15.6878 13.8284 14.0862 13.8605C13.0502 13.8932 12.0406 14.1873 11.1557 14.7142C10.2708 15.2411 9.54075 15.9828 9.03674 16.867C6.85352 20.5574 8.48201 25.981 10.5734 28.9641C11.6197 30.4248 12.8426 32.0565 14.4428 31.9986C16.0086 31.9352 16.5934 31.0238 18.4835 31.0238C20.3561 31.0238 20.9048 31.9986 22.5374 31.9618C24.2176 31.9352 25.2762 30.4946 26.2859 29.0201C27.0377 27.9793 27.6162 26.8289 28 25.6117C27.0238 25.2086 26.1908 24.5339 25.6048 23.6717C25.0187 22.8095 24.7056 21.798 24.7045 20.7632Z" fill="black"/>
<path d="M21.6208 11.8471C22.5369 10.7734 22.9883 9.39335 22.879 8C21.4793 8.14352 20.1865 8.7966 19.258 9.82911C18.804 10.3335 18.4563 10.9203 18.2348 11.556C18.0132 12.1917 17.9222 12.8638 17.9669 13.5338C18.6669 13.5408 19.3595 13.3927 19.9924 13.1005C20.6253 12.8084 21.1821 12.3798 21.6208 11.8471Z" fill="black"/>
<path d="M36.7954 14.5V8.15869H39.085C40.9658 8.15869 42.0688 9.31885 42.0688 11.3096V11.3184C42.0688 13.3311 40.9746 14.5 39.085 14.5H36.7954ZM37.7798 13.6519H38.9751C40.3022 13.6519 41.0669 12.8037 41.0669 11.3315V11.3228C41.0669 9.86377 40.2891 9.00684 38.9751 9.00684H37.7798V13.6519ZM45.3164 14.5923C43.9146 14.5923 43.0576 13.6562 43.0576 12.1182V12.1094C43.0576 10.5757 43.9189 9.63525 45.3164 9.63525C46.7095 9.63525 47.5708 10.5713 47.5708 12.1094V12.1182C47.5708 13.6562 46.7139 14.5923 45.3164 14.5923ZM45.3164 13.7969C46.1338 13.7969 46.5996 13.1729 46.5996 12.1182V12.1094C46.5996 11.0503 46.1338 10.4307 45.3164 10.4307C44.4946 10.4307 44.0332 11.0503 44.0332 12.1094V12.1182C44.0332 13.1772 44.4946 13.7969 45.3164 13.7969ZM49.4429 14.5L48.1245 9.72754H49.0825L49.9395 13.4102H50.0098L50.9941 9.72754H51.8994L52.8838 13.4102H52.9585L53.811 9.72754H54.7559L53.4419 14.5H52.4619L51.4731 10.9404H51.3984L50.4141 14.5H49.4429ZM55.7314 14.5V9.72754H56.6851V10.4526H56.7554C56.9883 9.94287 57.4453 9.63525 58.1396 9.63525C59.2075 9.63525 59.7964 10.2725 59.7964 11.4106V14.5H58.8472V11.6348C58.8472 10.8438 58.5176 10.4526 57.8188 10.4526C57.1201 10.4526 56.6851 10.9316 56.6851 11.7007V14.5H55.7314ZM61.1719 14.5V7.85547H62.1255V14.5H61.1719ZM65.5664 14.5923C64.1646 14.5923 63.3076 13.6562 63.3076 12.1182V12.1094C63.3076 10.5757 64.1689 9.63525 65.5664 9.63525C66.9595 9.63525 67.8208 10.5713 67.8208 12.1094V12.1182C67.8208 13.6562 66.9639 14.5923 65.5664 14.5923ZM65.5664 13.7969C66.3838 13.7969 66.8496 13.1729 66.8496 12.1182V12.1094C66.8496 11.0503 66.3838 10.4307 65.5664 10.4307C64.7446 10.4307 64.2832 11.0503 64.2832 12.1094V12.1182C64.2832 13.1772 64.7446 13.7969 65.5664 13.7969ZM70.2686 14.5791C69.3589 14.5791 68.6865 14.0254 68.6865 13.1597V13.1509C68.6865 12.2983 69.3281 11.8018 70.4663 11.7314L71.7583 11.6567V11.2349C71.7583 10.7119 71.4287 10.4219 70.7827 10.4219C70.2554 10.4219 69.9082 10.6152 69.7939 10.9536L69.7896 10.9712H68.8711L68.8755 10.9404C68.9897 10.1582 69.7412 9.63525 70.8267 9.63525C72.0264 9.63525 72.7031 10.2329 72.7031 11.2349V14.5H71.7583V13.8232H71.6836C71.4023 14.3066 70.9014 14.5791 70.2686 14.5791ZM69.6357 13.1201C69.6357 13.5596 70.0093 13.8188 70.5234 13.8188C71.2354 13.8188 71.7583 13.353 71.7583 12.7378V12.3291L70.5938 12.4038C69.9346 12.4434 69.6357 12.6807 69.6357 13.1113V13.1201ZM75.7881 14.5791C74.5884 14.5791 73.8105 13.6167 73.8105 12.1182V12.1094C73.8105 10.5977 74.5752 9.64404 75.7881 9.64404C76.4429 9.64404 77.001 9.96924 77.2559 10.4834H77.3306V7.85547H78.2798V14.5H77.3306V13.7485H77.2559C76.979 14.2715 76.4561 14.5791 75.7881 14.5791ZM76.0605 13.7661C76.856 13.7661 77.3438 13.1377 77.3438 12.1182V12.1094C77.3438 11.0898 76.8516 10.4614 76.0605 10.4614C75.2607 10.4614 74.7817 11.0854 74.7817 12.1094V12.1182C74.7817 13.1421 75.2607 13.7661 76.0605 13.7661ZM84.1816 14.5923C82.7798 14.5923 81.9229 13.6562 81.9229 12.1182V12.1094C81.9229 10.5757 82.7842 9.63525 84.1816 9.63525C85.5747 9.63525 86.436 10.5713 86.436 12.1094V12.1182C86.436 13.6562 85.5791 14.5923 84.1816 14.5923ZM84.1816 13.7969C84.999 13.7969 85.4648 13.1729 85.4648 12.1182V12.1094C85.4648 11.0503 84.999 10.4307 84.1816 10.4307C83.3599 10.4307 82.8984 11.0503 82.8984 12.1094V12.1182C82.8984 13.1772 83.3599 13.7969 84.1816 13.7969ZM87.5742 14.5V9.72754H88.5278V10.4526H88.5981C88.8311 9.94287 89.2881 9.63525 89.9824 9.63525C91.0503 9.63525 91.6392 10.2725 91.6392 11.4106V14.5H90.6899V11.6348C90.6899 10.8438 90.3604 10.4526 89.6616 10.4526C88.9629 10.4526 88.5278 10.9316 88.5278 11.7007V14.5H87.5742ZM97.2334 14.5308C96.1831 14.5308 95.7524 14.1616 95.7524 13.2432V10.479H95.0054V9.72754H95.7524V8.52344H96.7236V9.72754H97.7476V10.479H96.7236V13.0146C96.7236 13.5288 96.917 13.7397 97.3872 13.7397C97.5322 13.7397 97.6157 13.7354 97.7476 13.7222V14.4824C97.5938 14.5088 97.418 14.5308 97.2334 14.5308ZM98.9033 14.5V7.85547H99.8569V10.4526H99.9272C100.16 9.94287 100.617 9.63525 101.312 9.63525C102.379 9.63525 102.968 10.2725 102.968 11.4106V14.5H102.019V11.6348C102.019 10.8438 101.689 10.4526 100.991 10.4526C100.292 10.4526 99.8569 10.9316 99.8569 11.7007V14.5H98.9033ZM106.304 14.5923C104.906 14.5923 104.062 13.6387 104.062 12.127V12.1226C104.062 10.6328 104.924 9.63525 106.255 9.63525C107.587 9.63525 108.404 10.5977 108.404 12.0303V12.3643H105.021C105.038 13.2783 105.539 13.8101 106.326 13.8101C106.937 13.8101 107.301 13.5068 107.416 13.2607L107.433 13.2256L108.352 13.2212L108.343 13.2607C108.185 13.8892 107.525 14.5923 106.304 14.5923ZM106.26 10.4175C105.609 10.4175 105.117 10.8613 105.034 11.6831H107.459C107.385 10.8306 106.906 10.4175 106.26 10.4175Z" fill="black"/>
<path d="M38.2061 30.5H36.1758L40.3066 18.5029H42.5391L46.6611 30.5H44.5518L43.4883 27.1777H39.2783L38.2061 30.5ZM41.4316 20.5771H41.3525L39.7266 25.6484H43.04L41.4316 20.5771ZM52.2644 30.6318C51.0603 30.6318 50.1462 30.0605 49.654 29.208H49.5837V33.585H47.6325V21.21H49.531V22.5723H49.6013C50.1111 21.6846 51.0603 21.0869 52.3083 21.0869C54.3913 21.0869 55.8767 22.6602 55.8767 25.4375V26.2637C55.8767 29.0234 54.4089 30.6318 52.2644 30.6318ZM51.8161 29.0234C53.0554 29.0234 53.8991 28.0303 53.8991 26.1582V25.5078C53.8991 23.7061 53.1081 22.6777 51.781 22.6777C50.4187 22.6777 49.5661 23.7852 49.5661 25.499V26.1582C49.5661 27.916 50.4275 29.0234 51.8161 29.0234ZM62.183 30.6318C60.9789 30.6318 60.0649 30.0605 59.5727 29.208H59.5024V33.585H57.5512V21.21H59.4496V22.5723H59.52C60.0297 21.6846 60.9789 21.0869 62.227 21.0869C64.31 21.0869 65.7954 22.6602 65.7954 25.4375V26.2637C65.7954 29.0234 64.3276 30.6318 62.183 30.6318ZM61.7348 29.0234C62.9741 29.0234 63.8178 28.0303 63.8178 26.1582V25.5078C63.8178 23.7061 63.0268 22.6777 61.6996 22.6777C60.3373 22.6777 59.4848 23.7852 59.4848 25.499V26.1582C59.4848 27.916 60.3461 29.0234 61.7348 29.0234ZM69.8387 27.1689H71.7899C71.8778 28.2061 72.7919 29.0938 74.4882 29.0938C76.0438 29.0938 76.9667 28.3643 76.9667 27.2305C76.9667 26.3164 76.3514 25.8242 75.0682 25.5166L73.0995 25.0244C71.5526 24.6641 70.1639 23.7412 70.1639 21.79C70.1639 19.4961 72.1679 18.2393 74.497 18.2393C76.8261 18.2393 78.7684 19.4961 78.8124 21.7373H76.8964C76.8085 20.7178 76.0262 19.874 74.4706 19.874C73.0995 19.874 72.1679 20.5244 72.1679 21.6406C72.1679 22.4229 72.7128 22.9854 73.829 23.2402L75.7889 23.7236C77.5907 24.1631 78.9618 25.0156 78.9618 27.0547C78.9618 29.4102 77.0546 30.7373 74.3387 30.7373C70.9989 30.7373 69.8827 28.7861 69.8387 27.1689ZM81.3395 21.21V18.9512H83.2555V21.21H85.066V22.7744H83.2555V27.7314C83.2555 28.7422 83.6334 29.0234 84.6793 29.0234C84.8463 29.0234 85.0045 29.0234 85.1188 29.0059V30.5C84.9605 30.5264 84.5914 30.5615 84.1959 30.5615C81.9371 30.5615 81.3131 29.7529 81.3131 27.8896V22.7744H80.0299V21.21H81.3395ZM90.3353 21.0518C93.0071 21.0518 94.4573 22.9326 94.4573 25.4639V26.2109C94.4573 28.8301 93.0159 30.6582 90.3353 30.6582C87.6546 30.6582 86.1956 28.8301 86.1956 26.2109V25.4639C86.1956 22.9414 87.6634 21.0518 90.3353 21.0518ZM90.3353 22.6162C88.8851 22.6162 88.1644 23.8027 88.1644 25.4902V26.2021C88.1644 27.8633 88.8763 29.085 90.3353 29.085C91.7943 29.085 92.4974 27.8721 92.4974 26.2021V25.4902C92.4974 23.7939 91.7855 22.6162 90.3353 22.6162ZM96.1055 30.5V21.21H98.0567V22.4316H98.127C98.3643 21.8516 99.0586 21.0781 100.351 21.0781C100.606 21.0781 100.825 21.0957 101.01 21.1309V22.8535C100.843 22.8096 100.5 22.7832 100.175 22.7832C98.6104 22.7832 98.083 23.75 98.083 24.998V30.5H96.1055ZM105.743 30.6582C103.256 30.6582 101.674 29.0146 101.674 26.2637V25.3232C101.674 22.7305 103.22 21.0518 105.664 21.0518C108.142 21.0518 109.636 22.792 109.636 25.4111V26.2988H103.598V26.5186C103.598 28.083 104.442 29.1201 105.769 29.1201C106.762 29.1201 107.439 28.6279 107.677 27.8281H109.531C109.25 29.3311 108.037 30.6582 105.743 30.6582ZM103.598 24.9365H107.729V24.9189C107.729 23.6006 106.912 22.5635 105.673 22.5635C104.416 22.5635 103.598 23.6006 103.598 24.9189V24.9365Z" fill="black"/>
</svg>
