<svg width="120" height="40" viewBox="0 0 120 40" fill="none" xmlns="http://www.w3.org/2000/svg">
<rect x="0.5" y="0.5" width="119" height="39" rx="5.5" fill="white"/>
<rect x="0.5" y="0.5" width="119" height="39" rx="5.5" stroke="black"/>
<path d="M17.8048 19.4617L8.0896 30.0059C8.09051 30.0078 8.09051 30.0106 8.09142 30.0125C8.38981 31.1574 9.41179 32 10.6254 32C11.1108 32 11.5662 31.8656 11.9567 31.6305L11.9877 31.6118L22.9229 25.1593L17.8048 19.4617Z" fill="#EA4335"/>
<path d="M27.6331 17.6662L27.624 17.6597L22.9028 14.8612L17.5839 19.7013L22.922 25.1582L27.6176 22.3878C28.4407 21.9324 29 21.045 29 20.0223C29 19.0052 28.4489 18.1225 27.6331 17.6662Z" fill="#FBBC04"/>
<path d="M8.08942 9.99325C8.03102 10.2135 8 10.4449 8 10.6838V29.3163C8 29.5552 8.03102 29.7866 8.09034 30.0059L18.1386 19.7313L8.08942 9.99325Z" fill="#4285F4"/>
<path d="M17.8766 20L22.9044 14.8594L11.982 8.3836C11.585 8.14005 11.1215 8.00009 10.626 8.00009C9.4124 8.00009 8.38859 8.84456 8.09021 9.99043C8.09021 9.99136 8.08929 9.9923 8.08929 9.99323L17.8766 20Z" fill="#34A853"/>
<path d="M39.4673 13.1538C37.6699 13.1538 36.5361 11.8706 36.5361 9.83154V9.82275C36.5361 7.81006 37.6831 6.50488 39.4585 6.50488C40.8999 6.50488 41.9238 7.32227 42.1523 8.54834L42.1611 8.59229H41.1768L41.1636 8.54834C40.9351 7.79688 40.3286 7.375 39.4585 7.375C38.2852 7.375 37.5425 8.32422 37.5425 9.81836V9.82715C37.5425 11.3433 38.2896 12.2837 39.4805 12.2837C40.5176 12.2837 41.2251 11.6289 41.2339 10.6533V10.5127H39.6035V9.71729H42.2051V10.5039C42.2051 12.1123 41.1284 13.1538 39.4673 13.1538ZM45.457 13.0923C44.0596 13.0923 43.2158 12.1387 43.2158 10.627V10.6226C43.2158 9.13281 44.0771 8.13525 45.4087 8.13525C46.7402 8.13525 47.5576 9.09766 47.5576 10.5303V10.8643H44.1738C44.1914 11.7783 44.6924 12.3101 45.479 12.3101C46.0898 12.3101 46.4546 12.0068 46.5688 11.7607L46.5864 11.7256L47.5049 11.7212L47.4961 11.7607C47.3379 12.3892 46.6787 13.0923 45.457 13.0923ZM45.4131 8.91748C44.7627 8.91748 44.2705 9.36133 44.187 10.1831H46.6128C46.5381 9.33057 46.0591 8.91748 45.4131 8.91748ZM50.4932 13.0308C49.4429 13.0308 49.0122 12.6616 49.0122 11.7432V8.979H48.2651V8.22754H49.0122V7.02344H49.9834V8.22754H51.0073V8.979H49.9834V11.5146C49.9834 12.0288 50.1768 12.2397 50.647 12.2397C50.792 12.2397 50.8755 12.2354 51.0073 12.2222V12.9824C50.8535 13.0088 50.6777 13.0308 50.4932 13.0308ZM55.0767 7.375C54.7471 7.375 54.479 7.10693 54.479 6.78174C54.479 6.45215 54.7471 6.18408 55.0767 6.18408C55.4019 6.18408 55.6743 6.45215 55.6743 6.78174C55.6743 7.10693 55.4019 7.375 55.0767 7.375ZM54.5977 13V8.22754H55.5469V13H54.5977ZM58.7373 13.0308C57.687 13.0308 57.2563 12.6616 57.2563 11.7432V8.979H56.5093V8.22754H57.2563V7.02344H58.2275V8.22754H59.2515V8.979H58.2275V11.5146C58.2275 12.0288 58.4209 12.2397 58.8911 12.2397C59.0361 12.2397 59.1196 12.2354 59.2515 12.2222V12.9824C59.0977 13.0088 58.9219 13.0308 58.7373 13.0308ZM64.8457 13.0923C63.4438 13.0923 62.5869 12.1562 62.5869 10.6182V10.6094C62.5869 9.07568 63.4482 8.13525 64.8457 8.13525C66.2388 8.13525 67.1001 9.07129 67.1001 10.6094V10.6182C67.1001 12.1562 66.2432 13.0923 64.8457 13.0923ZM64.8457 12.2969C65.6631 12.2969 66.1289 11.6729 66.1289 10.6182V10.6094C66.1289 9.55029 65.6631 8.93066 64.8457 8.93066C64.0239 8.93066 63.5625 9.55029 63.5625 10.6094V10.6182C63.5625 11.6772 64.0239 12.2969 64.8457 12.2969ZM68.2383 13V8.22754H69.1919V8.95264H69.2622C69.4951 8.44287 69.9521 8.13525 70.6465 8.13525C71.7144 8.13525 72.3032 8.77246 72.3032 9.91064V13H71.354V10.1348C71.354 9.34375 71.0244 8.95264 70.3257 8.95264C69.627 8.95264 69.1919 9.43164 69.1919 10.2007V13H68.2383Z" fill="black"/>
<path d="M93.5181 28.4097H95.1469V17.3981H93.5181V28.4097ZM108.189 21.3646L106.322 26.1388H106.266L104.328 21.3646H102.573L105.479 28.0371L103.823 31.749H105.521L110 21.3646H108.189ZM98.9519 27.1588C98.4176 27.1588 97.6739 26.8902 97.6739 26.2234C97.6739 25.3742 98.6001 25.0483 99.4005 25.0483C100.116 25.0483 100.454 25.2042 100.889 25.4165C100.762 26.4365 99.892 27.1588 98.9519 27.1588ZM99.1483 21.1241C97.969 21.1241 96.7469 21.6482 96.2424 22.8101L97.6879 23.4188C97.9969 22.8101 98.5721 22.611 99.1762 22.611C100.019 22.611 100.875 23.121 100.889 24.0283V24.1411C100.594 23.971 99.9627 23.7165 99.1902 23.7165C97.632 23.7165 96.0451 24.5806 96.0451 26.1952C96.0451 27.6689 97.323 28.6184 98.7546 28.6184C99.8501 28.6184 100.454 28.1225 100.833 27.5411H100.889V28.3912H102.461V24.1692C102.461 22.2146 101.015 21.1241 99.1483 21.1241ZM89.0821 22.7053H86.7655V18.9308H89.0821C90.2998 18.9308 90.9911 19.9482 90.9911 20.8176C90.9911 21.6711 90.2998 22.7053 89.0821 22.7053ZM89.0402 17.3981H85.1375V28.4097H86.7655V24.2379H89.0402C90.8453 24.2379 92.6199 22.9184 92.6199 20.8176C92.6199 18.7168 90.8453 17.3981 89.0402 17.3981ZM67.7583 27.1606C66.6332 27.1606 65.6913 26.2102 65.6913 24.9047C65.6913 23.5852 66.6332 22.6198 67.7583 22.6198C68.8695 22.6198 69.7406 23.5852 69.7406 24.9047C69.7406 26.2102 68.8695 27.1606 67.7583 27.1606ZM69.6289 21.9812H69.5722C69.2064 21.5417 68.5038 21.1444 67.6178 21.1444C65.7611 21.1444 64.0599 22.7898 64.0599 24.9047C64.0599 27.0047 65.7611 28.6369 67.6178 28.6369C68.5038 28.6369 69.2064 28.2396 69.5722 27.7851H69.6289V28.3251C69.6289 29.7582 68.8695 30.5246 67.6457 30.5246C66.6471 30.5246 66.0282 29.8005 65.7751 29.1901L64.3549 29.7864C64.7626 30.78 65.8458 32 67.6457 32C69.5582 32 71.1757 30.8646 71.1757 28.0978V21.3708H69.6289V21.9812ZM72.3008 28.4097H73.9323V17.3973H72.3008V28.4097ZM76.3362 24.777C76.2943 23.3298 77.4474 22.5916 78.2766 22.5916C78.9243 22.5916 79.4725 22.9176 79.6549 23.3862L76.3362 24.777ZM81.3989 23.528C81.0899 22.6912 80.1472 21.1444 78.2208 21.1444C76.3083 21.1444 74.7196 22.6621 74.7196 24.8907C74.7196 26.9906 76.2943 28.6369 78.4032 28.6369C80.1053 28.6369 81.0899 27.5869 81.4976 26.9765L80.2319 26.1247C79.8103 26.7493 79.2333 27.1606 78.4032 27.1606C77.5739 27.1606 76.983 26.7774 76.6033 26.0261L81.5674 23.9534L81.3989 23.528ZM41.8501 22.2939V23.883H45.6184C45.5058 24.777 45.2107 25.4297 44.7612 25.8834C44.2121 26.4374 43.3541 27.0479 41.8501 27.0479C39.5291 27.0479 37.7152 25.1602 37.7152 22.8189C37.7152 20.4767 39.5291 18.5899 41.8501 18.5899C43.1018 18.5899 44.0157 19.0867 44.6905 19.7254L45.8017 18.604C44.8589 17.6959 43.6081 17 41.8501 17C38.6719 17 36 19.6117 36 22.8189C36 26.0261 38.6719 28.6369 41.8501 28.6369C43.5653 28.6369 44.8589 28.0688 45.8715 27.0047C46.9129 25.9547 47.2358 24.4793 47.2358 23.2866C47.2358 22.9176 47.2079 22.5775 47.1512 22.2939H41.8501ZM51.5208 27.1606C50.3957 27.1606 49.425 26.2243 49.425 24.8907C49.425 23.5421 50.3957 22.6198 51.5208 22.6198C52.6451 22.6198 53.6158 23.5421 53.6158 24.8907C53.6158 26.2243 52.6451 27.1606 51.5208 27.1606ZM51.5208 21.1444C49.4669 21.1444 47.7936 22.7194 47.7936 24.8907C47.7936 27.0479 49.4669 28.6369 51.5208 28.6369C53.5739 28.6369 55.2472 27.0479 55.2472 24.8907C55.2472 22.7194 53.5739 21.1444 51.5208 21.1444ZM59.65 27.1606C58.5249 27.1606 57.5542 26.2243 57.5542 24.8907C57.5542 23.5421 58.5249 22.6198 59.65 22.6198C60.7752 22.6198 61.745 23.5421 61.745 24.8907C61.745 26.2243 60.7752 27.1606 59.65 27.1606ZM59.65 21.1444C57.597 21.1444 55.9237 22.7194 55.9237 24.8907C55.9237 27.0479 57.597 28.6369 59.65 28.6369C61.7031 28.6369 63.3764 27.0479 63.3764 24.8907C63.3764 22.7194 61.7031 21.1444 59.65 21.1444Z" fill="black"/>
</svg>
