<svg width="24" height="24" viewBox="0 0 24 24" fill="none" xmlns="http://www.w3.org/2000/svg">
<path d="M2.9221 10.7777C4.06335 9.50051 5.46086 8.47808 7.02359 7.777C8.58632 7.07592 10.2792 6.71192 11.992 6.70871C13.7048 6.70551 15.399 7.06316 16.9644 7.75838C18.5297 8.45361 19.9311 9.4708 21.0771 10.7437C21.5131 11.2197 22.2181 10.5107 21.7841 10.0367C20.5451 8.67093 19.0335 7.58014 17.3469 6.83471C15.6603 6.08929 13.8361 5.7058 11.992 5.709C10.148 5.71221 8.32519 6.10203 6.64115 6.85331C4.95712 7.60459 3.44933 8.70063 2.2151 10.0707C1.7831 10.5457 2.4881 11.2547 2.9221 10.7777Z" fill="white"/>
<path d="M5.65407 13.1699C6.45938 12.2896 7.43877 11.5862 8.53017 11.1041C9.62157 10.6221 10.8012 10.3721 11.9943 10.3698C13.1874 10.3676 14.368 10.6132 15.4612 11.091C16.5544 11.5689 17.5364 12.2687 18.3451 13.1459C18.7821 13.6209 19.4881 12.9119 19.0521 12.4389C18.1499 11.4696 17.0574 10.697 15.8429 10.1695C14.6283 9.64194 13.318 9.37081 11.9938 9.37306C10.6697 9.37531 9.36026 9.65091 8.14754 10.1826C6.93481 10.7143 5.84491 11.4906 4.94607 12.4629C4.51307 12.9369 5.21807 13.6469 5.65407 13.1699Z" fill="white"/>
<path d="M8.70001 15.4914C9.11794 15.0321 9.62697 14.665 10.1946 14.4134C10.7623 14.1618 11.3762 14.0312 11.9971 14.03C12.6181 14.0287 13.2325 14.1569 13.8011 14.4063C14.3698 14.6556 14.8803 15.0208 15.3 15.4784C15.738 15.9524 16.443 15.2434 16.007 14.7714C15.4938 14.2218 14.8728 13.7838 14.1828 13.4847C13.4928 13.1857 12.7487 13.032 11.9967 13.0332C11.2447 13.0344 10.501 13.1905 9.81202 13.4918C9.12302 13.7931 8.50348 14.2331 7.99201 14.7844C7.55801 15.2584 8.26401 15.9674 8.70001 15.4914Z" fill="white"/>
<path d="M11.9989 18.2927C12.6175 18.2927 13.1189 17.7913 13.1189 17.1727C13.1189 16.5542 12.6175 16.0527 11.9989 16.0527C11.3803 16.0527 10.8789 16.5542 10.8789 17.1727C10.8789 17.7913 11.3803 18.2927 11.9989 18.2927Z" fill="white"/>
</svg>
