<svg width="24" height="24" viewBox="0 0 24 24" fill="none" xmlns="http://www.w3.org/2000/svg">
<path d="M18.25 1C17.9848 1 17.7304 1.10536 17.5429 1.29289C17.3554 1.48043 17.25 1.73478 17.25 2V7C17.25 7.26522 17.3554 7.51957 17.5429 7.70711C17.7304 7.89464 17.9848 8 18.25 8H19.5V22.375C19.5 22.5408 19.5658 22.6997 19.6831 22.8169C19.8003 22.9342 19.9592 23 20.125 23C20.2908 23 20.4497 22.9342 20.5669 22.8169C20.6842 22.6997 20.75 22.5408 20.75 22.375V8H22C22.2652 8 22.5196 7.89464 22.7071 7.70711C22.8946 7.51957 23 7.26522 23 7V2C23 1.73478 22.8946 1.48043 22.7071 1.29289C22.5196 1.10536 22.2652 1 22 1H18.25ZM16.25 3.0935C16.0012 3.0315 15.7459 3.0001 15.4895 3H8.3365C7.63708 3.00006 6.95789 3.23475 6.40765 3.66652C5.8574 4.09828 5.46791 4.70216 5.3015 5.3815L4.905 7H3.625C3.45924 7 3.30027 7.06585 3.18306 7.18306C3.06585 7.30027 3 7.45924 3 7.625C3 7.79076 3.06585 7.94973 3.18306 8.06694C3.30027 8.18415 3.45924 8.25 3.625 8.25H4.599L4.3825 9.1335C3.9765 9.2849 3.62649 9.55681 3.37939 9.91276C3.13229 10.2687 2.99991 10.6917 3 11.125V19.875C3 20.306 3.1712 20.7193 3.47595 21.024C3.7807 21.3288 4.19402 21.5 4.625 21.5H6.375C6.80598 21.5 7.2193 21.3288 7.52405 21.024C7.82879 20.7193 8 20.306 8 19.875V18.25H16V19.875C16 20.306 16.1712 20.7193 16.476 21.024C16.7807 21.3288 17.194 21.5 17.625 21.5H18.5V20.25H17.625C17.5255 20.25 17.4302 20.2105 17.3598 20.1402C17.2895 20.0698 17.25 19.9745 17.25 19.875V18.25H18.5V17H4.25V11.125C4.25 10.642 4.642 10.25 5.125 10.25H18.5V9H5.702L6.5155 5.679C6.61532 5.27138 6.84901 4.90903 7.17916 4.64995C7.50931 4.39087 7.91683 4.25004 8.3365 4.25H15.49C15.758 4.25 16.0165 4.307 16.2505 4.411L16.25 3.0935ZM10.125 14C9.95924 14 9.80027 14.0658 9.68306 14.1831C9.56585 14.3003 9.5 14.4592 9.5 14.625C9.5 14.7908 9.56585 14.9497 9.68306 15.0669C9.80027 15.1842 9.95924 15.25 10.125 15.25H13.875C14.0408 15.25 14.1997 15.1842 14.3169 15.0669C14.4342 14.9497 14.5 14.7908 14.5 14.625C14.5 14.4592 14.4342 14.3003 14.3169 14.1831C14.1997 14.0658 14.0408 14 13.875 14H10.125ZM7 14C7.26522 14 7.51957 13.8946 7.70711 13.7071C7.89464 13.5196 8 13.2652 8 13C8 12.7348 7.89464 12.4804 7.70711 12.2929C7.51957 12.1054 7.26522 12 7 12C6.73478 12 6.48043 12.1054 6.29289 12.2929C6.10536 12.4804 6 12.7348 6 13C6 13.2652 6.10536 13.5196 6.29289 13.7071C6.48043 13.8946 6.73478 14 7 14ZM18 13C18 13.2652 17.8946 13.5196 17.7071 13.7071C17.5196 13.8946 17.2652 14 17 14C16.7348 14 16.4804 13.8946 16.2929 13.7071C16.1054 13.5196 16 13.2652 16 13C16 12.7348 16.1054 12.4804 16.2929 12.2929C16.4804 12.1054 16.7348 12 17 12C17.2652 12 17.5196 12.1054 17.7071 12.2929C17.8946 12.4804 18 12.7348 18 13ZM4.25 19.875V18.25H6.75V19.875C6.75 19.9745 6.71049 20.0698 6.64016 20.1402C6.56984 20.2105 6.47446 20.25 6.375 20.25H4.625C4.52554 20.25 4.43016 20.2105 4.35984 20.1402C4.28951 20.0698 4.25 19.9745 4.25 19.875Z" fill="white"/>
</svg>
