<svg width="24" height="24" viewBox="0 0 24 24" fill="none" xmlns="http://www.w3.org/2000/svg">
<path d="M6.59902 1.31445L6.18309 2.5318C8.21058 2.92334 10.155 3.57275 11.9985 4.51958L12.4145 3.30378L6.59902 1.31445ZM13.2216 3.64798L12.8305 4.79206C13.0922 5.31631 13.1422 5.98611 12.8188 6.93069C16.2105 8.09192 19.4098 9.41113 23.3071 9.13522C20.5485 6.93669 17.4517 5.2752 13.2216 3.64803L13.2216 3.64798ZM6.09816 4.64558L4.93214 6.16602C7.31489 7.50111 9.47705 9.13287 11.3775 11.107L12.542 9.58939L6.09806 4.64558H6.09816ZM2.59866 4.77008L1.3418 5.5025C2.7293 7.26416 3.86245 9.18008 4.69777 11.2695L5.95308 10.5387L2.59856 4.77008H2.59866ZM13.1146 10.2823L12.2387 11.4249C12.399 12.2096 12.2137 13.0929 11.3774 14.1831C15.0224 16.9795 18.3686 19.888 23.2147 21.1455C20.7457 17.3218 17.6378 14.0187 13.1146 10.2822L13.1146 10.2823ZM6.30759 11.3473L5.21039 11.9844C5.06367 12.6112 4.63336 13.2055 3.68255 13.7584C5.61998 17.0907 7.28911 20.4147 10.6493 22.9355C9.9555 19.1989 8.60653 15.6608 6.30755 11.3472L6.30759 11.3473Z" fill="white"/>
</svg>
