<svg width="24" height="24" viewBox="0 0 24 24" fill="none" xmlns="http://www.w3.org/2000/svg">
<path d="M4.28564 10.286H19.7142M7.71422 5.14314V6.00028M6.85707 21.4289V23.1431M17.1428 21.4289V23.1431M17.9999 0.857422H5.99993C5.54527 0.857422 5.10924 1.03803 4.78775 1.35952C4.46626 1.68102 4.28564 2.11705 4.28564 2.57171V19.7146C4.28564 20.1692 4.46626 20.6053 4.78775 20.9267C5.10924 21.2482 5.54527 21.4289 5.99993 21.4289H17.9999C18.4546 21.4289 18.8906 21.2482 19.2121 20.9267C19.5336 20.6053 19.7142 20.1692 19.7142 19.7146V2.57171C19.7142 2.11705 19.5336 1.68102 19.2121 1.35952C18.8906 1.03803 18.4546 0.857422 17.9999 0.857422Z" stroke="white" stroke-linecap="round" stroke-linejoin="round"/>
</svg>
