<svg width="142" height="142" viewBox="0 0 142 142" fill="none" xmlns="http://www.w3.org/2000/svg">
<path d="M2.7903 17.75C1.2496 17.75 0 19.0891 0 20.7391V121.261C0 122.911 1.2496 124.249 2.7903 124.25H139.21C140.75 124.25 142 122.911 142 121.261V20.7391C142 19.0891 140.75 17.7514 139.21 17.75H2.7903ZM34.6097 23.7325H52.1964C56.7262 25.3186 61.398 26.8139 66.074 28.1842C76.3832 31.2031 86.5646 33.6597 94.4797 35.3637C96.9988 35.9061 99.1756 36.3392 101.169 36.7226C99.8047 38.1909 98.4656 39.6549 97.0982 41.1161L95.5972 42.7193C86.3772 39.8324 75.8294 36.9598 62.2642 34.1155C52.6934 32.1105 43.4676 28.4866 34.6097 23.7325ZM58.8633 23.7325H79.3865C84.9369 25.1785 90.5163 26.5107 96.1212 27.7283C99.9978 28.5633 103.306 29.2094 105.754 29.6397C106.741 29.8165 107.731 29.9755 108.724 30.1168C109.462 30.2176 110.074 30.2375 109.853 30.2446L109.861 30.4689C111.895 28.2388 113.911 25.9933 115.91 23.7325H123.482C117.136 31.0597 109.973 38.7901 102.801 46.4553C88.8877 61.3213 75.2444 75.828 69.5374 84.6206C71.1945 87.0666 72.0799 89.9533 72.0792 92.9078C72.0792 95.4538 71.4303 97.855 70.2886 99.9552C76.1063 104.503 80.4515 111.111 84.3863 118.268H77.8046C74.4194 112.517 70.8339 107.556 66.6832 104.34C64.7922 105.915 62.5378 106.994 60.1245 107.477C57.7113 107.96 55.2155 107.833 52.8638 107.108C51.513 110.899 49.9819 114.624 48.2757 118.269H41.9851C44.1535 113.806 46.1315 109.225 47.8015 104.379C44.4843 101.648 42.3629 97.5142 42.3629 92.9078C42.3629 88.9999 43.9007 85.4414 46.39 82.7817C37.9978 64.0235 22.8393 54.3817 5.58202 44.1364V37.4994C23.8887 48.2985 41.3589 58.5707 51.0959 79.3922C53.383 78.3403 55.9019 77.8936 58.4112 78.0947C60.9206 78.2959 63.3362 79.1382 65.4265 80.541C72.0579 70.7231 85.2142 56.9278 98.6502 42.5716C100.905 40.1619 103.13 37.7464 105.367 35.3296C105.142 35.2927 105.008 35.2756 104.768 35.233C101.475 34.6426 98.194 33.9917 94.9256 33.2805C87.0545 31.5865 76.9157 29.1398 66.6718 26.1394C64.0577 25.3724 61.4556 24.5701 58.8633 23.7325ZM88.1848 23.7325H113.032C111.761 25.1581 110.519 26.5682 109.195 28.0223C109.124 28.0152 109.086 28.0166 109.013 28.0067C108.047 27.8683 107.083 27.713 106.122 27.5409C103.713 27.1163 100.424 26.4759 96.5714 25.6466C93.7702 25.0377 90.9755 24.3996 88.1877 23.7325M126.309 23.7325H136.419V29.9592C136.36 29.9549 136.303 29.9421 136.243 29.9421H136.225C135.566 29.9446 134.935 30.2087 134.47 30.6765C134.006 31.1442 133.747 31.7773 133.749 32.4364C133.752 33.0954 134.016 33.7265 134.483 34.1908C134.951 34.6551 135.584 34.9146 136.243 34.9121C136.303 34.9121 136.36 34.8993 136.418 34.8951V39.8992C136.361 39.8949 136.304 39.8821 136.243 39.8821H136.225C135.566 39.8846 134.935 40.1487 134.47 40.6165C134.006 41.0842 133.747 41.7173 133.749 42.3764C133.752 43.0354 134.016 43.6665 134.483 44.1308C134.951 44.5951 135.584 44.8546 136.243 44.8521C136.303 44.8521 136.36 44.8393 136.418 44.8351V49.8392C136.361 49.8349 136.304 49.8221 136.243 49.8221C135.584 49.8221 134.952 50.0839 134.486 50.55C134.02 51.016 133.758 51.6481 133.758 52.3071C133.758 52.9662 134.02 53.5983 134.486 54.0643C134.952 54.5303 135.584 54.7921 136.243 54.7921C136.303 54.7921 136.36 54.7793 136.418 54.7751V56.614C135.295 56.2576 134.149 55.9011 133.054 55.5433C132.774 55.2566 132.429 55.0417 132.048 54.9171C131.668 54.7925 131.262 54.7618 130.867 54.8276C129.957 54.5252 129.082 54.2241 128.192 53.9217C128.455 53.6135 128.64 53.2456 128.728 52.85C128.817 52.4544 128.807 52.0431 128.701 51.652C128.594 51.2609 128.393 50.9018 128.116 50.6062C127.838 50.3105 127.493 50.0872 127.109 49.9558C126.726 49.8243 126.316 49.7887 125.915 49.852C125.515 49.9153 125.136 50.0757 124.812 50.319C124.487 50.5624 124.228 50.8814 124.055 51.2482C123.882 51.6151 123.802 52.0186 123.821 52.4236C121.796 51.715 119.814 51.0064 117.826 50.2992C117.436 50.0145 116.971 49.8497 116.488 49.825C115.48 49.4657 114.453 49.105 113.441 48.7458C113.812 48.2075 113.956 47.5446 113.842 46.9008C113.728 46.257 113.364 45.6842 112.83 45.3065L110.564 47.7347C109.077 47.2093 107.498 46.6868 105.977 46.1642C113.077 38.5729 120.111 30.9617 126.309 23.7325ZM133.494 26.3453C131.853 26.7514 130.46 27.4642 129.038 28.5392C129.177 28.8412 129.374 29.1125 129.619 29.3369C129.864 29.5614 130.151 29.7344 130.464 29.8458C130.777 29.9573 131.109 30.0048 131.441 29.9857C131.773 29.9665 132.097 29.8811 132.395 29.7344C132.693 29.5877 132.959 29.3827 133.176 29.1316C133.394 28.8804 133.559 28.5882 133.661 28.2723C133.764 27.9563 133.802 27.623 133.774 27.292C133.745 26.961 133.649 26.6391 133.494 26.3453ZM127.218 30.1168C126.107 31.1567 125.033 32.2352 123.997 33.3501C124.15 33.7324 124.395 34.0708 124.711 34.3348C125.027 34.5988 125.404 34.7802 125.807 34.8626C126.211 34.9451 126.628 34.926 127.022 34.8072C127.416 34.6883 127.775 34.4734 128.065 34.1817C128.356 33.89 128.57 33.5306 128.687 33.136C128.804 32.7414 128.822 32.3237 128.737 31.9207C128.653 31.5177 128.471 31.1418 128.205 30.8269C127.94 30.5121 127.601 30.268 127.218 30.1168ZM5.58628 32.9426C31.3096 50.0323 52.7786 57.0826 78.3769 61.2929C72.9738 67.2995 68.2395 72.8801 64.7847 77.7336C62.442 76.5434 59.8523 75.9207 57.2246 75.916C55.4624 75.916 53.7584 76.1915 52.1552 76.6999C41.7693 56.0332 23.8063 45.7581 5.58628 35.0144V32.9426ZM131.256 34.9121C130.93 34.9146 130.607 34.9814 130.307 35.1086C130.006 35.2358 129.734 35.421 129.505 35.6535C129.276 35.886 129.095 36.1614 128.972 36.4639C128.85 36.7663 128.788 37.09 128.79 37.4163C128.793 37.7426 128.86 38.0653 128.987 38.3658C129.114 38.6663 129.299 38.9389 129.532 39.1678C129.764 39.3968 130.04 39.5777 130.342 39.7003C130.645 39.8229 130.968 39.8846 131.295 39.8821C131.954 39.877 132.584 39.6103 133.046 39.1407C133.509 38.6711 133.766 38.037 133.76 37.3779C133.755 36.7189 133.489 36.0888 133.019 35.6264C132.549 35.164 131.915 34.907 131.256 34.9121ZM122.339 35.1223L119.135 38.553C119.32 38.9038 119.586 39.2054 119.911 39.4324C120.236 39.6594 120.611 39.8054 121.004 39.8581C121.397 39.9107 121.797 39.8686 122.17 39.7352C122.544 39.6017 122.88 39.3809 123.15 39.0911C123.421 38.8013 123.618 38.4509 123.726 38.0693C123.833 37.6876 123.848 37.2858 123.769 36.8973C123.689 36.5088 123.518 36.145 123.269 35.8362C123.02 35.5274 122.701 35.2826 122.339 35.1223ZM126.286 39.8821C125.96 39.8846 125.637 39.9514 125.337 40.0786C125.036 40.2058 124.764 40.391 124.535 40.6235C124.306 40.856 124.125 41.1314 124.002 41.4339C123.88 41.7363 123.818 42.06 123.82 42.3863C123.823 42.7126 123.89 43.0353 124.017 43.3358C124.144 43.6363 124.329 43.9089 124.562 44.1378C124.794 44.3668 125.07 44.5477 125.372 44.6703C125.675 44.7929 125.998 44.8546 126.325 44.8521C126.984 44.847 127.614 44.5803 128.076 44.1107C128.539 43.6411 128.796 43.007 128.79 42.3479C128.785 41.6889 128.519 41.0588 128.049 40.5964C127.579 40.134 126.945 39.877 126.286 39.8821ZM117.594 40.2059L114.296 43.7403C114.503 44.053 114.779 44.3147 115.102 44.5056C115.425 44.6965 115.787 44.8118 116.162 44.8427C116.536 44.8737 116.912 44.8195 117.262 44.6842C117.612 44.5489 117.927 44.3361 118.183 44.0617C118.439 43.7873 118.63 43.4585 118.741 43.0999C118.851 42.7413 118.88 42.3622 118.823 41.9912C118.766 41.6202 118.626 41.2668 118.414 40.9576C118.201 40.6484 117.921 40.3914 117.594 40.2059ZM121.315 44.8521C120.989 44.8547 120.666 44.9216 120.365 45.0489C120.065 45.1762 119.792 45.3614 119.564 45.594C119.335 45.8266 119.154 46.102 119.031 46.4045C118.909 46.707 118.847 47.0307 118.85 47.357C118.852 47.6833 118.919 48.006 119.047 48.3065C119.174 48.607 119.359 48.8794 119.592 49.1083C119.824 49.3372 120.1 49.5181 120.402 49.6406C120.705 49.763 121.028 49.8247 121.355 49.8221C122.014 49.817 122.644 49.5503 123.106 49.0807C123.569 48.6111 123.826 47.977 123.82 47.3179C123.815 46.6589 123.549 46.0288 123.079 45.5664C122.609 45.104 121.974 44.847 121.315 44.8521ZM131.256 44.8521C130.93 44.8547 130.607 44.9216 130.307 45.0489C130.006 45.1762 129.734 45.3614 129.505 45.594C129.276 45.8266 129.095 46.102 128.973 46.4045C128.85 46.707 128.789 47.0307 128.791 47.357C128.794 47.6833 128.861 48.006 128.988 48.3065C129.115 48.607 129.3 48.8794 129.533 49.1083C129.766 49.3372 130.041 49.5181 130.344 49.6406C130.646 49.763 130.97 49.8247 131.296 49.8221C131.955 49.817 132.585 49.5503 133.048 49.0807C133.51 48.6111 133.767 47.977 133.762 47.3179C133.757 46.6589 133.49 46.0288 133.02 45.5664C132.551 45.104 131.915 44.847 131.256 44.8521ZM5.5877 46.6243C21.8865 56.3371 35.8635 65.4719 43.9007 82.4409C41.6188 85.3349 40.24 88.9687 40.24 92.9063C40.24 97.6179 42.2024 101.899 45.3406 104.989C43.6877 109.596 41.748 113.978 39.6265 118.268H33.4808L37.3858 111.505L33.2365 109.11L34.7147 106.547L28.968 103.23L20.2847 118.268H5.58202V68.6144L16.4933 75.1208L23.2781 63.7438L5.58344 53.1904L5.5877 46.6243ZM90.2836 63.1005C93.578 63.6472 96.773 64.4098 99.8402 65.3299C99.5047 65.6167 99.2517 65.9877 99.107 66.4047C98.9624 66.8216 98.9315 67.2696 99.0174 67.7025C99.1033 68.1355 99.3029 68.5377 99.5958 68.8679C99.8887 69.198 100.264 69.4443 100.684 69.5812C101.103 69.7182 101.552 69.7409 101.983 69.6471C102.414 69.5533 102.813 69.3463 103.138 69.0474C103.462 68.7485 103.702 68.3686 103.831 67.9466C103.96 67.5246 103.975 67.0758 103.873 66.6463C105.817 67.3321 107.693 68.0663 109.51 68.8331C109.757 69.1212 110.066 69.3491 110.415 69.4992C110.763 69.6494 111.141 69.7178 111.52 69.6993C112.441 70.1111 113.332 70.5286 114.213 70.9489C114.046 71.2425 113.94 71.5671 113.902 71.903C113.864 72.239 113.896 72.579 113.994 72.9025C114.092 73.226 114.255 73.526 114.473 73.7842C114.691 74.0425 114.96 74.2535 115.262 74.4044C115.565 74.5553 115.895 74.6429 116.232 74.6619C116.57 74.6808 116.908 74.6307 117.225 74.5146C117.543 74.3985 117.833 74.2188 118.079 73.9866C118.324 73.7544 118.52 73.4745 118.654 73.1641C119.638 73.6795 120.486 74.1694 121.401 74.675L121.319 74.6721C120.766 74.6759 120.229 74.8645 119.795 75.2079C119.361 75.5513 119.053 76.0299 118.922 76.5677C118.791 77.1055 118.843 77.6718 119.07 78.1766C119.297 78.6815 119.686 79.0961 120.176 79.3546C120.666 79.613 121.227 79.7007 121.772 79.6035C122.317 79.5063 122.814 79.23 123.184 78.8182C123.555 78.4065 123.777 77.883 123.815 77.3307C123.854 76.7784 123.707 76.2291 123.398 75.7698C127.938 78.34 131.516 80.5694 133.802 81.694C133.739 82.0514 133.755 82.4184 133.849 82.769C133.942 83.1197 134.112 83.4456 134.345 83.7237C134.578 84.0019 134.87 84.2255 135.199 84.379C135.527 84.5325 135.886 84.6121 136.249 84.6121C136.309 84.6121 136.363 84.5908 136.422 84.5866V89.5992C136.365 89.5949 136.309 89.5821 136.248 89.5821H136.229C135.57 89.5846 134.939 89.8487 134.475 90.3165C134.01 90.7842 133.751 91.4173 133.753 92.0763C133.756 92.7354 134.02 93.3665 134.488 93.8308C134.955 94.2951 135.589 94.5546 136.248 94.5521C136.307 94.5521 136.364 94.5393 136.422 94.5351V99.5392C136.365 99.5349 136.309 99.5221 136.248 99.5221C135.589 99.5221 134.956 99.7839 134.49 100.25C134.024 100.716 133.763 101.348 133.763 102.007C133.763 102.666 134.024 103.298 134.49 103.764C134.956 104.23 135.589 104.492 136.248 104.492C136.307 104.492 136.364 104.479 136.422 104.475V118.268H86.833C82.999 111.139 78.7532 104.354 72.9241 99.3475C73.9026 96.9974 74.3327 94.4553 74.1819 91.9141C74.0311 89.3729 73.3032 86.8995 72.0536 84.6817C75.7783 79.2758 82.5332 71.5694 90.2779 63.1005H90.2836ZM96.489 69.7021C96.1794 69.7021 95.8727 69.7589 95.5845 69.8725C95.3247 71.3828 95.2807 72.9223 95.4538 74.4449C95.7914 74.6001 96.1595 74.6777 96.531 74.6718C96.9026 74.6659 97.2681 74.5769 97.6006 74.4111C97.9331 74.2453 98.2243 74.007 98.4526 73.7139C98.6808 73.4207 98.8405 73.0801 98.9197 72.717C98.999 72.354 98.9958 71.9778 98.9104 71.6162C98.825 71.2546 98.6597 70.9167 98.4264 70.6274C98.1932 70.3381 97.8981 70.1049 97.5628 69.9447C97.2275 69.7846 96.8606 69.7017 96.489 69.7021ZM106.429 69.7021C105.77 69.7021 105.138 69.9639 104.672 70.43C104.206 70.896 103.944 71.5281 103.944 72.1871C103.944 72.8462 104.206 73.4783 104.672 73.9443C105.138 74.4103 105.77 74.6721 106.429 74.6721C107.088 74.6721 107.72 74.4103 108.186 73.9443C108.652 73.4783 108.914 72.8462 108.914 72.1871C108.914 71.5281 108.652 70.896 108.186 70.43C107.72 69.9639 107.088 69.7021 106.429 69.7021ZM25.8454 74.3981L20.7008 83.3086L17.2487 89.2868L26.1592 94.4328L29.6127 88.4532L33.1513 90.498L38.296 81.5861L34.7573 79.5413L25.8454 74.3981ZM101.439 74.6721C101.113 74.6746 100.79 74.7414 100.49 74.8686C100.189 74.9958 99.9165 75.181 99.6876 75.4135C99.2251 75.8831 98.9682 76.5172 98.9733 77.1763C98.9784 77.8353 99.2451 78.4654 99.7147 78.9278C100.184 79.3903 100.818 79.6472 101.477 79.6421C102.137 79.637 102.767 79.3703 103.229 78.9007C103.691 78.4311 103.948 77.797 103.943 77.1379C103.938 76.4789 103.672 75.8488 103.202 75.3864C102.732 74.924 102.098 74.667 101.439 74.6721ZM111.379 74.6721C111.053 74.6746 110.73 74.7414 110.43 74.8686C110.129 74.9958 109.857 75.181 109.628 75.4135C109.165 75.8831 108.908 76.5172 108.913 77.1763C108.918 77.8353 109.185 78.4654 109.655 78.9278C110.124 79.3903 110.758 79.6472 111.417 79.6421C112.077 79.637 112.707 79.3703 113.169 78.9007C113.631 78.4311 113.888 77.797 113.883 77.1379C113.878 76.4789 113.612 75.8488 113.142 75.3864C112.672 74.924 112.038 74.667 111.379 74.6721ZM106.409 79.6421C106.083 79.6446 105.76 79.7114 105.46 79.8386C105.159 79.9658 104.887 80.151 104.658 80.3835C104.429 80.616 104.248 80.8914 104.125 81.1939C104.003 81.4963 103.941 81.82 103.943 82.1463C103.946 82.4726 104.013 82.7953 104.14 83.0958C104.267 83.3963 104.452 83.6689 104.685 83.8978C104.917 84.1268 105.193 84.3077 105.495 84.4303C105.797 84.5529 106.121 84.6146 106.447 84.6121C107.107 84.607 107.737 84.3403 108.199 83.8707C108.661 83.4011 108.918 82.767 108.913 82.1079C108.908 81.4489 108.642 80.8188 108.172 80.3564C107.702 79.894 107.068 79.637 106.409 79.6421ZM116.349 79.6421C116.023 79.6446 115.7 79.7114 115.4 79.8386C115.099 79.9658 114.827 80.151 114.598 80.3835C114.369 80.616 114.188 80.8914 114.065 81.1939C113.943 81.4963 113.881 81.82 113.883 82.1463C113.886 82.4726 113.953 82.7953 114.08 83.0958C114.207 83.3963 114.392 83.6689 114.625 83.8978C114.857 84.1268 115.133 84.3077 115.435 84.4303C115.737 84.5529 116.061 84.6146 116.387 84.6121C117.047 84.607 117.677 84.3403 118.139 83.8707C118.601 83.4011 118.858 82.767 118.853 82.1079C118.848 81.4489 118.582 80.8188 118.112 80.3564C117.642 79.894 117.008 79.637 116.349 79.6421ZM126.289 79.6421C125.963 79.6446 125.64 79.7114 125.34 79.8386C125.039 79.9658 124.767 80.151 124.538 80.3835C124.309 80.616 124.128 80.8914 124.005 81.1939C123.883 81.4963 123.821 81.82 123.823 82.1463C123.826 82.4726 123.893 82.7953 124.02 83.0958C124.147 83.3963 124.332 83.6689 124.565 83.8978C124.797 84.1268 125.073 84.3077 125.375 84.4303C125.677 84.5529 126.001 84.6146 126.327 84.6121C126.987 84.607 127.617 84.3403 128.079 83.8707C128.541 83.4011 128.798 82.767 128.793 82.1079C128.788 81.4489 128.522 80.8188 128.052 80.3564C127.582 79.894 126.948 79.637 126.289 79.6421ZM96.8767 79.6719C96.8951 79.716 96.9065 79.7586 96.9264 79.8026C96.8992 81.4024 96.8334 83.0013 96.729 84.5979C97.3293 84.5378 97.8873 84.2613 98.2988 83.82C98.7102 83.3787 98.9471 82.8028 98.9652 82.1998C98.9833 81.5967 98.7813 81.0076 98.397 80.5425C98.0127 80.0774 97.4723 79.7679 96.8767 79.6719ZM57.2274 83.7275C56.0204 83.722 54.8244 83.9558 53.7083 84.4152C52.5921 84.8747 51.5781 85.5507 50.7248 86.4043C49.8715 87.2579 49.1957 88.2721 48.7366 89.3884C48.2775 90.5046 48.0441 91.7008 48.05 92.9078C48.0438 94.1147 48.2769 95.3109 48.7359 96.4272C49.1949 97.5434 49.8707 98.5576 50.7241 99.411C51.5776 100.264 52.5918 100.94 53.708 101.399C54.8243 101.858 56.0205 102.091 57.2274 102.085C58.4344 102.091 59.6305 101.858 60.7468 101.399C61.863 100.939 62.8773 100.264 63.7309 99.4104C64.5845 98.557 65.2605 97.543 65.72 96.4269C66.1794 95.3108 66.4132 94.1147 66.4077 92.9078C66.4134 91.7006 66.1798 90.5043 65.7204 89.3879C65.261 88.2716 64.585 87.2573 63.7314 86.4037C62.8779 85.5501 61.8636 84.8741 60.7472 84.4148C59.6309 83.9554 58.4346 83.7218 57.2274 83.7275ZM101.439 84.6121C101.113 84.6146 100.79 84.6814 100.49 84.8086C100.189 84.9358 99.9165 85.121 99.6876 85.3535C99.4586 85.586 99.2777 85.8614 99.1551 86.1639C99.0326 86.4663 98.9708 86.79 98.9733 87.1163C98.9758 87.4426 99.0426 87.7653 99.1698 88.0658C99.297 88.3663 99.4822 88.6389 99.7147 88.8678C99.9472 89.0968 100.223 89.2777 100.525 89.4003C100.827 89.5229 101.151 89.5846 101.477 89.5821C102.137 89.577 102.767 89.3103 103.229 88.8407C103.691 88.3711 103.948 87.737 103.943 87.0779C103.938 86.4189 103.672 85.7888 103.202 85.3264C102.732 84.864 102.098 84.607 101.439 84.6121ZM111.379 84.6121C111.053 84.6146 110.73 84.6814 110.43 84.8086C110.129 84.9358 109.857 85.121 109.628 85.3535C109.399 85.586 109.218 85.8614 109.095 86.1639C108.973 86.4663 108.911 86.79 108.913 87.1163C108.916 87.4426 108.983 87.7653 109.11 88.0658C109.237 88.3663 109.422 88.6389 109.655 88.8678C109.887 89.0968 110.163 89.2777 110.465 89.4003C110.767 89.5229 111.091 89.5846 111.417 89.5821C112.077 89.577 112.707 89.3103 113.169 88.8407C113.631 88.3711 113.888 87.737 113.883 87.0779C113.878 86.4189 113.612 85.7888 113.142 85.3264C112.672 84.864 112.038 84.607 111.379 84.6121ZM121.319 84.6121C120.993 84.6146 120.67 84.6814 120.37 84.8086C120.069 84.9358 119.797 85.121 119.568 85.3535C119.339 85.586 119.158 85.8614 119.035 86.1639C118.913 86.4663 118.851 86.79 118.853 87.1163C118.856 87.4426 118.923 87.7653 119.05 88.0658C119.177 88.3663 119.362 88.6389 119.595 88.8678C119.827 89.0968 120.103 89.2777 120.405 89.4003C120.707 89.5229 121.031 89.5846 121.357 89.5821C122.017 89.577 122.647 89.3103 123.109 88.8407C123.571 88.3711 123.828 87.737 123.823 87.0779C123.818 86.4189 123.552 85.7888 123.082 85.3264C122.612 84.864 121.978 84.607 121.319 84.6121ZM131.259 84.6121C130.933 84.6146 130.61 84.6814 130.31 84.8086C130.009 84.9358 129.737 85.121 129.508 85.3535C129.279 85.586 129.098 85.8614 128.975 86.1639C128.853 86.4663 128.791 86.79 128.793 87.1163C128.796 87.4426 128.863 87.7653 128.99 88.0658C129.117 88.3663 129.302 88.6389 129.535 88.8678C129.767 89.0968 130.043 89.2777 130.345 89.4003C130.647 89.5229 130.971 89.5846 131.297 89.5821C131.957 89.577 132.587 89.3103 133.049 88.8407C133.511 88.3711 133.768 87.737 133.763 87.0779C133.758 86.4189 133.492 85.7888 133.022 85.3264C132.552 84.864 131.918 84.607 131.259 84.6121ZM57.2274 85.8575C61.1793 85.8575 64.2777 88.9559 64.2777 92.9078C64.2777 96.8596 61.1793 99.9552 57.2274 99.9552C53.2756 99.9552 50.18 96.8596 50.18 92.9078C50.18 88.9559 53.2756 85.8575 57.2274 85.8575ZM106.409 89.5821C106.083 89.5846 105.76 89.6514 105.46 89.7786C105.159 89.9058 104.887 90.091 104.658 90.3235C104.429 90.556 104.248 90.8314 104.125 91.1339C104.003 91.4363 103.941 91.76 103.943 92.0863C103.946 92.4126 104.013 92.7353 104.14 93.0358C104.267 93.3363 104.452 93.6089 104.685 93.8378C104.917 94.0668 105.193 94.2477 105.495 94.3703C105.797 94.4929 106.121 94.5546 106.447 94.5521C107.107 94.547 107.737 94.2803 108.199 93.8107C108.661 93.3411 108.918 92.707 108.913 92.048C108.908 91.3889 108.642 90.7588 108.172 90.2964C107.702 89.834 107.068 89.577 106.409 89.5821ZM116.349 89.5821C116.023 89.5846 115.7 89.6514 115.4 89.7786C115.099 89.9058 114.827 90.091 114.598 90.3235C114.369 90.556 114.188 90.8314 114.065 91.1339C113.943 91.4363 113.881 91.76 113.883 92.0863C113.886 92.4126 113.953 92.7353 114.08 93.0358C114.207 93.3363 114.392 93.6089 114.625 93.8378C114.857 94.0668 115.133 94.2477 115.435 94.3703C115.737 94.4929 116.061 94.5546 116.387 94.5521C117.047 94.547 117.677 94.2803 118.139 93.8107C118.601 93.3411 118.858 92.707 118.853 92.048C118.848 91.3889 118.582 90.7588 118.112 90.2964C117.642 89.834 117.008 89.577 116.349 89.5821ZM126.289 89.5821C125.963 89.5846 125.64 89.6514 125.34 89.7786C125.039 89.9058 124.767 90.091 124.538 90.3235C124.309 90.556 124.128 90.8314 124.005 91.1339C123.883 91.4363 123.821 91.76 123.823 92.0863C123.826 92.4126 123.893 92.7353 124.02 93.0358C124.147 93.3363 124.332 93.6089 124.565 93.8378C124.797 94.0668 125.073 94.2477 125.375 94.3703C125.677 94.4929 126.001 94.5546 126.327 94.5521C126.987 94.547 127.617 94.2803 128.079 93.8107C128.541 93.3411 128.798 92.707 128.793 92.048C128.788 91.3889 128.522 90.7588 128.052 90.2964C127.582 89.834 126.948 89.577 126.289 89.5821ZM96.9036 89.6148C97.2217 90.4043 97.838 91.0277 98.9541 91.7647C98.8895 91.2333 98.655 90.7369 98.2855 90.3496C97.9161 89.9622 97.4314 89.7045 96.9036 89.6148ZM111.379 94.5521C111.053 94.5546 110.73 94.6214 110.43 94.7486C110.129 94.8758 109.857 95.061 109.628 95.2935C109.399 95.526 109.218 95.8014 109.095 96.1039C108.973 96.4063 108.911 96.73 108.913 97.0563C108.916 97.3826 108.983 97.7053 109.11 98.0058C109.237 98.3063 109.422 98.5789 109.655 98.8078C109.887 99.0368 110.163 99.2177 110.465 99.3403C110.767 99.4628 111.091 99.5246 111.417 99.5221C112.077 99.517 112.707 99.2503 113.169 98.7807C113.631 98.3111 113.888 97.677 113.883 97.018C113.878 96.3589 113.612 95.7288 113.142 95.2664C112.672 94.804 112.038 94.547 111.379 94.5521ZM121.319 94.5521C120.993 94.5546 120.67 94.6214 120.37 94.7486C120.069 94.8758 119.797 95.061 119.568 95.2935C119.339 95.526 119.158 95.8014 119.035 96.1039C118.913 96.4063 118.851 96.73 118.853 97.0563C118.856 97.3826 118.923 97.7053 119.05 98.0058C119.177 98.3063 119.362 98.5789 119.595 98.8078C119.827 99.0368 120.103 99.2177 120.405 99.3403C120.707 99.4628 121.031 99.5246 121.357 99.5221C122.017 99.517 122.647 99.2503 123.109 98.7807C123.571 98.3111 123.828 97.677 123.823 97.018C123.818 96.3589 123.552 95.7288 123.082 95.2664C122.612 94.804 121.978 94.547 121.319 94.5521ZM131.259 94.5521C130.933 94.5546 130.61 94.6214 130.31 94.7486C130.009 94.8758 129.737 95.061 129.508 95.2935C129.279 95.526 129.098 95.8014 128.975 96.1039C128.853 96.4063 128.791 96.73 128.793 97.0563C128.796 97.3826 128.863 97.7053 128.99 98.0058C129.117 98.3063 129.302 98.5789 129.535 98.8078C129.767 99.0368 130.043 99.2177 130.345 99.3403C130.647 99.4628 130.971 99.5246 131.297 99.5221C131.957 99.517 132.587 99.2503 133.049 98.7807C133.511 98.3111 133.768 97.677 133.763 97.018C133.758 96.3589 133.492 95.7288 133.022 95.2664C132.552 94.804 131.918 94.547 131.259 94.5521ZM93.4502 97.0698C88.8664 97.0698 85.1049 100.833 85.1049 105.415C85.1049 109.999 88.8679 113.758 93.4502 113.758C98.0325 113.758 101.793 109.999 101.793 105.415C101.793 100.833 98.0325 97.0698 93.4502 97.0698ZM116.36 99.5221C115.875 99.5221 115.4 99.6644 114.994 99.9315C114.588 100.199 114.27 100.579 114.078 101.025C113.886 101.471 113.829 101.963 113.914 102.442C113.999 102.92 114.222 103.363 114.556 103.715L118.194 103.686C118.519 103.33 118.735 102.887 118.813 102.412C118.892 101.936 118.83 101.448 118.636 101.006C118.442 100.565 118.123 100.19 117.719 99.9262C117.316 99.6626 116.843 99.5223 116.36 99.5221ZM126.302 99.5221C125.826 99.5224 125.36 99.6593 124.96 99.9165C124.56 100.174 124.242 100.54 124.044 100.973C123.846 101.406 123.776 101.886 123.843 102.357C123.91 102.828 124.111 103.27 124.422 103.63L128.21 103.596C128.513 103.233 128.705 102.792 128.766 102.324C128.826 101.855 128.752 101.379 128.551 100.952C128.351 100.524 128.033 100.162 127.635 99.909C127.236 99.6556 126.774 99.5223 126.302 99.5221ZM93.4516 101.328C93.9891 101.324 94.522 101.427 95.0193 101.631C95.5166 101.835 95.9683 102.136 96.3482 102.516C96.7282 102.896 97.0287 103.348 97.2323 103.846C97.4359 104.343 97.5385 104.876 97.5341 105.414C97.5388 105.951 97.4365 106.484 97.233 106.982C97.0295 107.479 96.729 107.931 96.3489 108.311C95.9689 108.691 95.517 108.992 95.0195 109.195C94.5221 109.399 93.9891 109.501 93.4516 109.496C92.9141 109.501 92.3812 109.398 91.8838 109.194C91.3863 108.991 90.9344 108.69 90.5542 108.31C90.174 107.93 89.8732 107.479 89.6692 106.981C89.4653 106.484 89.3623 105.951 89.3663 105.414C89.3621 104.876 89.465 104.343 89.6688 103.845C89.8726 103.348 90.1734 102.896 90.5536 102.516C90.9338 102.135 91.3858 101.835 91.8833 101.631C92.3809 101.427 92.914 101.324 93.4516 101.328ZM66.5952 107.037C69.6737 109.78 72.5222 113.721 75.2827 118.266H50.623C51.8996 115.456 53.125 112.597 54.2312 109.61C55.2053 109.786 56.2008 109.894 57.2217 109.894C60.6766 109.894 63.9014 108.836 66.5952 107.037Z" fill="#2C2C2C"/>
</svg>
