<svg width="23" height="32" viewBox="0 0 23 32" fill="none" xmlns="http://www.w3.org/2000/svg">
<path d="M6.15454 23.7051C7.07997 24.8846 7.92228 26.1269 8.67539 27.4232C9.31836 28.6423 9.58639 29.469 10.0563 30.938C10.3444 31.7496 10.6049 31.9918 11.1649 31.9918C11.775 31.9918 12.0519 31.5797 12.2658 30.9424C12.7099 29.5552 13.0584 28.4965 13.6083 27.4961C14.6872 25.5648 16.0279 23.8485 17.3452 22.1991C17.7018 21.7323 20.0076 19.0126 21.0456 16.8667C21.0456 16.8667 22.3214 14.5094 22.3214 11.2173C22.3214 8.13776 21.0632 6.00195 21.0632 6.00195L17.4408 6.97207L15.2409 12.7662L14.6966 13.5651L14.5878 13.7099L14.4431 13.891L14.189 14.1804L13.8259 14.5434L11.8669 16.1394L6.96928 18.9673L6.15454 23.7051Z" fill="#34A853"/>
<path d="M1.09961 16.4693C2.29494 19.1996 4.59999 21.5997 6.15953 23.7059L14.443 13.8937C14.443 13.8937 13.276 15.4199 11.1591 15.4199C8.80115 15.4199 6.89623 13.537 6.89623 11.1627C6.89623 9.53453 7.87576 8.41602 7.87576 8.41602L2.25274 9.92272L1.09961 16.4693Z" fill="#FBBC04"/>
<path d="M14.5355 0.503906C17.2866 1.39093 19.6414 3.25312 21.0657 5.9991L14.4455 13.8882C14.4455 13.8882 15.4251 12.7494 15.4251 11.1314C15.4251 8.70184 13.3792 6.88682 11.1692 6.88682C9.07921 6.88682 7.87891 8.41052 7.87891 8.41052V3.4405L14.5355 0.503906Z" fill="#4285F4"/>
<path d="M2.61719 3.99041C4.26035 2.02446 7.15168 0 11.1378 0C13.0718 0 14.5288 0.507728 14.5288 0.507728L7.87277 8.41556H3.15692L2.61719 3.99041Z" fill="#1A73E8"/>
<path d="M1.09968 16.47C1.09968 16.47 0 14.3165 0 11.1967C0 8.24807 1.14625 5.67063 2.61711 3.99023L7.87645 8.41609L1.09968 16.47Z" fill="#EA4335"/>
</svg>
