<svg width="22" height="22" viewBox="0 0 22 22" fill="none" xmlns="http://www.w3.org/2000/svg">
<path d="M11.9423 1.83325C12.9736 1.836 13.497 1.8415 13.9489 1.85434L14.1267 1.86075C14.3321 1.86809 14.5347 1.87725 14.7794 1.88825C15.7547 1.93409 16.4202 2.08809 17.0042 2.3145C17.6092 2.54734 18.1188 2.86267 18.6285 3.37142C19.0946 3.82966 19.4553 4.38396 19.6854 4.99575C19.9118 5.57967 20.0658 6.24517 20.1117 7.22142C20.1227 7.46525 20.1318 7.66784 20.1392 7.87409L20.1447 8.05192C20.1584 8.50292 20.1639 9.02634 20.1657 10.0576L20.1667 10.7414V11.9423C20.1689 12.6109 20.1619 13.2795 20.1456 13.9479L20.1401 14.1258C20.1327 14.332 20.1236 14.5346 20.1126 14.7784C20.0667 15.7547 19.9109 16.4193 19.6854 17.0041C19.4559 17.6162 19.0952 18.1707 18.6285 18.6284C18.1701 19.0944 17.6159 19.455 17.0042 19.6853C16.4202 19.9118 15.7547 20.0658 14.7794 20.1116C14.5619 20.1218 14.3443 20.131 14.1267 20.1391L13.9489 20.1446C13.497 20.1574 12.9736 20.1638 11.9423 20.1657L11.2585 20.1666H10.0586C9.38965 20.1689 8.72072 20.1619 8.05199 20.1455L7.87416 20.14C7.65655 20.1318 7.43899 20.1223 7.22149 20.1116C6.24616 20.0658 5.58066 19.9118 4.99582 19.6853C4.3841 19.4556 3.83002 19.0949 3.37241 18.6284C2.90586 18.1703 2.54486 17.616 2.31457 17.0041C2.08816 16.4202 1.93416 15.7547 1.88832 14.7784C1.87811 14.5609 1.86894 14.3434 1.86082 14.1258L1.85624 13.9479C1.83935 13.2795 1.83171 12.6109 1.83332 11.9423V10.0576C1.83076 9.38897 1.83749 8.72035 1.85349 8.05192L1.85991 7.87409C1.86724 7.66784 1.87641 7.46525 1.88741 7.22142C1.93324 6.24517 2.08724 5.58059 2.31366 4.99575C2.54384 4.38333 2.90557 3.82886 3.37332 3.37142C3.83082 2.90527 4.38454 2.54457 4.99582 2.3145C5.58066 2.08809 6.24524 1.93409 7.22149 1.88825C7.46532 1.87725 7.66882 1.86809 7.87416 1.86075L8.05199 1.85525C8.72042 1.83897 9.38904 1.83194 10.0577 1.83417L11.9423 1.83325ZM11 6.41659C9.78441 6.41659 8.61863 6.89947 7.75908 7.75901C6.89954 8.61856 6.41666 9.78434 6.41666 10.9999C6.41666 12.2155 6.89954 13.3813 7.75908 14.2408C8.61863 15.1004 9.78441 15.5833 11 15.5833C12.2156 15.5833 13.3814 15.1004 14.2409 14.2408C15.1004 13.3813 15.5833 12.2155 15.5833 10.9999C15.5833 9.78434 15.1004 8.61856 14.2409 7.75901C13.3814 6.89947 12.2156 6.41659 11 6.41659ZM11 8.24992C11.3611 8.24986 11.7187 8.32093 12.0524 8.45908C12.3861 8.59722 12.6893 8.79973 12.9447 9.05505C13.2001 9.31037 13.4027 9.61349 13.5409 9.94712C13.6792 10.2807 13.7504 10.6383 13.7504 10.9995C13.7505 11.3606 13.6794 11.7182 13.5413 12.0519C13.4031 12.3855 13.2006 12.6887 12.9453 12.9441C12.69 13.1995 12.3869 13.4022 12.0533 13.5404C11.7196 13.6787 11.362 13.7499 11.0009 13.7499C10.2716 13.7499 9.57209 13.4602 9.05636 12.9445C8.54064 12.4287 8.25091 11.7293 8.25091 10.9999C8.25091 10.2706 8.54064 9.5711 9.05636 9.05538C9.57209 8.53965 10.2716 8.24992 11.0009 8.24992M15.8134 5.04159C15.5095 5.04159 15.2181 5.16231 15.0032 5.37719C14.7883 5.59208 14.6676 5.88352 14.6676 6.18742C14.6676 6.49131 14.7883 6.78276 15.0032 6.99765C15.2181 7.21253 15.5095 7.33325 15.8134 7.33325C16.1173 7.33325 16.4087 7.21253 16.6236 6.99765C16.8385 6.78276 16.9592 6.49131 16.9592 6.18742C16.9592 5.88352 16.8385 5.59208 16.6236 5.37719C16.4087 5.16231 16.1173 5.04159 15.8134 5.04159Z" fill="#00AFC1"/>
</svg>
