<svg width="85" height="59" viewBox="0 0 85 59" fill="none" xmlns="http://www.w3.org/2000/svg">
<rect x="1.25" y="0.833496" width="83" height="57" rx="3.5" fill="white" stroke="#F3F3F3"/>
<path fill-rule="evenodd" clip-rule="evenodd" d="M31.5243 45.125V47.2665V49.4079H30.5869V48.888C30.2895 49.2736 29.8384 49.5156 29.2251 49.5156C28.0161 49.5156 27.0683 48.5751 27.0683 47.2665C27.0683 45.9588 28.0161 45.0173 29.2251 45.0173C29.8384 45.0173 30.2895 45.2594 30.5869 45.645V45.125H31.5243ZM29.3417 45.8952C28.5302 45.8952 28.0336 46.5137 28.0336 47.2665C28.0336 48.0193 28.5302 48.6377 29.3417 48.6377C30.1171 48.6377 30.6406 48.0459 30.6406 47.2665C30.6406 46.487 30.1171 45.8952 29.3417 45.8952ZM63.2038 47.2665C63.2038 46.5137 63.7004 45.8952 64.5119 45.8952C65.2883 45.8952 65.8107 46.487 65.8107 47.2665C65.8107 48.0459 65.2883 48.6377 64.5119 48.6377C63.7004 48.6377 63.2038 48.0193 63.2038 47.2665ZM66.6955 43.4051V47.2665V49.4079H65.757V48.888C65.4597 49.2736 65.0085 49.5156 64.3952 49.5156C63.1862 49.5156 62.2384 48.5751 62.2384 47.2665C62.2384 45.9588 63.1862 45.0173 64.3952 45.0173C65.0085 45.0173 65.4597 45.2594 65.757 45.645V43.4051H66.6955ZM43.161 45.8511C43.765 45.8511 44.1532 46.2275 44.2523 46.8901H42.015C42.1151 46.2716 42.493 45.8511 43.161 45.8511ZM41.0321 47.2665C41.0321 45.9311 41.9158 45.0173 43.1795 45.0173C44.3875 45.0173 45.2176 45.9311 45.2269 47.2665C45.2269 47.3916 45.2176 47.5085 45.2083 47.6244H42.0067C42.1419 48.3957 42.6922 48.6736 43.2962 48.6736C43.7288 48.6736 44.1893 48.5116 44.5506 48.2254L45.0101 48.9156C44.4866 49.3546 43.8919 49.5156 43.2425 49.5156C41.952 49.5156 41.0321 48.6285 41.0321 47.2665ZM54.4993 47.2665C54.4993 46.5137 54.9959 45.8952 55.8074 45.8952C56.5827 45.8952 57.1062 46.487 57.1062 47.2665C57.1062 48.0459 56.5827 48.6377 55.8074 48.6377C54.9959 48.6377 54.4993 48.0193 54.4993 47.2665ZM57.99 45.125V47.2665V49.4079H57.0525V48.888C56.7541 49.2736 56.304 49.5156 55.6907 49.5156C54.4817 49.5156 53.5339 48.5751 53.5339 47.2665C53.5339 45.9588 54.4817 45.0173 55.6907 45.0173C56.304 45.0173 56.7541 45.2594 57.0525 45.645V45.125H57.99ZM49.2048 47.2665C49.2048 48.5659 50.1155 49.5156 51.5051 49.5156C52.1545 49.5156 52.5871 49.372 53.0558 49.0049L52.6057 48.2521C52.2536 48.5034 51.884 48.6377 51.4772 48.6377C50.7287 48.6285 50.1784 48.0911 50.1784 47.2665C50.1784 46.4419 50.7287 45.9045 51.4772 45.8952C51.884 45.8952 52.2536 46.0296 52.6057 46.2809L53.0558 45.5281C52.5871 45.1609 52.1545 45.0173 51.5051 45.0173C50.1155 45.0173 49.2048 45.967 49.2048 47.2665ZM60.1548 45.645C60.3985 45.2686 60.7505 45.0173 61.2915 45.0173C61.4815 45.0173 61.752 45.0532 61.9595 45.1342L61.6704 46.0122C61.4722 45.9311 61.274 45.9045 61.084 45.9045C60.4707 45.9045 60.1641 46.2983 60.1641 47.007V49.4079H59.2256V45.125H60.1548V45.645ZM36.1609 45.4655C35.7098 45.1701 35.0882 45.0173 34.4027 45.0173C33.3104 45.0173 32.6073 45.5373 32.6073 46.3886C32.6073 47.087 33.1307 47.5178 34.095 47.6521L34.538 47.7147C35.0521 47.7865 35.2947 47.9208 35.2947 48.1629C35.2947 48.4941 34.952 48.6828 34.3118 48.6828C33.6624 48.6828 33.1937 48.4767 32.8778 48.2346L32.4359 48.9597C32.9501 49.3361 33.5995 49.5156 34.3026 49.5156C35.5477 49.5156 36.2694 48.9331 36.2694 48.1177C36.2694 47.3649 35.7015 46.9711 34.763 46.8368L34.3211 46.7732C33.9154 46.7198 33.5902 46.6398 33.5902 46.3527C33.5902 46.0388 33.8968 45.8511 34.411 45.8511C34.9613 45.8511 35.494 46.0573 35.7552 46.2183L36.1609 45.4655ZM47.1214 45.645C47.364 45.2686 47.7161 45.0173 48.2571 45.0173C48.4471 45.0173 48.7176 45.0532 48.9251 45.1342L48.636 46.0122C48.4378 45.9311 48.2395 45.9045 48.0496 45.9045C47.4363 45.9045 47.1297 46.2983 47.1297 47.007V49.4079H46.1922V45.125H47.1214V45.645ZM40.2566 45.125H38.7234V43.8256H37.7756V45.125H36.9011V45.9763H37.7756V47.93C37.7756 48.9239 38.1638 49.5156 39.2726 49.5156C39.6794 49.5156 40.1482 49.3905 40.4455 49.1844L40.175 48.3864C39.8952 48.5475 39.5886 48.6285 39.3449 48.6285C38.8762 48.6285 38.7234 48.3413 38.7234 47.9116V45.9763H40.2566V45.125ZM26.2392 46.7198V49.4079H25.2914V47.0244C25.2914 46.2983 24.9848 45.8953 24.3447 45.8953C23.7221 45.8953 23.2895 46.2901 23.2895 47.0337V49.4079H22.3418V47.0244C22.3418 46.2983 22.0269 45.8953 21.4043 45.8953C20.7632 45.8953 20.3481 46.2901 20.3481 47.0337V49.4079H19.4014V45.125H20.3399V45.6532C20.6919 45.1517 21.1421 45.0173 21.6025 45.0173C22.2612 45.0173 22.73 45.3045 23.0273 45.7794C23.4248 45.1784 23.9926 45.0081 24.5429 45.0173C25.5898 45.0266 26.2392 45.7076 26.2392 46.7198Z" fill="#231F20"/>
<path d="M50.059 37.8476H35.8506V12.4824H50.059V37.8476Z" fill="#FF5F00"/>
<path d="M36.7518 25.1652C36.7518 20.0197 39.177 15.4363 42.9537 12.4826C40.1919 10.3226 36.7064 9.03346 32.9183 9.03346C23.9506 9.03346 16.6812 16.2558 16.6812 25.1652C16.6812 34.0746 23.9506 41.2969 32.9183 41.2969C36.7064 41.2969 40.1919 40.0077 42.9537 37.8478C39.177 34.894 36.7518 30.3106 36.7518 25.1652Z" fill="#EB001B"/>
<path d="M69.2272 25.1652C69.2272 34.0746 61.9577 41.2969 52.99 41.2969C49.2019 41.2969 45.7164 40.0077 42.9536 37.8478C46.7313 34.894 49.1565 30.3106 49.1565 25.1652C49.1565 20.0197 46.7313 15.4363 42.9536 12.4826C45.7164 10.3226 49.2019 9.03346 52.99 9.03346C61.9577 9.03346 69.2272 16.2558 69.2272 25.1652Z" fill="#F79E1B"/>
</svg>
