<svg width="86" height="59" viewBox="0 0 86 59" fill="none" xmlns="http://www.w3.org/2000/svg">
<rect x="0.75" y="0.833496" width="84.4998" height="57" rx="3.5" fill="white" stroke="#F3F3F3"/>
<path fill-rule="evenodd" clip-rule="evenodd" d="M7.34205 19.1938H16.3398C17.5594 19.2366 18.5491 19.6037 18.8711 20.9003L20.8263 30.2269C20.8266 30.2278 20.8269 30.2287 20.8272 30.2296L21.4257 33.0372L26.9026 19.1938H32.8162L24.0258 39.4733H18.1118L13.1273 21.8336C11.4074 20.8898 9.44458 20.1308 7.25 19.604L7.34205 19.1938Z" fill="#15195A"/>
<path d="M38.4089 39.4841H32.8164L36.3144 19.1831H41.9065L38.4089 39.4841Z" fill="#15195A"/>
<path d="M58.6822 19.712C57.5791 19.3012 55.8295 18.8477 53.6662 18.8477C48.1434 18.8477 44.2543 21.6119 44.2305 25.564C44.1846 28.4798 47.0149 30.0993 49.1318 31.0715C51.2955 32.065 52.031 32.7134 52.031 33.5989C52.009 34.959 50.2826 35.5859 48.6725 35.5859C46.4397 35.5859 45.2433 35.2627 43.4252 34.506L42.6888 34.1816L41.9062 38.7388C43.2179 39.2997 45.6345 39.7974 48.1434 39.8192C54.0114 39.8192 57.8317 37.0977 57.877 32.8862C57.8993 30.5752 56.4048 28.8044 53.1827 27.3574C51.2267 26.4285 50.0288 25.8022 50.0288 24.8518C50.0517 23.9878 51.042 23.1028 53.25 23.1028C55.0681 23.0595 56.4039 23.4697 57.4158 23.8801L57.9216 24.0957L58.6822 19.712Z" fill="#15195A"/>
<path fill-rule="evenodd" clip-rule="evenodd" d="M69.9121 19.1831H74.2379L78.7496 39.4838H73.5715C73.5715 39.4838 73.0648 37.1513 72.9042 36.4386H65.7239C65.5162 36.9782 64.5502 39.4838 64.5502 39.4838H58.6821L66.9891 20.8675C67.5646 19.55 68.5781 19.1831 69.9121 19.1831ZM69.5675 26.6121C69.5675 26.6121 67.7953 31.1259 67.3348 32.2922H71.9832C71.7532 31.2772 70.6942 26.4178 70.6942 26.4178L70.3033 24.6686C70.1387 25.119 69.9007 25.7383 69.7402 26.156C69.6314 26.4391 69.5581 26.6296 69.5675 26.6121Z" fill="#15195A"/>
</svg>
