<svg width="33" height="32" viewBox="0 0 33 32" fill="none" xmlns="http://www.w3.org/2000/svg">
<path d="M11.6477 1.05225C8.45043 2.16142 5.69309 4.26667 3.78071 7.05876C1.86833 9.85085 0.901709 13.1826 1.02284 16.5647C1.14396 19.9467 2.34645 23.2008 4.45367 25.8489C6.56089 28.4971 9.46178 30.3997 12.7302 31.2773C15.38 31.961 18.1563 31.991 20.8202 31.3648C23.2335 30.8227 25.4647 29.6632 27.2952 27.9998C29.2004 26.2156 30.5833 23.9459 31.2952 21.4348C32.069 18.7039 32.2067 15.8321 31.6977 13.0398H16.8177V19.2123H25.4352C25.263 20.1967 24.8939 21.1363 24.3501 21.9748C23.8063 22.8133 23.0989 23.5335 22.2702 24.0923C21.2179 24.7883 20.0317 25.2567 18.7877 25.4673C17.5401 25.6992 16.2604 25.6992 15.0127 25.4673C13.7482 25.2058 12.552 24.6839 11.5002 23.9348C9.8106 22.7387 8.54192 21.0396 7.87523 19.0798C7.19727 17.0832 7.19727 14.9188 7.87523 12.9223C8.3498 11.5228 9.13431 10.2486 10.1702 9.19475C11.3557 7.96662 12.8566 7.08874 14.5081 6.65744C16.1597 6.22614 17.8981 6.25808 19.5327 6.74975C20.8097 7.14173 21.9773 7.82659 22.9427 8.74975C23.9144 7.78308 24.8844 6.81392 25.8527 5.84225C26.3527 5.31975 26.8977 4.82225 27.3902 4.28725C25.9166 2.91594 24.1869 1.84889 22.3002 1.14725C18.8645 -0.100274 15.1052 -0.1338 11.6477 1.05225Z" fill="white"/>
<path d="M11.6479 1.05249C15.1051 -0.134368 18.8644 -0.101725 22.3004 1.14499C24.1875 1.8514 25.9164 2.92358 27.3879 4.29999C26.8879 4.83499 26.3604 5.33499 25.8504 5.85499C24.8804 6.82332 23.9113 7.78832 22.9429 8.74999C21.9775 7.82683 20.8099 7.14197 19.5329 6.74999C17.8989 6.25659 16.1605 6.22281 14.5085 6.65235C12.8565 7.08188 11.3547 7.95814 10.1679 9.18499C9.13201 10.2388 8.3475 11.513 7.87293 12.9125L2.69043 8.89999C4.54545 5.22139 7.7573 2.40755 11.6479 1.05249Z" fill="#E33629"/>
<path d="M1.31488 12.8754C1.59343 11.4949 2.05588 10.158 2.68988 8.90039L7.87238 12.9229C7.19441 14.9194 7.19441 17.0839 7.87238 19.0804C6.14571 20.4137 4.41821 21.7537 2.68988 23.1004C1.10275 19.9412 0.618707 16.3416 1.31488 12.8754Z" fill="#F8BD00"/>
<path d="M16.8175 13.0371H31.6975C32.2065 15.8294 32.0688 18.7013 31.295 21.4321C30.5831 23.9433 29.2002 26.213 27.295 27.9971C25.6225 26.6921 23.9425 25.3971 22.27 24.0921C23.0992 23.5328 23.8069 22.8118 24.3508 21.9724C24.8946 21.133 25.2634 20.1925 25.435 19.2071H16.8175C16.815 17.1521 16.8175 15.0946 16.8175 13.0371Z" fill="#587DBD"/>
<path d="M2.6875 23.1001C4.41583 21.7667 6.14333 20.4267 7.87 19.0801C8.53802 21.0406 9.80851 22.7398 11.5 23.9351C12.555 24.6807 13.7538 25.1984 15.02 25.4551C16.2676 25.6871 17.5474 25.6871 18.795 25.4551C20.039 25.2445 21.2252 24.7762 22.2775 24.0801C23.95 25.3851 25.63 26.6801 27.3025 27.9851C25.4722 29.6494 23.241 30.8098 20.8275 31.3526C18.1635 31.9788 15.3873 31.9488 12.7375 31.2651C10.6418 30.7055 8.68419 29.7191 6.9875 28.3676C5.19165 26.9418 3.72489 25.145 2.6875 23.1001Z" fill="#319F43"/>
</svg>
