<svg width="1642" height="295" viewBox="0 0 1642 295" fill="none" xmlns="http://www.w3.org/2000/svg">
<path fill-rule="evenodd" clip-rule="evenodd" d="M0 13.342C0 29.192 1.17 36.45 5.037 44.597C8.207 51.276 15.44 59.411 21.748 63.393C31.139 69.321 36.481 70.312 61.833 70.83C85.1 71.305 85.164 71.313 84.396 73.429C83.972 74.597 83.461 124.751 83.26 184.883L82.894 294.214L106.197 293.883C129.32 293.555 129.546 293.53 135.5 290.745C142.858 287.304 146.386 284.059 149.843 277.552L152.5 272.552L153.055 176.052C153.491 100.334 153.894 78.637 154.927 75.302L156.243 71.052H199.203H242.164L241.818 48.302C241.407 21.244 240.685 18.679 230.943 9.66C220.307 -0.186996 230.595 0.595992 107.75 0.278992L0 0V13.342ZM960.764 1.048C955.735 2.562 951.005 6.18699 948.516 10.434C945.009 16.419 944.043 25.203 944.02 51.302C944.009 63.814 943.86 74.052 943.69 74.052C943.519 74.052 940.228 72.499 936.376 70.602C927.836 66.394 915.116 62.617 904.029 60.996C891.367 59.145 869.803 60.264 857.758 63.398C814.118 74.752 781.733 110.215 774.423 154.651C772.116 168.674 772.953 189.063 776.38 202.346C782.877 227.527 797.535 249.676 817.949 265.159C826.567 271.696 844.299 280.414 855.319 283.532C918.341 301.364 985.007 261.688 998.106 198.552C999.852 190.137 999.975 183.398 999.987 94.802L1000 0.052002L981.75 0.138C971.712 0.185 962.269 0.595004 960.764 1.048ZM1304.23 134.802L1304.5 269.552L1306.72 273.695C1309.44 278.784 1315.68 284.266 1320.72 285.995C1322.98 286.768 1331.65 287.488 1342.25 287.782L1360 288.275V155.03C1360 54.983 1359.7 20.795 1358.81 17.816C1357.28 12.716 1349.69 4.271 1344.52 1.923C1341.1 0.370004 1337.76 0.0930051 1322.23 0.0740051L1303.96 0.052002L1304.23 134.802ZM339.5 60.573C303.05 67.304 272.3 90.929 256.456 124.376C254.035 129.486 250.808 138.142 249.284 143.61C246.68 152.951 246.515 154.731 246.555 173.052C246.595 190.911 246.82 193.369 249.23 202.258C259.426 239.855 288.958 270.653 325.762 282.069C351.503 290.054 383.157 288.104 406.672 277.084C411.405 274.867 415.44 273.052 415.638 273.052C415.837 273.052 416 276.476 416 280.662V288.271L434.25 287.804C448.439 287.441 453.598 286.937 457.433 285.538C463.455 283.342 470.392 276.66 472.106 271.403C473.017 268.611 473.528 252.841 473.965 214.052C474.623 155.611 474.228 159.468 480.92 146.211C484.088 139.935 490.24 133 497.362 127.676C505.182 121.83 508.48 107.834 504.073 99.195C500.677 92.539 478.672 74.052 474.145 74.052C471.699 74.052 458.906 83.211 451.76 90.079L444.806 96.764L437.892 89.946C424.603 76.84 407.615 67.434 388.074 62.363C375.755 59.166 351.883 58.287 339.5 60.573ZM1123 59.513C1122.18 59.71 1118.12 60.419 1114 61.088C1098.98 63.525 1081.27 71.222 1067.91 81.118C1059.06 87.68 1046 101.436 1040.38 110.137C1028.25 128.882 1023.06 145.632 1022.29 168.552C1021.71 185.445 1023.2 196.932 1027.64 209.966C1039.17 243.76 1067.68 271.497 1101.76 282.069C1127.85 290.161 1161.46 287.903 1184.01 276.545C1187.83 274.624 1191.19 273.052 1191.47 273.052C1191.76 273.052 1192 276.476 1192 280.662V288.271L1210.25 287.804C1230.32 287.29 1234.81 286.308 1241.22 281.025C1243.2 279.391 1245.87 275.916 1247.16 273.303L1249.5 268.552L1250.06 215.052C1250.47 175.343 1250.94 160.521 1251.9 157.552C1254.52 149.442 1260.5 139.594 1265.84 134.583C1278.12 123.06 1279.59 121.369 1280.78 117.401C1282.26 112.467 1282.37 104.148 1281 100.561C1278.75 94.632 1257.68 76.013 1251.46 74.452C1248.4 73.684 1237.57 80.845 1227.82 90.091L1220.76 96.778L1214.53 90.546C1199.93 75.948 1181.7 66.114 1160.5 61.403C1154.18 60 1126.74 58.617 1123 59.513ZM1477.5 60.161C1449.19 64.24 1421.72 80.75 1403.8 104.454C1378.33 138.14 1373.92 185.68 1392.76 223.552C1403.83 245.803 1422.25 264.22 1444.5 275.289C1474.75 290.336 1512.8 290.831 1543.65 276.578L1551 273.182V280.727V288.271L1569.25 287.831C1585.09 287.449 1588.26 287.097 1593.22 285.162C1600.24 282.423 1606.26 276.034 1607.88 269.601C1608.63 266.645 1609.01 249.057 1609.02 216.859C1609.04 163.56 1609.29 160.705 1615.11 148.453C1617.68 143.031 1620.46 139.515 1628.08 132.052C1639.65 120.713 1641.33 117.812 1641.43 109.052C1641.52 100.684 1638.51 95.31 1629.42 87.598C1621.32 80.725 1611.59 74.052 1609.67 74.052C1607.15 74.052 1595.77 82.274 1587.93 89.756L1580.35 96.98L1575.43 91.892C1564.34 80.446 1547.37 69.847 1531.69 64.584C1516.94 59.632 1494.1 57.768 1477.5 60.161ZM623.5 60.705C616.535 61.809 604.481 65.192 597.255 68.07C581.919 74.179 569.111 82.959 556.987 95.673C544.936 108.311 537.412 120.738 531.96 137.011C526.395 153.622 526.012 159.395 526.006 226.802L526 288.052H540.816C562.913 288.052 570.787 286.096 577.707 278.886C583.947 272.386 583.998 271.893 584.017 218.176C584.036 164.75 584.377 160.82 589.96 149.552C596.77 135.808 608.496 125.469 623.023 120.401C631.53 117.432 645.03 116.805 653 119.007C668.6 123.318 683.446 135.174 690.622 149.052L694.5 156.552L695 212.552C695.549 274.072 695.405 272.652 701.803 279.394C708.117 286.046 716.555 288.052 738.223 288.052H753.078L752.763 219.302C752.456 152.154 752.398 150.377 750.274 143.052C738.552 102.637 708.858 74.027 667.031 62.845C661.263 61.303 655.638 60.761 643 60.531C633.925 60.365 625.15 60.444 623.5 60.705ZM378.179 120.31C387.218 123.615 393.863 128.056 400.508 135.234C410.582 146.115 415.453 158.924 415.271 174.052C414.909 204.044 389.57 229.017 359.5 229.017C334.799 229.017 311.72 211.206 305.584 187.408C303.591 179.675 303.546 166.216 305.489 158.755C310.883 138.047 328.43 121.853 350 117.676C356.258 116.464 371.578 117.896 378.179 120.31ZM1147.2 118.149C1160.75 120.954 1176.12 131.893 1183.41 143.911C1189.14 153.375 1191.26 161.113 1191.26 172.552C1191.26 189.188 1185.25 203.033 1173.26 214.04C1150.97 234.496 1117.41 233.685 1095.92 212.172C1079.25 195.485 1075.18 170.335 1085.59 148.385C1092.98 132.824 1109.15 120.56 1126 117.742C1131.16 116.88 1142.09 117.09 1147.2 118.149ZM1507.9 118.589C1534 124.742 1552.34 149.378 1550.68 176.052C1549.53 194.595 1540.58 209.901 1525.02 219.963C1497.72 237.603 1459.69 227.535 1445.61 198.947C1434.41 176.19 1438.23 150.905 1455.52 133.421C1468.82 119.962 1489.22 114.187 1507.9 118.589ZM900.448 119.58C919.083 124.434 935.111 139.973 940.645 158.552C943.286 167.42 943.093 181.694 940.218 190.052C932.678 211.97 916.174 225.807 893.557 229.171C867.924 232.984 841.006 215.226 832.964 189.197C830.489 181.188 830.314 166.75 832.596 158.984C838.243 139.771 854.429 124.055 873.272 119.489C880.567 117.721 893.477 117.765 900.448 119.58Z" fill="#00AFC1"/>
</svg>
