<?xml version="1.0" encoding="utf-8"?>
<!-- Generator: Adobe Illustrator 28.2.0, SVG Export Plug-In . SVG Version: 6.00 Build 0)  -->
<svg version="1.1" xmlns="http://www.w3.org/2000/svg" xmlns:xlink="http://www.w3.org/1999/xlink" x="0px" y="0px"
	 viewBox="0 0 1024 768" style="enable-background:new 0 0 1024 768;" xml:space="preserve">
<style type="text/css">
	.st0{fill:#A6A8AB;}
	.st1{fill:#42ECFF;}
</style>
<g id="Layer_2">
	<rect width="1024" height="768"/>
</g>
<g id="Layer_1">
	<g>
		<g>
			<g>
				<path class="st0" d="M460.95,288.81v102.12c0,8.88-7.2,16.08-16.08,16.08h-43.79v-56.26L460.95,288.81z"/>
				<path class="st0" d="M622.9,327.97v79.04h-44.01c-8.88,0-16.08-7.2-16.08-16.08V265.81L622.9,327.97z"/>
			</g>
			<path class="st1" d="M564.75,414.87c-5.39-3.14-9.01-6.8-10.86-10.99c-1.86-4.19-2.78-14.64-2.78-31.38V210.94l-78.47,34.13
				V372.5c0,16.42-0.88,26.55-2.65,30.42c-2.42,5.48-5.72,9.34-9.9,11.59c-5.79,3.39-13.44,5.08-22.94,5.08h-36.07v8.93h221.83
				v-8.93h-36.07C577.51,419.58,570.14,418,564.75,414.87z"/>
		</g>
		<g>
			<g>
				<path class="st1" d="M244.23,468.89v23.33h-2.29c-1.36-5.38-2.86-9.25-4.51-11.6c-1.65-2.35-3.92-4.22-6.8-5.63
					c-1.62-0.76-4.43-1.14-8.46-1.14h-6.42v66.49c0,4.4,0.24,7.16,0.73,8.26c0.49,1.1,1.44,2.06,2.86,2.89
					c1.42,0.82,3.36,1.23,5.82,1.23h2.86v2.35h-45.14v-2.35h2.86c2.5,0,4.52-0.44,6.04-1.33c1.1-0.59,1.97-1.61,2.6-3.05
					c0.47-1.02,0.7-3.69,0.7-8.01v-66.49h-6.23c-5.81,0-10.02,1.22-12.65,3.68c-3.69,3.43-6.02,8.33-6.99,14.68h-2.42v-23.33H244.23
					z"/>
				<path class="st1" d="M303.85,530.54h-30.45l-3.62,8.39c-1.19,2.8-1.78,5.11-1.78,6.94c0,2.42,0.97,4.19,2.92,5.34
					c1.15,0.68,3.96,1.18,8.46,1.52v2.35H250.7v-2.35c3.09-0.46,5.63-1.74,7.63-3.84c1.99-2.1,4.45-6.43,7.37-13l30.83-68.78h1.2
					l31.09,70.69c2.97,6.69,5.4,10.91,7.31,12.65c1.44,1.32,3.47,2.08,6.1,2.29v2.35h-41.7v-2.35h1.72c3.35,0,5.7-0.46,7.05-1.39
					c0.93-0.68,1.4-1.66,1.4-2.92c0-0.77-0.13-1.55-0.38-2.35c-0.08-0.38-0.72-1.97-1.91-4.77L303.85,530.54z M301.68,525.84
					l-12.84-29.68l-13.22,29.68H301.68z"/>
				<path class="st1" d="M386.54,468.89l42.52,53.46v-37.06c0-5.17-0.74-8.67-2.22-10.49c-2.04-2.46-5.45-3.64-10.24-3.56v-2.35
					h28.48v2.35c-3.64,0.46-6.09,1.07-7.34,1.82c-1.25,0.74-2.22,1.94-2.92,3.62c-0.7,1.67-1.05,4.54-1.05,8.61v71.77h-2.16
					l-58.29-71.77v54.79c0,4.96,1.13,8.31,3.4,10.04c2.26,1.74,4.86,2.61,7.78,2.61h2.04v2.35h-30.58v-2.35
					c4.74-0.04,8.05-1.01,9.92-2.92c1.86-1.9,2.8-5.15,2.8-9.72v-60.83l-1.84-2.29c-1.82-2.29-3.44-3.79-4.83-4.52
					c-1.39-0.72-3.41-1.12-6.04-1.2v-2.35H386.54z"/>
				<path class="st1" d="M460.26,555.08v-2.35h2.86c2.5,0,4.42-0.39,5.75-1.17c1.34-0.78,2.32-1.86,2.96-3.21
					c0.38-0.9,0.58-3.57,0.58-8.01v-56.7c0-4.4-0.24-7.16-0.7-8.26c-0.46-1.1-1.41-2.06-2.83-2.89c-1.42-0.82-3.34-1.23-5.75-1.23
					h-2.86v-2.35h38.59c10.3,0,18.58,1.4,24.85,4.2c7.67,3.43,13.48,8.62,17.45,15.57c3.96,6.95,5.94,14.81,5.94,23.58
					c0,6.06-0.97,11.64-2.92,16.75c-1.95,5.11-4.47,9.32-7.56,12.65c-3.09,3.34-6.67,6-10.71,8.01c-4.05,2.02-8.99,3.57-14.85,4.68
					c-2.58,0.51-6.65,0.76-12.2,0.76H460.26z M493.12,473.78v67.25c0,3.56,0.17,5.74,0.51,6.54c0.34,0.81,0.91,1.43,1.72,1.85
					c1.14,0.63,2.8,0.95,4.96,0.95c7.08,0,12.48-2.41,16.21-7.24c5.09-6.52,7.63-16.66,7.63-30.39c0-11.06-1.74-19.9-5.21-26.5
					c-2.76-5.17-6.29-8.69-10.61-10.56C505.26,474.38,500.2,473.74,493.12,473.78z"/>
				<path class="st1" d="M617.13,530.54h-30.45l-3.62,8.39c-1.19,2.8-1.78,5.11-1.78,6.94c0,2.42,0.97,4.19,2.92,5.34
					c1.15,0.68,3.96,1.18,8.46,1.52v2.35h-28.67v-2.35c3.09-0.46,5.63-1.74,7.63-3.84c1.99-2.1,4.45-6.43,7.37-13l30.83-68.78h1.2
					l31.09,70.69c2.97,6.69,5.4,10.91,7.31,12.65c1.44,1.32,3.47,2.08,6.1,2.29v2.35h-41.7v-2.35h1.72c3.35,0,5.69-0.46,7.05-1.39
					c0.93-0.68,1.4-1.66,1.4-2.92c0-0.77-0.13-1.55-0.38-2.35c-0.08-0.38-0.72-1.97-1.91-4.77L617.13,530.54z M614.97,525.84
					l-12.84-29.68l-13.22,29.68H614.97z"/>
				<path class="st1" d="M749.59,524.82l-3.24,30.26h-76.53v-2.35h2.86c2.5,0,4.51-0.44,6.04-1.33c1.1-0.59,1.95-1.61,2.54-3.05
					c0.46-1.02,0.7-3.69,0.7-8.01v-56.7c0-4.4-0.23-7.16-0.7-8.26c-0.47-1.1-1.41-2.06-2.83-2.89c-1.42-0.82-3.34-1.23-5.75-1.23
					h-2.86v-2.35h45.96v2.35h-3.75c-2.5,0-4.51,0.44-6.04,1.33c-1.1,0.6-1.97,1.62-2.61,3.05c-0.46,1.02-0.7,3.69-0.7,8.01v54.92
					c0,4.41,0.25,7.22,0.76,8.42c0.51,1.21,1.5,2.11,2.99,2.7c1.06,0.38,3.63,0.57,7.69,0.57h7.18c4.58,0,8.39-0.8,11.44-2.42
					c3.06-1.6,5.69-4.15,7.92-7.62c2.22-3.47,4.33-8.6,6.32-15.39H749.59z"/>
				<path class="st1" d="M818.81,530.54h-30.45l-3.62,8.39c-1.19,2.8-1.78,5.11-1.78,6.94c0,2.42,0.97,4.19,2.92,5.34
					c1.15,0.68,3.96,1.18,8.45,1.52v2.35h-28.67v-2.35c3.09-0.46,5.63-1.74,7.63-3.84c1.99-2.1,4.45-6.43,7.37-13l30.83-68.78h1.2
					l31.09,70.69c2.97,6.69,5.4,10.91,7.31,12.65c1.44,1.32,3.47,2.08,6.1,2.29v2.35h-41.7v-2.35h1.72c3.35,0,5.69-0.46,7.05-1.39
					c0.93-0.68,1.4-1.66,1.4-2.92c0-0.77-0.13-1.55-0.38-2.35c-0.08-0.38-0.72-1.97-1.91-4.77L818.81,530.54z M816.64,525.84
					l-12.84-29.68l-13.22,29.68H816.64z"/>
			</g>
		</g>
	</g>
</g>
</svg>
