<svg width="24" height="24" viewBox="0 0 24 24" fill="none" xmlns="http://www.w3.org/2000/svg">
<path d="M4.63803 21.6644L4.29066 22.3291H4.29066L4.63803 21.6644ZM3.32698 20.3197L3.99866 19.986H3.99866L3.32698 20.3197ZM19.362 21.6644L19.0146 20.9997H19.0146L19.362 21.6644ZM20.673 20.3197L20.0013 19.986H20.0013L20.673 20.3197ZM19.362 3.87358L19.0146 4.53829L19.0146 4.53829L19.362 3.87358ZM20.673 5.21825L21.3447 4.88456V4.88456L20.673 5.21825ZM4.63803 3.87358L4.9854 4.53829L4.63803 3.87358ZM3.32698 5.21825L3.99866 5.55193V5.55193L3.32698 5.21825ZM8.75 1.99976C8.75 1.58554 8.41421 1.24976 8 1.24976C7.58579 1.24976 7.25 1.58554 7.25 1.99976H8.75ZM7.25 5.07668C7.25 5.49089 7.58579 5.82668 8 5.82668C8.41421 5.82668 8.75 5.49089 8.75 5.07668H7.25ZM16.75 1.99976C16.75 1.58554 16.4142 1.24976 16 1.24976C15.5858 1.24976 15.25 1.58554 15.25 1.99976H16.75ZM15.25 5.07668C15.25 5.49089 15.5858 5.82668 16 5.82668C16.4142 5.82668 16.75 5.49089 16.75 5.07668H15.25ZM7.8 3.53822V4.28822H16.2V3.53822V2.78822H7.8V3.53822ZM16.2 21.9998V21.2498H7.8V21.9998V22.7498H16.2V21.9998ZM3 17.0767H3.75V8.66642H3H2.25V17.0767H3ZM3 8.66642H3.75V8.46129H3H2.25V8.66642H3ZM21 8.46129H20.25V8.66642H21H21.75V8.46129H21ZM21 8.66642H20.25V17.0767H21H21.75V8.66642H21ZM3 8.66642V9.41642H21V8.66642V7.91642H3V8.66642ZM7.8 21.9998V21.2498C6.94723 21.2498 6.35391 21.2491 5.89224 21.2105C5.43989 21.1725 5.18126 21.102 4.9854 20.9997L4.63803 21.6644L4.29066 22.3291C4.73653 22.5621 5.21881 22.6593 5.76698 22.7052C6.30581 22.7504 6.97261 22.7498 7.8 22.7498V21.9998ZM3 17.0767H2.25C2.25 17.9262 2.24945 18.6074 2.29324 19.1572C2.33769 19.7151 2.43137 20.2027 2.6553 20.6534L3.32698 20.3197L3.99866 19.986C3.89561 19.7786 3.8258 19.5062 3.7885 19.038C3.75055 18.5616 3.75 17.9504 3.75 17.0767H3ZM4.63803 21.6644L4.9854 20.9997C4.56349 20.7792 4.21697 20.4255 3.99866 19.986L3.32698 20.3197L2.6553 20.6534C3.01223 21.3719 3.58359 21.9596 4.29066 22.3291L4.63803 21.6644ZM16.2 21.9998V22.7498C17.0274 22.7498 17.6942 22.7504 18.233 22.7052C18.7812 22.6593 19.2635 22.5621 19.7093 22.3291L19.362 21.6644L19.0146 20.9997C18.8187 21.102 18.5601 21.1725 18.1078 21.2105C17.6461 21.2491 17.0528 21.2498 16.2 21.2498V21.9998ZM21 17.0767H20.25C20.25 17.9504 20.2494 18.5616 20.2115 19.038C20.1742 19.5062 20.1044 19.7786 20.0013 19.986L20.673 20.3197L21.3447 20.6534C21.5686 20.2027 21.6623 19.7151 21.7068 19.1572C21.7506 18.6074 21.75 17.9262 21.75 17.0767H21ZM19.362 21.6644L19.7093 22.3291C20.4164 21.9596 20.9878 21.3719 21.3447 20.6534L20.673 20.3197L20.0013 19.986C19.783 20.4255 19.4365 20.7792 19.0146 20.9997L19.362 21.6644ZM16.2 3.53822V4.28822C17.0528 4.28822 17.6461 4.28883 18.1078 4.32752C18.5601 4.36542 18.8187 4.43593 19.0146 4.53829L19.362 3.87358L19.7093 3.20888C19.2635 2.97587 18.7812 2.87869 18.233 2.83276C17.6942 2.7876 17.0274 2.78822 16.2 2.78822V3.53822ZM21 8.46129H21.75C21.75 7.61174 21.7506 6.9306 21.7068 6.38082C21.6623 5.82283 21.5686 5.33531 21.3447 4.88456L20.673 5.21825L20.0013 5.55193C20.1044 5.75937 20.1742 6.03176 20.2115 6.49993C20.2494 6.97632 20.25 7.58761 20.25 8.46129H21ZM19.362 3.87358L19.0146 4.53829C19.4365 4.75877 19.783 5.11249 20.0013 5.55193L20.673 5.21825L21.3447 4.88456C20.9878 4.16608 20.4164 3.57838 19.7093 3.20888L19.362 3.87358ZM7.8 3.53822V2.78822C6.97261 2.78822 6.30581 2.7876 5.76698 2.83276C5.21881 2.87869 4.73653 2.97587 4.29066 3.20888L4.63803 3.87358L4.9854 4.53829C5.18126 4.43593 5.43989 4.36542 5.89224 4.32752C6.35391 4.28883 6.94723 4.28822 7.8 4.28822V3.53822ZM3 8.46129H3.75C3.75 7.58761 3.75055 6.97632 3.7885 6.49993C3.8258 6.03176 3.89561 5.75937 3.99866 5.55193L3.32698 5.21825L2.6553 4.88456C2.43137 5.33531 2.33769 5.82283 2.29324 6.38082C2.24945 6.9306 2.25 7.61174 2.25 8.46129H3ZM4.63803 3.87358L4.29066 3.20888C3.58359 3.57838 3.01223 4.16608 2.6553 4.88456L3.32698 5.21825L3.99866 5.55193C4.21697 5.1125 4.56349 4.75877 4.9854 4.53829L4.63803 3.87358ZM8 1.99976H7.25V5.07668H8H8.75V1.99976H8ZM16 1.99976H15.25V5.07668H16H16.75V1.99976H16Z" fill="#E5F7F9"/>
<path d="M7.99982 12.4871C7.44753 12.4871 6.99982 12.9348 6.99982 13.4871C6.99982 14.0393 7.44753 14.4871 7.99982 14.4871V12.4871ZM8.00982 14.4871C8.5621 14.4871 9.00982 14.0393 9.00982 13.4871C9.00982 12.9348 8.5621 12.4871 8.00982 12.4871V14.4871ZM7.99982 16.0768C7.44753 16.0768 6.99982 16.5245 6.99982 17.0768C6.99982 17.6291 7.44753 18.0768 7.99982 18.0768V16.0768ZM8.00982 18.0768C8.5621 18.0768 9.00982 17.6291 9.00982 17.0768C9.00982 16.5245 8.5621 16.0768 8.00982 16.0768V18.0768ZM11.9998 12.4871C11.4475 12.4871 10.9998 12.9348 10.9998 13.4871C10.9998 14.0393 11.4475 14.4871 11.9998 14.4871V12.4871ZM12.0098 14.4871C12.5621 14.4871 13.0098 14.0393 13.0098 13.4871C13.0098 12.9348 12.5621 12.4871 12.0098 12.4871V14.4871ZM11.9998 16.0768C11.4475 16.0768 10.9998 16.5245 10.9998 17.0768C10.9998 17.6291 11.4475 18.0768 11.9998 18.0768V16.0768ZM12.0098 18.0768C12.5621 18.0768 13.0098 17.6291 13.0098 17.0768C13.0098 16.5245 12.5621 16.0768 12.0098 16.0768V18.0768ZM15.9998 12.4871C15.4475 12.4871 14.9998 12.9348 14.9998 13.4871C14.9998 14.0393 15.4475 14.4871 15.9998 14.4871V12.4871ZM16.0098 14.4871C16.5621 14.4871 17.0098 14.0393 17.0098 13.4871C17.0098 12.9348 16.5621 12.4871 16.0098 12.4871V14.4871ZM15.9998 16.0768C15.4475 16.0768 14.9998 16.5245 14.9998 17.0768C14.9998 17.6291 15.4475 18.0768 15.9998 18.0768V16.0768ZM16.0098 18.0768C16.5621 18.0768 17.0098 17.6291 17.0098 17.0768C17.0098 16.5245 16.5621 16.0768 16.0098 16.0768V18.0768ZM7.99982 13.4871V14.4871H8.00982V13.4871V12.4871H7.99982V13.4871ZM7.99982 17.0768V18.0768H8.00982V17.0768V16.0768H7.99982V17.0768ZM11.9998 13.4871V14.4871H12.0098V13.4871V12.4871H11.9998V13.4871ZM11.9998 17.0768V18.0768H12.0098V17.0768V16.0768H11.9998V17.0768ZM15.9998 13.4871V14.4871H16.0098V13.4871V12.4871H15.9998V13.4871ZM15.9998 17.0768V18.0768H16.0098V17.0768V16.0768H15.9998V17.0768Z" fill="#E5F7F9"/>
</svg>
