<svg width="32" height="32" viewBox="0 0 32 32" fill="none" xmlns="http://www.w3.org/2000/svg">
<path d="M17.414 2.99964C17.039 2.62469 16.5304 2.41406 16 2.41406C15.4697 2.41406 14.9611 2.62469 14.586 2.99964L1.29204 16.2916C1.19907 16.3846 1.12531 16.495 1.075 16.6165C1.02468 16.7379 0.998779 16.8681 0.998779 16.9996C0.998779 17.1311 1.02468 17.2613 1.075 17.3828C1.12531 17.5043 1.19907 17.6147 1.29204 17.7076C1.47982 17.8954 1.73449 18.0009 2.00004 18.0009C2.13153 18.0009 2.26173 17.975 2.38321 17.9247C2.50469 17.8744 2.61507 17.8006 2.70804 17.7076L16 4.41364L29.292 17.7076C29.4798 17.8954 29.7345 18.0009 30 18.0009C30.2656 18.0009 30.5203 17.8954 30.708 17.7076C30.8958 17.5199 31.0013 17.2652 31.0013 16.9996C31.0013 16.7341 30.8958 16.4794 30.708 16.2916L26 11.5856V4.99963C26 4.73442 25.8947 4.48006 25.7071 4.29253C25.5196 4.10499 25.2653 3.99964 25 3.99964H23C22.7348 3.99964 22.4805 4.10499 22.2929 4.29253C22.1054 4.48006 22 4.73442 22 4.99963V7.58563L17.414 2.99964Z" fill="#00AFC1"/>
<path d="M16 6.58594L28 18.5859V26.9999C28 27.7956 27.6839 28.5586 27.1213 29.1213C26.5587 29.6839 25.7956 29.9999 25 29.9999H7C6.20435 29.9999 5.44129 29.6839 4.87868 29.1213C4.31607 28.5586 4 27.7956 4 26.9999V18.5859L16 6.58594Z" fill="#00AFC1"/>
</svg>
