<svg width="26" height="26" viewBox="0 0 26 26" fill="none" xmlns="http://www.w3.org/2000/svg">
<path d="M2.45607 10.2106H5.06211V8.73467C5.06211 7.77639 5.60068 7.25917 6.57011 7.25917H10.3935C11.3629 7.25917 11.9015 7.77639 11.9015 8.73467V10.2102H14.2276V8.73467C14.2276 7.77639 14.7661 7.25917 15.7894 7.25917H19.376C20.3993 7.25917 20.9379 7.77639 20.9379 8.73467V10.2102H23.5444V7.26985C23.5444 5.3635 22.5322 4.39453 20.6798 4.39453H5.32071C3.47889 4.39453 2.45607 5.3635 2.45607 7.26985V10.2106ZM0 20.8302C0 21.3581 0.3445 21.692 0.883071 21.692H1.48664C2.01407 21.692 2.35857 21.3577 2.35857 20.8302V19.3009C2.47696 19.3334 2.82193 19.3547 3.06939 19.3547H22.9408C23.1887 19.3547 23.523 19.3329 23.6414 19.3009V20.8302C23.6414 21.3581 23.9859 21.692 24.5138 21.692H25.1276C25.6555 21.692 26 21.3577 26 20.8302V14.7017C26 12.7521 24.9122 11.6861 22.9413 11.6861H3.05871C1.08782 11.6861 0 12.7521 0 14.7017V20.8302Z" fill="#00AFC1"/>
</svg>
