<svg width="39" height="39" viewBox="0 0 39 39" fill="none" xmlns="http://www.w3.org/2000/svg">
<path d="M19.5833 32.776C19.2431 32.776 18.8969 32.7153 18.545 32.5938C18.1931 32.4722 17.8829 32.2778 17.6146 32.0104L15.099 29.7135C12.5226 27.3559 10.1951 25.0167 8.11646 22.696C6.03785 20.3753 4.99903 17.8169 5 15.0208C5 12.7361 5.76563 10.8281 7.29688 9.29687C8.82813 7.76562 10.7361 7 13.0208 7C14.309 7 15.5243 7.27319 16.6667 7.81958C17.809 8.36597 18.7813 9.11361 19.5833 10.0625C20.3854 9.11458 21.3576 8.36743 22.5 7.82104C23.6424 7.27465 24.8576 7.00097 26.1458 7C28.4306 7 30.3385 7.76562 31.8698 9.29687C33.401 10.8281 34.1667 12.7361 34.1667 15.0208C34.1667 17.816 33.1337 20.3802 31.0677 22.7135C29.0017 25.0469 26.6563 27.3924 24.0313 29.75L21.5521 32.0104C21.2847 32.2778 20.9751 32.4722 20.6231 32.5938C20.2712 32.7153 19.9246 32.776 19.5833 32.776Z" fill="#EE3A3D" fill-opacity="0.6"/>
<path d="M19.5 33.0285C19.1208 33.0285 18.7352 32.9608 18.343 32.8254C17.9508 32.69 17.6052 32.4733 17.3062 32.1754L14.5031 29.616C11.6323 26.9889 9.03879 24.3824 6.72263 21.7965C4.40646 19.2106 3.24892 16.3598 3.25 13.2441C3.25 10.6983 4.10313 8.57227 5.80938 6.86602C7.51563 5.15977 9.64167 4.30664 12.1875 4.30664C13.6229 4.30664 14.9771 4.61106 16.25 5.21989C17.5229 5.82872 18.6062 6.66181 19.5 7.71914C20.3938 6.66289 21.4771 5.83035 22.75 5.22152C24.0229 4.61268 25.3771 4.30772 26.8125 4.30664C29.3583 4.30664 31.4844 5.15977 33.1906 6.86602C34.8969 8.57227 35.75 10.6983 35.75 13.2441C35.75 16.3587 34.599 19.216 32.2969 21.816C29.9948 24.416 27.3813 27.0296 24.4563 29.6566L21.6938 32.1754C21.3958 32.4733 21.0508 32.69 20.6586 32.8254C20.2665 32.9608 19.8802 33.0285 19.5 33.0285ZM17.9563 10.9691C17.1708 9.85872 16.3313 9.0121 15.4375 8.42927C14.5438 7.84643 13.4604 7.55556 12.1875 7.55664C10.5625 7.55664 9.20833 8.09831 8.125 9.18164C7.04167 10.265 6.5 11.6191 6.5 13.2441C6.5 14.6525 7.00104 16.1491 8.00313 17.734C9.00521 19.3189 10.2039 20.8556 11.5993 22.3441C12.9946 23.8326 14.43 25.2274 15.9055 26.5285C17.381 27.8296 18.5792 28.8994 19.5 29.7379C20.4208 28.8983 21.6195 27.8285 23.0961 26.5285C24.5727 25.2285 26.0081 23.8337 27.4024 22.3441C28.7966 20.8546 29.9948 19.3179 30.9969 17.734C31.999 16.1502 32.5 14.6536 32.5 13.2441C32.5 11.6191 31.9583 10.265 30.875 9.18164C29.7917 8.09831 28.4375 7.55664 26.8125 7.55664C25.5396 7.55664 24.4563 7.84806 23.5625 8.43089C22.6687 9.01372 21.8292 9.85981 21.0437 10.9691C20.8542 11.24 20.624 11.4431 20.3531 11.5785C20.0823 11.7139 19.7979 11.7816 19.5 11.7816C19.2021 11.7816 18.9177 11.7139 18.6469 11.5785C18.376 11.4431 18.1458 11.24 17.9563 10.9691Z" fill="white"/>
</svg>
