<svg width="16" height="16" viewBox="0 0 16 16" fill="none" xmlns="http://www.w3.org/2000/svg">
<path d="M6.72016 7.23967C6.7535 7.01967 6.82683 6.82634 6.92016 6.65967C7.0135 6.49301 7.14683 6.35301 7.3135 6.24634C7.4735 6.14634 7.6735 6.09967 7.92016 6.09301C8.0735 6.09967 8.2135 6.12634 8.34016 6.17967C8.4735 6.23967 8.5935 6.31967 8.68683 6.41967C8.78016 6.51967 8.8535 6.63967 8.9135 6.77301C8.9735 6.90634 9.00016 7.05301 9.00683 7.19967H10.2002C10.1868 6.88634 10.1268 6.59967 10.0135 6.33967C9.90016 6.07967 9.74683 5.85301 9.54683 5.66634C9.34683 5.47967 9.10683 5.33301 8.82683 5.22634C8.54683 5.11967 8.24016 5.07301 7.90016 5.07301C7.46683 5.07301 7.08683 5.14634 6.76683 5.29967C6.44683 5.45301 6.18016 5.65301 5.96683 5.91301C5.7535 6.17301 5.5935 6.47301 5.4935 6.81967C5.3935 7.16634 5.3335 7.52634 5.3335 7.91301V8.09301C5.3335 8.47967 5.38683 8.83967 5.48683 9.18634C5.58683 9.53301 5.74683 9.83301 5.96016 10.0863C6.1735 10.3397 6.44016 10.5463 6.76016 10.693C7.08016 10.8397 7.46016 10.9197 7.8935 10.9197C8.20683 10.9197 8.50016 10.8663 8.7735 10.7663C9.04683 10.6663 9.28683 10.5263 9.49349 10.3463C9.70016 10.1663 9.86683 9.95967 9.98683 9.71967C10.1068 9.47967 10.1802 9.22634 10.1868 8.95301H8.9935C8.98683 9.09301 8.9535 9.21967 8.8935 9.33967C8.8335 9.45967 8.7535 9.55967 8.6535 9.64634C8.5535 9.73301 8.44016 9.79967 8.30683 9.84634C8.18016 9.89301 8.04683 9.90634 7.90683 9.91301C7.66683 9.90634 7.46683 9.85967 7.3135 9.75967C7.14683 9.65301 7.0135 9.51301 6.92016 9.34634C6.82683 9.17967 6.7535 8.97967 6.72016 8.75967C6.68683 8.53967 6.66683 8.31301 6.66683 8.09301V7.91301C6.66683 7.67967 6.68683 7.45967 6.72016 7.23967ZM8.00016 1.33301C4.32016 1.33301 1.3335 4.31967 1.3335 7.99967C1.3335 11.6797 4.32016 14.6663 8.00016 14.6663C11.6802 14.6663 14.6668 11.6797 14.6668 7.99967C14.6668 4.31967 11.6802 1.33301 8.00016 1.33301ZM8.00016 13.333C5.06016 13.333 2.66683 10.9397 2.66683 7.99967C2.66683 5.05967 5.06016 2.66634 8.00016 2.66634C10.9402 2.66634 13.3335 5.05967 13.3335 7.99967C13.3335 10.9397 10.9402 13.333 8.00016 13.333Z" fill="white"/>
</svg>
