<svg width="22" height="22" viewBox="0 0 22 22" fill="none" xmlns="http://www.w3.org/2000/svg">
<path d="M19.4792 10.9987C19.4806 12.112 19.2624 13.2146 18.8369 14.2433C18.4114 15.272 17.787 16.2067 16.9996 16.9937C16.2119 17.7817 15.2765 18.4066 14.2471 18.8329C13.2176 19.2591 12.1143 19.4783 11.0001 19.4779C9.80087 19.4805 8.61491 19.2274 7.5213 18.7354L3.97655 19.2597C3.80055 19.2884 3.6202 19.2738 3.45115 19.217C3.28211 19.1602 3.12949 19.063 3.00654 18.9338C2.8836 18.8046 2.79405 18.6474 2.74568 18.4757C2.6973 18.3041 2.69157 18.1232 2.72897 17.9489L3.22122 14.3528C2.75298 13.2969 2.51427 12.1537 2.52089 10.9987C2.51946 9.88544 2.73775 8.78284 3.16325 7.7541C3.58875 6.72536 4.21308 5.7907 5.00047 5.0037C5.78824 4.21575 6.72359 3.59078 7.75304 3.16453C8.78248 2.73828 9.88585 2.51911 11.0001 2.51953C13.2501 2.51968 15.4081 3.41319 16.9996 5.0037C17.7866 5.791 18.4107 6.72571 18.8362 7.75439C19.2616 8.78306 19.4801 9.88551 19.4792 10.9987Z" stroke="#FAFAFA" stroke-width="1.5" stroke-linecap="round" stroke-linejoin="round"/>
</svg>
