<svg width="24" height="24" viewBox="0 0 24 24" fill="none" xmlns="http://www.w3.org/2000/svg">
<path d="M15.0002 21H21.0002V20.175C20.5835 19.7917 20.1169 19.5 19.6002 19.3C19.0835 19.1 18.5502 19 18.0002 19C17.4502 19 16.9169 19.1 16.4002 19.3C15.8835 19.5 15.4169 19.7917 15.0002 20.175V21ZM18.0002 18C18.4169 18 18.7712 17.8543 19.0632 17.563C19.3552 17.2717 19.5009 16.9173 19.5002 16.5C19.4995 16.0827 19.3539 15.7287 19.0632 15.438C18.7725 15.1473 18.4182 15.0013 18.0002 15C17.5822 14.9987 17.2282 15.1447 16.9382 15.438C16.6482 15.7313 16.5022 16.0853 16.5002 16.5C16.4982 16.9147 16.6442 17.269 16.9382 17.563C17.2322 17.857 17.5862 18.0027 18.0002 18ZM12.0502 8.5C11.0835 8.5 10.2585 8.84167 9.5752 9.525C8.89186 10.2083 8.5502 11.0333 8.5502 12C8.5502 12.8 8.7752 13.5 9.2252 14.1C9.6752 14.7 10.2669 15.1167 11.0002 15.35C11.0002 14.9667 11.0045 14.6 11.0132 14.25C11.0219 13.9 11.0925 13.5833 11.2252 13.3C10.9919 13.1667 10.8212 12.9833 10.7132 12.75C10.6052 12.5167 10.5509 12.2667 10.5502 12C10.5502 11.5833 10.6962 11.2293 10.9882 10.938C11.2802 10.6467 11.6342 10.5007 12.0502 10.5C12.3002 10.5 12.5379 10.5627 12.7632 10.688C12.9885 10.8133 13.1759 10.984 13.3252 11.2C13.5085 11.1167 13.7002 11.0583 13.9002 11.025C14.1002 10.9917 14.3002 10.975 14.5002 10.975H15.4002C15.1835 10.2583 14.7712 9.66667 14.1632 9.2C13.5552 8.73333 12.8509 8.5 12.0502 8.5ZM9.2502 22L8.8502 18.8C8.63353 18.7167 8.42953 18.6167 8.2382 18.5C8.04686 18.3833 7.8592 18.2583 7.6752 18.125L4.7002 19.375L1.9502 14.625L4.5252 12.675C4.50853 12.5583 4.5002 12.446 4.5002 12.338V11.663C4.5002 11.5543 4.50853 11.4417 4.5252 11.325L1.9502 9.375L4.7002 4.625L7.6752 5.875C7.85853 5.74167 8.0502 5.61667 8.2502 5.5C8.4502 5.38333 8.6502 5.28333 8.8502 5.2L9.2502 2H14.7502L15.1502 5.2C15.3669 5.28333 15.5712 5.38333 15.7632 5.5C15.9552 5.61667 16.1425 5.74167 16.3252 5.875L19.3002 4.625L22.0502 9.375L19.9252 11H17.4002C17.3835 10.9167 17.3669 10.8293 17.3502 10.738C17.3335 10.6467 17.3085 10.559 17.2752 10.475L19.4252 8.85L18.4502 7.15L15.9752 8.2C15.6085 7.81667 15.2042 7.496 14.7622 7.238C14.3202 6.98 13.8412 6.784 13.3252 6.65L13.0002 4H11.0252L10.6752 6.65C10.1585 6.78333 9.67953 6.97933 9.2382 7.238C8.79686 7.49667 8.39253 7.809 8.0252 8.175L5.5502 7.15L4.5752 8.85L6.72519 10.45C6.64186 10.7 6.58353 10.95 6.5502 11.2C6.51686 11.45 6.5002 11.7167 6.5002 12C6.5002 12.2667 6.51686 12.525 6.5502 12.775C6.58353 13.025 6.64186 13.275 6.72519 13.525L4.5752 15.15L5.5502 16.85L8.0252 15.8C8.4252 16.2167 8.8752 16.5667 9.3752 16.85C9.8752 17.1333 10.4169 17.3167 11.0002 17.4V22H9.2502ZM14.5002 23C14.0835 23 13.7295 22.8543 13.4382 22.563C13.1469 22.2717 13.0009 21.9173 13.0002 21.5V14.5C13.0002 14.0833 13.1462 13.7293 13.4382 13.438C13.7302 13.1467 14.0842 13.0007 14.5002 13H21.5002C21.9169 13 22.2712 13.146 22.5632 13.438C22.8552 13.73 23.0009 14.084 23.0002 14.5V21.5C23.0002 21.9167 22.8545 22.271 22.5632 22.563C22.2719 22.855 21.9175 23.0007 21.5002 23H14.5002Z" fill="#808D8E"/>
</svg>
