<svg width="25" height="24" viewBox="0 0 25 24" fill="none" xmlns="http://www.w3.org/2000/svg">
<path d="M12.2145 18C16.2145 18 19.6745 15.78 21.4545 12.5C19.6745 9.22 16.2145 7 12.2145 7C8.21449 7 4.75449 9.22 2.97449 12.5C4.75449 15.78 8.21449 18 12.2145 18ZM12.2145 6C16.7745 6 20.7145 8.65 22.5745 12.5C20.7145 16.35 16.7745 19 12.2145 19C7.65449 19 3.71449 16.35 1.85449 12.5C3.71449 8.65 7.65449 6 12.2145 6ZM12.2145 8C14.7145 8 16.7145 10 16.7145 12.5C16.7145 15 14.7145 17 12.2145 17C9.71449 17 7.71449 15 7.71449 12.5C7.71449 10 9.71449 8 12.2145 8ZM12.2145 9C11.2862 9 10.396 9.36875 9.73962 10.0251C9.08324 10.6815 8.71449 11.5717 8.71449 12.5C8.71449 13.4283 9.08324 14.3185 9.73962 14.9749C10.396 15.6313 11.2862 16 12.2145 16C13.1427 16 14.033 15.6313 14.6894 14.9749C15.3457 14.3185 15.7145 13.4283 15.7145 12.5C15.7145 11.5717 15.3457 10.6815 14.6894 10.0251C14.033 9.36875 13.1427 9 12.2145 9Z" fill="white"/>
</svg>
