<svg width="22" height="24" viewBox="0 0 22 24" fill="none" xmlns="http://www.w3.org/2000/svg">
<path d="M6 9.58229V17.9823H15.6V9.58229C15.6 8.30925 15.0943 7.08835 14.1941 6.18817C13.2939 5.288 12.073 4.78229 10.8 4.78229C9.52696 4.78229 8.30606 5.288 7.40589 6.18817C6.50571 7.08835 6 8.30925 6 9.58229ZM8.436 2.77829C8.38128 2.43546 8.40159 2.08484 8.49552 1.75062C8.58946 1.4164 8.75478 1.10654 8.98009 0.842419C9.2054 0.578296 9.48533 0.366197 9.80056 0.220758C10.1158 0.0753181 10.4588 0 10.806 0C11.1532 0 11.4962 0.0753181 11.8114 0.220758C12.1267 0.366197 12.4066 0.578296 12.6319 0.842419C12.8572 1.10654 13.0225 1.4164 13.1165 1.75062C13.2104 2.08484 13.2307 2.43546 13.176 2.77829C14.5868 3.27148 15.8092 4.19146 16.6735 5.41064C17.5379 6.62982 18.0015 8.08777 18 9.58229V16.7823L21.6 19.1823V20.3823H0V19.1823L3.6 16.7823V9.58229C3.59934 8.08632 4.06468 6.62729 4.93134 5.40794C5.79801 4.18858 7.02296 3.26946 8.436 2.77829ZM13.2 21.5823C13.2 22.2188 12.9471 22.8293 12.4971 23.2793C12.047 23.7294 11.4365 23.9823 10.8 23.9823C10.1635 23.9823 9.55303 23.7294 9.10294 23.2793C8.65286 22.8293 8.4 22.2188 8.4 21.5823H13.2Z" fill="#565C5D"/>
</svg>
