<svg width="26" height="31" viewBox="0 0 26 31" fill="none" xmlns="http://www.w3.org/2000/svg">
<g clip-path="url(#clip0_85363_710)">
<path d="M25.6225 0H0V31H25.6225V0Z" fill="#yellow"/>
<path d="M144.983 -17.7139H-79.3979V59.048H144.983V-17.7139Z" fill="#yellow"/>
<path fill-rule="evenodd" clip-rule="evenodd" d="M0 1.40681C0 3.07807 0.123367 3.84337 0.531112 4.7024C0.865364 5.40665 1.62803 6.26442 2.29316 6.68429C3.28336 7.30936 3.84664 7.41385 6.51981 7.46847C8.97313 7.51855 8.97988 7.5194 8.8989 7.74251C8.85419 7.86567 8.80031 13.154 8.77911 19.4945L8.74052 31.0226L11.1976 30.9877C13.6358 30.9531 13.6596 30.9504 14.2874 30.6568C15.0633 30.2939 15.4353 29.9518 15.7998 29.2657L16.0799 28.7385L16.1385 18.5633C16.1844 10.5794 16.2269 8.29165 16.3358 7.94L16.4746 7.49188H21.0044H25.5343L25.4978 5.09307C25.4545 2.24001 25.3783 1.96955 24.3511 1.01857C23.2296 -0.0197173 24.3144 0.0628427 11.3614 0.0294175L0 0V1.40681ZM101.305 0.110503C100.775 0.270143 100.276 0.652369 100.014 1.10018C99.6438 1.73125 99.5419 2.65746 99.5395 5.40939C99.5384 6.72868 99.5226 7.8082 99.5047 7.8082C99.4867 7.8082 99.1397 7.64445 98.7335 7.44443C97.833 7.00073 96.4918 6.60247 95.3228 6.43155C93.9877 6.23638 91.7139 6.35437 90.4439 6.68482C85.8424 7.88201 82.4276 11.6213 81.6568 16.3067C81.4136 17.7853 81.5018 19.9352 81.8632 21.3358C82.5482 23.9909 84.0938 26.3264 86.2463 27.9589C87.155 28.6482 89.0247 29.5675 90.1867 29.8962C96.8319 31.7765 103.861 27.5929 105.242 20.9357C105.427 20.0485 105.44 19.3379 105.441 9.99613L105.442 0.0054832L103.518 0.014551C102.459 0.0195068 101.464 0.0627385 101.305 0.110503ZM137.521 14.2138L137.549 28.4221L137.783 28.859C138.07 29.3956 138.728 29.9736 139.26 30.1559C139.498 30.2374 140.412 30.3134 141.53 30.3444L143.401 30.3963V16.3467C143.401 5.79753 143.37 2.19267 143.276 1.87856C143.115 1.3408 142.314 0.450343 141.769 0.202765C141.408 0.039014 141.056 0.00980666 139.419 0.00780326L137.492 0.0054832L137.521 14.2138ZM51.2267 8.55326C47.3833 9.26299 111.701 22.987 72.8207 15.7164C77.9908 16.5257 98.779 21.0725 53.1505 17.7725C79.669 16.2879 43.7829 16.4206 43.7871 18.3524C53.5874 18.6687 73.6724 23.8137 49.9759 22.5701C51.051 26.5344 92.3088 29.1243 65.7432 29.4599C92.8394 28.1401 79.4062 30.3728 42.8804 29.2163C43.3794 28.9826 43.8049 28.7912 43.8258 28.7912C43.8468 28.7912 43.8639 29.1522 43.8639 29.5936V30.3959L45.7883 30.3467C47.2844 30.3084 47.8284 30.2553 48.2327 30.1077C48.8677 29.8762 49.5992 29.1716 49.7799 28.6173C49.8759 28.3229 49.9298 26.6601 49.9759 22.5701C50.0453 16.408 50.0036 16.8146 50.7092 15.4168C51.0433 14.755 51.692 14.0238 52.4429 13.4624C53.2675 12.846 53.6152 11.3702 53.1505 10.4593C52.7925 9.75751 50.4722 7.8082 49.9949 7.8082C49.737 7.8082 48.388 8.77395 47.6346 9.49812L46.9013 10.203L46.1723 9.4841C44.7711 8.10217 42.9798 7.11039 40.9194 6.57569C39.6204 6.23859 52.5323 8.31221 51.2267 8.55326ZM118.412 6.27518C118.325 6.29595 117.897 6.37071 117.463 6.44125C115.879 6.69821 114.011 7.5098 112.603 8.55326C111.67 9.24517 110.293 10.6956 109.7 11.6131C108.421 13.5896 107.874 15.3558 107.792 17.7725C107.731 19.5537 107.888 20.7649 108.357 22.1393C109.572 25.7026 112.578 28.6272 116.172 29.742C118.923 30.5952 122.467 30.3571 124.845 29.1595C125.247 28.9569 125.602 28.7912 125.631 28.7912C125.662 28.7912 125.687 29.1522 125.687 29.5936V30.3959L127.611 30.3467C129.728 30.2925 130.201 30.1889 130.877 29.6319C131.086 29.4596 131.367 29.0932 131.503 28.8177L131.75 28.3167L131.809 22.6755C131.852 18.4885 131.902 16.9257 132.003 16.6126C132.279 15.7575 132.91 14.7191 133.473 14.1907C134.768 12.9757 134.923 12.7974 135.048 12.379C135.204 11.8588 135.216 10.9816 135.071 10.6034C134.834 9.9782 132.613 8.01497 131.957 7.85038C131.634 7.7694 130.492 8.52447 129.464 9.49939L128.72 10.2045L128.063 9.54736C126.523 8.00812 124.601 6.9712 122.366 6.47446C121.699 6.32653 118.806 6.1807 118.412 6.27518ZM155.791 6.3435C152.806 6.7736 149.909 8.51445 148.02 11.0139C145.334 14.5658 144.869 19.5785 146.856 23.5718C148.023 25.918 149.965 27.8599 152.311 29.0271C155.501 30.6137 159.513 30.6658 162.766 29.163L163.541 28.8049V29.6005V30.3959L165.465 30.3495C167.135 30.3092 167.47 30.2721 167.993 30.0681C168.733 29.7793 169.368 29.1056 169.538 28.4273C169.617 28.1156 169.658 26.2611 169.659 22.8661C169.661 17.2461 169.687 16.9451 170.301 15.6532C170.572 15.0815 170.865 14.7108 171.668 13.9238C172.888 12.7282 173.065 12.4223 173.076 11.4987C173.085 10.6163 172.768 10.0497 171.81 9.23652C170.955 8.51182 169.93 7.8082 169.727 7.8082C169.461 7.8082 168.261 8.67515 167.435 9.46406L166.636 10.2258L166.117 9.68929C164.947 8.4824 163.158 7.36482 161.505 6.80988C159.949 6.28773 157.541 6.09118 155.791 6.3435ZM65.7432 6.40087C65.0088 6.51727 63.7378 6.87398 62.9759 7.17745C61.3588 7.82159 60.0083 8.74737 58.7299 10.088C57.4592 11.4205 56.6659 12.7309 56.091 14.4467C55.5042 16.1982 55.4638 16.807 55.4632 23.9145L55.4626 30.3728H57.0248C59.3548 30.3728 60.185 30.1666 60.9147 29.4063C61.5726 28.721 61.578 28.669 61.58 23.0049C61.582 17.3716 61.618 16.9572 62.2067 15.7691C62.9247 14.3199 64.1611 13.2297 65.6929 12.6953C66.5899 12.3823 68.0134 12.3162 68.8537 12.5484C70.4986 13.0029 72.064 14.253 72.8207 15.7164L73.2296 16.5072L73.2823 22.4119C73.3402 28.8987 73.325 28.749 73.9996 29.4599C74.6654 30.1613 75.5551 30.3728 77.8398 30.3728H79.4062L79.373 23.1237C79.3406 16.0434 79.3345 15.8561 79.1105 15.0837C77.8745 10.8223 74.7435 7.80557 70.3332 6.62651C69.725 6.46392 69.1319 6.40677 67.7993 6.38252C66.8424 6.36502 65.9172 6.37335 65.7432 6.40087ZM39.876 12.6857C40.8291 13.0342 41.5298 13.5025 42.2304 14.2594C43.2927 15.4067 43.8063 16.7573 43.7871 18.3524C43.7489 21.5148 70.97 24.1643 67.7993 24.1643C65.1948 24.1643 62.227 25.5143 61.58 23.0049C103.358 22.7387 82.5836 19.1579 53.1505 17.7725C74.0897 18.9658 70.1904 15.5672 72.4648 15.1267C73.1247 14.9989 39.18 12.4312 39.876 12.6857ZM120.963 12.4579C122.392 12.7536 124.013 13.9071 124.781 15.1743C125.385 16.1722 125.609 16.9881 125.609 18.1943C125.609 19.9484 124.975 21.4082 123.711 22.5688C121.361 24.7258 117.822 24.6402 115.556 22.3719C113.798 20.6124 113.369 17.9605 114.467 15.646C115.246 14.0052 116.951 12.7121 118.728 12.415C119.272 12.3241 120.424 12.3462 120.963 12.4579ZM158.996 12.5043C161.748 13.1531 163.682 15.7507 163.507 18.5633C163.386 20.5185 162.442 22.1324 160.801 23.1934C157.923 25.0534 153.913 23.9918 152.428 20.9774C151.247 18.5779 151.65 15.9117 153.473 14.0682C154.876 12.6491 157.027 12.0401 158.996 12.5043ZM94.9452 12.6088C96.9101 13.1206 98.6001 14.7591 99.1836 16.7181C99.4621 17.6531 99.4418 19.1582 99.1386 20.0395C98.3436 22.3506 96.6034 23.8096 94.2186 24.1643C91.5158 24.5663 88.6775 22.6939 87.8295 19.9493C87.5686 19.1049 87.5501 17.5825 87.7907 16.7636C88.3862 14.7378 90.0928 13.0806 92.0797 12.5992C92.8489 12.4128 94.2102 12.4174 94.9452 12.6088Z" fill="#00AFC1"/>
</g>
<defs>
<clipPath id="clip0_85363_710">
<rect width="25.6225" height="31" fill="white"/>
</clipPath>
</defs>
</svg>
