<svg width="24" height="24" viewBox="0 0 24 24" fill="none" xmlns="http://www.w3.org/2000/svg">
<path d="M2.76923 3.69238C1.24062 3.69238 0 4.933 0 6.46161V17.5385C0 19.0672 1.24062 20.3078 2.76923 20.3078H21.2308C22.7594 20.3078 24 19.0672 24 17.5385V6.46161C24 4.933 22.7594 3.69238 21.2308 3.69238H2.76923ZM2.76923 5.53854H21.2308C21.7394 5.53854 22.1538 5.953 22.1538 6.46161V6.92315L12 12.4044L1.84615 6.92315V6.46161C1.84615 5.953 2.26062 5.53854 2.76923 5.53854ZM1.84615 7.18254L7.87477 11.8847L1.96154 17.9428L9.17354 12.8078L12 14.6253L14.8274 12.8078L22.0385 17.9428L16.1252 11.8847L22.1538 7.18254V17.5385C22.1487 17.6807 22.1091 17.8194 22.0385 17.9428C21.8862 18.2428 21.5898 18.4616 21.2308 18.4616H2.76923C2.41015 18.4616 2.11385 18.2438 1.96154 17.9428C1.891 17.8197 1.85141 17.6804 1.84615 17.5385V7.18254Z" fill="#808D8E"/>
</svg>
